<svg width="202" height="246" viewBox="0 0 202 246" fill="none" xmlns="http://www.w3.org/2000/svg">
<path fill-rule="evenodd" clip-rule="evenodd" d="M155.327 123.712L177.093 145.477H177.103L177.098 145.482L177.101 145.485H177.094L143.494 179.085L121.72 157.311L105.111 173.92L105.108 173.916L121.717 157.307L109.895 145.485H109.885L109.89 145.48L109.886 145.477H109.893L122.596 132.774L100.819 110.997L79.0942 132.722L91.8578 145.485H91.8402L58.2405 179.085L45.488 166.333L33.6153 178.205L63.2684 207.858H63.0168L100.826 245.668L138.636 207.858H138.389L168.042 178.205L201.642 144.605H201.65L201.646 144.601L201.65 144.597H201.642L168.042 110.997L155.327 123.712ZM122.601 132.769L100.826 110.993L134.434 77.3855V77.3848L134.434 77.3851L134.434 77.3848V77.3855L168.042 110.993L155.325 123.71L143.493 111.877L122.601 132.769ZM79.0923 132.72L100.819 110.993L67.2237 77.3978V77.3848L67.2172 77.3913L67.2107 77.3848V77.3978L33.6153 110.993L46.3744 123.752L58.2495 111.877L79.0923 132.72ZM46.3689 123.758L33.6083 110.997L0.00839233 144.597H0L0.00419617 144.601L0 144.605H0.00839233L33.6083 178.205L45.4845 166.329L24.6322 145.477H24.6497L46.3689 123.758ZM86.2383 218.972L100.578 233.312L100.322 218.968L86.2383 218.972ZM101.657 233.312L115.997 218.972L101.913 218.968L101.657 233.312Z" fill="white"/>
<path d="M1.97593 20.1921L56.5492 38.6653L69.1392 88.4214" stroke="white" stroke-width="3"/>
<path d="M199.753 20.1162L145.216 38.7062L132.515 88.4214" stroke="white" stroke-width="3"/>
</svg>
