<svg width="28" height="33" viewBox="0 0 28 33" fill="none" xmlns="http://www.w3.org/2000/svg">
<path fill-rule="evenodd" clip-rule="evenodd" d="M21.0591 16.4638L23.878 19.2507H23.8796L23.8788 19.2515L23.8794 19.2521H23.8782L19.5266 23.5542L18.3529 22.3938V27.2387H18.3528V22.3937L16.7064 20.766L14.5551 22.8928L14.5549 22.8925L16.7061 20.7657L15.1751 19.2521H15.1734L15.1743 19.2513L15.1737 19.2507H15.1748L16.8199 17.6244L13.9993 14.8358L11.1858 17.6173L12.8394 19.2521H12.836L11.2987 20.7719L13.4768 22.9253L13.4768 22.9253L11.2987 20.7719L8.48438 23.5542L6.83274 21.9213L5.2948 23.4418L9.13542 27.2387H9.10271L13.9998 32.0801L18.8969 27.2387H18.8652L22.7059 23.4418L22.7058 23.4418L27.0578 19.1393H27.0588L27.0583 19.1388L27.0588 19.1383H27.0578L22.7058 14.8358L21.0591 16.4638ZM16.8204 17.6238L18.3528 16.1089V10.5317L13.9998 14.8352L16.8204 17.6238ZM18.3529 16.1088V10.5317L22.7059 14.8352L21.0588 16.4635L19.5264 14.9486L18.3529 16.1088ZM11.1855 17.617L13.9992 14.8352L9.64779 10.5332V10.5317L9.64704 10.5325L9.6463 10.5317V10.5332L5.2948 14.8352L6.94794 16.4696L8.4864 14.9486L11.1855 17.617ZM6.9472 16.4703L5.29391 14.8358L0.941931 19.1383H0.940918L0.941424 19.1388L0.940918 19.1393H0.941931L5.29391 23.4418L6.83229 21.9209L4.13141 19.2507H4.13479L6.9472 16.4703ZM12.1104 28.6622L13.9677 30.4984L13.9345 28.6616L12.1104 28.6622ZM14.1076 30.4984L15.9649 28.6622L14.1407 28.6616L14.1076 30.4984Z" fill="#EB5FB9"/>
<path d="M1.19668 3.35625L8.26506 5.74893L9.89571 12.1934" stroke="#EB5FB9"/>
<path d="M26.8134 3.34642L19.7498 5.75421L18.1046 12.1934" stroke="#EB5FB9"/>
</svg>
