<svg width="25" height="26" viewBox="0 0 25 26" fill="none" xmlns="http://www.w3.org/2000/svg">
<path d="M17.7081 2.38783C19.0883 2.39196 20.4108 2.94205 21.3867 3.91798C22.3626 4.89391 22.9127 6.21637 22.9169 7.59654V18.0128C22.9127 19.393 22.3626 20.7155 21.3867 21.6914C20.4108 22.6673 19.0883 23.2174 17.7081 23.2215H7.29185C5.91169 23.2174 4.58922 22.6673 3.61329 21.6914C2.63737 20.7155 2.08727 19.393 2.08315 18.0128V7.59654C2.08727 6.21637 2.63737 4.89391 3.61329 3.91798C4.58922 2.94205 5.91169 2.39196 7.29185 2.38783H17.7081V2.38783ZM17.7081 0.304688H7.29185C3.28125 0.304688 0 3.58594 0 7.59654V18.0128C0 22.0234 3.28125 25.3047 7.29185 25.3047H17.7081C21.7187 25.3047 25 22.0234 25 18.0128V7.59654C25 3.58594 21.7187 0.304688 17.7081 0.304688V0.304688Z" fill="white"/>
<path d="M19.2706 7.59666C18.9616 7.59666 18.6595 7.50502 18.4025 7.33333C18.1456 7.16165 17.9453 6.91762 17.8271 6.63211C17.7088 6.3466 17.6778 6.03244 17.7381 5.72934C17.7984 5.42625 17.9472 5.14784 18.1658 4.92932C18.3843 4.7108 18.6627 4.56199 18.9658 4.5017C19.2689 4.44141 19.583 4.47236 19.8686 4.59062C20.1541 4.70888 20.3981 4.90915 20.5698 5.1661C20.7415 5.42305 20.8331 5.72514 20.8331 6.03417C20.8335 6.23948 20.7934 6.44286 20.7151 6.63263C20.6367 6.8224 20.5216 6.99482 20.3764 7.14C20.2313 7.28518 20.0588 7.40026 19.8691 7.47862C19.6793 7.55699 19.4759 7.5971 19.2706 7.59666V7.59666ZM12.5 8.63795C13.3241 8.63795 14.1297 8.88233 14.815 9.34019C15.5002 9.79804 16.0343 10.4488 16.3496 11.2102C16.665 11.9716 16.7475 12.8094 16.5868 13.6177C16.426 14.426 16.0291 15.1684 15.4464 15.7512C14.8636 16.3339 14.1212 16.7308 13.3129 16.8915C12.5046 17.0523 11.6668 16.9698 10.9054 16.6544C10.144 16.339 9.49324 15.805 9.03538 15.1197C8.57752 14.4345 8.33314 13.6289 8.33314 12.8048C8.33433 11.7 8.77371 10.6409 9.55489 9.85969C10.3361 9.07851 11.3952 8.63913 12.5 8.63795V8.63795ZM12.5 6.55481C11.2639 6.55481 10.0555 6.92137 9.02768 7.60812C7.99988 8.29488 7.1988 9.27099 6.72575 10.413C6.25271 11.5551 6.12894 12.8117 6.37009 14.0241C6.61125 15.2365 7.2065 16.3501 8.08058 17.2242C8.95466 18.0982 10.0683 18.6935 11.2807 18.9346C12.4931 19.1758 13.7497 19.052 14.8917 18.579C16.0338 18.1059 17.0099 17.3049 17.6967 16.2771C18.3834 15.2493 18.75 14.0409 18.75 12.8048C18.75 11.1472 18.0915 9.55748 16.9194 8.38539C15.7473 7.21329 14.1576 6.55481 12.5 6.55481V6.55481Z" fill="white"/>
</svg>
