<svg width="305" height="305" viewBox="0 0 305 305" fill="none" xmlns="http://www.w3.org/2000/svg">
<g filter="url(#filter0_b)">
<rect width="305" height="305" rx="5" fill="white" fill-opacity="0.2"/>
</g>
<line y1="235.5" x2="305" y2="235.5" stroke="white" stroke-opacity="0.5"/>
<path d="M33.5977 276.496H25.3594V274.574C26.9062 271.824 29.3203 267.996 32.6016 263.09H35.6602V274.609H38.0625V276.496H35.6602V280H33.5977V276.496ZM27.5156 274.621H33.6094V265.047H33.4688C31.6406 267.703 29.6562 270.848 27.5156 274.48V274.621ZM46.7227 280.387C45.2852 280.387 44.0703 279.988 43.0781 279.191C42.0781 278.402 41.4453 277.328 41.1797 275.969H43.3477C43.5742 276.758 43.9883 277.379 44.5898 277.832C45.1992 278.285 45.918 278.512 46.7461 278.512C48.1211 278.512 49.1875 277.918 49.9453 276.73C50.7109 275.543 51.1211 273.824 51.1758 271.574H50.9883C50.5742 272.395 49.9727 273.031 49.1836 273.484C48.3945 273.945 47.4961 274.176 46.4883 274.176C44.8789 274.176 43.5508 273.641 42.5039 272.57C41.457 271.508 40.9336 270.156 40.9336 268.516C40.9336 266.812 41.4883 265.418 42.5977 264.332C43.707 263.238 45.1289 262.691 46.8633 262.691C49.4727 262.691 51.3203 263.973 52.4062 266.535C52.9531 267.816 53.2266 269.387 53.2266 271.246C53.2266 274.152 52.6602 276.402 51.5273 277.996C50.3945 279.59 48.793 280.387 46.7227 280.387ZM46.8633 272.348C47.9805 272.348 48.9023 271.988 49.6289 271.27C50.3477 270.551 50.707 269.633 50.707 268.516C50.707 267.383 50.3398 266.438 49.6055 265.68C48.8789 264.922 47.9727 264.543 46.8867 264.543C45.8008 264.543 44.8945 264.918 44.168 265.668C43.4336 266.41 43.0664 267.336 43.0664 268.445C43.0664 269.602 43.418 270.539 44.1211 271.258C44.832 271.984 45.7461 272.348 46.8633 272.348ZM62.3086 280.398C60.4023 280.398 58.9258 279.625 57.8789 278.078C56.832 276.531 56.3086 274.352 56.3086 271.539C56.3086 268.75 56.8359 266.578 57.8906 265.023C58.9453 263.469 60.418 262.691 62.3086 262.691C64.1914 262.691 65.6562 263.473 66.7031 265.035C67.7578 266.598 68.2852 268.777 68.2852 271.574C68.2852 274.379 67.7656 276.551 66.7266 278.09C65.6797 279.629 64.207 280.398 62.3086 280.398ZM62.3086 278.559C63.5586 278.559 64.5117 277.957 65.168 276.754C65.832 275.543 66.1641 273.805 66.1641 271.539C66.1641 269.297 65.832 267.57 65.168 266.359C64.4961 265.148 63.543 264.543 62.3086 264.543C61.0742 264.543 60.1172 265.152 59.4375 266.371C58.7656 267.582 58.4297 269.305 58.4297 271.539C58.4297 273.797 58.7656 275.531 59.4375 276.742C60.1016 277.953 61.0586 278.559 62.3086 278.559ZM78.0117 267.145C79.6211 267.145 80.9102 267.738 81.8789 268.926C82.8398 270.113 83.3203 271.699 83.3203 273.684C83.3203 275.66 82.8359 277.242 81.8672 278.43C80.8984 279.625 79.6133 280.223 78.0117 280.223C76.1133 280.223 74.7969 279.516 74.0625 278.102H73.875V284.219H71.8594V267.367H73.7812V269.477H73.9688C74.375 268.75 74.9336 268.18 75.6445 267.766C76.3633 267.352 77.1523 267.145 78.0117 267.145ZM77.5312 278.406C78.6875 278.406 79.5938 277.988 80.25 277.152C80.9062 276.316 81.2344 275.16 81.2344 273.684C81.2344 272.207 80.9062 271.051 80.25 270.215C79.6016 269.379 78.6992 268.961 77.543 268.961C76.4023 268.961 75.4961 269.383 74.8242 270.227C74.1523 271.078 73.8164 272.23 73.8164 273.684C73.8164 275.129 74.1523 276.277 74.8242 277.129C75.4883 277.98 76.3906 278.406 77.5312 278.406Z" fill="white"/>
<path d="M50.8105 23.8623C52.8125 23.8623 54.4385 24.4971 55.6885 25.7666C56.9482 27.0459 57.5781 28.6914 57.5781 30.7031C57.5781 32.6758 56.9434 34.2969 55.6738 35.5664C54.3945 36.8262 52.7637 37.4561 50.7812 37.4561H45.4639V45H42.8271V23.8623H50.8105ZM45.4639 35.1123H50.1221C51.626 35.1123 52.793 34.7266 53.623 33.9551C54.4531 33.1836 54.8682 32.0996 54.8682 30.7031C54.8682 29.248 54.458 28.1348 53.6377 27.3633C52.8271 26.5918 51.6553 26.2061 50.1221 26.2061H45.4639V35.1123ZM71.084 23.3643C74.082 23.3643 76.4453 24.3604 78.1738 26.3525C79.8926 28.335 80.752 31.0254 80.752 34.4238C80.752 37.8223 79.8975 40.5127 78.1885 42.4951C76.4502 44.4971 74.082 45.498 71.084 45.498C68.0664 45.498 65.6885 44.4971 63.9502 42.4951C62.2314 40.5127 61.3721 37.8223 61.3721 34.4238C61.3721 31.0254 62.2461 28.3301 63.9941 26.3379C65.7324 24.3555 68.0957 23.3643 71.084 23.3643ZM71.084 25.7959C68.9355 25.7959 67.2314 26.5723 65.9717 28.125C64.7119 29.6777 64.082 31.7773 64.082 34.4238C64.082 37.0703 64.7021 39.165 65.9424 40.708C67.1924 42.2803 68.9062 43.0664 71.084 43.0664C73.2422 43.0664 74.9463 42.2803 76.1963 40.708C77.4268 39.1553 78.042 37.0605 78.042 34.4238C78.042 31.7676 77.4219 29.668 76.1816 28.125C74.9414 26.5723 73.2422 25.7959 71.084 25.7959ZM88.7354 33.0322H91.5918C92.832 33.0322 93.8525 32.6807 94.6533 31.9775C95.4443 31.2646 95.8398 30.3564 95.8398 29.2529C95.8398 28.1787 95.4736 27.3242 94.7412 26.6895C93.9893 26.0352 92.9541 25.708 91.6357 25.708C90.3271 25.708 89.2725 26.0254 88.4717 26.6602C87.6611 27.2852 87.2021 28.1592 87.0947 29.2822H84.5312C84.668 27.4463 85.376 26.001 86.6553 24.9463C87.9443 23.8916 89.6387 23.3643 91.7383 23.3643C93.7207 23.3643 95.3467 23.8965 96.6162 24.9609C97.8857 26.0156 98.5205 27.3682 98.5205 29.0186C98.5205 30.1709 98.1738 31.1963 97.4805 32.0947C96.7773 33.0029 95.8643 33.5938 94.7412 33.8672V34.1016C96.1279 34.248 97.2461 34.7705 98.0957 35.6689C98.9844 36.6162 99.4287 37.8271 99.4287 39.3018C99.4287 41.04 98.6963 42.5098 97.2314 43.7109C95.7666 44.9023 93.9697 45.498 91.8408 45.498C89.6045 45.498 87.7832 44.9463 86.377 43.8428C84.9609 42.749 84.2041 41.2988 84.1064 39.4922H86.6553C86.7725 40.6055 87.2949 41.4941 88.2227 42.1582C89.1602 42.8223 90.3564 43.1543 91.8115 43.1543C93.2861 43.1543 94.4775 42.7832 95.3857 42.041C96.2744 41.3184 96.7188 40.3809 96.7188 39.2285C96.7188 38.0273 96.2842 37.0898 95.415 36.416C94.5264 35.7227 93.291 35.376 91.709 35.376H88.7354V33.0322ZM115.498 38.9502H107.09L104.966 45H102.197L109.99 23.8623H112.598L120.391 45H117.622L115.498 38.9502ZM107.866 36.709H114.722L111.411 27.2754H111.177L107.866 36.709ZM136.943 45V26.2354H129.224L128.55 37.0898C128.384 39.7754 127.91 41.7529 127.129 43.0225C126.27 44.4287 124.946 45.1318 123.159 45.1318C122.749 45.1318 122.407 45.083 122.134 44.9854V42.627C122.349 42.6855 122.612 42.7148 122.925 42.7148C124.028 42.7148 124.824 42.1729 125.312 41.0889C125.703 40.2393 125.952 38.8721 126.06 36.9873L126.821 23.8623H139.58V45H136.943ZM159.546 28.1836H159.312L147.886 45H145.278V23.8623H147.886V40.7373H148.12L159.546 23.8623H162.153V45H159.546V28.1836ZM182.075 45V35.376H170.474V45H167.837V23.8623H170.474V33.0029H182.075V23.8623H184.712V45H182.075ZM194.453 37.2217C194.297 39.7119 193.804 41.4551 192.974 42.4512V42.627H203.228V26.2354H195.142L194.453 37.2217ZM190.586 49.1748H188.14V42.627H189.707C191.055 41.9141 191.812 40.0928 191.978 37.1631L192.783 23.8623H205.864V42.627H208.501V49.1748H206.055V45H190.586V49.1748ZM224.57 38.9502H216.162L214.038 45H211.27L219.062 23.8623H221.67L229.463 45H226.694L224.57 38.9502ZM216.938 36.709H223.794L220.483 27.2754H220.249L216.938 36.709Z" fill="white"/>
<path d="M27.5557 97V87.5342H28.9443L32.6621 95.4004H32.7676L36.4678 87.5342H37.8037V97H36.6523V89.6436H36.5205L33.1455 96.8154H32.2402L28.8301 89.6436H28.707V97H27.5557ZM43.7979 96.1387C44.6475 96.1387 45.3564 95.8838 45.9248 95.374C46.499 94.8584 46.7861 94.2256 46.7861 93.4756V92.3682L43.9824 92.5703C42.3945 92.6816 41.6006 93.2793 41.6006 94.3633C41.6006 94.9023 41.8086 95.333 42.2246 95.6553C42.6289 95.9775 43.1533 96.1387 43.7979 96.1387ZM43.6045 97.1582C42.667 97.1582 41.9023 96.9062 41.3105 96.4023C40.7129 95.8926 40.4141 95.2188 40.4141 94.3809C40.4141 93.5605 40.71 92.9131 41.3018 92.4385C41.8818 91.9697 42.7227 91.6973 43.8242 91.6211L46.7861 91.4277V90.5137C46.7861 89.834 46.5869 89.3125 46.1885 88.9492C45.7842 88.5859 45.1982 88.4043 44.4307 88.4043C43.7803 88.4043 43.2354 88.5332 42.7959 88.791C42.3506 89.0547 42.0723 89.415 41.9609 89.8721H40.792C40.9033 89.1221 41.2959 88.5186 41.9697 88.0615C42.6377 87.6045 43.4697 87.376 44.4658 87.376C45.5732 87.376 46.4316 87.6514 47.041 88.2021C47.6445 88.7471 47.9463 89.5146 47.9463 90.5049V97H46.8389V95.374H46.7334C46.4463 95.9365 46.0273 96.373 45.4766 96.6836C44.9258 97 44.3018 97.1582 43.6045 97.1582ZM53.1055 92.9307C53 94.29 52.7832 95.2861 52.4551 95.9189C52.0508 96.6924 51.4268 97.0791 50.583 97.0791C50.3896 97.0791 50.2139 97.0498 50.0557 96.9912V95.9277C50.1963 95.9746 50.3545 95.998 50.5303 95.998C50.999 95.998 51.3506 95.7109 51.585 95.1367C51.79 94.6504 51.9307 93.9004 52.0068 92.8867C52.1416 91.4805 52.2646 89.6963 52.376 87.5342H58.4316V97H57.2803V88.5098H53.4219C53.3281 90.3145 53.2227 91.7881 53.1055 92.9307ZM61.5693 97V87.5342H62.7207V95.1631H62.835L68.1523 87.5342H69.3037V97H68.1523V89.3711H68.0469L62.7207 97H61.5693ZM72.4326 87.5342H73.584V91.5947H78.9014V87.5342H80.0527V97H78.9014V92.5703H73.584V97H72.4326V87.5342ZM86.0557 96.1387C86.9053 96.1387 87.6143 95.8838 88.1826 95.374C88.7568 94.8584 89.0439 94.2256 89.0439 93.4756V92.3682L86.2402 92.5703C84.6523 92.6816 83.8584 93.2793 83.8584 94.3633C83.8584 94.9023 84.0664 95.333 84.4824 95.6553C84.8867 95.9775 85.4111 96.1387 86.0557 96.1387ZM85.8623 97.1582C84.9248 97.1582 84.1602 96.9062 83.5684 96.4023C82.9707 95.8926 82.6719 95.2188 82.6719 94.3809C82.6719 93.5605 82.9678 92.9131 83.5596 92.4385C84.1396 91.9697 84.9805 91.6973 86.082 91.6211L89.0439 91.4277V90.5137C89.0439 89.834 88.8447 89.3125 88.4463 88.9492C88.042 88.5859 87.4561 88.4043 86.6885 88.4043C86.0381 88.4043 85.4932 88.5332 85.0537 88.791C84.6084 89.0547 84.3301 89.415 84.2188 89.8721H83.0498C83.1611 89.1221 83.5537 88.5186 84.2275 88.0615C84.8955 87.6045 85.7275 87.376 86.7236 87.376C87.8311 87.376 88.6895 87.6514 89.2988 88.2021C89.9023 88.7471 90.2041 89.5146 90.2041 90.5049V97H89.0967V95.374H88.9912C88.7041 95.9365 88.2852 96.373 87.7344 96.6836C87.1836 97 86.5596 97.1582 85.8623 97.1582Z" fill="white"/>
<path d="M28.707 118.51V121.621H31.0713C31.7275 121.621 32.2314 121.48 32.583 121.199C32.9229 120.924 33.0928 120.531 33.0928 120.021C33.0928 119.553 32.9375 119.187 32.627 118.923C32.3047 118.647 31.8477 118.51 31.2559 118.51H28.707ZM28.707 122.597V126.024H31.3965C32.8262 126.024 33.541 125.447 33.541 124.293C33.541 123.162 32.75 122.597 31.168 122.597H28.707ZM27.5557 117.534H31.3877C32.2725 117.534 32.9697 117.748 33.4795 118.176C33.9775 118.604 34.2266 119.184 34.2266 119.916C34.2266 120.426 34.0713 120.877 33.7607 121.27C33.4502 121.656 33.0518 121.896 32.5654 121.99V122.104C33.1865 122.175 33.6904 122.409 34.0771 122.808C34.4814 123.212 34.6836 123.713 34.6836 124.311C34.6836 125.154 34.3994 125.813 33.8311 126.288C33.2568 126.763 32.4541 127 31.4229 127H27.5557V117.534ZM41.1436 126.112C42.1162 126.112 42.8779 125.77 43.4287 125.084C43.9795 124.404 44.2549 123.464 44.2549 122.263C44.2549 121.062 43.9795 120.121 43.4287 119.441C42.8779 118.756 42.1162 118.413 41.1436 118.413C40.1709 118.413 39.4092 118.756 38.8584 119.441C38.3076 120.121 38.0322 121.062 38.0322 122.263C38.0322 123.464 38.3076 124.404 38.8584 125.084C39.4092 125.77 40.1709 126.112 41.1436 126.112ZM41.1436 127.158C39.8193 127.158 38.7734 126.719 38.0059 125.84C37.2324 124.967 36.8457 123.774 36.8457 122.263C36.8457 120.751 37.2324 119.559 38.0059 118.686C38.7734 117.812 39.8193 117.376 41.1436 117.376C42.4678 117.376 43.5166 117.812 44.29 118.686C45.0635 119.559 45.4502 120.751 45.4502 122.263C45.4502 123.774 45.0635 124.967 44.29 125.84C43.5166 126.719 42.4678 127.158 41.1436 127.158ZM54.2832 118.51H50.1787C50.0908 120.186 49.9824 121.659 49.8535 122.931C49.7305 124.39 49.4463 125.386 49.001 125.919V126.024H54.2832V118.51ZM46.8564 129.505V126.024H47.6211C48.2539 125.614 48.6377 124.568 48.7725 122.887C48.8076 122.541 48.9336 120.757 49.1504 117.534H55.4346V126.024H56.9639V129.505H55.874V127H47.9463V129.505H46.8564ZM60.6113 121.683L64.8213 117.534H66.2451L61.5781 122.078L66.4561 127H64.9355L60.6113 122.605H60.2422V127H59.0908V117.534H60.2422V121.683H60.6113ZM71.29 126.139C72.1396 126.139 72.8486 125.884 73.417 125.374C73.9912 124.858 74.2783 124.226 74.2783 123.476V122.368L71.4746 122.57C69.8867 122.682 69.0928 123.279 69.0928 124.363C69.0928 124.902 69.3008 125.333 69.7168 125.655C70.1211 125.978 70.6455 126.139 71.29 126.139ZM71.0967 127.158C70.1592 127.158 69.3945 126.906 68.8027 126.402C68.2051 125.893 67.9062 125.219 67.9062 124.381C67.9062 123.561 68.2021 122.913 68.7939 122.438C69.374 121.97 70.2148 121.697 71.3164 121.621L74.2783 121.428V120.514C74.2783 119.834 74.0791 119.312 73.6807 118.949C73.2764 118.586 72.6904 118.404 71.9229 118.404C71.2725 118.404 70.7275 118.533 70.2881 118.791C69.8428 119.055 69.5645 119.415 69.4531 119.872H68.2842C68.3955 119.122 68.7881 118.519 69.4619 118.062C70.1299 117.604 70.9619 117.376 71.958 117.376C73.0654 117.376 73.9238 117.651 74.5332 118.202C75.1367 118.747 75.4385 119.515 75.4385 120.505V127H74.3311V125.374H74.2256C73.9385 125.937 73.5195 126.373 72.9688 126.684C72.418 127 71.7939 127.158 71.0967 127.158Z" fill="white"/>
<path d="M34.0684 150.32C33.916 149.758 33.6084 149.304 33.1455 148.958C32.6533 148.595 32.0557 148.413 31.3525 148.413C30.4092 148.413 29.6621 148.759 29.1113 149.45C28.5547 150.142 28.2764 151.07 28.2764 152.236C28.2764 153.42 28.5547 154.36 29.1113 155.058C29.668 155.761 30.415 156.112 31.3525 156.112C32.0557 156.112 32.6445 155.951 33.1191 155.629C33.5996 155.307 33.9131 154.855 34.0596 154.275H35.2285C35.082 155.143 34.6719 155.834 33.998 156.35C33.3008 156.889 32.4219 157.158 31.3613 157.158C30.0547 157.158 29.0176 156.713 28.25 155.822C27.4766 154.938 27.0898 153.742 27.0898 152.236C27.0898 150.754 27.4736 149.573 28.2412 148.694C29.0146 147.815 30.0518 147.376 31.3525 147.376C32.4072 147.376 33.292 147.66 34.0068 148.229C34.6807 148.768 35.0908 149.465 35.2373 150.32H34.0684ZM37.8037 157V147.534H38.9551V155.163H39.0693L44.3867 147.534H45.5381V157H44.3867V149.371H44.2812L38.9551 157H37.8037ZM53.1143 147.376C54.3154 147.376 55.2793 147.821 56.0059 148.712C56.7324 149.608 57.0957 150.792 57.0957 152.263C57.0957 153.733 56.7324 154.917 56.0059 155.813C55.2734 156.71 54.3096 157.158 53.1143 157.158C52.3818 157.158 51.7314 156.985 51.1631 156.64C50.6006 156.288 50.1875 155.808 49.9238 155.198H49.8184V160.085H48.667V147.534H49.7656V149.468H49.8711C50.1641 148.817 50.5977 148.308 51.1719 147.938C51.7461 147.563 52.3936 147.376 53.1143 147.376ZM52.8594 156.112C53.7969 156.112 54.5381 155.767 55.083 155.075C55.6338 154.384 55.9092 153.449 55.9092 152.271C55.9092 151.088 55.6367 150.15 55.0918 149.459C54.541 148.762 53.7998 148.413 52.8682 148.413C51.9424 148.413 51.1953 148.765 50.627 149.468C50.0645 150.171 49.7832 151.103 49.7832 152.263C49.7832 153.423 50.0645 154.354 50.627 155.058C51.1895 155.761 51.9336 156.112 52.8594 156.112ZM63.5908 156.112C64.5635 156.112 65.3252 155.77 65.876 155.084C66.4268 154.404 66.7021 153.464 66.7021 152.263C66.7021 151.062 66.4268 150.121 65.876 149.441C65.3252 148.756 64.5635 148.413 63.5908 148.413C62.6182 148.413 61.8564 148.756 61.3057 149.441C60.7549 150.121 60.4795 151.062 60.4795 152.263C60.4795 153.464 60.7549 154.404 61.3057 155.084C61.8564 155.77 62.6182 156.112 63.5908 156.112ZM63.5908 157.158C62.2666 157.158 61.2207 156.719 60.4531 155.84C59.6797 154.967 59.293 153.774 59.293 152.263C59.293 150.751 59.6797 149.559 60.4531 148.686C61.2207 147.812 62.2666 147.376 63.5908 147.376C64.915 147.376 65.9639 147.812 66.7373 148.686C67.5107 149.559 67.8975 150.751 67.8975 152.263C67.8975 153.774 67.5107 154.967 66.7373 155.84C65.9639 156.719 64.915 157.158 63.5908 157.158ZM76.9326 148.51H71.7031V157H70.5518V147.534H78.084V157H76.9326V148.51ZM87.2422 148.51V151.621H89.6064C90.2627 151.621 90.7666 151.48 91.1182 151.199C91.458 150.924 91.6279 150.531 91.6279 150.021C91.6279 149.553 91.4727 149.187 91.1621 148.923C90.8398 148.647 90.3828 148.51 89.791 148.51H87.2422ZM87.2422 152.597V156.024H89.9316C91.3613 156.024 92.0762 155.447 92.0762 154.293C92.0762 153.162 91.2852 152.597 89.7031 152.597H87.2422ZM86.0908 147.534H89.9229C90.8076 147.534 91.5049 147.748 92.0146 148.176C92.5127 148.604 92.7617 149.184 92.7617 149.916C92.7617 150.426 92.6064 150.877 92.2959 151.27C91.9854 151.656 91.5869 151.896 91.1006 151.99V152.104C91.7217 152.175 92.2256 152.409 92.6123 152.808C93.0166 153.212 93.2188 153.713 93.2188 154.311C93.2188 155.154 92.9346 155.813 92.3662 156.288C91.792 156.763 90.9893 157 89.958 157H86.0908V147.534ZM95.917 157V147.534H97.0684V155.163H97.1826L102.5 147.534H103.651V157H102.5V149.371H102.395L97.0684 157H95.917ZM106.78 147.534H107.932V156.024H112.019V147.534H113.17V156.024H117.248V147.534H118.399V157H106.78V147.534ZM121.528 147.534H122.68V151.595H127.997V147.534H129.148V157H127.997V152.57H122.68V157H121.528V147.534ZM132.286 157V147.534H133.438V155.163H133.552L138.869 147.534H140.021V157H138.869V149.371H138.764L133.438 157H132.286Z" fill="white"/>
<path d="M28.707 178.51V187H27.5557V177.534H33.5586V178.51H28.707ZM38.4717 186.139C39.3213 186.139 40.0303 185.884 40.5986 185.374C41.1729 184.858 41.46 184.226 41.46 183.476V182.368L38.6562 182.57C37.0684 182.682 36.2744 183.279 36.2744 184.363C36.2744 184.902 36.4824 185.333 36.8984 185.655C37.3027 185.978 37.8271 186.139 38.4717 186.139ZM38.2783 187.158C37.3408 187.158 36.5762 186.906 35.9844 186.402C35.3867 185.893 35.0879 185.219 35.0879 184.381C35.0879 183.561 35.3838 182.913 35.9756 182.438C36.5557 181.97 37.3965 181.697 38.498 181.621L41.46 181.428V180.514C41.46 179.834 41.2607 179.312 40.8623 178.949C40.458 178.586 39.8721 178.404 39.1045 178.404C38.4541 178.404 37.9092 178.533 37.4697 178.791C37.0244 179.055 36.7461 179.415 36.6348 179.872H35.4658C35.5771 179.122 35.9697 178.519 36.6436 178.062C37.3115 177.604 38.1436 177.376 39.1396 177.376C40.2471 177.376 41.1055 177.651 41.7148 178.202C42.3184 178.747 42.6201 179.515 42.6201 180.505V187H41.5127V185.374H41.4072C41.1201 185.937 40.7012 186.373 40.1504 186.684C39.5996 187 38.9756 187.158 38.2783 187.158ZM48.9922 187.167C47.9727 187.167 47.1289 186.93 46.4609 186.455C45.8047 185.986 45.4209 185.362 45.3096 184.583H46.4961C46.6016 185.069 46.8682 185.453 47.2959 185.734C47.7412 186.033 48.3066 186.183 48.9922 186.183C49.7363 186.183 50.3252 186.016 50.7588 185.682C51.1865 185.354 51.4004 184.911 51.4004 184.354C51.4004 183.177 50.5859 182.588 48.957 182.588H47.4805V181.612H48.957C49.6309 181.612 50.1494 181.469 50.5127 181.182C50.8701 180.9 51.0488 180.496 51.0488 179.969C51.0488 179.488 50.873 179.104 50.5215 178.817C50.1582 178.519 49.6484 178.369 48.9922 178.369C48.3359 178.369 47.7969 178.519 47.375 178.817C46.959 179.104 46.707 179.488 46.6191 179.969H45.4766C45.5938 179.189 45.957 178.565 46.5664 178.097C47.1992 177.616 48.0078 177.376 48.9922 177.376C49.9941 177.376 50.7822 177.607 51.3564 178.07C51.9072 178.521 52.1826 179.131 52.1826 179.898C52.1826 180.408 52.0244 180.854 51.708 181.234C51.3975 181.621 50.9932 181.867 50.4951 181.973V182.078C51.1279 182.189 51.623 182.436 51.9805 182.816C52.3555 183.203 52.543 183.695 52.543 184.293C52.543 185.166 52.2178 185.863 51.5674 186.385C50.917 186.906 50.0586 187.167 48.9922 187.167ZM55.1885 187V177.534H56.3398V185.163H56.4541L61.7715 177.534H62.9229V187H61.7715V179.371H61.666L56.3398 187H55.1885ZM70.499 177.376C71.7002 177.376 72.6641 177.821 73.3906 178.712C74.1172 179.608 74.4805 180.792 74.4805 182.263C74.4805 183.733 74.1172 184.917 73.3906 185.813C72.6582 186.71 71.6943 187.158 70.499 187.158C69.7666 187.158 69.1162 186.985 68.5479 186.64C67.9854 186.288 67.5723 185.808 67.3086 185.198H67.2031V190.085H66.0518V177.534H67.1504V179.468H67.2559C67.5488 178.817 67.9824 178.308 68.5566 177.938C69.1309 177.563 69.7783 177.376 70.499 177.376ZM70.2441 186.112C71.1816 186.112 71.9229 185.767 72.4678 185.075C73.0186 184.384 73.2939 183.449 73.2939 182.271C73.2939 181.088 73.0215 180.15 72.4766 179.459C71.9258 178.762 71.1846 178.413 70.2529 178.413C69.3271 178.413 68.5801 178.765 68.0117 179.468C67.4492 180.171 67.168 181.103 67.168 182.263C67.168 183.423 67.4492 184.354 68.0117 185.058C68.5742 185.761 69.3184 186.112 70.2441 186.112ZM80.9756 186.112C81.9482 186.112 82.71 185.77 83.2607 185.084C83.8115 184.404 84.0869 183.464 84.0869 182.263C84.0869 181.062 83.8115 180.121 83.2607 179.441C82.71 178.756 81.9482 178.413 80.9756 178.413C80.0029 178.413 79.2412 178.756 78.6904 179.441C78.1396 180.121 77.8643 181.062 77.8643 182.263C77.8643 183.464 78.1396 184.404 78.6904 185.084C79.2412 185.77 80.0029 186.112 80.9756 186.112ZM80.9756 187.158C79.6514 187.158 78.6055 186.719 77.8379 185.84C77.0645 184.967 76.6777 183.774 76.6777 182.263C76.6777 180.751 77.0645 179.559 77.8379 178.686C78.6055 177.812 79.6514 177.376 80.9756 177.376C82.2998 177.376 83.3486 177.812 84.1221 178.686C84.8955 179.559 85.2822 180.751 85.2822 182.263C85.2822 183.774 84.8955 184.967 84.1221 185.84C83.3486 186.719 82.2998 187.158 80.9756 187.158ZM89.0879 178.51V181.621H91.4521C92.1084 181.621 92.6123 181.48 92.9639 181.199C93.3037 180.924 93.4736 180.531 93.4736 180.021C93.4736 179.553 93.3184 179.187 93.0078 178.923C92.6855 178.647 92.2285 178.51 91.6367 178.51H89.0879ZM89.0879 182.597V186.024H91.7773C93.207 186.024 93.9219 185.447 93.9219 184.293C93.9219 183.162 93.1309 182.597 91.5488 182.597H89.0879ZM87.9365 177.534H91.7686C92.6533 177.534 93.3506 177.748 93.8604 178.176C94.3584 178.604 94.6074 179.184 94.6074 179.916C94.6074 180.426 94.4521 180.877 94.1416 181.27C93.8311 181.656 93.4326 181.896 92.9463 181.99V182.104C93.5674 182.175 94.0713 182.409 94.458 182.808C94.8623 183.212 95.0645 183.713 95.0645 184.311C95.0645 185.154 94.7803 185.813 94.2119 186.288C93.6377 186.763 92.835 187 91.8037 187H87.9365V177.534ZM99.2832 181.683L103.493 177.534H104.917L100.25 182.078L105.128 187H103.607L99.2832 182.605H98.9141V187H97.7627V177.534H98.9141V181.683H99.2832ZM109.962 186.139C110.812 186.139 111.521 185.884 112.089 185.374C112.663 184.858 112.95 184.226 112.95 183.476V182.368L110.146 182.57C108.559 182.682 107.765 183.279 107.765 184.363C107.765 184.902 107.973 185.333 108.389 185.655C108.793 185.978 109.317 186.139 109.962 186.139ZM109.769 187.158C108.831 187.158 108.066 186.906 107.475 186.402C106.877 185.893 106.578 185.219 106.578 184.381C106.578 183.561 106.874 182.913 107.466 182.438C108.046 181.97 108.887 181.697 109.988 181.621L112.95 181.428V180.514C112.95 179.834 112.751 179.312 112.353 178.949C111.948 178.586 111.362 178.404 110.595 178.404C109.944 178.404 109.399 178.533 108.96 178.791C108.515 179.055 108.236 179.415 108.125 179.872H106.956C107.067 179.122 107.46 178.519 108.134 178.062C108.802 177.604 109.634 177.376 110.63 177.376C111.737 177.376 112.596 177.651 113.205 178.202C113.809 178.747 114.11 179.515 114.11 180.505V187H113.003V185.374H112.897C112.61 185.937 112.191 186.373 111.641 186.684C111.09 187 110.466 187.158 109.769 187.158Z" fill="white"/>
<path d="M27.5557 217V207.534H28.9443L32.6621 215.4H32.7676L36.4678 207.534H37.8037V217H36.6523V209.644H36.5205L33.1455 216.815H32.2402L28.8301 209.644H28.707V217H27.5557ZM43.7979 216.139C44.6475 216.139 45.3564 215.884 45.9248 215.374C46.499 214.858 46.7861 214.226 46.7861 213.476V212.368L43.9824 212.57C42.3945 212.682 41.6006 213.279 41.6006 214.363C41.6006 214.902 41.8086 215.333 42.2246 215.655C42.6289 215.978 43.1533 216.139 43.7979 216.139ZM43.6045 217.158C42.667 217.158 41.9023 216.906 41.3105 216.402C40.7129 215.893 40.4141 215.219 40.4141 214.381C40.4141 213.561 40.71 212.913 41.3018 212.438C41.8818 211.97 42.7227 211.697 43.8242 211.621L46.7861 211.428V210.514C46.7861 209.834 46.5869 209.312 46.1885 208.949C45.7842 208.586 45.1982 208.404 44.4307 208.404C43.7803 208.404 43.2354 208.533 42.7959 208.791C42.3506 209.055 42.0723 209.415 41.9609 209.872H40.792C40.9033 209.122 41.2959 208.519 41.9697 208.062C42.6377 207.604 43.4697 207.376 44.4658 207.376C45.5732 207.376 46.4316 207.651 47.041 208.202C47.6445 208.747 47.9463 209.515 47.9463 210.505V217H46.8389V215.374H46.7334C46.4463 215.937 46.0273 216.373 45.4766 216.684C44.9258 217 44.3018 217.158 43.6045 217.158ZM55.6279 207.376C56.8291 207.376 57.793 207.821 58.5195 208.712C59.2461 209.608 59.6094 210.792 59.6094 212.263C59.6094 213.733 59.2461 214.917 58.5195 215.813C57.7871 216.71 56.8232 217.158 55.6279 217.158C54.8955 217.158 54.2451 216.985 53.6768 216.64C53.1143 216.288 52.7012 215.808 52.4375 215.198H52.332V220.085H51.1807V207.534H52.2793V209.468H52.3848C52.6777 208.817 53.1113 208.308 53.6855 207.938C54.2598 207.563 54.9072 207.376 55.6279 207.376ZM55.373 216.112C56.3105 216.112 57.0518 215.767 57.5967 215.075C58.1475 214.384 58.4229 213.449 58.4229 212.271C58.4229 211.088 58.1504 210.15 57.6055 209.459C57.0547 208.762 56.3135 208.413 55.3818 208.413C54.4561 208.413 53.709 208.765 53.1406 209.468C52.5781 210.171 52.2969 211.103 52.2969 212.263C52.2969 213.423 52.5781 214.354 53.1406 215.058C53.7031 215.761 54.4473 216.112 55.373 216.112ZM62.2725 217V207.534H63.6611L67.3789 215.4H67.4844L71.1846 207.534H72.5205V217H71.3691V209.644H71.2373L67.8623 216.815H66.957L63.5469 209.644H63.4238V217H62.2725ZM79.4023 208.396C78.541 208.396 77.835 208.688 77.2842 209.274C76.7334 209.866 76.4316 210.648 76.3789 211.621H82.2764C82.2646 210.643 81.998 209.86 81.4766 209.274C80.9492 208.688 80.2578 208.396 79.4023 208.396ZM83.3311 214.662C83.0967 215.436 82.6338 216.045 81.9424 216.49C81.251 216.936 80.4102 217.158 79.4199 217.158C78.1191 217.158 77.0879 216.716 76.3262 215.831C75.5645 214.952 75.1836 213.766 75.1836 212.271C75.1836 210.783 75.5674 209.597 76.335 208.712C77.0967 207.821 78.1221 207.376 79.4111 207.376C80.6709 207.376 81.6641 207.795 82.3906 208.633C83.1172 209.471 83.4805 210.613 83.4805 212.061V212.57H76.3701V212.623C76.3994 213.695 76.6924 214.548 77.249 215.181C77.7998 215.813 78.5322 216.13 79.4463 216.13C80.835 216.13 81.7402 215.641 82.1621 214.662H83.3311ZM88.0684 212.931C87.9629 214.29 87.7461 215.286 87.418 215.919C87.0137 216.692 86.3896 217.079 85.5459 217.079C85.3525 217.079 85.1768 217.05 85.0186 216.991V215.928C85.1592 215.975 85.3174 215.998 85.4932 215.998C85.9619 215.998 86.3135 215.711 86.5479 215.137C86.7529 214.65 86.8936 213.9 86.9697 212.887C87.1045 211.48 87.2275 209.696 87.3389 207.534H93.3945V217H92.2432V208.51H88.3848C88.291 210.314 88.1855 211.788 88.0684 212.931ZM99.3975 216.139C100.247 216.139 100.956 215.884 101.524 215.374C102.099 214.858 102.386 214.226 102.386 213.476V212.368L99.582 212.57C97.9941 212.682 97.2002 213.279 97.2002 214.363C97.2002 214.902 97.4082 215.333 97.8242 215.655C98.2285 215.978 98.7529 216.139 99.3975 216.139ZM99.2041 217.158C98.2666 217.158 97.502 216.906 96.9102 216.402C96.3125 215.893 96.0137 215.219 96.0137 214.381C96.0137 213.561 96.3096 212.913 96.9014 212.438C97.4814 211.97 98.3223 211.697 99.4238 211.621L102.386 211.428V210.514C102.386 209.834 102.187 209.312 101.788 208.949C101.384 208.586 100.798 208.404 100.03 208.404C99.3799 208.404 98.835 208.533 98.3955 208.791C97.9502 209.055 97.6719 209.415 97.5605 209.872H96.3916C96.5029 209.122 96.8955 208.519 97.5693 208.062C98.2373 207.604 99.0693 207.376 100.065 207.376C101.173 207.376 102.031 207.651 102.641 208.202C103.244 208.747 103.546 209.515 103.546 210.505V217H102.438V215.374H102.333C102.046 215.937 101.627 216.373 101.076 216.684C100.525 217 99.9014 217.158 99.2041 217.158ZM113.029 208.51H108.925C108.837 210.186 108.729 211.659 108.6 212.931C108.477 214.39 108.192 215.386 107.747 215.919V216.024H113.029V208.51ZM105.603 219.505V216.024H106.367C107 215.614 107.384 214.568 107.519 212.887C107.554 212.541 107.68 210.757 107.896 207.534H114.181V216.024H115.71V219.505H114.62V217H106.692V219.505H105.603ZM119.357 211.683L123.567 207.534H124.991L120.324 212.078L125.202 217H123.682L119.357 212.605H118.988V217H117.837V207.534H118.988V211.683H119.357ZM127.435 217V207.534H128.586V215.163H128.7L134.018 207.534H135.169V217H134.018V209.371H133.912L128.586 217H127.435Z" fill="white"/>
<path d="M235.125 87.1143C235.125 85.8896 235.553 84.8965 236.408 84.1348C237.264 83.373 238.377 82.9922 239.748 82.9922C241.072 82.9922 242.15 83.335 242.982 84.0205C243.82 84.7119 244.239 85.6025 244.239 86.6924C244.239 87.3838 244.022 88.0693 243.589 88.749C243.155 89.4346 242.391 90.293 241.295 91.3242L238.869 93.6357V93.7939H244.424V96H235.274V94.1455L239.414 90.0938C240.305 89.2266 240.899 88.5732 241.198 88.1338C241.497 87.7061 241.646 87.2842 241.646 86.8682C241.646 86.3584 241.462 85.9395 241.093 85.6113C240.718 85.2891 240.24 85.1279 239.66 85.1279C239.045 85.1279 238.547 85.3125 238.166 85.6816C237.779 86.0449 237.586 86.5195 237.586 87.1055V87.1582H235.125V87.1143ZM251.736 96.3252C250.166 96.3252 248.936 95.7363 248.045 94.5586C247.148 93.375 246.7 91.7344 246.7 89.6367C246.7 87.5449 247.148 85.9131 248.045 84.7412C248.936 83.5752 250.166 82.9922 251.736 82.9922C253.301 82.9922 254.528 83.5752 255.419 84.7412C256.321 85.9189 256.772 87.5537 256.772 89.6455C256.772 91.7373 256.324 93.375 255.428 94.5586C254.537 95.7363 253.307 96.3252 251.736 96.3252ZM251.736 94.1631C252.475 94.1631 253.049 93.7793 253.459 93.0117C253.875 92.2266 254.083 91.1016 254.083 89.6367C254.083 88.1836 253.872 87.0674 253.45 86.2881C253.046 85.5381 252.475 85.1631 251.736 85.1631C251.004 85.1631 250.433 85.541 250.022 86.2969C249.601 87.0762 249.39 88.1895 249.39 89.6367C249.39 91.0957 249.601 92.2207 250.022 93.0117C250.427 93.7793 250.998 94.1631 251.736 94.1631ZM266.44 88.3184V96H263.883V86.3057H270.589V88.3184H266.44Z" fill="white"/>
<path d="M223.198 123.785H216.993V121.438C217.983 119.569 219.656 116.862 222.012 113.317H225.729V121.579H227.391V123.785H225.729V126H223.198V123.785ZM219.375 121.658H223.26V115.383H223.119C221.766 117.404 220.518 119.449 219.375 121.518V121.658ZM234.545 126.325C232.975 126.325 231.744 125.736 230.854 124.559C229.957 123.375 229.509 121.734 229.509 119.637C229.509 117.545 229.957 115.913 230.854 114.741C231.744 113.575 232.975 112.992 234.545 112.992C236.109 112.992 237.337 113.575 238.228 114.741C239.13 115.919 239.581 117.554 239.581 119.646C239.581 121.737 239.133 123.375 238.236 124.559C237.346 125.736 236.115 126.325 234.545 126.325ZM234.545 124.163C235.283 124.163 235.857 123.779 236.268 123.012C236.684 122.227 236.892 121.102 236.892 119.637C236.892 118.184 236.681 117.067 236.259 116.288C235.854 115.538 235.283 115.163 234.545 115.163C233.812 115.163 233.241 115.541 232.831 116.297C232.409 117.076 232.198 118.189 232.198 119.637C232.198 121.096 232.409 122.221 232.831 123.012C233.235 123.779 233.807 124.163 234.545 124.163ZM246.691 126V116.306H250.005L252.545 122.511H252.703L255.252 116.306H258.521V126H256.113V119.575H255.946L253.494 125.455H251.71L249.258 119.575H249.1V126H246.691ZM264.375 121.342C264.287 122.9 264.012 124.055 263.549 124.805C263.016 125.678 262.187 126.114 261.062 126.114C260.745 126.114 260.473 126.076 260.244 126V123.75C260.408 123.791 260.593 123.812 260.798 123.812C261.231 123.812 261.554 123.56 261.765 123.056C261.94 122.646 262.052 122.016 262.099 121.166L262.38 116.306H269.675V126H267.117V118.318H264.577L264.375 121.342Z" fill="white"/>
<path d="M234.231 156.325C232.708 156.325 231.475 155.982 230.531 155.297C229.588 154.611 229.116 153.718 229.116 152.616C229.116 151.819 229.371 151.128 229.881 150.542C230.385 149.95 231.062 149.561 231.911 149.373V149.215C231.22 149.057 230.666 148.726 230.25 148.222C229.834 147.718 229.626 147.129 229.626 146.455C229.626 145.441 230.057 144.612 230.918 143.968C231.785 143.317 232.893 142.992 234.24 142.992C235.582 142.992 236.687 143.317 237.554 143.968C238.415 144.612 238.846 145.441 238.846 146.455C238.846 147.129 238.638 147.718 238.222 148.222C237.812 148.72 237.258 149.051 236.561 149.215V149.373C237.404 149.531 238.084 149.903 238.6 150.489C239.109 151.081 239.364 151.781 239.364 152.59C239.364 153.703 238.89 154.603 237.94 155.288C236.991 155.979 235.755 156.325 234.231 156.325ZM234.231 154.321C234.929 154.321 235.497 154.14 235.937 153.776C236.376 153.413 236.596 152.944 236.596 152.37C236.596 151.79 236.376 151.318 235.937 150.955C235.497 150.592 234.929 150.41 234.231 150.41C233.534 150.41 232.969 150.592 232.535 150.955C232.096 151.318 231.876 151.79 231.876 152.37C231.876 152.944 232.096 153.413 232.535 153.776C232.969 154.14 233.534 154.321 234.231 154.321ZM234.231 148.45C234.817 148.45 235.298 148.286 235.673 147.958C236.042 147.636 236.227 147.22 236.227 146.71C236.227 146.194 236.042 145.775 235.673 145.453C235.298 145.125 234.817 144.961 234.231 144.961C233.646 144.961 233.168 145.125 232.799 145.453C232.43 145.775 232.245 146.194 232.245 146.71C232.245 147.22 232.43 147.636 232.799 147.958C233.168 148.286 233.646 148.45 234.231 148.45ZM246.475 156V146.306H249.788L252.328 152.511H252.486L255.035 146.306H258.305V156H255.896V149.575H255.729L253.277 155.455H251.493L249.041 149.575H248.883V156H246.475ZM264.158 151.342C264.07 152.9 263.795 154.055 263.332 154.805C262.799 155.678 261.97 156.114 260.845 156.114C260.528 156.114 260.256 156.076 260.027 156V153.75C260.191 153.791 260.376 153.812 260.581 153.812C261.015 153.812 261.337 153.56 261.548 153.056C261.724 152.646 261.835 152.016 261.882 151.166L262.163 146.306H269.458V156H266.9V148.318H264.36L264.158 151.342Z" fill="white"/>
<path d="M222.064 186.325C220.699 186.325 219.577 185.953 218.698 185.209C217.837 184.482 217.386 183.545 217.345 182.396H219.797C219.873 182.924 220.122 183.349 220.544 183.671C220.966 183.993 221.479 184.154 222.082 184.154C222.768 184.154 223.321 183.943 223.743 183.521C224.171 183.1 224.385 182.546 224.385 181.86C224.385 181.163 224.171 180.601 223.743 180.173C223.315 179.745 222.765 179.531 222.091 179.531C221.112 179.531 220.389 179.912 219.92 180.674H217.547L218.18 173.317H226.151V175.523H220.236L219.955 178.784H220.113C220.688 177.958 221.584 177.545 222.803 177.545C224.004 177.545 224.991 177.943 225.765 178.74C226.532 179.537 226.916 180.557 226.916 181.799C226.916 183.146 226.471 184.236 225.58 185.068C224.689 185.906 223.518 186.325 222.064 186.325ZM234.105 186.325C232.535 186.325 231.305 185.736 230.414 184.559C229.518 183.375 229.069 181.734 229.069 179.637C229.069 177.545 229.518 175.913 230.414 174.741C231.305 173.575 232.535 172.992 234.105 172.992C235.67 172.992 236.897 173.575 237.788 174.741C238.69 175.919 239.142 177.554 239.142 179.646C239.142 181.737 238.693 183.375 237.797 184.559C236.906 185.736 235.676 186.325 234.105 186.325ZM234.105 184.163C234.844 184.163 235.418 183.779 235.828 183.012C236.244 182.227 236.452 181.102 236.452 179.637C236.452 178.184 236.241 177.067 235.819 176.288C235.415 175.538 234.844 175.163 234.105 175.163C233.373 175.163 232.802 175.541 232.392 176.297C231.97 177.076 231.759 178.189 231.759 179.637C231.759 181.096 231.97 182.221 232.392 183.012C232.796 183.779 233.367 184.163 234.105 184.163ZM246.252 186V176.306H249.565L252.105 182.511H252.264L254.812 176.306H258.082V186H255.674V179.575H255.507L253.055 185.455H251.271L248.818 179.575H248.66V186H246.252ZM263.936 181.342C263.848 182.9 263.572 184.055 263.109 184.805C262.576 185.678 261.747 186.114 260.622 186.114C260.306 186.114 260.033 186.076 259.805 186V183.75C259.969 183.791 260.153 183.812 260.358 183.812C260.792 183.812 261.114 183.56 261.325 183.056C261.501 182.646 261.612 182.016 261.659 181.166L261.94 176.306H269.235V186H266.678V178.318H264.138L263.936 181.342Z" fill="white"/>
<path d="M234.064 216.325C232.699 216.325 231.577 215.953 230.698 215.209C229.837 214.482 229.386 213.545 229.345 212.396H231.797C231.873 212.924 232.122 213.349 232.544 213.671C232.966 213.993 233.479 214.154 234.082 214.154C234.768 214.154 235.321 213.943 235.743 213.521C236.171 213.1 236.385 212.546 236.385 211.86C236.385 211.163 236.171 210.601 235.743 210.173C235.315 209.745 234.765 209.531 234.091 209.531C233.112 209.531 232.389 209.912 231.92 210.674H229.547L230.18 203.317H238.151V205.523H232.236L231.955 208.784H232.113C232.688 207.958 233.584 207.545 234.803 207.545C236.004 207.545 236.991 207.943 237.765 208.74C238.532 209.537 238.916 210.557 238.916 211.799C238.916 213.146 238.471 214.236 237.58 215.068C236.689 215.906 235.518 216.325 234.064 216.325ZM245.93 216V206.306H249.243L251.783 212.511H251.941L254.49 206.306H257.76V216H255.352V209.575H255.185L252.732 215.455H250.948L248.496 209.575H248.338V216H245.93ZM263.613 211.342C263.525 212.9 263.25 214.055 262.787 214.805C262.254 215.678 261.425 216.114 260.3 216.114C259.983 216.114 259.711 216.076 259.482 216V213.75C259.646 213.791 259.831 213.812 260.036 213.812C260.47 213.812 260.792 213.56 261.003 213.056C261.179 212.646 261.29 212.016 261.337 211.166L261.618 206.306H268.913V216H266.355V208.318H263.815L263.613 211.342Z" fill="white"/>
<defs>
<filter id="filter0_b" x="-20" y="-20" width="345" height="345" filterUnits="userSpaceOnUse" color-interpolation-filters="sRGB">
<feFlood flood-opacity="0" result="BackgroundImageFix"/>
<feGaussianBlur in="BackgroundImage" stdDeviation="10"/>
<feComposite in2="SourceAlpha" operator="in" result="effect1_backgroundBlur"/>
<feBlend mode="normal" in="SourceGraphic" in2="effect1_backgroundBlur" result="shape"/>
</filter>
</defs>
</svg>
