<svg width="305" height="305" viewBox="0 0 305 305" fill="none" xmlns="http://www.w3.org/2000/svg">
<g filter="url(#filter0_b)">
<rect width="305" height="305" rx="5" fill="white" fill-opacity="0.2"/>
</g>
<line y1="235.5" x2="305" y2="235.5" stroke="white" stroke-opacity="0.5"/>
<path d="M33.5977 276.496H25.3594V274.574C26.9062 271.824 29.3203 267.996 32.6016 263.09H35.6602V274.609H38.0625V276.496H35.6602V280H33.5977V276.496ZM27.5156 274.621H33.6094V265.047H33.4688C31.6406 267.703 29.6562 270.848 27.5156 274.48V274.621ZM46.8984 280.398C45.2969 280.398 43.9727 279.945 42.9258 279.039C41.8789 278.141 41.3086 276.961 41.2148 275.5H43.2891C43.3828 276.414 43.7617 277.148 44.4258 277.703C45.0977 278.266 45.9297 278.547 46.9219 278.547C48.0547 278.547 48.9648 278.191 49.6523 277.48C50.3477 276.77 50.6953 275.836 50.6953 274.68C50.6953 273.523 50.3477 272.582 49.6523 271.855C48.9648 271.137 48.0664 270.777 46.957 270.777C45.3555 270.777 44.1914 271.41 43.4648 272.676H41.4844L42.4102 263.09H51.8438V264.977H44.0625L43.582 270.402H43.7695C44.5898 269.441 45.7812 268.961 47.3438 268.961C48.9531 268.961 50.2656 269.488 51.2812 270.543C52.2969 271.598 52.8047 272.957 52.8047 274.621C52.8047 276.34 52.2578 277.73 51.1641 278.793C50.0703 279.863 48.6484 280.398 46.8984 280.398ZM61.8633 280.398C59.957 280.398 58.4805 279.625 57.4336 278.078C56.3867 276.531 55.8633 274.352 55.8633 271.539C55.8633 268.75 56.3906 266.578 57.4453 265.023C58.5 263.469 59.9727 262.691 61.8633 262.691C63.7461 262.691 65.2109 263.473 66.2578 265.035C67.3125 266.598 67.8398 268.777 67.8398 271.574C67.8398 274.379 67.3203 276.551 66.2812 278.09C65.2344 279.629 63.7617 280.398 61.8633 280.398ZM61.8633 278.559C63.1133 278.559 64.0664 277.957 64.7227 276.754C65.3867 275.543 65.7188 273.805 65.7188 271.539C65.7188 269.297 65.3867 267.57 64.7227 266.359C64.0508 265.148 63.0977 264.543 61.8633 264.543C60.6289 264.543 59.6719 265.152 58.9922 266.371C58.3203 267.582 57.9844 269.305 57.9844 271.539C57.9844 273.797 58.3203 275.531 58.9922 276.742C59.6562 277.953 60.6133 278.559 61.8633 278.559ZM77.5664 267.145C79.1758 267.145 80.4648 267.738 81.4336 268.926C82.3945 270.113 82.875 271.699 82.875 273.684C82.875 275.66 82.3906 277.242 81.4219 278.43C80.4531 279.625 79.168 280.223 77.5664 280.223C75.668 280.223 74.3516 279.516 73.6172 278.102H73.4297V284.219H71.4141V267.367H73.3359V269.477H73.5234C73.9297 268.75 74.4883 268.18 75.1992 267.766C75.918 267.352 76.707 267.145 77.5664 267.145ZM77.0859 278.406C78.2422 278.406 79.1484 277.988 79.8047 277.152C80.4609 276.316 80.7891 275.16 80.7891 273.684C80.7891 272.207 80.4609 271.051 79.8047 270.215C79.1562 269.379 78.2539 268.961 77.0977 268.961C75.957 268.961 75.0508 269.383 74.3789 270.227C73.707 271.078 73.3711 272.23 73.3711 273.684C73.3711 275.129 73.707 276.277 74.3789 277.129C75.043 277.98 75.9453 278.406 77.0859 278.406Z" fill="white"/>
<path d="M79.3379 45.498C76.4668 45.498 74.1963 44.5068 72.5264 42.5244C70.8467 40.542 70.0068 37.8467 70.0068 34.4385C70.0068 31.0303 70.8418 28.3301 72.5117 26.3379C74.1816 24.3555 76.4521 23.3643 79.3232 23.3643C81.5498 23.3643 83.4541 23.999 85.0361 25.2686C86.6182 26.5381 87.5654 28.1934 87.8779 30.2344H85.1973C84.8457 28.8672 84.1426 27.7881 83.0879 26.9971C82.0332 26.1963 80.7783 25.7959 79.3232 25.7959C77.292 25.7959 75.6855 26.5723 74.5039 28.125C73.3125 29.6777 72.7168 31.7822 72.7168 34.4385C72.7168 37.0947 73.3125 39.1943 74.5039 40.7373C75.6953 42.29 77.3066 43.0664 79.3379 43.0664C80.8125 43.0664 82.0723 42.7148 83.1172 42.0117C84.1719 41.2988 84.8652 40.332 85.1973 39.1113H87.8779C87.5264 41.0547 86.5791 42.6025 85.0361 43.7549C83.4834 44.917 81.584 45.498 79.3379 45.498ZM96.1396 33.1494L105.017 23.8623H108.327L98.4102 34.043L109.177 45H105.69L96.1396 35.2588H95.5244V45H92.8877V23.8623H95.5244V33.1494H96.1396ZM124.631 38.9502H116.223L114.099 45H111.33L119.123 23.8623H121.73L129.523 45H126.755L124.631 38.9502ZM116.999 36.709H123.854L120.544 27.2754H120.31L116.999 36.709ZM147.79 28.1836H147.556L136.13 45H133.522V23.8623H136.13V40.7373H136.364L147.79 23.8623H150.397V45H147.79V28.1836ZM139.147 17.5488C139.147 18.3398 139.406 18.9795 139.924 19.4678C140.432 19.9463 141.081 20.1855 141.872 20.1855C142.673 20.1855 143.332 19.9463 143.85 19.4678C144.367 18.9795 144.626 18.3398 144.626 17.5488H146.911C146.911 18.8965 146.447 19.9658 145.52 20.7568C144.611 21.5283 143.396 21.9141 141.872 21.9141C140.349 21.9141 139.138 21.5283 138.239 20.7568C137.321 19.9658 136.862 18.8965 136.862 17.5488H139.147ZM179.006 38.6572C179.006 40.5225 178.376 42.0459 177.116 43.2275C175.847 44.4092 174.221 45 172.238 45H164.548V23.8623H176.896V26.2354H167.185V32.2852H172.209C174.201 32.2852 175.832 32.876 177.102 34.0576C178.371 35.249 179.006 36.7822 179.006 38.6572ZM171.55 42.627C173.063 42.627 174.235 42.2852 175.065 41.6016C175.886 40.9082 176.296 39.9268 176.296 38.6572C176.296 37.3779 175.881 36.3916 175.051 35.6982C174.23 35.0049 173.063 34.6582 171.55 34.6582H167.185V42.627H171.55ZM196.174 45V26.2354H188.454L187.78 37.0898C187.614 39.7754 187.141 41.7529 186.359 43.0225C185.5 44.4287 184.177 45.1318 182.39 45.1318C181.979 45.1318 181.638 45.083 181.364 44.9854V42.627C181.579 42.6855 181.843 42.7148 182.155 42.7148C183.259 42.7148 184.055 42.1729 184.543 41.0889C184.934 40.2393 185.183 38.8721 185.29 36.9873L186.052 23.8623H198.811V45H196.174ZM206.589 45.1465C206.062 45.1465 205.671 45.083 205.417 44.9561V42.583C205.729 42.6611 206.12 42.7002 206.589 42.7002C208.103 42.7002 209.255 41.9629 210.046 40.4883L202.824 23.8623H205.637L211.306 37.5586H211.54L217.077 23.8623H219.816L213.342 38.9502C212.395 41.1572 211.501 42.6904 210.661 43.5498C209.616 44.6143 208.259 45.1465 206.589 45.1465Z" fill="white"/>
<path d="M32.7109 88.5098V97H31.5596V87.5342H37.5625V88.5098H32.7109ZM43.4424 96.1123C44.415 96.1123 45.1768 95.7695 45.7275 95.084C46.2783 94.4043 46.5537 93.4639 46.5537 92.2627C46.5537 91.0615 46.2783 90.1211 45.7275 89.4414C45.1768 88.7559 44.415 88.4131 43.4424 88.4131C42.4697 88.4131 41.708 88.7559 41.1572 89.4414C40.6064 90.1211 40.3311 91.0615 40.3311 92.2627C40.3311 93.4639 40.6064 94.4043 41.1572 95.084C41.708 95.7695 42.4697 96.1123 43.4424 96.1123ZM43.4424 97.1582C42.1182 97.1582 41.0723 96.7188 40.3047 95.8398C39.5312 94.9668 39.1445 93.7744 39.1445 92.2627C39.1445 90.751 39.5312 89.5586 40.3047 88.6855C41.0723 87.8125 42.1182 87.376 43.4424 87.376C44.7666 87.376 45.8154 87.8125 46.5889 88.6855C47.3623 89.5586 47.749 90.751 47.749 92.2627C47.749 93.7744 47.3623 94.9668 46.5889 95.8398C45.8154 96.7188 44.7666 97.1582 43.4424 97.1582ZM52.2578 92.9307C52.1523 94.29 51.9355 95.2861 51.6074 95.9189C51.2031 96.6924 50.5791 97.0791 49.7354 97.0791C49.542 97.0791 49.3662 97.0498 49.208 96.9912V95.9277C49.3486 95.9746 49.5068 95.998 49.6826 95.998C50.1514 95.998 50.5029 95.7109 50.7373 95.1367C50.9424 94.6504 51.083 93.9004 51.1592 92.8867C51.2939 91.4805 51.417 89.6963 51.5283 87.5342H57.584V97H56.4326V88.5098H52.5742C52.4805 90.3145 52.375 91.7881 52.2578 92.9307ZM61.416 100.296C61.1816 100.296 61.0029 100.284 60.8799 100.261V99.2676C61.0029 99.2852 61.1758 99.2939 61.3984 99.2939C61.8379 99.2939 62.1924 99.168 62.4619 98.916C62.7256 98.6758 62.9688 98.2539 63.1914 97.6504L63.3848 97.0615L59.834 87.5342H61.082L63.9473 95.7432H64.0527L66.9092 87.5342H68.1396L64.457 97.457C64.041 98.5703 63.6279 99.3203 63.2178 99.707C62.7959 100.1 62.1953 100.296 61.416 100.296ZM74.1777 97.167C72.8008 97.167 71.7432 96.7129 71.0049 95.8047C70.2373 94.8555 69.8535 93.4463 69.8535 91.5771C69.8535 89.1514 70.1729 87.3848 70.8115 86.2773C71.5557 84.9824 72.8477 84.3086 74.6875 84.2559C74.875 84.2559 75.2676 84.2383 75.8652 84.2031C76.7148 84.1504 77.4062 84.0068 77.9395 83.7725V84.8008C77.3184 85.0762 76.6475 85.2314 75.9268 85.2666C75.5811 85.3076 75.1797 85.3281 74.7227 85.3281C73.3984 85.3633 72.4404 85.7559 71.8486 86.5059C71.333 87.1562 70.999 88.2197 70.8467 89.6963H70.9521C71.6025 88.3369 72.7305 87.6572 74.3359 87.6572C75.5957 87.6572 76.6035 88.0732 77.3594 88.9053C78.127 89.7549 78.5107 90.8975 78.5107 92.333C78.5107 93.8271 78.1211 95.0078 77.3418 95.875C76.5625 96.7363 75.5078 97.167 74.1777 97.167ZM74.1777 96.1299C75.1562 96.1299 75.9268 95.793 76.4893 95.1191C77.0459 94.4453 77.3242 93.5166 77.3242 92.333C77.3242 91.1963 77.0459 90.3057 76.4893 89.6611C75.9268 89.0166 75.1562 88.6943 74.1777 88.6943C73.1992 88.6943 72.4316 89.0166 71.875 89.6611C71.3184 90.3057 71.04 91.1963 71.04 92.333C71.04 93.5166 71.3184 94.4453 71.875 95.1191C72.4316 95.793 73.1992 96.1299 74.1777 96.1299ZM81.1826 97V87.5342H82.334V95.1631H82.4482L87.7656 87.5342H88.917V97H87.7656V89.3711H87.6602L82.334 97H81.1826ZM93.5664 91.6826L97.7764 87.5342H99.2002L94.5332 92.0781L99.4111 97H97.8906L93.5664 92.6055H93.1973V97H92.0459V87.5342H93.1973V91.6826H93.5664ZM104.245 96.1387C105.095 96.1387 105.804 95.8838 106.372 95.374C106.946 94.8584 107.233 94.2256 107.233 93.4756V92.3682L104.43 92.5703C102.842 92.6816 102.048 93.2793 102.048 94.3633C102.048 94.9023 102.256 95.333 102.672 95.6553C103.076 95.9775 103.601 96.1387 104.245 96.1387ZM104.052 97.1582C103.114 97.1582 102.35 96.9062 101.758 96.4023C101.16 95.8926 100.861 95.2188 100.861 94.3809C100.861 93.5605 101.157 92.9131 101.749 92.4385C102.329 91.9697 103.17 91.6973 104.271 91.6211L107.233 91.4277V90.5137C107.233 89.834 107.034 89.3125 106.636 88.9492C106.231 88.5859 105.646 88.4043 104.878 88.4043C104.228 88.4043 103.683 88.5332 103.243 88.791C102.798 89.0547 102.52 89.415 102.408 89.8721H101.239C101.351 89.1221 101.743 88.5186 102.417 88.0615C103.085 87.6045 103.917 87.376 104.913 87.376C106.021 87.376 106.879 87.6514 107.488 88.2021C108.092 88.7471 108.394 89.5146 108.394 90.5049V97H107.286V95.374H107.181C106.894 95.9365 106.475 96.373 105.924 96.6836C105.373 97 104.749 97.1582 104.052 97.1582Z" fill="white"/>
<path d="M37.8086 118.51H33.7041C33.6162 120.186 33.5078 121.659 33.3789 122.931C33.2559 124.39 32.9717 125.386 32.5264 125.919V126.024H37.8086V118.51ZM30.3818 129.505V126.024H31.1465C31.7793 125.614 32.1631 124.568 32.2979 122.887C32.333 122.541 32.459 120.757 32.6758 117.534H38.96V126.024H40.4893V129.505H39.3994V127H31.4717V129.505H30.3818ZM46.167 122.087L41.9307 117.534H43.3457L47.0898 121.7H47.5117V117.534H48.6455V121.7H49.0586L52.8027 117.534H54.209L49.9902 122.061L54.4287 127H52.9521L49.0586 122.588H48.6455V127H47.5117V122.588H47.0898L43.2051 127H41.7461L46.167 122.087ZM56.6963 127V117.534H57.8477V125.163H57.9619L63.2793 117.534H64.4307V127H63.2793V119.371H63.1738L57.8477 127H56.6963ZM67.5596 117.534H68.7109V121.595H74.0283V117.534H75.1797V127H74.0283V122.57H68.7109V127H67.5596V117.534Z" fill="white"/>
<path d="M31.5596 147.534H32.7109V156.024H36.7979V147.534H37.9492V156.024H42.0273V147.534H43.1787V157H31.5596V147.534ZM47.459 148.51V151.621H49.8232C50.4795 151.621 50.9834 151.48 51.335 151.199C51.6748 150.924 51.8447 150.531 51.8447 150.021C51.8447 149.553 51.6895 149.187 51.3789 148.923C51.0566 148.647 50.5996 148.51 50.0078 148.51H47.459ZM47.459 152.597V156.024H50.1484C51.5781 156.024 52.293 155.447 52.293 154.293C52.293 153.162 51.502 152.597 49.9199 152.597H47.459ZM46.3076 147.534H50.1396C51.0244 147.534 51.7217 147.748 52.2314 148.176C52.7295 148.604 52.9785 149.184 52.9785 149.916C52.9785 150.426 52.8232 150.877 52.5127 151.27C52.2021 151.656 51.8037 151.896 51.3174 151.99V152.104C51.9385 152.175 52.4424 152.409 52.8291 152.808C53.2334 153.212 53.4355 153.713 53.4355 154.311C53.4355 155.154 53.1514 155.813 52.583 156.288C52.0088 156.763 51.2061 157 50.1748 157H46.3076V147.534ZM59.8164 148.396C58.9551 148.396 58.249 148.688 57.6982 149.274C57.1475 149.866 56.8457 150.648 56.793 151.621H62.6904C62.6787 150.643 62.4121 149.86 61.8906 149.274C61.3633 148.688 60.6719 148.396 59.8164 148.396ZM63.7451 154.662C63.5107 155.436 63.0479 156.045 62.3564 156.49C61.665 156.936 60.8242 157.158 59.834 157.158C58.5332 157.158 57.502 156.716 56.7402 155.831C55.9785 154.952 55.5977 153.766 55.5977 152.271C55.5977 150.783 55.9814 149.597 56.749 148.712C57.5107 147.821 58.5361 147.376 59.8252 147.376C61.085 147.376 62.0781 147.795 62.8047 148.633C63.5312 149.471 63.8945 150.613 63.8945 152.061V152.57H56.7842V152.623C56.8135 153.695 57.1064 154.548 57.6631 155.181C58.2139 155.813 58.9463 156.13 59.8604 156.13C61.249 156.13 62.1543 155.641 62.5762 154.662H63.7451ZM72.9385 148.51H67.709V157H66.5576V147.534H74.0898V157H72.9385V148.51ZM83.7402 150.32C83.5879 149.758 83.2803 149.304 82.8174 148.958C82.3252 148.595 81.7275 148.413 81.0244 148.413C80.0811 148.413 79.334 148.759 78.7832 149.45C78.2266 150.142 77.9482 151.07 77.9482 152.236C77.9482 153.42 78.2266 154.36 78.7832 155.058C79.3398 155.761 80.0869 156.112 81.0244 156.112C81.7275 156.112 82.3164 155.951 82.791 155.629C83.2715 155.307 83.585 154.855 83.7314 154.275H84.9004C84.7539 155.143 84.3438 155.834 83.6699 156.35C82.9727 156.889 82.0938 157.158 81.0332 157.158C79.7266 157.158 78.6895 156.713 77.9219 155.822C77.1484 154.938 76.7617 153.742 76.7617 152.236C76.7617 150.754 77.1455 149.573 77.9131 148.694C78.6865 147.815 79.7236 147.376 81.0244 147.376C82.0791 147.376 82.9639 147.66 83.6787 148.229C84.3525 148.768 84.7627 149.465 84.9092 150.32H83.7402Z" fill="white"/>
<path d="M34.4248 186.139C35.2744 186.139 35.9834 185.884 36.5518 185.374C37.126 184.858 37.4131 184.226 37.4131 183.476V182.368L34.6094 182.57C33.0215 182.682 32.2275 183.279 32.2275 184.363C32.2275 184.902 32.4355 185.333 32.8516 185.655C33.2559 185.978 33.7803 186.139 34.4248 186.139ZM34.2314 187.158C33.2939 187.158 32.5293 186.906 31.9375 186.402C31.3398 185.893 31.041 185.219 31.041 184.381C31.041 183.561 31.3369 182.913 31.9287 182.438C32.5088 181.97 33.3496 181.697 34.4512 181.621L37.4131 181.428V180.514C37.4131 179.834 37.2139 179.312 36.8154 178.949C36.4111 178.586 35.8252 178.404 35.0576 178.404C34.4072 178.404 33.8623 178.533 33.4229 178.791C32.9775 179.055 32.6992 179.415 32.5879 179.872H31.4189C31.5303 179.122 31.9229 178.519 32.5967 178.062C33.2646 177.604 34.0967 177.376 35.0928 177.376C36.2002 177.376 37.0586 177.651 37.668 178.202C38.2715 178.747 38.5732 179.515 38.5732 180.505V187H37.4658V185.374H37.3604C37.0732 185.937 36.6543 186.373 36.1035 186.684C35.5527 187 34.9287 187.158 34.2314 187.158ZM48.3203 180.32C48.168 179.758 47.8604 179.304 47.3975 178.958C46.9053 178.595 46.3076 178.413 45.6045 178.413C44.6611 178.413 43.9141 178.759 43.3633 179.45C42.8066 180.142 42.5283 181.07 42.5283 182.236C42.5283 183.42 42.8066 184.36 43.3633 185.058C43.9199 185.761 44.667 186.112 45.6045 186.112C46.3076 186.112 46.8965 185.951 47.3711 185.629C47.8516 185.307 48.165 184.855 48.3115 184.275H49.4805C49.334 185.143 48.9238 185.834 48.25 186.35C47.5527 186.889 46.6738 187.158 45.6133 187.158C44.3066 187.158 43.2695 186.713 42.502 185.822C41.7285 184.938 41.3418 183.742 41.3418 182.236C41.3418 180.754 41.7256 179.573 42.4932 178.694C43.2666 177.815 44.3037 177.376 45.6045 177.376C46.6592 177.376 47.5439 177.66 48.2588 178.229C48.9326 178.768 49.3428 179.465 49.4893 180.32H48.3203ZM58.4189 178.51H55.1846V187H54.0332V178.51H50.7988V177.534H58.4189V178.51ZM60.7217 187V177.534H61.873V185.163H61.9873L67.3047 177.534H68.4561V187H67.3047V179.371H67.1992L61.873 187H60.7217ZM71.418 182.43V181.34H77.1836V182.43H71.418ZM80.1631 177.534H81.3145V186.024H85.4014V177.534H86.5527V186.024H90.6309V177.534H91.7822V187H80.1631V177.534ZM97.7764 186.139C98.626 186.139 99.335 185.884 99.9033 185.374C100.478 184.858 100.765 184.226 100.765 183.476V182.368L97.9609 182.57C96.373 182.682 95.5791 183.279 95.5791 184.363C95.5791 184.902 95.7871 185.333 96.2031 185.655C96.6074 185.978 97.1318 186.139 97.7764 186.139ZM97.583 187.158C96.6455 187.158 95.8809 186.906 95.2891 186.402C94.6914 185.893 94.3926 185.219 94.3926 184.381C94.3926 183.561 94.6885 182.913 95.2803 182.438C95.8604 181.97 96.7012 181.697 97.8027 181.621L100.765 181.428V180.514C100.765 179.834 100.565 179.312 100.167 178.949C99.7627 178.586 99.1768 178.404 98.4092 178.404C97.7588 178.404 97.2139 178.533 96.7744 178.791C96.3291 179.055 96.0508 179.415 95.9395 179.872H94.7705C94.8818 179.122 95.2744 178.519 95.9482 178.062C96.6162 177.604 97.4482 177.376 98.4443 177.376C99.5518 177.376 100.41 177.651 101.02 178.202C101.623 178.747 101.925 179.515 101.925 180.505V187H100.817V185.374H100.712C100.425 185.937 100.006 186.373 99.4551 186.684C98.9043 187 98.2803 187.158 97.583 187.158ZM105.159 187V177.534H106.548L110.266 185.4H110.371L114.071 177.534H115.407V187H114.256V179.644H114.124L110.749 186.815H109.844L106.434 179.644H106.311V187H105.159ZM124.917 178.51H119.688V187H118.536V177.534H126.068V187H124.917V178.51ZM132.071 186.139C132.921 186.139 133.63 185.884 134.198 185.374C134.772 184.858 135.06 184.226 135.06 183.476V182.368L132.256 182.57C130.668 182.682 129.874 183.279 129.874 184.363C129.874 184.902 130.082 185.333 130.498 185.655C130.902 185.978 131.427 186.139 132.071 186.139ZM131.878 187.158C130.94 187.158 130.176 186.906 129.584 186.402C128.986 185.893 128.688 185.219 128.688 184.381C128.688 183.561 128.983 182.913 129.575 182.438C130.155 181.97 130.996 181.697 132.098 181.621L135.06 181.428V180.514C135.06 179.834 134.86 179.312 134.462 178.949C134.058 178.586 133.472 178.404 132.704 178.404C132.054 178.404 131.509 178.533 131.069 178.791C130.624 179.055 130.346 179.415 130.234 179.872H129.065C129.177 179.122 129.569 178.519 130.243 178.062C130.911 177.604 131.743 177.376 132.739 177.376C133.847 177.376 134.705 177.651 135.314 178.202C135.918 178.747 136.22 179.515 136.22 180.505V187H135.112V185.374H135.007C134.72 185.937 134.301 186.373 133.75 186.684C133.199 187 132.575 187.158 131.878 187.158ZM139.454 177.534H140.605V181.595H145.923V177.534H147.074V187H145.923V182.57H140.605V187H139.454V177.534ZM151.363 181.735V186.024H153.42C154.111 186.024 154.665 185.828 155.081 185.436C155.491 185.049 155.696 184.53 155.696 183.88C155.696 183.224 155.488 182.702 155.072 182.315C154.662 181.929 154.111 181.735 153.42 181.735H151.363ZM150.212 177.534H151.363V180.751H153.42C154.469 180.751 155.301 181.032 155.916 181.595C156.537 182.163 156.848 182.925 156.848 183.88C156.848 184.835 156.537 185.594 155.916 186.156C155.301 186.719 154.469 187 153.42 187H150.212V177.534Z" fill="white"/>
<path d="M244.068 96.3252C242.703 96.3252 241.581 95.9531 240.702 95.209C239.841 94.4824 239.39 93.5449 239.349 92.3965H241.801C241.877 92.9238 242.126 93.3486 242.548 93.6709C242.97 93.9932 243.482 94.1543 244.086 94.1543C244.771 94.1543 245.325 93.9434 245.747 93.5215C246.175 93.0996 246.389 92.5459 246.389 91.8604C246.389 91.1631 246.175 90.6006 245.747 90.1729C245.319 89.7451 244.769 89.5312 244.095 89.5312C243.116 89.5312 242.393 89.9121 241.924 90.6738H239.551L240.184 83.3174H248.155V85.5234H242.24L241.959 88.7842H242.117C242.691 87.958 243.588 87.5449 244.807 87.5449C246.008 87.5449 246.995 87.9434 247.769 88.7402C248.536 89.5371 248.92 90.5566 248.92 91.7988C248.92 93.1465 248.475 94.2363 247.584 95.0684C246.693 95.9062 245.521 96.3252 244.068 96.3252ZM256.109 96.3252C254.539 96.3252 253.309 95.7363 252.418 94.5586C251.521 93.375 251.073 91.7344 251.073 89.6367C251.073 87.5449 251.521 85.9131 252.418 84.7412C253.309 83.5752 254.539 82.9922 256.109 82.9922C257.674 82.9922 258.901 83.5752 259.792 84.7412C260.694 85.9189 261.146 87.5537 261.146 89.6455C261.146 91.7373 260.697 93.375 259.801 94.5586C258.91 95.7363 257.68 96.3252 256.109 96.3252ZM256.109 94.1631C256.848 94.1631 257.422 93.7793 257.832 93.0117C258.248 92.2266 258.456 91.1016 258.456 89.6367C258.456 88.1836 258.245 87.0674 257.823 86.2881C257.419 85.5381 256.848 85.1631 256.109 85.1631C255.377 85.1631 254.806 85.541 254.396 86.2969C253.974 87.0762 253.763 88.1895 253.763 89.6367C253.763 91.0957 253.974 92.2207 254.396 93.0117C254.8 93.7793 255.371 94.1631 256.109 94.1631ZM270.813 88.3184V96H268.256V86.3057H274.962V88.3184H270.813Z" fill="white"/>
<path d="M224.368 118.521H225.915C226.519 118.521 227.005 118.359 227.374 118.037C227.749 117.715 227.937 117.296 227.937 116.78C227.937 116.271 227.752 115.863 227.383 115.559C227.02 115.26 226.527 115.11 225.906 115.11C225.291 115.11 224.793 115.271 224.412 115.594C224.031 115.916 223.823 116.353 223.788 116.903H221.336C221.383 115.702 221.822 114.75 222.654 114.047C223.486 113.344 224.594 112.992 225.977 112.992C227.277 112.992 228.35 113.312 229.193 113.95C230.031 114.595 230.45 115.415 230.45 116.411C230.45 117.144 230.236 117.773 229.809 118.301C229.387 118.828 228.821 119.165 228.112 119.312V119.47C228.985 119.569 229.674 119.889 230.178 120.428C230.688 120.973 230.942 121.661 230.942 122.493C230.942 123.606 230.474 124.523 229.536 125.244C228.599 125.965 227.406 126.325 225.959 126.325C224.547 126.325 223.398 125.965 222.514 125.244C221.629 124.523 221.157 123.565 221.099 122.37H223.639C223.68 122.909 223.911 123.334 224.333 123.645C224.755 123.961 225.306 124.119 225.985 124.119C226.647 124.119 227.189 123.949 227.611 123.609C228.027 123.27 228.235 122.83 228.235 122.291C228.235 121.734 228.03 121.298 227.62 120.981C227.21 120.659 226.65 120.498 225.941 120.498H224.368V118.521ZM238.105 126.325C236.535 126.325 235.305 125.736 234.414 124.559C233.518 123.375 233.069 121.734 233.069 119.637C233.069 117.545 233.518 115.913 234.414 114.741C235.305 113.575 236.535 112.992 238.105 112.992C239.67 112.992 240.897 113.575 241.788 114.741C242.69 115.919 243.142 117.554 243.142 119.646C243.142 121.737 242.693 123.375 241.797 124.559C240.906 125.736 239.676 126.325 238.105 126.325ZM238.105 124.163C238.844 124.163 239.418 123.779 239.828 123.012C240.244 122.227 240.452 121.102 240.452 119.637C240.452 118.184 240.241 117.067 239.819 116.288C239.415 115.538 238.844 115.163 238.105 115.163C237.373 115.163 236.802 115.541 236.392 116.297C235.97 117.076 235.759 118.189 235.759 119.637C235.759 121.096 235.97 122.221 236.392 123.012C236.796 123.779 237.367 124.163 238.105 124.163ZM250.252 126V116.306H253.565L256.105 122.511H256.264L258.812 116.306H262.082V126H259.674V119.575H259.507L257.055 125.455H255.271L252.818 119.575H252.66V126H250.252ZM267.936 121.342C267.848 122.9 267.572 124.055 267.109 124.805C266.576 125.678 265.747 126.114 264.622 126.114C264.306 126.114 264.033 126.076 263.805 126V123.75C263.969 123.791 264.153 123.812 264.358 123.812C264.792 123.812 265.114 123.56 265.325 123.056C265.501 122.646 265.612 122.016 265.659 121.166L265.94 116.306H273.235V126H270.678V118.318H268.138L267.936 121.342Z" fill="white"/>
<path d="M226.231 156.325C224.708 156.325 223.475 155.982 222.531 155.297C221.588 154.611 221.116 153.718 221.116 152.616C221.116 151.819 221.371 151.128 221.881 150.542C222.385 149.95 223.062 149.561 223.911 149.373V149.215C223.22 149.057 222.666 148.726 222.25 148.222C221.834 147.718 221.626 147.129 221.626 146.455C221.626 145.441 222.057 144.612 222.918 143.968C223.785 143.317 224.893 142.992 226.24 142.992C227.582 142.992 228.687 143.317 229.554 143.968C230.415 144.612 230.846 145.441 230.846 146.455C230.846 147.129 230.638 147.718 230.222 148.222C229.812 148.72 229.258 149.051 228.561 149.215V149.373C229.404 149.531 230.084 149.903 230.6 150.489C231.109 151.081 231.364 151.781 231.364 152.59C231.364 153.703 230.89 154.603 229.94 155.288C228.991 155.979 227.755 156.325 226.231 156.325ZM226.231 154.321C226.929 154.321 227.497 154.14 227.937 153.776C228.376 153.413 228.596 152.944 228.596 152.37C228.596 151.79 228.376 151.318 227.937 150.955C227.497 150.592 226.929 150.41 226.231 150.41C225.534 150.41 224.969 150.592 224.535 150.955C224.096 151.318 223.876 151.79 223.876 152.37C223.876 152.944 224.096 153.413 224.535 153.776C224.969 154.14 225.534 154.321 226.231 154.321ZM226.231 148.45C226.817 148.45 227.298 148.286 227.673 147.958C228.042 147.636 228.227 147.22 228.227 146.71C228.227 146.194 228.042 145.775 227.673 145.453C227.298 145.125 226.817 144.961 226.231 144.961C225.646 144.961 225.168 145.125 224.799 145.453C224.43 145.775 224.245 146.194 224.245 146.71C224.245 147.22 224.43 147.636 224.799 147.958C225.168 148.286 225.646 148.45 226.231 148.45ZM238.562 156.325C236.992 156.325 235.762 155.736 234.871 154.559C233.975 153.375 233.526 151.734 233.526 149.637C233.526 147.545 233.975 145.913 234.871 144.741C235.762 143.575 236.992 142.992 238.562 142.992C240.127 142.992 241.354 143.575 242.245 144.741C243.147 145.919 243.599 147.554 243.599 149.646C243.599 151.737 243.15 153.375 242.254 154.559C241.363 155.736 240.133 156.325 238.562 156.325ZM238.562 154.163C239.301 154.163 239.875 153.779 240.285 153.012C240.701 152.227 240.909 151.102 240.909 149.637C240.909 148.184 240.698 147.067 240.276 146.288C239.872 145.538 239.301 145.163 238.562 145.163C237.83 145.163 237.259 145.541 236.849 146.297C236.427 147.076 236.216 148.189 236.216 149.637C236.216 151.096 236.427 152.221 236.849 153.012C237.253 153.779 237.824 154.163 238.562 154.163ZM250.709 156V146.306H254.022L256.562 152.511H256.721L259.27 146.306H262.539V156H260.131V149.575H259.964L257.512 155.455H255.728L253.275 149.575H253.117V156H250.709ZM268.393 151.342C268.305 152.9 268.029 154.055 267.566 154.805C267.033 155.678 266.204 156.114 265.079 156.114C264.763 156.114 264.49 156.076 264.262 156V153.75C264.426 153.791 264.61 153.812 264.815 153.812C265.249 153.812 265.571 153.56 265.782 153.056C265.958 152.646 266.069 152.016 266.116 151.166L266.397 146.306H273.692V156H271.135V148.318H268.595L268.393 151.342Z" fill="white"/>
<path d="M226.068 186.325C224.703 186.325 223.581 185.953 222.702 185.209C221.841 184.482 221.39 183.545 221.349 182.396H223.801C223.877 182.924 224.126 183.349 224.548 183.671C224.97 183.993 225.482 184.154 226.086 184.154C226.771 184.154 227.325 183.943 227.747 183.521C228.175 183.1 228.389 182.546 228.389 181.86C228.389 181.163 228.175 180.601 227.747 180.173C227.319 179.745 226.769 179.531 226.095 179.531C225.116 179.531 224.393 179.912 223.924 180.674H221.551L222.184 173.317H230.155V175.523H224.24L223.959 178.784H224.117C224.691 177.958 225.588 177.545 226.807 177.545C228.008 177.545 228.995 177.943 229.769 178.74C230.536 179.537 230.92 180.557 230.92 181.799C230.92 183.146 230.475 184.236 229.584 185.068C228.693 185.906 227.521 186.325 226.068 186.325ZM238.109 186.325C236.539 186.325 235.309 185.736 234.418 184.559C233.521 183.375 233.073 181.734 233.073 179.637C233.073 177.545 233.521 175.913 234.418 174.741C235.309 173.575 236.539 172.992 238.109 172.992C239.674 172.992 240.901 173.575 241.792 174.741C242.694 175.919 243.146 177.554 243.146 179.646C243.146 181.737 242.697 183.375 241.801 184.559C240.91 185.736 239.68 186.325 238.109 186.325ZM238.109 184.163C238.848 184.163 239.422 183.779 239.832 183.012C240.248 182.227 240.456 181.102 240.456 179.637C240.456 178.184 240.245 177.067 239.823 176.288C239.419 175.538 238.848 175.163 238.109 175.163C237.377 175.163 236.806 175.541 236.396 176.297C235.974 177.076 235.763 178.189 235.763 179.637C235.763 181.096 235.974 182.221 236.396 183.012C236.8 183.779 237.371 184.163 238.109 184.163ZM250.256 186V176.306H253.569L256.109 182.511H256.268L258.816 176.306H262.086V186H259.678V179.575H259.511L257.059 185.455H255.274L252.822 179.575H252.664V186H250.256ZM267.939 181.342C267.852 182.9 267.576 184.055 267.113 184.805C266.58 185.678 265.751 186.114 264.626 186.114C264.31 186.114 264.037 186.076 263.809 186V183.75C263.973 183.791 264.157 183.812 264.362 183.812C264.796 183.812 265.118 183.56 265.329 183.056C265.505 182.646 265.616 182.016 265.663 181.166L265.944 176.306H273.239V186H270.682V178.318H268.142L267.939 181.342Z" fill="white"/>
<defs>
<filter id="filter0_b" x="-20" y="-20" width="345" height="345" filterUnits="userSpaceOnUse" color-interpolation-filters="sRGB">
<feFlood flood-opacity="0" result="BackgroundImageFix"/>
<feGaussianBlur in="BackgroundImage" stdDeviation="10"/>
<feComposite in2="SourceAlpha" operator="in" result="effect1_backgroundBlur"/>
<feBlend mode="normal" in="SourceGraphic" in2="effect1_backgroundBlur" result="shape"/>
</filter>
</defs>
</svg>
