<svg width="305" height="305" viewBox="0 0 305 305" fill="none" xmlns="http://www.w3.org/2000/svg">
<g filter="url(#filter0_b)">
<rect width="305" height="305" rx="5" fill="white" fill-opacity="0.2"/>
</g>
<line y1="235.5" x2="305" y2="235.5" stroke="white" stroke-opacity="0.5"/>
<path d="M29.332 270.402H31.3828C32.3438 270.402 33.1328 270.121 33.75 269.559C34.3594 268.996 34.6641 268.277 34.6641 267.402C34.6641 266.543 34.3672 265.848 33.7734 265.316C33.1797 264.793 32.3945 264.531 31.418 264.531C30.4414 264.531 29.6523 264.785 29.0508 265.293C28.4492 265.809 28.1055 266.52 28.0195 267.426H25.9688C26.0781 265.957 26.625 264.801 27.6094 263.957C28.5938 263.113 29.8906 262.691 31.5 262.691C32.9766 262.691 34.2305 263.121 35.2617 263.98C36.293 264.84 36.8086 265.887 36.8086 267.121C36.8086 268.129 36.5469 268.98 36.0234 269.676C35.5 270.371 34.7734 270.832 33.8438 271.059V271.246C34.9922 271.395 35.8945 271.84 36.5508 272.582C37.207 273.332 37.5352 274.285 37.5352 275.441C37.5352 276.832 36.9609 278.008 35.8125 278.969C34.6641 279.922 33.2539 280.398 31.582 280.398C29.8633 280.398 28.4609 279.961 27.375 279.086C26.2891 278.203 25.707 277.039 25.6289 275.594H27.668C27.7617 276.492 28.1602 277.211 28.8633 277.75C29.5664 278.289 30.4648 278.559 31.5586 278.559C32.668 278.559 33.582 278.262 34.3008 277.668C35.0117 277.074 35.3672 276.312 35.3672 275.383C35.3672 274.406 35.0195 273.633 34.3242 273.062C33.6289 272.492 32.6797 272.207 31.4766 272.207H29.332V270.402ZM48.6445 276.496H40.4062V274.574C41.9531 271.824 44.3672 267.996 47.6484 263.09H50.707V274.609H53.1094V276.496H50.707V280H48.6445V276.496ZM42.5625 274.621H48.6562V265.047H48.5156C46.6875 267.703 44.7031 270.848 42.5625 274.48V274.621ZM62.0508 280.398C60.1445 280.398 58.668 279.625 57.6211 278.078C56.5742 276.531 56.0508 274.352 56.0508 271.539C56.0508 268.75 56.5781 266.578 57.6328 265.023C58.6875 263.469 60.1602 262.691 62.0508 262.691C63.9336 262.691 65.3984 263.473 66.4453 265.035C67.5 266.598 68.0273 268.777 68.0273 271.574C68.0273 274.379 67.5078 276.551 66.4688 278.09C65.4219 279.629 63.9492 280.398 62.0508 280.398ZM62.0508 278.559C63.3008 278.559 64.2539 277.957 64.9102 276.754C65.5742 275.543 65.9062 273.805 65.9062 271.539C65.9062 269.297 65.5742 267.57 64.9102 266.359C64.2383 265.148 63.2852 264.543 62.0508 264.543C60.8164 264.543 59.8594 265.152 59.1797 266.371C58.5078 267.582 58.1719 269.305 58.1719 271.539C58.1719 273.797 58.5078 275.531 59.1797 276.742C59.8438 277.953 60.8008 278.559 62.0508 278.559ZM77.7539 267.145C79.3633 267.145 80.6523 267.738 81.6211 268.926C82.582 270.113 83.0625 271.699 83.0625 273.684C83.0625 275.66 82.5781 277.242 81.6094 278.43C80.6406 279.625 79.3555 280.223 77.7539 280.223C75.8555 280.223 74.5391 279.516 73.8047 278.102H73.6172V284.219H71.6016V267.367H73.5234V269.477H73.7109C74.1172 268.75 74.6758 268.18 75.3867 267.766C76.1055 267.352 76.8945 267.145 77.7539 267.145ZM77.2734 278.406C78.4297 278.406 79.3359 277.988 79.9922 277.152C80.6484 276.316 80.9766 275.16 80.9766 273.684C80.9766 272.207 80.6484 271.051 79.9922 270.215C79.3438 269.379 78.4414 268.961 77.2852 268.961C76.1445 268.961 75.2383 269.383 74.5664 270.227C73.8945 271.078 73.5586 272.23 73.5586 273.684C73.5586 275.129 73.8945 276.277 74.5664 277.129C75.2305 277.98 76.1328 278.406 77.2734 278.406Z" fill="white"/>
<path d="M40.334 45.498C37.4629 45.498 35.1924 44.5068 33.5225 42.5244C31.8428 40.542 31.0029 37.8467 31.0029 34.4385C31.0029 31.0303 31.8379 28.3301 33.5078 26.3379C35.1777 24.3555 37.4482 23.3643 40.3193 23.3643C42.5459 23.3643 44.4502 23.999 46.0322 25.2686C47.6143 26.5381 48.5615 28.1934 48.874 30.2344H46.1934C45.8418 28.8672 45.1387 27.7881 44.084 26.9971C43.0293 26.1963 41.7744 25.7959 40.3193 25.7959C38.2881 25.7959 36.6816 26.5723 35.5 28.125C34.3086 29.6777 33.7129 31.7822 33.7129 34.4385C33.7129 37.0947 34.3086 39.1943 35.5 40.7373C36.6914 42.29 38.3027 43.0664 40.334 43.0664C41.8086 43.0664 43.0684 42.7148 44.1133 42.0117C45.168 41.2988 45.8613 40.332 46.1934 39.1113H48.874C48.5225 41.0547 47.5752 42.6025 46.0322 43.7549C44.4795 44.917 42.5801 45.498 40.334 45.498ZM66.1445 45V26.2354H58.4248L57.751 37.0898C57.585 39.7754 57.1113 41.7529 56.3301 43.0225C55.4707 44.4287 54.1475 45.1318 52.3604 45.1318C51.9502 45.1318 51.6084 45.083 51.335 44.9854V42.627C51.5498 42.6855 51.8135 42.7148 52.126 42.7148C53.2295 42.7148 54.0254 42.1729 54.5137 41.0889C54.9043 40.2393 55.1533 38.8721 55.2607 36.9873L56.0225 23.8623H68.7812V45H66.1445ZM90.5488 45.498C87.7168 45.498 85.4561 44.585 83.7666 42.7588C82.0967 40.9619 81.1787 38.501 81.0127 35.376H77.1162V45H74.4795V23.8623H77.1162V33.0029H81.042C81.2861 30.0146 82.248 27.6611 83.9277 25.9424C85.6172 24.2236 87.8242 23.3643 90.5488 23.3643C93.498 23.3643 95.8271 24.3604 97.5361 26.3525C99.2256 28.335 100.07 31.0254 100.07 34.4238C100.07 37.8223 99.2256 40.5127 97.5361 42.4951C95.8369 44.4971 93.5078 45.498 90.5488 45.498ZM90.5488 25.7959C88.4395 25.7959 86.7695 26.5723 85.5391 28.125C84.3086 29.6777 83.6934 31.7773 83.6934 34.4238C83.6934 37.0703 84.2988 39.165 85.5098 40.708C86.7305 42.2803 88.4102 43.0664 90.5488 43.0664C92.6582 43.0664 94.3232 42.2803 95.5439 40.708C96.7549 39.1553 97.3604 37.0605 97.3604 34.4238C97.3604 31.7676 96.7549 29.668 95.5439 28.125C94.3232 26.5723 92.6582 25.7959 90.5488 25.7959ZM119.187 45V35.376H107.585V45H104.948V23.8623H107.585V33.0029H119.187V23.8623H121.823V45H119.187ZM139.123 38.9502H130.715L128.591 45H125.822L133.615 23.8623H136.223L144.016 45H141.247L139.123 38.9502ZM131.491 36.709H138.347L135.036 27.2754H134.802L131.491 36.709ZM159.733 33.1494L168.61 23.8623H171.921L162.004 34.043L172.771 45H169.284L159.733 35.2588H159.118V45H156.481V23.8623H159.118V33.1494H159.733ZM184.475 23.3643C187.473 23.3643 189.836 24.3604 191.564 26.3525C193.283 28.335 194.143 31.0254 194.143 34.4238C194.143 37.8223 193.288 40.5127 191.579 42.4951C189.841 44.4971 187.473 45.498 184.475 45.498C181.457 45.498 179.079 44.4971 177.341 42.4951C175.622 40.5127 174.763 37.8223 174.763 34.4238C174.763 31.0254 175.637 28.3301 177.385 26.3379C179.123 24.3555 181.486 23.3643 184.475 23.3643ZM184.475 25.7959C182.326 25.7959 180.622 26.5723 179.362 28.125C178.103 29.6777 177.473 31.7773 177.473 34.4238C177.473 37.0703 178.093 39.165 179.333 40.708C180.583 42.2803 182.297 43.0664 184.475 43.0664C186.633 43.0664 188.337 42.2803 189.587 40.708C190.817 39.1553 191.433 37.0605 191.433 34.4238C191.433 31.7676 190.812 29.668 189.572 28.125C188.332 26.5723 186.633 25.7959 184.475 25.7959ZM203.488 45V26.2354H196.677V23.8623H212.937V26.2354H206.125V45H203.488ZM226.721 38.9502H218.312L216.188 45H213.42L221.213 23.8623H223.82L231.613 45H228.845L226.721 38.9502ZM219.089 36.709H225.944L222.634 27.2754H222.399L219.089 36.709Z" fill="white"/>
<path d="M34.0684 90.3203C33.916 89.7578 33.6084 89.3037 33.1455 88.958C32.6533 88.5947 32.0557 88.4131 31.3525 88.4131C30.4092 88.4131 29.6621 88.7588 29.1113 89.4502C28.5547 90.1416 28.2764 91.0703 28.2764 92.2363C28.2764 93.4199 28.5547 94.3604 29.1113 95.0576C29.668 95.7607 30.415 96.1123 31.3525 96.1123C32.0557 96.1123 32.6445 95.9512 33.1191 95.6289C33.5996 95.3066 33.9131 94.8555 34.0596 94.2754H35.2285C35.082 95.1426 34.6719 95.834 33.998 96.3496C33.3008 96.8887 32.4219 97.1582 31.3613 97.1582C30.0547 97.1582 29.0176 96.7129 28.25 95.8223C27.4766 94.9375 27.0898 93.7422 27.0898 92.2363C27.0898 90.7539 27.4736 89.5732 28.2412 88.6943C29.0146 87.8154 30.0518 87.376 31.3525 87.376C32.4072 87.376 33.292 87.6602 34.0068 88.2285C34.6807 88.7676 35.0908 89.4648 35.2373 90.3203H34.0684ZM39.7285 92.9307C39.623 94.29 39.4062 95.2861 39.0781 95.9189C38.6738 96.6924 38.0498 97.0791 37.2061 97.0791C37.0127 97.0791 36.8369 97.0498 36.6787 96.9912V95.9277C36.8193 95.9746 36.9775 95.998 37.1533 95.998C37.6221 95.998 37.9736 95.7109 38.208 95.1367C38.4131 94.6504 38.5537 93.9004 38.6299 92.8867C38.7646 91.4805 38.8877 89.6963 38.999 87.5342H45.0547V97H43.9033V88.5098H40.0449C39.9512 90.3145 39.8457 91.7881 39.7285 92.9307ZM55.5752 97.167C54.3213 97.167 53.3193 96.7568 52.5693 95.9365C51.8193 95.1221 51.418 94 51.3652 92.5703H49.3438V97H48.1924V87.5342H49.3438V91.5947H51.3916C51.5088 90.2822 51.9365 89.251 52.6748 88.501C53.4189 87.751 54.3857 87.376 55.5752 87.376C56.8701 87.376 57.8955 87.8125 58.6514 88.6855C59.4072 89.5645 59.7852 90.7627 59.7852 92.2803C59.7852 93.792 59.4072 94.9844 58.6514 95.8574C57.8955 96.7305 56.8701 97.167 55.5752 97.167ZM55.5752 96.1299C56.5186 96.1299 57.2568 95.7871 57.79 95.1016C58.3291 94.4219 58.5986 93.4814 58.5986 92.2803C58.5986 91.0732 58.3291 90.127 57.79 89.4414C57.2568 88.7617 56.5186 88.4219 55.5752 88.4219C54.6318 88.4219 53.8906 88.7617 53.3516 89.4414C52.8184 90.127 52.5518 91.0732 52.5518 92.2803C52.5518 93.4814 52.8184 94.4219 53.3516 95.1016C53.8906 95.7871 54.6318 96.1299 55.5752 96.1299ZM62.4482 87.5342H63.5996V91.5947H68.917V87.5342H70.0684V97H68.917V92.5703H63.5996V97H62.4482V87.5342ZM76.0713 96.1387C76.9209 96.1387 77.6299 95.8838 78.1982 95.374C78.7725 94.8584 79.0596 94.2256 79.0596 93.4756V92.3682L76.2559 92.5703C74.668 92.6816 73.874 93.2793 73.874 94.3633C73.874 94.9023 74.082 95.333 74.498 95.6553C74.9023 95.9775 75.4268 96.1387 76.0713 96.1387ZM75.8779 97.1582C74.9404 97.1582 74.1758 96.9062 73.584 96.4023C72.9863 95.8926 72.6875 95.2188 72.6875 94.3809C72.6875 93.5605 72.9834 92.9131 73.5752 92.4385C74.1553 91.9697 74.9961 91.6973 76.0977 91.6211L79.0596 91.4277V90.5137C79.0596 89.834 78.8604 89.3125 78.4619 88.9492C78.0576 88.5859 77.4717 88.4043 76.7041 88.4043C76.0537 88.4043 75.5088 88.5332 75.0693 88.791C74.624 89.0547 74.3457 89.415 74.2344 89.8721H73.0654C73.1768 89.1221 73.5693 88.5186 74.2432 88.0615C74.9111 87.6045 75.7432 87.376 76.7393 87.376C77.8467 87.376 78.7051 87.6514 79.3145 88.2021C79.918 88.7471 80.2197 89.5146 80.2197 90.5049V97H79.1123V95.374H79.0068C78.7197 95.9365 78.3008 96.373 77.75 96.6836C77.1992 97 76.5752 97.1582 75.8779 97.1582ZM89.8438 91.6826L94.0537 87.5342H95.4775L90.8105 92.0781L95.6885 97H94.168L89.8438 92.6055H89.4746V97H88.3232V87.5342H89.4746V91.6826H89.8438ZM101.366 96.1123C102.339 96.1123 103.101 95.7695 103.651 95.084C104.202 94.4043 104.478 93.4639 104.478 92.2627C104.478 91.0615 104.202 90.1211 103.651 89.4414C103.101 88.7559 102.339 88.4131 101.366 88.4131C100.394 88.4131 99.6318 88.7559 99.0811 89.4414C98.5303 90.1211 98.2549 91.0615 98.2549 92.2627C98.2549 93.4639 98.5303 94.4043 99.0811 95.084C99.6318 95.7695 100.394 96.1123 101.366 96.1123ZM101.366 97.1582C100.042 97.1582 98.9961 96.7188 98.2285 95.8398C97.4551 94.9668 97.0684 93.7744 97.0684 92.2627C97.0684 90.751 97.4551 89.5586 98.2285 88.6855C98.9961 87.8125 100.042 87.376 101.366 87.376C102.69 87.376 103.739 87.8125 104.513 88.6855C105.286 89.5586 105.673 90.751 105.673 92.2627C105.673 93.7744 105.286 94.9668 104.513 95.8398C103.739 96.7188 102.69 97.1582 101.366 97.1582ZM114.761 88.5098H111.526V97H110.375V88.5098H107.141V87.5342H114.761V88.5098ZM119.735 96.1387C120.585 96.1387 121.294 95.8838 121.862 95.374C122.437 94.8584 122.724 94.2256 122.724 93.4756V92.3682L119.92 92.5703C118.332 92.6816 117.538 93.2793 117.538 94.3633C117.538 94.9023 117.746 95.333 118.162 95.6553C118.566 95.9775 119.091 96.1387 119.735 96.1387ZM119.542 97.1582C118.604 97.1582 117.84 96.9062 117.248 96.4023C116.65 95.8926 116.352 95.2188 116.352 94.3809C116.352 93.5605 116.647 92.9131 117.239 92.4385C117.819 91.9697 118.66 91.6973 119.762 91.6211L122.724 91.4277V90.5137C122.724 89.834 122.524 89.3125 122.126 88.9492C121.722 88.5859 121.136 88.4043 120.368 88.4043C119.718 88.4043 119.173 88.5332 118.733 88.791C118.288 89.0547 118.01 89.415 117.898 89.8721H116.729C116.841 89.1221 117.233 88.5186 117.907 88.0615C118.575 87.6045 119.407 87.376 120.403 87.376C121.511 87.376 122.369 87.6514 122.979 88.2021C123.582 88.7471 123.884 89.5146 123.884 90.5049V97H122.776V95.374H122.671C122.384 95.9365 121.965 96.373 121.414 96.6836C120.863 97 120.239 97.1582 119.542 97.1582Z" fill="white"/>
<path d="M29.4805 122.931C29.375 124.29 29.1582 125.286 28.8301 125.919C28.4258 126.692 27.8018 127.079 26.958 127.079C26.7646 127.079 26.5889 127.05 26.4307 126.991V125.928C26.5713 125.975 26.7295 125.998 26.9053 125.998C27.374 125.998 27.7256 125.711 27.96 125.137C28.165 124.65 28.3057 123.9 28.3818 122.887C28.5166 121.48 28.6396 119.696 28.751 117.534H34.8066V127H33.6553V118.51H29.7969C29.7031 120.314 29.5977 121.788 29.4805 122.931ZM37.9443 127V117.534H39.0957V125.163H39.21L44.5273 117.534H45.6787V127H44.5273V119.371H44.4219L39.0957 127H37.9443ZM50.3281 121.683L54.5381 117.534H55.9619L51.2949 122.078L56.1729 127H54.6523L50.3281 122.605H49.959V127H48.8076V117.534H49.959V121.683H50.3281ZM61.7715 118.396C60.9102 118.396 60.2041 118.688 59.6533 119.274C59.1025 119.866 58.8008 120.648 58.748 121.621H64.6455C64.6338 120.643 64.3672 119.86 63.8457 119.274C63.3184 118.688 62.627 118.396 61.7715 118.396ZM65.7002 124.662C65.4658 125.436 65.0029 126.045 64.3115 126.49C63.6201 126.936 62.7793 127.158 61.7891 127.158C60.4883 127.158 59.457 126.716 58.6953 125.831C57.9336 124.952 57.5527 123.766 57.5527 122.271C57.5527 120.783 57.9365 119.597 58.7041 118.712C59.4658 117.821 60.4912 117.376 61.7803 117.376C63.04 117.376 64.0332 117.795 64.7598 118.633C65.4863 119.471 65.8496 120.613 65.8496 122.061V122.57H58.7393V122.623C58.7686 123.695 59.0615 124.548 59.6182 125.181C60.1689 125.813 60.9014 126.13 61.8154 126.13C63.2041 126.13 64.1094 125.641 64.5312 124.662H65.7002ZM72.96 117.376C74.1611 117.376 75.125 117.821 75.8516 118.712C76.5781 119.608 76.9414 120.792 76.9414 122.263C76.9414 123.733 76.5781 124.917 75.8516 125.813C75.1191 126.71 74.1553 127.158 72.96 127.158C72.2275 127.158 71.5771 126.985 71.0088 126.64C70.4463 126.288 70.0332 125.808 69.7695 125.198H69.6641V130.085H68.5127V117.534H69.6113V119.468H69.7168C70.0098 118.817 70.4434 118.308 71.0176 117.938C71.5918 117.563 72.2393 117.376 72.96 117.376ZM72.7051 126.112C73.6426 126.112 74.3838 125.767 74.9287 125.075C75.4795 124.384 75.7549 123.449 75.7549 122.271C75.7549 121.088 75.4824 120.15 74.9375 119.459C74.3867 118.762 73.6455 118.413 72.7139 118.413C71.7881 118.413 71.041 118.765 70.4727 119.468C69.9102 120.171 69.6289 121.103 69.6289 122.263C69.6289 123.423 69.9102 124.354 70.4727 125.058C71.0352 125.761 71.7793 126.112 72.7051 126.112Z" fill="white"/>
<path d="M28.707 148.51V157H27.5557V147.534H33.5586V148.51H28.707ZM38.4717 156.139C39.3213 156.139 40.0303 155.884 40.5986 155.374C41.1729 154.858 41.46 154.226 41.46 153.476V152.368L38.6562 152.57C37.0684 152.682 36.2744 153.279 36.2744 154.363C36.2744 154.902 36.4824 155.333 36.8984 155.655C37.3027 155.978 37.8271 156.139 38.4717 156.139ZM38.2783 157.158C37.3408 157.158 36.5762 156.906 35.9844 156.402C35.3867 155.893 35.0879 155.219 35.0879 154.381C35.0879 153.561 35.3838 152.913 35.9756 152.438C36.5557 151.97 37.3965 151.697 38.498 151.621L41.46 151.428V150.514C41.46 149.834 41.2607 149.312 40.8623 148.949C40.458 148.586 39.8721 148.404 39.1045 148.404C38.4541 148.404 37.9092 148.533 37.4697 148.791C37.0244 149.055 36.7461 149.415 36.6348 149.872H35.4658C35.5771 149.122 35.9697 148.519 36.6436 148.062C37.3115 147.604 38.1436 147.376 39.1396 147.376C40.2471 147.376 41.1055 147.651 41.7148 148.202C42.3184 148.747 42.6201 149.515 42.6201 150.505V157H41.5127V155.374H41.4072C41.1201 155.937 40.7012 156.373 40.1504 156.684C39.5996 157 38.9756 157.158 38.2783 157.158ZM48.9922 157.167C47.9727 157.167 47.1289 156.93 46.4609 156.455C45.8047 155.986 45.4209 155.362 45.3096 154.583H46.4961C46.6016 155.069 46.8682 155.453 47.2959 155.734C47.7412 156.033 48.3066 156.183 48.9922 156.183C49.7363 156.183 50.3252 156.016 50.7588 155.682C51.1865 155.354 51.4004 154.911 51.4004 154.354C51.4004 153.177 50.5859 152.588 48.957 152.588H47.4805V151.612H48.957C49.6309 151.612 50.1494 151.469 50.5127 151.182C50.8701 150.9 51.0488 150.496 51.0488 149.969C51.0488 149.488 50.873 149.104 50.5215 148.817C50.1582 148.519 49.6484 148.369 48.9922 148.369C48.3359 148.369 47.7969 148.519 47.375 148.817C46.959 149.104 46.707 149.488 46.6191 149.969H45.4766C45.5938 149.189 45.957 148.565 46.5664 148.097C47.1992 147.616 48.0078 147.376 48.9922 147.376C49.9941 147.376 50.7822 147.607 51.3564 148.07C51.9072 148.521 52.1826 149.131 52.1826 149.898C52.1826 150.408 52.0244 150.854 51.708 151.234C51.3975 151.621 50.9932 151.867 50.4951 151.973V152.078C51.1279 152.189 51.623 152.436 51.9805 152.816C52.3555 153.203 52.543 153.695 52.543 154.293C52.543 155.166 52.2178 155.863 51.5674 156.385C50.917 156.906 50.0586 157.167 48.9922 157.167ZM55.1885 157V147.534H56.3398V155.163H56.4541L61.7715 147.534H62.9229V157H61.7715V149.371H61.666L56.3398 157H55.1885ZM70.499 147.376C71.7002 147.376 72.6641 147.821 73.3906 148.712C74.1172 149.608 74.4805 150.792 74.4805 152.263C74.4805 153.733 74.1172 154.917 73.3906 155.813C72.6582 156.71 71.6943 157.158 70.499 157.158C69.7666 157.158 69.1162 156.985 68.5479 156.64C67.9854 156.288 67.5723 155.808 67.3086 155.198H67.2031V160.085H66.0518V147.534H67.1504V149.468H67.2559C67.5488 148.817 67.9824 148.308 68.5566 147.938C69.1309 147.563 69.7783 147.376 70.499 147.376ZM70.2441 156.112C71.1816 156.112 71.9229 155.767 72.4678 155.075C73.0186 154.384 73.2939 153.449 73.2939 152.271C73.2939 151.088 73.0215 150.15 72.4766 149.459C71.9258 148.762 71.1846 148.413 70.2529 148.413C69.3271 148.413 68.5801 148.765 68.0117 149.468C67.4492 150.171 67.168 151.103 67.168 152.263C67.168 153.423 67.4492 154.354 68.0117 155.058C68.5742 155.761 69.3184 156.112 70.2441 156.112ZM80.9756 156.112C81.9482 156.112 82.71 155.77 83.2607 155.084C83.8115 154.404 84.0869 153.464 84.0869 152.263C84.0869 151.062 83.8115 150.121 83.2607 149.441C82.71 148.756 81.9482 148.413 80.9756 148.413C80.0029 148.413 79.2412 148.756 78.6904 149.441C78.1396 150.121 77.8643 151.062 77.8643 152.263C77.8643 153.464 78.1396 154.404 78.6904 155.084C79.2412 155.77 80.0029 156.112 80.9756 156.112ZM80.9756 157.158C79.6514 157.158 78.6055 156.719 77.8379 155.84C77.0645 154.967 76.6777 153.774 76.6777 152.263C76.6777 150.751 77.0645 149.559 77.8379 148.686C78.6055 147.812 79.6514 147.376 80.9756 147.376C82.2998 147.376 83.3486 147.812 84.1221 148.686C84.8955 149.559 85.2822 150.751 85.2822 152.263C85.2822 153.774 84.8955 154.967 84.1221 155.84C83.3486 156.719 82.2998 157.158 80.9756 157.158ZM89.0879 148.51V151.621H91.4521C92.1084 151.621 92.6123 151.48 92.9639 151.199C93.3037 150.924 93.4736 150.531 93.4736 150.021C93.4736 149.553 93.3184 149.187 93.0078 148.923C92.6855 148.647 92.2285 148.51 91.6367 148.51H89.0879ZM89.0879 152.597V156.024H91.7773C93.207 156.024 93.9219 155.447 93.9219 154.293C93.9219 153.162 93.1309 152.597 91.5488 152.597H89.0879ZM87.9365 147.534H91.7686C92.6533 147.534 93.3506 147.748 93.8604 148.176C94.3584 148.604 94.6074 149.184 94.6074 149.916C94.6074 150.426 94.4521 150.877 94.1416 151.27C93.8311 151.656 93.4326 151.896 92.9463 151.99V152.104C93.5674 152.175 94.0713 152.409 94.458 152.808C94.8623 153.212 95.0645 153.713 95.0645 154.311C95.0645 155.154 94.7803 155.813 94.2119 156.288C93.6377 156.763 92.835 157 91.8037 157H87.9365V147.534ZM99.2832 151.683L103.493 147.534H104.917L100.25 152.078L105.128 157H103.607L99.2832 152.605H98.9141V157H97.7627V147.534H98.9141V151.683H99.2832ZM109.962 156.139C110.812 156.139 111.521 155.884 112.089 155.374C112.663 154.858 112.95 154.226 112.95 153.476V152.368L110.146 152.57C108.559 152.682 107.765 153.279 107.765 154.363C107.765 154.902 107.973 155.333 108.389 155.655C108.793 155.978 109.317 156.139 109.962 156.139ZM109.769 157.158C108.831 157.158 108.066 156.906 107.475 156.402C106.877 155.893 106.578 155.219 106.578 154.381C106.578 153.561 106.874 152.913 107.466 152.438C108.046 151.97 108.887 151.697 109.988 151.621L112.95 151.428V150.514C112.95 149.834 112.751 149.312 112.353 148.949C111.948 148.586 111.362 148.404 110.595 148.404C109.944 148.404 109.399 148.533 108.96 148.791C108.515 149.055 108.236 149.415 108.125 149.872H106.956C107.067 149.122 107.46 148.519 108.134 148.062C108.802 147.604 109.634 147.376 110.63 147.376C111.737 147.376 112.596 147.651 113.205 148.202C113.809 148.747 114.11 149.515 114.11 150.505V157H113.003V155.374H112.897C112.61 155.937 112.191 156.373 111.641 156.684C111.09 157 110.466 157.158 109.769 157.158Z" fill="white"/>
<path d="M223.198 123.785H216.993V121.438C217.983 119.569 219.656 116.862 222.012 113.317H225.729V121.579H227.391V123.785H225.729V126H223.198V123.785ZM219.375 121.658H223.26V115.383H223.119C221.766 117.404 220.518 119.449 219.375 121.518V121.658ZM234.545 126.325C232.975 126.325 231.744 125.736 230.854 124.559C229.957 123.375 229.509 121.734 229.509 119.637C229.509 117.545 229.957 115.913 230.854 114.741C231.744 113.575 232.975 112.992 234.545 112.992C236.109 112.992 237.337 113.575 238.228 114.741C239.13 115.919 239.581 117.554 239.581 119.646C239.581 121.737 239.133 123.375 238.236 124.559C237.346 125.736 236.115 126.325 234.545 126.325ZM234.545 124.163C235.283 124.163 235.857 123.779 236.268 123.012C236.684 122.227 236.892 121.102 236.892 119.637C236.892 118.184 236.681 117.067 236.259 116.288C235.854 115.538 235.283 115.163 234.545 115.163C233.812 115.163 233.241 115.541 232.831 116.297C232.409 117.076 232.198 118.189 232.198 119.637C232.198 121.096 232.409 122.221 232.831 123.012C233.235 123.779 233.807 124.163 234.545 124.163ZM246.691 126V116.306H250.005L252.545 122.511H252.703L255.252 116.306H258.521V126H256.113V119.575H255.946L253.494 125.455H251.71L249.258 119.575H249.1V126H246.691ZM264.375 121.342C264.287 122.9 264.012 124.055 263.549 124.805C263.016 125.678 262.187 126.114 261.062 126.114C260.745 126.114 260.473 126.076 260.244 126V123.75C260.408 123.791 260.593 123.812 260.798 123.812C261.231 123.812 261.554 123.56 261.765 123.056C261.94 122.646 262.052 122.016 262.099 121.166L262.38 116.306H269.675V126H267.117V118.318H264.577L264.375 121.342Z" fill="white"/>
<path d="M223.194 153.785H216.989V151.438C217.979 149.569 219.652 146.862 222.008 143.317H225.726V151.579H227.387V153.785H225.726V156H223.194V153.785ZM219.371 151.658H223.256V145.383H223.115C221.762 147.404 220.514 149.449 219.371 151.518V151.658ZM234.541 156.325C232.971 156.325 231.74 155.736 230.85 154.559C229.953 153.375 229.505 151.734 229.505 149.637C229.505 147.545 229.953 145.913 230.85 144.741C231.74 143.575 232.971 142.992 234.541 142.992C236.105 142.992 237.333 143.575 238.224 144.741C239.126 145.919 239.577 147.554 239.577 149.646C239.577 151.737 239.129 153.375 238.232 154.559C237.342 155.736 236.111 156.325 234.541 156.325ZM234.541 154.163C235.279 154.163 235.854 153.779 236.264 153.012C236.68 152.227 236.888 151.102 236.888 149.637C236.888 148.184 236.677 147.067 236.255 146.288C235.851 145.538 235.279 145.163 234.541 145.163C233.809 145.163 233.237 145.541 232.827 146.297C232.405 147.076 232.194 148.189 232.194 149.637C232.194 151.096 232.405 152.221 232.827 153.012C233.231 153.779 233.803 154.163 234.541 154.163ZM246.688 156V146.306H250.001L252.541 152.511H252.699L255.248 146.306H258.518V156H256.109V149.575H255.942L253.49 155.455H251.706L249.254 149.575H249.096V156H246.688ZM264.371 151.342C264.283 152.9 264.008 154.055 263.545 154.805C263.012 155.678 262.183 156.114 261.058 156.114C260.741 156.114 260.469 156.076 260.24 156V153.75C260.404 153.791 260.589 153.812 260.794 153.812C261.228 153.812 261.55 153.56 261.761 153.056C261.937 152.646 262.048 152.016 262.095 151.166L262.376 146.306H269.671V156H267.113V148.318H264.573L264.371 151.342Z" fill="white"/>
<path d="M235.125 87.1143C235.125 85.8896 235.553 84.8965 236.408 84.1348C237.264 83.373 238.377 82.9922 239.748 82.9922C241.072 82.9922 242.15 83.335 242.982 84.0205C243.82 84.7119 244.239 85.6025 244.239 86.6924C244.239 87.3838 244.022 88.0693 243.589 88.749C243.155 89.4346 242.391 90.293 241.295 91.3242L238.869 93.6357V93.7939H244.424V96H235.274V94.1455L239.414 90.0938C240.305 89.2266 240.899 88.5732 241.198 88.1338C241.497 87.7061 241.646 87.2842 241.646 86.8682C241.646 86.3584 241.462 85.9395 241.093 85.6113C240.718 85.2891 240.24 85.1279 239.66 85.1279C239.045 85.1279 238.547 85.3125 238.166 85.6816C237.779 86.0449 237.586 86.5195 237.586 87.1055V87.1582H235.125V87.1143ZM251.736 96.3252C250.166 96.3252 248.936 95.7363 248.045 94.5586C247.148 93.375 246.7 91.7344 246.7 89.6367C246.7 87.5449 247.148 85.9131 248.045 84.7412C248.936 83.5752 250.166 82.9922 251.736 82.9922C253.301 82.9922 254.528 83.5752 255.419 84.7412C256.321 85.9189 256.772 87.5537 256.772 89.6455C256.772 91.7373 256.324 93.375 255.428 94.5586C254.537 95.7363 253.307 96.3252 251.736 96.3252ZM251.736 94.1631C252.475 94.1631 253.049 93.7793 253.459 93.0117C253.875 92.2266 254.083 91.1016 254.083 89.6367C254.083 88.1836 253.872 87.0674 253.45 86.2881C253.046 85.5381 252.475 85.1631 251.736 85.1631C251.004 85.1631 250.433 85.541 250.022 86.2969C249.601 87.0762 249.39 88.1895 249.39 89.6367C249.39 91.0957 249.601 92.2207 250.022 93.0117C250.427 93.7793 250.998 94.1631 251.736 94.1631ZM266.44 88.3184V96H263.883V86.3057H270.589V88.3184H266.44Z" fill="white"/>
<defs>
<filter id="filter0_b" x="-20" y="-20" width="345" height="345" filterUnits="userSpaceOnUse" color-interpolation-filters="sRGB">
<feFlood flood-opacity="0" result="BackgroundImageFix"/>
<feGaussianBlur in="BackgroundImage" stdDeviation="10"/>
<feComposite in2="SourceAlpha" operator="in" result="effect1_backgroundBlur"/>
<feBlend mode="normal" in="SourceGraphic" in2="effect1_backgroundBlur" result="shape"/>
</filter>
</defs>
</svg>
