<svg width="305" height="305" viewBox="0 0 305 305" fill="none" xmlns="http://www.w3.org/2000/svg">
<g filter="url(#filter0_b)">
<rect width="305" height="305" rx="5" fill="white" fill-opacity="0.2"/>
</g>
<line y1="235.5" x2="305" y2="235.5" stroke="white" stroke-opacity="0.5"/>
<path d="M31.4531 280.398C29.8516 280.398 28.5273 279.945 27.4805 279.039C26.4336 278.141 25.8633 276.961 25.7695 275.5H27.8438C27.9375 276.414 28.3164 277.148 28.9805 277.703C29.6523 278.266 30.4844 278.547 31.4766 278.547C32.6094 278.547 33.5195 278.191 34.207 277.48C34.9023 276.77 35.25 275.836 35.25 274.68C35.25 273.523 34.9023 272.582 34.207 271.855C33.5195 271.137 32.6211 270.777 31.5117 270.777C29.9102 270.777 28.7461 271.41 28.0195 272.676H26.0391L26.9648 263.09H36.3984V264.977H28.6172L28.1367 270.402H28.3242C29.1445 269.441 30.3359 268.961 31.8984 268.961C33.5078 268.961 34.8203 269.488 35.8359 270.543C36.8516 271.598 37.3594 272.957 37.3594 274.621C37.3594 276.34 36.8125 277.73 35.7188 278.793C34.625 279.863 33.2031 280.398 31.4531 280.398ZM46.418 280.398C44.5117 280.398 43.0352 279.625 41.9883 278.078C40.9414 276.531 40.418 274.352 40.418 271.539C40.418 268.75 40.9453 266.578 42 265.023C43.0547 263.469 44.5273 262.691 46.418 262.691C48.3008 262.691 49.7656 263.473 50.8125 265.035C51.8672 266.598 52.3945 268.777 52.3945 271.574C52.3945 274.379 51.875 276.551 50.8359 278.09C49.7891 279.629 48.3164 280.398 46.418 280.398ZM46.418 278.559C47.668 278.559 48.6211 277.957 49.2773 276.754C49.9414 275.543 50.2734 273.805 50.2734 271.539C50.2734 269.297 49.9414 267.57 49.2773 266.359C48.6055 265.148 47.6523 264.543 46.418 264.543C45.1836 264.543 44.2266 265.152 43.5469 266.371C42.875 267.582 42.5391 269.305 42.5391 271.539C42.5391 273.797 42.875 275.531 43.5469 276.742C44.2109 277.953 45.168 278.559 46.418 278.559ZM61.5352 280.398C59.6289 280.398 58.1523 279.625 57.1055 278.078C56.0586 276.531 55.5352 274.352 55.5352 271.539C55.5352 268.75 56.0625 266.578 57.1172 265.023C58.1719 263.469 59.6445 262.691 61.5352 262.691C63.418 262.691 64.8828 263.473 65.9297 265.035C66.9844 266.598 67.5117 268.777 67.5117 271.574C67.5117 274.379 66.9922 276.551 65.9531 278.09C64.9062 279.629 63.4336 280.398 61.5352 280.398ZM61.5352 278.559C62.7852 278.559 63.7383 277.957 64.3945 276.754C65.0586 275.543 65.3906 273.805 65.3906 271.539C65.3906 269.297 65.0586 267.57 64.3945 266.359C63.7227 265.148 62.7695 264.543 61.5352 264.543C60.3008 264.543 59.3438 265.152 58.6641 266.371C57.9922 267.582 57.6562 269.305 57.6562 271.539C57.6562 273.797 57.9922 275.531 58.6641 276.742C59.3281 277.953 60.2852 278.559 61.5352 278.559ZM77.2383 267.145C78.8477 267.145 80.1367 267.738 81.1055 268.926C82.0664 270.113 82.5469 271.699 82.5469 273.684C82.5469 275.66 82.0625 277.242 81.0938 278.43C80.125 279.625 78.8398 280.223 77.2383 280.223C75.3398 280.223 74.0234 279.516 73.2891 278.102H73.1016V284.219H71.0859V267.367H73.0078V269.477H73.1953C73.6016 268.75 74.1602 268.18 74.8711 267.766C75.5898 267.352 76.3789 267.145 77.2383 267.145ZM76.7578 278.406C77.9141 278.406 78.8203 277.988 79.4766 277.152C80.1328 276.316 80.4609 275.16 80.4609 273.684C80.4609 272.207 80.1328 271.051 79.4766 270.215C78.8281 269.379 77.9258 268.961 76.7695 268.961C75.6289 268.961 74.7227 269.383 74.0508 270.227C73.3789 271.078 73.043 272.23 73.043 273.684C73.043 275.129 73.3789 276.277 74.0508 277.129C74.7148 277.98 75.6172 278.406 76.7578 278.406Z" fill="white"/>
<path d="M82.334 45.498C79.4629 45.498 77.1924 44.5068 75.5225 42.5244C73.8428 40.542 73.0029 37.8467 73.0029 34.4385C73.0029 31.0303 73.8379 28.3301 75.5078 26.3379C77.1777 24.3555 79.4482 23.3643 82.3193 23.3643C84.5459 23.3643 86.4502 23.999 88.0322 25.2686C89.6143 26.5381 90.5615 28.1934 90.874 30.2344H88.1934C87.8418 28.8672 87.1387 27.7881 86.084 26.9971C85.0293 26.1963 83.7744 25.7959 82.3193 25.7959C80.2881 25.7959 78.6816 26.5723 77.5 28.125C76.3086 29.6777 75.7129 31.7822 75.7129 34.4385C75.7129 37.0947 76.3086 39.1943 77.5 40.7373C78.6914 42.29 80.3027 43.0664 82.334 43.0664C83.8086 43.0664 85.0684 42.7148 86.1133 42.0117C87.168 41.2988 87.8613 40.332 88.1934 39.1113H90.874C90.5225 41.0547 89.5752 42.6025 88.0322 43.7549C86.4795 44.917 84.5801 45.498 82.334 45.498ZM106.914 38.9502H98.5059L96.3818 45H93.6133L101.406 23.8623H104.014L111.807 45H109.038L106.914 38.9502ZM99.2822 36.709H106.138L102.827 27.2754H102.593L99.2822 36.709ZM130.044 45V35.376H118.442V45H115.806V23.8623H118.442V33.0029H130.044V23.8623H132.681V45H130.044ZM146.348 23.8623C148.35 23.8623 149.976 24.4971 151.226 25.7666C152.485 27.0459 153.115 28.6914 153.115 30.7031C153.115 32.6758 152.48 34.2969 151.211 35.5664C149.932 36.8262 148.301 37.4561 146.318 37.4561H141.001V45H138.364V23.8623H146.348ZM141.001 35.1123H145.659C147.163 35.1123 148.33 34.7266 149.16 33.9551C149.99 33.1836 150.405 32.0996 150.405 30.7031C150.405 29.248 149.995 28.1348 149.175 27.3633C148.364 26.5918 147.192 26.2061 145.659 26.2061H141.001V35.1123ZM167.148 38.9502H158.74L156.616 45H153.848L161.641 23.8623H164.248L172.041 45H169.272L167.148 38.9502ZM159.517 36.709H166.372L163.062 27.2754H162.827L159.517 36.709ZM190.308 28.1836H190.073L178.647 45H176.04V23.8623H178.647V40.7373H178.882L190.308 23.8623H192.915V45H190.308V28.1836ZM181.665 17.5488C181.665 18.3398 181.924 18.9795 182.441 19.4678C182.949 19.9463 183.599 20.1855 184.39 20.1855C185.19 20.1855 185.85 19.9463 186.367 19.4678C186.885 18.9795 187.144 18.3398 187.144 17.5488H189.429C189.429 18.8965 188.965 19.9658 188.037 20.7568C187.129 21.5283 185.913 21.9141 184.39 21.9141C182.866 21.9141 181.655 21.5283 180.757 20.7568C179.839 19.9658 179.38 18.8965 179.38 17.5488H181.665ZM201.851 33.0322H204.707C205.947 33.0322 206.968 32.6807 207.769 31.9775C208.56 31.2646 208.955 30.3564 208.955 29.2529C208.955 28.1787 208.589 27.3242 207.856 26.6895C207.104 26.0352 206.069 25.708 204.751 25.708C203.442 25.708 202.388 26.0254 201.587 26.6602C200.776 27.2852 200.317 28.1592 200.21 29.2822H197.646C197.783 27.4463 198.491 26.001 199.771 24.9463C201.06 23.8916 202.754 23.3643 204.854 23.3643C206.836 23.3643 208.462 23.8965 209.731 24.9609C211.001 26.0156 211.636 27.3682 211.636 29.0186C211.636 30.1709 211.289 31.1963 210.596 32.0947C209.893 33.0029 208.979 33.5938 207.856 33.8672V34.1016C209.243 34.248 210.361 34.7705 211.211 35.6689C212.1 36.6162 212.544 37.8271 212.544 39.3018C212.544 41.04 211.812 42.5098 210.347 43.7109C208.882 44.9023 207.085 45.498 204.956 45.498C202.72 45.498 200.898 44.9463 199.492 43.8428C198.076 42.749 197.319 41.2988 197.222 39.4922H199.771C199.888 40.6055 200.41 41.4941 201.338 42.1582C202.275 42.8223 203.472 43.1543 204.927 43.1543C206.401 43.1543 207.593 42.7832 208.501 42.041C209.39 41.3184 209.834 40.3809 209.834 39.2285C209.834 38.0273 209.399 37.0898 208.53 36.416C207.642 35.7227 206.406 35.376 204.824 35.376H201.851V33.0322Z" fill="white"/>
<path d="M34.4209 96.1387C35.2705 96.1387 35.9795 95.8838 36.5479 95.374C37.1221 94.8584 37.4092 94.2256 37.4092 93.4756V92.3682L34.6055 92.5703C33.0176 92.6816 32.2236 93.2793 32.2236 94.3633C32.2236 94.9023 32.4316 95.333 32.8477 95.6553C33.252 95.9775 33.7764 96.1387 34.4209 96.1387ZM34.2275 97.1582C33.29 97.1582 32.5254 96.9062 31.9336 96.4023C31.3359 95.8926 31.0371 95.2188 31.0371 94.3809C31.0371 93.5605 31.333 92.9131 31.9248 92.4385C32.5049 91.9697 33.3457 91.6973 34.4473 91.6211L37.4092 91.4277V90.5137C37.4092 89.834 37.21 89.3125 36.8115 88.9492C36.4072 88.5859 35.8213 88.4043 35.0537 88.4043C34.4033 88.4043 33.8584 88.5332 33.4189 88.791C32.9736 89.0547 32.6953 89.415 32.584 89.8721H31.415C31.5264 89.1221 31.9189 88.5186 32.5928 88.0615C33.2607 87.6045 34.0928 87.376 35.0889 87.376C36.1963 87.376 37.0547 87.6514 37.6641 88.2021C38.2676 88.7471 38.5693 89.5146 38.5693 90.5049V97H37.4619V95.374H37.3564C37.0693 95.9365 36.6504 96.373 36.0996 96.6836C35.5488 97 34.9248 97.1582 34.2275 97.1582ZM48.1846 88.5098H42.9551V97H41.8037V87.5342H49.3359V97H48.1846V88.5098ZM56.2266 88.3955C55.3652 88.3955 54.6592 88.6885 54.1084 89.2744C53.5576 89.8662 53.2559 90.6484 53.2031 91.6211H59.1006C59.0889 90.6426 58.8223 89.8604 58.3008 89.2744C57.7734 88.6885 57.082 88.3955 56.2266 88.3955ZM60.1553 94.6621C59.9209 95.4355 59.458 96.0449 58.7666 96.4902C58.0752 96.9355 57.2344 97.1582 56.2441 97.1582C54.9434 97.1582 53.9121 96.7158 53.1504 95.8311C52.3887 94.9521 52.0078 93.7656 52.0078 92.2715C52.0078 90.7832 52.3916 89.5967 53.1592 88.7119C53.9209 87.8213 54.9463 87.376 56.2354 87.376C57.4951 87.376 58.4883 87.7949 59.2148 88.6328C59.9414 89.4707 60.3047 90.6133 60.3047 92.0605V92.5703H53.1943V92.623C53.2236 93.6953 53.5166 94.5479 54.0732 95.1807C54.624 95.8135 55.3564 96.1299 56.2705 96.1299C57.6592 96.1299 58.5645 95.6406 58.9863 94.6621H60.1553ZM64.8926 92.9307C64.7871 94.29 64.5703 95.2861 64.2422 95.9189C63.8379 96.6924 63.2139 97.0791 62.3701 97.0791C62.1768 97.0791 62.001 97.0498 61.8428 96.9912V95.9277C61.9834 95.9746 62.1416 95.998 62.3174 95.998C62.7861 95.998 63.1377 95.7109 63.3721 95.1367C63.5771 94.6504 63.7178 93.9004 63.7939 92.8867C63.9287 91.4805 64.0518 89.6963 64.1631 87.5342H70.2188V97H69.0674V88.5098H65.209C65.1152 90.3145 65.0098 91.7881 64.8926 92.9307ZM74.5078 91.7354V96.0244H76.5645C77.2559 96.0244 77.8096 95.8281 78.2256 95.4355C78.6357 95.0488 78.8408 94.5303 78.8408 93.8799C78.8408 93.2236 78.6328 92.7021 78.2168 92.3154C77.8066 91.9287 77.2559 91.7354 76.5645 91.7354H74.5078ZM73.3564 87.5342H74.5078V90.751H76.5645C77.6133 90.751 78.4453 91.0322 79.0605 91.5947C79.6816 92.1631 79.9922 92.9248 79.9922 93.8799C79.9922 94.835 79.6816 95.5938 79.0605 96.1562C78.4453 96.7188 77.6133 97 76.5645 97H73.3564V87.5342ZM89.0273 90.3203C88.875 89.7578 88.5674 89.3037 88.1045 88.958C87.6123 88.5947 87.0146 88.4131 86.3115 88.4131C85.3682 88.4131 84.6211 88.7588 84.0703 89.4502C83.5137 90.1416 83.2354 91.0703 83.2354 92.2363C83.2354 93.4199 83.5137 94.3604 84.0703 95.0576C84.627 95.7607 85.374 96.1123 86.3115 96.1123C87.0146 96.1123 87.6035 95.9512 88.0781 95.6289C88.5586 95.3066 88.8721 94.8555 89.0186 94.2754H90.1875C90.041 95.1426 89.6309 95.834 88.957 96.3496C88.2598 96.8887 87.3809 97.1582 86.3203 97.1582C85.0137 97.1582 83.9766 96.7129 83.209 95.8223C82.4355 94.9375 82.0488 93.7422 82.0488 92.2363C82.0488 90.7539 82.4326 89.5732 83.2002 88.6943C83.9736 87.8154 85.0107 87.376 86.3115 87.376C87.3662 87.376 88.251 87.6602 88.9658 88.2285C89.6396 88.7676 90.0498 89.4648 90.1963 90.3203H89.0273ZM92.7627 97V87.5342H93.9141V95.1631H94.0283L99.3457 87.5342H100.497V97H99.3457V89.3711H99.2402L93.9141 97H92.7627ZM103.626 87.5342H104.777V91.5947H110.095V87.5342H111.246V97H110.095V92.5703H104.777V97H103.626V87.5342Z" fill="white"/>
<path d="M35.4141 127.167C34.0371 127.167 32.9795 126.713 32.2412 125.805C31.4736 124.855 31.0898 123.446 31.0898 121.577C31.0898 119.151 31.4092 117.385 32.0479 116.277C32.792 114.982 34.084 114.309 35.9238 114.256C36.1113 114.256 36.5039 114.238 37.1016 114.203C37.9512 114.15 38.6426 114.007 39.1758 113.772V114.801C38.5547 115.076 37.8838 115.231 37.1631 115.267C36.8174 115.308 36.416 115.328 35.959 115.328C34.6348 115.363 33.6768 115.756 33.085 116.506C32.5693 117.156 32.2354 118.22 32.083 119.696H32.1885C32.8389 118.337 33.9668 117.657 35.5723 117.657C36.832 117.657 37.8398 118.073 38.5957 118.905C39.3633 119.755 39.7471 120.897 39.7471 122.333C39.7471 123.827 39.3574 125.008 38.5781 125.875C37.7988 126.736 36.7441 127.167 35.4141 127.167ZM35.4141 126.13C36.3926 126.13 37.1631 125.793 37.7256 125.119C38.2822 124.445 38.5605 123.517 38.5605 122.333C38.5605 121.196 38.2822 120.306 37.7256 119.661C37.1631 119.017 36.3926 118.694 35.4141 118.694C34.4355 118.694 33.668 119.017 33.1113 119.661C32.5547 120.306 32.2764 121.196 32.2764 122.333C32.2764 123.517 32.5547 124.445 33.1113 125.119C33.668 125.793 34.4355 126.13 35.4141 126.13ZM46.1719 118.396C45.3105 118.396 44.6045 118.688 44.0537 119.274C43.5029 119.866 43.2012 120.648 43.1484 121.621H49.0459C49.0342 120.643 48.7676 119.86 48.2461 119.274C47.7188 118.688 47.0273 118.396 46.1719 118.396ZM50.1006 124.662C49.8662 125.436 49.4033 126.045 48.7119 126.49C48.0205 126.936 47.1797 127.158 46.1895 127.158C44.8887 127.158 43.8574 126.716 43.0957 125.831C42.334 124.952 41.9531 123.766 41.9531 122.271C41.9531 120.783 42.3369 119.597 43.1045 118.712C43.8662 117.821 44.8916 117.376 46.1807 117.376C47.4404 117.376 48.4336 117.795 49.1602 118.633C49.8867 119.471 50.25 120.613 50.25 122.061V122.57H43.1396V122.623C43.1689 123.695 43.4619 124.548 44.0186 125.181C44.5693 125.813 45.3018 126.13 46.2158 126.13C47.6045 126.13 48.5098 125.641 48.9316 124.662H50.1006ZM54.8379 122.931C54.7324 124.29 54.5156 125.286 54.1875 125.919C53.7832 126.692 53.1592 127.079 52.3154 127.079C52.1221 127.079 51.9463 127.05 51.7881 126.991V125.928C51.9287 125.975 52.0869 125.998 52.2627 125.998C52.7314 125.998 53.083 125.711 53.3174 125.137C53.5225 124.65 53.6631 123.9 53.7393 122.887C53.874 121.48 53.9971 119.696 54.1084 117.534H60.1641V127H59.0127V118.51H55.1543C55.0605 120.314 54.9551 121.788 54.8379 122.931ZM71.3789 117.534H72.5303V127H71.3789V117.534ZM64.5146 121.735V126.024H66.5713C67.2627 126.024 67.8164 125.828 68.2324 125.436C68.6426 125.049 68.8477 124.53 68.8477 123.88C68.8477 123.224 68.6396 122.702 68.2236 122.315C67.8135 121.929 67.2627 121.735 66.5713 121.735H64.5146ZM63.3633 117.534H64.5146V120.751H66.5713C67.6201 120.751 68.4521 121.032 69.0674 121.595C69.6885 122.163 69.999 122.925 69.999 123.88C69.999 124.835 69.6885 125.594 69.0674 126.156C68.4521 126.719 67.6201 127 66.5713 127H63.3633V117.534ZM77.6807 113.482C77.6807 113.998 77.833 114.426 78.1377 114.766C78.46 115.117 78.8789 115.293 79.3945 115.293C79.916 115.293 80.3379 115.117 80.6602 114.766C80.9648 114.426 81.1172 113.998 81.1172 113.482H82.1719C82.1719 114.256 81.9199 114.883 81.416 115.363C80.9004 115.855 80.2266 116.102 79.3945 116.102C78.5625 116.102 77.8916 115.855 77.3818 115.363C76.8779 114.883 76.626 114.256 76.626 113.482H77.6807ZM75.6592 127V117.534H76.8105V125.163H76.9248L82.2422 117.534H83.3936V127H82.2422V119.371H82.1367L76.8105 127H75.6592ZM95.8389 117.376C97.04 117.376 98.0039 117.821 98.7305 118.712C99.457 119.608 99.8203 120.792 99.8203 122.263C99.8203 123.733 99.457 124.917 98.7305 125.813C97.998 126.71 97.0342 127.158 95.8389 127.158C95.1064 127.158 94.4561 126.985 93.8877 126.64C93.3252 126.288 92.9121 125.808 92.6484 125.198H92.543V130.085H91.3916V117.534H92.4902V119.468H92.5957C92.8887 118.817 93.3223 118.308 93.8965 117.938C94.4707 117.563 95.1182 117.376 95.8389 117.376ZM95.584 126.112C96.5215 126.112 97.2627 125.767 97.8076 125.075C98.3584 124.384 98.6338 123.449 98.6338 122.271C98.6338 121.088 98.3613 120.15 97.8164 119.459C97.2656 118.762 96.5244 118.413 95.5928 118.413C94.667 118.413 93.9199 118.765 93.3516 119.468C92.7891 120.171 92.5078 121.103 92.5078 122.263C92.5078 123.423 92.7891 124.354 93.3516 125.058C93.9141 125.761 94.6582 126.112 95.584 126.112ZM106.315 126.112C107.288 126.112 108.05 125.77 108.601 125.084C109.151 124.404 109.427 123.464 109.427 122.263C109.427 121.062 109.151 120.121 108.601 119.441C108.05 118.756 107.288 118.413 106.315 118.413C105.343 118.413 104.581 118.756 104.03 119.441C103.479 120.121 103.204 121.062 103.204 122.263C103.204 123.464 103.479 124.404 104.03 125.084C104.581 125.77 105.343 126.112 106.315 126.112ZM106.315 127.158C104.991 127.158 103.945 126.719 103.178 125.84C102.404 124.967 102.018 123.774 102.018 122.263C102.018 120.751 102.404 119.559 103.178 118.686C103.945 117.812 104.991 117.376 106.315 117.376C107.64 117.376 108.688 117.812 109.462 118.686C110.235 119.559 110.622 120.751 110.622 122.263C110.622 123.774 110.235 124.967 109.462 125.84C108.688 126.719 107.64 127.158 106.315 127.158ZM113.276 127V117.534H114.665L118.383 125.4H118.488L122.188 117.534H123.524V127H122.373V119.644H122.241L118.866 126.815H117.961L114.551 119.644H114.428V127H113.276Z" fill="white"/>
<path d="M38.0684 150.32C37.916 149.758 37.6084 149.304 37.1455 148.958C36.6533 148.595 36.0557 148.413 35.3525 148.413C34.4092 148.413 33.6621 148.759 33.1113 149.45C32.5547 150.142 32.2764 151.07 32.2764 152.236C32.2764 153.42 32.5547 154.36 33.1113 155.058C33.668 155.761 34.415 156.112 35.3525 156.112C36.0557 156.112 36.6445 155.951 37.1191 155.629C37.5996 155.307 37.9131 154.855 38.0596 154.275H39.2285C39.082 155.143 38.6719 155.834 37.998 156.35C37.3008 156.889 36.4219 157.158 35.3613 157.158C34.0547 157.158 33.0176 156.713 32.25 155.822C31.4766 154.938 31.0898 153.742 31.0898 152.236C31.0898 150.754 31.4736 149.573 32.2412 148.694C33.0146 147.815 34.0518 147.376 35.3525 147.376C36.4072 147.376 37.292 147.66 38.0068 148.229C38.6807 148.768 39.0908 149.465 39.2373 150.32H38.0684ZM41.8037 157V147.534H42.9551V155.163H43.0693L48.3867 147.534H49.5381V157H48.3867V149.371H48.2812L42.9551 157H41.8037ZM57.1143 147.376C58.3154 147.376 59.2793 147.821 60.0059 148.712C60.7324 149.608 61.0957 150.792 61.0957 152.263C61.0957 153.733 60.7324 154.917 60.0059 155.813C59.2734 156.71 58.3096 157.158 57.1143 157.158C56.3818 157.158 55.7314 156.985 55.1631 156.64C54.6006 156.288 54.1875 155.808 53.9238 155.198H53.8184V160.085H52.667V147.534H53.7656V149.468H53.8711C54.1641 148.817 54.5977 148.308 55.1719 147.938C55.7461 147.563 56.3936 147.376 57.1143 147.376ZM56.8594 156.112C57.7969 156.112 58.5381 155.767 59.083 155.075C59.6338 154.384 59.9092 153.449 59.9092 152.271C59.9092 151.088 59.6367 150.15 59.0918 149.459C58.541 148.762 57.7998 148.413 56.8682 148.413C55.9424 148.413 55.1953 148.765 54.627 149.468C54.0645 150.171 53.7832 151.103 53.7832 152.263C53.7832 153.423 54.0645 154.354 54.627 155.058C55.1895 155.761 55.9336 156.112 56.8594 156.112ZM67.5908 156.112C68.5635 156.112 69.3252 155.77 69.876 155.084C70.4268 154.404 70.7021 153.464 70.7021 152.263C70.7021 151.062 70.4268 150.121 69.876 149.441C69.3252 148.756 68.5635 148.413 67.5908 148.413C66.6182 148.413 65.8564 148.756 65.3057 149.441C64.7549 150.121 64.4795 151.062 64.4795 152.263C64.4795 153.464 64.7549 154.404 65.3057 155.084C65.8564 155.77 66.6182 156.112 67.5908 156.112ZM67.5908 157.158C66.2666 157.158 65.2207 156.719 64.4531 155.84C63.6797 154.967 63.293 153.774 63.293 152.263C63.293 150.751 63.6797 149.559 64.4531 148.686C65.2207 147.812 66.2666 147.376 67.5908 147.376C68.915 147.376 69.9639 147.812 70.7373 148.686C71.5107 149.559 71.8975 150.751 71.8975 152.263C71.8975 153.774 71.5107 154.967 70.7373 155.84C69.9639 156.719 68.915 157.158 67.5908 157.158ZM80.9326 148.51H75.7031V157H74.5518V147.534H82.084V157H80.9326V148.51ZM92.9561 156.139C93.8057 156.139 94.5146 155.884 95.083 155.374C95.6572 154.858 95.9443 154.226 95.9443 153.476V152.368L93.1406 152.57C91.5527 152.682 90.7588 153.279 90.7588 154.363C90.7588 154.902 90.9668 155.333 91.3828 155.655C91.7871 155.978 92.3115 156.139 92.9561 156.139ZM92.7627 157.158C91.8252 157.158 91.0605 156.906 90.4688 156.402C89.8711 155.893 89.5723 155.219 89.5723 154.381C89.5723 153.561 89.8682 152.913 90.46 152.438C91.04 151.97 91.8809 151.697 92.9824 151.621L95.9443 151.428V150.514C95.9443 149.834 95.7451 149.312 95.3467 148.949C94.9424 148.586 94.3564 148.404 93.5889 148.404C92.9385 148.404 92.3936 148.533 91.9541 148.791C91.5088 149.055 91.2305 149.415 91.1191 149.872H89.9502C90.0615 149.122 90.4541 148.519 91.1279 148.062C91.7959 147.604 92.6279 147.376 93.624 147.376C94.7314 147.376 95.5898 147.651 96.1992 148.202C96.8027 148.747 97.1045 149.515 97.1045 150.505V157H95.9971V155.374H95.8916C95.6045 155.937 95.1855 156.373 94.6348 156.684C94.084 157 93.46 157.158 92.7627 157.158ZM100.339 147.534H101.49V151.595H106.808V147.534H107.959V157H106.808V152.57H101.49V157H100.339V147.534ZM113.962 156.139C114.812 156.139 115.521 155.884 116.089 155.374C116.663 154.858 116.95 154.226 116.95 153.476V152.368L114.146 152.57C112.559 152.682 111.765 153.279 111.765 154.363C111.765 154.902 111.973 155.333 112.389 155.655C112.793 155.978 113.317 156.139 113.962 156.139ZM113.769 157.158C112.831 157.158 112.066 156.906 111.475 156.402C110.877 155.893 110.578 155.219 110.578 154.381C110.578 153.561 110.874 152.913 111.466 152.438C112.046 151.97 112.887 151.697 113.988 151.621L116.95 151.428V150.514C116.95 149.834 116.751 149.312 116.353 148.949C115.948 148.586 115.362 148.404 114.595 148.404C113.944 148.404 113.399 148.533 112.96 148.791C112.515 149.055 112.236 149.415 112.125 149.872H110.956C111.067 149.122 111.46 148.519 112.134 148.062C112.802 147.604 113.634 147.376 114.63 147.376C115.737 147.376 116.596 147.651 117.205 148.202C117.809 148.747 118.11 149.515 118.11 150.505V157H117.003V155.374H116.897C116.61 155.937 116.191 156.373 115.641 156.684C115.09 157 114.466 157.158 113.769 157.158ZM121.345 147.534H122.496V151.595H127.813V147.534H128.965V157H127.813V152.57H122.496V157H121.345V147.534ZM134.968 156.139C135.817 156.139 136.526 155.884 137.095 155.374C137.669 154.858 137.956 154.226 137.956 153.476V152.368L135.152 152.57C133.564 152.682 132.771 153.279 132.771 154.363C132.771 154.902 132.979 155.333 133.395 155.655C133.799 155.978 134.323 156.139 134.968 156.139ZM134.774 157.158C133.837 157.158 133.072 156.906 132.48 156.402C131.883 155.893 131.584 155.219 131.584 154.381C131.584 153.561 131.88 152.913 132.472 152.438C133.052 151.97 133.893 151.697 134.994 151.621L137.956 151.428V150.514C137.956 149.834 137.757 149.312 137.358 148.949C136.954 148.586 136.368 148.404 135.601 148.404C134.95 148.404 134.405 148.533 133.966 148.791C133.521 149.055 133.242 149.415 133.131 149.872H131.962C132.073 149.122 132.466 148.519 133.14 148.062C133.808 147.604 134.64 147.376 135.636 147.376C136.743 147.376 137.602 147.651 138.211 148.202C138.814 148.747 139.116 149.515 139.116 150.505V157H138.009V155.374H137.903C137.616 155.937 137.197 156.373 136.646 156.684C136.096 157 135.472 157.158 134.774 157.158ZM148.863 150.32C148.711 149.758 148.403 149.304 147.94 148.958C147.448 148.595 146.851 148.413 146.147 148.413C145.204 148.413 144.457 148.759 143.906 149.45C143.35 150.142 143.071 151.07 143.071 152.236C143.071 153.42 143.35 154.36 143.906 155.058C144.463 155.761 145.21 156.112 146.147 156.112C146.851 156.112 147.439 155.951 147.914 155.629C148.395 155.307 148.708 154.855 148.854 154.275H150.023C149.877 155.143 149.467 155.834 148.793 156.35C148.096 156.889 147.217 157.158 146.156 157.158C144.85 157.158 143.812 156.713 143.045 155.822C142.271 154.938 141.885 153.742 141.885 152.236C141.885 150.754 142.269 149.573 143.036 148.694C143.81 147.815 144.847 147.376 146.147 147.376C147.202 147.376 148.087 147.66 148.802 148.229C149.476 148.768 149.886 149.465 150.032 150.32H148.863ZM155.411 156.139C156.261 156.139 156.97 155.884 157.538 155.374C158.112 154.858 158.399 154.226 158.399 153.476V152.368L155.596 152.57C154.008 152.682 153.214 153.279 153.214 154.363C153.214 154.902 153.422 155.333 153.838 155.655C154.242 155.978 154.767 156.139 155.411 156.139ZM155.218 157.158C154.28 157.158 153.516 156.906 152.924 156.402C152.326 155.893 152.027 155.219 152.027 154.381C152.027 153.561 152.323 152.913 152.915 152.438C153.495 151.97 154.336 151.697 155.438 151.621L158.399 151.428V150.514C158.399 149.834 158.2 149.312 157.802 148.949C157.397 148.586 156.812 148.404 156.044 148.404C155.394 148.404 154.849 148.533 154.409 148.791C153.964 149.055 153.686 149.415 153.574 149.872H152.405C152.517 149.122 152.909 148.519 153.583 148.062C154.251 147.604 155.083 147.376 156.079 147.376C157.187 147.376 158.045 147.651 158.654 148.202C159.258 148.747 159.56 149.515 159.56 150.505V157H158.452V155.374H158.347C158.06 155.937 157.641 156.373 157.09 156.684C156.539 157 155.915 157.158 155.218 157.158Z" fill="white"/>
<path d="M244.064 96.3252C242.699 96.3252 241.577 95.9531 240.698 95.209C239.837 94.4824 239.386 93.5449 239.345 92.3965H241.797C241.873 92.9238 242.122 93.3486 242.544 93.6709C242.966 93.9932 243.479 94.1543 244.082 94.1543C244.768 94.1543 245.321 93.9434 245.743 93.5215C246.171 93.0996 246.385 92.5459 246.385 91.8604C246.385 91.1631 246.171 90.6006 245.743 90.1729C245.315 89.7451 244.765 89.5312 244.091 89.5312C243.112 89.5312 242.389 89.9121 241.92 90.6738H239.547L240.18 83.3174H248.151V85.5234H242.236L241.955 88.7842H242.113C242.688 87.958 243.584 87.5449 244.803 87.5449C246.004 87.5449 246.991 87.9434 247.765 88.7402C248.532 89.5371 248.916 90.5566 248.916 91.7988C248.916 93.1465 248.471 94.2363 247.58 95.0684C246.689 95.9062 245.518 96.3252 244.064 96.3252ZM256.105 96.3252C254.535 96.3252 253.305 95.7363 252.414 94.5586C251.518 93.375 251.069 91.7344 251.069 89.6367C251.069 87.5449 251.518 85.9131 252.414 84.7412C253.305 83.5752 254.535 82.9922 256.105 82.9922C257.67 82.9922 258.897 83.5752 259.788 84.7412C260.69 85.9189 261.142 87.5537 261.142 89.6455C261.142 91.7373 260.693 93.375 259.797 94.5586C258.906 95.7363 257.676 96.3252 256.105 96.3252ZM256.105 94.1631C256.844 94.1631 257.418 93.7793 257.828 93.0117C258.244 92.2266 258.452 91.1016 258.452 89.6367C258.452 88.1836 258.241 87.0674 257.819 86.2881C257.415 85.5381 256.844 85.1631 256.105 85.1631C255.373 85.1631 254.802 85.541 254.392 86.2969C253.97 87.0762 253.759 88.1895 253.759 89.6367C253.759 91.0957 253.97 92.2207 254.392 93.0117C254.796 93.7793 255.367 94.1631 256.105 94.1631ZM270.81 88.3184V96H268.252V86.3057H274.958V88.3184H270.81Z" fill="white"/>
<path d="M226.337 126.325C224.444 126.325 223.05 125.561 222.153 124.031C221.444 122.941 221.09 121.515 221.09 119.751C221.09 117.647 221.559 115.995 222.496 114.794C223.434 113.593 224.729 112.992 226.381 112.992C227.588 112.992 228.616 113.317 229.466 113.968C230.321 114.618 230.84 115.474 231.021 116.534H228.394C228.271 116.118 228.024 115.787 227.655 115.541C227.292 115.295 226.861 115.172 226.363 115.172C225.496 115.172 224.816 115.562 224.324 116.341C223.826 117.114 223.592 118.16 223.621 119.479H223.779C224.383 118.23 225.461 117.606 227.014 117.606C228.215 117.606 229.211 118.005 230.002 118.802C230.793 119.599 231.188 120.604 231.188 121.816C231.188 123.135 230.734 124.216 229.826 125.06C228.918 125.903 227.755 126.325 226.337 126.325ZM226.311 124.146C226.961 124.146 227.509 123.929 227.954 123.495C228.394 123.067 228.613 122.534 228.613 121.896C228.613 121.251 228.396 120.715 227.963 120.287C227.529 119.865 226.981 119.654 226.319 119.654C225.657 119.654 225.106 119.865 224.667 120.287C224.233 120.709 224.017 121.236 224.017 121.869C224.017 122.514 224.236 123.056 224.676 123.495C225.115 123.929 225.66 124.146 226.311 124.146ZM238.475 126.325C236.904 126.325 235.674 125.736 234.783 124.559C233.887 123.375 233.438 121.734 233.438 119.637C233.438 117.545 233.887 115.913 234.783 114.741C235.674 113.575 236.904 112.992 238.475 112.992C240.039 112.992 241.267 113.575 242.157 114.741C243.06 115.919 243.511 117.554 243.511 119.646C243.511 121.737 243.062 123.375 242.166 124.559C241.275 125.736 240.045 126.325 238.475 126.325ZM238.475 124.163C239.213 124.163 239.787 123.779 240.197 123.012C240.613 122.227 240.821 121.102 240.821 119.637C240.821 118.184 240.61 117.067 240.188 116.288C239.784 115.538 239.213 115.163 238.475 115.163C237.742 115.163 237.171 115.541 236.761 116.297C236.339 117.076 236.128 118.189 236.128 119.637C236.128 121.096 236.339 122.221 236.761 123.012C237.165 123.779 237.736 124.163 238.475 124.163ZM250.621 126V116.306H253.935L256.475 122.511H256.633L259.182 116.306H262.451V126H260.043V119.575H259.876L257.424 125.455H255.64L253.188 119.575H253.029V126H250.621ZM268.305 121.342C268.217 122.9 267.941 124.055 267.479 124.805C266.945 125.678 266.116 126.114 264.991 126.114C264.675 126.114 264.402 126.076 264.174 126V123.75C264.338 123.791 264.522 123.812 264.728 123.812C265.161 123.812 265.483 123.56 265.694 123.056C265.87 122.646 265.981 122.016 266.028 121.166L266.31 116.306H273.604V126H271.047V118.318H268.507L268.305 121.342Z" fill="white"/>
<path d="M229.338 145.901H229.18L226.068 148.046V145.576L229.347 143.317H231.992V156H229.338V145.901ZM235.367 147.114C235.367 145.89 235.795 144.896 236.65 144.135C237.506 143.373 238.619 142.992 239.99 142.992C241.314 142.992 242.393 143.335 243.225 144.021C244.062 144.712 244.481 145.603 244.481 146.692C244.481 147.384 244.265 148.069 243.831 148.749C243.397 149.435 242.633 150.293 241.537 151.324L239.111 153.636V153.794H244.666V156H235.517V154.146L239.656 150.094C240.547 149.227 241.142 148.573 241.44 148.134C241.739 147.706 241.889 147.284 241.889 146.868C241.889 146.358 241.704 145.939 241.335 145.611C240.96 145.289 240.482 145.128 239.902 145.128C239.287 145.128 238.789 145.312 238.408 145.682C238.021 146.045 237.828 146.52 237.828 147.105V147.158H235.367V147.114ZM251.803 156V146.306H255.116L257.656 152.511H257.814L260.363 146.306H263.633V156H261.225V149.575H261.058L258.605 155.455H256.821L254.369 149.575H254.211V156H251.803ZM269.486 151.342C269.398 152.9 269.123 154.055 268.66 154.805C268.127 155.678 267.298 156.114 266.173 156.114C265.856 156.114 265.584 156.076 265.355 156V153.75C265.52 153.791 265.704 153.812 265.909 153.812C266.343 153.812 266.665 153.56 266.876 153.056C267.052 152.646 267.163 152.016 267.21 151.166L267.491 146.306H274.786V156H272.229V148.318H269.688L269.486 151.342Z" fill="white"/>
<defs>
<filter id="filter0_b" x="-20" y="-20" width="345" height="345" filterUnits="userSpaceOnUse" color-interpolation-filters="sRGB">
<feFlood flood-opacity="0" result="BackgroundImageFix"/>
<feGaussianBlur in="BackgroundImage" stdDeviation="10"/>
<feComposite in2="SourceAlpha" operator="in" result="effect1_backgroundBlur"/>
<feBlend mode="normal" in="SourceGraphic" in2="effect1_backgroundBlur" result="shape"/>
</filter>
</defs>
</svg>
