<svg width="690" height="120" viewBox="0 0 690 120" fill="none" xmlns="http://www.w3.org/2000/svg">
<g filter="url(#filter0_b)">
<rect width="690" height="120" rx="8" fill="white" fill-opacity="0.2"/>
</g>
<path d="M27.6484 41.0547H31.7734C33.3828 41.0547 34.6797 40.625 35.6641 39.7656C36.6641 38.9062 37.1641 37.7891 37.1641 36.4141C37.1641 35.0547 36.6719 33.9688 35.6875 33.1562C34.7188 32.3594 33.4062 31.9609 31.75 31.9609C30.1094 31.9609 28.7812 32.3906 27.7656 33.25C26.75 34.1094 26.1953 35.2734 26.1016 36.7422H19.5625C19.6875 33.5391 20.8594 31 23.0781 29.125C25.2969 27.25 28.25 26.3125 31.9375 26.3125C35.4062 26.3125 38.2656 27.1641 40.5156 28.8672C42.75 30.5859 43.8672 32.7734 43.8672 35.4297C43.8672 37.3828 43.2969 39.0625 42.1562 40.4688C41.0312 41.875 39.5234 42.7734 37.6328 43.1641V43.5859C39.9609 43.8516 41.7969 44.7031 43.1406 46.1406C44.5 47.5938 45.1797 49.4297 45.1797 51.6484C45.1797 54.6172 43.9297 57.0625 41.4297 58.9844C38.9297 60.9062 35.75 61.8672 31.8906 61.8672C28.125 61.8672 25.0625 60.9062 22.7031 58.9844C20.3438 57.0625 19.0859 54.5078 18.9297 51.3203H25.7031C25.8125 52.7578 26.4297 53.8906 27.5547 54.7188C28.6797 55.5625 30.1484 55.9844 31.9609 55.9844C33.7266 55.9844 35.1719 55.5312 36.2969 54.625C37.4062 53.7188 37.9609 52.5469 37.9609 51.1094C37.9609 49.625 37.4141 48.4609 36.3203 47.6172C35.2266 46.7578 33.7344 46.3281 31.8438 46.3281H27.6484V41.0547ZM64.2812 61.8672C60.0938 61.8672 56.8125 60.2969 54.4375 57.1562C52.0469 54 50.8516 49.625 50.8516 44.0312C50.8516 38.4531 52.0469 34.1016 54.4375 30.9766C56.8125 27.8672 60.0938 26.3125 64.2812 26.3125C68.4531 26.3125 71.7266 27.8672 74.1016 30.9766C76.5078 34.1172 77.7109 38.4766 77.7109 44.0547C77.7109 49.6328 76.5156 54 74.125 57.1562C71.75 60.2969 68.4688 61.8672 64.2812 61.8672ZM64.2812 56.1016C66.25 56.1016 67.7812 55.0781 68.875 53.0312C69.9844 50.9375 70.5391 47.9375 70.5391 44.0312C70.5391 40.1562 69.9766 37.1797 68.8516 35.1016C67.7734 33.1016 66.25 32.1016 64.2812 32.1016C62.3281 32.1016 60.8047 33.1094 59.7109 35.125C58.5859 37.2031 58.0234 40.1719 58.0234 44.0312C58.0234 47.9219 58.5859 50.9219 59.7109 53.0312C60.7891 55.0781 62.3125 56.1016 64.2812 56.1016ZM86.3359 61.6328C85.1016 61.6328 84.0938 61.25 83.3125 60.4844C82.5625 59.7188 82.1875 58.7422 82.1875 57.5547C82.1875 56.3672 82.5625 55.3984 83.3125 54.6484C84.0781 53.8828 85.0859 53.5 86.3359 53.5C87.5859 53.5 88.5938 53.8828 89.3594 54.6484C90.1094 55.3828 90.4844 56.3516 90.4844 57.5547C90.4844 58.7578 90.1094 59.7344 89.3594 60.4844C88.5938 61.25 87.5859 61.6328 86.3359 61.6328ZM108.625 61.8672C104.438 61.8672 101.156 60.2969 98.7812 57.1562C96.3906 54 95.1953 49.625 95.1953 44.0312C95.1953 38.4531 96.3906 34.1016 98.7812 30.9766C101.156 27.8672 104.438 26.3125 108.625 26.3125C112.797 26.3125 116.07 27.8672 118.445 30.9766C120.852 34.1172 122.055 38.4766 122.055 44.0547C122.055 49.6328 120.859 54 118.469 57.1562C116.094 60.2969 112.812 61.8672 108.625 61.8672ZM108.625 56.1016C110.594 56.1016 112.125 55.0781 113.219 53.0312C114.328 50.9375 114.883 47.9375 114.883 44.0312C114.883 40.1562 114.32 37.1797 113.195 35.1016C112.117 33.1016 110.594 32.1016 108.625 32.1016C106.672 32.1016 105.148 33.1094 104.055 35.125C102.93 37.2031 102.367 40.1719 102.367 44.0312C102.367 47.9219 102.93 50.9219 104.055 53.0312C105.133 55.0781 106.656 56.1016 108.625 56.1016ZM141.977 61.8672C136.93 61.8672 133.211 59.8281 130.82 55.75C128.93 52.8438 127.984 49.0391 127.984 44.3359C127.984 38.7266 129.234 34.3203 131.734 31.1172C134.234 27.9141 137.688 26.3125 142.094 26.3125C145.312 26.3125 148.055 27.1797 150.32 28.9141C152.602 30.6484 153.984 32.9297 154.469 35.7578H147.461C147.133 34.6484 146.477 33.7656 145.492 33.1094C144.523 32.4531 143.375 32.125 142.047 32.125C139.734 32.125 137.922 33.1641 136.609 35.2422C135.281 37.3047 134.656 40.0938 134.734 43.6094H135.156C136.766 40.2812 139.641 38.6172 143.781 38.6172C146.984 38.6172 149.641 39.6797 151.75 41.8047C153.859 43.9297 154.914 46.6094 154.914 49.8438C154.914 53.3594 153.703 56.2422 151.281 58.4922C148.859 60.7422 145.758 61.8672 141.977 61.8672ZM141.906 56.0547C143.641 56.0547 145.102 55.4766 146.289 54.3203C147.461 53.1797 148.047 51.7578 148.047 50.0547C148.047 48.3359 147.469 46.9062 146.312 45.7656C145.156 44.6406 143.695 44.0781 141.93 44.0781C140.164 44.0781 138.695 44.6406 137.523 45.7656C136.367 46.8906 135.789 48.2969 135.789 49.9844C135.789 51.7031 136.375 53.1484 137.547 54.3203C138.719 55.4766 140.172 56.0547 141.906 56.0547Z" fill="white"/>
<path d="M26.3125 84.0547H20.0078V95H17.9922V82.3672H28.3281V95H26.3125V84.0547ZM37.3867 83.9258C36.3789 83.9258 35.5508 84.2656 34.9023 84.9453C34.2539 85.625 33.8906 86.5234 33.8125 87.6406H40.7734C40.75 86.5234 40.4297 85.625 39.8125 84.9453C39.1953 84.2656 38.3867 83.9258 37.3867 83.9258ZM42.7305 91.7305C42.4258 92.8242 41.8086 93.6758 40.8789 94.2852C39.9414 94.9102 38.7852 95.2227 37.4102 95.2227C35.6602 95.2227 34.2734 94.6328 33.25 93.4531C32.2266 92.2812 31.7148 90.6953 31.7148 88.6953C31.7148 86.7031 32.2305 85.1133 33.2617 83.9258C34.293 82.7383 35.6758 82.1445 37.4102 82.1445C39.1133 82.1445 40.4531 82.7109 41.4297 83.8438C42.4062 84.9766 42.8945 86.5273 42.8945 88.4961V89.2695H33.8125V89.3633C33.8672 90.6133 34.2188 91.6055 34.8672 92.3398C35.5234 93.0742 36.3867 93.4414 37.457 93.4414C39.0898 93.4414 40.1758 92.8711 40.7148 91.7305H42.7305ZM46.2812 82.3672H48.2969V87.5938H54.7188V82.3672H56.7344V95H54.7188V89.2812H48.2969V95H46.2812V82.3672ZM60.7422 82.3672H62.7578V87.5938H69.1797V82.3672H71.1953V95H69.1797V89.2812H62.7578V95H60.7422V82.3672ZM79.1055 93.4531C80.1445 93.4531 81.0039 93.1523 81.6836 92.5508C82.3711 91.9492 82.7148 91.1953 82.7148 90.2891V89.1289L79.3164 89.3516C77.4727 89.4766 76.5508 90.1641 76.5508 91.4141C76.5508 92.0469 76.793 92.5469 77.2773 92.9141C77.7461 93.2734 78.3555 93.4531 79.1055 93.4531ZM78.7305 95.2227C77.4883 95.2227 76.4727 94.8828 75.6836 94.2031C74.8711 93.5156 74.4648 92.6016 74.4648 91.4609C74.4648 90.3359 74.8633 89.4531 75.6602 88.8125C76.457 88.1719 77.5938 87.8086 79.0703 87.7227L82.7148 87.5V86.3516C82.7148 84.7422 81.7617 83.9375 79.8555 83.9375C78.2539 83.9375 77.3047 84.4609 77.0078 85.5078H74.9688C75.1016 84.5 75.625 83.6875 76.5391 83.0703C77.4453 82.4531 78.5742 82.1445 79.9258 82.1445C81.457 82.1445 82.6445 82.5156 83.4883 83.2578C84.3164 84 84.7305 85.0312 84.7305 86.3516V95H82.8086V93.1367H82.6211C81.7773 94.5273 80.4805 95.2227 78.7305 95.2227ZM95.5703 88.7891V84.0547H93.1914C92.3555 84.0547 91.6914 84.2695 91.1992 84.6992C90.707 85.1367 90.4609 85.7383 90.4609 86.5039C90.4609 87.1758 90.7109 87.7227 91.2109 88.1445C91.7109 88.5742 92.3711 88.7891 93.1914 88.7891H95.5703ZM95.5703 90.4766H93.4023L90.1797 95H87.7773L91.3047 90.1016C90.4141 89.8516 89.7148 89.4141 89.207 88.7891C88.6992 88.1641 88.4453 87.418 88.4453 86.5508C88.4453 85.2539 88.875 84.2305 89.7344 83.4805C90.5859 82.7383 91.7383 82.3672 93.1914 82.3672H97.5859V95H95.5703V90.4766ZM110.383 84.0547V87.6172H113.195C114.781 87.6172 115.574 87.0156 115.574 85.8125C115.574 84.6406 114.891 84.0547 113.523 84.0547H110.383ZM110.383 89.3047V93.3125H113.758C115.336 93.3125 116.125 92.6523 116.125 91.332C116.125 89.9805 115.207 89.3047 113.371 89.3047H110.383ZM108.367 82.3672H113.781C114.961 82.3672 115.891 82.6602 116.57 83.2461C117.234 83.8242 117.566 84.6094 117.566 85.6016C117.566 86.2266 117.371 86.793 116.98 87.3008C116.582 87.8164 116.09 88.1367 115.504 88.2617V88.4492C116.301 88.5586 116.938 88.8828 117.414 89.4219C117.891 89.9531 118.129 90.6016 118.129 91.3672C118.129 92.4766 117.75 93.3555 116.992 94.0039C116.219 94.668 115.156 95 113.805 95H108.367V82.3672ZM126.52 83.9258C125.512 83.9258 124.684 84.2656 124.035 84.9453C123.387 85.625 123.023 86.5234 122.945 87.6406H129.906C129.883 86.5234 129.562 85.625 128.945 84.9453C128.328 84.2656 127.52 83.9258 126.52 83.9258ZM131.863 91.7305C131.559 92.8242 130.941 93.6758 130.012 94.2852C129.074 94.9102 127.918 95.2227 126.543 95.2227C124.793 95.2227 123.406 94.6328 122.383 93.4531C121.359 92.2812 120.848 90.6953 120.848 88.6953C120.848 86.7031 121.363 85.1133 122.395 83.9258C123.426 82.7383 124.809 82.1445 126.543 82.1445C128.246 82.1445 129.586 82.7109 130.562 83.8438C131.539 84.9766 132.027 86.5273 132.027 88.4961V89.2695H122.945V89.3633C123 90.6133 123.352 91.6055 124 92.3398C124.656 93.0742 125.52 93.4414 126.59 93.4414C128.223 93.4414 129.309 92.8711 129.848 91.7305H131.863ZM142.797 95V89.3047H142.609C141.648 90.1016 140.547 90.5 139.305 90.5C137.938 90.5 136.863 90.082 136.082 89.2461C135.324 88.4336 134.945 87.3438 134.945 85.9766V82.3672H136.961V85.9766C136.961 86.8203 137.176 87.4844 137.605 87.9688C138.051 88.4609 138.668 88.707 139.457 88.707C140.934 88.707 142.047 88.1758 142.797 87.1133V82.3672H144.812V95H142.797ZM153.871 83.9258C152.863 83.9258 152.035 84.2656 151.387 84.9453C150.738 85.625 150.375 86.5234 150.297 87.6406H157.258C157.234 86.5234 156.914 85.625 156.297 84.9453C155.68 84.2656 154.871 83.9258 153.871 83.9258ZM159.215 91.7305C158.91 92.8242 158.293 93.6758 157.363 94.2852C156.426 94.9102 155.27 95.2227 153.895 95.2227C152.145 95.2227 150.758 94.6328 149.734 93.4531C148.711 92.2812 148.199 90.6953 148.199 88.6953C148.199 86.7031 148.715 85.1133 149.746 83.9258C150.777 82.7383 152.16 82.1445 153.895 82.1445C155.598 82.1445 156.938 82.7109 157.914 83.8438C158.891 84.9766 159.379 86.5273 159.379 88.4961V89.2695H150.297V89.3633C150.352 90.6133 150.703 91.6055 151.352 92.3398C152.008 93.0742 152.871 93.4414 153.941 93.4414C155.574 93.4414 156.66 92.8711 157.199 91.7305H159.215ZM168.918 82.1445C170.527 82.1445 171.816 82.7383 172.785 83.9258C173.746 85.1133 174.227 86.6992 174.227 88.6836C174.227 90.6602 173.742 92.2422 172.773 93.4297C171.805 94.625 170.52 95.2227 168.918 95.2227C167.02 95.2227 165.703 94.5156 164.969 93.1016H164.781V99.2188H162.766V82.3672H164.688V84.4766H164.875C165.281 83.75 165.84 83.1797 166.551 82.7656C167.27 82.3516 168.059 82.1445 168.918 82.1445ZM168.438 93.4062C169.594 93.4062 170.5 92.9883 171.156 92.1523C171.812 91.3164 172.141 90.1602 172.141 88.6836C172.141 87.207 171.812 86.0508 171.156 85.2148C170.508 84.3789 169.605 83.9609 168.449 83.9609C167.309 83.9609 166.402 84.3828 165.73 85.2266C165.059 86.0781 164.723 87.2305 164.723 88.6836C164.723 90.1289 165.059 91.2773 165.73 92.1289C166.395 92.9805 167.297 93.4062 168.438 93.4062ZM177.625 95V82.3672H179.641V91.7891H179.828L186.238 82.3672H188.254V95H186.238V85.5781H186.051L179.641 95H177.625ZM192.273 82.3672H194.289V87.5938H200.711V82.3672H202.727V95H200.711V89.2812H194.289V95H192.273V82.3672ZM209.301 87.6523L214.305 82.3672H216.754L210.965 88.3203L216.977 95H214.363L209.301 89.2461H208.75V95H206.734V82.3672H208.75V87.6523H209.301ZM223.34 93.4531C224.379 93.4531 225.238 93.1523 225.918 92.5508C226.605 91.9492 226.949 91.1953 226.949 90.2891V89.1289L223.551 89.3516C221.707 89.4766 220.785 90.1641 220.785 91.4141C220.785 92.0469 221.027 92.5469 221.512 92.9141C221.98 93.2734 222.59 93.4531 223.34 93.4531ZM222.965 95.2227C221.723 95.2227 220.707 94.8828 219.918 94.2031C219.105 93.5156 218.699 92.6016 218.699 91.4609C218.699 90.3359 219.098 89.4531 219.895 88.8125C220.691 88.1719 221.828 87.8086 223.305 87.7227L226.949 87.5V86.3516C226.949 84.7422 225.996 83.9375 224.09 83.9375C222.488 83.9375 221.539 84.4609 221.242 85.5078H219.203C219.336 84.5 219.859 83.6875 220.773 83.0703C221.68 82.4531 222.809 82.1445 224.16 82.1445C225.691 82.1445 226.879 82.5156 227.723 83.2578C228.551 84 228.965 85.0312 228.965 86.3516V95H227.043V93.1367H226.855C226.012 94.5273 224.715 95.2227 222.965 95.2227Z" fill="white"/>
<defs>
<filter id="filter0_b" x="-20" y="-20" width="730" height="160" filterUnits="userSpaceOnUse" color-interpolation-filters="sRGB">
<feFlood flood-opacity="0" result="BackgroundImageFix"/>
<feGaussianBlur in="BackgroundImage" stdDeviation="10"/>
<feComposite in2="SourceAlpha" operator="in" result="effect1_backgroundBlur"/>
<feBlend mode="normal" in="SourceGraphic" in2="effect1_backgroundBlur" result="shape"/>
</filter>
</defs>
</svg>
