<svg width="689" height="120" viewBox="0 0 689 120" fill="none" xmlns="http://www.w3.org/2000/svg">
<g filter="url(#filter0_b)">
<rect width="689" height="120" rx="8" fill="white" fill-opacity="0.2"/>
</g>
<path d="M32.4062 61.8672C28.2188 61.8672 24.9375 60.2969 22.5625 57.1562C20.1719 54 18.9766 49.625 18.9766 44.0312C18.9766 38.4531 20.1719 34.1016 22.5625 30.9766C24.9375 27.8672 28.2188 26.3125 32.4062 26.3125C36.5781 26.3125 39.8516 27.8672 42.2266 30.9766C44.6328 34.1172 45.8359 38.4766 45.8359 44.0547C45.8359 49.6328 44.6406 54 42.25 57.1562C39.875 60.2969 36.5938 61.8672 32.4062 61.8672ZM32.4062 56.1016C34.375 56.1016 35.9062 55.0781 37 53.0312C38.1094 50.9375 38.6641 47.9375 38.6641 44.0312C38.6641 40.1562 38.1016 37.1797 36.9766 35.1016C35.8984 33.1016 34.375 32.1016 32.4062 32.1016C30.4531 32.1016 28.9297 33.1094 27.8359 35.125C26.7109 37.2031 26.1484 40.1719 26.1484 44.0312C26.1484 47.9219 26.7109 50.9219 27.8359 53.0312C28.9141 55.0781 30.4375 56.1016 32.4062 56.1016ZM60.1328 41.0547H64.2578C65.8672 41.0547 67.1641 40.625 68.1484 39.7656C69.1484 38.9062 69.6484 37.7891 69.6484 36.4141C69.6484 35.0547 69.1562 33.9688 68.1719 33.1562C67.2031 32.3594 65.8906 31.9609 64.2344 31.9609C62.5938 31.9609 61.2656 32.3906 60.25 33.25C59.2344 34.1094 58.6797 35.2734 58.5859 36.7422H52.0469C52.1719 33.5391 53.3438 31 55.5625 29.125C57.7812 27.25 60.7344 26.3125 64.4219 26.3125C67.8906 26.3125 70.75 27.1641 73 28.8672C75.2344 30.5859 76.3516 32.7734 76.3516 35.4297C76.3516 37.3828 75.7812 39.0625 74.6406 40.4688C73.5156 41.875 72.0078 42.7734 70.1172 43.1641V43.5859C72.4453 43.8516 74.2812 44.7031 75.625 46.1406C76.9844 47.5938 77.6641 49.4297 77.6641 51.6484C77.6641 54.6172 76.4141 57.0625 73.9141 58.9844C71.4141 60.9062 68.2344 61.8672 64.375 61.8672C60.6094 61.8672 57.5469 60.9062 55.1875 58.9844C52.8281 57.0625 51.5703 54.5078 51.4141 51.3203H58.1875C58.2969 52.7578 58.9141 53.8906 60.0391 54.7188C61.1641 55.5625 62.6328 55.9844 64.4453 55.9844C66.2109 55.9844 67.6562 55.5312 68.7812 54.625C69.8906 53.7188 70.4453 52.5469 70.4453 51.1094C70.4453 49.625 69.8984 48.4609 68.8047 47.6172C67.7109 46.7578 66.2188 46.3281 64.3281 46.3281H60.1328V41.0547ZM87.1328 61.6328C85.8984 61.6328 84.8906 61.25 84.1094 60.4844C83.3594 59.7188 82.9844 58.7422 82.9844 57.5547C82.9844 56.3672 83.3594 55.3984 84.1094 54.6484C84.875 53.8828 85.8828 53.5 87.1328 53.5C88.3828 53.5 89.3906 53.8828 90.1562 54.6484C90.9062 55.3828 91.2812 56.3516 91.2812 57.5547C91.2812 58.7578 90.9062 59.7344 90.1562 60.4844C89.3906 61.25 88.3828 61.6328 87.1328 61.6328ZM109.422 61.8672C105.234 61.8672 101.953 60.2969 99.5781 57.1562C97.1875 54 95.9922 49.625 95.9922 44.0312C95.9922 38.4531 97.1875 34.1016 99.5781 30.9766C101.953 27.8672 105.234 26.3125 109.422 26.3125C113.594 26.3125 116.867 27.8672 119.242 30.9766C121.648 34.1172 122.852 38.4766 122.852 44.0547C122.852 49.6328 121.656 54 119.266 57.1562C116.891 60.2969 113.609 61.8672 109.422 61.8672ZM109.422 56.1016C111.391 56.1016 112.922 55.0781 114.016 53.0312C115.125 50.9375 115.68 47.9375 115.68 44.0312C115.68 40.1562 115.117 37.1797 113.992 35.1016C112.914 33.1016 111.391 32.1016 109.422 32.1016C107.469 32.1016 105.945 33.1094 104.852 35.125C103.727 37.2031 103.164 40.1719 103.164 44.0312C103.164 47.9219 103.727 50.9219 104.852 53.0312C105.93 55.0781 107.453 56.1016 109.422 56.1016ZM145.164 33.4375V32.9922H128.406V27.1562H152.242V33.0625L138.109 61H130.703L145.164 33.4375Z" fill="white"/>
<path d="M20.0078 83.0547V86.6172H22.8203C24.4062 86.6172 25.1992 86.0156 25.1992 84.8125C25.1992 83.6406 24.5156 83.0547 23.1484 83.0547H20.0078ZM20.0078 88.3047V92.3125H23.3828C24.9609 92.3125 25.75 91.6523 25.75 90.332C25.75 88.9805 24.832 88.3047 22.9961 88.3047H20.0078ZM17.9922 81.3672H23.4062C24.5859 81.3672 25.5156 81.6602 26.1953 82.2461C26.8594 82.8242 27.1914 83.6094 27.1914 84.6016C27.1914 85.2266 26.9961 85.793 26.6055 86.3008C26.207 86.8164 25.7148 87.1367 25.1289 87.2617V87.4492C25.9258 87.5586 26.5625 87.8828 27.0391 88.4219C27.5156 88.9531 27.7539 89.6016 27.7539 90.3672C27.7539 91.4766 27.375 92.3555 26.6172 93.0039C25.8438 93.668 24.7812 94 23.4297 94H17.9922V81.3672ZM36.1445 82.9258C35.1367 82.9258 34.3086 83.2656 33.6602 83.9453C33.0117 84.625 32.6484 85.5234 32.5703 86.6406H39.5312C39.5078 85.5234 39.1875 84.625 38.5703 83.9453C37.9531 83.2656 37.1445 82.9258 36.1445 82.9258ZM41.4883 90.7305C41.1836 91.8242 40.5664 92.6758 39.6367 93.2852C38.6992 93.9102 37.543 94.2227 36.168 94.2227C34.418 94.2227 33.0312 93.6328 32.0078 92.4531C30.9844 91.2812 30.4727 89.6953 30.4727 87.6953C30.4727 85.7031 30.9883 84.1133 32.0195 82.9258C33.0508 81.7383 34.4336 81.1445 36.168 81.1445C37.8711 81.1445 39.2109 81.7109 40.1875 82.8438C41.1641 83.9766 41.6523 85.5273 41.6523 87.4961V88.2695H32.5703V88.3633C32.625 89.6133 32.9766 90.6055 33.625 91.3398C34.2812 92.0742 35.1445 92.4414 36.2148 92.4414C37.8477 92.4414 38.9336 91.8711 39.4727 90.7305H41.4883ZM52.4219 94V88.3047H52.2344C51.2734 89.1016 50.1719 89.5 48.9297 89.5C47.5625 89.5 46.4883 89.082 45.707 88.2461C44.9492 87.4336 44.5703 86.3438 44.5703 84.9766V81.3672H46.5859V84.9766C46.5859 85.8203 46.8008 86.4844 47.2305 86.9688C47.6758 87.4609 48.293 87.707 49.082 87.707C50.5586 87.707 51.6719 87.1758 52.4219 86.1133V81.3672H54.4375V94H52.4219ZM63.4961 82.9258C62.4883 82.9258 61.6602 83.2656 61.0117 83.9453C60.3633 84.625 60 85.5234 59.9219 86.6406H66.8828C66.8594 85.5234 66.5391 84.625 65.9219 83.9453C65.3047 83.2656 64.4961 82.9258 63.4961 82.9258ZM68.8398 90.7305C68.5352 91.8242 67.918 92.6758 66.9883 93.2852C66.0508 93.9102 64.8945 94.2227 63.5195 94.2227C61.7695 94.2227 60.3828 93.6328 59.3594 92.4531C58.3359 91.2812 57.8242 89.6953 57.8242 87.6953C57.8242 85.7031 58.3398 84.1133 59.3711 82.9258C60.4023 81.7383 61.7852 81.1445 63.5195 81.1445C65.2227 81.1445 66.5625 81.7109 67.5391 82.8438C68.5156 83.9766 69.0039 85.5273 69.0039 87.4961V88.2695H59.9219V88.3633C59.9766 89.6133 60.3281 90.6055 60.9766 91.3398C61.6328 92.0742 62.4961 92.4414 63.5664 92.4414C65.1992 92.4414 66.2852 91.8711 66.8242 90.7305H68.8398ZM78.543 81.1445C80.1523 81.1445 81.4414 81.7383 82.4102 82.9258C83.3711 84.1133 83.8516 85.6992 83.8516 87.6836C83.8516 89.6602 83.3672 91.2422 82.3984 92.4297C81.4297 93.625 80.1445 94.2227 78.543 94.2227C76.6445 94.2227 75.3281 93.5156 74.5938 92.1016H74.4062V98.2188H72.3906V81.3672H74.3125V83.4766H74.5C74.9062 82.75 75.4648 82.1797 76.1758 81.7656C76.8945 81.3516 77.6836 81.1445 78.543 81.1445ZM78.0625 92.4062C79.2188 92.4062 80.125 91.9883 80.7812 91.1523C81.4375 90.3164 81.7656 89.1602 81.7656 87.6836C81.7656 86.207 81.4375 85.0508 80.7812 84.2148C80.1328 83.3789 79.2305 82.9609 78.0742 82.9609C76.9336 82.9609 76.0273 83.3828 75.3555 84.2266C74.6836 85.0781 74.3477 86.2305 74.3477 87.6836C74.3477 89.1289 74.6836 90.2773 75.3555 91.1289C76.0195 91.9805 76.9219 92.4062 78.0625 92.4062ZM87.25 94V81.3672H89.2656V90.7891H89.4531L95.8633 81.3672H97.8789V94H95.8633V84.5781H95.6758L89.2656 94H87.25ZM101.898 81.3672H103.914V86.5938H110.336V81.3672H112.352V94H110.336V88.2812H103.914V94H101.898V81.3672ZM118.926 86.6523L123.93 81.3672H126.379L120.59 87.3203L126.602 94H123.988L118.926 88.2461H118.375V94H116.359V81.3672H118.375V86.6523H118.926ZM132.965 92.4531C134.004 92.4531 134.863 92.1523 135.543 91.5508C136.23 90.9492 136.574 90.1953 136.574 89.2891V88.1289L133.176 88.3516C131.332 88.4766 130.41 89.1641 130.41 90.4141C130.41 91.0469 130.652 91.5469 131.137 91.9141C131.605 92.2734 132.215 92.4531 132.965 92.4531ZM132.59 94.2227C131.348 94.2227 130.332 93.8828 129.543 93.2031C128.73 92.5156 128.324 91.6016 128.324 90.4609C128.324 89.3359 128.723 88.4531 129.52 87.8125C130.316 87.1719 131.453 86.8086 132.93 86.7227L136.574 86.5V85.3516C136.574 83.7422 135.621 82.9375 133.715 82.9375C132.113 82.9375 131.164 83.4609 130.867 84.5078H128.828C128.961 83.5 129.484 82.6875 130.398 82.0703C131.305 81.4531 132.434 81.1445 133.785 81.1445C135.316 81.1445 136.504 81.5156 137.348 82.2578C138.176 83 138.59 84.0312 138.59 85.3516V94H136.668V92.1367H136.48C135.637 93.5273 134.34 94.2227 132.59 94.2227ZM157.562 87.4727L161.676 92.3008H159.273L155.172 87.4258V87.332L159.285 82.457H161.676L157.562 87.2852V87.4727ZM151.949 87.4727L156.062 92.3008H153.672L149.57 87.4258V87.332L153.672 82.457H156.062L151.949 87.2852V87.4727ZM172.516 87.7891V83.0547H170.137C169.301 83.0547 168.637 83.2695 168.145 83.6992C167.652 84.1367 167.406 84.7383 167.406 85.5039C167.406 86.1758 167.656 86.7227 168.156 87.1445C168.656 87.5742 169.316 87.7891 170.137 87.7891H172.516ZM172.516 89.4766H170.348L167.125 94H164.723L168.25 89.1016C167.359 88.8516 166.66 88.4141 166.152 87.7891C165.645 87.1641 165.391 86.418 165.391 85.5508C165.391 84.2539 165.82 83.2305 166.68 82.4805C167.531 81.7383 168.684 81.3672 170.137 81.3672H174.531V94H172.516V89.4766ZM184.691 81.1445C186.301 81.1445 187.59 81.7383 188.559 82.9258C189.52 84.1133 190 85.6992 190 87.6836C190 89.6602 189.516 91.2422 188.547 92.4297C187.578 93.625 186.293 94.2227 184.691 94.2227C182.793 94.2227 181.477 93.5156 180.742 92.1016H180.555V98.2188H178.539V81.3672H180.461V83.4766H180.648C181.055 82.75 181.613 82.1797 182.324 81.7656C183.043 81.3516 183.832 81.1445 184.691 81.1445ZM184.211 92.4062C185.367 92.4062 186.273 91.9883 186.93 91.1523C187.586 90.3164 187.914 89.1602 187.914 87.6836C187.914 86.207 187.586 85.0508 186.93 84.2148C186.281 83.3789 185.379 82.9609 184.223 82.9609C183.082 82.9609 182.176 83.3828 181.504 84.2266C180.832 85.0781 180.496 86.2305 180.496 87.6836C180.496 89.1289 180.832 90.2773 181.504 91.1289C182.168 91.9805 183.07 92.4062 184.211 92.4062ZM200.781 94V88.3047H200.594C199.633 89.1016 198.531 89.5 197.289 89.5C195.922 89.5 194.848 89.082 194.066 88.2461C193.309 87.4336 192.93 86.3438 192.93 84.9766V81.3672H194.945V84.9766C194.945 85.8203 195.16 86.4844 195.59 86.9688C196.035 87.4609 196.652 87.707 197.441 87.707C198.918 87.707 200.031 87.1758 200.781 86.1133V81.3672H202.797V94H200.781ZM211.855 82.9258C210.848 82.9258 210.02 83.2656 209.371 83.9453C208.723 84.625 208.359 85.5234 208.281 86.6406H215.242C215.219 85.5234 214.898 84.625 214.281 83.9453C213.664 83.2656 212.855 82.9258 211.855 82.9258ZM217.199 90.7305C216.895 91.8242 216.277 92.6758 215.348 93.2852C214.41 93.9102 213.254 94.2227 211.879 94.2227C210.129 94.2227 208.742 93.6328 207.719 92.4531C206.695 91.2812 206.184 89.6953 206.184 87.6953C206.184 85.7031 206.699 84.1133 207.73 82.9258C208.762 81.7383 210.145 81.1445 211.879 81.1445C213.582 81.1445 214.922 81.7109 215.898 82.8438C216.875 83.9766 217.363 85.5273 217.363 87.4961V88.2695H208.281V88.3633C208.336 89.6133 208.688 90.6055 209.336 91.3398C209.992 92.0742 210.855 92.4414 211.926 92.4414C213.559 92.4414 214.645 91.8711 215.184 90.7305H217.199ZM220.844 82.457H223.234L227.348 87.332V87.4258L223.246 92.3008H220.844L224.957 87.4727V87.2852L220.844 82.457ZM226.457 82.457H228.848L232.949 87.332V87.4258L228.848 92.3008H226.457L230.57 87.4727V87.2852L226.457 82.457Z" fill="white"/>
<defs>
<filter id="filter0_b" x="-20" y="-20" width="729" height="160" filterUnits="userSpaceOnUse" color-interpolation-filters="sRGB">
<feFlood flood-opacity="0" result="BackgroundImageFix"/>
<feGaussianBlur in="BackgroundImage" stdDeviation="10"/>
<feComposite in2="SourceAlpha" operator="in" result="effect1_backgroundBlur"/>
<feBlend mode="normal" in="SourceGraphic" in2="effect1_backgroundBlur" result="shape"/>
</filter>
</defs>
</svg>
