<svg width="689" height="120" viewBox="0 0 689 120" fill="none" xmlns="http://www.w3.org/2000/svg">
<g filter="url(#filter0_b)">
<rect width="689" height="120" rx="8" fill="white" fill-opacity="0.2"/>
</g>
<path d="M32.4062 61.8672C28.2188 61.8672 24.9375 60.2969 22.5625 57.1562C20.1719 54 18.9766 49.625 18.9766 44.0312C18.9766 38.4531 20.1719 34.1016 22.5625 30.9766C24.9375 27.8672 28.2188 26.3125 32.4062 26.3125C36.5781 26.3125 39.8516 27.8672 42.2266 30.9766C44.6328 34.1172 45.8359 38.4766 45.8359 44.0547C45.8359 49.6328 44.6406 54 42.25 57.1562C39.875 60.2969 36.5938 61.8672 32.4062 61.8672ZM32.4062 56.1016C34.375 56.1016 35.9062 55.0781 37 53.0312C38.1094 50.9375 38.6641 47.9375 38.6641 44.0312C38.6641 40.1562 38.1016 37.1797 36.9766 35.1016C35.8984 33.1016 34.375 32.1016 32.4062 32.1016C30.4531 32.1016 28.9297 33.1094 27.8359 35.125C26.7109 37.2031 26.1484 40.1719 26.1484 44.0312C26.1484 47.9219 26.7109 50.9219 27.8359 53.0312C28.9141 55.0781 30.4375 56.1016 32.4062 56.1016ZM65.7578 61.8672C60.7109 61.8672 56.9922 59.8281 54.6016 55.75C52.7109 52.8438 51.7656 49.0391 51.7656 44.3359C51.7656 38.7266 53.0156 34.3203 55.5156 31.1172C58.0156 27.9141 61.4688 26.3125 65.875 26.3125C69.0938 26.3125 71.8359 27.1797 74.1016 28.9141C76.3828 30.6484 77.7656 32.9297 78.25 35.7578H71.2422C70.9141 34.6484 70.2578 33.7656 69.2734 33.1094C68.3047 32.4531 67.1562 32.125 65.8281 32.125C63.5156 32.125 61.7031 33.1641 60.3906 35.2422C59.0625 37.3047 58.4375 40.0938 58.5156 43.6094H58.9375C60.5469 40.2812 63.4219 38.6172 67.5625 38.6172C70.7656 38.6172 73.4219 39.6797 75.5312 41.8047C77.6406 43.9297 78.6953 46.6094 78.6953 49.8438C78.6953 53.3594 77.4844 56.2422 75.0625 58.4922C72.6406 60.7422 69.5391 61.8672 65.7578 61.8672ZM65.6875 56.0547C67.4219 56.0547 68.8828 55.4766 70.0703 54.3203C71.2422 53.1797 71.8281 51.7578 71.8281 50.0547C71.8281 48.3359 71.25 46.9062 70.0938 45.7656C68.9375 44.6406 67.4766 44.0781 65.7109 44.0781C63.9453 44.0781 62.4766 44.6406 61.3047 45.7656C60.1484 46.8906 59.5703 48.2969 59.5703 49.9844C59.5703 51.7031 60.1562 53.1484 61.3281 54.3203C62.5 55.4766 63.9531 56.0547 65.6875 56.0547ZM88.3984 61.6328C87.1641 61.6328 86.1562 61.25 85.375 60.4844C84.625 59.7188 84.25 58.7422 84.25 57.5547C84.25 56.3672 84.625 55.3984 85.375 54.6484C86.1406 53.8828 87.1484 53.5 88.3984 53.5C89.6484 53.5 90.6562 53.8828 91.4219 54.6484C92.1719 55.3828 92.5469 56.3516 92.5469 57.5547C92.5469 58.7578 92.1719 59.7344 91.4219 60.4844C90.6562 61.25 89.6484 61.6328 88.3984 61.6328ZM110.688 61.8672C106.5 61.8672 103.219 60.2969 100.844 57.1562C98.4531 54 97.2578 49.625 97.2578 44.0312C97.2578 38.4531 98.4531 34.1016 100.844 30.9766C103.219 27.8672 106.5 26.3125 110.688 26.3125C114.859 26.3125 118.133 27.8672 120.508 30.9766C122.914 34.1172 124.117 38.4766 124.117 44.0547C124.117 49.6328 122.922 54 120.531 57.1562C118.156 60.2969 114.875 61.8672 110.688 61.8672ZM110.688 56.1016C112.656 56.1016 114.188 55.0781 115.281 53.0312C116.391 50.9375 116.945 47.9375 116.945 44.0312C116.945 40.1562 116.383 37.1797 115.258 35.1016C114.18 33.1016 112.656 32.1016 110.688 32.1016C108.734 32.1016 107.211 33.1094 106.117 35.125C104.992 37.2031 104.43 40.1719 104.43 44.0312C104.43 47.9219 104.992 50.9219 106.117 53.0312C107.195 55.0781 108.719 56.1016 110.688 56.1016ZM146.43 33.4375V32.9922H129.672V27.1562H153.508V33.0625L139.375 61H131.969L146.43 33.4375Z" fill="white"/>
<path d="M20.0078 83.0547V86.6172H22.8203C24.4062 86.6172 25.1992 86.0156 25.1992 84.8125C25.1992 83.6406 24.5156 83.0547 23.1484 83.0547H20.0078ZM20.0078 88.3047V92.3125H23.3828C24.9609 92.3125 25.75 91.6523 25.75 90.332C25.75 88.9805 24.832 88.3047 22.9961 88.3047H20.0078ZM17.9922 81.3672H23.4062C24.5859 81.3672 25.5156 81.6602 26.1953 82.2461C26.8594 82.8242 27.1914 83.6094 27.1914 84.6016C27.1914 85.2266 26.9961 85.793 26.6055 86.3008C26.207 86.8164 25.7148 87.1367 25.1289 87.2617V87.4492C25.9258 87.5586 26.5625 87.8828 27.0391 88.4219C27.5156 88.9531 27.7539 89.6016 27.7539 90.3672C27.7539 91.4766 27.375 92.3555 26.6172 93.0039C25.8438 93.668 24.7812 94 23.4297 94H17.9922V81.3672ZM42.0273 81.3672H44.043V94H42.0273V81.3672ZM33.3438 87.1094V92.3125H35.7227C36.5508 92.3125 37.2148 92.0742 37.7148 91.5977C38.207 91.1289 38.4531 90.5 38.4531 89.7109C38.4531 88.9219 38.2031 88.2891 37.7031 87.8125C37.2109 87.3438 36.5508 87.1094 35.7227 87.1094H33.3438ZM31.3281 81.3672H33.3438V85.4219H35.7227C37.168 85.4219 38.3203 85.8086 39.1797 86.582C40.0391 87.3555 40.4688 88.3984 40.4688 89.7109C40.4688 91.0234 40.0391 92.0664 39.1797 92.8398C38.3203 93.6133 37.168 94 35.7227 94H31.3281V81.3672ZM56.4883 85.2344C56.3164 84.5703 55.9609 84.0352 55.4219 83.6289C54.8281 83.1836 54.0977 82.9609 53.2305 82.9609C52.0977 82.9609 51.1953 83.3828 50.5234 84.2266C49.8594 85.0703 49.5273 86.207 49.5273 87.6367C49.5273 89.0898 49.8633 90.25 50.5352 91.1172C51.207 91.9766 52.1055 92.4062 53.2305 92.4062C55.0117 92.4062 56.0977 91.668 56.4883 90.1914H58.5273C58.3398 91.3867 57.793 92.3477 56.8867 93.0742C55.9336 93.8398 54.7188 94.2227 53.2422 94.2227C51.4688 94.2227 50.0586 93.6289 49.0117 92.4414C47.9648 91.2461 47.4414 89.6445 47.4414 87.6367C47.4414 85.668 47.9648 84.0938 49.0117 82.9141C50.0586 81.7344 51.4648 81.1445 53.2305 81.1445C54.707 81.1445 55.9297 81.543 56.8984 82.3398C57.7969 83.0898 58.3398 84.0547 58.5273 85.2344H56.4883ZM70.293 83.0547H66.1914V94H64.1758V83.0547H60.0742V81.3672H70.293V83.0547ZM74.3242 98.582C74.0039 98.582 73.7031 98.5586 73.4219 98.5117V96.7891C73.625 96.8281 73.9062 96.8477 74.2656 96.8477C74.8438 96.8477 75.3086 96.6914 75.6602 96.3789C76.0117 96.0586 76.3203 95.5195 76.5859 94.7617L76.8203 94.0117L72.1445 81.3672H74.3242L77.793 91.7617H77.9805L81.4375 81.3672H83.582L78.6484 94.7734C78.1094 96.2344 77.5352 97.2344 76.9258 97.7734C76.3086 98.3125 75.4414 98.582 74.3242 98.582ZM94.8203 83.0547H88.5156V94H86.5V81.3672H96.8359V94H94.8203V83.0547ZM103.879 88.457C103.738 90.332 103.414 91.707 102.906 92.582C102.32 93.5977 101.406 94.1055 100.164 94.1055C99.875 94.1055 99.6289 94.0625 99.4258 93.9766V92.125C99.6133 92.1875 99.8242 92.2188 100.059 92.2188C100.652 92.2188 101.105 91.875 101.418 91.1875C101.691 90.5859 101.871 89.6602 101.957 88.4102L102.449 81.3672H110.711V94H108.695V83.0547H104.277L103.879 88.457ZM119.77 82.9258C118.762 82.9258 117.934 83.2656 117.285 83.9453C116.637 84.625 116.273 85.5234 116.195 86.6406H123.156C123.133 85.5234 122.812 84.625 122.195 83.9453C121.578 83.2656 120.77 82.9258 119.77 82.9258ZM125.113 90.7305C124.809 91.8242 124.191 92.6758 123.262 93.2852C122.324 93.9102 121.168 94.2227 119.793 94.2227C118.043 94.2227 116.656 93.6328 115.633 92.4531C114.609 91.2812 114.098 89.6953 114.098 87.6953C114.098 85.7031 114.613 84.1133 115.645 82.9258C116.676 81.7383 118.059 81.1445 119.793 81.1445C121.496 81.1445 122.836 81.7109 123.812 82.8438C124.789 83.9766 125.277 85.5273 125.277 87.4961V88.2695H116.195V88.3633C116.25 89.6133 116.602 90.6055 117.25 91.3398C117.906 92.0742 118.77 92.4414 119.84 92.4414C121.473 92.4414 122.559 91.8711 123.098 90.7305H125.113ZM128.664 81.3672H130.68V86.5938H137.102V81.3672H139.117V94H137.102V88.2812H130.68V94H128.664V81.3672ZM143.125 94V81.3672H145.141V90.7891H145.328L151.738 81.3672H153.754V94H151.738V84.5781H151.551L145.141 94H143.125ZM162.824 82.9258C161.816 82.9258 160.988 83.2656 160.34 83.9453C159.691 84.625 159.328 85.5234 159.25 86.6406H166.211C166.188 85.5234 165.867 84.625 165.25 83.9453C164.633 83.2656 163.824 82.9258 162.824 82.9258ZM168.168 90.7305C167.863 91.8242 167.246 92.6758 166.316 93.2852C165.379 93.9102 164.223 94.2227 162.848 94.2227C161.098 94.2227 159.711 93.6328 158.688 92.4531C157.664 91.2812 157.152 89.6953 157.152 87.6953C157.152 85.7031 157.668 84.1133 158.699 82.9258C159.73 81.7383 161.113 81.1445 162.848 81.1445C164.551 81.1445 165.891 81.7109 166.867 82.8438C167.844 83.9766 168.332 85.5273 168.332 87.4961V88.2695H159.25V88.3633C159.305 89.6133 159.656 90.6055 160.305 91.3398C160.961 92.0742 161.824 92.4414 162.895 92.4414C164.527 92.4414 165.613 91.8711 166.152 90.7305H168.168ZM180.508 83.0547V94H178.492V81.3672H186.578V83.0547H180.508ZM195.801 81.1445C197.41 81.1445 198.699 81.7383 199.668 82.9258C200.629 84.1133 201.109 85.6992 201.109 87.6836C201.109 89.6602 200.625 91.2422 199.656 92.4297C198.688 93.625 197.402 94.2227 195.801 94.2227C193.902 94.2227 192.586 93.5156 191.852 92.1016H191.664V98.2188H189.648V81.3672H191.57V83.4766H191.758C192.164 82.75 192.723 82.1797 193.434 81.7656C194.152 81.3516 194.941 81.1445 195.801 81.1445ZM195.32 92.4062C196.477 92.4062 197.383 91.9883 198.039 91.1523C198.695 90.3164 199.023 89.1602 199.023 87.6836C199.023 86.207 198.695 85.0508 198.039 84.2148C197.391 83.3789 196.488 82.9609 195.332 82.9609C194.191 82.9609 193.285 83.3828 192.613 84.2266C191.941 85.0781 191.605 86.2305 191.605 87.6836C191.605 89.1289 191.941 90.2773 192.613 91.1289C193.277 91.9805 194.18 92.4062 195.32 92.4062ZM205.129 98.582C204.809 98.582 204.508 98.5586 204.227 98.5117V96.7891C204.43 96.8281 204.711 96.8477 205.07 96.8477C205.648 96.8477 206.113 96.6914 206.465 96.3789C206.816 96.0586 207.125 95.5195 207.391 94.7617L207.625 94.0117L202.949 81.3672H205.129L208.598 91.7617H208.785L212.242 81.3672H214.387L209.453 94.7734C208.914 96.2344 208.34 97.2344 207.73 97.7734C207.113 98.3125 206.246 98.582 205.129 98.582ZM225.625 83.0547H219.32V94H217.305V81.3672H227.641V94H225.625V83.0547ZM239.969 83.0547H233.664V94H231.648V81.3672H241.984V94H239.969V83.0547ZM256.809 81.3672H258.824V94H256.809V81.3672ZM248.125 87.1094V92.3125H250.504C251.332 92.3125 251.996 92.0742 252.496 91.5977C252.988 91.1289 253.234 90.5 253.234 89.7109C253.234 88.9219 252.984 88.2891 252.484 87.8125C251.992 87.3438 251.332 87.1094 250.504 87.1094H248.125ZM246.109 81.3672H248.125V85.4219H250.504C251.949 85.4219 253.102 85.8086 253.961 86.582C254.82 87.3555 255.25 88.3984 255.25 89.7109C255.25 91.0234 254.82 92.0664 253.961 92.8398C253.102 93.6133 251.949 94 250.504 94H246.109V81.3672ZM277.703 87.4727L281.816 92.3008H279.414L275.312 87.4258V87.332L279.426 82.457H281.816L277.703 87.2852V87.4727ZM272.09 87.4727L276.203 92.3008H273.812L269.711 87.4258V87.332L273.812 82.457H276.203L272.09 87.2852V87.4727ZM294.848 83.0547H290.746V94H288.73V83.0547H284.629V81.3672H294.848V83.0547ZM300.355 88.457C300.215 90.332 299.891 91.707 299.383 92.582C298.797 93.5977 297.883 94.1055 296.641 94.1055C296.352 94.1055 296.105 94.0625 295.902 93.9766V92.125C296.09 92.1875 296.301 92.2188 296.535 92.2188C297.129 92.2188 297.582 91.875 297.895 91.1875C298.168 90.5859 298.348 89.6602 298.434 88.4102L298.926 81.3672H307.188V94H305.172V83.0547H300.754L300.355 88.457ZM317.922 87.7891V83.0547H315.543C314.707 83.0547 314.043 83.2695 313.551 83.6992C313.059 84.1367 312.812 84.7383 312.812 85.5039C312.812 86.1758 313.062 86.7227 313.562 87.1445C314.062 87.5742 314.723 87.7891 315.543 87.7891H317.922ZM317.922 89.4766H315.754L312.531 94H310.129L313.656 89.1016C312.766 88.8516 312.066 88.4141 311.559 87.7891C311.051 87.1641 310.797 86.418 310.797 85.5508C310.797 84.2539 311.227 83.2305 312.086 82.4805C312.938 81.7383 314.09 81.3672 315.543 81.3672H319.938V94H317.922V89.4766ZM324.039 82.457H326.43L330.543 87.332V87.4258L326.441 92.3008H324.039L328.152 87.4727V87.2852L324.039 82.457ZM329.652 82.457H332.043L336.145 87.332V87.4258L332.043 92.3008H329.652L333.766 87.4727V87.2852L329.652 82.457Z" fill="white"/>
<defs>
<filter id="filter0_b" x="-20" y="-20" width="729" height="160" filterUnits="userSpaceOnUse" color-interpolation-filters="sRGB">
<feFlood flood-opacity="0" result="BackgroundImageFix"/>
<feGaussianBlur in="BackgroundImage" stdDeviation="10"/>
<feComposite in2="SourceAlpha" operator="in" result="effect1_backgroundBlur"/>
<feBlend mode="normal" in="SourceGraphic" in2="effect1_backgroundBlur" result="shape"/>
</filter>
</defs>
</svg>
