<svg width="689" height="120" viewBox="0 0 689 120" fill="none" xmlns="http://www.w3.org/2000/svg">
<g filter="url(#filter0_b)">
<rect width="689" height="120" rx="8" fill="white" fill-opacity="0.2"/>
</g>
<path d="M32.4062 61.8672C28.2188 61.8672 24.9375 60.2969 22.5625 57.1562C20.1719 54 18.9766 49.625 18.9766 44.0312C18.9766 38.4531 20.1719 34.1016 22.5625 30.9766C24.9375 27.8672 28.2188 26.3125 32.4062 26.3125C36.5781 26.3125 39.8516 27.8672 42.2266 30.9766C44.6328 34.1172 45.8359 38.4766 45.8359 44.0547C45.8359 49.6328 44.6406 54 42.25 57.1562C39.875 60.2969 36.5938 61.8672 32.4062 61.8672ZM32.4062 56.1016C34.375 56.1016 35.9062 55.0781 37 53.0312C38.1094 50.9375 38.6641 47.9375 38.6641 44.0312C38.6641 40.1562 38.1016 37.1797 36.9766 35.1016C35.8984 33.1016 34.375 32.1016 32.4062 32.1016C30.4531 32.1016 28.9297 33.1094 27.8359 35.125C26.7109 37.2031 26.1484 40.1719 26.1484 44.0312C26.1484 47.9219 26.7109 50.9219 27.8359 53.0312C28.9141 55.0781 30.4375 56.1016 32.4062 56.1016ZM65.7578 61.8672C60.7109 61.8672 56.9922 59.8281 54.6016 55.75C52.7109 52.8438 51.7656 49.0391 51.7656 44.3359C51.7656 38.7266 53.0156 34.3203 55.5156 31.1172C58.0156 27.9141 61.4688 26.3125 65.875 26.3125C69.0938 26.3125 71.8359 27.1797 74.1016 28.9141C76.3828 30.6484 77.7656 32.9297 78.25 35.7578H71.2422C70.9141 34.6484 70.2578 33.7656 69.2734 33.1094C68.3047 32.4531 67.1562 32.125 65.8281 32.125C63.5156 32.125 61.7031 33.1641 60.3906 35.2422C59.0625 37.3047 58.4375 40.0938 58.5156 43.6094H58.9375C60.5469 40.2812 63.4219 38.6172 67.5625 38.6172C70.7656 38.6172 73.4219 39.6797 75.5312 41.8047C77.6406 43.9297 78.6953 46.6094 78.6953 49.8438C78.6953 53.3594 77.4844 56.2422 75.0625 58.4922C72.6406 60.7422 69.5391 61.8672 65.7578 61.8672ZM65.6875 56.0547C67.4219 56.0547 68.8828 55.4766 70.0703 54.3203C71.2422 53.1797 71.8281 51.7578 71.8281 50.0547C71.8281 48.3359 71.25 46.9062 70.0938 45.7656C68.9375 44.6406 67.4766 44.0781 65.7109 44.0781C63.9453 44.0781 62.4766 44.6406 61.3047 45.7656C60.1484 46.8906 59.5703 48.2969 59.5703 49.9844C59.5703 51.7031 60.1562 53.1484 61.3281 54.3203C62.5 55.4766 63.9531 56.0547 65.6875 56.0547ZM88.3984 61.6328C87.1641 61.6328 86.1562 61.25 85.375 60.4844C84.625 59.7188 84.25 58.7422 84.25 57.5547C84.25 56.3672 84.625 55.3984 85.375 54.6484C86.1406 53.8828 87.1484 53.5 88.3984 53.5C89.6484 53.5 90.6562 53.8828 91.4219 54.6484C92.1719 55.3828 92.5469 56.3516 92.5469 57.5547C92.5469 58.7578 92.1719 59.7344 91.4219 60.4844C90.6562 61.25 89.6484 61.6328 88.3984 61.6328ZM110.688 61.8672C106.5 61.8672 103.219 60.2969 100.844 57.1562C98.4531 54 97.2578 49.625 97.2578 44.0312C97.2578 38.4531 98.4531 34.1016 100.844 30.9766C103.219 27.8672 106.5 26.3125 110.688 26.3125C114.859 26.3125 118.133 27.8672 120.508 30.9766C122.914 34.1172 124.117 38.4766 124.117 44.0547C124.117 49.6328 122.922 54 120.531 57.1562C118.156 60.2969 114.875 61.8672 110.688 61.8672ZM110.688 56.1016C112.656 56.1016 114.188 55.0781 115.281 53.0312C116.391 50.9375 116.945 47.9375 116.945 44.0312C116.945 40.1562 116.383 37.1797 115.258 35.1016C114.18 33.1016 112.656 32.1016 110.688 32.1016C108.734 32.1016 107.211 33.1094 106.117 35.125C104.992 37.2031 104.43 40.1719 104.43 44.0312C104.43 47.9219 104.992 50.9219 106.117 53.0312C107.195 55.0781 108.719 56.1016 110.688 56.1016ZM146.43 33.4375V32.9922H129.672V27.1562H153.508V33.0625L139.375 61H131.969L146.43 33.4375Z" fill="white"/>
<path d="M17.9922 94V81.3672H20.4414L24.9648 91.1641H25.1523L29.6875 81.3672H32.043V94H30.0156V85.0117H29.793L25.7969 93.6484H24.2266L20.2305 85.0117H20.0078V94H17.9922ZM46.8789 81.3672H48.8945V94H46.8789V81.3672ZM38.1953 87.1094V92.3125H40.5742C41.4023 92.3125 42.0664 92.0742 42.5664 91.5977C43.0586 91.1289 43.3047 90.5 43.3047 89.7109C43.3047 88.9219 43.0547 88.2891 42.5547 87.8125C42.0625 87.3438 41.4023 87.1094 40.5742 87.1094H38.1953ZM36.1797 81.3672H38.1953V85.4219H40.5742C42.0195 85.4219 43.1719 85.8086 44.0312 86.582C44.8906 87.3555 45.3203 88.3984 45.3203 89.7109C45.3203 91.0234 44.8906 92.0664 44.0312 92.8398C43.1719 93.6133 42.0195 94 40.5742 94H36.1797V81.3672ZM64.8906 92.4062C66.0859 92.4062 67.0078 91.9922 67.6562 91.1641C68.3047 90.3438 68.6289 89.1836 68.6289 87.6836C68.6289 86.1836 68.3047 85.0195 67.6562 84.1914C67.0078 83.3711 66.0859 82.9609 64.8906 82.9609C63.6953 82.9609 62.7734 83.3711 62.125 84.1914C61.4766 85.0195 61.1523 86.1836 61.1523 87.6836C61.1523 89.1836 61.4766 90.3438 62.125 91.1641C62.7734 91.9922 63.6953 92.4062 64.8906 92.4062ZM64.8906 94.2227C63.0938 94.2227 61.6719 93.6406 60.625 92.4766C59.5859 91.3047 59.0664 89.707 59.0664 87.6836C59.0664 85.6523 59.5859 84.0547 60.625 82.8906C61.6641 81.7266 63.0859 81.1445 64.8906 81.1445C66.6953 81.1445 68.1172 81.7266 69.1562 82.8906C70.1953 84.0547 70.7148 85.6523 70.7148 87.6836C70.7148 89.707 70.1953 91.3047 69.1562 92.4766C68.1094 93.6406 66.6875 94.2227 64.8906 94.2227ZM81.4844 94V88.3047H81.2969C80.3359 89.1016 79.2344 89.5 77.9922 89.5C76.625 89.5 75.5508 89.082 74.7695 88.2461C74.0117 87.4336 73.6328 86.3438 73.6328 84.9766V81.3672H75.6484V84.9766C75.6484 85.8203 75.8633 86.4844 76.293 86.9688C76.7383 87.4609 77.3555 87.707 78.1445 87.707C79.6211 87.707 80.7344 87.1758 81.4844 86.1133V81.3672H83.5V94H81.4844ZM92.5586 82.9258C91.5508 82.9258 90.7227 83.2656 90.0742 83.9453C89.4258 84.625 89.0625 85.5234 88.9844 86.6406H95.9453C95.9219 85.5234 95.6016 84.625 94.9844 83.9453C94.3672 83.2656 93.5586 82.9258 92.5586 82.9258ZM97.9023 90.7305C97.5977 91.8242 96.9805 92.6758 96.0508 93.2852C95.1133 93.9102 93.957 94.2227 92.582 94.2227C90.832 94.2227 89.4453 93.6328 88.4219 92.4531C87.3984 91.2812 86.8867 89.6953 86.8867 87.6953C86.8867 85.7031 87.4023 84.1133 88.4336 82.9258C89.4648 81.7383 90.8477 81.1445 92.582 81.1445C94.2852 81.1445 95.625 81.7109 96.6016 82.8438C97.5781 83.9766 98.0664 85.5273 98.0664 87.4961V88.2695H88.9844V88.3633C89.0391 89.6133 89.3906 90.6055 90.0391 91.3398C90.6953 92.0742 91.5586 92.4414 92.6289 92.4414C94.2617 92.4414 95.3477 91.8711 95.8867 90.7305H97.9023ZM101.453 81.3672H103.469V86.5938H109.891V81.3672H111.906V94H109.891V88.2812H103.469V94H101.453V81.3672ZM117.93 87.1094V92.3125H120.309C121.137 92.3125 121.801 92.0742 122.301 91.5977C122.793 91.1289 123.039 90.5 123.039 89.7109C123.039 88.9219 122.789 88.2891 122.289 87.8125C121.797 87.3438 121.137 87.1094 120.309 87.1094H117.93ZM115.914 81.3672H117.93V85.4219H120.309C121.754 85.4219 122.906 85.8086 123.766 86.582C124.625 87.3555 125.055 88.3984 125.055 89.7109C125.055 91.0234 124.625 92.0664 123.766 92.8398C122.906 93.6133 121.754 94 120.309 94H115.914V81.3672ZM141.695 87.7891V83.0547H139.316C138.48 83.0547 137.816 83.2695 137.324 83.6992C136.832 84.1367 136.586 84.7383 136.586 85.5039C136.586 86.1758 136.836 86.7227 137.336 87.1445C137.836 87.5742 138.496 87.7891 139.316 87.7891H141.695ZM141.695 89.4766H139.527L136.305 94H133.902L137.43 89.1016C136.539 88.8516 135.84 88.4141 135.332 87.7891C134.824 87.1641 134.57 86.418 134.57 85.5508C134.57 84.2539 135 83.2305 135.859 82.4805C136.711 81.7383 137.863 81.3672 139.316 81.3672H143.711V94H141.695V89.4766ZM155.758 83.0547H150.965L150.566 88.457C150.434 90.1602 150.086 91.3828 149.523 92.125V92.3125H155.758V83.0547ZM146.113 97.3398V92.3125H147.168C148.027 91.75 148.527 90.4492 148.668 88.4102L149.16 81.3672H157.773V92.3125H159.789V97.3398H157.891V94H148.012V97.3398H146.113ZM167.641 92.4062C168.836 92.4062 169.758 91.9922 170.406 91.1641C171.055 90.3438 171.379 89.1836 171.379 87.6836C171.379 86.1836 171.055 85.0195 170.406 84.1914C169.758 83.3711 168.836 82.9609 167.641 82.9609C166.445 82.9609 165.523 83.3711 164.875 84.1914C164.227 85.0195 163.902 86.1836 163.902 87.6836C163.902 89.1836 164.227 90.3438 164.875 91.1641C165.523 91.9922 166.445 92.4062 167.641 92.4062ZM167.641 94.2227C165.844 94.2227 164.422 93.6406 163.375 92.4766C162.336 91.3047 161.816 89.707 161.816 87.6836C161.816 85.6523 162.336 84.0547 163.375 82.8906C164.414 81.7266 165.836 81.1445 167.641 81.1445C169.445 81.1445 170.867 81.7266 171.906 82.8906C172.945 84.0547 173.465 85.6523 173.465 87.6836C173.465 89.707 172.945 91.3047 171.906 92.4766C170.859 93.6406 169.438 94.2227 167.641 94.2227ZM178.867 83.0547V86.6172H181.68C183.266 86.6172 184.059 86.0156 184.059 84.8125C184.059 83.6406 183.375 83.0547 182.008 83.0547H178.867ZM178.867 88.3047V92.3125H182.242C183.82 92.3125 184.609 91.6523 184.609 90.332C184.609 88.9805 183.691 88.3047 181.855 88.3047H178.867ZM176.852 81.3672H182.266C183.445 81.3672 184.375 81.6602 185.055 82.2461C185.719 82.8242 186.051 83.6094 186.051 84.6016C186.051 85.2266 185.855 85.793 185.465 86.3008C185.066 86.8164 184.574 87.1367 183.988 87.2617V87.4492C184.785 87.5586 185.422 87.8828 185.898 88.4219C186.375 88.9531 186.613 89.6016 186.613 90.3672C186.613 91.4766 186.234 92.3555 185.477 93.0039C184.703 93.668 183.641 94 182.289 94H176.852V81.3672ZM190.07 94V81.3672H192.086V90.7891H192.273L198.684 81.3672H200.699V94H198.684V84.5781H198.496L192.086 94H190.07ZM213.871 83.0547H209.77V94H207.754V83.0547H203.652V81.3672H213.871V83.0547ZM227.629 81.3672H229.645V94H227.629V81.3672ZM218.945 87.1094V92.3125H221.324C222.152 92.3125 222.816 92.0742 223.316 91.5977C223.809 91.1289 224.055 90.5 224.055 89.7109C224.055 88.9219 223.805 88.2891 223.305 87.8125C222.812 87.3438 222.152 87.1094 221.324 87.1094H218.945ZM216.93 81.3672H218.945V85.4219H221.324C222.77 85.4219 223.922 85.8086 224.781 86.582C225.641 87.3555 226.07 88.3984 226.07 89.7109C226.07 91.0234 225.641 92.0664 224.781 92.8398C223.922 93.6133 222.77 94 221.324 94H216.93V81.3672Z" fill="white"/>
<defs>
<filter id="filter0_b" x="-20" y="-20" width="729" height="160" filterUnits="userSpaceOnUse" color-interpolation-filters="sRGB">
<feFlood flood-opacity="0" result="BackgroundImageFix"/>
<feGaussianBlur in="BackgroundImage" stdDeviation="10"/>
<feComposite in2="SourceAlpha" operator="in" result="effect1_backgroundBlur"/>
<feBlend mode="normal" in="SourceGraphic" in2="effect1_backgroundBlur" result="shape"/>
</filter>
</defs>
</svg>
