<svg width="689" height="121" viewBox="0 0 689 121" fill="none" xmlns="http://www.w3.org/2000/svg">
<g filter="url(#filter0_b)">
<rect width="689" height="121" rx="8" fill="white" fill-opacity="0.2"/>
</g>
<path d="M26.5781 35.0703H26.1562L17.8594 40.7891V34.2031L26.6016 28.1797H33.6562V62H26.5781V35.0703ZM51.3047 42.0547H55.4297C57.0391 42.0547 58.3359 41.625 59.3203 40.7656C60.3203 39.9062 60.8203 38.7891 60.8203 37.4141C60.8203 36.0547 60.3281 34.9688 59.3438 34.1562C58.375 33.3594 57.0625 32.9609 55.4062 32.9609C53.7656 32.9609 52.4375 33.3906 51.4219 34.25C50.4062 35.1094 49.8516 36.2734 49.7578 37.7422H43.2188C43.3438 34.5391 44.5156 32 46.7344 30.125C48.9531 28.25 51.9062 27.3125 55.5938 27.3125C59.0625 27.3125 61.9219 28.1641 64.1719 29.8672C66.4062 31.5859 67.5234 33.7734 67.5234 36.4297C67.5234 38.3828 66.9531 40.0625 65.8125 41.4688C64.6875 42.875 63.1797 43.7734 61.2891 44.1641V44.5859C63.6172 44.8516 65.4531 45.7031 66.7969 47.1406C68.1562 48.5938 68.8359 50.4297 68.8359 52.6484C68.8359 55.6172 67.5859 58.0625 65.0859 59.9844C62.5859 61.9062 59.4062 62.8672 55.5469 62.8672C51.7812 62.8672 48.7188 61.9062 46.3594 59.9844C44 58.0625 42.7422 55.5078 42.5859 52.3203H49.3594C49.4688 53.7578 50.0859 54.8906 51.2109 55.7188C52.3359 56.5625 53.8047 56.9844 55.6172 56.9844C57.3828 56.9844 58.8281 56.5312 59.9531 55.625C61.0625 54.7188 61.6172 53.5469 61.6172 52.1094C61.6172 50.625 61.0703 49.4609 59.9766 48.6172C58.8828 47.7578 57.3906 47.3281 55.5 47.3281H51.3047V42.0547ZM78.3047 62.6328C77.0703 62.6328 76.0625 62.25 75.2812 61.4844C74.5312 60.7188 74.1562 59.7422 74.1562 58.5547C74.1562 57.3672 74.5312 56.3984 75.2812 55.6484C76.0469 54.8828 77.0547 54.5 78.3047 54.5C79.5547 54.5 80.5625 54.8828 81.3281 55.6484C82.0781 56.3828 82.4531 57.3516 82.4531 58.5547C82.4531 59.7578 82.0781 60.7344 81.3281 61.4844C80.5625 62.25 79.5547 62.6328 78.3047 62.6328ZM100.594 62.8672C96.4062 62.8672 93.125 61.2969 90.75 58.1562C88.3594 55 87.1641 50.625 87.1641 45.0312C87.1641 39.4531 88.3594 35.1016 90.75 31.9766C93.125 28.8672 96.4062 27.3125 100.594 27.3125C104.766 27.3125 108.039 28.8672 110.414 31.9766C112.82 35.1172 114.023 39.4766 114.023 45.0547C114.023 50.6328 112.828 55 110.438 58.1562C108.062 61.2969 104.781 62.8672 100.594 62.8672ZM100.594 57.1016C102.562 57.1016 104.094 56.0781 105.188 54.0312C106.297 51.9375 106.852 48.9375 106.852 45.0312C106.852 41.1562 106.289 38.1797 105.164 36.1016C104.086 34.1016 102.562 33.1016 100.594 33.1016C98.6406 33.1016 97.1172 34.1094 96.0234 36.125C94.8984 38.2031 94.3359 41.1719 94.3359 45.0312C94.3359 48.9219 94.8984 51.9219 96.0234 54.0312C97.1016 56.0781 98.625 57.1016 100.594 57.1016ZM136.336 34.4375V33.9922H119.578V28.1562H143.414V34.0625L129.281 62H121.875L136.336 34.4375Z" fill="white"/>
<path d="M25.418 86.2344C25.2461 85.5703 24.8906 85.0352 24.3516 84.6289C23.7578 84.1836 23.0273 83.9609 22.1602 83.9609C21.0273 83.9609 20.125 84.3828 19.4531 85.2266C18.7891 86.0703 18.457 87.207 18.457 88.6367C18.457 90.0898 18.793 91.25 19.4648 92.1172C20.1367 92.9766 21.0352 93.4062 22.1602 93.4062C23.9414 93.4062 25.0273 92.668 25.418 91.1914H27.457C27.2695 92.3867 26.7227 93.3477 25.8164 94.0742C24.8633 94.8398 23.6484 95.2227 22.1719 95.2227C20.3984 95.2227 18.9883 94.6289 17.9414 93.4414C16.8945 92.2461 16.3711 90.6445 16.3711 88.6367C16.3711 86.668 16.8945 85.0938 17.9414 83.9141C18.9883 82.7344 20.3945 82.1445 22.1602 82.1445C23.6367 82.1445 24.8594 82.543 25.8281 83.3398C26.7266 84.0898 27.2695 85.0547 27.457 86.2344H25.418ZM34.5586 93.4531C35.5977 93.4531 36.457 93.1523 37.1367 92.5508C37.8242 91.9492 38.168 91.1953 38.168 90.2891V89.1289L34.7695 89.3516C32.9258 89.4766 32.0039 90.1641 32.0039 91.4141C32.0039 92.0469 32.2461 92.5469 32.7305 92.9141C33.1992 93.2734 33.8086 93.4531 34.5586 93.4531ZM34.1836 95.2227C32.9414 95.2227 31.9258 94.8828 31.1367 94.2031C30.3242 93.5156 29.918 92.6016 29.918 91.4609C29.918 90.3359 30.3164 89.4531 31.1133 88.8125C31.9102 88.1719 33.0469 87.8086 34.5234 87.7227L38.168 87.5V86.3516C38.168 84.7422 37.2148 83.9375 35.3086 83.9375C33.707 83.9375 32.7578 84.4609 32.4609 85.5078H30.4219C30.5547 84.5 31.0781 83.6875 31.9922 83.0703C32.8984 82.4531 34.0273 82.1445 35.3789 82.1445C36.9102 82.1445 38.0977 82.5156 38.9414 83.2578C39.7695 84 40.1836 85.0312 40.1836 86.3516V95H38.2617V93.1367H38.0742C37.2305 94.5273 35.9336 95.2227 34.1836 95.2227ZM48.5977 90.2305L45.5977 95H43.3125L47.6367 88.6836L43.2656 82.3672H45.668L48.668 87.0664H48.8555L51.8203 82.3672H54.1055L49.8164 88.6016L54.1641 95H51.7734L48.7852 90.2305H48.5977ZM60.9258 93.4531C61.9648 93.4531 62.8242 93.1523 63.5039 92.5508C64.1914 91.9492 64.5352 91.1953 64.5352 90.2891V89.1289L61.1367 89.3516C59.293 89.4766 58.3711 90.1641 58.3711 91.4141C58.3711 92.0469 58.6133 92.5469 59.0977 92.9141C59.5664 93.2734 60.1758 93.4531 60.9258 93.4531ZM60.5508 95.2227C59.3086 95.2227 58.293 94.8828 57.5039 94.2031C56.6914 93.5156 56.2852 92.6016 56.2852 91.4609C56.2852 90.3359 56.6836 89.4531 57.4805 88.8125C58.2773 88.1719 59.4141 87.8086 60.8906 87.7227L64.5352 87.5V86.3516C64.5352 84.7422 63.582 83.9375 61.6758 83.9375C60.0742 83.9375 59.125 84.4609 58.8281 85.5078H56.7891C56.9219 84.5 57.4453 83.6875 58.3594 83.0703C59.2656 82.4531 60.3945 82.1445 61.7461 82.1445C63.2773 82.1445 64.4648 82.5156 65.3086 83.2578C66.1367 84 66.5508 85.0312 66.5508 86.3516V95H64.6289V93.1367H64.4414C63.5977 94.5273 62.3008 95.2227 60.5508 95.2227ZM76.8164 82.1445C78.4258 82.1445 79.7148 82.7383 80.6836 83.9258C81.6445 85.1133 82.125 86.6992 82.125 88.6836C82.125 90.6602 81.6406 92.2422 80.6719 93.4297C79.7031 94.625 78.418 95.2227 76.8164 95.2227C74.918 95.2227 73.6016 94.5156 72.8672 93.1016H72.6797V99.2188H70.6641V82.3672H72.5859V84.4766H72.7734C73.1797 83.75 73.7383 83.1797 74.4492 82.7656C75.168 82.3516 75.957 82.1445 76.8164 82.1445ZM76.3359 93.4062C77.4922 93.4062 78.3984 92.9883 79.0547 92.1523C79.7109 91.3164 80.0391 90.1602 80.0391 88.6836C80.0391 87.207 79.7109 86.0508 79.0547 85.2148C78.4062 84.3789 77.5039 83.9609 76.3477 83.9609C75.207 83.9609 74.3008 84.3828 73.6289 85.2266C72.957 86.0781 72.6211 87.2305 72.6211 88.6836C72.6211 90.1289 72.957 91.2773 73.6289 92.1289C74.293 92.9805 75.1953 93.4062 76.3359 93.4062ZM85.5234 82.3672H87.5391V87.5938H93.9609V82.3672H95.9766V95H93.9609V89.2812H87.5391V95H85.5234V82.3672ZM110.801 82.3672H112.816V95H110.801V82.3672ZM102.117 88.1094V93.3125H104.496C105.324 93.3125 105.988 93.0742 106.488 92.5977C106.98 92.1289 107.227 91.5 107.227 90.7109C107.227 89.9219 106.977 89.2891 106.477 88.8125C105.984 88.3438 105.324 88.1094 104.496 88.1094H102.117ZM100.102 82.3672H102.117V86.4219H104.496C105.941 86.4219 107.094 86.8086 107.953 87.582C108.812 88.3555 109.242 89.3984 109.242 90.7109C109.242 92.0234 108.812 93.0664 107.953 93.8398C107.094 94.6133 105.941 95 104.496 95H100.102V82.3672ZM116.836 95V82.3672H118.852V91.7891H119.039L125.449 82.3672H127.465V95H125.449V85.5781H125.262L118.852 95H116.836ZM119.73 76.7656C119.73 77.4375 119.926 78.0078 120.316 78.4766C120.723 78.9766 121.254 79.2266 121.91 79.2266C122.574 79.2266 123.113 78.9766 123.527 78.4766C123.918 78.0078 124.113 77.4375 124.113 76.7656H125.941C125.941 77.8672 125.57 78.7812 124.828 79.5078C124.078 80.2422 123.105 80.6094 121.91 80.6094C120.723 80.6094 119.754 80.2422 119.004 79.5078C118.27 78.7891 117.902 77.875 117.902 76.7656H119.73ZM138.258 95V82.3672H140.707L145.23 92.1641H145.418L149.953 82.3672H152.309V95H150.281V86.0117H150.059L146.062 94.6484H144.492L140.496 86.0117H140.273V95H138.258ZM160.23 93.4531C161.27 93.4531 162.129 93.1523 162.809 92.5508C163.496 91.9492 163.84 91.1953 163.84 90.2891V89.1289L160.441 89.3516C158.598 89.4766 157.676 90.1641 157.676 91.4141C157.676 92.0469 157.918 92.5469 158.402 92.9141C158.871 93.2734 159.48 93.4531 160.23 93.4531ZM159.855 95.2227C158.613 95.2227 157.598 94.8828 156.809 94.2031C155.996 93.5156 155.59 92.6016 155.59 91.4609C155.59 90.3359 155.988 89.4531 156.785 88.8125C157.582 88.1719 158.719 87.8086 160.195 87.7227L163.84 87.5V86.3516C163.84 84.7422 162.887 83.9375 160.98 83.9375C159.379 83.9375 158.43 84.4609 158.133 85.5078H156.094C156.227 84.5 156.75 83.6875 157.664 83.0703C158.57 82.4531 159.699 82.1445 161.051 82.1445C162.582 82.1445 163.77 82.5156 164.613 83.2578C165.441 84 165.855 85.0312 165.855 86.3516V95H163.934V93.1367H163.746C162.902 94.5273 161.605 95.2227 159.855 95.2227ZM178.395 86.2344C178.223 85.5703 177.867 85.0352 177.328 84.6289C176.734 84.1836 176.004 83.9609 175.137 83.9609C174.004 83.9609 173.102 84.3828 172.43 85.2266C171.766 86.0703 171.434 87.207 171.434 88.6367C171.434 90.0898 171.77 91.25 172.441 92.1172C173.113 92.9766 174.012 93.4062 175.137 93.4062C176.918 93.4062 178.004 92.668 178.395 91.1914H180.434C180.246 92.3867 179.699 93.3477 178.793 94.0742C177.84 94.8398 176.625 95.2227 175.148 95.2227C173.375 95.2227 171.965 94.6289 170.918 93.4414C169.871 92.2461 169.348 90.6445 169.348 88.6367C169.348 86.668 169.871 85.0938 170.918 83.9141C171.965 82.7344 173.371 82.1445 175.137 82.1445C176.613 82.1445 177.836 82.543 178.805 83.3398C179.703 84.0898 180.246 85.0547 180.434 86.2344H178.395ZM192.199 84.0547H188.098V95H186.082V84.0547H181.98V82.3672H192.199V84.0547ZM199.723 83.9258C198.715 83.9258 197.887 84.2656 197.238 84.9453C196.59 85.625 196.227 86.5234 196.148 87.6406H203.109C203.086 86.5234 202.766 85.625 202.148 84.9453C201.531 84.2656 200.723 83.9258 199.723 83.9258ZM205.066 91.7305C204.762 92.8242 204.145 93.6758 203.215 94.2852C202.277 94.9102 201.121 95.2227 199.746 95.2227C197.996 95.2227 196.609 94.6328 195.586 93.4531C194.562 92.2812 194.051 90.6953 194.051 88.6953C194.051 86.7031 194.566 85.1133 195.598 83.9258C196.629 82.7383 198.012 82.1445 199.746 82.1445C201.449 82.1445 202.789 82.7109 203.766 83.8438C204.742 84.9766 205.23 86.5273 205.23 88.4961V89.2695H196.148V89.3633C196.203 90.6133 196.555 91.6055 197.203 92.3398C197.859 93.0742 198.723 93.4414 199.793 93.4414C201.426 93.4414 202.512 92.8711 203.051 91.7305H205.066ZM214.77 82.1445C216.379 82.1445 217.668 82.7383 218.637 83.9258C219.598 85.1133 220.078 86.6992 220.078 88.6836C220.078 90.6602 219.594 92.2422 218.625 93.4297C217.656 94.625 216.371 95.2227 214.77 95.2227C212.871 95.2227 211.555 94.5156 210.82 93.1016H210.633V99.2188H208.617V82.3672H210.539V84.4766H210.727C211.133 83.75 211.691 83.1797 212.402 82.7656C213.121 82.3516 213.91 82.1445 214.77 82.1445ZM214.289 93.4062C215.445 93.4062 216.352 92.9883 217.008 92.1523C217.664 91.3164 217.992 90.1602 217.992 88.6836C217.992 87.207 217.664 86.0508 217.008 85.2148C216.359 84.3789 215.457 83.9609 214.301 83.9609C213.16 83.9609 212.254 84.3828 211.582 85.2266C210.91 86.0781 210.574 87.2305 210.574 88.6836C210.574 90.1289 210.91 91.2773 211.582 92.1289C212.246 92.9805 213.148 93.4062 214.289 93.4062ZM223.289 89.1523V87.2422H230.977V89.1523H223.289ZM237.363 87.6523L242.367 82.3672H244.816L239.027 88.3203L245.039 95H242.426L237.363 89.2461H236.812V95H234.797V82.3672H236.812V87.6523H237.363ZM250.887 89.457C250.746 91.332 250.422 92.707 249.914 93.582C249.328 94.5977 248.414 95.1055 247.172 95.1055C246.883 95.1055 246.637 95.0625 246.434 94.9766V93.125C246.621 93.1875 246.832 93.2188 247.066 93.2188C247.66 93.2188 248.113 92.875 248.426 92.1875C248.699 91.5859 248.879 90.6602 248.965 89.4102L249.457 82.3672H257.719V95H255.703V84.0547H251.285L250.887 89.457ZM265.629 93.4531C266.668 93.4531 267.527 93.1523 268.207 92.5508C268.895 91.9492 269.238 91.1953 269.238 90.2891V89.1289L265.84 89.3516C263.996 89.4766 263.074 90.1641 263.074 91.4141C263.074 92.0469 263.316 92.5469 263.801 92.9141C264.27 93.2734 264.879 93.4531 265.629 93.4531ZM265.254 95.2227C264.012 95.2227 262.996 94.8828 262.207 94.2031C261.395 93.5156 260.988 92.6016 260.988 91.4609C260.988 90.3359 261.387 89.4531 262.184 88.8125C262.98 88.1719 264.117 87.8086 265.594 87.7227L269.238 87.5V86.3516C269.238 84.7422 268.285 83.9375 266.379 83.9375C264.777 83.9375 263.828 84.4609 263.531 85.5078H261.492C261.625 84.5 262.148 83.6875 263.062 83.0703C263.969 82.4531 265.098 82.1445 266.449 82.1445C267.98 82.1445 269.168 82.5156 270.012 83.2578C270.84 84 271.254 85.0312 271.254 86.3516V95H269.332V93.1367H269.145C268.301 94.5273 267.004 95.2227 265.254 95.2227ZM283.793 86.2344C283.621 85.5703 283.266 85.0352 282.727 84.6289C282.133 84.1836 281.402 83.9609 280.535 83.9609C279.402 83.9609 278.5 84.3828 277.828 85.2266C277.164 86.0703 276.832 87.207 276.832 88.6367C276.832 90.0898 277.168 91.25 277.84 92.1172C278.512 92.9766 279.41 93.4062 280.535 93.4062C282.316 93.4062 283.402 92.668 283.793 91.1914H285.832C285.645 92.3867 285.098 93.3477 284.191 94.0742C283.238 94.8398 282.023 95.2227 280.547 95.2227C278.773 95.2227 277.363 94.6289 276.316 93.4414C275.27 92.2461 274.746 90.6445 274.746 88.6367C274.746 86.668 275.27 85.0938 276.316 83.9141C277.363 82.7344 278.77 82.1445 280.535 82.1445C282.012 82.1445 283.234 82.543 284.203 83.3398C285.102 84.0898 285.645 85.0547 285.832 86.2344H283.793ZM297.457 86.2344C297.285 85.5703 296.93 85.0352 296.391 84.6289C295.797 84.1836 295.066 83.9609 294.199 83.9609C293.066 83.9609 292.164 84.3828 291.492 85.2266C290.828 86.0703 290.496 87.207 290.496 88.6367C290.496 90.0898 290.832 91.25 291.504 92.1172C292.176 92.9766 293.074 93.4062 294.199 93.4062C295.98 93.4062 297.066 92.668 297.457 91.1914H299.496C299.309 92.3867 298.762 93.3477 297.855 94.0742C296.902 94.8398 295.688 95.2227 294.211 95.2227C292.438 95.2227 291.027 94.6289 289.98 93.4414C288.934 92.2461 288.41 90.6445 288.41 88.6367C288.41 86.668 288.934 85.0938 289.98 83.9141C291.027 82.7344 292.434 82.1445 294.199 82.1445C295.676 82.1445 296.898 82.543 297.867 83.3398C298.766 84.0898 299.309 85.0547 299.496 86.2344H297.457Z" fill="white"/>
<defs>
<filter id="filter0_b" x="-20" y="-20" width="729" height="161" filterUnits="userSpaceOnUse" color-interpolation-filters="sRGB">
<feFlood flood-opacity="0" result="BackgroundImageFix"/>
<feGaussianBlur in="BackgroundImage" stdDeviation="10"/>
<feComposite in2="SourceAlpha" operator="in" result="effect1_backgroundBlur"/>
<feBlend mode="normal" in="SourceGraphic" in2="effect1_backgroundBlur" result="shape"/>
</filter>
</defs>
</svg>
