<svg width="689" height="121" viewBox="0 0 689 121" fill="none" xmlns="http://www.w3.org/2000/svg">
<g filter="url(#filter0_b)">
<rect width="689" height="121" rx="8" fill="white" fill-opacity="0.2"/>
</g>
<path d="M26.5781 35.0703H26.1562L17.8594 40.7891V34.2031L26.6016 28.1797H33.6562V62H26.5781V35.0703ZM58.9453 34.4375V33.9922H42.1875V28.1562H66.0234V34.0625L51.8906 62H44.4844L58.9453 34.4375ZM70.5703 62.6328C69.3359 62.6328 68.3281 62.25 67.5469 61.4844C66.7969 60.7188 66.4219 59.7422 66.4219 58.5547C66.4219 57.3672 66.7969 56.3984 67.5469 55.6484C68.3125 54.8828 69.3203 54.5 70.5703 54.5C71.8203 54.5 72.8281 54.8828 73.5938 55.6484C74.3438 56.3828 74.7188 57.3516 74.7188 58.5547C74.7188 59.7578 74.3438 60.7344 73.5938 61.4844C72.8281 62.25 71.8203 62.6328 70.5703 62.6328ZM92.8594 62.8672C88.6719 62.8672 85.3906 61.2969 83.0156 58.1562C80.625 55 79.4297 50.625 79.4297 45.0312C79.4297 39.4531 80.625 35.1016 83.0156 31.9766C85.3906 28.8672 88.6719 27.3125 92.8594 27.3125C97.0312 27.3125 100.305 28.8672 102.68 31.9766C105.086 35.1172 106.289 39.4766 106.289 45.0547C106.289 50.6328 105.094 55 102.703 58.1562C100.328 61.2969 97.0469 62.8672 92.8594 62.8672ZM92.8594 57.1016C94.8281 57.1016 96.3594 56.0781 97.4531 54.0312C98.5625 51.9375 99.1172 48.9375 99.1172 45.0312C99.1172 41.1562 98.5547 38.1797 97.4297 36.1016C96.3516 34.1016 94.8281 33.1016 92.8594 33.1016C90.9062 33.1016 89.3828 34.1094 88.2891 36.125C87.1641 38.2031 86.6016 41.1719 86.6016 45.0312C86.6016 48.9219 87.1641 51.9219 88.2891 54.0312C89.3672 56.0781 90.8906 57.1016 92.8594 57.1016ZM128.602 34.4375V33.9922H111.844V28.1562H135.68V34.0625L121.547 62H114.141L128.602 34.4375Z" fill="white"/>
<path d="M19.0078 84.0547V87.6172H21.8203C23.4062 87.6172 24.1992 87.0156 24.1992 85.8125C24.1992 84.6406 23.5156 84.0547 22.1484 84.0547H19.0078ZM19.0078 89.3047V93.3125H22.3828C23.9609 93.3125 24.75 92.6523 24.75 91.332C24.75 89.9805 23.832 89.3047 21.9961 89.3047H19.0078ZM16.9922 82.3672H22.4062C23.5859 82.3672 24.5156 82.6602 25.1953 83.2461C25.8594 83.8242 26.1914 84.6094 26.1914 85.6016C26.1914 86.2266 25.9961 86.793 25.6055 87.3008C25.207 87.8164 24.7148 88.1367 24.1289 88.2617V88.4492C24.9258 88.5586 25.5625 88.8828 26.0391 89.4219C26.5156 89.9531 26.7539 90.6016 26.7539 91.3672C26.7539 92.4766 26.375 93.3555 25.6172 94.0039C24.8438 94.668 23.7812 95 22.4297 95H16.9922V82.3672ZM41.0273 82.3672H43.043V95H41.0273V82.3672ZM32.3438 88.1094V93.3125H34.7227C35.5508 93.3125 36.2148 93.0742 36.7148 92.5977C37.207 92.1289 37.4531 91.5 37.4531 90.7109C37.4531 89.9219 37.2031 89.2891 36.7031 88.8125C36.2109 88.3438 35.5508 88.1094 34.7227 88.1094H32.3438ZM30.3281 82.3672H32.3438V86.4219H34.7227C36.168 86.4219 37.3203 86.8086 38.1797 87.582C39.0391 88.3555 39.4688 89.3984 39.4688 90.7109C39.4688 92.0234 39.0391 93.0664 38.1797 93.8398C37.3203 94.6133 36.168 95 34.7227 95H30.3281V82.3672ZM55.4883 86.2344C55.3164 85.5703 54.9609 85.0352 54.4219 84.6289C53.8281 84.1836 53.0977 83.9609 52.2305 83.9609C51.0977 83.9609 50.1953 84.3828 49.5234 85.2266C48.8594 86.0703 48.5273 87.207 48.5273 88.6367C48.5273 90.0898 48.8633 91.25 49.5352 92.1172C50.207 92.9766 51.1055 93.4062 52.2305 93.4062C54.0117 93.4062 55.0977 92.668 55.4883 91.1914H57.5273C57.3398 92.3867 56.793 93.3477 55.8867 94.0742C54.9336 94.8398 53.7188 95.2227 52.2422 95.2227C50.4688 95.2227 49.0586 94.6289 48.0117 93.4414C46.9648 92.2461 46.4414 90.6445 46.4414 88.6367C46.4414 86.668 46.9648 85.0938 48.0117 83.9141C49.0586 82.7344 50.4648 82.1445 52.2305 82.1445C53.707 82.1445 54.9297 82.543 55.8984 83.3398C56.7969 84.0898 57.3398 85.0547 57.5273 86.2344H55.4883ZM69.293 84.0547H65.1914V95H63.1758V84.0547H59.0742V82.3672H69.293V84.0547ZM73.3242 99.582C73.0039 99.582 72.7031 99.5586 72.4219 99.5117V97.7891C72.625 97.8281 72.9062 97.8477 73.2656 97.8477C73.8438 97.8477 74.3086 97.6914 74.6602 97.3789C75.0117 97.0586 75.3203 96.5195 75.5859 95.7617L75.8203 95.0117L71.1445 82.3672H73.3242L76.793 92.7617H76.9805L80.4375 82.3672H82.582L77.6484 95.7734C77.1094 97.2344 76.5352 98.2344 75.9258 98.7734C75.3086 99.3125 74.4414 99.582 73.3242 99.582ZM93.8203 84.0547H87.5156V95H85.5V82.3672H95.8359V95H93.8203V84.0547ZM102.879 89.457C102.738 91.332 102.414 92.707 101.906 93.582C101.32 94.5977 100.406 95.1055 99.1641 95.1055C98.875 95.1055 98.6289 95.0625 98.4258 94.9766V93.125C98.6133 93.1875 98.8242 93.2188 99.0586 93.2188C99.6523 93.2188 100.105 92.875 100.418 92.1875C100.691 91.5859 100.871 90.6602 100.957 89.4102L101.449 82.3672H109.711V95H107.695V84.0547H103.277L102.879 89.457ZM118.77 83.9258C117.762 83.9258 116.934 84.2656 116.285 84.9453C115.637 85.625 115.273 86.5234 115.195 87.6406H122.156C122.133 86.5234 121.812 85.625 121.195 84.9453C120.578 84.2656 119.77 83.9258 118.77 83.9258ZM124.113 91.7305C123.809 92.8242 123.191 93.6758 122.262 94.2852C121.324 94.9102 120.168 95.2227 118.793 95.2227C117.043 95.2227 115.656 94.6328 114.633 93.4531C113.609 92.2812 113.098 90.6953 113.098 88.6953C113.098 86.7031 113.613 85.1133 114.645 83.9258C115.676 82.7383 117.059 82.1445 118.793 82.1445C120.496 82.1445 121.836 82.7109 122.812 83.8438C123.789 84.9766 124.277 86.5273 124.277 88.4961V89.2695H115.195V89.3633C115.25 90.6133 115.602 91.6055 116.25 92.3398C116.906 93.0742 117.77 93.4414 118.84 93.4414C120.473 93.4414 121.559 92.8711 122.098 91.7305H124.113ZM127.664 82.3672H129.68V87.5938H136.102V82.3672H138.117V95H136.102V89.2812H129.68V95H127.664V82.3672ZM142.125 95V82.3672H144.141V91.7891H144.328L150.738 82.3672H152.754V95H150.738V85.5781H150.551L144.141 95H142.125ZM161.824 83.9258C160.816 83.9258 159.988 84.2656 159.34 84.9453C158.691 85.625 158.328 86.5234 158.25 87.6406H165.211C165.188 86.5234 164.867 85.625 164.25 84.9453C163.633 84.2656 162.824 83.9258 161.824 83.9258ZM167.168 91.7305C166.863 92.8242 166.246 93.6758 165.316 94.2852C164.379 94.9102 163.223 95.2227 161.848 95.2227C160.098 95.2227 158.711 94.6328 157.688 93.4531C156.664 92.2812 156.152 90.6953 156.152 88.6953C156.152 86.7031 156.668 85.1133 157.699 83.9258C158.73 82.7383 160.113 82.1445 161.848 82.1445C163.551 82.1445 164.891 82.7109 165.867 83.8438C166.844 84.9766 167.332 86.5273 167.332 88.4961V89.2695H158.25V89.3633C158.305 90.6133 158.656 91.6055 159.305 92.3398C159.961 93.0742 160.824 93.4414 161.895 93.4414C163.527 93.4414 164.613 92.8711 165.152 91.7305H167.168ZM179.508 84.0547V95H177.492V82.3672H185.578V84.0547H179.508ZM194.801 82.1445C196.41 82.1445 197.699 82.7383 198.668 83.9258C199.629 85.1133 200.109 86.6992 200.109 88.6836C200.109 90.6602 199.625 92.2422 198.656 93.4297C197.688 94.625 196.402 95.2227 194.801 95.2227C192.902 95.2227 191.586 94.5156 190.852 93.1016H190.664V99.2188H188.648V82.3672H190.57V84.4766H190.758C191.164 83.75 191.723 83.1797 192.434 82.7656C193.152 82.3516 193.941 82.1445 194.801 82.1445ZM194.32 93.4062C195.477 93.4062 196.383 92.9883 197.039 92.1523C197.695 91.3164 198.023 90.1602 198.023 88.6836C198.023 87.207 197.695 86.0508 197.039 85.2148C196.391 84.3789 195.488 83.9609 194.332 83.9609C193.191 83.9609 192.285 84.3828 191.613 85.2266C190.941 86.0781 190.605 87.2305 190.605 88.6836C190.605 90.1289 190.941 91.2773 191.613 92.1289C192.277 92.9805 193.18 93.4062 194.32 93.4062ZM204.129 99.582C203.809 99.582 203.508 99.5586 203.227 99.5117V97.7891C203.43 97.8281 203.711 97.8477 204.07 97.8477C204.648 97.8477 205.113 97.6914 205.465 97.3789C205.816 97.0586 206.125 96.5195 206.391 95.7617L206.625 95.0117L201.949 82.3672H204.129L207.598 92.7617H207.785L211.242 82.3672H213.387L208.453 95.7734C207.914 97.2344 207.34 98.2344 206.73 98.7734C206.113 99.3125 205.246 99.582 204.129 99.582ZM224.625 84.0547H218.32V95H216.305V82.3672H226.641V95H224.625V84.0547ZM238.969 84.0547H232.664V95H230.648V82.3672H240.984V95H238.969V84.0547ZM255.809 82.3672H257.824V95H255.809V82.3672ZM247.125 88.1094V93.3125H249.504C250.332 93.3125 250.996 93.0742 251.496 92.5977C251.988 92.1289 252.234 91.5 252.234 90.7109C252.234 89.9219 251.984 89.2891 251.484 88.8125C250.992 88.3438 250.332 88.1094 249.504 88.1094H247.125ZM245.109 82.3672H247.125V86.4219H249.504C250.949 86.4219 252.102 86.8086 252.961 87.582C253.82 88.3555 254.25 89.3984 254.25 90.7109C254.25 92.0234 253.82 93.0664 252.961 93.8398C252.102 94.6133 250.949 95 249.504 95H245.109V82.3672ZM276.703 88.4727L280.816 93.3008H278.414L274.312 88.4258V88.332L278.426 83.457H280.816L276.703 88.2852V88.4727ZM271.09 88.4727L275.203 93.3008H272.812L268.711 88.4258V88.332L272.812 83.457H275.203L271.09 88.2852V88.4727ZM293.848 84.0547H289.746V95H287.73V84.0547H283.629V82.3672H293.848V84.0547ZM299.355 89.457C299.215 91.332 298.891 92.707 298.383 93.582C297.797 94.5977 296.883 95.1055 295.641 95.1055C295.352 95.1055 295.105 95.0625 294.902 94.9766V93.125C295.09 93.1875 295.301 93.2188 295.535 93.2188C296.129 93.2188 296.582 92.875 296.895 92.1875C297.168 91.5859 297.348 90.6602 297.434 89.4102L297.926 82.3672H306.188V95H304.172V84.0547H299.754L299.355 89.457ZM316.922 88.7891V84.0547H314.543C313.707 84.0547 313.043 84.2695 312.551 84.6992C312.059 85.1367 311.812 85.7383 311.812 86.5039C311.812 87.1758 312.062 87.7227 312.562 88.1445C313.062 88.5742 313.723 88.7891 314.543 88.7891H316.922ZM316.922 90.4766H314.754L311.531 95H309.129L312.656 90.1016C311.766 89.8516 311.066 89.4141 310.559 88.7891C310.051 88.1641 309.797 87.418 309.797 86.5508C309.797 85.2539 310.227 84.2305 311.086 83.4805C311.938 82.7383 313.09 82.3672 314.543 82.3672H318.938V95H316.922V90.4766ZM323.039 83.457H325.43L329.543 88.332V88.4258L325.441 93.3008H323.039L327.152 88.4727V88.2852L323.039 83.457ZM328.652 83.457H331.043L335.145 88.332V88.4258L331.043 93.3008H328.652L332.766 88.4727V88.2852L328.652 83.457Z" fill="white"/>
<defs>
<filter id="filter0_b" x="-20" y="-20" width="729" height="161" filterUnits="userSpaceOnUse" color-interpolation-filters="sRGB">
<feFlood flood-opacity="0" result="BackgroundImageFix"/>
<feGaussianBlur in="BackgroundImage" stdDeviation="10"/>
<feComposite in2="SourceAlpha" operator="in" result="effect1_backgroundBlur"/>
<feBlend mode="normal" in="SourceGraphic" in2="effect1_backgroundBlur" result="shape"/>
</filter>
</defs>
</svg>
