<svg width="689" height="121" viewBox="0 0 689 121" fill="none" xmlns="http://www.w3.org/2000/svg">
<g filter="url(#filter0_b)">
<rect width="689" height="121" rx="8" fill="white" fill-opacity="0.2"/>
</g>
<path d="M18 37.3047C18 34.0391 19.1406 31.3906 21.4219 29.3594C23.7031 27.3281 26.6719 26.3125 30.3281 26.3125C33.8594 26.3125 36.7344 27.2266 38.9531 29.0547C41.1875 30.8984 42.3047 33.2734 42.3047 36.1797C42.3047 38.0234 41.7266 39.8516 40.5703 41.6641C39.4141 43.4922 37.375 45.7812 34.4531 48.5312L27.9844 54.6953V55.1172H42.7969V61H18.3984V56.0547L29.4375 45.25C31.8125 42.9375 33.3984 41.1953 34.1953 40.0234C34.9922 38.8828 35.3906 37.7578 35.3906 36.6484C35.3906 35.2891 34.8984 34.1719 33.9141 33.2969C32.9141 32.4375 31.6406 32.0078 30.0938 32.0078C28.4531 32.0078 27.125 32.5 26.1094 33.4844C25.0781 34.4531 24.5625 35.7188 24.5625 37.2812V37.4219H18V37.3047ZM57.4688 34.0703H57.0469L48.75 39.7891V33.2031L57.4922 27.1797H64.5469V61H57.4688V34.0703ZM77.5547 61.6328C76.3203 61.6328 75.3125 61.25 74.5312 60.4844C73.7812 59.7188 73.4062 58.7422 73.4062 57.5547C73.4062 56.3672 73.7812 55.3984 74.5312 54.6484C75.2969 53.8828 76.3047 53.5 77.5547 53.5C78.8047 53.5 79.8125 53.8828 80.5781 54.6484C81.3281 55.3828 81.7031 56.3516 81.7031 57.5547C81.7031 58.7578 81.3281 59.7344 80.5781 60.4844C79.8125 61.25 78.8047 61.6328 77.5547 61.6328ZM99.8438 61.8672C95.6562 61.8672 92.375 60.2969 90 57.1562C87.6094 54 86.4141 49.625 86.4141 44.0312C86.4141 38.4531 87.6094 34.1016 90 30.9766C92.375 27.8672 95.6562 26.3125 99.8438 26.3125C104.016 26.3125 107.289 27.8672 109.664 30.9766C112.07 34.1172 113.273 38.4766 113.273 44.0547C113.273 49.6328 112.078 54 109.688 57.1562C107.312 60.2969 104.031 61.8672 99.8438 61.8672ZM99.8438 56.1016C101.812 56.1016 103.344 55.0781 104.438 53.0312C105.547 50.9375 106.102 47.9375 106.102 44.0312C106.102 40.1562 105.539 37.1797 104.414 35.1016C103.336 33.1016 101.812 32.1016 99.8438 32.1016C97.8906 32.1016 96.3672 33.1094 95.2734 35.125C94.1484 37.2031 93.5859 40.1719 93.5859 44.0312C93.5859 47.9219 94.1484 50.9219 95.2734 53.0312C96.3516 55.0781 97.875 56.1016 99.8438 56.1016ZM135.586 33.4375V32.9922H118.828V27.1562H142.664V33.0625L128.531 61H121.125L135.586 33.4375Z" fill="white"/>
<path d="M25.0312 84.0547H20.2383L19.8398 89.457C19.707 91.1602 19.3594 92.3828 18.7969 93.125V93.3125H25.0312V84.0547ZM15.3867 98.3398V93.3125H16.4414C17.3008 92.75 17.8008 91.4492 17.9414 89.4102L18.4336 82.3672H27.0469V93.3125H29.0625V98.3398H27.1641V95H17.2852V98.3398H15.3867ZM36.7617 83.9258C35.7539 83.9258 34.9258 84.2656 34.2773 84.9453C33.6289 85.625 33.2656 86.5234 33.1875 87.6406H40.1484C40.125 86.5234 39.8047 85.625 39.1875 84.9453C38.5703 84.2656 37.7617 83.9258 36.7617 83.9258ZM42.1055 91.7305C41.8008 92.8242 41.1836 93.6758 40.2539 94.2852C39.3164 94.9102 38.1602 95.2227 36.7852 95.2227C35.0352 95.2227 33.6484 94.6328 32.625 93.4531C31.6016 92.2812 31.0898 90.6953 31.0898 88.6953C31.0898 86.7031 31.6055 85.1133 32.6367 83.9258C33.668 82.7383 35.0508 82.1445 36.7852 82.1445C38.4883 82.1445 39.8281 82.7109 40.8047 83.8438C41.7812 84.9766 42.2695 86.5273 42.2695 88.4961V89.2695H33.1875V89.3633C33.2422 90.6133 33.5938 91.6055 34.2422 92.3398C34.8984 93.0742 35.7617 93.4414 36.832 93.4414C38.4648 93.4414 39.5508 92.8711 40.0898 91.7305H42.1055ZM45.6562 82.3672H47.6719V87.5938H54.0938V82.3672H56.1094V95H54.0938V89.2812H47.6719V95H45.6562V82.3672ZM62.1328 88.1094V93.3125H64.5117C65.3398 93.3125 66.0039 93.0742 66.5039 92.5977C66.9961 92.1289 67.2422 91.5 67.2422 90.7109C67.2422 89.9219 66.9922 89.2891 66.4922 88.8125C66 88.3438 65.3398 88.1094 64.5117 88.1094H62.1328ZM60.1172 82.3672H62.1328V86.4219H64.5117C65.957 86.4219 67.1094 86.8086 67.9688 87.582C68.8281 88.3555 69.2578 89.3984 69.2578 90.7109C69.2578 92.0234 68.8281 93.0664 67.9688 93.8398C67.1094 94.6133 65.957 95 64.5117 95H60.1172V82.3672ZM81.7383 87.6523L86.7422 82.3672H89.1914L83.4023 88.3203L89.4141 95H86.8008L81.7383 89.2461H81.1875V95H79.1719V82.3672H81.1875V87.6523H81.7383ZM98.3789 82.1445C99.9883 82.1445 101.277 82.7383 102.246 83.9258C103.207 85.1133 103.688 86.6992 103.688 88.6836C103.688 90.6602 103.203 92.2422 102.234 93.4297C101.266 94.625 99.9805 95.2227 98.3789 95.2227C96.4805 95.2227 95.1641 94.5156 94.4297 93.1016H94.2422V99.2188H92.2266V82.3672H94.1484V84.4766H94.3359C94.7422 83.75 95.3008 83.1797 96.0117 82.7656C96.7305 82.3516 97.5195 82.1445 98.3789 82.1445ZM97.8984 93.4062C99.0547 93.4062 99.9609 92.9883 100.617 92.1523C101.273 91.3164 101.602 90.1602 101.602 88.6836C101.602 87.207 101.273 86.0508 100.617 85.2148C99.9688 84.3789 99.0664 83.9609 97.9102 83.9609C96.7695 83.9609 95.8633 84.3828 95.1914 85.2266C94.5195 86.0781 94.1836 87.2305 94.1836 88.6836C94.1836 90.1289 94.5195 91.2773 95.1914 92.1289C95.8555 92.9805 96.7578 93.4062 97.8984 93.4062ZM112.289 93.4062C113.484 93.4062 114.406 92.9922 115.055 92.1641C115.703 91.3438 116.027 90.1836 116.027 88.6836C116.027 87.1836 115.703 86.0195 115.055 85.1914C114.406 84.3711 113.484 83.9609 112.289 83.9609C111.094 83.9609 110.172 84.3711 109.523 85.1914C108.875 86.0195 108.551 87.1836 108.551 88.6836C108.551 90.1836 108.875 91.3438 109.523 92.1641C110.172 92.9922 111.094 93.4062 112.289 93.4062ZM112.289 95.2227C110.492 95.2227 109.07 94.6406 108.023 93.4766C106.984 92.3047 106.465 90.707 106.465 88.6836C106.465 86.6523 106.984 85.0547 108.023 83.8906C109.062 82.7266 110.484 82.1445 112.289 82.1445C114.094 82.1445 115.516 82.7266 116.555 83.8906C117.594 85.0547 118.113 86.6523 118.113 88.6836C118.113 90.707 117.594 92.3047 116.555 93.4766C115.508 94.6406 114.086 95.2227 112.289 95.2227ZM123.516 84.0547V87.6172H126.328C127.914 87.6172 128.707 87.0156 128.707 85.8125C128.707 84.6406 128.023 84.0547 126.656 84.0547H123.516ZM123.516 89.3047V93.3125H126.891C128.469 93.3125 129.258 92.6523 129.258 91.332C129.258 89.9805 128.34 89.3047 126.504 89.3047H123.516ZM121.5 82.3672H126.914C128.094 82.3672 129.023 82.6602 129.703 83.2461C130.367 83.8242 130.699 84.6094 130.699 85.6016C130.699 86.2266 130.504 86.793 130.113 87.3008C129.715 87.8164 129.223 88.1367 128.637 88.2617V88.4492C129.434 88.5586 130.07 88.8828 130.547 89.4219C131.023 89.9531 131.262 90.6016 131.262 91.3672C131.262 92.4766 130.883 93.3555 130.125 94.0039C129.352 94.668 128.289 95 126.938 95H121.5V82.3672ZM138.621 93.4531C139.66 93.4531 140.52 93.1523 141.199 92.5508C141.887 91.9492 142.23 91.1953 142.23 90.2891V89.1289L138.832 89.3516C136.988 89.4766 136.066 90.1641 136.066 91.4141C136.066 92.0469 136.309 92.5469 136.793 92.9141C137.262 93.2734 137.871 93.4531 138.621 93.4531ZM138.246 95.2227C137.004 95.2227 135.988 94.8828 135.199 94.2031C134.387 93.5156 133.98 92.6016 133.98 91.4609C133.98 90.3359 134.379 89.4531 135.176 88.8125C135.973 88.1719 137.109 87.8086 138.586 87.7227L142.23 87.5V86.3516C142.23 84.7422 141.277 83.9375 139.371 83.9375C137.77 83.9375 136.82 84.4609 136.523 85.5078H134.484C134.617 84.5 135.141 83.6875 136.055 83.0703C136.961 82.4531 138.09 82.1445 139.441 82.1445C140.973 82.1445 142.16 82.5156 143.004 83.2578C143.832 84 144.246 85.0312 144.246 86.3516V95H142.324V93.1367H142.137C141.293 94.5273 139.996 95.2227 138.246 95.2227ZM150.375 84.0547V87.6172H153.188C154.773 87.6172 155.566 87.0156 155.566 85.8125C155.566 84.6406 154.883 84.0547 153.516 84.0547H150.375ZM150.375 89.3047V93.3125H153.75C155.328 93.3125 156.117 92.6523 156.117 91.332C156.117 89.9805 155.199 89.3047 153.363 89.3047H150.375ZM148.359 82.3672H153.773C154.953 82.3672 155.883 82.6602 156.562 83.2461C157.227 83.8242 157.559 84.6094 157.559 85.6016C157.559 86.2266 157.363 86.793 156.973 87.3008C156.574 87.8164 156.082 88.1367 155.496 88.2617V88.4492C156.293 88.5586 156.93 88.8828 157.406 89.4219C157.883 89.9531 158.121 90.6016 158.121 91.3672C158.121 92.4766 157.742 93.3555 156.984 94.0039C156.211 94.668 155.148 95 153.797 95H148.359V82.3672ZM166.664 93.4062C167.859 93.4062 168.781 92.9922 169.43 92.1641C170.078 91.3438 170.402 90.1836 170.402 88.6836C170.402 87.1836 170.078 86.0195 169.43 85.1914C168.781 84.3711 167.859 83.9609 166.664 83.9609C165.469 83.9609 164.547 84.3711 163.898 85.1914C163.25 86.0195 162.926 87.1836 162.926 88.6836C162.926 90.1836 163.25 91.3438 163.898 92.1641C164.547 92.9922 165.469 93.4062 166.664 93.4062ZM166.664 95.2227C164.867 95.2227 163.445 94.6406 162.398 93.4766C161.359 92.3047 160.84 90.707 160.84 88.6836C160.84 86.6523 161.359 85.0547 162.398 83.8906C163.438 82.7266 164.859 82.1445 166.664 82.1445C168.469 82.1445 169.891 82.7266 170.93 83.8906C171.969 85.0547 172.488 86.6523 172.488 88.6836C172.488 90.707 171.969 92.3047 170.93 93.4766C169.883 94.6406 168.461 95.2227 166.664 95.2227ZM175.875 95V82.3672H177.891V91.7891H178.078L184.488 82.3672H186.504V95H184.488V85.5781H184.301L177.891 95H175.875ZM178.77 76.7656C178.77 77.4375 178.965 78.0078 179.355 78.4766C179.762 78.9766 180.293 79.2266 180.949 79.2266C181.613 79.2266 182.152 78.9766 182.566 78.4766C182.957 78.0078 183.152 77.4375 183.152 76.7656H184.98C184.98 77.8672 184.609 78.7812 183.867 79.5078C183.117 80.2422 182.145 80.6094 180.949 80.6094C179.762 80.6094 178.793 80.2422 178.043 79.5078C177.309 78.7891 176.941 77.875 176.941 76.7656H178.77ZM197.297 95V82.3672H199.746L204.27 92.1641H204.457L208.992 82.3672H211.348V95H209.32V86.0117H209.098L205.102 94.6484H203.531L199.535 86.0117H199.312V95H197.297ZM219.973 95.2109C218.488 95.2109 217.266 94.8281 216.305 94.0625C215.391 93.3359 214.84 92.375 214.652 91.1797H216.691C217.082 92.6562 218.18 93.3945 219.984 93.3945C221.039 93.3945 221.906 93.0234 222.586 92.2812C223.266 91.5391 223.648 90.5508 223.734 89.3164H217.852V87.6289H223.699C223.582 86.5117 223.184 85.6172 222.504 84.9453C221.824 84.2891 220.984 83.9609 219.984 83.9609C219.102 83.9609 218.363 84.1836 217.77 84.6289C217.223 85.0352 216.863 85.5703 216.691 86.2344H214.652C214.84 85.0547 215.387 84.0898 216.293 83.3398C217.27 82.543 218.5 82.1445 219.984 82.1445C221.758 82.1445 223.176 82.7344 224.238 83.9141C225.301 85.0938 225.832 86.668 225.832 88.6367C225.832 90.6445 225.297 92.2422 224.227 93.4297C223.164 94.6172 221.746 95.2109 219.973 95.2109ZM235.371 82.1445C236.98 82.1445 238.27 82.7383 239.238 83.9258C240.199 85.1133 240.68 86.6992 240.68 88.6836C240.68 90.6602 240.195 92.2422 239.227 93.4297C238.258 94.625 236.973 95.2227 235.371 95.2227C233.473 95.2227 232.156 94.5156 231.422 93.1016H231.234V99.2188H229.219V82.3672H231.141V84.4766H231.328C231.734 83.75 232.293 83.1797 233.004 82.7656C233.723 82.3516 234.512 82.1445 235.371 82.1445ZM234.891 93.4062C236.047 93.4062 236.953 92.9883 237.609 92.1523C238.266 91.3164 238.594 90.1602 238.594 88.6836C238.594 87.207 238.266 86.0508 237.609 85.2148C236.961 84.3789 236.059 83.9609 234.902 83.9609C233.762 83.9609 232.855 84.3828 232.184 85.2266C231.512 86.0781 231.176 87.2305 231.176 88.6836C231.176 90.1289 231.512 91.2773 232.184 92.1289C232.848 92.9805 233.75 93.4062 234.891 93.4062ZM244.078 95V82.3672H246.094V91.7891H246.281L252.691 82.3672H254.707V95H252.691V85.5781H252.504L246.094 95H244.078Z" fill="white"/>
<defs>
<filter id="filter0_b" x="-20" y="-20" width="729" height="161" filterUnits="userSpaceOnUse" color-interpolation-filters="sRGB">
<feFlood flood-opacity="0" result="BackgroundImageFix"/>
<feGaussianBlur in="BackgroundImage" stdDeviation="10"/>
<feComposite in2="SourceAlpha" operator="in" result="effect1_backgroundBlur"/>
<feBlend mode="normal" in="SourceGraphic" in2="effect1_backgroundBlur" result="shape"/>
</filter>
</defs>
</svg>
