<svg width="33" height="35" viewBox="0 0 33 35" fill="none" xmlns="http://www.w3.org/2000/svg">
<path fill-rule="evenodd" clip-rule="evenodd" d="M12.9473 7.10893L14.7851 6.3907C14.9128 6.71741 15.0919 7.00887 15.3094 7.25946L13.3113 8.04033C12.7969 8.24135 12.5428 8.82132 12.7439 9.33572L19.2419 25.963C19.4429 26.4774 20.0229 26.7315 20.5373 26.5305L23.0399 25.5524C22.9405 25.9085 22.9066 26.2848 22.9465 26.6626L20.9013 27.4619C19.8725 27.8639 18.7125 27.3558 18.3105 26.327L11.8125 9.69972C11.4104 8.67092 11.9185 7.51098 12.9473 7.10893ZM28.3006 24.5702L30.1275 23.8562C31.1563 23.4542 31.6644 22.2942 31.2623 21.2654L24.7643 4.63809C24.3623 3.60929 23.2023 3.10122 22.1735 3.50328L20.3359 4.22143C20.4636 4.54818 20.5296 4.8838 20.5396 5.21547L22.5375 4.43468C23.0519 4.23365 23.6319 4.48768 23.8329 5.00208L30.3309 21.6294C30.532 22.1438 30.2779 22.7238 29.7635 22.9248L27.4793 23.8175C27.7938 24.0119 28.0738 24.2655 28.3006 24.5702Z" fill="white"/>
<mask id="path-2-inside-1" fill="white">
<path d="M20.3356 4.22137C20.4781 4.58584 20.5473 4.97479 20.5394 5.36603C20.5316 5.75726 20.4467 6.14311 20.2897 6.50155C20.1327 6.85999 19.9066 7.18399 19.6244 7.45506C19.3422 7.72613 19.0093 7.93896 18.6449 8.0814C18.2804 8.22384 17.8914 8.29309 17.5002 8.28521C17.109 8.27732 16.7231 8.19246 16.3647 8.03546C16.0062 7.87845 15.6822 7.65239 15.4112 7.37017C15.1401 7.08795 14.9273 6.7551 14.7848 6.39063L15.6854 6.03867C15.7817 6.28487 15.9254 6.50971 16.1085 6.70035C16.2916 6.89098 16.5105 7.04369 16.7526 7.14975C16.9948 7.2558 17.2554 7.31313 17.5197 7.31845C17.784 7.32378 18.0467 7.277 18.2929 7.18078C18.5391 7.08456 18.7639 6.9408 18.9546 6.75769C19.1452 6.57458 19.2979 6.35572 19.404 6.11359C19.51 5.87147 19.5674 5.61083 19.5727 5.34655C19.578 5.08227 19.5312 4.81953 19.435 4.57333L20.3356 4.22137Z"/>
</mask>
<path d="M20.3356 4.22137C20.4781 4.58584 20.5473 4.97479 20.5394 5.36603C20.5316 5.75726 20.4467 6.14311 20.2897 6.50155C20.1327 6.85999 19.9066 7.18399 19.6244 7.45506C19.3422 7.72613 19.0093 7.93896 18.6449 8.0814C18.2804 8.22384 17.8914 8.29309 17.5002 8.28521C17.109 8.27732 16.7231 8.19246 16.3647 8.03546C16.0062 7.87845 15.6822 7.65239 15.4112 7.37017C15.1401 7.08795 14.9273 6.7551 14.7848 6.39063L15.6854 6.03867C15.7817 6.28487 15.9254 6.50971 16.1085 6.70035C16.2916 6.89098 16.5105 7.04369 16.7526 7.14975C16.9948 7.2558 17.2554 7.31313 17.5197 7.31845C17.784 7.32378 18.0467 7.277 18.2929 7.18078C18.5391 7.08456 18.7639 6.9408 18.9546 6.75769C19.1452 6.57458 19.2979 6.35572 19.404 6.11359C19.51 5.87147 19.5674 5.61083 19.5727 5.34655C19.578 5.08227 19.5312 4.81953 19.435 4.57333L20.3356 4.22137Z" stroke="white" stroke-width="2" mask="url(#path-2-inside-1)"/>
<mask id="path-3-inside-2" fill="white">
<path d="M28.3018 24.6042C28.1593 24.2397 27.9335 23.8737 27.6625 23.5915C27.3914 23.3092 27.0674 23.0832 26.709 22.9262C26.3505 22.7692 25.9647 22.6843 25.5734 22.6764C25.1822 22.6685 24.7932 22.7378 24.4288 22.8802C24.0643 23.0227 23.7315 23.2355 23.4492 23.5066C23.167 23.7776 22.941 24.1016 22.784 24.4601C22.627 24.8185 22.5421 25.2044 22.5342 25.5956C22.5263 25.9868 22.5956 26.3758 22.738 26.7403L23.6386 26.3883C23.5424 26.1421 23.4956 25.8794 23.501 25.6151C23.5063 25.3508 23.5636 25.0902 23.6697 24.848C23.7757 24.6059 23.9284 24.3871 24.1191 24.2039C24.3097 24.0208 24.5345 23.8771 24.7807 23.7809C25.0269 23.6846 25.2897 23.6379 25.554 23.6432C25.8182 23.6485 26.0789 23.7058 26.321 23.8119C26.5631 23.9179 26.782 24.0706 26.9651 24.2613C27.1482 24.4519 27.3049 24.7099 27.4012 24.9561L28.3018 24.6042Z"/>
</mask>
<path d="M28.3018 24.6042L29.2332 24.2402L29.5972 25.1716L28.6658 25.5356L28.3018 24.6042ZM24.4288 22.8802L24.7928 23.8116L24.4288 22.8802ZM22.738 26.7403L23.102 27.6717L22.1706 28.0357L21.8066 27.1043L22.738 26.7403ZM23.6386 26.3883L24.57 26.0243L24.934 26.9557L24.0026 27.3197L23.6386 26.3883ZM27.4012 24.9561L27.7652 25.8875L26.8337 26.2515L26.4698 25.3201L27.4012 24.9561ZM27.3704 24.9682C27.2714 24.715 27.1135 24.4635 26.9413 24.2842L28.3837 22.8987C28.7536 23.2839 29.0473 23.7644 29.2332 24.2402L27.3704 24.9682ZM26.9413 24.2842C26.7612 24.0967 26.5459 23.9465 26.3077 23.8422L27.1102 22.0102C27.5889 22.2199 28.0216 22.5218 28.3837 22.8987L26.9413 24.2842ZM26.3077 23.8422C26.0696 23.7378 25.8132 23.6815 25.5533 23.6762L25.5936 21.6766C26.1161 21.6872 26.6315 21.8005 27.1102 22.0102L26.3077 23.8422ZM25.5533 23.6762C25.2934 23.671 25.0349 23.717 24.7928 23.8116L24.0648 21.9488C24.5516 21.7586 25.0711 21.6661 25.5936 21.6766L25.5533 23.6762ZM24.7928 23.8116C24.5506 23.9063 24.3295 24.0477 24.142 24.2278L22.7565 22.7854C23.1335 22.4233 23.578 22.1391 24.0648 21.9488L24.7928 23.8116ZM24.142 24.2278C23.9545 24.4079 23.8043 24.6231 23.6999 24.8613L21.868 24.0589C22.0777 23.5801 22.3796 23.1474 22.7565 22.7854L24.142 24.2278ZM23.6999 24.8613C23.5956 25.0994 23.5392 25.3558 23.534 25.6158L21.5344 25.5755C21.5449 25.0529 21.6583 24.5376 21.868 24.0589L23.6999 24.8613ZM23.534 25.6158C23.5288 25.8757 23.5748 26.1341 23.6694 26.3763L21.8066 27.1043C21.6164 26.6175 21.5239 26.098 21.5344 25.5755L23.534 25.6158ZM22.374 25.8089L23.2746 25.4569L24.0026 27.3197L23.102 27.6717L22.374 25.8089ZM22.7072 26.7523C22.5632 26.3838 22.4932 25.9905 22.5012 25.5949L24.5008 25.6352C24.4981 25.7682 24.5216 25.9004 24.57 26.0243L22.7072 26.7523ZM22.5012 25.5949C22.5091 25.1994 22.5949 24.8092 22.7537 24.4468L24.5857 25.2493C24.5323 25.3711 24.5034 25.5022 24.5008 25.6352L22.5012 25.5949ZM22.7537 24.4468C22.9124 24.0844 23.141 23.7568 23.4263 23.4827L24.8118 24.9251C24.7159 25.0173 24.639 25.1274 24.5857 25.2493L22.7537 24.4468ZM23.4263 23.4827C23.7117 23.2087 24.0482 22.9935 24.4167 22.8495L25.1447 24.7123C25.0209 24.7607 24.9077 24.833 24.8118 24.9251L23.4263 23.4827ZM24.4167 22.8495C24.7853 22.7054 25.1785 22.6354 25.5741 22.6434L25.5338 24.643C25.4008 24.6403 25.2686 24.6638 25.1447 24.7123L24.4167 22.8495ZM25.5741 22.6434C25.9697 22.6514 26.3598 22.7372 26.7222 22.8959L25.9198 24.7279C25.798 24.6745 25.6668 24.6457 25.5338 24.643L25.5741 22.6434ZM26.7222 22.8959C27.0846 23.0546 27.4122 23.2832 27.6863 23.5686L26.2439 24.954C26.1518 24.8581 26.0416 24.7812 25.9198 24.7279L26.7222 22.8959ZM27.6863 23.5686C27.9717 23.8657 28.1949 24.2398 28.3326 24.5921L26.4698 25.3201C26.415 25.1801 26.3247 25.0382 26.2439 24.954L27.6863 23.5686ZM27.0372 24.0247L27.9378 23.6728L28.6658 25.5356L27.7652 25.8875L27.0372 24.0247Z" fill="white" mask="url(#path-3-inside-2)"/>
<path fill-rule="evenodd" clip-rule="evenodd" d="M2 12.7056H3.97331C3.97334 13.0564 4.03399 13.393 4.14535 13.7056H2C1.44772 13.7056 1 14.1533 1 14.7056V32.5575C1 33.1098 1.44771 33.5575 2 33.5575H4.68653C4.46435 33.853 4.29585 34.1912 4.19552 34.5575H2C0.895429 34.5575 0 33.6621 0 32.5575V14.7056C0 13.601 0.895431 12.7056 2 12.7056ZM9.94398 34.5575H11.9058C13.0104 34.5575 13.9058 33.6621 13.9058 32.5575V14.7056C13.9058 13.601 13.0104 12.7056 11.9058 12.7056H9.93293C9.9329 13.0564 9.87225 13.393 9.76089 13.7056H11.9058C12.4581 13.7056 12.9058 14.1533 12.9058 14.7056V32.5575C12.9058 33.1098 12.4581 33.5575 11.9058 33.5575H9.45296C9.67514 33.853 9.84364 34.1912 9.94398 34.5575Z" fill="white"/>
<mask id="path-6-inside-3" fill="white">
<path d="M9.93277 12.7059C9.93277 13.0972 9.85569 13.4847 9.70594 13.8462C9.55619 14.2077 9.3367 14.5362 9.06 14.8129C8.7833 15.0896 8.45481 15.3091 8.09328 15.4589C7.73175 15.6086 7.34427 15.6857 6.95296 15.6857C6.56164 15.6857 6.17416 15.6086 5.81263 15.4589C5.4511 15.3091 5.12261 15.0896 4.84591 14.8129C4.56921 14.5362 4.34972 14.2077 4.19997 13.8462C4.05022 13.4847 3.97314 13.0972 3.97314 12.7059H4.9401C4.9401 12.9702 4.99216 13.232 5.09332 13.4762C5.19447 13.7204 5.34274 13.9423 5.52965 14.1292C5.71656 14.3161 5.93846 14.4644 6.18267 14.5655C6.42688 14.6667 6.68862 14.7187 6.95296 14.7187C7.21729 14.7187 7.47903 14.6667 7.72324 14.5655C7.96746 14.4644 8.18935 14.3161 8.37626 14.1292C8.56317 13.9423 8.71144 13.7204 8.8126 13.4762C8.91375 13.232 8.96582 12.9702 8.96582 12.7059H9.93277Z"/>
</mask>
<path d="M9.93277 12.7059C9.93277 13.0972 9.85569 13.4847 9.70594 13.8462C9.55619 14.2077 9.3367 14.5362 9.06 14.8129C8.7833 15.0896 8.45481 15.3091 8.09328 15.4589C7.73175 15.6086 7.34427 15.6857 6.95296 15.6857C6.56164 15.6857 6.17416 15.6086 5.81263 15.4589C5.4511 15.3091 5.12261 15.0896 4.84591 14.8129C4.56921 14.5362 4.34972 14.2077 4.19997 13.8462C4.05022 13.4847 3.97314 13.0972 3.97314 12.7059H4.9401C4.9401 12.9702 4.99216 13.232 5.09332 13.4762C5.19447 13.7204 5.34274 13.9423 5.52965 14.1292C5.71656 14.3161 5.93846 14.4644 6.18267 14.5655C6.42688 14.6667 6.68862 14.7187 6.95296 14.7187C7.21729 14.7187 7.47903 14.6667 7.72324 14.5655C7.96746 14.4644 8.18935 14.3161 8.37626 14.1292C8.56317 13.9423 8.71144 13.7204 8.8126 13.4762C8.91375 13.232 8.96582 12.9702 8.96582 12.7059H9.93277Z" stroke="white" stroke-width="2" mask="url(#path-6-inside-3)"/>
<mask id="path-7-inside-4" fill="white">
<path d="M9.93277 34.5898C9.93277 34.1985 9.85569 33.7754 9.70594 33.4139C9.55619 33.0524 9.3367 32.7239 9.06 32.4472C8.7833 32.1705 8.45481 31.951 8.09328 31.8012C7.73175 31.6515 7.34427 31.5744 6.95296 31.5744C6.56164 31.5744 6.17416 31.6515 5.81263 31.8012C5.4511 31.951 5.12261 32.1705 4.84591 32.4472C4.56921 32.7239 4.34972 33.0524 4.19997 33.4139C4.05022 33.7754 3.97314 34.1629 3.97314 34.5542H4.9401C4.9401 34.2899 4.99216 34.0282 5.09332 33.7839C5.19447 33.5397 5.34274 33.3178 5.52965 33.1309C5.71656 32.944 5.93846 32.7957 6.18267 32.6946C6.42688 32.5934 6.68862 32.5414 6.95296 32.5414C7.21729 32.5414 7.47903 32.5934 7.72324 32.6946C7.96746 32.7957 8.18935 32.944 8.37626 33.1309C8.56317 33.3178 8.71144 33.5397 8.8126 33.7839C8.91375 34.0282 8.96582 34.3255 8.96582 34.5898H9.93277Z"/>
</mask>
<path d="M9.93277 34.5898H10.9328V35.5898H9.93277V34.5898ZM6.95296 31.5744V32.5744V31.5744ZM3.97314 34.5542V35.5542H2.97314L2.97314 34.5542L3.97314 34.5542ZM4.9401 34.5542L5.9401 34.5542L5.9401 35.5542H4.9401V34.5542ZM8.96582 34.5898V35.5898H7.96582V34.5898H8.96582ZM8.93277 34.5898C8.93277 34.318 8.87721 34.0263 8.78206 33.7966L10.6298 33.0312C10.8342 33.5246 10.9328 34.0791 10.9328 34.5898H8.93277ZM8.78206 33.7966C8.68257 33.5564 8.53674 33.3381 8.35289 33.1543L9.76711 31.7401C10.1367 32.1096 10.4298 32.5484 10.6298 33.0312L8.78206 33.7966ZM8.35289 33.1543C8.16905 32.9704 7.9508 32.8246 7.7106 32.7251L8.47596 30.8774C8.95882 31.0774 9.39755 31.3705 9.76711 31.7401L8.35289 33.1543ZM7.7106 32.7251C7.47039 32.6256 7.21295 32.5744 6.95296 32.5744V30.5744C7.47559 30.5744 7.99311 30.6774 8.47596 30.8774L7.7106 32.7251ZM6.95296 32.5744C6.69296 32.5744 6.43552 32.6256 6.19531 32.7251L5.42995 30.8774C5.9128 30.6774 6.43032 30.5744 6.95296 30.5744V32.5744ZM6.19531 32.7251C5.95511 32.8246 5.73686 32.9704 5.55302 33.1543L4.1388 31.7401C4.50836 31.3705 4.94709 31.0774 5.42995 30.8774L6.19531 32.7251ZM5.55302 33.1543C5.36918 33.3381 5.22334 33.5564 5.12385 33.7966L3.27609 33.0312C3.47609 32.5484 3.76924 32.1096 4.1388 31.7401L5.55302 33.1543ZM5.12385 33.7966C5.02435 34.0368 4.97314 34.2942 4.97314 34.5542L2.97314 34.5542C2.97314 34.0316 3.07609 33.5141 3.27609 33.0312L5.12385 33.7966ZM3.97314 33.5542H4.9401V35.5542H3.97314V33.5542ZM3.9401 34.5542C3.9401 34.1586 4.01803 33.7668 4.16944 33.4013L6.01719 34.1666C5.96629 34.2895 5.9401 34.4212 5.9401 34.5542L3.9401 34.5542ZM4.16944 33.4013C4.32085 33.0357 4.54277 32.7036 4.82254 32.4238L6.23676 33.838C6.1427 33.9321 6.0681 34.0437 6.01719 34.1666L4.16944 33.4013ZM4.82254 32.4238C5.10231 32.144 5.43445 31.9221 5.79998 31.7707L6.56535 33.6185C6.44247 33.6694 6.33081 33.744 6.23676 33.838L4.82254 32.4238ZM5.79998 31.7707C6.16552 31.6193 6.5573 31.5414 6.95296 31.5414L6.95296 33.5414C6.81994 33.5414 6.68824 33.5676 6.56535 33.6185L5.79998 31.7707ZM6.95296 31.5414C7.34861 31.5414 7.74039 31.6193 8.10593 31.7707L7.34056 33.6185C7.21767 33.5676 7.08597 33.5414 6.95296 33.5414L6.95296 31.5414ZM8.10593 31.7707C8.47147 31.9221 8.8036 32.144 9.08337 32.4238L7.66916 33.838C7.5751 33.744 7.46344 33.6694 7.34056 33.6185L8.10593 31.7707ZM9.08337 32.4238C9.36314 32.7036 9.58506 33.0357 9.73648 33.4013L7.88872 34.1666C7.83782 34.0437 7.76321 33.9321 7.66916 33.838L9.08337 32.4238ZM9.73648 33.4013C9.89413 33.7819 9.96582 34.2115 9.96582 34.5898H7.96582C7.96582 34.4395 7.93338 34.2744 7.88872 34.1666L9.73648 33.4013ZM8.96582 33.5898H9.93277V35.5898H8.96582V33.5898Z" fill="white" mask="url(#path-7-inside-4)"/>
</svg>
