<svg width="549" height="283" viewBox="0 0 549 283" fill="none" xmlns="http://www.w3.org/2000/svg">
<line y1="44.5" x2="549" y2="44.5" stroke="white"/>
<line y1="103.5" x2="549" y2="103.5" stroke="white"/>
<line y1="163.5" x2="549" y2="163.5" stroke="white"/>
<line y1="223.5" x2="549" y2="223.5" stroke="white"/>
<line y1="282.5" x2="549" y2="282.5" stroke="white"/>
<path d="M26.3359 17V7.30566H28.8496V13.2646H29.0078L32.9189 7.30566H35.4326V17H32.9189V10.9707H32.7607L28.8496 17H26.3359ZM38.1309 17V7.30566H41.4443L43.9844 13.5107H44.1426L46.6914 7.30566H49.9609V17H47.5527V10.5752H47.3857L44.9336 16.4551H43.1494L40.6973 10.5752H40.5391V17H38.1309ZM58.0645 12.0166V9.30957H56.4912C56.0166 9.30957 55.6387 9.43555 55.3574 9.6875C55.0703 9.93945 54.9268 10.2734 54.9268 10.6895C54.9268 11.082 55.0703 11.3984 55.3574 11.6387C55.6445 11.8906 56.0225 12.0166 56.4912 12.0166H58.0645ZM58.0645 13.8799H57.0186L54.8652 17H51.9648L54.5049 13.458C53.8604 13.2646 53.3506 12.916 52.9756 12.4121C52.6006 11.9141 52.4131 11.3311 52.4131 10.6631C52.4131 9.64355 52.7646 8.82617 53.4678 8.21094C54.165 7.60742 55.085 7.30566 56.2275 7.30566H60.5693V17H58.0645V13.8799Z" fill="white" fill-opacity="0.44"/>
<path d="M32.5762 71.3096H29.623L29.4033 74.3418C29.3271 75.4199 29.0986 76.249 28.7178 76.8291V76.9873H32.5762V71.3096ZM25.3164 81.5049V76.9873H26.0635C26.6729 76.6475 27.0303 75.707 27.1357 74.166L27.4521 69.3057H35.125V76.9873H36.5664V81.5049H34.2285V79H27.6543V81.5049H25.3164ZM41.8662 77.2246C42.458 77.2246 42.9531 77.0576 43.3516 76.7236C43.75 76.3896 43.9492 75.9766 43.9492 75.4844V74.7725L41.9893 74.8955C40.8994 74.9717 40.3545 75.3613 40.3545 76.0645C40.3545 76.4219 40.4951 76.7061 40.7764 76.917C41.0518 77.1221 41.415 77.2246 41.8662 77.2246ZM41.0225 79.1494C40.085 79.1494 39.3232 78.8857 38.7373 78.3584C38.1455 77.8193 37.8496 77.1104 37.8496 76.2314C37.8496 75.3584 38.1748 74.6699 38.8252 74.166C39.4697 73.668 40.3955 73.3838 41.6025 73.3135L43.9492 73.1729V72.3818C43.9492 71.5381 43.4043 71.1162 42.3145 71.1162C41.3652 71.1162 40.7822 71.415 40.5654 72.0127H38.21C38.292 71.1162 38.7168 70.4043 39.4844 69.877C40.2461 69.3555 41.2363 69.0947 42.4551 69.0947C43.7324 69.0947 44.7227 69.3818 45.4258 69.9561C46.123 70.5303 46.4717 71.3389 46.4717 72.3818V79H43.9932V77.7344H43.835C43.3018 78.6777 42.3643 79.1494 41.0225 79.1494ZM56.6758 71.3184H53.7754V79H51.2178V71.3184H48.3174V69.3057H56.6758V71.3184ZM62.0283 77.2246C62.6201 77.2246 63.1152 77.0576 63.5137 76.7236C63.9121 76.3896 64.1113 75.9766 64.1113 75.4844V74.7725L62.1514 74.8955C61.0615 74.9717 60.5166 75.3613 60.5166 76.0645C60.5166 76.4219 60.6572 76.7061 60.9385 76.917C61.2139 77.1221 61.5771 77.2246 62.0283 77.2246ZM61.1846 79.1494C60.2471 79.1494 59.4854 78.8857 58.8994 78.3584C58.3076 77.8193 58.0117 77.1104 58.0117 76.2314C58.0117 75.3584 58.3369 74.6699 58.9873 74.166C59.6318 73.668 60.5576 73.3838 61.7646 73.3135L64.1113 73.1729V72.3818C64.1113 71.5381 63.5664 71.1162 62.4766 71.1162C61.5273 71.1162 60.9443 71.415 60.7275 72.0127H58.3721C58.4541 71.1162 58.8789 70.4043 59.6465 69.877C60.4082 69.3555 61.3984 69.0947 62.6172 69.0947C63.8945 69.0947 64.8848 69.3818 65.5879 69.9561C66.2852 70.5303 66.6338 71.3389 66.6338 72.3818V79H64.1553V77.7344H63.9971C63.4639 78.6777 62.5264 79.1494 61.1846 79.1494ZM79.6152 69.1475C80.8457 69.1475 81.8125 69.5898 82.5156 70.4746C83.2188 71.3594 83.5703 72.584 83.5703 74.1484C83.5703 75.707 83.2217 76.9316 82.5244 77.8223C81.8271 78.707 80.8721 79.1494 79.6592 79.1494C78.2119 79.1494 77.2363 78.6045 76.7324 77.5146H76.5742V82.0322H74.0166V69.3057H76.4951V70.8965H76.6533C76.917 70.3516 77.3096 69.9238 77.8311 69.6133C78.3525 69.3027 78.9473 69.1475 79.6152 69.1475ZM78.7451 77.0137C79.4365 77.0137 79.9756 76.7588 80.3623 76.249C80.749 75.7451 80.9424 75.0449 80.9424 74.1484C80.9424 73.2578 80.749 72.5605 80.3623 72.0566C79.9697 71.5469 79.4336 71.292 78.7539 71.292C78.0742 71.292 77.5352 71.5469 77.1367 72.0566C76.7441 72.5723 76.5479 73.2725 76.5479 74.1572C76.5479 75.042 76.7441 75.7393 77.1367 76.249C77.5293 76.7588 78.0654 77.0137 78.7451 77.0137ZM90.1885 77.1191C90.8682 77.1191 91.3955 76.8584 91.7705 76.3369C92.1455 75.8213 92.333 75.0918 92.333 74.1484C92.333 73.2168 92.1455 72.4902 91.7705 71.9688C91.3896 71.4473 90.8623 71.1865 90.1885 71.1865C89.5088 71.1865 88.9814 71.4473 88.6064 71.9688C88.2314 72.4902 88.0439 73.2168 88.0439 74.1484C88.0439 75.0918 88.2314 75.8242 88.6064 76.3457C88.9756 76.8613 89.5029 77.1191 90.1885 77.1191ZM90.1885 79.2109C88.7002 79.2109 87.5312 78.7627 86.6816 77.8662C85.8379 76.9697 85.416 75.7305 85.416 74.1484C85.416 72.5781 85.8438 71.3447 86.6992 70.4482C87.5488 69.5459 88.7119 69.0947 90.1885 69.0947C91.665 69.0947 92.8311 69.543 93.6865 70.4395C94.5361 71.3418 94.9609 72.5781 94.9609 74.1484C94.9609 75.7305 94.5391 76.9697 93.6953 77.8662C92.8457 78.7627 91.6768 79.2109 90.1885 79.2109ZM99.4873 73.7441L96.0859 69.3057H98.9424L101.57 73.1201H102.045V69.3057H104.541V73.1201H105.024L107.652 69.3057H110.491L107.107 73.7266L110.702 79H107.723L105.051 74.9395H104.541V79H102.045V74.9395H101.535L98.8633 79H95.9014L99.4873 73.7441ZM118.727 71.3096H115.773L115.554 74.3418C115.478 75.4199 115.249 76.249 114.868 76.8291V76.9873H118.727V71.3096ZM111.467 81.5049V76.9873H112.214C112.823 76.6475 113.181 75.707 113.286 74.166L113.603 69.3057H121.275V76.9873H122.717V81.5049H120.379V79H113.805V81.5049H111.467ZM128.755 71.0547C128.163 71.0547 127.674 71.2451 127.287 71.626C126.906 72.0068 126.692 72.5107 126.646 73.1377H130.776C130.747 72.4932 130.554 71.9863 130.196 71.6172C129.833 71.2422 129.353 71.0547 128.755 71.0547ZM133.211 76.2402C133.018 77.1602 132.528 77.8838 131.743 78.4111C130.952 78.9443 129.965 79.2109 128.781 79.2109C127.305 79.2109 126.153 78.7686 125.327 77.8838C124.501 77.0049 124.088 75.7773 124.088 74.2012C124.088 72.625 124.504 71.3799 125.336 70.4658C126.168 69.5518 127.305 69.0947 128.746 69.0947C130.176 69.0947 131.289 69.5254 132.086 70.3867C132.889 71.248 133.29 72.4492 133.29 73.9902V74.7725H126.637V74.9043C126.654 75.625 126.862 76.1934 127.261 76.6094C127.653 77.0312 128.184 77.2422 128.852 77.2422C129.889 77.2422 130.548 76.9082 130.829 76.2402H133.211ZM135.602 69.3057H138.159V73.0234H142.035V69.3057H144.593V79H142.035V75.0361H138.159V79H135.602V69.3057ZM147.273 79V69.3057H149.787V75.2646H149.945L153.856 69.3057H156.37V79H153.856V72.9707H153.698L149.787 79H147.273ZM164.482 74.0166V71.3096H162.909C162.435 71.3096 162.057 71.4355 161.775 71.6875C161.488 71.9395 161.345 72.2734 161.345 72.6895C161.345 73.082 161.488 73.3984 161.775 73.6387C162.062 73.8906 162.44 74.0166 162.909 74.0166H164.482ZM164.482 75.8799H163.437L161.283 79H158.383L160.923 75.458C160.278 75.2646 159.769 74.916 159.394 74.4121C159.019 73.9141 158.831 73.3311 158.831 72.6631C158.831 71.6436 159.183 70.8262 159.886 70.2109C160.583 69.6074 161.503 69.3057 162.646 69.3057H166.987V79H164.482V75.8799Z" fill="white" fill-opacity="0.44"/>
<path d="M32.6816 132.318H28.8936V140H26.3359V130.306H35.2393V140H32.6816V132.318ZM43.5449 130.147C44.7754 130.147 45.7422 130.59 46.4453 131.475C47.1484 132.359 47.5 133.584 47.5 135.148C47.5 136.707 47.1514 137.932 46.4541 138.822C45.7568 139.707 44.8018 140.149 43.5889 140.149C42.1416 140.149 41.166 139.604 40.6621 138.515H40.5039V143.032H37.9463V130.306H40.4248V131.896H40.583C40.8467 131.352 41.2393 130.924 41.7607 130.613C42.2822 130.303 42.877 130.147 43.5449 130.147ZM42.6748 138.014C43.3662 138.014 43.9053 137.759 44.292 137.249C44.6787 136.745 44.8721 136.045 44.8721 135.148C44.8721 134.258 44.6787 133.561 44.292 133.057C43.8994 132.547 43.3633 132.292 42.6836 132.292C42.0039 132.292 41.4648 132.547 41.0664 133.057C40.6738 133.572 40.4775 134.272 40.4775 135.157C40.4775 136.042 40.6738 136.739 41.0664 137.249C41.459 137.759 41.9951 138.014 42.6748 138.014ZM54.1182 138.119C54.7979 138.119 55.3252 137.858 55.7002 137.337C56.0752 136.821 56.2627 136.092 56.2627 135.148C56.2627 134.217 56.0752 133.49 55.7002 132.969C55.3193 132.447 54.792 132.187 54.1182 132.187C53.4385 132.187 52.9111 132.447 52.5361 132.969C52.1611 133.49 51.9736 134.217 51.9736 135.148C51.9736 136.092 52.1611 136.824 52.5361 137.346C52.9053 137.861 53.4326 138.119 54.1182 138.119ZM54.1182 140.211C52.6299 140.211 51.4609 139.763 50.6113 138.866C49.7676 137.97 49.3457 136.73 49.3457 135.148C49.3457 133.578 49.7734 132.345 50.6289 131.448C51.4785 130.546 52.6416 130.095 54.1182 130.095C55.5947 130.095 56.7607 130.543 57.6162 131.439C58.4658 132.342 58.8906 133.578 58.8906 135.148C58.8906 136.73 58.4688 137.97 57.625 138.866C56.7754 139.763 55.6064 140.211 54.1182 140.211ZM66.0098 132.169C65.2012 132.192 64.5625 132.465 64.0938 132.986C63.6133 133.52 63.373 134.24 63.373 135.148C63.373 136.068 63.6104 136.792 64.085 137.319C64.5537 137.835 65.1953 138.107 66.0098 138.137V132.169ZM71.1162 135.148C71.1162 134.234 70.8789 133.514 70.4043 132.986C69.9355 132.471 69.2939 132.198 68.4795 132.169V138.137C69.2881 138.113 69.9268 137.838 70.3955 137.311C70.876 136.777 71.1162 136.057 71.1162 135.148ZM65.9834 140.141C64.3838 140.105 63.1182 139.648 62.1865 138.77C61.2432 137.879 60.7715 136.672 60.7715 135.148C60.7715 133.648 61.2461 132.447 62.1953 131.545C63.1328 130.66 64.3955 130.2 65.9834 130.165V127.194H68.5059V130.165C70.1055 130.2 71.3711 130.657 72.3027 131.536C73.2461 132.427 73.7178 133.634 73.7178 135.157C73.7178 136.657 73.2432 137.855 72.2939 138.752C71.3564 139.643 70.0938 140.105 68.5059 140.141V143.032H65.9834V140.141ZM80.2744 132.055C79.6826 132.055 79.1934 132.245 78.8066 132.626C78.4258 133.007 78.2119 133.511 78.165 134.138H82.2959C82.2666 133.493 82.0732 132.986 81.7158 132.617C81.3525 132.242 80.8721 132.055 80.2744 132.055ZM84.7305 137.24C84.5371 138.16 84.0479 138.884 83.2627 139.411C82.4717 139.944 81.4844 140.211 80.3008 140.211C78.8242 140.211 77.6729 139.769 76.8467 138.884C76.0205 138.005 75.6074 136.777 75.6074 135.201C75.6074 133.625 76.0234 132.38 76.8555 131.466C77.6875 130.552 78.8242 130.095 80.2656 130.095C81.6953 130.095 82.8086 130.525 83.6055 131.387C84.4082 132.248 84.8096 133.449 84.8096 134.99V135.772H78.1562V135.904C78.1738 136.625 78.3818 137.193 78.7803 137.609C79.1729 138.031 79.7031 138.242 80.3711 138.242C81.4082 138.242 82.0674 137.908 82.3486 137.24H84.7305ZM93.3789 133.725C93.291 133.25 93.0859 132.881 92.7637 132.617C92.4238 132.336 91.9873 132.195 91.4541 132.195C90.7627 132.195 90.2324 132.447 89.8633 132.951C89.4883 133.455 89.3008 134.182 89.3008 135.131C89.3008 136.092 89.4883 136.83 89.8633 137.346C90.2324 137.855 90.7627 138.11 91.4541 138.11C92.5381 138.11 93.1797 137.621 93.3789 136.643H95.7695C95.6641 137.738 95.2334 138.605 94.4775 139.244C93.71 139.889 92.7021 140.211 91.4541 140.211C89.9424 140.211 88.7764 139.771 87.9561 138.893C87.1299 138.008 86.7168 136.754 86.7168 135.131C86.7168 133.52 87.127 132.277 87.9473 131.404C88.7676 130.531 89.9365 130.095 91.4541 130.095C92.7197 130.095 93.7334 130.423 94.4951 131.079C95.2393 131.724 95.6641 132.605 95.7695 133.725H93.3789ZM104.154 133.725C104.066 133.25 103.861 132.881 103.539 132.617C103.199 132.336 102.763 132.195 102.229 132.195C101.538 132.195 101.008 132.447 100.639 132.951C100.264 133.455 100.076 134.182 100.076 135.131C100.076 136.092 100.264 136.83 100.639 137.346C101.008 137.855 101.538 138.11 102.229 138.11C103.313 138.11 103.955 137.621 104.154 136.643H106.545C106.439 137.738 106.009 138.605 105.253 139.244C104.485 139.889 103.478 140.211 102.229 140.211C100.718 140.211 99.5518 139.771 98.7314 138.893C97.9053 138.008 97.4922 136.754 97.4922 135.131C97.4922 133.52 97.9023 132.277 98.7227 131.404C99.543 130.531 100.712 130.095 102.229 130.095C103.495 130.095 104.509 130.423 105.271 131.079C106.015 131.724 106.439 132.605 106.545 133.725H104.154ZM108.725 140V130.306H111.238V136.265H111.396L115.308 130.306H117.821V140H115.308V133.971H115.149L111.238 140H108.725ZM125.934 135.017V132.31H124.36C123.886 132.31 123.508 132.436 123.227 132.688C122.939 132.939 122.796 133.273 122.796 133.689C122.796 134.082 122.939 134.398 123.227 134.639C123.514 134.891 123.892 135.017 124.36 135.017H125.934ZM125.934 136.88H124.888L122.734 140H119.834L122.374 136.458C121.729 136.265 121.22 135.916 120.845 135.412C120.47 134.914 120.282 134.331 120.282 133.663C120.282 132.644 120.634 131.826 121.337 131.211C122.034 130.607 122.954 130.306 124.097 130.306H128.438V140H125.934V136.88Z" fill="white" fill-opacity="0.44"/>
<path d="M26.3359 190.306H28.8936V194.023H32.7695V190.306H35.3271V200H32.7695V196.036H28.8936V200H26.3359V190.306ZM42.376 198.119C43.0557 198.119 43.583 197.858 43.958 197.337C44.333 196.821 44.5205 196.092 44.5205 195.148C44.5205 194.217 44.333 193.49 43.958 192.969C43.5771 192.447 43.0498 192.187 42.376 192.187C41.6963 192.187 41.1689 192.447 40.7939 192.969C40.4189 193.49 40.2314 194.217 40.2314 195.148C40.2314 196.092 40.4189 196.824 40.7939 197.346C41.1631 197.861 41.6904 198.119 42.376 198.119ZM42.376 200.211C40.8877 200.211 39.7188 199.763 38.8691 198.866C38.0254 197.97 37.6035 196.73 37.6035 195.148C37.6035 193.578 38.0312 192.345 38.8867 191.448C39.7363 190.546 40.8994 190.095 42.376 190.095C43.8525 190.095 45.0186 190.543 45.874 191.439C46.7236 192.342 47.1484 193.578 47.1484 195.148C47.1484 196.73 46.7266 197.97 45.8828 198.866C45.0332 199.763 43.8643 200.211 42.376 200.211ZM49.4336 200V190.306H52.7471L55.2871 196.511H55.4453L57.9941 190.306H61.2637V200H58.8555V193.575H58.6885L56.2363 199.455H54.4521L52 193.575H51.8418V200H49.4336ZM68.2158 192.055C67.624 192.055 67.1348 192.245 66.748 192.626C66.3672 193.007 66.1533 193.511 66.1064 194.138H70.2373C70.208 193.493 70.0146 192.986 69.6572 192.617C69.2939 192.242 68.8135 192.055 68.2158 192.055ZM72.6719 197.24C72.4785 198.16 71.9893 198.884 71.2041 199.411C70.4131 199.944 69.4258 200.211 68.2422 200.211C66.7656 200.211 65.6143 199.769 64.7881 198.884C63.9619 198.005 63.5488 196.777 63.5488 195.201C63.5488 193.625 63.9648 192.38 64.7969 191.466C65.6289 190.552 66.7656 190.095 68.207 190.095C69.6367 190.095 70.75 190.525 71.5469 191.387C72.3496 192.248 72.751 193.449 72.751 194.99V195.772H66.0977V195.904C66.1152 196.625 66.3232 197.193 66.7217 197.609C67.1143 198.031 67.6445 198.242 68.3125 198.242C69.3496 198.242 70.0088 197.908 70.29 197.24H72.6719ZM80.6875 190.147C81.918 190.147 82.8848 190.59 83.5879 191.475C84.291 192.359 84.6426 193.584 84.6426 195.148C84.6426 196.707 84.2939 197.932 83.5967 198.822C82.8994 199.707 81.9443 200.149 80.7314 200.149C79.2842 200.149 78.3086 199.604 77.8047 198.515H77.6465V203.032H75.0889V190.306H77.5674V191.896H77.7256C77.9893 191.352 78.3818 190.924 78.9033 190.613C79.4248 190.303 80.0195 190.147 80.6875 190.147ZM79.8174 198.014C80.5088 198.014 81.0479 197.759 81.4346 197.249C81.8213 196.745 82.0146 196.045 82.0146 195.148C82.0146 194.258 81.8213 193.561 81.4346 193.057C81.042 192.547 80.5059 192.292 79.8262 192.292C79.1465 192.292 78.6074 192.547 78.209 193.057C77.8164 193.572 77.6201 194.272 77.6201 195.157C77.6201 196.042 77.8164 196.739 78.209 197.249C78.6016 197.759 79.1377 198.014 79.8174 198.014ZM99.1621 192.318H96.2617V200H93.7041V192.318H90.8037V190.306H99.1621V192.318ZM105.077 192.055C104.485 192.055 103.996 192.245 103.609 192.626C103.229 193.007 103.015 193.511 102.968 194.138H107.099C107.069 193.493 106.876 192.986 106.519 192.617C106.155 192.242 105.675 192.055 105.077 192.055ZM109.533 197.24C109.34 198.16 108.851 198.884 108.065 199.411C107.274 199.944 106.287 200.211 105.104 200.211C103.627 200.211 102.476 199.769 101.649 198.884C100.823 198.005 100.41 196.777 100.41 195.201C100.41 193.625 100.826 192.38 101.658 191.466C102.49 190.552 103.627 190.095 105.068 190.095C106.498 190.095 107.611 190.525 108.408 191.387C109.211 192.248 109.612 193.449 109.612 194.99V195.772H102.959V195.904C102.977 196.625 103.185 197.193 103.583 197.609C103.976 198.031 104.506 198.242 105.174 198.242C106.211 198.242 106.87 197.908 107.151 197.24H109.533ZM115 195.342C114.912 196.9 114.637 198.055 114.174 198.805C113.641 199.678 112.812 200.114 111.687 200.114C111.37 200.114 111.098 200.076 110.869 200V197.75C111.033 197.791 111.218 197.812 111.423 197.812C111.856 197.812 112.179 197.56 112.39 197.056C112.565 196.646 112.677 196.016 112.724 195.166L113.005 190.306H120.3V200H117.742V192.318H115.202L115 195.342ZM127.243 192.055C126.651 192.055 126.162 192.245 125.775 192.626C125.395 193.007 125.181 193.511 125.134 194.138H129.265C129.235 193.493 129.042 192.986 128.685 192.617C128.321 192.242 127.841 192.055 127.243 192.055ZM131.699 197.24C131.506 198.16 131.017 198.884 130.231 199.411C129.44 199.944 128.453 200.211 127.27 200.211C125.793 200.211 124.642 199.769 123.815 198.884C122.989 198.005 122.576 196.777 122.576 195.201C122.576 193.625 122.992 192.38 123.824 191.466C124.656 190.552 125.793 190.095 127.234 190.095C128.664 190.095 129.777 190.525 130.574 191.387C131.377 192.248 131.778 193.449 131.778 194.99V195.772H125.125V195.904C125.143 196.625 125.351 197.193 125.749 197.609C126.142 198.031 126.672 198.242 127.34 198.242C128.377 198.242 129.036 197.908 129.317 197.24H131.699ZM138.924 192.169C138.115 192.192 137.477 192.465 137.008 192.986C136.527 193.52 136.287 194.24 136.287 195.148C136.287 196.068 136.524 196.792 136.999 197.319C137.468 197.835 138.109 198.107 138.924 198.137V192.169ZM144.03 195.148C144.03 194.234 143.793 193.514 143.318 192.986C142.85 192.471 142.208 192.198 141.394 192.169V198.137C142.202 198.113 142.841 197.838 143.31 197.311C143.79 196.777 144.03 196.057 144.03 195.148ZM138.897 200.141C137.298 200.105 136.032 199.648 135.101 198.77C134.157 197.879 133.686 196.672 133.686 195.148C133.686 193.648 134.16 192.447 135.109 191.545C136.047 190.66 137.31 190.2 138.897 190.165V187.194H141.42V190.165C143.02 190.2 144.285 190.657 145.217 191.536C146.16 192.427 146.632 193.634 146.632 195.157C146.632 196.657 146.157 197.855 145.208 198.752C144.271 199.643 143.008 200.105 141.42 200.141V203.032H138.897V200.141ZM153.294 198.119C153.974 198.119 154.501 197.858 154.876 197.337C155.251 196.821 155.438 196.092 155.438 195.148C155.438 194.217 155.251 193.49 154.876 192.969C154.495 192.447 153.968 192.187 153.294 192.187C152.614 192.187 152.087 192.447 151.712 192.969C151.337 193.49 151.149 194.217 151.149 195.148C151.149 196.092 151.337 196.824 151.712 197.346C152.081 197.861 152.608 198.119 153.294 198.119ZM153.294 200.211C151.806 200.211 150.637 199.763 149.787 198.866C148.943 197.97 148.521 196.73 148.521 195.148C148.521 193.578 148.949 192.345 149.805 191.448C150.654 190.546 151.817 190.095 153.294 190.095C154.771 190.095 155.937 190.543 156.792 191.439C157.642 192.342 158.066 193.578 158.066 195.148C158.066 196.73 157.645 197.97 156.801 198.866C155.951 199.763 154.782 200.211 153.294 200.211ZM160.352 190.306H162.909V194.023H166.785V190.306H169.343V200H166.785V196.036H162.909V200H160.352V190.306ZM175.548 198.225C176.14 198.225 176.635 198.058 177.033 197.724C177.432 197.39 177.631 196.977 177.631 196.484V195.772L175.671 195.896C174.581 195.972 174.036 196.361 174.036 197.064C174.036 197.422 174.177 197.706 174.458 197.917C174.733 198.122 175.097 198.225 175.548 198.225ZM174.704 200.149C173.767 200.149 173.005 199.886 172.419 199.358C171.827 198.819 171.531 198.11 171.531 197.231C171.531 196.358 171.856 195.67 172.507 195.166C173.151 194.668 174.077 194.384 175.284 194.313L177.631 194.173V193.382C177.631 192.538 177.086 192.116 175.996 192.116C175.047 192.116 174.464 192.415 174.247 193.013H171.892C171.974 192.116 172.398 191.404 173.166 190.877C173.928 190.355 174.918 190.095 176.137 190.095C177.414 190.095 178.404 190.382 179.107 190.956C179.805 191.53 180.153 192.339 180.153 193.382V200H177.675V198.734H177.517C176.983 199.678 176.046 200.149 174.704 200.149Z" fill="white" fill-opacity="0.44"/>
<path d="M30.2207 260.211C28.9551 260.211 27.9326 259.886 27.1533 259.235C26.3975 258.608 25.9639 257.759 25.8525 256.687H28.2432C28.3369 257.138 28.5625 257.486 28.9199 257.732C29.2656 257.979 29.6992 258.102 30.2207 258.102C30.8242 258.102 31.3223 257.905 31.7148 257.513C32.1074 257.12 32.3301 256.584 32.3828 255.904H28.8145V254.182H32.3564C32.2861 253.561 32.0547 253.071 31.6621 252.714C31.2754 252.368 30.7949 252.195 30.2207 252.195C29.6992 252.195 29.2627 252.327 28.9111 252.591C28.5713 252.849 28.3516 253.194 28.252 253.628H25.8613C25.9785 252.573 26.418 251.727 27.1797 251.088C27.9707 250.426 28.9873 250.095 30.2295 250.095C31.6885 250.095 32.8428 250.546 33.6924 251.448C34.5479 252.356 34.9756 253.584 34.9756 255.131C34.9756 256.701 34.5479 257.94 33.6924 258.849C32.8428 259.757 31.6855 260.211 30.2207 260.211ZM40.3809 255.342C40.293 256.9 40.0176 258.055 39.5547 258.805C39.0215 259.678 38.1924 260.114 37.0674 260.114C36.751 260.114 36.4785 260.076 36.25 260V257.75C36.4141 257.791 36.5986 257.812 36.8037 257.812C37.2373 257.812 37.5596 257.56 37.7705 257.056C37.9463 256.646 38.0576 256.016 38.1045 255.166L38.3857 250.306H45.6807V260H43.123V252.318H40.583L40.3809 255.342ZM52.624 252.055C52.0322 252.055 51.543 252.245 51.1562 252.626C50.7754 253.007 50.5615 253.511 50.5146 254.138H54.6455C54.6162 253.493 54.4229 252.986 54.0654 252.617C53.7021 252.242 53.2217 252.055 52.624 252.055ZM57.0801 257.24C56.8867 258.16 56.3975 258.884 55.6123 259.411C54.8213 259.944 53.834 260.211 52.6504 260.211C51.1738 260.211 50.0225 259.769 49.1963 258.884C48.3701 258.005 47.957 256.777 47.957 255.201C47.957 253.625 48.373 252.38 49.2051 251.466C50.0371 250.552 51.1738 250.095 52.6152 250.095C54.0449 250.095 55.1582 250.525 55.9551 251.387C56.7578 252.248 57.1592 253.449 57.1592 254.99V255.772H50.5059V255.904C50.5234 256.625 50.7314 257.193 51.1299 257.609C51.5225 258.031 52.0527 258.242 52.7207 258.242C53.7578 258.242 54.417 257.908 54.6982 257.24H57.0801ZM62.4502 254.085L65.377 250.306H68.2861L64.5684 254.727L68.4795 260H65.4297L62.4854 255.983H62.0283V260H59.4707V250.306H62.0283V254.085H62.4502ZM77.6289 252.318H74.7285V260H72.1709V252.318H69.2705V250.306H77.6289V252.318ZM85.2227 250.147C86.4531 250.147 87.4199 250.59 88.123 251.475C88.8262 252.359 89.1777 253.584 89.1777 255.148C89.1777 256.707 88.8291 257.932 88.1318 258.822C87.4346 259.707 86.4795 260.149 85.2666 260.149C83.8193 260.149 82.8438 259.604 82.3398 258.515H82.1816V263.032H79.624V250.306H82.1025V251.896H82.2607C82.5244 251.352 82.917 250.924 83.4385 250.613C83.96 250.303 84.5547 250.147 85.2227 250.147ZM84.3525 258.014C85.0439 258.014 85.583 257.759 85.9697 257.249C86.3564 256.745 86.5498 256.045 86.5498 255.148C86.5498 254.258 86.3564 253.561 85.9697 253.057C85.5771 252.547 85.041 252.292 84.3613 252.292C83.6816 252.292 83.1426 252.547 82.7441 253.057C82.3516 253.572 82.1553 254.272 82.1553 255.157C82.1553 256.042 82.3516 256.739 82.7441 257.249C83.1367 257.759 83.6729 258.014 84.3525 258.014ZM95.7959 258.119C96.4756 258.119 97.0029 257.858 97.3779 257.337C97.7529 256.821 97.9404 256.092 97.9404 255.148C97.9404 254.217 97.7529 253.49 97.3779 252.969C96.9971 252.447 96.4697 252.187 95.7959 252.187C95.1162 252.187 94.5889 252.447 94.2139 252.969C93.8389 253.49 93.6514 254.217 93.6514 255.148C93.6514 256.092 93.8389 256.824 94.2139 257.346C94.583 257.861 95.1104 258.119 95.7959 258.119ZM95.7959 260.211C94.3076 260.211 93.1387 259.763 92.2891 258.866C91.4453 257.97 91.0234 256.73 91.0234 255.148C91.0234 253.578 91.4512 252.345 92.3066 251.448C93.1562 250.546 94.3193 250.095 95.7959 250.095C97.2725 250.095 98.4385 250.543 99.2939 251.439C100.144 252.342 100.568 253.578 100.568 255.148C100.568 256.73 100.146 257.97 99.3027 258.866C98.4531 259.763 97.2842 260.211 95.7959 260.211ZM102.854 250.306H105.411V254.023H109.287V250.306H111.845V260H109.287V256.036H105.411V260H102.854V250.306ZM114.525 250.306H117.083V254.023H120.959V250.306H123.517V260H120.959V256.036H117.083V260H114.525V250.306ZM129.722 258.225C130.313 258.225 130.809 258.058 131.207 257.724C131.605 257.39 131.805 256.977 131.805 256.484V255.772L129.845 255.896C128.755 255.972 128.21 256.361 128.21 257.064C128.21 257.422 128.351 257.706 128.632 257.917C128.907 258.122 129.271 258.225 129.722 258.225ZM128.878 260.149C127.94 260.149 127.179 259.886 126.593 259.358C126.001 258.819 125.705 258.11 125.705 257.231C125.705 256.358 126.03 255.67 126.681 255.166C127.325 254.668 128.251 254.384 129.458 254.313L131.805 254.173V253.382C131.805 252.538 131.26 252.116 130.17 252.116C129.221 252.116 128.638 252.415 128.421 253.013H126.065C126.147 252.116 126.572 251.404 127.34 250.877C128.102 250.355 129.092 250.095 130.311 250.095C131.588 250.095 132.578 250.382 133.281 250.956C133.979 251.53 134.327 252.339 134.327 253.382V260H131.849V258.734H131.69C131.157 259.678 130.22 260.149 128.878 260.149ZM142.457 255.017V252.31H140.884C140.409 252.31 140.031 252.436 139.75 252.688C139.463 252.939 139.319 253.273 139.319 253.689C139.319 254.082 139.463 254.398 139.75 254.639C140.037 254.891 140.415 255.017 140.884 255.017H142.457ZM142.457 256.88H141.411L139.258 260H136.357L138.897 256.458C138.253 256.265 137.743 255.916 137.368 255.412C136.993 254.914 136.806 254.331 136.806 253.663C136.806 252.644 137.157 251.826 137.86 251.211C138.558 250.607 139.478 250.306 140.62 250.306H144.962V260H142.457V256.88ZM158.646 252.318H154.858V260H152.301V250.306H161.204V260H158.646V252.318ZM168.253 258.119C168.933 258.119 169.46 257.858 169.835 257.337C170.21 256.821 170.397 256.092 170.397 255.148C170.397 254.217 170.21 253.49 169.835 252.969C169.454 252.447 168.927 252.187 168.253 252.187C167.573 252.187 167.046 252.447 166.671 252.969C166.296 253.49 166.108 254.217 166.108 255.148C166.108 256.092 166.296 256.824 166.671 257.346C167.04 257.861 167.567 258.119 168.253 258.119ZM168.253 260.211C166.765 260.211 165.596 259.763 164.746 258.866C163.902 257.97 163.48 256.73 163.48 255.148C163.48 253.578 163.908 252.345 164.764 251.448C165.613 250.546 166.776 250.095 168.253 250.095C169.729 250.095 170.896 250.543 171.751 251.439C172.601 252.342 173.025 253.578 173.025 255.148C173.025 256.73 172.604 257.97 171.76 258.866C170.91 259.763 169.741 260.211 168.253 260.211ZM181.173 260V255.896H181.015C180.411 256.593 179.547 256.941 178.422 256.941C177.396 256.941 176.579 256.619 175.97 255.975C175.354 255.33 175.047 254.46 175.047 253.364V250.306H177.604V252.969C177.604 253.52 177.751 253.953 178.044 254.27C178.331 254.58 178.724 254.735 179.222 254.735C180.106 254.735 180.757 254.416 181.173 253.777V250.306H183.73V260H181.173ZM194.049 252.318H191.148V260H188.591V252.318H185.69V250.306H194.049V252.318ZM199.401 258.225C199.993 258.225 200.488 258.058 200.887 257.724C201.285 257.39 201.484 256.977 201.484 256.484V255.772L199.524 255.896C198.435 255.972 197.89 256.361 197.89 257.064C197.89 257.422 198.03 257.706 198.312 257.917C198.587 258.122 198.95 258.225 199.401 258.225ZM198.558 260.149C197.62 260.149 196.858 259.886 196.272 259.358C195.681 258.819 195.385 258.11 195.385 257.231C195.385 256.358 195.71 255.67 196.36 255.166C197.005 254.668 197.931 254.384 199.138 254.313L201.484 254.173V253.382C201.484 252.538 200.939 252.116 199.85 252.116C198.9 252.116 198.317 252.415 198.101 253.013H195.745C195.827 252.116 196.252 251.404 197.02 250.877C197.781 250.355 198.771 250.095 199.99 250.095C201.268 250.095 202.258 250.382 202.961 250.956C203.658 251.53 204.007 252.339 204.007 253.382V260H201.528V258.734H201.37C200.837 259.678 199.899 260.149 198.558 260.149Z" fill="white" fill-opacity="0.44"/>
</svg>
