<svg width="234" height="54" viewBox="0 0 234 54" fill="none" xmlns="http://www.w3.org/2000/svg">
<rect width="234" height="54" rx="27" fill="white" fill-opacity="0.2"/>
<path d="M81.2539 32.4062C82.4648 32.4062 83.4023 32.0039 84.0664 31.1992C84.7227 30.3945 85.0508 29.2617 85.0508 27.8008C85.0508 26.4102 84.7227 25.3359 84.0664 24.5781C83.4023 23.8125 82.4648 23.4297 81.2539 23.4297C80.043 23.4297 79.1055 23.8125 78.4414 24.5781C77.7852 25.3359 77.457 26.4102 77.457 27.8008C77.457 29.2617 77.7852 30.3945 78.4414 31.1992C79.1055 32.0039 80.043 32.4062 81.2539 32.4062ZM77.2812 23.957C78.1641 22.4023 79.5898 21.625 81.5586 21.625C83.2383 21.625 84.5859 22.1719 85.6016 23.2656C86.625 24.3828 87.1367 25.8945 87.1367 27.8008C87.1367 29.793 86.6094 31.3594 85.5547 32.5C84.5078 33.6484 83.0742 34.2227 81.2539 34.2227C79.3555 34.2227 77.9062 33.5977 76.9062 32.3477C75.8828 31.0586 75.3711 29.1406 75.3711 26.5938C75.3711 23.4766 75.8047 21.1836 76.6719 19.7148C77.6641 18.0273 79.3555 17.1289 81.7461 17.0195L83.0117 16.9609C83.8398 16.9219 84.6367 16.7969 85.4023 16.5859C85.9492 16.4375 86.25 16.3359 86.3047 16.2812V18.0859C85.8281 18.5156 84.7617 18.7656 83.1055 18.8359L81.8164 18.8945C80.2227 18.9648 79.0625 19.4375 78.3359 20.3125C77.7188 21.0625 77.3047 22.2773 77.0938 23.957H77.2812ZM90.5234 34V21.3672H92.5391V30.7891H92.7266L99.1367 21.3672H101.152V34H99.1367V24.5781H98.9492L92.5391 34H90.5234ZM108.207 28.457C108.066 30.332 107.742 31.707 107.234 32.582C106.648 33.5977 105.734 34.1055 104.492 34.1055C104.203 34.1055 103.957 34.0625 103.754 33.9766V32.125C103.941 32.1875 104.152 32.2188 104.387 32.2188C104.98 32.2188 105.434 31.875 105.746 31.1875C106.02 30.5859 106.199 29.6602 106.285 28.4102L106.777 21.3672H115.039V34H113.023V23.0547H108.605L108.207 28.457ZM124.098 22.9258C123.09 22.9258 122.262 23.2656 121.613 23.9453C120.965 24.625 120.602 25.5234 120.523 26.6406H127.484C127.461 25.5234 127.141 24.625 126.523 23.9453C125.906 23.2656 125.098 22.9258 124.098 22.9258ZM129.441 30.7305C129.137 31.8242 128.52 32.6758 127.59 33.2852C126.652 33.9102 125.496 34.2227 124.121 34.2227C122.371 34.2227 120.984 33.6328 119.961 32.4531C118.938 31.2812 118.426 29.6953 118.426 27.6953C118.426 25.7031 118.941 24.1133 119.973 22.9258C121.004 21.7383 122.387 21.1445 124.121 21.1445C125.824 21.1445 127.164 21.7109 128.141 22.8438C129.117 23.9766 129.605 25.5273 129.605 27.4961V28.2695H120.523V28.3633C120.578 29.6133 120.93 30.6055 121.578 31.3398C122.234 32.0742 123.098 32.4414 124.168 32.4414C125.801 32.4414 126.887 31.8711 127.426 30.7305H129.441ZM141.676 23.0547H137.574V34H135.559V23.0547H131.457V21.3672H141.676V23.0547ZM155.434 21.3672H157.449V34H155.434V21.3672ZM146.75 27.1094V32.3125H149.129C149.957 32.3125 150.621 32.0742 151.121 31.5977C151.613 31.1289 151.859 30.5 151.859 29.7109C151.859 28.9219 151.609 28.2891 151.109 27.8125C150.617 27.3438 149.957 27.1094 149.129 27.1094H146.75ZM144.734 21.3672H146.75V25.4219H149.129C150.574 25.4219 151.727 25.8086 152.586 26.582C153.445 27.3555 153.875 28.3984 153.875 29.7109C153.875 31.0234 153.445 32.0664 152.586 32.8398C151.727 33.6133 150.574 34 149.129 34H144.734V21.3672Z" fill="white"/>
</svg>
