<svg width="557" height="242" viewBox="0 0 557 242" fill="none" xmlns="http://www.w3.org/2000/svg">
<g filter="url(#filter0_b)">
<rect width="557" height="242" rx="8" fill="white" fill-opacity="0.2"/>
</g>
<path d="M176.34 50V24.6348H186.535C188.914 24.6348 190.783 25.2031 192.143 26.3398C193.49 27.4648 194.164 29.0059 194.164 30.9629C194.164 32.2871 193.736 33.4766 192.881 34.5312C192.025 35.5742 190.971 36.2012 189.717 36.4121V36.7109C191.428 36.8867 192.811 37.5312 193.865 38.6445C194.908 39.7695 195.43 41.1582 195.43 42.8105C195.43 45.0488 194.662 46.8066 193.127 48.084C191.592 49.3613 189.471 50 186.764 50H176.34ZM180.277 35.375H184.953C188.48 35.375 190.244 34.1445 190.244 31.6836C190.244 30.5117 189.84 29.6035 189.031 28.959C188.211 28.3027 187.074 27.9746 185.621 27.9746H180.277V35.375ZM185.973 46.6602C189.594 46.6602 191.404 45.2832 191.404 42.5293C191.404 39.834 189.518 38.4863 185.744 38.4863H180.277V46.6602H185.973ZM214.941 43.2676H205.273L202.936 50H198.893L208.051 24.6348H212.287L221.445 50H217.262L214.941 43.2676ZM206.275 39.9629H213.939L210.266 29.2402H209.967L206.275 39.9629ZM230.92 35.6211L240.939 24.6348H245.598L234.277 36.9395L246.512 50H241.52L230.938 38.873H230.164V50H226.227V24.6348H230.164V35.6211H230.92ZM265.109 43.2676H255.441L253.104 50H249.061L258.219 24.6348H262.455L271.613 50H267.43L265.109 43.2676ZM256.443 39.9629H264.107L260.434 29.2402H260.135L256.443 39.9629ZM293.357 50V38.873H280.332V50H276.395V24.6348H280.332V35.2871H293.357V24.6348H297.277V50H293.357ZM314.469 50.6152C310.941 50.6152 308.152 49.4258 306.102 47.0469C304.051 44.668 303.025 41.4277 303.025 37.3262C303.025 33.2129 304.051 29.9668 306.102 27.5879C308.141 25.209 310.924 24.0195 314.451 24.0195C317.24 24.0195 319.619 24.8398 321.588 26.4805C323.545 28.1094 324.682 30.2188 324.998 32.8086H321.078C320.703 31.25 319.924 30.0078 318.74 29.082C317.545 28.1562 316.115 27.6934 314.451 27.6934C312.178 27.6934 310.373 28.5605 309.037 30.2949C307.713 32.0176 307.051 34.3613 307.051 37.3262C307.051 40.2793 307.719 42.6172 309.055 44.3398C310.379 46.0742 312.184 46.9414 314.469 46.9414C316.145 46.9414 317.58 46.5195 318.775 45.6758C319.959 44.832 320.727 43.6953 321.078 42.2656H324.998C324.646 44.7734 323.51 46.7891 321.588 48.3125C319.666 49.8477 317.293 50.6152 314.469 50.6152ZM347.867 31.2969H347.568L334.684 50H330.852V24.6348H334.754V43.3906H335.053L347.938 24.6348H351.77V50H347.867V31.2969ZM375.5 31.2969H375.201L362.316 50H358.484V24.6348H362.387V43.3906H362.686L375.57 24.6348H379.402V50H375.5V31.2969Z" fill="white"/>
<defs>
<filter id="filter0_b" x="-20" y="-20" width="597" height="282" filterUnits="userSpaceOnUse" color-interpolation-filters="sRGB">
<feFlood flood-opacity="0" result="BackgroundImageFix"/>
<feGaussianBlur in="BackgroundImage" stdDeviation="10"/>
<feComposite in2="SourceAlpha" operator="in" result="effect1_backgroundBlur"/>
<feBlend mode="normal" in="SourceGraphic" in2="effect1_backgroundBlur" result="shape"/>
</filter>
</defs>
</svg>
