<svg width="310" height="310" viewBox="0 0 310 310" fill="none" xmlns="http://www.w3.org/2000/svg">
<g filter="url(#filter0_b)">
<rect width="310" height="310" rx="8" fill="white" fill-opacity="0.2"/>
</g>
<path d="M73.8271 48V26.8623H81.9131C83.8467 26.8623 85.375 27.3359 86.498 28.2832C87.6113 29.2305 88.168 30.5146 88.168 32.1357C88.168 33.2295 87.8164 34.2158 87.1133 35.0947C86.4004 35.9736 85.5361 36.5059 84.5205 36.6914V36.9258C85.9658 37.1113 87.1133 37.6631 87.9629 38.5811C88.8125 39.5088 89.2373 40.6709 89.2373 42.0674C89.2373 43.9326 88.6074 45.3877 87.3477 46.4326C86.0781 47.4775 84.3203 48 82.0742 48H73.8271ZM76.4639 35.9736H80.6826C83.8955 35.9736 85.502 34.8457 85.502 32.5898C85.502 31.5156 85.1406 30.6807 84.418 30.085C83.6855 29.4893 82.665 29.1914 81.3564 29.1914H76.4639V35.9736ZM81.6787 45.6709C84.9111 45.6709 86.5273 44.4258 86.5273 41.9355C86.5273 39.4746 84.8281 38.2441 81.4297 38.2441H76.4639V45.6709H81.6787ZM106.933 48H93.8369V26.8623H106.933V29.2354H96.4736V36.0176H106.391V38.3613H96.4736V45.627H106.933V48ZM120.512 48.498C117.641 48.498 115.37 47.5068 113.7 45.5244C112.021 43.542 111.181 40.8467 111.181 37.4385C111.181 34.0303 112.016 31.3301 113.686 29.3379C115.355 27.3555 117.626 26.3643 120.497 26.3643C122.724 26.3643 124.628 26.999 126.21 28.2686C127.792 29.5381 128.739 31.1934 129.052 33.2344H126.371C126.02 31.8672 125.316 30.7881 124.262 29.9971C123.207 29.1963 121.952 28.7959 120.497 28.7959C118.466 28.7959 116.859 29.5723 115.678 31.125C114.486 32.6777 113.891 34.7822 113.891 37.4385C113.891 40.0947 114.486 42.1943 115.678 43.7373C116.869 45.29 118.48 46.0664 120.512 46.0664C121.986 46.0664 123.246 45.7148 124.291 45.0117C125.346 44.2988 126.039 43.332 126.371 42.1113H129.052C128.7 44.0547 127.753 45.6025 126.21 46.7549C124.657 47.917 122.758 48.498 120.512 48.498ZM147.157 48H134.062V26.8623H147.157V29.2354H136.698V36.0176H146.615V38.3613H136.698V45.627H147.157V48ZM164.779 48V29.2354H157.06L156.386 40.0898C156.22 42.7754 155.746 44.7529 154.965 46.0225C154.105 47.4287 152.782 48.1318 150.995 48.1318C150.585 48.1318 150.243 48.083 149.97 47.9854V45.627C150.185 45.6855 150.448 45.7148 150.761 45.7148C151.864 45.7148 152.66 45.1729 153.148 44.0889C153.539 43.2393 153.788 41.8721 153.896 39.9873L154.657 26.8623H167.416V48H164.779ZM175.194 48.1465C174.667 48.1465 174.276 48.083 174.022 47.9561V45.583C174.335 45.6611 174.726 45.7002 175.194 45.7002C176.708 45.7002 177.86 44.9629 178.651 43.4883L171.43 26.8623H174.242L179.911 40.5586H180.146L185.683 26.8623H188.422L181.947 41.9502C181 44.1572 180.106 45.6904 179.267 46.5498C178.222 47.6143 176.864 48.1465 175.194 48.1465ZM197.987 37.3652L190.839 26.8623H194.018L199.584 35.2705H199.818L205.473 26.8623H208.476L201.151 37.4824L208.314 48H205.15L199.613 39.665H199.379L193.739 48H190.751L197.987 37.3652ZM224.398 41.9502H215.99L213.866 48H211.098L218.891 26.8623H221.498L229.291 48H226.522L224.398 41.9502ZM216.767 39.709H223.622L220.312 30.2754H220.077L216.767 39.709Z" fill="white"/>
<path d="M39.5977 278.496H31.3594V276.574C32.9062 273.824 35.3203 269.996 38.6016 265.09H41.6602V276.609H44.0625V278.496H41.6602V282H39.5977V278.496ZM33.5156 276.621H39.6094V267.047H39.4688C37.6406 269.703 35.6562 272.848 33.5156 276.48V276.621ZM50.7773 272.402H52.8281C53.7891 272.402 54.5781 272.121 55.1953 271.559C55.8047 270.996 56.1094 270.277 56.1094 269.402C56.1094 268.543 55.8125 267.848 55.2188 267.316C54.625 266.793 53.8398 266.531 52.8633 266.531C51.8867 266.531 51.0977 266.785 50.4961 267.293C49.8945 267.809 49.5508 268.52 49.4648 269.426H47.4141C47.5234 267.957 48.0703 266.801 49.0547 265.957C50.0391 265.113 51.3359 264.691 52.9453 264.691C54.4219 264.691 55.6758 265.121 56.707 265.98C57.7383 266.84 58.2539 267.887 58.2539 269.121C58.2539 270.129 57.9922 270.98 57.4688 271.676C56.9453 272.371 56.2188 272.832 55.2891 273.059V273.246C56.4375 273.395 57.3398 273.84 57.9961 274.582C58.6523 275.332 58.9805 276.285 58.9805 277.441C58.9805 278.832 58.4062 280.008 57.2578 280.969C56.1094 281.922 54.6992 282.398 53.0273 282.398C51.3086 282.398 49.9062 281.961 48.8203 281.086C47.7344 280.203 47.1523 279.039 47.0742 277.594H49.1133C49.207 278.492 49.6055 279.211 50.3086 279.75C51.0117 280.289 51.9102 280.559 53.0039 280.559C54.1133 280.559 55.0273 280.262 55.7461 279.668C56.457 279.074 56.8125 278.312 56.8125 277.383C56.8125 276.406 56.4648 275.633 55.7695 275.062C55.0742 274.492 54.125 274.207 52.9219 274.207H50.7773V272.402ZM68.0508 282.398C66.1445 282.398 64.668 281.625 63.6211 280.078C62.5742 278.531 62.0508 276.352 62.0508 273.539C62.0508 270.75 62.5781 268.578 63.6328 267.023C64.6875 265.469 66.1602 264.691 68.0508 264.691C69.9336 264.691 71.3984 265.473 72.4453 267.035C73.5 268.598 74.0273 270.777 74.0273 273.574C74.0273 276.379 73.5078 278.551 72.4688 280.09C71.4219 281.629 69.9492 282.398 68.0508 282.398ZM68.0508 280.559C69.3008 280.559 70.2539 279.957 70.9102 278.754C71.5742 277.543 71.9062 275.805 71.9062 273.539C71.9062 271.297 71.5742 269.57 70.9102 268.359C70.2383 267.148 69.2852 266.543 68.0508 266.543C66.8164 266.543 65.8594 267.152 65.1797 268.371C64.5078 269.582 64.1719 271.305 64.1719 273.539C64.1719 275.797 64.5078 277.531 65.1797 278.742C65.8438 279.953 66.8008 280.559 68.0508 280.559ZM81.375 273.621H84.0703C85.25 273.621 86.1523 273.32 86.7773 272.719C87.3711 272.141 87.668 271.328 87.668 270.281C87.668 269.242 87.3711 268.438 86.7773 267.867C86.1602 267.266 85.2578 266.965 84.0703 266.965H81.375V273.621ZM81.375 279.305V282H79.2656V279.305H76.9219V277.711H79.2656V275.449H76.9219V273.621H79.2656V265.09H84.6211C86.1836 265.09 87.4492 265.586 88.418 266.578C89.3633 267.539 89.8359 268.773 89.8359 270.281C89.8359 271.789 89.3594 273.023 88.4062 273.984C87.4375 274.961 86.168 275.449 84.5977 275.449H81.375V277.711H86.2383V279.305H81.375Z" fill="white"/>
<path d="M34.7832 95.4473V91.5098H32.709C32.0117 91.5098 31.458 91.6885 31.0479 92.0459C30.6377 92.4092 30.4326 92.9014 30.4326 93.5225C30.4326 94.0967 30.6406 94.5596 31.0566 94.9111C31.4727 95.2686 32.0234 95.4473 32.709 95.4473H34.7832ZM34.7832 96.4229H32.8584L30.2832 100H28.9033L31.6367 96.2295C30.9043 96.0771 30.3301 95.7666 29.9141 95.2979C29.4922 94.8232 29.2812 94.2402 29.2812 93.5488C29.2812 92.6172 29.5918 91.8818 30.2129 91.3428C30.8281 90.8037 31.6602 90.5342 32.709 90.5342H35.9346V100H34.7832V96.4229ZM40.2236 91.5098V100H39.0723V90.5342H45.0752V91.5098H40.2236ZM50.876 91.3955C50.0146 91.3955 49.3086 91.6885 48.7578 92.2744C48.207 92.8662 47.9053 93.6484 47.8525 94.6211H53.75C53.7383 93.6426 53.4717 92.8604 52.9502 92.2744C52.4229 91.6885 51.7314 91.3955 50.876 91.3955ZM54.8047 97.6621C54.5703 98.4355 54.1074 99.0449 53.416 99.4902C52.7246 99.9355 51.8838 100.158 50.8936 100.158C49.5928 100.158 48.5615 99.7158 47.7998 98.8311C47.0381 97.9521 46.6572 96.7656 46.6572 95.2715C46.6572 93.7832 47.041 92.5967 47.8086 91.7119C48.5703 90.8213 49.5957 90.376 50.8848 90.376C52.1445 90.376 53.1377 90.7949 53.8643 91.6328C54.5908 92.4707 54.9541 93.6133 54.9541 95.0605V95.5703H47.8438V95.623C47.873 96.6953 48.166 97.5479 48.7227 98.1807C49.2734 98.8135 50.0059 99.1299 50.9199 99.1299C52.3086 99.1299 53.2139 98.6406 53.6357 97.6621H54.8047ZM62.0645 90.376C63.2656 90.376 64.2295 90.8213 64.9561 91.7119C65.6826 92.6084 66.0459 93.792 66.0459 95.2627C66.0459 96.7334 65.6826 97.917 64.9561 98.8135C64.2236 99.71 63.2598 100.158 62.0645 100.158C61.332 100.158 60.6816 99.9854 60.1133 99.6396C59.5508 99.2881 59.1377 98.8076 58.874 98.1982H58.7686V103.085H57.6172V90.5342H58.7158V92.4678H58.8213C59.1143 91.8174 59.5479 91.3076 60.1221 90.9385C60.6963 90.5635 61.3438 90.376 62.0645 90.376ZM61.8096 99.1123C62.7471 99.1123 63.4883 98.7666 64.0332 98.0752C64.584 97.3838 64.8594 96.4492 64.8594 95.2715C64.8594 94.0879 64.5869 93.1504 64.042 92.459C63.4912 91.7617 62.75 91.4131 61.8184 91.4131C60.8926 91.4131 60.1455 91.7646 59.5771 92.4678C59.0146 93.1709 58.7334 94.1025 58.7334 95.2627C58.7334 96.4229 59.0146 97.3545 59.5771 98.0576C60.1396 98.7607 60.8838 99.1123 61.8096 99.1123ZM73.5781 100V90.5342H74.9668L78.6846 98.4004H78.79L82.4902 90.5342H83.8262V100H82.6748V92.6436H82.543L79.168 99.8154H78.2627L74.8525 92.6436H74.7295V100H73.5781ZM90.708 91.3955C89.8467 91.3955 89.1406 91.6885 88.5898 92.2744C88.0391 92.8662 87.7373 93.6484 87.6846 94.6211H93.582C93.5703 93.6426 93.3037 92.8604 92.7822 92.2744C92.2549 91.6885 91.5635 91.3955 90.708 91.3955ZM94.6367 97.6621C94.4023 98.4355 93.9395 99.0449 93.248 99.4902C92.5566 99.9355 91.7158 100.158 90.7256 100.158C89.4248 100.158 88.3936 99.7158 87.6318 98.8311C86.8701 97.9521 86.4893 96.7656 86.4893 95.2715C86.4893 93.7832 86.873 92.5967 87.6406 91.7119C88.4023 90.8213 89.4277 90.376 90.7168 90.376C91.9766 90.376 92.9697 90.7949 93.6963 91.6328C94.4229 92.4707 94.7861 93.6133 94.7861 95.0605V95.5703H87.6758V95.623C87.7051 96.6953 87.998 97.5479 88.5547 98.1807C89.1055 98.8135 89.8379 99.1299 90.752 99.1299C92.1406 99.1299 93.0459 98.6406 93.4678 97.6621H94.6367ZM103.962 93.3203C103.81 92.7578 103.502 92.3037 103.039 91.958C102.547 91.5947 101.949 91.4131 101.246 91.4131C100.303 91.4131 99.5557 91.7588 99.0049 92.4502C98.4482 93.1416 98.1699 94.0703 98.1699 95.2363C98.1699 96.4199 98.4482 97.3604 99.0049 98.0576C99.5615 98.7607 100.309 99.1123 101.246 99.1123C101.949 99.1123 102.538 98.9512 103.013 98.6289C103.493 98.3066 103.807 97.8555 103.953 97.2754H105.122C104.976 98.1426 104.565 98.834 103.892 99.3496C103.194 99.8887 102.315 100.158 101.255 100.158C99.9482 100.158 98.9111 99.7129 98.1436 98.8223C97.3701 97.9375 96.9834 96.7422 96.9834 95.2363C96.9834 93.7539 97.3672 92.5732 98.1348 91.6943C98.9082 90.8154 99.9453 90.376 101.246 90.376C102.301 90.376 103.186 90.6602 103.9 91.2285C104.574 91.7676 104.984 92.4648 105.131 93.3203H103.962ZM114.061 91.5098H110.826V100H109.675V91.5098H106.44V90.5342H114.061V91.5098ZM119.765 91.3955C118.903 91.3955 118.197 91.6885 117.646 92.2744C117.096 92.8662 116.794 93.6484 116.741 94.6211H122.639C122.627 93.6426 122.36 92.8604 121.839 92.2744C121.312 91.6885 120.62 91.3955 119.765 91.3955ZM123.693 97.6621C123.459 98.4355 122.996 99.0449 122.305 99.4902C121.613 99.9355 120.772 100.158 119.782 100.158C118.481 100.158 117.45 99.7158 116.688 98.8311C115.927 97.9521 115.546 96.7656 115.546 95.2715C115.546 93.7832 115.93 92.5967 116.697 91.7119C117.459 90.8213 118.484 90.376 119.773 90.376C121.033 90.376 122.026 90.7949 122.753 91.6328C123.479 92.4707 123.843 93.6133 123.843 95.0605V95.5703H116.732V95.623C116.762 96.6953 117.055 97.5479 117.611 98.1807C118.162 98.8135 118.895 99.1299 119.809 99.1299C121.197 99.1299 122.103 98.6406 122.524 97.6621H123.693ZM130.953 90.376C132.154 90.376 133.118 90.8213 133.845 91.7119C134.571 92.6084 134.935 93.792 134.935 95.2627C134.935 96.7334 134.571 97.917 133.845 98.8135C133.112 99.71 132.148 100.158 130.953 100.158C130.221 100.158 129.57 99.9854 129.002 99.6396C128.439 99.2881 128.026 98.8076 127.763 98.1982H127.657V103.085H126.506V90.5342H127.604V92.4678H127.71C128.003 91.8174 128.437 91.3076 129.011 90.9385C129.585 90.5635 130.232 90.376 130.953 90.376ZM130.698 99.1123C131.636 99.1123 132.377 98.7666 132.922 98.0752C133.473 97.3838 133.748 96.4492 133.748 95.2715C133.748 94.0879 133.476 93.1504 132.931 92.459C132.38 91.7617 131.639 91.4131 130.707 91.4131C129.781 91.4131 129.034 91.7646 128.466 92.4678C127.903 93.1709 127.622 94.1025 127.622 95.2627C127.622 96.4229 127.903 97.3545 128.466 98.0576C129.028 98.7607 129.772 99.1123 130.698 99.1123Z" fill="white"/>
<path d="M36.3477 121.51H33.1133V130H31.9619V121.51H28.7275V120.534H36.3477V121.51ZM42.0518 121.396C41.1904 121.396 40.4844 121.688 39.9336 122.274C39.3828 122.866 39.0811 123.648 39.0283 124.621H44.9258C44.9141 123.643 44.6475 122.86 44.126 122.274C43.5986 121.688 42.9072 121.396 42.0518 121.396ZM45.9805 127.662C45.7461 128.436 45.2832 129.045 44.5918 129.49C43.9004 129.936 43.0596 130.158 42.0693 130.158C40.7686 130.158 39.7373 129.716 38.9756 128.831C38.2139 127.952 37.833 126.766 37.833 125.271C37.833 123.783 38.2168 122.597 38.9844 121.712C39.7461 120.821 40.7715 120.376 42.0605 120.376C43.3203 120.376 44.3135 120.795 45.04 121.633C45.7666 122.471 46.1299 123.613 46.1299 125.061V125.57H39.0195V125.623C39.0488 126.695 39.3418 127.548 39.8984 128.181C40.4492 128.813 41.1816 129.13 42.0957 129.13C43.4844 129.13 44.3896 128.641 44.8115 127.662H45.9805ZM48.793 130V120.534H50.1816L53.8994 128.4H54.0049L57.7051 120.534H59.041V130H57.8896V122.644H57.7578L54.3828 129.815H53.4775L50.0674 122.644H49.9443V130H48.793ZM62.1699 120.534H63.3213V124.595H68.6387V120.534H69.79V130H68.6387V125.57H63.3213V130H62.1699V120.534ZM76.7598 129.112C77.7324 129.112 78.4941 128.77 79.0449 128.084C79.5957 127.404 79.8711 126.464 79.8711 125.263C79.8711 124.062 79.5957 123.121 79.0449 122.441C78.4941 121.756 77.7324 121.413 76.7598 121.413C75.7871 121.413 75.0254 121.756 74.4746 122.441C73.9238 123.121 73.6484 124.062 73.6484 125.263C73.6484 126.464 73.9238 127.404 74.4746 128.084C75.0254 128.77 75.7871 129.112 76.7598 129.112ZM76.7598 130.158C75.4355 130.158 74.3896 129.719 73.6221 128.84C72.8486 127.967 72.4619 126.774 72.4619 125.263C72.4619 123.751 72.8486 122.559 73.6221 121.686C74.3896 120.812 75.4355 120.376 76.7598 120.376C78.084 120.376 79.1328 120.812 79.9062 121.686C80.6797 122.559 81.0664 123.751 81.0664 125.263C81.0664 126.774 80.6797 127.967 79.9062 128.84C79.1328 129.719 78.084 130.158 76.7598 130.158ZM87.4736 121.396C86.6123 121.396 85.9062 121.688 85.3555 122.274C84.8047 122.866 84.5029 123.648 84.4502 124.621H90.3477C90.3359 123.643 90.0693 122.86 89.5479 122.274C89.0205 121.688 88.3291 121.396 87.4736 121.396ZM91.4023 127.662C91.168 128.436 90.7051 129.045 90.0137 129.49C89.3223 129.936 88.4814 130.158 87.4912 130.158C86.1904 130.158 85.1592 129.716 84.3975 128.831C83.6357 127.952 83.2549 126.766 83.2549 125.271C83.2549 123.783 83.6387 122.597 84.4062 121.712C85.168 120.821 86.1934 120.376 87.4824 120.376C88.7422 120.376 89.7354 120.795 90.4619 121.633C91.1885 122.471 91.5518 123.613 91.5518 125.061V125.57H84.4414V125.623C84.4707 126.695 84.7637 127.548 85.3203 128.181C85.8711 128.813 86.6035 129.13 87.5176 129.13C88.9062 129.13 89.8115 128.641 90.2334 127.662H91.4023ZM105.465 121.51H100.235V130H99.084V120.534H106.616V130H105.465V121.51ZM109.754 130V120.534H110.905V128.163H111.02L116.337 120.534H117.488V130H116.337V122.371H116.231L110.905 130H109.754ZM121.769 121.51V124.621H124.133C124.789 124.621 125.293 124.48 125.645 124.199C125.984 123.924 126.154 123.531 126.154 123.021C126.154 122.553 125.999 122.187 125.688 121.923C125.366 121.647 124.909 121.51 124.317 121.51H121.769ZM121.769 125.597V129.024H124.458C125.888 129.024 126.603 128.447 126.603 127.293C126.603 126.162 125.812 125.597 124.229 125.597H121.769ZM120.617 120.534H124.449C125.334 120.534 126.031 120.748 126.541 121.176C127.039 121.604 127.288 122.184 127.288 122.916C127.288 123.426 127.133 123.877 126.822 124.27C126.512 124.656 126.113 124.896 125.627 124.99V125.104C126.248 125.175 126.752 125.409 127.139 125.808C127.543 126.212 127.745 126.713 127.745 127.311C127.745 128.154 127.461 128.813 126.893 129.288C126.318 129.763 125.516 130 124.484 130H120.617V120.534ZM134.205 129.112C135.178 129.112 135.939 128.77 136.49 128.084C137.041 127.404 137.316 126.464 137.316 125.263C137.316 124.062 137.041 123.121 136.49 122.441C135.939 121.756 135.178 121.413 134.205 121.413C133.232 121.413 132.471 121.756 131.92 122.441C131.369 123.121 131.094 124.062 131.094 125.263C131.094 126.464 131.369 127.404 131.92 128.084C132.471 128.77 133.232 129.112 134.205 129.112ZM134.205 130.158C132.881 130.158 131.835 129.719 131.067 128.84C130.294 127.967 129.907 126.774 129.907 125.263C129.907 123.751 130.294 122.559 131.067 121.686C131.835 120.812 132.881 120.376 134.205 120.376C135.529 120.376 136.578 120.812 137.352 121.686C138.125 122.559 138.512 123.751 138.512 125.263C138.512 126.774 138.125 127.967 137.352 128.84C136.578 129.719 135.529 130.158 134.205 130.158Z" fill="white"/>
<path d="M226.337 99.3252C224.444 99.3252 223.05 98.5605 222.153 97.0312C221.444 95.9414 221.09 94.5146 221.09 92.751C221.09 90.6475 221.559 88.9951 222.496 87.7939C223.434 86.5928 224.729 85.9922 226.381 85.9922C227.588 85.9922 228.616 86.3174 229.466 86.9678C230.321 87.6182 230.84 88.4736 231.021 89.5342H228.394C228.271 89.1182 228.024 88.7871 227.655 88.541C227.292 88.2949 226.861 88.1719 226.363 88.1719C225.496 88.1719 224.816 88.5615 224.324 89.3408C223.826 90.1143 223.592 91.1602 223.621 92.4785H223.779C224.383 91.2305 225.461 90.6064 227.014 90.6064C228.215 90.6064 229.211 91.0049 230.002 91.8018C230.793 92.5986 231.188 93.6035 231.188 94.8164C231.188 96.1348 230.734 97.2158 229.826 98.0596C228.918 98.9033 227.755 99.3252 226.337 99.3252ZM226.311 97.1455C226.961 97.1455 227.509 96.9287 227.954 96.4951C228.394 96.0674 228.613 95.5342 228.613 94.8955C228.613 94.251 228.396 93.7148 227.963 93.2871C227.529 92.8652 226.981 92.6543 226.319 92.6543C225.657 92.6543 225.106 92.8652 224.667 93.2871C224.233 93.709 224.017 94.2363 224.017 94.8691C224.017 95.5137 224.236 96.0557 224.676 96.4951C225.115 96.9287 225.66 97.1455 226.311 97.1455ZM238.475 99.3252C236.904 99.3252 235.674 98.7363 234.783 97.5586C233.887 96.375 233.438 94.7344 233.438 92.6367C233.438 90.5449 233.887 88.9131 234.783 87.7412C235.674 86.5752 236.904 85.9922 238.475 85.9922C240.039 85.9922 241.267 86.5752 242.157 87.7412C243.06 88.9189 243.511 90.5537 243.511 92.6455C243.511 94.7373 243.062 96.375 242.166 97.5586C241.275 98.7363 240.045 99.3252 238.475 99.3252ZM238.475 97.1631C239.213 97.1631 239.787 96.7793 240.197 96.0117C240.613 95.2266 240.821 94.1016 240.821 92.6367C240.821 91.1836 240.61 90.0674 240.188 89.2881C239.784 88.5381 239.213 88.1631 238.475 88.1631C237.742 88.1631 237.171 88.541 236.761 89.2969C236.339 90.0762 236.128 91.1895 236.128 92.6367C236.128 94.0957 236.339 95.2207 236.761 96.0117C237.165 96.7793 237.736 97.1631 238.475 97.1631ZM250.621 99V89.3057H253.935L256.475 95.5107H256.633L259.182 89.3057H262.451V99H260.043V92.5752H259.876L257.424 98.4551H255.64L253.188 92.5752H253.029V99H250.621ZM268.305 94.3418C268.217 95.9004 267.941 97.0547 267.479 97.8047C266.945 98.6777 266.116 99.1143 264.991 99.1143C264.675 99.1143 264.402 99.0762 264.174 99V96.75C264.338 96.791 264.522 96.8115 264.728 96.8115C265.161 96.8115 265.483 96.5596 265.694 96.0557C265.87 95.6455 265.981 95.0156 266.028 94.166L266.31 89.3057H273.604V99H271.047V91.3184H268.507L268.305 94.3418Z" fill="white"/>
<path d="M225.205 126.785H219V124.438C219.99 122.569 221.663 119.862 224.019 116.317H227.736V124.579H229.397V126.785H227.736V129H225.205V126.785ZM221.382 124.658H225.267V118.383H225.126C223.772 120.404 222.524 122.449 221.382 124.518V124.658ZM236.552 129.325C234.981 129.325 233.751 128.736 232.86 127.559C231.964 126.375 231.516 124.734 231.516 122.637C231.516 120.545 231.964 118.913 232.86 117.741C233.751 116.575 234.981 115.992 236.552 115.992C238.116 115.992 239.344 116.575 240.234 117.741C241.137 118.919 241.588 120.554 241.588 122.646C241.588 124.737 241.14 126.375 240.243 127.559C239.353 128.736 238.122 129.325 236.552 129.325ZM236.552 127.163C237.29 127.163 237.864 126.779 238.274 126.012C238.69 125.227 238.898 124.102 238.898 122.637C238.898 121.184 238.688 120.067 238.266 119.288C237.861 118.538 237.29 118.163 236.552 118.163C235.819 118.163 235.248 118.541 234.838 119.297C234.416 120.076 234.205 121.189 234.205 122.637C234.205 124.096 234.416 125.221 234.838 126.012C235.242 126.779 235.813 127.163 236.552 127.163ZM248.698 129V119.306H252.012L254.552 125.511H254.71L257.259 119.306H260.528V129H258.12V122.575H257.953L255.501 128.455H253.717L251.265 122.575H251.106V129H248.698ZM266.382 124.342C266.294 125.9 266.019 127.055 265.556 127.805C265.022 128.678 264.193 129.114 263.068 129.114C262.752 129.114 262.479 129.076 262.251 129V126.75C262.415 126.791 262.6 126.812 262.805 126.812C263.238 126.812 263.561 126.56 263.771 126.056C263.947 125.646 264.059 125.016 264.105 124.166L264.387 119.306H271.682V129H269.124V121.318H266.584L266.382 124.342Z" fill="white"/>
<line y1="240.5" x2="310" y2="240.5" stroke="white" stroke-opacity="0.5"/>
<defs>
<filter id="filter0_b" x="-20" y="-20" width="350" height="350" filterUnits="userSpaceOnUse" color-interpolation-filters="sRGB">
<feFlood flood-opacity="0" result="BackgroundImageFix"/>
<feGaussianBlur in="BackgroundImage" stdDeviation="10"/>
<feComposite in2="SourceAlpha" operator="in" result="effect1_backgroundBlur"/>
<feBlend mode="normal" in="SourceGraphic" in2="effect1_backgroundBlur" result="shape"/>
</filter>
</defs>
</svg>
