<svg width="1267" height="180" viewBox="0 0 1267 180" fill="none" xmlns="http://www.w3.org/2000/svg">
<g filter="url(#filter0_b)">
<rect width="1267" height="180" rx="8" fill="white" fill-opacity="0.2"/>
</g>
<path d="M43.4375 48.0938H42.875L31.8125 55.7188V46.9375L43.4688 38.9062H52.875V84H43.4375V48.0938ZM76.4062 57.4062H81.9062C84.0521 57.4062 85.7812 56.8333 87.0938 55.6875C88.4271 54.5417 89.0938 53.0521 89.0938 51.2188C89.0938 49.4062 88.4375 47.9583 87.125 46.875C85.8333 45.8125 84.0833 45.2812 81.875 45.2812C79.6875 45.2812 77.9167 45.8542 76.5625 47C75.2083 48.1458 74.4688 49.6979 74.3438 51.6562H65.625C65.7917 47.3854 67.3542 44 70.3125 41.5C73.2708 39 77.2083 37.75 82.125 37.75C86.75 37.75 90.5625 38.8854 93.5625 41.1562C96.5417 43.4479 98.0312 46.3646 98.0312 49.9062C98.0312 52.5104 97.2708 54.75 95.75 56.625C94.25 58.5 92.2396 59.6979 89.7188 60.2188V60.7812C92.8229 61.1354 95.2708 62.2708 97.0625 64.1875C98.875 66.125 99.7812 68.5729 99.7812 71.5312C99.7812 75.4896 98.1146 78.75 94.7812 81.3125C91.4479 83.875 87.2083 85.1562 82.0625 85.1562C77.0417 85.1562 72.9583 83.875 69.8125 81.3125C66.6667 78.75 64.9896 75.3438 64.7812 71.0938H73.8125C73.9583 73.0104 74.7812 74.5208 76.2812 75.625C77.7812 76.75 79.7396 77.3125 82.1562 77.3125C84.5104 77.3125 86.4375 76.7083 87.9375 75.5C89.4167 74.2917 90.1562 72.7292 90.1562 70.8125C90.1562 68.8333 89.4271 67.2812 87.9688 66.1562C86.5104 65.0104 84.5208 64.4375 82 64.4375H76.4062V57.4062ZM112.406 84.8438C110.76 84.8438 109.417 84.3333 108.375 83.3125C107.375 82.2917 106.875 80.9896 106.875 79.4062C106.875 77.8229 107.375 76.5312 108.375 75.5312C109.396 74.5104 110.74 74 112.406 74C114.073 74 115.417 74.5104 116.438 75.5312C117.438 76.5104 117.938 77.8021 117.938 79.4062C117.938 81.0104 117.438 82.3125 116.438 83.3125C115.417 84.3333 114.073 84.8438 112.406 84.8438ZM142.125 85.1562C136.542 85.1562 132.167 83.0625 129 78.875C125.812 74.6667 124.219 68.8333 124.219 61.375C124.219 53.9375 125.812 48.1354 129 43.9688C132.167 39.8229 136.542 37.75 142.125 37.75C147.688 37.75 152.052 39.8229 155.219 43.9688C158.427 48.1562 160.031 53.9688 160.031 61.4062C160.031 68.8438 158.438 74.6667 155.25 78.875C152.083 83.0625 147.708 85.1562 142.125 85.1562ZM142.125 77.4688C144.75 77.4688 146.792 76.1042 148.25 73.375C149.729 70.5833 150.469 66.5833 150.469 61.375C150.469 56.2083 149.719 52.2396 148.219 49.4688C146.781 46.8021 144.75 45.4688 142.125 45.4688C139.521 45.4688 137.49 46.8125 136.031 49.5C134.531 52.2708 133.781 56.2292 133.781 61.375C133.781 66.5625 134.531 70.5625 136.031 73.375C137.469 76.1042 139.5 77.4688 142.125 77.4688ZM189.781 47.25V46.6562H167.438V38.875H199.219V46.75L180.375 84H170.5L189.781 47.25Z" fill="white"/>
<path d="M34.6094 124.758V129.715H38.4238C40.6738 129.715 41.7988 128.883 41.7988 127.219C41.7988 125.578 40.8145 124.758 38.8457 124.758H34.6094ZM34.6094 132.492V138.1H39.1621C41.4473 138.1 42.5898 137.168 42.5898 135.305C42.5898 133.43 41.2891 132.492 38.6875 132.492H34.6094ZM30.8652 121.857H39.5664C41.4297 121.857 42.8887 122.297 43.9434 123.176C44.9863 124.043 45.5078 125.227 45.5078 126.727C45.5078 127.699 45.2031 128.572 44.5938 129.346C43.9727 130.119 43.1992 130.594 42.2734 130.77V131.068C43.5039 131.209 44.4941 131.689 45.2441 132.51C45.9941 133.318 46.3691 134.309 46.3691 135.48C46.3691 137.168 45.7773 138.504 44.5938 139.488C43.3867 140.496 41.7402 141 39.6543 141H30.8652V121.857ZM59.1484 124.705C57.7539 124.705 56.6055 125.156 55.7031 126.059C54.8008 126.961 54.2969 128.162 54.1914 129.662H63.8594C63.8125 128.15 63.3672 126.949 62.5234 126.059C61.668 125.156 60.543 124.705 59.1484 124.705ZM67.4805 135.832C67.0469 137.555 66.1035 138.908 64.6504 139.893C63.1855 140.877 61.3633 141.369 59.1836 141.369C56.4414 141.369 54.2852 140.484 52.7148 138.715C51.1328 136.957 50.3418 134.549 50.3418 131.49C50.3418 128.432 51.1387 126 52.7324 124.195C54.3262 122.391 56.4707 121.488 59.166 121.488C61.8262 121.488 63.918 122.344 65.4414 124.055C66.9531 125.766 67.709 128.127 67.709 131.139V132.457H54.1914V132.668C54.25 134.355 54.7363 135.691 55.6504 136.676C56.5645 137.66 57.7773 138.152 59.2891 138.152C61.5977 138.152 63.1152 137.379 63.8418 135.832H67.4805ZM83.8809 141V132.598H83.582C82.2695 133.887 80.5938 134.531 78.5547 134.531C76.5039 134.531 74.8809 133.898 73.6855 132.633C72.5137 131.379 71.9277 129.691 71.9277 127.57V121.857H75.707V127.236C75.707 128.432 76.0234 129.369 76.6562 130.049C77.2891 130.74 78.1621 131.086 79.2754 131.086C81.373 131.086 82.9082 130.359 83.8809 128.906V121.857H87.6602V141H83.8809ZM101.371 124.705C99.9766 124.705 98.8281 125.156 97.9258 126.059C97.0234 126.961 96.5195 128.162 96.4141 129.662H106.082C106.035 128.15 105.59 126.949 104.746 126.059C103.891 125.156 102.766 124.705 101.371 124.705ZM109.703 135.832C109.27 137.555 108.326 138.908 106.873 139.893C105.408 140.877 103.586 141.369 101.406 141.369C98.6641 141.369 96.5078 140.484 94.9375 138.715C93.3555 136.957 92.5645 134.549 92.5645 131.49C92.5645 128.432 93.3613 126 94.9551 124.195C96.5488 122.391 98.6934 121.488 101.389 121.488C104.049 121.488 106.141 122.344 107.664 124.055C109.176 125.766 109.932 128.127 109.932 131.139V132.457H96.4141V132.668C96.4727 134.355 96.959 135.691 97.873 136.676C98.7871 137.66 100 138.152 101.512 138.152C103.82 138.152 105.338 137.379 106.064 135.832H109.703ZM124.768 121.541C127.205 121.541 129.139 122.426 130.568 124.195C131.998 125.977 132.713 128.385 132.713 131.42C132.713 134.455 131.998 136.863 130.568 138.645C129.15 140.426 127.229 141.316 124.803 141.316C121.943 141.316 119.98 140.244 118.914 138.1H118.615V147.205H114.836V121.857H118.475V125.021H118.756C119.33 123.932 120.15 123.076 121.217 122.455C122.283 121.846 123.467 121.541 124.768 121.541ZM123.695 137.924C125.301 137.924 126.561 137.35 127.475 136.201C128.377 135.041 128.828 133.447 128.828 131.42C128.828 129.393 128.377 127.805 127.475 126.656C126.561 125.508 125.307 124.934 123.713 124.934C122.119 124.934 120.859 125.514 119.934 126.674C119.008 127.846 118.545 129.434 118.545 131.438C118.545 133.43 119.008 135.012 119.934 136.184C120.859 137.344 122.113 137.924 123.695 137.924ZM137.6 141V121.857H141.344V135.023H141.643L150.625 121.857H154.369V141H150.625V127.764H150.326L141.344 141H137.6ZM160.135 121.857H163.914V129.521H172.879V121.857H176.658V141H172.879V132.703H163.914V141H160.135V121.857ZM187.047 129.627L193.955 121.857H198.402L190.158 130.752L198.754 141H194.043L187.064 132.633H186.203V141H182.424V121.857H186.203V129.627H187.047ZM208.475 138.135C209.893 138.135 211.076 137.736 212.025 136.939C212.963 136.143 213.432 135.146 213.432 133.951V132.352L208.756 132.65C206.201 132.826 204.924 133.746 204.924 135.41C204.924 136.254 205.258 136.922 205.926 137.414C206.57 137.895 207.42 138.135 208.475 138.135ZM207.508 141.316C205.633 141.316 204.109 140.801 202.938 139.77C201.73 138.703 201.127 137.309 201.127 135.586C201.127 133.875 201.742 132.527 202.973 131.543C204.203 130.57 205.961 130.014 208.246 129.873L213.432 129.574V127.922C213.432 125.812 212.125 124.758 209.512 124.758C207.297 124.758 205.967 125.467 205.521 126.885H201.865C202.053 125.244 202.861 123.932 204.291 122.947C205.709 121.975 207.508 121.488 209.688 121.488C212.078 121.488 213.93 122.057 215.242 123.193C216.543 124.318 217.193 125.895 217.193 127.922V141H213.555V138.311H213.256C212.061 140.314 210.145 141.316 207.508 141.316ZM245.705 131.174L251.857 138.398H247.797L241.68 131.139V130.998L247.85 123.721H251.857L245.705 130.928V131.174ZM237.074 131.174L243.227 138.398H239.184L233.066 131.139V130.998L239.219 123.721H243.227L237.074 130.928V131.174ZM268.135 131.402V125.039H264.707C263.559 125.039 262.65 125.332 261.982 125.918C261.303 126.504 260.963 127.301 260.963 128.309C260.963 129.223 261.303 129.967 261.982 130.541C262.674 131.115 263.582 131.402 264.707 131.402H268.135ZM268.135 134.443H265.287L260.646 141H256.252L261.473 133.758C260.148 133.383 259.111 132.715 258.361 131.754C257.6 130.781 257.219 129.639 257.219 128.326C257.219 126.346 257.881 124.77 259.205 123.598C260.529 122.438 262.299 121.857 264.514 121.857H271.861V141H268.135V134.443ZM287.611 121.541C290.049 121.541 291.982 122.426 293.412 124.195C294.842 125.977 295.557 128.385 295.557 131.42C295.557 134.455 294.842 136.863 293.412 138.645C291.994 140.426 290.072 141.316 287.646 141.316C284.787 141.316 282.824 140.244 281.758 138.1H281.459V147.205H277.68V121.857H281.318V125.021H281.6C282.174 123.932 282.994 123.076 284.061 122.455C285.127 121.846 286.311 121.541 287.611 121.541ZM286.539 137.924C288.145 137.924 289.404 137.35 290.318 136.201C291.221 135.041 291.672 133.447 291.672 131.42C291.672 129.393 291.221 127.805 290.318 126.656C289.404 125.508 288.15 124.934 286.557 124.934C284.963 124.934 283.703 125.514 282.777 126.674C281.852 127.846 281.389 129.434 281.389 131.438C281.389 133.43 281.852 135.012 282.777 136.184C283.703 137.344 284.957 137.924 286.539 137.924ZM311.764 141V132.598H311.465C310.152 133.887 308.477 134.531 306.438 134.531C304.387 134.531 302.764 133.898 301.568 132.633C300.396 131.379 299.811 129.691 299.811 127.57V121.857H303.59V127.236C303.59 128.432 303.906 129.369 304.539 130.049C305.172 130.74 306.045 131.086 307.158 131.086C309.256 131.086 310.791 130.359 311.764 128.906V121.857H315.543V141H311.764ZM329.254 124.705C327.859 124.705 326.711 125.156 325.809 126.059C324.906 126.961 324.402 128.162 324.297 129.662H333.965C333.918 128.15 333.473 126.949 332.629 126.059C331.773 125.156 330.648 124.705 329.254 124.705ZM337.586 135.832C337.152 137.555 336.209 138.908 334.756 139.893C333.291 140.877 331.469 141.369 329.289 141.369C326.547 141.369 324.391 140.484 322.82 138.715C321.238 136.957 320.447 134.549 320.447 131.49C320.447 128.432 321.244 126 322.838 124.195C324.432 122.391 326.576 121.488 329.271 121.488C331.932 121.488 334.023 122.344 335.547 124.055C337.059 125.766 337.814 128.127 337.814 131.139V132.457H324.297V132.668C324.355 134.355 324.842 135.691 325.756 136.676C326.67 137.66 327.883 138.152 329.395 138.152C331.703 138.152 333.221 137.379 333.947 135.832H337.586ZM342.824 123.721H346.832L353.002 130.998V131.139L346.885 138.398H342.824L348.977 131.174V130.928L342.824 123.721ZM351.455 123.721H355.463L361.615 130.998V131.139L355.498 138.398H351.455L357.607 131.174V130.928L351.455 123.721Z" fill="white"/>
<defs>
<filter id="filter0_b" x="-20" y="-20" width="1307" height="220" filterUnits="userSpaceOnUse" color-interpolation-filters="sRGB">
<feFlood flood-opacity="0" result="BackgroundImageFix"/>
<feGaussianBlur in="BackgroundImage" stdDeviation="10"/>
<feComposite in2="SourceAlpha" operator="in" result="effect1_backgroundBlur"/>
<feBlend mode="normal" in="SourceGraphic" in2="effect1_backgroundBlur" result="shape"/>
</filter>
</defs>
</svg>
