<svg width="529" height="293" viewBox="0 0 529 293" fill="none" xmlns="http://www.w3.org/2000/svg">
<g filter="url(#filter0_b)">
<rect width="529" height="293" rx="8" fill="white"/>
</g>
<path d="M21.5632 43.0586C23.7708 42.6572 25.1743 42.2558 26.9819 41.6538C28.7894 41.0517 29.7968 40.1427 30.3949 39.2455V39.2455C32.1418 36.6252 32.3284 33.2843 32.3989 30.136C32.4012 30.0307 32.4024 29.9231 32.4023 29.813C32.4013 27.8061 32.4012 27.8061 32.4023 25.9999" stroke="#AFBFFF" stroke-width="3" stroke-linecap="round" stroke-linejoin="round"/>
<path d="M21.565 43.0586C23.7727 43.46 25.1743 44.062 26.9819 44.6641C28.7894 45.2662 29.7968 46.1752 30.3949 47.0724V47.0724C32.1418 49.6927 32.3284 53.0335 32.3989 56.1819C32.4012 56.2872 32.4024 56.3948 32.4023 56.5049C32.4013 58.5118 32.4011 58.5118 32.4023 60.318" stroke="#AFBFFF" stroke-width="3" stroke-linecap="round" stroke-linejoin="round"/>
<path d="M43.2415 43.0586C41.0339 42.6572 39.6304 42.2558 37.8228 41.6538C36.0153 41.0517 35.0079 40.1427 34.4097 39.2455V39.2455C32.6629 36.6252 32.4763 33.2843 32.4058 30.136C32.4035 30.0307 32.4023 29.9231 32.4023 29.813C32.4034 27.8061 32.4035 27.8061 32.4023 25.9999" stroke="#AFBFFF" stroke-width="3" stroke-linecap="round" stroke-linejoin="round"/>
<path d="M43.2397 43.0586C41.032 43.46 39.6304 44.062 37.8228 44.6641C36.0153 45.2662 35.0079 46.1752 34.4097 47.0724V47.0724C32.6629 49.6927 32.4763 53.0335 32.4058 56.1819C32.4035 56.2872 32.4023 56.3948 32.4023 56.5049C32.4034 58.5118 32.4035 58.5118 32.4023 60.318" stroke="#AFBFFF" stroke-width="3" stroke-linecap="round" stroke-linejoin="round"/>
<path d="M487 43.0586C489.208 42.6572 490.611 42.2558 492.419 41.6538C494.226 41.0517 495.234 40.1427 495.832 39.2455V39.2455C497.579 36.6252 497.765 33.2843 497.836 30.136C497.838 30.0307 497.839 29.9231 497.839 29.813C497.838 27.8061 497.838 27.8061 497.839 25.9999" stroke="#AFBFFF" stroke-width="3" stroke-linecap="round" stroke-linejoin="round"/>
<path d="M487.002 43.0586C489.209 43.46 490.611 44.062 492.419 44.6641C494.226 45.2662 495.234 46.1752 495.832 47.0724V47.0724C497.579 49.6927 497.765 53.0335 497.836 56.1819C497.838 56.2872 497.839 56.3948 497.839 56.5049C497.838 58.5118 497.838 58.5118 497.839 60.318" stroke="#AFBFFF" stroke-width="3" stroke-linecap="round" stroke-linejoin="round"/>
<path d="M508.678 43.0586C506.471 42.6572 505.067 42.2558 503.26 41.6538C501.452 41.0517 500.445 40.1427 499.847 39.2455V39.2455C498.1 36.6252 497.913 33.2843 497.843 30.136C497.84 30.0307 497.839 29.9231 497.839 29.813C497.84 27.8061 497.84 27.8061 497.839 25.9999" stroke="#AFBFFF" stroke-width="3" stroke-linecap="round" stroke-linejoin="round"/>
<path d="M508.676 43.0586C506.469 43.46 505.067 44.062 503.26 44.6641C501.452 45.2662 500.445 46.1752 499.847 47.0724V47.0724C498.1 49.6927 497.913 53.0335 497.843 56.1819C497.84 56.2872 497.839 56.3948 497.839 56.5049C497.84 58.5118 497.84 58.5118 497.839 60.318" stroke="#AFBFFF" stroke-width="3" stroke-linecap="round" stroke-linejoin="round"/>
<path d="M21.5632 252.059C23.7708 251.657 25.1743 251.256 26.9819 250.654C28.7894 250.052 29.7968 249.143 30.3949 248.245V248.245C32.1418 245.625 32.3284 242.284 32.3989 239.136C32.4012 239.031 32.4024 238.923 32.4023 238.813C32.4013 236.806 32.4012 236.806 32.4023 235" stroke="#AFBFFF" stroke-width="3" stroke-linecap="round" stroke-linejoin="round"/>
<path d="M21.565 252.059C23.7727 252.46 25.1743 253.062 26.9819 253.664C28.7894 254.266 29.7968 255.175 30.3949 256.072V256.072C32.1418 258.693 32.3284 262.034 32.3989 265.182C32.4012 265.287 32.4024 265.395 32.4023 265.505C32.4013 267.512 32.4011 267.512 32.4023 269.318" stroke="#AFBFFF" stroke-width="3" stroke-linecap="round" stroke-linejoin="round"/>
<path d="M43.2415 252.059C41.0339 251.657 39.6304 251.256 37.8228 250.654C36.0153 250.052 35.0079 249.143 34.4097 248.245V248.245C32.6629 245.625 32.4763 242.284 32.4058 239.136C32.4035 239.031 32.4023 238.923 32.4023 238.813C32.4034 236.806 32.4035 236.806 32.4023 235" stroke="#AFBFFF" stroke-width="3" stroke-linecap="round" stroke-linejoin="round"/>
<path d="M43.2397 252.059C41.032 252.46 39.6304 253.062 37.8228 253.664C36.0153 254.266 35.0079 255.175 34.4097 256.072V256.072C32.6629 258.693 32.4763 262.034 32.4058 265.182C32.4035 265.287 32.4023 265.395 32.4023 265.505C32.4034 267.512 32.4035 267.512 32.4023 269.318" stroke="#AFBFFF" stroke-width="3" stroke-linecap="round" stroke-linejoin="round"/>
<path d="M487 252.059C489.208 251.657 490.611 251.256 492.419 250.654C494.226 250.052 495.234 249.143 495.832 248.245V248.245C497.579 245.625 497.765 242.284 497.836 239.136C497.838 239.031 497.839 238.923 497.839 238.813C497.838 236.806 497.838 236.806 497.839 235" stroke="#AFBFFF" stroke-width="3" stroke-linecap="round" stroke-linejoin="round"/>
<path d="M487.002 252.059C489.209 252.46 490.611 253.062 492.419 253.664C494.226 254.266 495.234 255.175 495.832 256.072V256.072C497.579 258.693 497.765 262.034 497.836 265.182C497.838 265.287 497.839 265.395 497.839 265.505C497.838 267.512 497.838 267.512 497.839 269.318" stroke="#AFBFFF" stroke-width="3" stroke-linecap="round" stroke-linejoin="round"/>
<path d="M508.678 252.059C506.471 251.657 505.067 251.256 503.26 250.654C501.452 250.052 500.445 249.143 499.847 248.245V248.245C498.1 245.625 497.913 242.284 497.843 239.136C497.84 239.031 497.839 238.923 497.839 238.813C497.84 236.806 497.84 236.806 497.839 235" stroke="#AFBFFF" stroke-width="3" stroke-linecap="round" stroke-linejoin="round"/>
<path d="M508.676 252.059C506.469 252.46 505.067 253.062 503.26 253.664C501.452 254.266 500.445 255.175 499.847 256.072V256.072C498.1 258.693 497.913 262.034 497.843 265.182C497.84 265.287 497.839 265.395 497.839 265.505C497.84 267.512 497.84 267.512 497.839 269.318" stroke="#AFBFFF" stroke-width="3" stroke-linecap="round" stroke-linejoin="round"/>
<path d="M91.9873 143.316C90.1885 143.316 88.7676 142.722 87.7246 141.532C86.6816 140.337 86.1602 138.714 86.1602 136.663C86.1602 134.601 86.6816 132.975 87.7246 131.785C88.7617 130.596 90.1797 130.001 91.9785 130.001C93.4199 130.001 94.6416 130.426 95.6436 131.275C96.6455 132.119 97.2139 133.203 97.3486 134.527H95.1162C94.958 133.766 94.5947 133.159 94.0264 132.708C93.458 132.251 92.7754 132.022 91.9785 132.022C90.9004 132.022 90.0479 132.438 89.4209 133.271C88.7939 134.097 88.4805 135.225 88.4805 136.654C88.4805 138.084 88.7939 139.215 89.4209 140.047C90.0479 140.879 90.9033 141.295 91.9873 141.295C92.79 141.295 93.4756 141.087 94.0439 140.671C94.6123 140.249 94.9727 139.684 95.125 138.975H97.3574C97.2051 140.275 96.6396 141.324 95.6611 142.121C94.6709 142.918 93.4463 143.316 91.9873 143.316ZM108.502 143V132.286H102.49V143H100.214V130.317H110.761V143H108.502ZM121.176 139.757H116.509L115.419 143H113.125L117.625 130.317H120.174L124.683 143H122.248L121.176 139.757ZM117.036 137.964H120.648L118.926 132.734H118.776L117.036 137.964ZM131.819 143.316C130.021 143.316 128.6 142.722 127.557 141.532C126.514 140.337 125.992 138.714 125.992 136.663C125.992 134.601 126.514 132.975 127.557 131.785C128.594 130.596 130.012 130.001 131.811 130.001C133.252 130.001 134.474 130.426 135.476 131.275C136.478 132.119 137.046 133.203 137.181 134.527H134.948C134.79 133.766 134.427 133.159 133.858 132.708C133.29 132.251 132.607 132.022 131.811 132.022C130.732 132.022 129.88 132.438 129.253 133.271C128.626 134.097 128.312 135.225 128.312 136.654C128.312 138.084 128.626 139.215 129.253 140.047C129.88 140.879 130.735 141.295 131.819 141.295C132.622 141.295 133.308 141.087 133.876 140.671C134.444 140.249 134.805 139.684 134.957 138.975H137.189C137.037 140.275 136.472 141.324 135.493 142.121C134.503 142.918 133.278 143.316 131.819 143.316ZM148.519 133.982H148.369L142.243 143H140.046V130.317H142.305V139.353H142.454L148.571 130.317H150.769V143H148.519V133.982ZM163.354 139.062C163.354 140.234 162.959 141.184 162.168 141.91C161.377 142.637 160.349 143 159.083 143H154.091V130.317H162.15V132.277H156.358V135.169H159.013C160.296 135.169 161.339 135.526 162.142 136.241C162.95 136.968 163.354 137.908 163.354 139.062ZM158.512 141.093C159.314 141.093 159.936 140.917 160.375 140.565C160.814 140.214 161.034 139.713 161.034 139.062C161.034 138.4 160.814 137.894 160.375 137.542C159.936 137.19 159.312 137.015 158.503 137.015H156.358V141.093H158.512ZM171.572 130.001C173.412 130.001 174.871 130.599 175.949 131.794C177.021 132.989 177.558 134.609 177.558 136.654C177.558 138.699 177.021 140.319 175.949 141.515C174.877 142.716 173.418 143.316 171.572 143.316C169.715 143.316 168.247 142.719 167.169 141.523C166.097 140.328 165.561 138.705 165.561 136.654C165.561 134.609 166.103 132.989 167.187 131.794C168.265 130.599 169.727 130.001 171.572 130.001ZM171.572 132.014C170.441 132.014 169.545 132.433 168.883 133.271C168.215 134.108 167.881 135.236 167.881 136.654C167.881 138.078 168.209 139.206 168.865 140.038C169.527 140.882 170.43 141.304 171.572 141.304C172.697 141.304 173.591 140.882 174.253 140.038C174.909 139.2 175.237 138.072 175.237 136.654C175.237 135.236 174.909 134.108 174.253 133.271C173.591 132.433 172.697 132.014 171.572 132.014ZM187.542 135.617H189.238C189.906 135.617 190.448 135.438 190.864 135.081C191.28 134.729 191.488 134.27 191.488 133.701C191.488 133.139 191.292 132.693 190.899 132.365C190.495 132.031 189.941 131.864 189.238 131.864C188.535 131.864 187.967 132.037 187.533 132.383C187.105 132.723 186.868 133.188 186.821 133.78H184.694C184.753 132.62 185.192 131.7 186.013 131.021C186.839 130.341 187.938 130.001 189.309 130.001C190.598 130.001 191.649 130.317 192.464 130.95C193.284 131.589 193.694 132.415 193.694 133.429C193.694 134.132 193.48 134.75 193.053 135.283C192.619 135.822 192.06 136.168 191.374 136.32V136.47C192.218 136.558 192.897 136.868 193.413 137.401C193.94 137.958 194.204 138.664 194.204 139.52C194.204 140.615 193.738 141.523 192.807 142.244C191.875 142.959 190.712 143.316 189.317 143.316C187.905 143.316 186.757 142.968 185.872 142.271C184.981 141.567 184.507 140.639 184.448 139.484H186.628C186.675 140.064 186.941 140.527 187.428 140.873C187.914 141.219 188.547 141.392 189.326 141.392C190.094 141.392 190.712 141.204 191.181 140.829C191.644 140.46 191.875 139.977 191.875 139.379C191.875 138.787 191.649 138.324 191.198 137.99C190.735 137.65 190.094 137.48 189.273 137.48H187.542V135.617ZM203.934 139.757H199.267L198.177 143H195.883L200.383 130.317H202.932L207.44 143H205.006L203.934 139.757ZM199.794 137.964H203.406L201.684 132.734H201.534L199.794 137.964ZM220.123 130.001C221.963 130.001 223.422 130.599 224.5 131.794C225.572 132.989 226.108 134.609 226.108 136.654C226.108 138.699 225.572 140.319 224.5 141.515C223.428 142.716 221.969 143.316 220.123 143.316C218.266 143.316 216.798 142.719 215.72 141.523C214.647 140.328 214.111 138.705 214.111 136.654C214.111 134.609 214.653 132.989 215.737 131.794C216.815 130.599 218.277 130.001 220.123 130.001ZM220.123 132.014C218.992 132.014 218.096 132.433 217.434 133.271C216.766 134.108 216.432 135.236 216.432 136.654C216.432 138.078 216.76 139.206 217.416 140.038C218.078 140.882 218.98 141.304 220.123 141.304C221.248 141.304 222.142 140.882 222.804 140.038C223.46 139.2 223.788 138.072 223.788 136.654C223.788 135.236 223.46 134.108 222.804 133.271C222.142 132.433 221.248 132.014 220.123 132.014ZM234.282 143.316C232.483 143.316 231.062 142.722 230.02 141.532C228.977 140.337 228.455 138.714 228.455 136.663C228.455 134.601 228.977 132.975 230.02 131.785C231.057 130.596 232.475 130.001 234.273 130.001C235.715 130.001 236.937 130.426 237.938 131.275C238.94 132.119 239.509 133.203 239.644 134.527H237.411C237.253 133.766 236.89 133.159 236.321 132.708C235.753 132.251 235.07 132.022 234.273 132.022C233.195 132.022 232.343 132.438 231.716 133.271C231.089 134.097 230.775 135.225 230.775 136.654C230.775 138.084 231.089 139.215 231.716 140.047C232.343 140.879 233.198 141.295 234.282 141.295C235.085 141.295 235.771 141.087 236.339 140.671C236.907 140.249 237.268 139.684 237.42 138.975H239.652C239.5 140.275 238.935 141.324 237.956 142.121C236.966 142.918 235.741 143.316 234.282 143.316ZM245.137 143V132.277H241.234V130.317H251.315V132.277H247.404V143H245.137ZM259.674 139.757H255.007L253.917 143H251.623L256.123 130.317H258.672L263.181 143H260.746L259.674 139.757ZM255.534 137.964H259.146L257.424 132.734H257.274L255.534 137.964ZM265.536 143V130.317H270.836C272.037 130.317 272.98 130.602 273.666 131.17C274.352 131.732 274.694 132.503 274.694 133.481C274.694 134.149 274.478 134.744 274.044 135.266C273.61 135.787 273.074 136.098 272.436 136.197V136.355C273.291 136.438 273.985 136.757 274.519 137.313C275.052 137.876 275.318 138.57 275.318 139.396C275.318 140.51 274.932 141.389 274.158 142.033C273.379 142.678 272.312 143 270.959 143H265.536ZM267.804 135.652H269.992C271.633 135.652 272.453 135.063 272.453 133.886C272.453 133.329 272.263 132.896 271.882 132.585C271.501 132.274 270.968 132.119 270.282 132.119H267.804V135.652ZM270.44 141.198C272.146 141.198 272.998 140.539 272.998 139.221C272.998 137.932 272.116 137.287 270.353 137.287H267.804V141.198H270.44ZM285.496 143V132.277H281.462L281.119 138.069C281.02 139.716 280.712 140.94 280.196 141.743C279.622 142.646 278.74 143.097 277.551 143.097C277.217 143.097 276.938 143.062 276.716 142.991V140.943C276.892 140.984 277.076 141.005 277.27 141.005C277.885 141.005 278.33 140.712 278.605 140.126C278.828 139.663 278.966 138.931 279.019 137.929L279.423 130.317H287.764V143H285.496ZM299.286 143H291.077V130.317H299.286V132.277H293.345V135.644H298.961V137.489H293.345V141.04H299.286V143ZM310.712 143V137.524H304.542V143H302.274V130.317H304.542V135.564H310.712V130.317H312.971V143H310.712ZM324.722 143V137.524H318.552V143H316.284V130.317H318.552V135.564H324.722V130.317H326.98V143H324.722ZM331.894 143.105C331.442 143.105 331.123 143.064 330.936 142.982V141.04C331.176 141.093 331.425 141.119 331.683 141.119C332.526 141.119 333.159 140.771 333.581 140.073L329.327 130.317H331.727L334.706 137.718H334.855L337.738 130.317H340.111L336.227 139.37C335.664 140.671 335.102 141.591 334.539 142.13C333.854 142.78 332.972 143.105 331.894 143.105ZM352.627 143.316C350.934 143.316 349.565 142.798 348.522 141.761C347.491 140.735 346.902 139.323 346.756 137.524H344.726V143H342.458V130.317H344.726V135.564H346.773C346.961 133.836 347.57 132.477 348.602 131.486C349.639 130.496 350.98 130.001 352.627 130.001C354.443 130.001 355.882 130.599 356.942 131.794C357.997 132.983 358.524 134.604 358.524 136.654C358.524 138.699 357.997 140.319 356.942 141.515C355.888 142.716 354.449 143.316 352.627 143.316ZM352.618 132.014C351.517 132.014 350.641 132.433 349.99 133.271C349.34 134.108 349.015 135.236 349.015 136.654C349.015 138.078 349.337 139.206 349.981 140.038C350.626 140.882 351.505 141.304 352.618 141.304C353.72 141.304 354.596 140.882 355.246 140.038C355.891 139.2 356.213 138.072 356.213 136.654C356.213 135.236 355.891 134.108 355.246 133.271C354.596 132.433 353.72 132.014 352.618 132.014ZM368.509 135.617H370.205C370.873 135.617 371.415 135.438 371.831 135.081C372.247 134.729 372.455 134.27 372.455 133.701C372.455 133.139 372.259 132.693 371.866 132.365C371.462 132.031 370.908 131.864 370.205 131.864C369.502 131.864 368.934 132.037 368.5 132.383C368.072 132.723 367.835 133.188 367.788 133.78H365.661C365.72 132.62 366.159 131.7 366.979 131.021C367.806 130.341 368.904 130.001 370.275 130.001C371.564 130.001 372.616 130.317 373.431 130.95C374.251 131.589 374.661 132.415 374.661 133.429C374.661 134.132 374.447 134.75 374.02 135.283C373.586 135.822 373.026 136.168 372.341 136.32V136.47C373.185 136.558 373.864 136.868 374.38 137.401C374.907 137.958 375.171 138.664 375.171 139.52C375.171 140.615 374.705 141.523 373.773 142.244C372.842 142.959 371.679 143.316 370.284 143.316C368.872 143.316 367.724 142.968 366.839 142.271C365.948 141.567 365.474 140.639 365.415 139.484H367.595C367.642 140.064 367.908 140.527 368.395 140.873C368.881 141.219 369.514 141.392 370.293 141.392C371.061 141.392 371.679 141.204 372.147 140.829C372.61 140.46 372.842 139.977 372.842 139.379C372.842 138.787 372.616 138.324 372.165 137.99C371.702 137.65 371.061 137.48 370.24 137.48H368.509V135.617ZM384.9 139.757H380.233L379.144 143H376.85L381.35 130.317H383.898L388.407 143H385.973L384.9 139.757ZM380.761 137.964H384.373L382.65 132.734H382.501L380.761 137.964ZM397.592 132.207H395.245C394.466 132.207 393.856 132.397 393.417 132.778C392.983 133.153 392.767 133.681 392.767 134.36C392.767 135.046 392.983 135.576 393.417 135.951C393.851 136.332 394.46 136.522 395.245 136.522H397.592V132.207ZM392.38 143H389.831L393.276 138.017C392.421 137.771 391.738 137.325 391.229 136.681C390.707 136.024 390.446 135.248 390.446 134.352C390.446 133.15 390.848 132.178 391.65 131.434C392.465 130.689 393.534 130.317 394.858 130.317H399.842V143H397.592V138.333H395.57L392.38 143ZM403.155 143V130.317H408.455C409.656 130.317 410.6 130.602 411.285 131.17C411.971 131.732 412.313 132.503 412.313 133.481C412.313 134.149 412.097 134.744 411.663 135.266C411.229 135.787 410.693 136.098 410.055 136.197V136.355C410.91 136.438 411.604 136.757 412.138 137.313C412.671 137.876 412.938 138.57 412.938 139.396C412.938 140.51 412.551 141.389 411.777 142.033C410.998 142.678 409.932 143 408.578 143H403.155ZM405.423 135.652H407.611C409.252 135.652 410.072 135.063 410.072 133.886C410.072 133.329 409.882 132.896 409.501 132.585C409.12 132.274 408.587 132.119 407.901 132.119H405.423V135.652ZM408.06 141.198C409.765 141.198 410.617 140.539 410.617 139.221C410.617 137.932 409.735 137.287 407.972 137.287H405.423V141.198H408.06ZM418.237 135.767L423.001 130.317H425.603L420.162 136.487L426.007 143H423.212L418.246 137.568H417.851V143H415.583V130.317H417.851V135.767H418.237ZM429.663 143.105C429.212 143.105 428.893 143.064 428.705 142.982V141.04C428.945 141.093 429.194 141.119 429.452 141.119C430.296 141.119 430.929 140.771 431.351 140.073L427.097 130.317H429.496L432.476 137.718H432.625L435.508 130.317H437.881L433.996 139.37C433.434 140.671 432.871 141.591 432.309 142.13C431.623 142.78 430.741 143.105 429.663 143.105ZM442.847 130.309L442.645 138.808H440.614L440.412 130.309H442.847ZM440.175 141.831C440.175 141.403 440.307 141.063 440.57 140.812C440.834 140.554 441.188 140.425 441.634 140.425C442.079 140.425 442.434 140.554 442.697 140.812C442.961 141.063 443.093 141.403 443.093 141.831C443.093 142.253 442.961 142.59 442.697 142.842C442.434 143.1 442.079 143.229 441.634 143.229C441.188 143.229 440.834 143.1 440.57 142.842C440.307 142.59 440.175 142.253 440.175 141.831ZM92.1719 151.001C94.0117 151.001 95.4707 151.599 96.5488 152.794C97.6211 153.989 98.1572 155.609 98.1572 157.654C98.1572 159.699 97.6211 161.319 96.5488 162.515C95.4766 163.716 94.0176 164.316 92.1719 164.316C90.3145 164.316 88.8467 163.719 87.7686 162.523C86.6963 161.328 86.1602 159.705 86.1602 157.654C86.1602 155.609 86.7021 153.989 87.7861 152.794C88.8643 151.599 90.3262 151.001 92.1719 151.001ZM92.1719 153.014C91.041 153.014 90.1445 153.433 89.4824 154.271C88.8145 155.108 88.4805 156.236 88.4805 157.654C88.4805 159.078 88.8086 160.206 89.4648 161.038C90.127 161.882 91.0293 162.304 92.1719 162.304C93.2969 162.304 94.1904 161.882 94.8525 161.038C95.5088 160.2 95.8369 159.072 95.8369 157.654C95.8369 156.236 95.5088 155.108 94.8525 154.271C94.1904 153.433 93.2969 153.014 92.1719 153.014ZM107.087 151.317H109.319V156.793H109.732L114.083 151.317H116.623L111.596 157.505L117.036 164H114.285L109.741 158.551H109.319V164H107.087V158.551H106.674L102.121 164H99.4053L104.819 157.549L99.7656 151.317H102.332L106.683 156.793H107.087V151.317ZM127.724 154.982H127.574L121.448 164H119.251V151.317H121.51V160.353H121.659L127.776 151.317H129.974V164H127.724V154.982ZM136.284 158.876C136.19 160.341 135.912 161.349 135.449 161.899V162.04H140.96V153.277H136.645L136.284 158.876ZM134.061 166.505H131.995V162.04H132.9C133.328 161.765 133.642 161.352 133.841 160.801C134.022 160.314 134.14 159.623 134.192 158.727L134.641 151.317H143.219V162.04H144.801V166.505H142.744V164H134.061V166.505ZM154.434 160.757H149.767L148.677 164H146.383L150.883 151.317H153.432L157.94 164H155.506L154.434 160.757ZM150.294 158.964H153.906L152.184 153.734H152.034L150.294 158.964ZM164.093 147.292C164.099 147.731 164.242 148.083 164.523 148.347C164.799 148.61 165.15 148.742 165.578 148.742C166.012 148.742 166.369 148.61 166.65 148.347C166.932 148.083 167.075 147.731 167.081 147.292H168.795C168.795 148.136 168.502 148.807 167.916 149.305C167.33 149.803 166.551 150.052 165.578 150.052C164.611 150.052 163.838 149.803 163.258 149.305C162.672 148.807 162.379 148.136 162.379 147.292H164.093ZM168.769 154.982H168.619L162.493 164H160.296V151.317H162.555V160.353H162.704L168.821 151.317H171.019V164H168.769V154.982ZM177.496 164V153.277H173.594V151.317H183.675V153.277H179.764V164H177.496ZM194.433 164H186.224V151.317H194.433V153.277H188.491V156.644H194.107V158.489H188.491V162.04H194.433V164ZM204.575 156.617H206.271C206.939 156.617 207.481 156.438 207.897 156.081C208.313 155.729 208.521 155.27 208.521 154.701C208.521 154.139 208.325 153.693 207.933 153.365C207.528 153.031 206.975 152.864 206.271 152.864C205.568 152.864 205 153.037 204.566 153.383C204.139 153.723 203.901 154.188 203.854 154.78H201.728C201.786 153.62 202.226 152.7 203.046 152.021C203.872 151.341 204.971 151.001 206.342 151.001C207.631 151.001 208.683 151.317 209.497 151.95C210.317 152.589 210.728 153.415 210.728 154.429C210.728 155.132 210.514 155.75 210.086 156.283C209.652 156.822 209.093 157.168 208.407 157.32V157.47C209.251 157.558 209.931 157.868 210.446 158.401C210.974 158.958 211.237 159.664 211.237 160.52C211.237 161.615 210.771 162.523 209.84 163.244C208.908 163.959 207.745 164.316 206.351 164.316C204.938 164.316 203.79 163.968 202.905 163.271C202.015 162.567 201.54 161.639 201.481 160.484H203.661C203.708 161.064 203.975 161.527 204.461 161.873C204.947 162.219 205.58 162.392 206.359 162.392C207.127 162.392 207.745 162.204 208.214 161.829C208.677 161.46 208.908 160.977 208.908 160.379C208.908 159.787 208.683 159.324 208.231 158.99C207.769 158.65 207.127 158.48 206.307 158.48H204.575V156.617ZM213.856 164V151.317H219.156C220.357 151.317 221.301 151.602 221.986 152.17C222.672 152.732 223.015 153.503 223.015 154.481C223.015 155.149 222.798 155.744 222.364 156.266C221.931 156.787 221.395 157.098 220.756 157.197V157.355C221.611 157.438 222.306 157.757 222.839 158.313C223.372 158.876 223.639 159.57 223.639 160.396C223.639 161.51 223.252 162.389 222.479 163.033C221.699 163.678 220.633 164 219.279 164H213.856ZM216.124 156.652H218.312C219.953 156.652 220.773 156.063 220.773 154.886C220.773 154.329 220.583 153.896 220.202 153.585C219.821 153.274 219.288 153.119 218.603 153.119H216.124V156.652ZM218.761 162.198C220.466 162.198 221.318 161.539 221.318 160.221C221.318 158.932 220.437 158.287 218.673 158.287H216.124V162.198H218.761ZM231.812 151.001C233.652 151.001 235.111 151.599 236.189 152.794C237.262 153.989 237.798 155.609 237.798 157.654C237.798 159.699 237.262 161.319 236.189 162.515C235.117 163.716 233.658 164.316 231.812 164.316C229.955 164.316 228.487 163.719 227.409 162.523C226.337 161.328 225.801 159.705 225.801 157.654C225.801 155.609 226.343 153.989 227.427 152.794C228.505 151.599 229.967 151.001 231.812 151.001ZM231.812 153.014C230.682 153.014 229.785 153.433 229.123 154.271C228.455 155.108 228.121 156.236 228.121 157.654C228.121 159.078 228.449 160.206 229.105 161.038C229.768 161.882 230.67 162.304 231.812 162.304C232.938 162.304 233.831 161.882 234.493 161.038C235.149 160.2 235.478 159.072 235.478 157.654C235.478 156.236 235.149 155.108 234.493 154.271C233.831 153.433 232.938 153.014 231.812 153.014ZM249.065 164V158.524H242.896V164H240.628V151.317H242.896V156.564H249.065V151.317H251.324V164H249.065ZM257.292 156.767L262.056 151.317H264.657L259.217 157.487L265.062 164H262.267L257.301 158.568H256.905V164H254.638V151.317H256.905V156.767H257.292ZM274.387 160.757H269.72L268.63 164H266.336L270.836 151.317H273.385L277.894 164H275.459L274.387 160.757ZM270.247 158.964H273.859L272.137 153.734H271.987L270.247 158.964Z" fill="#AFBFFF"/>
<defs>
<filter id="filter0_b" x="-20" y="-20" width="569" height="333" filterUnits="userSpaceOnUse" color-interpolation-filters="sRGB">
<feFlood flood-opacity="0" result="BackgroundImageFix"/>
<feGaussianBlur in="BackgroundImage" stdDeviation="10"/>
<feComposite in2="SourceAlpha" operator="in" result="effect1_backgroundBlur"/>
<feBlend mode="normal" in="SourceGraphic" in2="effect1_backgroundBlur" result="shape"/>
</filter>
</defs>
</svg>
