<svg width="579" height="723" viewBox="0 0 579 723" fill="none" xmlns="http://www.w3.org/2000/svg">
<g filter="url(#filter0_b)">
<rect width="579" height="723" rx="8" fill="white"/>
</g>
<path d="M55.9746 76.6328C52.377 76.6328 49.5352 75.4434 47.4492 73.0645C45.3633 70.6738 44.3203 67.4277 44.3203 63.3262C44.3203 59.2012 45.3633 55.9492 47.4492 53.5703C49.5234 51.1914 52.3594 50.002 55.957 50.002C58.8398 50.002 61.2832 50.8516 63.2871 52.5508C65.291 54.2383 66.4277 56.4062 66.6973 59.0547H62.2324C61.916 57.5312 61.1895 56.3184 60.0527 55.416C58.916 54.502 57.5508 54.0449 55.957 54.0449C53.8008 54.0449 52.0957 54.877 50.8418 56.541C49.5879 58.1934 48.9609 60.4492 48.9609 63.3086C48.9609 66.168 49.5879 68.4297 50.8418 70.0938C52.0957 71.7578 53.8066 72.5898 55.9746 72.5898C57.5801 72.5898 58.9512 72.1738 60.0879 71.3418C61.2246 70.498 61.9453 69.3672 62.25 67.9492H66.7148C66.4102 70.5508 65.2793 72.6484 63.3223 74.2422C61.3418 75.8359 58.8926 76.6328 55.9746 76.6328ZM89.0039 76V54.5723H76.9805V76H72.4277V50.6348H93.5215V76H89.0039ZM114.352 69.5137H105.018L102.838 76H98.25L107.25 50.6348H112.348L121.365 76H116.496L114.352 69.5137ZM106.072 65.9277H113.297L109.852 55.4688H109.553L106.072 65.9277ZM135.639 76.6328C132.041 76.6328 129.199 75.4434 127.113 73.0645C125.027 70.6738 123.984 67.4277 123.984 63.3262C123.984 59.2012 125.027 55.9492 127.113 53.5703C129.188 51.1914 132.023 50.002 135.621 50.002C138.504 50.002 140.947 50.8516 142.951 52.5508C144.955 54.2383 146.092 56.4062 146.361 59.0547H141.896C141.58 57.5312 140.854 56.3184 139.717 55.416C138.58 54.502 137.215 54.0449 135.621 54.0449C133.465 54.0449 131.76 54.877 130.506 56.541C129.252 58.1934 128.625 60.4492 128.625 63.3086C128.625 66.168 129.252 68.4297 130.506 70.0938C131.76 71.7578 133.471 72.5898 135.639 72.5898C137.244 72.5898 138.615 72.1738 139.752 71.3418C140.889 70.498 141.609 69.3672 141.914 67.9492H146.379C146.074 70.5508 144.943 72.6484 142.986 74.2422C141.006 75.8359 138.557 76.6328 135.639 76.6328ZM169.037 57.9648H168.738L156.486 76H152.092V50.6348H156.609V68.7051H156.908L169.143 50.6348H173.537V76H169.037V57.9648ZM198.709 68.125C198.709 70.4688 197.918 72.3672 196.336 73.8203C194.754 75.2734 192.697 76 190.166 76H180.182V50.6348H196.301V54.5547H184.717V60.3379H190.025C192.592 60.3379 194.678 61.0527 196.283 62.4824C197.9 63.9355 198.709 65.8164 198.709 68.125ZM189.023 72.1855C190.629 72.1855 191.871 71.834 192.75 71.1309C193.629 70.4277 194.068 69.4258 194.068 68.125C194.068 66.8008 193.629 65.7871 192.75 65.084C191.871 64.3809 190.623 64.0293 189.006 64.0293H184.717V72.1855H189.023ZM215.145 50.002C218.824 50.002 221.742 51.1973 223.898 53.5879C226.043 55.9785 227.115 59.2188 227.115 63.3086C227.115 67.3984 226.043 70.6387 223.898 73.0293C221.754 75.4316 218.836 76.6328 215.145 76.6328C211.43 76.6328 208.494 75.4375 206.338 73.0469C204.193 70.6562 203.121 67.4102 203.121 63.3086C203.121 59.2188 204.205 55.9785 206.373 53.5879C208.529 51.1973 211.453 50.002 215.145 50.002ZM215.145 54.0273C212.883 54.0273 211.09 54.8652 209.766 56.541C208.43 58.2168 207.762 60.4727 207.762 63.3086C207.762 66.1562 208.418 68.4121 209.73 70.0762C211.055 71.7637 212.859 72.6074 215.145 72.6074C217.395 72.6074 219.182 71.7637 220.506 70.0762C221.818 68.4004 222.475 66.1445 222.475 63.3086C222.475 60.4727 221.818 58.2168 220.506 56.541C219.182 54.8652 217.395 54.0273 215.145 54.0273ZM49.998 104.234H53.3906C54.7266 104.234 55.8105 103.877 56.6426 103.162C57.4746 102.459 57.8906 101.539 57.8906 100.402C57.8906 99.2773 57.498 98.3867 56.7129 97.7305C55.9043 97.0625 54.7969 96.7285 53.3906 96.7285C51.9844 96.7285 50.8477 97.0742 49.9805 97.7656C49.125 98.4453 48.6504 99.377 48.5566 100.561H44.3027C44.4199 98.2402 45.2988 96.4004 46.9395 95.041C48.5918 93.6816 50.7891 93.002 53.5312 93.002C56.1094 93.002 58.2129 93.6348 59.8418 94.9004C61.4824 96.1777 62.3027 97.8301 62.3027 99.8574C62.3027 101.264 61.875 102.5 61.0195 103.566C60.1523 104.645 59.0332 105.336 57.6621 105.641V105.939C59.3496 106.115 60.709 106.736 61.7402 107.803C62.7949 108.916 63.3223 110.328 63.3223 112.039C63.3223 114.23 62.3906 116.047 60.5273 117.488C58.6641 118.918 56.3379 119.633 53.5488 119.633C50.7246 119.633 48.4277 118.936 46.6582 117.541C44.877 116.135 43.9277 114.277 43.8105 111.969H48.1699C48.2637 113.129 48.7969 114.055 49.7695 114.746C50.7422 115.438 52.0078 115.783 53.5664 115.783C55.1016 115.783 56.3379 115.408 57.2754 114.658C58.2012 113.92 58.6641 112.953 58.6641 111.758C58.6641 110.574 58.2129 109.648 57.3105 108.98C56.3848 108.301 55.1016 107.961 53.4609 107.961H49.998V104.234ZM82.7812 112.514H73.4473L71.2676 119H66.6797L75.6797 93.6348H80.7773L89.7949 119H84.9258L82.7812 112.514ZM74.502 108.928H81.7266L78.2812 98.4688H77.9824L74.502 108.928ZM120.68 119V97.5723H108.656V119H104.104V93.6348H125.197V119H120.68ZM142.863 93.002C146.543 93.002 149.461 94.1973 151.617 96.5879C153.762 98.9785 154.834 102.219 154.834 106.309C154.834 110.398 153.762 113.639 151.617 116.029C149.473 118.432 146.555 119.633 142.863 119.633C139.148 119.633 136.213 118.438 134.057 116.047C131.912 113.656 130.84 110.41 130.84 106.309C130.84 102.219 131.924 98.9785 134.092 96.5879C136.248 94.1973 139.172 93.002 142.863 93.002ZM142.863 97.0273C140.602 97.0273 138.809 97.8652 137.484 99.541C136.148 101.217 135.48 103.473 135.48 106.309C135.48 109.156 136.137 111.412 137.449 113.076C138.773 114.764 140.578 115.607 142.863 115.607C145.113 115.607 146.9 114.764 148.225 113.076C149.537 111.4 150.193 109.145 150.193 106.309C150.193 103.473 149.537 101.217 148.225 99.541C146.9 97.8652 145.113 97.0273 142.863 97.0273ZM165.803 104.533L175.33 93.6348H180.533L169.652 105.975L181.342 119H175.752L165.82 108.137H165.029V119H160.494V93.6348H165.029V104.533H165.803ZM188.654 119.211C187.752 119.211 187.113 119.129 186.738 118.965V115.08C187.219 115.186 187.717 115.238 188.232 115.238C189.92 115.238 191.186 114.541 192.029 113.146L183.521 93.6348H188.32L194.279 108.436H194.578L200.344 93.6348H205.09L197.32 111.74C196.195 114.342 195.07 116.182 193.945 117.26C192.574 118.561 190.811 119.211 188.654 119.211ZM226.359 119V97.5723H214.336V119H209.783V93.6348H230.877V119H226.359ZM242.795 104.533L252.322 93.6348H257.525L246.645 105.975L258.334 119H252.744L242.812 108.137H242.021V119H237.486V93.6348H242.021V104.533H242.795ZM265.646 119.211C264.744 119.211 264.105 119.129 263.73 118.965V115.08C264.211 115.186 264.709 115.238 265.225 115.238C266.912 115.238 268.178 114.541 269.021 113.146L260.514 93.6348H265.312L271.271 108.436H271.57L277.336 93.6348H282.082L274.312 111.74C273.188 114.342 272.062 116.182 270.938 117.26C269.566 118.561 267.803 119.211 265.646 119.211ZM292.014 93.6172L291.609 110.615H287.549L287.145 93.6172H292.014ZM286.67 116.662C286.67 115.807 286.934 115.127 287.461 114.623C287.988 114.107 288.697 113.85 289.588 113.85C290.479 113.85 291.188 114.107 291.715 114.623C292.242 115.127 292.506 115.807 292.506 116.662C292.506 117.506 292.242 118.18 291.715 118.684C291.188 119.199 290.479 119.457 289.588 119.457C288.697 119.457 287.988 119.199 287.461 118.684C286.934 118.18 286.67 117.506 286.67 116.662ZM62.1621 162V151.049H49.8223V162H45.2871V136.635H49.8223V147.129H62.1621V136.635H66.6797V162H62.1621ZM89.7246 162H73.3066V136.635H89.7246V140.555H77.8418V147.287H89.0742V150.979H77.8418V158.08H89.7246V162ZM110.01 147.234H113.402C114.738 147.234 115.822 146.877 116.654 146.162C117.486 145.459 117.902 144.539 117.902 143.402C117.902 142.277 117.51 141.387 116.725 140.73C115.916 140.062 114.809 139.729 113.402 139.729C111.996 139.729 110.859 140.074 109.992 140.766C109.137 141.445 108.662 142.377 108.568 143.561H104.314C104.432 141.24 105.311 139.4 106.951 138.041C108.604 136.682 110.801 136.002 113.543 136.002C116.121 136.002 118.225 136.635 119.854 137.9C121.494 139.178 122.314 140.83 122.314 142.857C122.314 144.264 121.887 145.5 121.031 146.566C120.164 147.645 119.045 148.336 117.674 148.641V148.939C119.361 149.115 120.721 149.736 121.752 150.803C122.807 151.916 123.334 153.328 123.334 155.039C123.334 157.23 122.402 159.047 120.539 160.488C118.676 161.918 116.35 162.633 113.561 162.633C110.736 162.633 108.439 161.936 106.67 160.541C104.889 159.135 103.939 157.277 103.822 154.969H108.182C108.275 156.129 108.809 157.055 109.781 157.746C110.754 158.438 112.02 158.783 113.578 158.783C115.113 158.783 116.35 158.408 117.287 157.658C118.213 156.92 118.676 155.953 118.676 154.758C118.676 153.574 118.225 152.648 117.322 151.98C116.396 151.301 115.113 150.961 113.473 150.961H110.01V147.234ZM142.793 155.514H133.459L131.279 162H126.691L135.691 136.635H140.789L149.807 162H144.938L142.793 155.514ZM134.514 151.928H141.738L138.293 141.469H137.994L134.514 151.928ZM173.045 154.125C173.045 156.469 172.254 158.367 170.672 159.82C169.09 161.273 167.033 162 164.502 162H154.518V136.635H170.637V140.555H159.053V146.338H164.361C166.928 146.338 169.014 147.053 170.619 148.482C172.236 149.936 173.045 151.816 173.045 154.125ZM163.359 158.186C164.965 158.186 166.207 157.834 167.086 157.131C167.965 156.428 168.404 155.426 168.404 154.125C168.404 152.801 167.965 151.787 167.086 151.084C166.207 150.381 164.959 150.029 163.342 150.029H159.053V158.186H163.359ZM200.186 162V136.635H204.721V162H200.186ZM178.547 136.635H183.082V145.424H188.461C191.039 145.424 193.137 146.186 194.754 147.709C196.383 149.244 197.197 151.242 197.197 153.703C197.197 156.176 196.406 158.18 194.824 159.715C193.242 161.238 191.186 162 188.654 162H178.547V136.635ZM187.459 158.186C189.076 158.186 190.33 157.799 191.221 157.025C192.111 156.252 192.557 155.145 192.557 153.703C192.557 152.262 192.111 151.148 191.221 150.363C190.33 149.59 189.07 149.203 187.441 149.203H183.082V158.186H187.459ZM211.33 162V136.635H221.93C224.332 136.635 226.219 137.203 227.59 138.34C228.961 139.465 229.646 141.006 229.646 142.963C229.646 144.299 229.213 145.488 228.346 146.531C227.479 147.574 226.406 148.195 225.129 148.395V148.711C226.84 148.875 228.229 149.514 229.295 150.627C230.361 151.752 230.895 153.141 230.895 154.793C230.895 157.02 230.121 158.777 228.574 160.066C227.016 161.355 224.883 162 222.176 162H211.33ZM215.865 147.305H220.242C223.523 147.305 225.164 146.127 225.164 143.771C225.164 142.658 224.783 141.791 224.021 141.17C223.26 140.549 222.193 140.238 220.822 140.238H215.865V147.305ZM221.139 158.396C224.549 158.396 226.254 157.078 226.254 154.441C226.254 151.863 224.49 150.574 220.963 150.574H215.865V158.396H221.139ZM250.406 155.514H241.072L238.893 162H234.305L243.305 136.635H248.402L257.42 162H252.551L250.406 155.514ZM242.127 151.928H249.352L245.906 141.469H245.607L242.127 151.928ZM269.725 128.584C269.736 129.463 270.023 130.166 270.586 130.693C271.137 131.221 271.84 131.484 272.695 131.484C273.562 131.484 274.277 131.221 274.84 130.693C275.402 130.166 275.689 129.463 275.701 128.584H279.129C279.129 130.271 278.543 131.613 277.371 132.609C276.199 133.605 274.641 134.104 272.695 134.104C270.762 134.104 269.215 133.605 268.055 132.609C266.883 131.613 266.297 130.271 266.297 128.584H269.725ZM279.076 143.965H278.777L266.525 162H262.131V136.635H266.648V154.705H266.947L279.182 136.635H283.576V162H279.076V143.965ZM61.8633 205V183.572H49.8398V205H45.2871V179.635H66.3809V205H61.8633ZM83.2207 179.635C85.752 179.635 87.8086 180.426 89.3906 182.008C90.9609 183.59 91.7461 185.658 91.7461 188.213C91.7461 190.721 90.9375 192.76 89.3203 194.33C87.6914 195.9 85.5938 196.686 83.0273 196.686H77.5254V205H72.9902V179.635H83.2207ZM77.5254 192.924H82.0078C83.6367 192.924 84.8965 192.514 85.7871 191.693C86.6895 190.873 87.1406 189.713 87.1406 188.213C87.1406 186.666 86.6953 185.482 85.8047 184.662C84.9258 183.842 83.666 183.432 82.0254 183.432H77.5254V192.924ZM108.164 179.002C111.844 179.002 114.762 180.197 116.918 182.588C119.062 184.979 120.135 188.219 120.135 192.309C120.135 196.398 119.062 199.639 116.918 202.029C114.773 204.432 111.855 205.633 108.164 205.633C104.449 205.633 101.514 204.438 99.3574 202.047C97.2129 199.656 96.1406 196.41 96.1406 192.309C96.1406 188.219 97.2246 184.979 99.3926 182.588C101.549 180.197 104.473 179.002 108.164 179.002ZM108.164 183.027C105.902 183.027 104.109 183.865 102.785 185.541C101.449 187.217 100.781 189.473 100.781 192.309C100.781 195.156 101.438 197.412 102.75 199.076C104.074 200.764 105.879 201.607 108.164 201.607C110.414 201.607 112.201 200.764 113.525 199.076C114.838 197.4 115.494 195.145 115.494 192.309C115.494 189.473 114.838 187.217 113.525 185.541C112.201 183.865 110.414 183.027 108.164 183.027ZM141.369 194.752C141.182 197.682 140.625 199.697 139.699 200.799V201.08H150.721V183.555H142.09L141.369 194.752ZM136.922 210.01H132.791V201.08H134.602C135.457 200.529 136.084 199.703 136.482 198.602C136.846 197.629 137.08 196.246 137.186 194.453L138.082 179.635H155.238V201.08H158.402V210.01H154.289V205H136.922V210.01ZM179.9 186.965H179.602L167.35 205H162.955V179.635H167.473V197.705H167.771L180.006 179.635H184.4V205H179.9V186.965ZM201.732 205.633C198.135 205.633 195.293 204.443 193.207 202.064C191.121 199.674 190.078 196.428 190.078 192.326C190.078 188.201 191.121 184.949 193.207 182.57C195.281 180.191 198.117 179.002 201.715 179.002C204.598 179.002 207.041 179.852 209.045 181.551C211.049 183.238 212.186 185.406 212.455 188.055H207.99C207.674 186.531 206.947 185.318 205.811 184.416C204.674 183.502 203.309 183.045 201.715 183.045C199.559 183.045 197.854 183.877 196.6 185.541C195.346 187.193 194.719 189.449 194.719 192.309C194.719 195.168 195.346 197.43 196.6 199.094C197.854 200.758 199.564 201.59 201.732 201.59C203.338 201.59 204.709 201.174 205.846 200.342C206.982 199.498 207.703 198.367 208.008 196.949H212.473C212.168 199.551 211.037 201.648 209.08 203.242C207.1 204.836 204.65 205.633 201.732 205.633ZM223.441 205V183.555H215.637V179.635H235.799V183.555H227.977V205H223.441ZM252.516 198.514H243.182L241.002 205H236.414L245.414 179.635H250.512L259.529 205H254.66L252.516 198.514ZM244.236 194.928H251.461L248.016 184.469H247.717L244.236 194.928ZM281.115 205V194.049H268.775V205H264.24V179.635H268.775V190.129H281.115V179.635H285.633V205H281.115ZM312.404 210.01V205H292.26V179.635H296.795V201.08H308.836V179.635H313.354V201.08H316.518V210.01H312.404ZM337.998 186.965H337.699L325.447 205H321.053V179.635H325.57V197.705H325.869L338.104 179.635H342.498V205H337.998V186.965ZM369.48 205.633C366.094 205.633 363.357 204.596 361.271 202.521C359.209 200.471 358.031 197.646 357.738 194.049H353.678V205H349.143V179.635H353.678V190.129H357.773C358.148 186.672 359.367 183.953 361.43 181.973C363.504 179.992 366.188 179.002 369.48 179.002C373.113 179.002 375.99 180.197 378.111 182.588C380.221 184.967 381.275 188.207 381.275 192.309C381.275 196.398 380.221 199.639 378.111 202.029C376.002 204.432 373.125 205.633 369.48 205.633ZM369.463 183.027C367.26 183.027 365.508 183.865 364.207 185.541C362.906 187.217 362.256 189.473 362.256 192.309C362.256 195.156 362.9 197.412 364.189 199.076C365.479 200.764 367.236 201.607 369.463 201.607C371.666 201.607 373.418 200.764 374.719 199.076C376.008 197.4 376.652 195.145 376.652 192.309C376.652 189.473 376.008 187.217 374.719 185.541C373.418 183.865 371.666 183.027 369.463 183.027Z" fill="#3E3A89"/>
<path d="M536.571 655.5C532.236 654.712 529.479 653.924 525.93 652.741C522.38 651.559 520.402 649.774 519.227 648.012V648.012C515.797 642.866 515.43 636.305 515.292 630.123C515.287 629.916 515.285 629.705 515.285 629.488C515.287 625.547 515.287 625.547 515.285 622" stroke="#3E3A89" stroke-width="5" stroke-linecap="round" stroke-linejoin="round"/>
<path d="M536.567 655.5C532.232 656.288 529.479 657.471 525.93 658.653C522.38 659.835 520.402 661.62 519.227 663.382V663.382C515.797 668.528 515.43 675.089 515.292 681.271C515.287 681.478 515.285 681.69 515.285 681.906C515.287 685.847 515.288 685.847 515.285 689.394" stroke="#3E3A89" stroke-width="5" stroke-linecap="round" stroke-linejoin="round"/>
<path d="M493.999 655.5C498.335 654.712 501.091 653.924 504.64 652.741C508.19 651.559 510.168 649.774 511.343 648.012V648.012C514.773 642.866 515.14 636.305 515.278 630.123C515.283 629.916 515.285 629.705 515.285 629.488C515.283 625.547 515.283 625.547 515.285 622" stroke="#3E3A89" stroke-width="5" stroke-linecap="round" stroke-linejoin="round"/>
<path d="M494.003 655.5C498.338 656.288 501.091 657.471 504.64 658.653C508.19 659.835 510.168 661.62 511.343 663.382V663.382C514.773 668.528 515.14 675.089 515.278 681.271C515.283 681.478 515.285 681.69 515.285 681.906C515.283 685.847 515.283 685.847 515.285 689.394" stroke="#3E3A89" stroke-width="5" stroke-linecap="round" stroke-linejoin="round"/>
<path d="M536.571 493.5C532.236 492.712 529.479 491.924 525.93 490.741C522.38 489.559 520.402 487.774 519.227 486.012V486.012C515.797 480.866 515.43 474.305 515.292 468.123C515.287 467.916 515.285 467.705 515.285 467.488C515.287 463.547 515.287 463.547 515.285 460" stroke="#3E3A89" stroke-width="5" stroke-linecap="round" stroke-linejoin="round"/>
<path d="M536.567 493.5C532.232 494.288 529.479 495.471 525.93 496.653C522.38 497.835 520.402 499.62 519.227 501.382V501.382C515.797 506.528 515.43 513.089 515.292 519.271C515.287 519.478 515.285 519.69 515.285 519.906C515.287 523.847 515.288 523.847 515.285 527.394" stroke="#3E3A89" stroke-width="5" stroke-linecap="round" stroke-linejoin="round"/>
<path d="M493.999 493.5C498.335 492.712 501.091 491.924 504.64 490.741C508.19 489.559 510.168 487.774 511.343 486.012V486.012C514.773 480.866 515.14 474.305 515.278 468.123C515.283 467.916 515.285 467.705 515.285 467.488C515.283 463.547 515.283 463.547 515.285 460" stroke="#3E3A89" stroke-width="5" stroke-linecap="round" stroke-linejoin="round"/>
<path d="M494.003 493.5C498.338 494.288 501.091 495.471 504.64 496.653C508.19 497.835 510.168 499.62 511.343 501.382V501.382C514.773 506.528 515.14 513.089 515.278 519.271C515.283 519.478 515.285 519.69 515.285 519.906C515.283 523.847 515.283 523.847 515.285 527.394" stroke="#3E3A89" stroke-width="5" stroke-linecap="round" stroke-linejoin="round"/>
<path d="M374.571 655.5C370.236 654.712 367.479 653.924 363.93 652.741C360.38 651.559 358.402 649.774 357.227 648.012V648.012C353.797 642.866 353.43 636.305 353.292 630.123C353.287 629.916 353.285 629.705 353.285 629.488C353.287 625.547 353.287 625.547 353.285 622" stroke="#3E3A89" stroke-width="5" stroke-linecap="round" stroke-linejoin="round"/>
<path d="M374.567 655.5C370.232 656.288 367.479 657.471 363.93 658.653C360.38 659.835 358.402 661.62 357.227 663.382V663.382C353.797 668.528 353.43 675.089 353.292 681.271C353.287 681.478 353.285 681.69 353.285 681.906C353.287 685.847 353.288 685.847 353.285 689.394" stroke="#3E3A89" stroke-width="5" stroke-linecap="round" stroke-linejoin="round"/>
<path d="M331.999 655.5C336.335 654.712 339.091 653.924 342.64 652.741C346.19 651.559 348.168 649.774 349.343 648.012V648.012C352.773 642.866 353.14 636.305 353.278 630.123C353.283 629.916 353.285 629.705 353.285 629.488C353.283 625.547 353.283 625.547 353.285 622" stroke="#3E3A89" stroke-width="5" stroke-linecap="round" stroke-linejoin="round"/>
<path d="M332.003 655.5C336.338 656.288 339.091 657.471 342.64 658.653C346.19 659.835 348.168 661.62 349.343 663.382V663.382C352.773 668.528 353.14 675.089 353.278 681.271C353.283 681.478 353.285 681.69 353.285 681.906C353.283 685.847 353.283 685.847 353.285 689.394" stroke="#3E3A89" stroke-width="5" stroke-linecap="round" stroke-linejoin="round"/>
<defs>
<filter id="filter0_b" x="-20" y="-20" width="619" height="763" filterUnits="userSpaceOnUse" color-interpolation-filters="sRGB">
<feFlood flood-opacity="0" result="BackgroundImageFix"/>
<feGaussianBlur in="BackgroundImage" stdDeviation="10"/>
<feComposite in2="SourceAlpha" operator="in" result="effect1_backgroundBlur"/>
<feBlend mode="normal" in="SourceGraphic" in2="effect1_backgroundBlur" result="shape"/>
</filter>
</defs>
</svg>
