<svg width="579" height="374" viewBox="0 0 579 374" fill="none" xmlns="http://www.w3.org/2000/svg">
<g filter="url(#filter0_b)">
<rect width="579" height="374" rx="8" fill="#3E3A89"/>
</g>
<path d="M51.5977 76V54.5547H43.793V50.6348H63.9551V54.5547H56.1328V76H51.5977ZM85.4707 76H69.0527V50.6348H85.4707V54.5547H73.5879V61.2871H84.8203V64.9785H73.5879V72.0801H85.4707V76ZM108.023 76V54.5723H96V76H91.4473V50.6348H112.541V76H108.023ZM135.568 76H119.15V50.6348H135.568V54.5547H123.686V61.2871H134.918V64.9785H123.686V72.0801H135.568V76ZM151.775 50.6348C154.307 50.6348 156.363 51.4258 157.945 53.0078C159.516 54.5898 160.301 56.6582 160.301 59.2129C160.301 61.7207 159.492 63.7598 157.875 65.3301C156.246 66.9004 154.148 67.6855 151.582 67.6855H146.08V76H141.545V50.6348H151.775ZM146.08 63.9238H150.562C152.191 63.9238 153.451 63.5137 154.342 62.6934C155.244 61.873 155.695 60.7129 155.695 59.2129C155.695 57.666 155.25 56.4824 154.359 55.6621C153.48 54.8418 152.221 54.4316 150.58 54.4316H146.08V63.9238ZM165.662 50.6348H170.197V59.4238H175.576C178.154 59.4238 180.252 60.1855 181.869 61.709C183.498 63.2441 184.312 65.2422 184.312 67.7031C184.312 70.1758 183.521 72.1797 181.939 73.7148C180.357 75.2383 178.301 76 175.77 76H165.662V50.6348ZM174.574 72.1855C176.191 72.1855 177.445 71.7988 178.336 71.0254C179.227 70.252 179.672 69.1445 179.672 67.7031C179.672 66.2617 179.227 65.1484 178.336 64.3633C177.445 63.5898 176.186 63.2031 174.557 63.2031H170.197V72.1855H174.574ZM199.236 76V50.6348H209.836C212.238 50.6348 214.125 51.2031 215.496 52.3398C216.867 53.4648 217.553 55.0059 217.553 56.9629C217.553 58.2988 217.119 59.4883 216.252 60.5312C215.385 61.5742 214.312 62.1953 213.035 62.3945V62.7109C214.746 62.875 216.135 63.5137 217.201 64.627C218.268 65.752 218.801 67.1406 218.801 68.793C218.801 71.0195 218.027 72.7773 216.48 74.0664C214.922 75.3555 212.789 76 210.082 76H199.236ZM203.771 61.3047H208.148C211.43 61.3047 213.07 60.127 213.07 57.7715C213.07 56.6582 212.689 55.791 211.928 55.1699C211.166 54.5488 210.1 54.2383 208.729 54.2383H203.771V61.3047ZM209.045 72.3965C212.455 72.3965 214.16 71.0781 214.16 68.4414C214.16 65.8633 212.396 64.5742 208.869 64.5742H203.771V72.3965H209.045ZM233.689 76V50.6348H244.289C246.691 50.6348 248.578 51.2031 249.949 52.3398C251.32 53.4648 252.006 55.0059 252.006 56.9629C252.006 58.2988 251.572 59.4883 250.705 60.5312C249.838 61.5742 248.766 62.1953 247.488 62.3945V62.7109C249.199 62.875 250.588 63.5137 251.654 64.627C252.721 65.752 253.254 67.1406 253.254 68.793C253.254 71.0195 252.48 72.7773 250.934 74.0664C249.375 75.3555 247.242 76 244.535 76H233.689ZM238.225 61.3047H242.602C245.883 61.3047 247.523 60.127 247.523 57.7715C247.523 56.6582 247.143 55.791 246.381 55.1699C245.619 54.5488 244.553 54.2383 243.182 54.2383H238.225V61.3047ZM243.498 72.3965C246.908 72.3965 248.613 71.0781 248.613 68.4414C248.613 65.8633 246.85 64.5742 243.322 64.5742H238.225V72.3965H243.498ZM272.766 69.5137H263.432L261.252 76H256.664L265.664 50.6348H270.762L279.779 76H274.91L272.766 69.5137ZM264.486 65.9277H271.711L268.266 55.4688H267.967L264.486 65.9277ZM284.49 50.6348H289.025V72.0801H296.953V50.6348H301.471V72.0801H309.398V50.6348H313.934V76H284.49V50.6348ZM336.979 76H320.561V50.6348H336.979V54.5547H325.096V61.2871H336.328V64.9785H325.096V72.0801H336.979V76ZM342.955 76V50.6348H348.264L355.893 69.1094H356.209L363.838 50.6348H369.146V76H364.928V58.1582H364.682L357.668 75.0156H354.434L347.42 58.1582H347.174V76H342.955ZM56.3438 93.002C60.0234 93.002 62.9414 94.1973 65.0977 96.5879C67.2422 98.9785 68.3145 102.219 68.3145 106.309C68.3145 110.398 67.2422 113.639 65.0977 116.029C62.9531 118.432 60.0352 119.633 56.3438 119.633C52.6289 119.633 49.6934 118.438 47.5371 116.047C45.3926 113.656 44.3203 110.41 44.3203 106.309C44.3203 102.219 45.4043 98.9785 47.5723 96.5879C49.7285 94.1973 52.6523 93.002 56.3438 93.002ZM56.3438 97.0273C54.082 97.0273 52.2891 97.8652 50.9648 99.541C49.6289 101.217 48.9609 103.473 48.9609 106.309C48.9609 109.156 49.6172 111.412 50.9297 113.076C52.2539 114.764 54.0586 115.607 56.3438 115.607C58.5938 115.607 60.3809 114.764 61.7051 113.076C63.0176 111.4 63.6738 109.145 63.6738 106.309C63.6738 103.473 63.0176 101.217 61.7051 99.541C60.3809 97.8652 58.5938 97.0273 56.3438 97.0273ZM84.2051 93.6348C86.7363 93.6348 88.793 94.4258 90.375 96.0078C91.9453 97.5898 92.7305 99.6582 92.7305 102.213C92.7305 104.721 91.9219 106.76 90.3047 108.33C88.6758 109.9 86.5781 110.686 84.0117 110.686H78.5098V119H73.9746V93.6348H84.2051ZM78.5098 106.924H82.9922C84.6211 106.924 85.8809 106.514 86.7715 105.693C87.6738 104.873 88.125 103.713 88.125 102.213C88.125 100.666 87.6797 99.4824 86.7891 98.6621C85.9102 97.8418 84.6504 97.4316 83.0098 97.4316H78.5098V106.924ZM98.0918 119V93.6348H113.965V97.5723H102.645V119H98.0918ZM130.84 112.514H121.506L119.326 119H114.738L123.738 93.6348H128.836L137.854 119H132.984L130.84 112.514ZM122.561 108.928H129.785L126.34 98.4688H126.041L122.561 108.928ZM159.439 119V108.049H147.1V119H142.564V93.6348H147.1V104.129H159.439V93.6348H163.957V119H159.439ZM187.529 100.965H187.23L174.979 119H170.584V93.6348H175.102V111.705H175.4L187.635 93.6348H192.029V119H187.529V100.965ZM203.385 104.234H206.777C208.113 104.234 209.197 103.877 210.029 103.162C210.861 102.459 211.277 101.539 211.277 100.402C211.277 99.2773 210.885 98.3867 210.1 97.7305C209.291 97.0625 208.184 96.7285 206.777 96.7285C205.371 96.7285 204.234 97.0742 203.367 97.7656C202.512 98.4453 202.037 99.377 201.943 100.561H197.689C197.807 98.2402 198.686 96.4004 200.326 95.041C201.979 93.6816 204.176 93.002 206.918 93.002C209.496 93.002 211.6 93.6348 213.229 94.9004C214.869 96.1777 215.689 97.8301 215.689 99.8574C215.689 101.264 215.262 102.5 214.406 103.566C213.539 104.645 212.42 105.336 211.049 105.641V105.939C212.736 106.115 214.096 106.736 215.127 107.803C216.182 108.916 216.709 110.328 216.709 112.039C216.709 114.23 215.777 116.047 213.914 117.488C212.051 118.918 209.725 119.633 206.936 119.633C204.111 119.633 201.814 118.936 200.045 117.541C198.264 116.135 197.314 114.277 197.197 111.969H201.557C201.65 113.129 202.184 114.055 203.156 114.746C204.129 115.438 205.395 115.783 206.953 115.783C208.488 115.783 209.725 115.408 210.662 114.658C211.588 113.92 212.051 112.953 212.051 111.758C212.051 110.574 211.6 109.648 210.697 108.98C209.771 108.301 208.488 107.961 206.848 107.961H203.385V104.234ZM221.947 119V93.6348H227.256L234.885 112.109H235.201L242.83 93.6348H248.139V119H243.92V101.158H243.674L236.66 118.016H233.426L226.412 101.158H226.166V119H221.947ZM271.166 119H254.748V93.6348H271.166V97.5547H259.283V104.287H270.516V107.979H259.283V115.08H271.166V119ZM292.207 98.2051H291.908L285.598 102.635V98.2754L292.225 93.6348H296.742V119H292.207V98.2051ZM313.09 119.633C310.477 119.633 308.326 118.912 306.639 117.471C304.975 116.053 304.09 114.219 303.984 111.969H308.238C308.379 113.129 308.9 114.066 309.803 114.781C310.705 115.496 311.812 115.854 313.125 115.854C314.613 115.854 315.814 115.391 316.729 114.465C317.654 113.551 318.117 112.338 318.117 110.826C318.117 109.314 317.654 108.084 316.729 107.135C315.814 106.197 314.625 105.729 313.16 105.729C311.051 105.729 309.498 106.561 308.502 108.225H304.389L305.707 93.6348H320.982V97.4668H309.223L308.607 104.586H308.906C310.078 103.004 311.865 102.213 314.268 102.213C316.67 102.213 318.645 103.01 320.191 104.604C321.727 106.197 322.494 108.236 322.494 110.721C322.494 113.369 321.633 115.514 319.91 117.154C318.176 118.807 315.902 119.633 313.09 119.633ZM346.945 116.557C347.613 116.557 348.152 116.252 348.562 115.643C348.961 115.033 349.16 114.219 349.16 113.199C349.16 112.156 348.961 111.336 348.562 110.738C348.176 110.141 347.637 109.842 346.945 109.842C346.266 109.842 345.721 110.146 345.311 110.756C344.912 111.354 344.713 112.168 344.713 113.199C344.713 114.23 344.912 115.045 345.311 115.643C345.721 116.252 346.266 116.557 346.945 116.557ZM346.945 119.527C345.234 119.527 343.852 118.941 342.797 117.77C341.73 116.598 341.197 115.074 341.197 113.199C341.197 111.324 341.73 109.807 342.797 108.646C343.852 107.475 345.234 106.889 346.945 106.889C348.645 106.889 350.027 107.475 351.094 108.646C352.148 109.807 352.676 111.324 352.676 113.199C352.676 115.086 352.148 116.609 351.094 117.77C350.027 118.941 348.645 119.527 346.945 119.527ZM331.6 105.746C329.889 105.746 328.5 105.16 327.434 103.988C326.367 102.816 325.834 101.293 325.834 99.418C325.834 97.543 326.367 96.0254 327.434 94.8652C328.5 93.6934 329.889 93.1074 331.6 93.1074C333.311 93.1074 334.693 93.6875 335.748 94.8477C336.803 96.0195 337.33 97.543 337.33 99.418C337.33 101.293 336.803 102.816 335.748 103.988C334.682 105.16 333.299 105.746 331.6 105.746ZM328.312 119L337.928 105.746L346.014 93.6348H350.32L340.547 107.064L332.637 119H328.312ZM331.6 102.775C332.268 102.775 332.807 102.471 333.217 101.861C333.615 101.252 333.814 100.432 333.814 99.4004C333.814 98.3574 333.615 97.5371 333.217 96.9395C332.83 96.3535 332.291 96.0605 331.6 96.0605C330.908 96.0605 330.363 96.3594 329.965 96.957C329.566 97.5547 329.367 98.3691 329.367 99.4004C329.367 100.432 329.566 101.252 329.965 101.861C330.375 102.471 330.92 102.775 331.6 102.775ZM59.5078 155.514H50.1738L47.9941 162H43.4062L52.4062 136.635H57.5039L66.5215 162H61.6523L59.5078 155.514ZM51.2285 151.928H58.4531L55.0078 141.469H54.709L51.2285 151.928ZM86.2969 162V140.555H78.2285L77.543 152.139C77.3438 155.432 76.7285 157.881 75.6973 159.486C74.5488 161.291 72.7852 162.193 70.4062 162.193C69.7383 162.193 69.1816 162.123 68.7363 161.982V157.887C69.0879 157.969 69.457 158.01 69.8438 158.01C71.0742 158.01 71.9648 157.424 72.5156 156.252C72.9609 155.326 73.2363 153.861 73.3418 151.857L74.1504 136.635H90.832V162H86.2969ZM102.768 147.533L112.295 136.635H117.498L106.617 148.975L118.307 162H112.717L102.785 151.137H101.994V162H97.459V136.635H101.994V147.533H102.768ZM132.562 136.002C136.242 136.002 139.16 137.197 141.316 139.588C143.461 141.979 144.533 145.219 144.533 149.309C144.533 153.398 143.461 156.639 141.316 159.029C139.172 161.432 136.254 162.633 132.562 162.633C128.848 162.633 125.912 161.438 123.756 159.047C121.611 156.656 120.539 153.41 120.539 149.309C120.539 145.219 121.623 141.979 123.791 139.588C125.947 137.197 128.871 136.002 132.562 136.002ZM132.562 140.027C130.301 140.027 128.508 140.865 127.184 142.541C125.848 144.217 125.18 146.473 125.18 149.309C125.18 152.156 125.836 154.412 127.148 156.076C128.473 157.764 130.277 158.607 132.562 158.607C134.812 158.607 136.6 157.764 137.924 156.076C139.236 154.4 139.893 152.145 139.893 149.309C139.893 146.473 139.236 144.217 137.924 142.541C136.6 140.865 134.812 140.027 132.562 140.027ZM150.193 162V136.635H166.066V140.572H154.746V162H150.193ZM181.254 136.002C184.934 136.002 187.852 137.197 190.008 139.588C192.152 141.979 193.225 145.219 193.225 149.309C193.225 153.398 192.152 156.639 190.008 159.029C187.863 161.432 184.945 162.633 181.254 162.633C177.539 162.633 174.604 161.438 172.447 159.047C170.303 156.656 169.23 153.41 169.23 149.309C169.23 145.219 170.314 141.979 172.482 139.588C174.639 137.197 177.562 136.002 181.254 136.002ZM181.254 140.027C178.992 140.027 177.199 140.865 175.875 142.541C174.539 144.217 173.871 146.473 173.871 149.309C173.871 152.156 174.527 154.412 175.84 156.076C177.164 157.764 178.969 158.607 181.254 158.607C183.504 158.607 185.291 157.764 186.615 156.076C187.928 154.4 188.584 152.145 188.584 149.309C188.584 146.473 187.928 144.217 186.615 142.541C185.291 140.865 183.504 140.027 181.254 140.027ZM213.949 162V140.555H205.881L205.195 152.139C204.996 155.432 204.381 157.881 203.35 159.486C202.201 161.291 200.438 162.193 198.059 162.193C197.391 162.193 196.834 162.123 196.389 161.982V157.887C196.74 157.969 197.109 158.01 197.496 158.01C198.727 158.01 199.617 157.424 200.168 156.252C200.613 155.326 200.889 153.861 200.994 151.857L201.803 136.635H218.484V162H213.949ZM239.016 140.414H234.322C232.764 140.414 231.545 140.795 230.666 141.557C229.799 142.307 229.365 143.361 229.365 144.721C229.365 146.092 229.799 147.152 230.666 147.902C231.533 148.664 232.752 149.045 234.322 149.045H239.016V140.414ZM228.592 162H223.494L230.385 152.033C228.674 151.541 227.309 150.65 226.289 149.361C225.246 148.049 224.725 146.496 224.725 144.703C224.725 142.301 225.527 140.355 227.133 138.867C228.762 137.379 230.9 136.635 233.549 136.635H243.516V162H239.016V152.666H234.973L228.592 162Z" fill="white"/>
<path d="M528.571 290.5C524.236 289.712 521.479 288.924 517.93 287.741C514.38 286.559 512.402 284.774 511.227 283.012V283.012C507.797 277.866 507.43 271.305 507.292 265.123C507.287 264.916 507.285 264.705 507.285 264.488C507.287 260.547 507.287 260.547 507.285 257" stroke="#F5F5F5" stroke-width="5" stroke-linecap="round" stroke-linejoin="round"/>
<path d="M528.567 290.5C524.232 291.288 521.479 292.471 517.93 293.653C514.38 294.835 512.402 296.62 511.227 298.382V298.382C507.797 303.528 507.43 310.089 507.292 316.271C507.287 316.478 507.285 316.69 507.285 316.906C507.287 320.847 507.288 320.847 507.285 324.394" stroke="#F5F5F5" stroke-width="5" stroke-linecap="round" stroke-linejoin="round"/>
<path d="M485.999 290.5C490.335 289.712 493.091 288.924 496.64 287.741C500.19 286.559 502.168 284.774 503.343 283.012V283.012C506.773 277.866 507.14 271.305 507.278 265.123C507.283 264.916 507.285 264.705 507.285 264.488C507.283 260.547 507.283 260.547 507.285 257" stroke="#F5F5F5" stroke-width="5" stroke-linecap="round" stroke-linejoin="round"/>
<path d="M486.003 290.5C490.338 291.288 493.091 292.471 496.64 293.653C500.19 294.835 502.168 296.62 503.343 298.382V298.382C506.773 303.528 507.14 310.089 507.278 316.271C507.283 316.478 507.285 316.69 507.285 316.906C507.283 320.847 507.283 320.847 507.285 324.394" stroke="#F5F5F5" stroke-width="5" stroke-linecap="round" stroke-linejoin="round"/>
<defs>
<filter id="filter0_b" x="-20" y="-20" width="619" height="414" filterUnits="userSpaceOnUse" color-interpolation-filters="sRGB">
<feFlood flood-opacity="0" result="BackgroundImageFix"/>
<feGaussianBlur in="BackgroundImage" stdDeviation="10"/>
<feComposite in2="SourceAlpha" operator="in" result="effect1_backgroundBlur"/>
<feBlend mode="normal" in="SourceGraphic" in2="effect1_backgroundBlur" result="shape"/>
</filter>
</defs>
</svg>
