<svg width="579" height="723" viewBox="0 0 579 723" fill="none" xmlns="http://www.w3.org/2000/svg">
<g filter="url(#filter0_b)">
<rect width="579" height="723" rx="8" fill="#3E3A89"/>
</g>
<path d="M55.9746 76.6328C52.377 76.6328 49.5352 75.4434 47.4492 73.0645C45.3633 70.6738 44.3203 67.4277 44.3203 63.3262C44.3203 59.2012 45.3633 55.9492 47.4492 53.5703C49.5234 51.1914 52.3594 50.002 55.957 50.002C58.8398 50.002 61.2832 50.8516 63.2871 52.5508C65.291 54.2383 66.4277 56.4062 66.6973 59.0547H62.2324C61.916 57.5312 61.1895 56.3184 60.0527 55.416C58.916 54.502 57.5508 54.0449 55.957 54.0449C53.8008 54.0449 52.0957 54.877 50.8418 56.541C49.5879 58.1934 48.9609 60.4492 48.9609 63.3086C48.9609 66.168 49.5879 68.4297 50.8418 70.0938C52.0957 71.7578 53.8066 72.5898 55.9746 72.5898C57.5801 72.5898 58.9512 72.1738 60.0879 71.3418C61.2246 70.498 61.9453 69.3672 62.25 67.9492H66.7148C66.4102 70.5508 65.2793 72.6484 63.3223 74.2422C61.3418 75.8359 58.8926 76.6328 55.9746 76.6328ZM83.4844 50.002C87.1641 50.002 90.082 51.1973 92.2383 53.5879C94.3828 55.9785 95.4551 59.2188 95.4551 63.3086C95.4551 67.3984 94.3828 70.6387 92.2383 73.0293C90.0938 75.4316 87.1758 76.6328 83.4844 76.6328C79.7695 76.6328 76.834 75.4375 74.6777 73.0469C72.5332 70.6562 71.4609 67.4102 71.4609 63.3086C71.4609 59.2188 72.5449 55.9785 74.7129 53.5879C76.8691 51.1973 79.793 50.002 83.4844 50.002ZM83.4844 54.0273C81.2227 54.0273 79.4297 54.8652 78.1055 56.541C76.7695 58.2168 76.1016 60.4727 76.1016 63.3086C76.1016 66.1562 76.7578 68.4121 78.0703 70.0762C79.3945 71.7637 81.1992 72.6074 83.4844 72.6074C85.7344 72.6074 87.5215 71.7637 88.8457 70.0762C90.1582 68.4004 90.8145 66.1445 90.8145 63.3086C90.8145 60.4727 90.1582 58.2168 88.8457 56.541C87.5215 54.8652 85.7344 54.0273 83.4844 54.0273ZM101.115 76V50.6348H111.715C114.117 50.6348 116.004 51.2031 117.375 52.3398C118.746 53.4648 119.432 55.0059 119.432 56.9629C119.432 58.2988 118.998 59.4883 118.131 60.5312C117.264 61.5742 116.191 62.1953 114.914 62.3945V62.7109C116.625 62.875 118.014 63.5137 119.08 64.627C120.146 65.752 120.68 67.1406 120.68 68.793C120.68 71.0195 119.906 72.7773 118.359 74.0664C116.801 75.3555 114.668 76 111.961 76H101.115ZM105.65 61.3047H110.027C113.309 61.3047 114.949 60.127 114.949 57.7715C114.949 56.6582 114.568 55.791 113.807 55.1699C113.045 54.5488 111.979 54.2383 110.607 54.2383H105.65V61.3047ZM110.924 72.3965C114.334 72.3965 116.039 71.0781 116.039 68.4414C116.039 65.8633 114.275 64.5742 110.748 64.5742H105.65V72.3965H110.924ZM136.658 76.6328C133.061 76.6328 130.219 75.4434 128.133 73.0645C126.047 70.6738 125.004 67.4277 125.004 63.3262C125.004 59.2012 126.047 55.9492 128.133 53.5703C130.207 51.1914 133.043 50.002 136.641 50.002C139.523 50.002 141.967 50.8516 143.971 52.5508C145.975 54.2383 147.111 56.4062 147.381 59.0547H142.916C142.6 57.5312 141.873 56.3184 140.736 55.416C139.6 54.502 138.234 54.0449 136.641 54.0449C134.484 54.0449 132.779 54.877 131.525 56.541C130.271 58.1934 129.645 60.4492 129.645 63.3086C129.645 66.168 130.271 68.4297 131.525 70.0938C132.779 71.7578 134.49 72.5898 136.658 72.5898C138.264 72.5898 139.635 72.1738 140.771 71.3418C141.908 70.498 142.629 69.3672 142.934 67.9492H147.398C147.094 70.5508 145.963 72.6484 144.006 74.2422C142.025 75.8359 139.576 76.6328 136.658 76.6328ZM169.529 76H153.111V50.6348H169.529V54.5547H157.646V61.2871H168.879V64.9785H157.646V72.0801H169.529V76ZM175.506 76V50.6348H180.814L188.443 69.1094H188.76L196.389 50.6348H201.697V76H197.479V58.1582H197.232L190.219 75.0156H186.984L179.971 58.1582H179.725V76H175.506ZM228.592 76.6328C224.994 76.6328 222.152 75.4434 220.066 73.0645C217.98 70.6738 216.938 67.4277 216.938 63.3262C216.938 59.2012 217.98 55.9492 220.066 53.5703C222.141 51.1914 224.977 50.002 228.574 50.002C231.457 50.002 233.9 50.8516 235.904 52.5508C237.908 54.2383 239.045 56.4062 239.314 59.0547H234.85C234.533 57.5312 233.807 56.3184 232.67 55.416C231.533 54.502 230.168 54.0449 228.574 54.0449C226.418 54.0449 224.713 54.877 223.459 56.541C222.205 58.1934 221.578 60.4492 221.578 63.3086C221.578 66.168 222.205 68.4297 223.459 70.0938C224.713 71.7578 226.424 72.5898 228.592 72.5898C230.197 72.5898 231.568 72.1738 232.705 71.3418C233.842 70.498 234.562 69.3672 234.867 67.9492H239.332C239.027 70.5508 237.896 72.6484 235.939 74.2422C233.959 75.8359 231.51 76.6328 228.592 76.6328ZM250.354 61.5332L259.881 50.6348H265.084L254.203 62.9746L265.893 76H260.303L250.371 65.1367H249.58V76H245.045V50.6348H249.58V61.5332H250.354ZM280.148 50.002C283.828 50.002 286.746 51.1973 288.902 53.5879C291.047 55.9785 292.119 59.2188 292.119 63.3086C292.119 67.3984 291.047 70.6387 288.902 73.0293C286.758 75.4316 283.84 76.6328 280.148 76.6328C276.434 76.6328 273.498 75.4375 271.342 73.0469C269.197 70.6562 268.125 67.4102 268.125 63.3086C268.125 59.2188 269.209 55.9785 271.377 53.5879C273.533 51.1973 276.457 50.002 280.148 50.002ZM280.148 54.0273C277.887 54.0273 276.094 54.8652 274.77 56.541C273.434 58.2168 272.766 60.4727 272.766 63.3086C272.766 66.1562 273.422 68.4121 274.734 70.0762C276.059 71.7637 277.863 72.6074 280.148 72.6074C282.398 72.6074 284.186 71.7637 285.51 70.0762C286.822 68.4004 287.479 66.1445 287.479 63.3086C287.479 60.4727 286.822 58.2168 285.51 56.541C284.186 54.8652 282.398 54.0273 280.148 54.0273ZM308.01 50.6348C310.541 50.6348 312.598 51.4258 314.18 53.0078C315.75 54.5898 316.535 56.6582 316.535 59.2129C316.535 61.7207 315.727 63.7598 314.109 65.3301C312.48 66.9004 310.383 67.6855 307.816 67.6855H302.314V76H297.779V50.6348H308.01ZM302.314 63.9238H306.797C308.426 63.9238 309.686 63.5137 310.576 62.6934C311.479 61.873 311.93 60.7129 311.93 59.2129C311.93 57.666 311.484 56.4824 310.594 55.6621C309.715 54.8418 308.455 54.4316 306.814 54.4316H302.314V63.9238ZM332.953 50.002C336.633 50.002 339.551 51.1973 341.707 53.5879C343.852 55.9785 344.924 59.2188 344.924 63.3086C344.924 67.3984 343.852 70.6387 341.707 73.0293C339.562 75.4316 336.645 76.6328 332.953 76.6328C329.238 76.6328 326.303 75.4375 324.146 73.0469C322.002 70.6562 320.93 67.4102 320.93 63.3086C320.93 59.2188 322.014 55.9785 324.182 53.5879C326.338 51.1973 329.262 50.002 332.953 50.002ZM332.953 54.0273C330.691 54.0273 328.898 54.8652 327.574 56.541C326.238 58.2168 325.57 60.4727 325.57 63.3086C325.57 66.1562 326.227 68.4121 327.539 70.0762C328.863 71.7637 330.668 72.6074 332.953 72.6074C335.203 72.6074 336.99 71.7637 338.314 70.0762C339.627 68.4004 340.283 66.1445 340.283 63.3086C340.283 60.4727 339.627 58.2168 338.314 56.541C336.99 54.8652 335.203 54.0273 332.953 54.0273ZM45.2871 119V93.6348H55.8867C58.2891 93.6348 60.1758 94.2031 61.5469 95.3398C62.918 96.4648 63.6035 98.0059 63.6035 99.9629C63.6035 101.299 63.1699 102.488 62.3027 103.531C61.4355 104.574 60.3633 105.195 59.0859 105.395V105.711C60.7969 105.875 62.1855 106.514 63.252 107.627C64.3184 108.752 64.8516 110.141 64.8516 111.793C64.8516 114.02 64.0781 115.777 62.5312 117.066C60.9727 118.355 58.8398 119 56.1328 119H45.2871ZM49.8223 104.305H54.1992C57.4805 104.305 59.1211 103.127 59.1211 100.771C59.1211 99.6582 58.7402 98.791 57.9785 98.1699C57.2168 97.5488 56.1504 97.2383 54.7793 97.2383H49.8223V104.305ZM55.0957 115.396C58.5059 115.396 60.2109 114.078 60.2109 111.441C60.2109 108.863 58.4473 107.574 54.9199 107.574H49.8223V115.396H55.0957ZM91.9043 119V93.6348H96.4395V119H91.9043ZM70.2656 93.6348H74.8008V102.424H80.1797C82.7578 102.424 84.8555 103.186 86.4727 104.709C88.1016 106.244 88.916 108.242 88.916 110.703C88.916 113.176 88.125 115.18 86.543 116.715C84.9609 118.238 82.9043 119 80.373 119H70.2656V93.6348ZM79.1777 115.186C80.7949 115.186 82.0488 114.799 82.9395 114.025C83.8301 113.252 84.2754 112.145 84.2754 110.703C84.2754 109.262 83.8301 108.148 82.9395 107.363C82.0488 106.59 80.7891 106.203 79.1602 106.203H74.8008V115.186H79.1777ZM123.334 119.633C119.736 119.633 116.895 118.443 114.809 116.064C112.723 113.674 111.68 110.428 111.68 106.326C111.68 102.201 112.723 98.9492 114.809 96.5703C116.883 94.1914 119.719 93.002 123.316 93.002C126.199 93.002 128.643 93.8516 130.646 95.5508C132.65 97.2383 133.787 99.4062 134.057 102.055H129.592C129.275 100.531 128.549 99.3184 127.412 98.416C126.275 97.502 124.91 97.0449 123.316 97.0449C121.16 97.0449 119.455 97.877 118.201 99.541C116.947 101.193 116.32 103.449 116.32 106.309C116.32 109.168 116.947 111.43 118.201 113.094C119.455 114.758 121.166 115.59 123.334 115.59C124.939 115.59 126.311 115.174 127.447 114.342C128.584 113.498 129.305 112.367 129.609 110.949H134.074C133.77 113.551 132.639 115.648 130.682 117.242C128.701 118.836 126.252 119.633 123.334 119.633ZM145.043 119V97.5547H137.238V93.6348H157.4V97.5547H149.578V119H145.043ZM174.117 112.514H164.783L162.604 119H158.016L167.016 93.6348H172.113L181.131 119H176.262L174.117 112.514ZM165.838 108.928H173.062L169.617 98.4688H169.318L165.838 108.928ZM202.717 119V108.049H190.377V119H185.842V93.6348H190.377V104.129H202.717V93.6348H207.234V119H202.717ZM230.279 119H213.861V93.6348H230.279V97.5547H218.396V104.287H229.629V107.979H218.396V115.08H230.279V119ZM242.32 119V97.5547H234.516V93.6348H254.678V97.5547H246.855V119H242.32ZM276.193 119H259.775V93.6348H276.193V97.5547H264.311V104.287H275.543V107.979H264.311V115.08H276.193V119ZM45.2871 162V136.635H50.5957L58.2246 155.109H58.541L66.1699 136.635H71.4785V162H67.2598V144.158H67.0137L60 161.016H56.7656L49.752 144.158H49.5059V162H45.2871ZM81.2871 162.211C80.3848 162.211 79.7461 162.129 79.3711 161.965V158.08C79.8516 158.186 80.3496 158.238 80.8652 158.238C82.5527 158.238 83.8184 157.541 84.6621 156.146L76.1543 136.635H80.9531L86.9121 151.436H87.2109L92.9766 136.635H97.7227L89.9531 154.74C88.8281 157.342 87.7031 159.182 86.5781 160.26C85.207 161.561 83.4434 162.211 81.2871 162.211ZM112.646 136.635C115.178 136.635 117.234 137.426 118.816 139.008C120.387 140.59 121.172 142.658 121.172 145.213C121.172 147.721 120.363 149.76 118.746 151.33C117.117 152.9 115.02 153.686 112.453 153.686H106.951V162H102.416V136.635H112.646ZM106.951 149.924H111.434C113.062 149.924 114.322 149.514 115.213 148.693C116.115 147.873 116.566 146.713 116.566 145.213C116.566 143.666 116.121 142.482 115.23 141.662C114.352 140.842 113.092 140.432 111.451 140.432H106.951V149.924ZM138.328 155.514H128.994L126.814 162H122.227L131.227 136.635H136.324L145.342 162H140.473L138.328 155.514ZM130.049 151.928H137.273L133.828 141.469H133.529L130.049 151.928ZM150.053 162V136.635H160.652C163.055 136.635 164.941 137.203 166.312 138.34C167.684 139.465 168.369 141.006 168.369 142.963C168.369 144.299 167.936 145.488 167.068 146.531C166.201 147.574 165.129 148.195 163.852 148.395V148.711C165.562 148.875 166.951 149.514 168.018 150.627C169.084 151.752 169.617 153.141 169.617 154.793C169.617 157.02 168.844 158.777 167.297 160.066C165.738 161.355 163.605 162 160.898 162H150.053ZM154.588 147.305H158.965C162.246 147.305 163.887 146.127 163.887 143.771C163.887 142.658 163.506 141.791 162.744 141.17C161.982 140.549 160.916 140.238 159.545 140.238H154.588V147.305ZM159.861 158.396C163.271 158.396 164.977 157.078 164.977 154.441C164.977 151.863 163.213 150.574 159.686 150.574H154.588V158.396H159.861ZM174.908 136.635H179.443V145.424H184.822C187.4 145.424 189.498 146.186 191.115 147.709C192.744 149.244 193.559 151.242 193.559 153.703C193.559 156.176 192.768 158.18 191.186 159.715C189.604 161.238 187.547 162 185.016 162H174.908V136.635ZM183.82 158.186C185.438 158.186 186.691 157.799 187.582 157.025C188.473 156.252 188.918 155.145 188.918 153.703C188.918 152.262 188.473 151.148 187.582 150.363C186.691 149.59 185.432 149.203 183.803 149.203H179.443V158.186H183.82ZM215.83 143.965H215.531L203.279 162H198.885V136.635H203.402V154.705H203.701L215.936 136.635H220.33V162H215.83V143.965ZM226.975 136.635H231.51V158.08H239.438V136.635H243.955V158.08H251.883V136.635H256.418V162H226.975V136.635ZM268.354 147.533L277.881 136.635H283.084L272.203 148.975L283.893 162H278.303L268.371 151.137H267.58V162H263.045V136.635H267.58V147.533H268.354ZM298.148 136.002C301.828 136.002 304.746 137.197 306.902 139.588C309.047 141.979 310.119 145.219 310.119 149.309C310.119 153.398 309.047 156.639 306.902 159.029C304.758 161.432 301.84 162.633 298.148 162.633C294.434 162.633 291.498 161.438 289.342 159.047C287.197 156.656 286.125 153.41 286.125 149.309C286.125 145.219 287.209 141.979 289.377 139.588C291.533 137.197 294.457 136.002 298.148 136.002ZM298.148 140.027C295.887 140.027 294.094 140.865 292.77 142.541C291.434 144.217 290.766 146.473 290.766 149.309C290.766 152.156 291.422 154.412 292.734 156.076C294.059 157.764 295.863 158.607 298.148 158.607C300.398 158.607 302.186 157.764 303.51 156.076C304.822 154.4 305.479 152.145 305.479 149.309C305.479 146.473 304.822 144.217 303.51 142.541C302.186 140.865 300.398 140.027 298.148 140.027ZM323.373 128.584C323.385 129.463 323.672 130.166 324.234 130.693C324.785 131.221 325.488 131.484 326.344 131.484C327.211 131.484 327.926 131.221 328.488 130.693C329.051 130.166 329.338 129.463 329.35 128.584H332.777C332.777 130.271 332.191 131.613 331.02 132.609C329.848 133.605 328.289 134.104 326.344 134.104C324.41 134.104 322.863 133.605 321.703 132.609C320.531 131.613 319.945 130.271 319.945 128.584H323.373ZM332.725 143.965H332.426L320.174 162H315.779V136.635H320.297V154.705H320.596L332.83 136.635H337.225V162H332.725V143.965Z" fill="white"/>
<path d="M536.571 655.5C532.236 654.712 529.479 653.924 525.93 652.741C522.38 651.559 520.402 649.774 519.227 648.012V648.012C515.797 642.866 515.43 636.305 515.292 630.123C515.287 629.916 515.285 629.705 515.285 629.488C515.287 625.547 515.287 625.547 515.285 622" stroke="#F5F5F5" stroke-width="5" stroke-linecap="round" stroke-linejoin="round"/>
<path d="M536.567 655.5C532.232 656.288 529.479 657.471 525.93 658.653C522.38 659.835 520.402 661.62 519.227 663.382V663.382C515.797 668.528 515.43 675.089 515.292 681.271C515.287 681.478 515.285 681.69 515.285 681.906C515.287 685.847 515.288 685.847 515.285 689.394" stroke="#F5F5F5" stroke-width="5" stroke-linecap="round" stroke-linejoin="round"/>
<path d="M493.999 655.5C498.335 654.712 501.091 653.924 504.64 652.741C508.19 651.559 510.168 649.774 511.343 648.012V648.012C514.773 642.866 515.14 636.305 515.278 630.123C515.283 629.916 515.285 629.705 515.285 629.488C515.283 625.547 515.283 625.547 515.285 622" stroke="#F5F5F5" stroke-width="5" stroke-linecap="round" stroke-linejoin="round"/>
<path d="M494.003 655.5C498.338 656.288 501.091 657.471 504.64 658.653C508.19 659.835 510.168 661.62 511.343 663.382V663.382C514.773 668.528 515.14 675.089 515.278 681.271C515.283 681.478 515.285 681.69 515.285 681.906C515.283 685.847 515.283 685.847 515.285 689.394" stroke="#F5F5F5" stroke-width="5" stroke-linecap="round" stroke-linejoin="round"/>
<path d="M536.571 493.5C532.236 492.712 529.479 491.924 525.93 490.741C522.38 489.559 520.402 487.774 519.227 486.012V486.012C515.797 480.866 515.43 474.305 515.292 468.123C515.287 467.916 515.285 467.705 515.285 467.488C515.287 463.547 515.287 463.547 515.285 460" stroke="#F5F5F5" stroke-width="5" stroke-linecap="round" stroke-linejoin="round"/>
<path d="M536.567 493.5C532.232 494.288 529.479 495.471 525.93 496.653C522.38 497.835 520.402 499.62 519.227 501.382V501.382C515.797 506.528 515.43 513.089 515.292 519.271C515.287 519.478 515.285 519.69 515.285 519.906C515.287 523.847 515.288 523.847 515.285 527.394" stroke="#F5F5F5" stroke-width="5" stroke-linecap="round" stroke-linejoin="round"/>
<path d="M493.999 493.5C498.335 492.712 501.091 491.924 504.64 490.741C508.19 489.559 510.168 487.774 511.343 486.012V486.012C514.773 480.866 515.14 474.305 515.278 468.123C515.283 467.916 515.285 467.705 515.285 467.488C515.283 463.547 515.283 463.547 515.285 460" stroke="#F5F5F5" stroke-width="5" stroke-linecap="round" stroke-linejoin="round"/>
<path d="M494.003 493.5C498.338 494.288 501.091 495.471 504.64 496.653C508.19 497.835 510.168 499.62 511.343 501.382V501.382C514.773 506.528 515.14 513.089 515.278 519.271C515.283 519.478 515.285 519.69 515.285 519.906C515.283 523.847 515.283 523.847 515.285 527.394" stroke="#F5F5F5" stroke-width="5" stroke-linecap="round" stroke-linejoin="round"/>
<path d="M374.571 655.5C370.236 654.712 367.479 653.924 363.93 652.741C360.38 651.559 358.402 649.774 357.227 648.012V648.012C353.797 642.866 353.43 636.305 353.292 630.123C353.287 629.916 353.285 629.705 353.285 629.488C353.287 625.547 353.287 625.547 353.285 622" stroke="#F5F5F5" stroke-width="5" stroke-linecap="round" stroke-linejoin="round"/>
<path d="M374.567 655.5C370.232 656.288 367.479 657.471 363.93 658.653C360.38 659.835 358.402 661.62 357.227 663.382V663.382C353.797 668.528 353.43 675.089 353.292 681.271C353.287 681.478 353.285 681.69 353.285 681.906C353.287 685.847 353.288 685.847 353.285 689.394" stroke="#F5F5F5" stroke-width="5" stroke-linecap="round" stroke-linejoin="round"/>
<path d="M331.999 655.5C336.335 654.712 339.091 653.924 342.64 652.741C346.19 651.559 348.168 649.774 349.343 648.012V648.012C352.773 642.866 353.14 636.305 353.278 630.123C353.283 629.916 353.285 629.705 353.285 629.488C353.283 625.547 353.283 625.547 353.285 622" stroke="#F5F5F5" stroke-width="5" stroke-linecap="round" stroke-linejoin="round"/>
<path d="M332.003 655.5C336.338 656.288 339.091 657.471 342.64 658.653C346.19 659.835 348.168 661.62 349.343 663.382V663.382C352.773 668.528 353.14 675.089 353.278 681.271C353.283 681.478 353.285 681.69 353.285 681.906C353.283 685.847 353.283 685.847 353.285 689.394" stroke="#F5F5F5" stroke-width="5" stroke-linecap="round" stroke-linejoin="round"/>
<defs>
<filter id="filter0_b" x="-20" y="-20" width="619" height="763" filterUnits="userSpaceOnUse" color-interpolation-filters="sRGB">
<feFlood flood-opacity="0" result="BackgroundImageFix"/>
<feGaussianBlur in="BackgroundImage" stdDeviation="10"/>
<feComposite in2="SourceAlpha" operator="in" result="effect1_backgroundBlur"/>
<feBlend mode="normal" in="SourceGraphic" in2="effect1_backgroundBlur" result="shape"/>
</filter>
</defs>
</svg>
