<svg width="579" height="373" viewBox="0 0 579 373" fill="none" xmlns="http://www.w3.org/2000/svg">
<g filter="url(#filter0_b)">
<rect width="579" height="373" rx="8" fill="#3E3A89"/>
</g>
<path d="M56.9746 75.6328C53.377 75.6328 50.5352 74.4434 48.4492 72.0645C46.3633 69.6738 45.3203 66.4277 45.3203 62.3262C45.3203 58.2012 46.3633 54.9492 48.4492 52.5703C50.5234 50.1914 53.3594 49.002 56.957 49.002C59.8398 49.002 62.2832 49.8516 64.2871 51.5508C66.291 53.2383 67.4277 55.4062 67.6973 58.0547H63.2324C62.916 56.5312 62.1895 55.3184 61.0527 54.416C59.916 53.502 58.5508 53.0449 56.957 53.0449C54.8008 53.0449 53.0957 53.877 51.8418 55.541C50.5879 57.1934 49.9609 59.4492 49.9609 62.3086C49.9609 65.168 50.5879 67.4297 51.8418 69.0938C53.0957 70.7578 54.8066 71.5898 56.9746 71.5898C58.5801 71.5898 59.9512 71.1738 61.0879 70.3418C62.2246 69.498 62.9453 68.3672 63.25 66.9492H67.7148C67.4102 69.5508 66.2793 71.6484 64.3223 73.2422C62.3418 74.8359 59.8926 75.6328 56.9746 75.6328ZM84.4844 49.002C88.1641 49.002 91.082 50.1973 93.2383 52.5879C95.3828 54.9785 96.4551 58.2188 96.4551 62.3086C96.4551 66.3984 95.3828 69.6387 93.2383 72.0293C91.0938 74.4316 88.1758 75.6328 84.4844 75.6328C80.7695 75.6328 77.834 74.4375 75.6777 72.0469C73.5332 69.6562 72.4609 66.4102 72.4609 62.3086C72.4609 58.2188 73.5449 54.9785 75.7129 52.5879C77.8691 50.1973 80.793 49.002 84.4844 49.002ZM84.4844 53.0273C82.2227 53.0273 80.4297 53.8652 79.1055 55.541C77.7695 57.2168 77.1016 59.4727 77.1016 62.3086C77.1016 65.1562 77.7578 67.4121 79.0703 69.0762C80.3945 70.7637 82.1992 71.6074 84.4844 71.6074C86.7344 71.6074 88.5215 70.7637 89.8457 69.0762C91.1582 67.4004 91.8145 65.1445 91.8145 62.3086C91.8145 59.4727 91.1582 57.2168 89.8457 55.541C88.5215 53.8652 86.7344 53.0273 84.4844 53.0273ZM102.115 75V49.6348H112.715C115.117 49.6348 117.004 50.2031 118.375 51.3398C119.746 52.4648 120.432 54.0059 120.432 55.9629C120.432 57.2988 119.998 58.4883 119.131 59.5312C118.264 60.5742 117.191 61.1953 115.914 61.3945V61.7109C117.625 61.875 119.014 62.5137 120.08 63.627C121.146 64.752 121.68 66.1406 121.68 67.793C121.68 70.0195 120.906 71.7773 119.359 73.0664C117.801 74.3555 115.668 75 112.961 75H102.115ZM106.65 60.3047H111.027C114.309 60.3047 115.949 59.127 115.949 56.7715C115.949 55.6582 115.568 54.791 114.807 54.1699C114.045 53.5488 112.979 53.2383 111.607 53.2383H106.65V60.3047ZM111.924 71.3965C115.334 71.3965 117.039 70.0781 117.039 67.4414C117.039 64.8633 115.275 63.5742 111.748 63.5742H106.65V71.3965H111.924ZM137.658 75.6328C134.061 75.6328 131.219 74.4434 129.133 72.0645C127.047 69.6738 126.004 66.4277 126.004 62.3262C126.004 58.2012 127.047 54.9492 129.133 52.5703C131.207 50.1914 134.043 49.002 137.641 49.002C140.523 49.002 142.967 49.8516 144.971 51.5508C146.975 53.2383 148.111 55.4062 148.381 58.0547H143.916C143.6 56.5312 142.873 55.3184 141.736 54.416C140.6 53.502 139.234 53.0449 137.641 53.0449C135.484 53.0449 133.779 53.877 132.525 55.541C131.271 57.1934 130.645 59.4492 130.645 62.3086C130.645 65.168 131.271 67.4297 132.525 69.0938C133.779 70.7578 135.49 71.5898 137.658 71.5898C139.264 71.5898 140.635 71.1738 141.771 70.3418C142.908 69.498 143.629 68.3672 143.934 66.9492H148.398C148.094 69.5508 146.963 71.6484 145.006 73.2422C143.025 74.8359 140.576 75.6328 137.658 75.6328ZM170.529 75H154.111V49.6348H170.529V53.5547H158.646V60.2871H169.879V63.9785H158.646V71.0801H170.529V75ZM176.506 75V49.6348H181.814L189.443 68.1094H189.76L197.389 49.6348H202.697V75H198.479V57.1582H198.232L191.219 74.0156H187.984L180.971 57.1582H180.725V75H176.506ZM229.592 75.6328C225.994 75.6328 223.152 74.4434 221.066 72.0645C218.98 69.6738 217.938 66.4277 217.938 62.3262C217.938 58.2012 218.98 54.9492 221.066 52.5703C223.141 50.1914 225.977 49.002 229.574 49.002C232.457 49.002 234.9 49.8516 236.904 51.5508C238.908 53.2383 240.045 55.4062 240.314 58.0547H235.85C235.533 56.5312 234.807 55.3184 233.67 54.416C232.533 53.502 231.168 53.0449 229.574 53.0449C227.418 53.0449 225.713 53.877 224.459 55.541C223.205 57.1934 222.578 59.4492 222.578 62.3086C222.578 65.168 223.205 67.4297 224.459 69.0938C225.713 70.7578 227.424 71.5898 229.592 71.5898C231.197 71.5898 232.568 71.1738 233.705 70.3418C234.842 69.498 235.562 68.3672 235.867 66.9492H240.332C240.027 69.5508 238.896 71.6484 236.939 73.2422C234.959 74.8359 232.51 75.6328 229.592 75.6328ZM251.354 60.5332L260.881 49.6348H266.084L255.203 61.9746L266.893 75H261.303L251.371 64.1367H250.58V75H246.045V49.6348H250.58V60.5332H251.354ZM281.148 49.002C284.828 49.002 287.746 50.1973 289.902 52.5879C292.047 54.9785 293.119 58.2188 293.119 62.3086C293.119 66.3984 292.047 69.6387 289.902 72.0293C287.758 74.4316 284.84 75.6328 281.148 75.6328C277.434 75.6328 274.498 74.4375 272.342 72.0469C270.197 69.6562 269.125 66.4102 269.125 62.3086C269.125 58.2188 270.209 54.9785 272.377 52.5879C274.533 50.1973 277.457 49.002 281.148 49.002ZM281.148 53.0273C278.887 53.0273 277.094 53.8652 275.77 55.541C274.434 57.2168 273.766 59.4727 273.766 62.3086C273.766 65.1562 274.422 67.4121 275.734 69.0762C277.059 70.7637 278.863 71.6074 281.148 71.6074C283.398 71.6074 285.186 70.7637 286.51 69.0762C287.822 67.4004 288.479 65.1445 288.479 62.3086C288.479 59.4727 287.822 57.2168 286.51 55.541C285.186 53.8652 283.398 53.0273 281.148 53.0273ZM309.01 49.6348C311.541 49.6348 313.598 50.4258 315.18 52.0078C316.75 53.5898 317.535 55.6582 317.535 58.2129C317.535 60.7207 316.727 62.7598 315.109 64.3301C313.48 65.9004 311.383 66.6855 308.816 66.6855H303.314V75H298.779V49.6348H309.01ZM303.314 62.9238H307.797C309.426 62.9238 310.686 62.5137 311.576 61.6934C312.479 60.873 312.93 59.7129 312.93 58.2129C312.93 56.666 312.484 55.4824 311.594 54.6621C310.715 53.8418 309.455 53.4316 307.814 53.4316H303.314V62.9238ZM333.953 49.002C337.633 49.002 340.551 50.1973 342.707 52.5879C344.852 54.9785 345.924 58.2188 345.924 62.3086C345.924 66.3984 344.852 69.6387 342.707 72.0293C340.562 74.4316 337.645 75.6328 333.953 75.6328C330.238 75.6328 327.303 74.4375 325.146 72.0469C323.002 69.6562 321.93 66.4102 321.93 62.3086C321.93 58.2188 323.014 54.9785 325.182 52.5879C327.338 50.1973 330.262 49.002 333.953 49.002ZM333.953 53.0273C331.691 53.0273 329.898 53.8652 328.574 55.541C327.238 57.2168 326.57 59.4727 326.57 62.3086C326.57 65.1562 327.227 67.4121 328.539 69.0762C329.863 70.7637 331.668 71.6074 333.953 71.6074C336.203 71.6074 337.99 70.7637 339.314 69.0762C340.627 67.4004 341.283 65.1445 341.283 62.3086C341.283 59.4727 340.627 57.2168 339.314 55.541C337.99 53.8652 336.203 53.0273 333.953 53.0273ZM46.2871 118V92.6348H56.8867C59.2891 92.6348 61.1758 93.2031 62.5469 94.3398C63.918 95.4648 64.6035 97.0059 64.6035 98.9629C64.6035 100.299 64.1699 101.488 63.3027 102.531C62.4355 103.574 61.3633 104.195 60.0859 104.395V104.711C61.7969 104.875 63.1855 105.514 64.252 106.627C65.3184 107.752 65.8516 109.141 65.8516 110.793C65.8516 113.02 65.0781 114.777 63.5312 116.066C61.9727 117.355 59.8398 118 57.1328 118H46.2871ZM50.8223 103.305H55.1992C58.4805 103.305 60.1211 102.127 60.1211 99.7715C60.1211 98.6582 59.7402 97.791 58.9785 97.1699C58.2168 96.5488 57.1504 96.2383 55.7793 96.2383H50.8223V103.305ZM56.0957 114.396C59.5059 114.396 61.2109 113.078 61.2109 110.441C61.2109 107.863 59.4473 106.574 55.9199 106.574H50.8223V114.396H56.0957ZM92.9043 118V92.6348H97.4395V118H92.9043ZM71.2656 92.6348H75.8008V101.424H81.1797C83.7578 101.424 85.8555 102.186 87.4727 103.709C89.1016 105.244 89.916 107.242 89.916 109.703C89.916 112.176 89.125 114.18 87.543 115.715C85.9609 117.238 83.9043 118 81.373 118H71.2656V92.6348ZM80.1777 114.186C81.7949 114.186 83.0488 113.799 83.9395 113.025C84.8301 112.252 85.2754 111.145 85.2754 109.703C85.2754 108.262 84.8301 107.148 83.9395 106.363C83.0488 105.59 81.7891 105.203 80.1602 105.203H75.8008V114.186H80.1777ZM124.334 118.633C120.736 118.633 117.895 117.443 115.809 115.064C113.723 112.674 112.68 109.428 112.68 105.326C112.68 101.201 113.723 97.9492 115.809 95.5703C117.883 93.1914 120.719 92.002 124.316 92.002C127.199 92.002 129.643 92.8516 131.646 94.5508C133.65 96.2383 134.787 98.4062 135.057 101.055H130.592C130.275 99.5312 129.549 98.3184 128.412 97.416C127.275 96.502 125.91 96.0449 124.316 96.0449C122.16 96.0449 120.455 96.877 119.201 98.541C117.947 100.193 117.32 102.449 117.32 105.309C117.32 108.168 117.947 110.43 119.201 112.094C120.455 113.758 122.166 114.59 124.334 114.59C125.939 114.59 127.311 114.174 128.447 113.342C129.584 112.498 130.305 111.367 130.609 109.949H135.074C134.77 112.551 133.639 114.648 131.682 116.242C129.701 117.836 127.252 118.633 124.334 118.633ZM146.043 118V96.5547H138.238V92.6348H158.4V96.5547H150.578V118H146.043ZM175.117 111.514H165.783L163.604 118H159.016L168.016 92.6348H173.113L182.131 118H177.262L175.117 111.514ZM166.838 107.928H174.062L170.617 97.4688H170.318L166.838 107.928ZM203.717 118V107.049H191.377V118H186.842V92.6348H191.377V103.129H203.717V92.6348H208.234V118H203.717ZM231.279 118H214.861V92.6348H231.279V96.5547H219.396V103.287H230.629V106.979H219.396V114.08H231.279V118ZM243.32 118V96.5547H235.516V92.6348H255.678V96.5547H247.855V118H243.32ZM277.193 118H260.775V92.6348H277.193V96.5547H265.311V103.287H276.543V106.979H265.311V114.08H277.193V118ZM46.2871 161V135.635H51.5957L59.2246 154.109H59.541L67.1699 135.635H72.4785V161H68.2598V143.158H68.0137L61 160.016H57.7656L50.752 143.158H50.5059V161H46.2871ZM82.2871 161.211C81.3848 161.211 80.7461 161.129 80.3711 160.965V157.08C80.8516 157.186 81.3496 157.238 81.8652 157.238C83.5527 157.238 84.8184 156.541 85.6621 155.146L77.1543 135.635H81.9531L87.9121 150.436H88.2109L93.9766 135.635H98.7227L90.9531 153.74C89.8281 156.342 88.7031 158.182 87.5781 159.26C86.207 160.561 84.4434 161.211 82.2871 161.211ZM113.646 135.635C116.178 135.635 118.234 136.426 119.816 138.008C121.387 139.59 122.172 141.658 122.172 144.213C122.172 146.721 121.363 148.76 119.746 150.33C118.117 151.9 116.02 152.686 113.453 152.686H107.951V161H103.416V135.635H113.646ZM107.951 148.924H112.434C114.062 148.924 115.322 148.514 116.213 147.693C117.115 146.873 117.566 145.713 117.566 144.213C117.566 142.666 117.121 141.482 116.23 140.662C115.352 139.842 114.092 139.432 112.451 139.432H107.951V148.924ZM139.328 154.514H129.994L127.814 161H123.227L132.227 135.635H137.324L146.342 161H141.473L139.328 154.514ZM131.049 150.928H138.273L134.828 140.469H134.529L131.049 150.928ZM151.053 161V135.635H161.652C164.055 135.635 165.941 136.203 167.312 137.34C168.684 138.465 169.369 140.006 169.369 141.963C169.369 143.299 168.936 144.488 168.068 145.531C167.201 146.574 166.129 147.195 164.852 147.395V147.711C166.562 147.875 167.951 148.514 169.018 149.627C170.084 150.752 170.617 152.141 170.617 153.793C170.617 156.02 169.844 157.777 168.297 159.066C166.738 160.355 164.605 161 161.898 161H151.053ZM155.588 146.305H159.965C163.246 146.305 164.887 145.127 164.887 142.771C164.887 141.658 164.506 140.791 163.744 140.17C162.982 139.549 161.916 139.238 160.545 139.238H155.588V146.305ZM160.861 157.396C164.271 157.396 165.977 156.078 165.977 153.441C165.977 150.863 164.213 149.574 160.686 149.574H155.588V157.396H160.861ZM175.908 135.635H180.443V144.424H185.822C188.4 144.424 190.498 145.186 192.115 146.709C193.744 148.244 194.559 150.242 194.559 152.703C194.559 155.176 193.768 157.18 192.186 158.715C190.604 160.238 188.547 161 186.016 161H175.908V135.635ZM184.82 157.186C186.438 157.186 187.691 156.799 188.582 156.025C189.473 155.252 189.918 154.145 189.918 152.703C189.918 151.262 189.473 150.148 188.582 149.363C187.691 148.59 186.432 148.203 184.803 148.203H180.443V157.186H184.82ZM216.83 142.965H216.531L204.279 161H199.885V135.635H204.402V153.705H204.701L216.936 135.635H221.33V161H216.83V142.965ZM227.975 135.635H232.51V157.08H240.438V135.635H244.955V157.08H252.883V135.635H257.418V161H227.975V135.635ZM269.354 146.533L278.881 135.635H284.084L273.203 147.975L284.893 161H279.303L269.371 150.137H268.58V161H264.045V135.635H268.58V146.533H269.354ZM299.148 135.002C302.828 135.002 305.746 136.197 307.902 138.588C310.047 140.979 311.119 144.219 311.119 148.309C311.119 152.398 310.047 155.639 307.902 158.029C305.758 160.432 302.84 161.633 299.148 161.633C295.434 161.633 292.498 160.438 290.342 158.047C288.197 155.656 287.125 152.41 287.125 148.309C287.125 144.219 288.209 140.979 290.377 138.588C292.533 136.197 295.457 135.002 299.148 135.002ZM299.148 139.027C296.887 139.027 295.094 139.865 293.77 141.541C292.434 143.217 291.766 145.473 291.766 148.309C291.766 151.156 292.422 153.412 293.734 155.076C295.059 156.764 296.863 157.607 299.148 157.607C301.398 157.607 303.186 156.764 304.51 155.076C305.822 153.4 306.479 151.145 306.479 148.309C306.479 145.473 305.822 143.217 304.51 141.541C303.186 139.865 301.398 139.027 299.148 139.027ZM324.373 127.584C324.385 128.463 324.672 129.166 325.234 129.693C325.785 130.221 326.488 130.484 327.344 130.484C328.211 130.484 328.926 130.221 329.488 129.693C330.051 129.166 330.338 128.463 330.35 127.584H333.777C333.777 129.271 333.191 130.613 332.02 131.609C330.848 132.605 329.289 133.104 327.344 133.104C325.41 133.104 323.863 132.605 322.703 131.609C321.531 130.613 320.945 129.271 320.945 127.584H324.373ZM333.725 142.965H333.426L321.174 161H316.779V135.635H321.297V153.705H321.596L333.83 135.635H338.225V161H333.725V142.965Z" fill="white"/>
<path d="M539.571 301.5C535.236 300.712 532.479 299.924 528.93 298.741C525.38 297.559 523.402 295.774 522.227 294.012V294.012C518.797 288.866 518.43 282.305 518.292 276.123C518.287 275.916 518.285 275.705 518.285 275.488C518.287 271.547 518.287 271.547 518.285 268" stroke="#F5F5F5" stroke-width="5" stroke-linecap="round" stroke-linejoin="round"/>
<path d="M539.567 301.5C535.232 302.288 532.479 303.471 528.93 304.653C525.38 305.835 523.402 307.62 522.227 309.382V309.382C518.797 314.528 518.43 321.089 518.292 327.271C518.287 327.478 518.285 327.69 518.285 327.906C518.287 331.847 518.288 331.847 518.285 335.394" stroke="#F5F5F5" stroke-width="5" stroke-linecap="round" stroke-linejoin="round"/>
<path d="M496.999 301.5C501.335 300.712 504.091 299.924 507.64 298.741C511.19 297.559 513.168 295.774 514.343 294.012V294.012C517.773 288.866 518.14 282.305 518.278 276.123C518.283 275.916 518.285 275.705 518.285 275.488C518.283 271.547 518.283 271.547 518.285 268" stroke="#F5F5F5" stroke-width="5" stroke-linecap="round" stroke-linejoin="round"/>
<path d="M497.003 301.5C501.338 302.288 504.091 303.471 507.64 304.653C511.19 305.835 513.168 307.62 514.343 309.382V309.382C517.773 314.528 518.14 321.089 518.278 327.271C518.283 327.478 518.285 327.69 518.285 327.906C518.283 331.847 518.283 331.847 518.285 335.394" stroke="#F5F5F5" stroke-width="5" stroke-linecap="round" stroke-linejoin="round"/>
<defs>
<filter id="filter0_b" x="-20" y="-20" width="619" height="413" filterUnits="userSpaceOnUse" color-interpolation-filters="sRGB">
<feFlood flood-opacity="0" result="BackgroundImageFix"/>
<feGaussianBlur in="BackgroundImage" stdDeviation="10"/>
<feComposite in2="SourceAlpha" operator="in" result="effect1_backgroundBlur"/>
<feBlend mode="normal" in="SourceGraphic" in2="effect1_backgroundBlur" result="shape"/>
</filter>
</defs>
</svg>
