<svg width="579" height="723" viewBox="0 0 579 723" fill="none" xmlns="http://www.w3.org/2000/svg">
<g filter="url(#filter0_b)">
<rect width="579" height="723" rx="8" fill="white"/>
</g>
<path d="M55.9746 76.6328C52.377 76.6328 49.5352 75.4434 47.4492 73.0645C45.3633 70.6738 44.3203 67.4277 44.3203 63.3262C44.3203 59.2012 45.3633 55.9492 47.4492 53.5703C49.5234 51.1914 52.3594 50.002 55.957 50.002C58.8398 50.002 61.2832 50.8516 63.2871 52.5508C65.291 54.2383 66.4277 56.4062 66.6973 59.0547H62.2324C61.916 57.5312 61.1895 56.3184 60.0527 55.416C58.916 54.502 57.5508 54.0449 55.957 54.0449C53.8008 54.0449 52.0957 54.877 50.8418 56.541C49.5879 58.1934 48.9609 60.4492 48.9609 63.3086C48.9609 66.168 49.5879 68.4297 50.8418 70.0938C52.0957 71.7578 53.8066 72.5898 55.9746 72.5898C57.5801 72.5898 58.9512 72.1738 60.0879 71.3418C61.2246 70.498 61.9453 69.3672 62.25 67.9492H66.7148C66.4102 70.5508 65.2793 72.6484 63.3223 74.2422C61.3418 75.8359 58.8926 76.6328 55.9746 76.6328ZM89.0039 76V54.5723H76.9805V76H72.4277V50.6348H93.5215V76H89.0039ZM114.352 69.5137H105.018L102.838 76H98.25L107.25 50.6348H112.348L121.365 76H116.496L114.352 69.5137ZM106.072 65.9277H113.297L109.852 55.4688H109.553L106.072 65.9277ZM135.639 76.6328C132.041 76.6328 129.199 75.4434 127.113 73.0645C125.027 70.6738 123.984 67.4277 123.984 63.3262C123.984 59.2012 125.027 55.9492 127.113 53.5703C129.188 51.1914 132.023 50.002 135.621 50.002C138.504 50.002 140.947 50.8516 142.951 52.5508C144.955 54.2383 146.092 56.4062 146.361 59.0547H141.896C141.58 57.5312 140.854 56.3184 139.717 55.416C138.58 54.502 137.215 54.0449 135.621 54.0449C133.465 54.0449 131.76 54.877 130.506 56.541C129.252 58.1934 128.625 60.4492 128.625 63.3086C128.625 66.168 129.252 68.4297 130.506 70.0938C131.76 71.7578 133.471 72.5898 135.639 72.5898C137.244 72.5898 138.615 72.1738 139.752 71.3418C140.889 70.498 141.609 69.3672 141.914 67.9492H146.379C146.074 70.5508 144.943 72.6484 142.986 74.2422C141.006 75.8359 138.557 76.6328 135.639 76.6328ZM169.037 57.9648H168.738L156.486 76H152.092V50.6348H156.609V68.7051H156.908L169.143 50.6348H173.537V76H169.037V57.9648ZM198.709 68.125C198.709 70.4688 197.918 72.3672 196.336 73.8203C194.754 75.2734 192.697 76 190.166 76H180.182V50.6348H196.301V54.5547H184.717V60.3379H190.025C192.592 60.3379 194.678 61.0527 196.283 62.4824C197.9 63.9355 198.709 65.8164 198.709 68.125ZM189.023 72.1855C190.629 72.1855 191.871 71.834 192.75 71.1309C193.629 70.4277 194.068 69.4258 194.068 68.125C194.068 66.8008 193.629 65.7871 192.75 65.084C191.871 64.3809 190.623 64.0293 189.006 64.0293H184.717V72.1855H189.023ZM215.145 50.002C218.824 50.002 221.742 51.1973 223.898 53.5879C226.043 55.9785 227.115 59.2188 227.115 63.3086C227.115 67.3984 226.043 70.6387 223.898 73.0293C221.754 75.4316 218.836 76.6328 215.145 76.6328C211.43 76.6328 208.494 75.4375 206.338 73.0469C204.193 70.6562 203.121 67.4102 203.121 63.3086C203.121 59.2188 204.205 55.9785 206.373 53.5879C208.529 51.1973 211.453 50.002 215.145 50.002ZM215.145 54.0273C212.883 54.0273 211.09 54.8652 209.766 56.541C208.43 58.2168 207.762 60.4727 207.762 63.3086C207.762 66.1562 208.418 68.4121 209.73 70.0762C211.055 71.7637 212.859 72.6074 215.145 72.6074C217.395 72.6074 219.182 71.7637 220.506 70.0762C221.818 68.4004 222.475 66.1445 222.475 63.3086C222.475 60.4727 221.818 58.2168 220.506 56.541C219.182 54.8652 217.395 54.0273 215.145 54.0273ZM49.998 104.234H53.3906C54.7266 104.234 55.8105 103.877 56.6426 103.162C57.4746 102.459 57.8906 101.539 57.8906 100.402C57.8906 99.2773 57.498 98.3867 56.7129 97.7305C55.9043 97.0625 54.7969 96.7285 53.3906 96.7285C51.9844 96.7285 50.8477 97.0742 49.9805 97.7656C49.125 98.4453 48.6504 99.377 48.5566 100.561H44.3027C44.4199 98.2402 45.2988 96.4004 46.9395 95.041C48.5918 93.6816 50.7891 93.002 53.5312 93.002C56.1094 93.002 58.2129 93.6348 59.8418 94.9004C61.4824 96.1777 62.3027 97.8301 62.3027 99.8574C62.3027 101.264 61.875 102.5 61.0195 103.566C60.1523 104.645 59.0332 105.336 57.6621 105.641V105.939C59.3496 106.115 60.709 106.736 61.7402 107.803C62.7949 108.916 63.3223 110.328 63.3223 112.039C63.3223 114.23 62.3906 116.047 60.5273 117.488C58.6641 118.918 56.3379 119.633 53.5488 119.633C50.7246 119.633 48.4277 118.936 46.6582 117.541C44.877 116.135 43.9277 114.277 43.8105 111.969H48.1699C48.2637 113.129 48.7969 114.055 49.7695 114.746C50.7422 115.438 52.0078 115.783 53.5664 115.783C55.1016 115.783 56.3379 115.408 57.2754 114.658C58.2012 113.92 58.6641 112.953 58.6641 111.758C58.6641 110.574 58.2129 109.648 57.3105 108.98C56.3848 108.301 55.1016 107.961 53.4609 107.961H49.998V104.234ZM82.7812 112.514H73.4473L71.2676 119H66.6797L75.6797 93.6348H80.7773L89.7949 119H84.9258L82.7812 112.514ZM74.502 108.928H81.7266L78.2812 98.4688H77.9824L74.502 108.928ZM115.16 93.002C118.84 93.002 121.758 94.1973 123.914 96.5879C126.059 98.9785 127.131 102.219 127.131 106.309C127.131 110.398 126.059 113.639 123.914 116.029C121.77 118.432 118.852 119.633 115.16 119.633C111.445 119.633 108.51 118.438 106.354 116.047C104.209 113.656 103.137 110.41 103.137 106.309C103.137 102.219 104.221 98.9785 106.389 96.5879C108.545 94.1973 111.469 93.002 115.16 93.002ZM115.16 97.0273C112.898 97.0273 111.105 97.8652 109.781 99.541C108.445 101.217 107.777 103.473 107.777 106.309C107.777 109.156 108.434 111.412 109.746 113.076C111.07 114.764 112.875 115.607 115.16 115.607C117.41 115.607 119.197 114.764 120.521 113.076C121.834 111.4 122.49 109.145 122.49 106.309C122.49 103.473 121.834 101.217 120.521 99.541C119.197 97.8652 117.41 97.0273 115.16 97.0273ZM143.479 119.633C139.881 119.633 137.039 118.443 134.953 116.064C132.867 113.674 131.824 110.428 131.824 106.326C131.824 102.201 132.867 98.9492 134.953 96.5703C137.027 94.1914 139.863 93.002 143.461 93.002C146.344 93.002 148.787 93.8516 150.791 95.5508C152.795 97.2383 153.932 99.4062 154.201 102.055H149.736C149.42 100.531 148.693 99.3184 147.557 98.416C146.42 97.502 145.055 97.0449 143.461 97.0449C141.305 97.0449 139.6 97.877 138.346 99.541C137.092 101.193 136.465 103.449 136.465 106.309C136.465 109.168 137.092 111.43 138.346 113.094C139.6 114.758 141.311 115.59 143.479 115.59C145.084 115.59 146.455 115.174 147.592 114.342C148.729 113.498 149.449 112.367 149.754 110.949H154.219C153.914 113.551 152.783 115.648 150.826 117.242C148.846 118.836 146.396 119.633 143.479 119.633ZM165.188 119V97.5547H157.383V93.6348H177.545V97.5547H169.723V119H165.188ZM194.262 112.514H184.928L182.748 119H178.16L187.16 93.6348H192.258L201.275 119H196.406L194.262 112.514ZM185.982 108.928H193.207L189.762 98.4688H189.463L185.982 108.928ZM205.986 119V93.6348H216.586C218.988 93.6348 220.875 94.2031 222.246 95.3398C223.617 96.4648 224.303 98.0059 224.303 99.9629C224.303 101.299 223.869 102.488 223.002 103.531C222.135 104.574 221.062 105.195 219.785 105.395V105.711C221.496 105.875 222.885 106.514 223.951 107.627C225.018 108.752 225.551 110.141 225.551 111.793C225.551 114.02 224.777 115.777 223.23 117.066C221.672 118.355 219.539 119 216.832 119H205.986ZM210.521 104.305H214.898C218.18 104.305 219.82 103.127 219.82 100.771C219.82 99.6582 219.439 98.791 218.678 98.1699C217.916 97.5488 216.85 97.2383 215.479 97.2383H210.521V104.305ZM215.795 115.396C219.205 115.396 220.91 114.078 220.91 111.441C220.91 108.863 219.146 107.574 215.619 107.574H210.521V115.396H215.795ZM245.906 119V97.5547H237.838L237.152 109.139C236.953 112.432 236.338 114.881 235.307 116.486C234.158 118.291 232.395 119.193 230.016 119.193C229.348 119.193 228.791 119.123 228.346 118.982V114.887C228.697 114.969 229.066 115.01 229.453 115.01C230.684 115.01 231.574 114.424 232.125 113.252C232.57 112.326 232.846 110.861 232.951 108.857L233.76 93.6348H250.441V119H245.906ZM273.486 119H257.068V93.6348H273.486V97.5547H261.604V104.287H272.836V107.979H261.604V115.08H273.486V119ZM296.338 119V108.049H283.998V119H279.463V93.6348H283.998V104.129H296.338V93.6348H300.855V119H296.338ZM324.357 119V108.049H312.018V119H307.482V93.6348H312.018V104.129H324.357V93.6348H328.875V119H324.357ZM338.701 119.211C337.799 119.211 337.16 119.129 336.785 118.965V115.08C337.266 115.186 337.764 115.238 338.279 115.238C339.967 115.238 341.232 114.541 342.076 113.146L333.568 93.6348H338.367L344.326 108.436H344.625L350.391 93.6348H355.137L347.367 111.74C346.242 114.342 345.117 116.182 343.992 117.26C342.621 118.561 340.857 119.211 338.701 119.211ZM380.168 119.633C376.781 119.633 374.045 118.596 371.959 116.521C369.896 114.471 368.719 111.646 368.426 108.049H364.365V119H359.83V93.6348H364.365V104.129H368.461C368.836 100.672 370.055 97.9531 372.117 95.9727C374.191 93.9922 376.875 93.002 380.168 93.002C383.801 93.002 386.678 94.1973 388.799 96.5879C390.908 98.9668 391.963 102.207 391.963 106.309C391.963 110.398 390.908 113.639 388.799 116.029C386.689 118.432 383.812 119.633 380.168 119.633ZM380.15 97.0273C377.947 97.0273 376.195 97.8652 374.895 99.541C373.594 101.217 372.943 103.473 372.943 106.309C372.943 109.156 373.588 111.412 374.877 113.076C376.166 114.764 377.924 115.607 380.15 115.607C382.354 115.607 384.105 114.764 385.406 113.076C386.695 111.4 387.34 109.145 387.34 106.309C387.34 103.473 386.695 101.217 385.406 99.541C384.105 97.8652 382.354 97.0273 380.15 97.0273ZM49.998 147.234H53.3906C54.7266 147.234 55.8105 146.877 56.6426 146.162C57.4746 145.459 57.8906 144.539 57.8906 143.402C57.8906 142.277 57.498 141.387 56.7129 140.73C55.9043 140.062 54.7969 139.729 53.3906 139.729C51.9844 139.729 50.8477 140.074 49.9805 140.766C49.125 141.445 48.6504 142.377 48.5566 143.561H44.3027C44.4199 141.24 45.2988 139.4 46.9395 138.041C48.5918 136.682 50.7891 136.002 53.5312 136.002C56.1094 136.002 58.2129 136.635 59.8418 137.9C61.4824 139.178 62.3027 140.83 62.3027 142.857C62.3027 144.264 61.875 145.5 61.0195 146.566C60.1523 147.645 59.0332 148.336 57.6621 148.641V148.939C59.3496 149.115 60.709 149.736 61.7402 150.803C62.7949 151.916 63.3223 153.328 63.3223 155.039C63.3223 157.23 62.3906 159.047 60.5273 160.488C58.6641 161.918 56.3379 162.633 53.5488 162.633C50.7246 162.633 48.4277 161.936 46.6582 160.541C44.877 159.135 43.9277 157.277 43.8105 154.969H48.1699C48.2637 156.129 48.7969 157.055 49.7695 157.746C50.7422 158.438 52.0078 158.783 53.5664 158.783C55.1016 158.783 56.3379 158.408 57.2754 157.658C58.2012 156.92 58.6641 155.953 58.6641 154.758C58.6641 153.574 58.2129 152.648 57.3105 151.98C56.3848 151.301 55.1016 150.961 53.4609 150.961H49.998V147.234ZM82.7812 155.514H73.4473L71.2676 162H66.6797L75.6797 136.635H80.7773L89.7949 162H84.9258L82.7812 155.514ZM74.502 151.928H81.7266L78.2812 141.469H77.9824L74.502 151.928ZM108.164 140.414H103.471C101.912 140.414 100.693 140.795 99.8145 141.557C98.9473 142.307 98.5137 143.361 98.5137 144.721C98.5137 146.092 98.9473 147.152 99.8145 147.902C100.682 148.664 101.9 149.045 103.471 149.045H108.164V140.414ZM97.7402 162H92.6426L99.5332 152.033C97.8223 151.541 96.457 150.65 95.4375 149.361C94.3945 148.049 93.873 146.496 93.873 144.703C93.873 142.301 94.6758 140.355 96.2812 138.867C97.9102 137.379 100.049 136.635 102.697 136.635H112.664V162H108.164V152.666H104.121L97.7402 162ZM119.291 162V136.635H129.891C132.293 136.635 134.18 137.203 135.551 138.34C136.922 139.465 137.607 141.006 137.607 142.963C137.607 144.299 137.174 145.488 136.307 146.531C135.439 147.574 134.367 148.195 133.09 148.395V148.711C134.801 148.875 136.189 149.514 137.256 150.627C138.322 151.752 138.855 153.141 138.855 154.793C138.855 157.02 138.082 158.777 136.535 160.066C134.977 161.355 132.844 162 130.137 162H119.291ZM123.826 147.305H128.203C131.484 147.305 133.125 146.127 133.125 143.771C133.125 142.658 132.744 141.791 131.982 141.17C131.221 140.549 130.154 140.238 128.783 140.238H123.826V147.305ZM129.1 158.396C132.51 158.396 134.215 157.078 134.215 154.441C134.215 151.863 132.451 150.574 128.924 150.574H123.826V158.396H129.1ZM149.455 147.533L158.982 136.635H164.186L153.305 148.975L164.994 162H159.404L149.473 151.137H148.682V162H144.146V136.635H148.682V147.533H149.455ZM172.307 162.211C171.404 162.211 170.766 162.129 170.391 161.965V158.08C170.871 158.186 171.369 158.238 171.885 158.238C173.572 158.238 174.838 157.541 175.682 156.146L167.174 136.635H171.973L177.932 151.436H178.23L183.996 136.635H188.742L180.973 154.74C179.848 157.342 178.723 159.182 177.598 160.26C176.227 161.561 174.463 162.211 172.307 162.211ZM198.674 136.617L198.27 153.615H194.209L193.805 136.617H198.674ZM193.33 159.662C193.33 158.807 193.594 158.127 194.121 157.623C194.648 157.107 195.357 156.85 196.248 156.85C197.139 156.85 197.848 157.107 198.375 157.623C198.902 158.127 199.166 158.807 199.166 159.662C199.166 160.506 198.902 161.18 198.375 161.684C197.848 162.199 197.139 162.457 196.248 162.457C195.357 162.457 194.648 162.199 194.121 161.684C193.594 161.18 193.33 160.506 193.33 159.662ZM226.324 136.002C230.004 136.002 232.922 137.197 235.078 139.588C237.223 141.979 238.295 145.219 238.295 149.309C238.295 153.398 237.223 156.639 235.078 159.029C232.934 161.432 230.016 162.633 226.324 162.633C222.609 162.633 219.674 161.438 217.518 159.047C215.373 156.656 214.301 153.41 214.301 149.309C214.301 145.219 215.385 141.979 217.553 139.588C219.709 137.197 222.633 136.002 226.324 136.002ZM226.324 140.027C224.062 140.027 222.27 140.865 220.945 142.541C219.609 144.217 218.941 146.473 218.941 149.309C218.941 152.156 219.598 154.412 220.91 156.076C222.234 157.764 224.039 158.607 226.324 158.607C228.574 158.607 230.361 157.764 231.686 156.076C232.998 154.4 233.654 152.145 233.654 149.309C233.654 146.473 232.998 144.217 231.686 142.541C230.361 140.865 228.574 140.027 226.324 140.027ZM256.154 136.635H260.619V147.586H261.445L270.146 136.635H275.227L265.172 149.01L276.053 162H270.551L261.463 151.102H260.619V162H256.154V151.102H255.328L246.223 162H240.791L251.619 149.098L241.512 136.635H246.645L255.346 147.586H256.154V136.635ZM297.428 143.965H297.129L284.877 162H280.482V136.635H285V154.705H285.299L297.533 136.635H301.928V162H297.428V143.965ZM314.549 151.752C314.361 154.682 313.805 156.697 312.879 157.799V158.08H323.9V140.555H315.27L314.549 151.752ZM310.102 167.01H305.971V158.08H307.781C308.637 157.529 309.264 156.703 309.662 155.602C310.025 154.629 310.26 153.246 310.365 151.453L311.262 136.635H328.418V158.08H331.582V167.01H327.469V162H310.102V167.01ZM350.848 155.514H341.514L339.334 162H334.746L343.746 136.635H348.844L357.861 162H352.992L350.848 155.514ZM342.568 151.928H349.793L346.348 141.469H346.049L342.568 151.928ZM370.166 128.584C370.178 129.463 370.465 130.166 371.027 130.693C371.578 131.221 372.281 131.484 373.137 131.484C374.004 131.484 374.719 131.221 375.281 130.693C375.844 130.166 376.131 129.463 376.143 128.584H379.57C379.57 130.271 378.984 131.613 377.812 132.609C376.641 133.605 375.082 134.104 373.137 134.104C371.203 134.104 369.656 133.605 368.496 132.609C367.324 131.613 366.738 130.271 366.738 128.584H370.166ZM379.518 143.965H379.219L366.967 162H362.572V136.635H367.09V154.705H367.389L379.623 136.635H384.018V162H379.518V143.965ZM396.973 162V140.555H389.168V136.635H409.33V140.555H401.508V162H396.973ZM430.846 162H414.428V136.635H430.846V140.555H418.963V147.287H430.195V150.979H418.963V158.08H430.846V162ZM49.998 190.234H53.3906C54.7266 190.234 55.8105 189.877 56.6426 189.162C57.4746 188.459 57.8906 187.539 57.8906 186.402C57.8906 185.277 57.498 184.387 56.7129 183.73C55.9043 183.062 54.7969 182.729 53.3906 182.729C51.9844 182.729 50.8477 183.074 49.9805 183.766C49.125 184.445 48.6504 185.377 48.5566 186.561H44.3027C44.4199 184.24 45.2988 182.4 46.9395 181.041C48.5918 179.682 50.7891 179.002 53.5312 179.002C56.1094 179.002 58.2129 179.635 59.8418 180.9C61.4824 182.178 62.3027 183.83 62.3027 185.857C62.3027 187.264 61.875 188.5 61.0195 189.566C60.1523 190.645 59.0332 191.336 57.6621 191.641V191.939C59.3496 192.115 60.709 192.736 61.7402 193.803C62.7949 194.916 63.3223 196.328 63.3223 198.039C63.3223 200.23 62.3906 202.047 60.5273 203.488C58.6641 204.918 56.3379 205.633 53.5488 205.633C50.7246 205.633 48.4277 204.936 46.6582 203.541C44.877 202.135 43.9277 200.277 43.8105 197.969H48.1699C48.2637 199.129 48.7969 200.055 49.7695 200.746C50.7422 201.438 52.0078 201.783 53.5664 201.783C55.1016 201.783 56.3379 201.408 57.2754 200.658C58.2012 199.92 58.6641 198.953 58.6641 197.758C58.6641 196.574 58.2129 195.648 57.3105 194.98C56.3848 194.301 55.1016 193.961 53.4609 193.961H49.998V190.234ZM68.5605 205V179.635H79.1602C81.5625 179.635 83.4492 180.203 84.8203 181.34C86.1914 182.465 86.877 184.006 86.877 185.963C86.877 187.299 86.4434 188.488 85.5762 189.531C84.709 190.574 83.6367 191.195 82.3594 191.395V191.711C84.0703 191.875 85.459 192.514 86.5254 193.627C87.5918 194.752 88.125 196.141 88.125 197.793C88.125 200.02 87.3516 201.777 85.8047 203.066C84.2461 204.355 82.1133 205 79.4062 205H68.5605ZM73.0957 190.305H77.4727C80.7539 190.305 82.3945 189.127 82.3945 186.771C82.3945 185.658 82.0137 184.791 81.252 184.17C80.4902 183.549 79.4238 183.238 78.0527 183.238H73.0957V190.305ZM78.3691 201.396C81.7793 201.396 83.4844 200.078 83.4844 197.441C83.4844 194.863 81.7207 193.574 78.1934 193.574H73.0957V201.396H78.3691ZM104.473 179.002C108.152 179.002 111.07 180.197 113.227 182.588C115.371 184.979 116.443 188.219 116.443 192.309C116.443 196.398 115.371 199.639 113.227 202.029C111.082 204.432 108.164 205.633 104.473 205.633C100.758 205.633 97.8223 204.438 95.666 202.047C93.5215 199.656 92.4492 196.41 92.4492 192.309C92.4492 188.219 93.5332 184.979 95.7012 182.588C97.8574 180.197 100.781 179.002 104.473 179.002ZM104.473 183.027C102.211 183.027 100.418 183.865 99.0938 185.541C97.7578 187.217 97.0898 189.473 97.0898 192.309C97.0898 195.156 97.7461 197.412 99.0586 199.076C100.383 200.764 102.188 201.607 104.473 201.607C106.723 201.607 108.51 200.764 109.834 199.076C111.146 197.4 111.803 195.145 111.803 192.309C111.803 189.473 111.146 187.217 109.834 185.541C108.51 183.865 106.723 183.027 104.473 183.027ZM138.979 205V194.049H126.639V205H122.104V179.635H126.639V190.129H138.979V179.635H143.496V205H138.979ZM155.432 190.533L164.959 179.635H170.162L159.281 191.975L170.971 205H165.381L155.449 194.137H154.658V205H150.123V179.635H154.658V190.533H155.432ZM189.621 198.514H180.287L178.107 205H173.52L182.52 179.635H187.617L196.635 205H191.766L189.621 198.514ZM181.342 194.928H188.566L185.121 184.469H184.822L181.342 194.928Z" fill="#3E3A89"/>
<path d="M536.571 655.5C532.236 654.712 529.479 653.924 525.93 652.741C522.38 651.559 520.402 649.774 519.227 648.012V648.012C515.797 642.866 515.43 636.305 515.292 630.123C515.287 629.916 515.285 629.705 515.285 629.488C515.287 625.547 515.287 625.547 515.285 622" stroke="#3E3A89" stroke-width="5" stroke-linecap="round" stroke-linejoin="round"/>
<path d="M536.567 655.5C532.232 656.288 529.479 657.471 525.93 658.653C522.38 659.835 520.402 661.62 519.227 663.382V663.382C515.797 668.528 515.43 675.089 515.292 681.271C515.287 681.478 515.285 681.69 515.285 681.906C515.287 685.847 515.288 685.847 515.285 689.394" stroke="#3E3A89" stroke-width="5" stroke-linecap="round" stroke-linejoin="round"/>
<path d="M493.999 655.5C498.335 654.712 501.091 653.924 504.64 652.741C508.19 651.559 510.168 649.774 511.343 648.012V648.012C514.773 642.866 515.14 636.305 515.278 630.123C515.283 629.916 515.285 629.705 515.285 629.488C515.283 625.547 515.283 625.547 515.285 622" stroke="#3E3A89" stroke-width="5" stroke-linecap="round" stroke-linejoin="round"/>
<path d="M494.003 655.5C498.338 656.288 501.091 657.471 504.64 658.653C508.19 659.835 510.168 661.62 511.343 663.382V663.382C514.773 668.528 515.14 675.089 515.278 681.271C515.283 681.478 515.285 681.69 515.285 681.906C515.283 685.847 515.283 685.847 515.285 689.394" stroke="#3E3A89" stroke-width="5" stroke-linecap="round" stroke-linejoin="round"/>
<path d="M536.571 493.5C532.236 492.712 529.479 491.924 525.93 490.741C522.38 489.559 520.402 487.774 519.227 486.012V486.012C515.797 480.866 515.43 474.305 515.292 468.123C515.287 467.916 515.285 467.705 515.285 467.488C515.287 463.547 515.287 463.547 515.285 460" stroke="#3E3A89" stroke-width="5" stroke-linecap="round" stroke-linejoin="round"/>
<path d="M536.567 493.5C532.232 494.288 529.479 495.471 525.93 496.653C522.38 497.835 520.402 499.62 519.227 501.382V501.382C515.797 506.528 515.43 513.089 515.292 519.271C515.287 519.478 515.285 519.69 515.285 519.906C515.287 523.847 515.288 523.847 515.285 527.394" stroke="#3E3A89" stroke-width="5" stroke-linecap="round" stroke-linejoin="round"/>
<path d="M493.999 493.5C498.335 492.712 501.091 491.924 504.64 490.741C508.19 489.559 510.168 487.774 511.343 486.012V486.012C514.773 480.866 515.14 474.305 515.278 468.123C515.283 467.916 515.285 467.705 515.285 467.488C515.283 463.547 515.283 463.547 515.285 460" stroke="#3E3A89" stroke-width="5" stroke-linecap="round" stroke-linejoin="round"/>
<path d="M494.003 493.5C498.338 494.288 501.091 495.471 504.64 496.653C508.19 497.835 510.168 499.62 511.343 501.382V501.382C514.773 506.528 515.14 513.089 515.278 519.271C515.283 519.478 515.285 519.69 515.285 519.906C515.283 523.847 515.283 523.847 515.285 527.394" stroke="#3E3A89" stroke-width="5" stroke-linecap="round" stroke-linejoin="round"/>
<path d="M374.571 655.5C370.236 654.712 367.479 653.924 363.93 652.741C360.38 651.559 358.402 649.774 357.227 648.012V648.012C353.797 642.866 353.43 636.305 353.292 630.123C353.287 629.916 353.285 629.705 353.285 629.488C353.287 625.547 353.287 625.547 353.285 622" stroke="#3E3A89" stroke-width="5" stroke-linecap="round" stroke-linejoin="round"/>
<path d="M374.567 655.5C370.232 656.288 367.479 657.471 363.93 658.653C360.38 659.835 358.402 661.62 357.227 663.382V663.382C353.797 668.528 353.43 675.089 353.292 681.271C353.287 681.478 353.285 681.69 353.285 681.906C353.287 685.847 353.288 685.847 353.285 689.394" stroke="#3E3A89" stroke-width="5" stroke-linecap="round" stroke-linejoin="round"/>
<path d="M331.999 655.5C336.335 654.712 339.091 653.924 342.64 652.741C346.19 651.559 348.168 649.774 349.343 648.012V648.012C352.773 642.866 353.14 636.305 353.278 630.123C353.283 629.916 353.285 629.705 353.285 629.488C353.283 625.547 353.283 625.547 353.285 622" stroke="#3E3A89" stroke-width="5" stroke-linecap="round" stroke-linejoin="round"/>
<path d="M332.003 655.5C336.338 656.288 339.091 657.471 342.64 658.653C346.19 659.835 348.168 661.62 349.343 663.382V663.382C352.773 668.528 353.14 675.089 353.278 681.271C353.283 681.478 353.285 681.69 353.285 681.906C353.283 685.847 353.283 685.847 353.285 689.394" stroke="#3E3A89" stroke-width="5" stroke-linecap="round" stroke-linejoin="round"/>
<defs>
<filter id="filter0_b" x="-20" y="-20" width="619" height="763" filterUnits="userSpaceOnUse" color-interpolation-filters="sRGB">
<feFlood flood-opacity="0" result="BackgroundImageFix"/>
<feGaussianBlur in="BackgroundImage" stdDeviation="10"/>
<feComposite in2="SourceAlpha" operator="in" result="effect1_backgroundBlur"/>
<feBlend mode="normal" in="SourceGraphic" in2="effect1_backgroundBlur" result="shape"/>
</filter>
</defs>
</svg>
