<svg width="1269" height="627" viewBox="0 0 1269 627" fill="none" xmlns="http://www.w3.org/2000/svg">
<g filter="url(#filter0_b)">
<rect width="1269" height="627" rx="15" fill="#3E3A89"/>
</g>
<path d="M217.975 326.633C214.377 326.633 211.535 325.443 209.449 323.064C207.363 320.674 206.32 317.428 206.32 313.326C206.32 309.201 207.363 305.949 209.449 303.57C211.523 301.191 214.359 300.002 217.957 300.002C220.84 300.002 223.283 300.852 225.287 302.551C227.291 304.238 228.428 306.406 228.697 309.055H224.232C223.916 307.531 223.189 306.318 222.053 305.416C220.916 304.502 219.551 304.045 217.957 304.045C215.801 304.045 214.096 304.877 212.842 306.541C211.588 308.193 210.961 310.449 210.961 313.309C210.961 316.168 211.588 318.43 212.842 320.094C214.096 321.758 215.807 322.59 217.975 322.59C219.58 322.59 220.951 322.174 222.088 321.342C223.225 320.498 223.945 319.367 224.25 317.949H228.715C228.41 320.551 227.279 322.648 225.322 324.242C223.342 325.836 220.893 326.633 217.975 326.633ZM245.484 300.002C249.164 300.002 252.082 301.197 254.238 303.588C256.383 305.979 257.455 309.219 257.455 313.309C257.455 317.398 256.383 320.639 254.238 323.029C252.094 325.432 249.176 326.633 245.484 326.633C241.77 326.633 238.834 325.438 236.678 323.047C234.533 320.656 233.461 317.41 233.461 313.309C233.461 309.219 234.545 305.979 236.713 303.588C238.869 301.197 241.793 300.002 245.484 300.002ZM245.484 304.027C243.223 304.027 241.43 304.865 240.105 306.541C238.77 308.217 238.102 310.473 238.102 313.309C238.102 316.156 238.758 318.412 240.07 320.076C241.395 321.764 243.199 322.607 245.484 322.607C247.734 322.607 249.521 321.764 250.846 320.076C252.158 318.4 252.814 316.145 252.814 313.309C252.814 310.473 252.158 308.217 250.846 306.541C249.521 304.865 247.734 304.027 245.484 304.027ZM263.115 326V300.635H273.715C276.117 300.635 278.004 301.203 279.375 302.34C280.746 303.465 281.432 305.006 281.432 306.963C281.432 308.299 280.998 309.488 280.131 310.531C279.264 311.574 278.191 312.195 276.914 312.395V312.711C278.625 312.875 280.014 313.514 281.08 314.627C282.146 315.752 282.68 317.141 282.68 318.793C282.68 321.02 281.906 322.777 280.359 324.066C278.801 325.355 276.668 326 273.961 326H263.115ZM267.65 311.305H272.027C275.309 311.305 276.949 310.127 276.949 307.771C276.949 306.658 276.568 305.791 275.807 305.17C275.045 304.549 273.979 304.238 272.607 304.238H267.65V311.305ZM272.924 322.396C276.334 322.396 278.039 321.078 278.039 318.441C278.039 315.863 276.275 314.574 272.748 314.574H267.65V322.396H272.924ZM298.658 326.633C295.061 326.633 292.219 325.443 290.133 323.064C288.047 320.674 287.004 317.428 287.004 313.326C287.004 309.201 288.047 305.949 290.133 303.57C292.207 301.191 295.043 300.002 298.641 300.002C301.523 300.002 303.967 300.852 305.971 302.551C307.975 304.238 309.111 306.406 309.381 309.055H304.916C304.6 307.531 303.873 306.318 302.736 305.416C301.6 304.502 300.234 304.045 298.641 304.045C296.484 304.045 294.779 304.877 293.525 306.541C292.271 308.193 291.645 310.449 291.645 313.309C291.645 316.168 292.271 318.43 293.525 320.094C294.779 321.758 296.49 322.59 298.658 322.59C300.264 322.59 301.635 322.174 302.771 321.342C303.908 320.498 304.629 319.367 304.934 317.949H309.398C309.094 320.551 307.963 322.648 306.006 324.242C304.025 325.836 301.576 326.633 298.658 326.633ZM331.529 326H315.111V300.635H331.529V304.555H319.646V311.287H330.879V314.979H319.646V322.08H331.529V326ZM337.506 326V300.635H342.814L350.443 319.109H350.76L358.389 300.635H363.697V326H359.479V308.158H359.232L352.219 325.016H348.984L341.971 308.158H341.725V326H337.506ZM390.592 326.633C386.994 326.633 384.152 325.443 382.066 323.064C379.98 320.674 378.938 317.428 378.938 313.326C378.938 309.201 379.98 305.949 382.066 303.57C384.141 301.191 386.977 300.002 390.574 300.002C393.457 300.002 395.9 300.852 397.904 302.551C399.908 304.238 401.045 306.406 401.314 309.055H396.85C396.533 307.531 395.807 306.318 394.67 305.416C393.533 304.502 392.168 304.045 390.574 304.045C388.418 304.045 386.713 304.877 385.459 306.541C384.205 308.193 383.578 310.449 383.578 313.309C383.578 316.168 384.205 318.43 385.459 320.094C386.713 321.758 388.424 322.59 390.592 322.59C392.197 322.59 393.568 322.174 394.705 321.342C395.842 320.498 396.562 319.367 396.867 317.949H401.332C401.027 320.551 399.896 322.648 397.939 324.242C395.959 325.836 393.51 326.633 390.592 326.633ZM412.354 311.533L421.881 300.635H427.084L416.203 312.975L427.893 326H422.303L412.371 315.137H411.58V326H407.045V300.635H411.58V311.533H412.354ZM442.148 300.002C445.828 300.002 448.746 301.197 450.902 303.588C453.047 305.979 454.119 309.219 454.119 313.309C454.119 317.398 453.047 320.639 450.902 323.029C448.758 325.432 445.84 326.633 442.148 326.633C438.434 326.633 435.498 325.438 433.342 323.047C431.197 320.656 430.125 317.41 430.125 313.309C430.125 309.219 431.209 305.979 433.377 303.588C435.533 301.197 438.457 300.002 442.148 300.002ZM442.148 304.027C439.887 304.027 438.094 304.865 436.77 306.541C435.434 308.217 434.766 310.473 434.766 313.309C434.766 316.156 435.422 318.412 436.734 320.076C438.059 321.764 439.863 322.607 442.148 322.607C444.398 322.607 446.186 321.764 447.51 320.076C448.822 318.4 449.479 316.145 449.479 313.309C449.479 310.473 448.822 308.217 447.51 306.541C446.186 304.865 444.398 304.027 442.148 304.027ZM470.01 300.635C472.541 300.635 474.598 301.426 476.18 303.008C477.75 304.59 478.535 306.658 478.535 309.213C478.535 311.721 477.727 313.76 476.109 315.33C474.48 316.9 472.383 317.686 469.816 317.686H464.314V326H459.779V300.635H470.01ZM464.314 313.924H468.797C470.426 313.924 471.686 313.514 472.576 312.693C473.479 311.873 473.93 310.713 473.93 309.213C473.93 307.666 473.484 306.482 472.594 305.662C471.715 304.842 470.455 304.432 468.814 304.432H464.314V313.924ZM494.953 300.002C498.633 300.002 501.551 301.197 503.707 303.588C505.852 305.979 506.924 309.219 506.924 313.309C506.924 317.398 505.852 320.639 503.707 323.029C501.562 325.432 498.645 326.633 494.953 326.633C491.238 326.633 488.303 325.438 486.146 323.047C484.002 320.656 482.93 317.41 482.93 313.309C482.93 309.219 484.014 305.979 486.182 303.588C488.338 301.197 491.262 300.002 494.953 300.002ZM494.953 304.027C492.691 304.027 490.898 304.865 489.574 306.541C488.238 308.217 487.57 310.473 487.57 313.309C487.57 316.156 488.227 318.412 489.539 320.076C490.863 321.764 492.668 322.607 494.953 322.607C497.203 322.607 498.99 321.764 500.314 320.076C501.627 318.4 502.283 316.145 502.283 313.309C502.283 310.473 501.627 308.217 500.314 306.541C498.99 304.865 497.203 304.027 494.953 304.027ZM522.182 326V300.635H532.781C535.184 300.635 537.07 301.203 538.441 302.34C539.812 303.465 540.498 305.006 540.498 306.963C540.498 308.299 540.064 309.488 539.197 310.531C538.33 311.574 537.258 312.195 535.98 312.395V312.711C537.691 312.875 539.08 313.514 540.146 314.627C541.213 315.752 541.746 317.141 541.746 318.793C541.746 321.02 540.973 322.777 539.426 324.066C537.867 325.355 535.734 326 533.027 326H522.182ZM526.717 311.305H531.094C534.375 311.305 536.016 310.127 536.016 307.771C536.016 306.658 535.635 305.791 534.873 305.17C534.111 304.549 533.045 304.238 531.674 304.238H526.717V311.305ZM531.99 322.396C535.4 322.396 537.105 321.078 537.105 318.441C537.105 315.863 535.342 314.574 531.814 314.574H526.717V322.396H531.99ZM568.799 326V300.635H573.334V326H568.799ZM547.16 300.635H551.695V309.424H557.074C559.652 309.424 561.75 310.186 563.367 311.709C564.996 313.244 565.811 315.242 565.811 317.703C565.811 320.176 565.02 322.18 563.438 323.715C561.855 325.238 559.799 326 557.268 326H547.16V300.635ZM556.072 322.186C557.689 322.186 558.943 321.799 559.834 321.025C560.725 320.252 561.17 319.145 561.17 317.703C561.17 316.262 560.725 315.148 559.834 314.363C558.943 313.59 557.684 313.203 556.055 313.203H551.695V322.186H556.072ZM600.229 326.633C596.631 326.633 593.789 325.443 591.703 323.064C589.617 320.674 588.574 317.428 588.574 313.326C588.574 309.201 589.617 305.949 591.703 303.57C593.777 301.191 596.613 300.002 600.211 300.002C603.094 300.002 605.537 300.852 607.541 302.551C609.545 304.238 610.682 306.406 610.951 309.055H606.486C606.17 307.531 605.443 306.318 604.307 305.416C603.17 304.502 601.805 304.045 600.211 304.045C598.055 304.045 596.35 304.877 595.096 306.541C593.842 308.193 593.215 310.449 593.215 313.309C593.215 316.168 593.842 318.43 595.096 320.094C596.35 321.758 598.061 322.59 600.229 322.59C601.834 322.59 603.205 322.174 604.342 321.342C605.479 320.498 606.199 319.367 606.504 317.949H610.969C610.664 320.551 609.533 322.648 607.576 324.242C605.596 325.836 603.146 326.633 600.229 326.633ZM621.938 326V304.555H614.133V300.635H634.295V304.555H626.473V326H621.938ZM651.012 319.514H641.678L639.498 326H634.91L643.91 300.635H649.008L658.025 326H653.156L651.012 319.514ZM642.732 315.928H649.957L646.512 305.469H646.213L642.732 315.928ZM679.611 326V315.049H667.271V326H662.736V300.635H667.271V311.129H679.611V300.635H684.129V326H679.611ZM707.174 326H690.756V300.635H707.174V304.555H695.291V311.287H706.523V314.979H695.291V322.08H707.174V326ZM719.215 326V304.555H711.41V300.635H731.572V304.555H723.75V326H719.215ZM753.088 326H736.67V300.635H753.088V304.555H741.205V311.287H752.438V314.979H741.205V322.08H753.088V326ZM768.662 326V300.635H773.971L781.6 319.109H781.916L789.545 300.635H794.854V326H790.635V308.158H790.389L783.375 325.016H780.141L773.127 308.158H772.881V326H768.662ZM804.662 326.211C803.76 326.211 803.121 326.129 802.746 325.965V322.08C803.227 322.186 803.725 322.238 804.24 322.238C805.928 322.238 807.193 321.541 808.037 320.146L799.529 300.635H804.328L810.287 315.436H810.586L816.352 300.635H821.098L813.328 318.74C812.203 321.342 811.078 323.182 809.953 324.26C808.582 325.561 806.818 326.211 804.662 326.211ZM836.021 300.635C838.553 300.635 840.609 301.426 842.191 303.008C843.762 304.59 844.547 306.658 844.547 309.213C844.547 311.721 843.738 313.76 842.121 315.33C840.492 316.9 838.395 317.686 835.828 317.686H830.326V326H825.791V300.635H836.021ZM830.326 313.924H834.809C836.438 313.924 837.697 313.514 838.588 312.693C839.49 311.873 839.941 310.713 839.941 309.213C839.941 307.666 839.496 306.482 838.605 305.662C837.727 304.842 836.467 304.432 834.826 304.432H830.326V313.924ZM861.703 319.514H852.369L850.189 326H845.602L854.602 300.635H859.699L868.717 326H863.848L861.703 319.514ZM853.424 315.928H860.648L857.203 305.469H856.904L853.424 315.928ZM873.428 326V300.635H884.027C886.43 300.635 888.316 301.203 889.688 302.34C891.059 303.465 891.744 305.006 891.744 306.963C891.744 308.299 891.311 309.488 890.443 310.531C889.576 311.574 888.504 312.195 887.227 312.395V312.711C888.938 312.875 890.326 313.514 891.393 314.627C892.459 315.752 892.992 317.141 892.992 318.793C892.992 321.02 892.219 322.777 890.672 324.066C889.113 325.355 886.98 326 884.273 326H873.428ZM877.963 311.305H882.34C885.621 311.305 887.262 310.127 887.262 307.771C887.262 306.658 886.881 305.791 886.119 305.17C885.357 304.549 884.291 304.238 882.92 304.238H877.963V311.305ZM883.236 322.396C886.646 322.396 888.352 321.078 888.352 318.441C888.352 315.863 886.588 314.574 883.061 314.574H877.963V322.396H883.236ZM898.283 300.635H902.818V309.424H908.197C910.775 309.424 912.873 310.186 914.49 311.709C916.119 313.244 916.934 315.242 916.934 317.703C916.934 320.176 916.143 322.18 914.561 323.715C912.979 325.238 910.922 326 908.391 326H898.283V300.635ZM907.195 322.186C908.812 322.186 910.066 321.799 910.957 321.025C911.848 320.252 912.293 319.145 912.293 317.703C912.293 316.262 911.848 315.148 910.957 314.363C910.066 313.59 908.807 313.203 907.178 313.203H902.818V322.186H907.195ZM939.205 307.965H938.906L926.654 326H922.26V300.635H926.777V318.705H927.076L939.311 300.635H943.705V326H939.205V307.965ZM950.35 300.635H954.885V322.08H962.812V300.635H967.33V322.08H975.258V300.635H979.793V326H950.35V300.635ZM991.729 311.533L1001.26 300.635H1006.46L995.578 312.975L1007.27 326H1001.68L991.746 315.137H990.955V326H986.42V300.635H990.955V311.533H991.729ZM1021.52 300.002C1025.2 300.002 1028.12 301.197 1030.28 303.588C1032.42 305.979 1033.49 309.219 1033.49 313.309C1033.49 317.398 1032.42 320.639 1030.28 323.029C1028.13 325.432 1025.21 326.633 1021.52 326.633C1017.81 326.633 1014.87 325.438 1012.72 323.047C1010.57 320.656 1009.5 317.41 1009.5 313.309C1009.5 309.219 1010.58 305.979 1012.75 303.588C1014.91 301.197 1017.83 300.002 1021.52 300.002ZM1021.52 304.027C1019.26 304.027 1017.47 304.865 1016.14 306.541C1014.81 308.217 1014.14 310.473 1014.14 313.309C1014.14 316.156 1014.8 318.412 1016.11 320.076C1017.43 321.764 1019.24 322.607 1021.52 322.607C1023.77 322.607 1025.56 321.764 1026.88 320.076C1028.2 318.4 1028.85 316.145 1028.85 313.309C1028.85 310.473 1028.2 308.217 1026.88 306.541C1025.56 304.865 1023.77 304.027 1021.52 304.027ZM1046.75 292.584C1046.76 293.463 1047.05 294.166 1047.61 294.693C1048.16 295.221 1048.86 295.484 1049.72 295.484C1050.59 295.484 1051.3 295.221 1051.86 294.693C1052.43 294.166 1052.71 293.463 1052.72 292.584H1056.15C1056.15 294.271 1055.57 295.613 1054.39 296.609C1053.22 297.605 1051.66 298.104 1049.72 298.104C1047.79 298.104 1046.24 297.605 1045.08 296.609C1043.91 295.613 1043.32 294.271 1043.32 292.584H1046.75ZM1056.1 307.965H1055.8L1043.55 326H1039.15V300.635H1043.67V318.705H1043.97L1056.21 300.635H1060.6V326H1056.1V307.965Z" fill="white"/>
<path d="M59 97.5581C63.9899 96.6509 67.1623 95.7436 71.248 94.3827C75.3336 93.0218 77.6106 90.9672 78.9626 88.9392C78.9888 88.9 79.015 88.8606 79.0412 88.8209C82.9213 82.9667 83.2994 75.5116 83.4886 68.4909C83.4963 68.2077 83.5002 67.9173 83.5 67.6188C83.4976 63.0825 83.4973 63.0825 83.5 58.9999" stroke="#F5F5F5" stroke-width="5" stroke-linecap="round" stroke-linejoin="round"/>
<path d="M59.0042 97.5581C63.9941 98.4654 67.1623 99.8262 71.248 101.187C75.3336 102.548 77.6106 104.603 78.9626 106.631C78.9888 106.67 79.015 106.709 79.0412 106.749C82.9213 112.603 83.2993 120.058 83.4886 127.079C83.4963 127.362 83.5002 127.653 83.5 127.951C83.4976 132.487 83.4973 132.487 83.5 136.57" stroke="#F5F5F5" stroke-width="5" stroke-linecap="round" stroke-linejoin="round"/>
<path d="M108 97.5581C103.01 96.6509 99.8377 95.7436 95.752 94.3827C91.6664 93.0218 89.3894 90.9672 88.0374 88.9392C88.0112 88.9 87.985 88.8606 87.9588 88.8209C84.0787 82.9667 83.7006 75.5116 83.5114 68.4909C83.5037 68.2077 83.4998 67.9173 83.5 67.6188C83.5024 63.0825 83.5027 63.0825 83.5 58.9999" stroke="#F5F5F5" stroke-width="5" stroke-linecap="round" stroke-linejoin="round"/>
<path d="M107.996 97.5581C103.006 98.4654 99.8377 99.8262 95.752 101.187C91.6664 102.548 89.3894 104.603 88.0374 106.631C88.0112 106.67 87.985 106.709 87.9588 106.749C84.0787 112.603 83.7007 120.058 83.5114 127.079C83.5037 127.362 83.4998 127.653 83.5 127.951C83.5024 132.487 83.5027 132.487 83.5 136.57" stroke="#F5F5F5" stroke-width="5" stroke-linecap="round" stroke-linejoin="round"/>
<path d="M1167 97.5581C1171.99 96.6509 1175.16 95.7436 1179.25 94.3827C1183.33 93.0218 1185.61 90.9672 1186.96 88.9392C1186.99 88.9 1187.01 88.8606 1187.04 88.8209C1190.92 82.9667 1191.3 75.5116 1191.49 68.4909C1191.5 68.2077 1191.5 67.9173 1191.5 67.6188C1191.5 63.0825 1191.5 63.0825 1191.5 58.9999" stroke="#F5F5F5" stroke-width="5" stroke-linecap="round" stroke-linejoin="round"/>
<path d="M1167 97.5581C1171.99 98.4654 1175.16 99.8262 1179.25 101.187C1183.33 102.548 1185.61 104.603 1186.96 106.631C1186.99 106.67 1187.01 106.709 1187.04 106.749C1190.92 112.603 1191.3 120.058 1191.49 127.079C1191.5 127.362 1191.5 127.653 1191.5 127.951C1191.5 132.487 1191.5 132.487 1191.5 136.57" stroke="#F5F5F5" stroke-width="5" stroke-linecap="round" stroke-linejoin="round"/>
<path d="M1216 97.5581C1211.01 96.6509 1207.84 95.7436 1203.75 94.3827C1199.67 93.0218 1197.39 90.9672 1196.04 88.9392C1196.01 88.9 1195.99 88.8606 1195.96 88.8209C1192.08 82.9667 1191.7 75.5116 1191.51 68.4909C1191.5 68.2077 1191.5 67.9173 1191.5 67.6188C1191.5 63.0825 1191.5 63.0825 1191.5 58.9999" stroke="#F5F5F5" stroke-width="5" stroke-linecap="round" stroke-linejoin="round"/>
<path d="M1216 97.5581C1211.01 98.4654 1207.84 99.8262 1203.75 101.187C1199.67 102.548 1197.39 104.603 1196.04 106.631C1196.01 106.67 1195.99 106.709 1195.96 106.749C1192.08 112.603 1191.7 120.058 1191.51 127.079C1191.5 127.362 1191.5 127.653 1191.5 127.951C1191.5 132.487 1191.5 132.487 1191.5 136.57" stroke="#F5F5F5" stroke-width="5" stroke-linecap="round" stroke-linejoin="round"/>
<path d="M59 528.558C63.9899 527.651 67.1623 526.744 71.248 525.383C75.3336 524.022 77.6106 521.967 78.9626 519.939C78.9888 519.9 79.015 519.861 79.0412 519.821C82.9213 513.967 83.2994 506.512 83.4886 499.491C83.4963 499.208 83.5002 498.917 83.5 498.619C83.4976 494.082 83.4973 494.082 83.5 490" stroke="#F5F5F5" stroke-width="5" stroke-linecap="round" stroke-linejoin="round"/>
<path d="M59.0042 528.558C63.9941 529.465 67.1623 530.826 71.248 532.187C75.3336 533.548 77.6106 535.603 78.9626 537.631C78.9888 537.67 79.015 537.709 79.0412 537.749C82.9213 543.603 83.2993 551.058 83.4886 558.079C83.4963 558.362 83.5002 558.653 83.5 558.951C83.4976 563.487 83.4973 563.487 83.5 567.57" stroke="#F5F5F5" stroke-width="5" stroke-linecap="round" stroke-linejoin="round"/>
<path d="M108 528.558C103.01 527.651 99.8377 526.744 95.752 525.383C91.6664 524.022 89.3894 521.967 88.0374 519.939C88.0112 519.9 87.985 519.861 87.9588 519.821C84.0787 513.967 83.7006 506.512 83.5114 499.491C83.5037 499.208 83.4998 498.917 83.5 498.619C83.5024 494.082 83.5027 494.082 83.5 490" stroke="#F5F5F5" stroke-width="5" stroke-linecap="round" stroke-linejoin="round"/>
<path d="M107.996 528.558C103.006 529.465 99.8377 530.826 95.752 532.187C91.6664 533.548 89.3894 535.603 88.0374 537.631C88.0112 537.67 87.985 537.709 87.9588 537.749C84.0787 543.603 83.7007 551.058 83.5114 558.079C83.5037 558.362 83.4998 558.653 83.5 558.951C83.5024 563.487 83.5027 563.487 83.5 567.57" stroke="#F5F5F5" stroke-width="5" stroke-linecap="round" stroke-linejoin="round"/>
<path d="M1167 528.558C1171.99 527.651 1175.16 526.744 1179.25 525.383C1183.33 524.022 1185.61 521.967 1186.96 519.939C1186.99 519.9 1187.01 519.861 1187.04 519.821C1190.92 513.967 1191.3 506.512 1191.49 499.491C1191.5 499.208 1191.5 498.917 1191.5 498.619C1191.5 494.082 1191.5 494.082 1191.5 490" stroke="#F5F5F5" stroke-width="5" stroke-linecap="round" stroke-linejoin="round"/>
<path d="M1167 528.558C1171.99 529.465 1175.16 530.826 1179.25 532.187C1183.33 533.548 1185.61 535.603 1186.96 537.631C1186.99 537.67 1187.01 537.709 1187.04 537.749C1190.92 543.603 1191.3 551.058 1191.49 558.079C1191.5 558.362 1191.5 558.653 1191.5 558.951C1191.5 563.487 1191.5 563.487 1191.5 567.57" stroke="#F5F5F5" stroke-width="5" stroke-linecap="round" stroke-linejoin="round"/>
<path d="M1216 528.558C1211.01 527.651 1207.84 526.744 1203.75 525.383C1199.67 524.022 1197.39 521.967 1196.04 519.939C1196.01 519.9 1195.99 519.861 1195.96 519.821C1192.08 513.967 1191.7 506.512 1191.51 499.491C1191.5 499.208 1191.5 498.917 1191.5 498.619C1191.5 494.082 1191.5 494.082 1191.5 490" stroke="#F5F5F5" stroke-width="5" stroke-linecap="round" stroke-linejoin="round"/>
<path d="M1216 528.558C1211.01 529.465 1207.84 530.826 1203.75 532.187C1199.67 533.548 1197.39 535.603 1196.04 537.631C1196.01 537.67 1195.99 537.709 1195.96 537.749C1192.08 543.603 1191.7 551.058 1191.51 558.079C1191.5 558.362 1191.5 558.653 1191.5 558.951C1191.5 563.487 1191.5 563.487 1191.5 567.57" stroke="#F5F5F5" stroke-width="5" stroke-linecap="round" stroke-linejoin="round"/>
<defs>
<filter id="filter0_b" x="-20" y="-20" width="1309" height="667" filterUnits="userSpaceOnUse" color-interpolation-filters="sRGB">
<feFlood flood-opacity="0" result="BackgroundImageFix"/>
<feGaussianBlur in="BackgroundImage" stdDeviation="10"/>
<feComposite in2="SourceAlpha" operator="in" result="effect1_backgroundBlur"/>
<feBlend mode="normal" in="SourceGraphic" in2="effect1_backgroundBlur" result="shape"/>
</filter>
</defs>
</svg>
