<svg width="1269" height="627" viewBox="0 0 1269 627" fill="none" xmlns="http://www.w3.org/2000/svg">
<g filter="url(#filter0_b)">
<rect width="1269" height="627" rx="15" fill="#3E3A89"/>
</g>
<path d="M210.598 326V304.555H202.793V300.635H222.955V304.555H215.133V326H210.598ZM244.471 326H228.053V300.635H244.471V304.555H232.588V311.287H243.82V314.979H232.588V322.08H244.471V326ZM267.023 326V304.572H255V326H250.447V300.635H271.541V326H267.023ZM294.568 326H278.15V300.635H294.568V304.555H282.686V311.287H293.918V314.979H282.686V322.08H294.568V326ZM310.775 300.635C313.307 300.635 315.363 301.426 316.945 303.008C318.516 304.59 319.301 306.658 319.301 309.213C319.301 311.721 318.492 313.76 316.875 315.33C315.246 316.9 313.148 317.686 310.582 317.686H305.08V326H300.545V300.635H310.775ZM305.08 313.924H309.562C311.191 313.924 312.451 313.514 313.342 312.693C314.244 311.873 314.695 310.713 314.695 309.213C314.695 307.666 314.25 306.482 313.359 305.662C312.48 304.842 311.221 304.432 309.58 304.432H305.08V313.924ZM324.662 300.635H329.197V309.424H334.576C337.154 309.424 339.252 310.186 340.869 311.709C342.498 313.244 343.312 315.242 343.312 317.703C343.312 320.176 342.521 322.18 340.939 323.715C339.357 325.238 337.301 326 334.77 326H324.662V300.635ZM333.574 322.186C335.191 322.186 336.445 321.799 337.336 321.025C338.227 320.252 338.672 319.145 338.672 317.703C338.672 316.262 338.227 315.148 337.336 314.363C336.445 313.59 335.186 313.203 333.557 313.203H329.197V322.186H333.574ZM358.236 326V300.635H368.836C371.238 300.635 373.125 301.203 374.496 302.34C375.867 303.465 376.553 305.006 376.553 306.963C376.553 308.299 376.119 309.488 375.252 310.531C374.385 311.574 373.312 312.195 372.035 312.395V312.711C373.746 312.875 375.135 313.514 376.201 314.627C377.268 315.752 377.801 317.141 377.801 318.793C377.801 321.02 377.027 322.777 375.48 324.066C373.922 325.355 371.789 326 369.082 326H358.236ZM362.771 311.305H367.148C370.43 311.305 372.07 310.127 372.07 307.771C372.07 306.658 371.689 305.791 370.928 305.17C370.166 304.549 369.1 304.238 367.729 304.238H362.771V311.305ZM368.045 322.396C371.455 322.396 373.16 321.078 373.16 318.441C373.16 315.863 371.396 314.574 367.869 314.574H362.771V322.396H368.045ZM392.689 326V300.635H403.289C405.691 300.635 407.578 301.203 408.949 302.34C410.32 303.465 411.006 305.006 411.006 306.963C411.006 308.299 410.572 309.488 409.705 310.531C408.838 311.574 407.766 312.195 406.488 312.395V312.711C408.199 312.875 409.588 313.514 410.654 314.627C411.721 315.752 412.254 317.141 412.254 318.793C412.254 321.02 411.48 322.777 409.934 324.066C408.375 325.355 406.242 326 403.535 326H392.689ZM397.225 311.305H401.602C404.883 311.305 406.523 310.127 406.523 307.771C406.523 306.658 406.143 305.791 405.381 305.17C404.619 304.549 403.553 304.238 402.182 304.238H397.225V311.305ZM402.498 322.396C405.908 322.396 407.613 321.078 407.613 318.441C407.613 315.863 405.85 314.574 402.322 314.574H397.225V322.396H402.498ZM431.766 319.514H422.432L420.252 326H415.664L424.664 300.635H429.762L438.779 326H433.91L431.766 319.514ZM423.486 315.928H430.711L427.266 305.469H426.967L423.486 315.928ZM443.49 300.635H448.025V322.08H455.953V300.635H460.471V322.08H468.398V300.635H472.934V326H443.49V300.635ZM495.979 326H479.561V300.635H495.979V304.555H484.096V311.287H495.328V314.979H484.096V322.08H495.979V326ZM501.955 326V300.635H507.264L514.893 319.109H515.209L522.838 300.635H528.146V326H523.928V308.158H523.682L516.668 325.016H513.434L506.42 308.158H506.174V326H501.955ZM555.41 300.002C559.09 300.002 562.008 301.197 564.164 303.588C566.309 305.979 567.381 309.219 567.381 313.309C567.381 317.398 566.309 320.639 564.164 323.029C562.02 325.432 559.102 326.633 555.41 326.633C551.695 326.633 548.76 325.438 546.604 323.047C544.459 320.656 543.387 317.41 543.387 313.309C543.387 309.219 544.471 305.979 546.639 303.588C548.795 301.197 551.719 300.002 555.41 300.002ZM555.41 304.027C553.148 304.027 551.355 304.865 550.031 306.541C548.695 308.217 548.027 310.473 548.027 313.309C548.027 316.156 548.684 318.412 549.996 320.076C551.32 321.764 553.125 322.607 555.41 322.607C557.66 322.607 559.447 321.764 560.771 320.076C562.084 318.4 562.74 316.145 562.74 313.309C562.74 310.473 562.084 308.217 560.771 306.541C559.447 304.865 557.66 304.027 555.41 304.027ZM583.271 300.635C585.803 300.635 587.859 301.426 589.441 303.008C591.012 304.59 591.797 306.658 591.797 309.213C591.797 311.721 590.988 313.76 589.371 315.33C587.742 316.9 585.645 317.686 583.078 317.686H577.576V326H573.041V300.635H583.271ZM577.576 313.924H582.059C583.688 313.924 584.947 313.514 585.838 312.693C586.74 311.873 587.191 310.713 587.191 309.213C587.191 307.666 586.746 306.482 585.855 305.662C584.977 304.842 583.717 304.432 582.076 304.432H577.576V313.924ZM597.158 326V300.635H613.031V304.572H601.711V326H597.158ZM629.906 319.514H620.572L618.393 326H613.805L622.805 300.635H627.902L636.92 326H632.051L629.906 319.514ZM621.627 315.928H628.852L625.406 305.469H625.107L621.627 315.928ZM658.506 326V315.049H646.166V326H641.631V300.635H646.166V311.129H658.506V300.635H663.023V326H658.506ZM686.596 307.965H686.297L674.045 326H669.65V300.635H674.168V318.705H674.467L686.701 300.635H691.096V326H686.596V307.965ZM702.451 311.234H705.844C707.18 311.234 708.264 310.877 709.096 310.162C709.928 309.459 710.344 308.539 710.344 307.402C710.344 306.277 709.951 305.387 709.166 304.73C708.357 304.062 707.25 303.729 705.844 303.729C704.438 303.729 703.301 304.074 702.434 304.766C701.578 305.445 701.104 306.377 701.01 307.561H696.756C696.873 305.24 697.752 303.4 699.393 302.041C701.045 300.682 703.242 300.002 705.984 300.002C708.562 300.002 710.666 300.635 712.295 301.9C713.936 303.178 714.756 304.83 714.756 306.857C714.756 308.264 714.328 309.5 713.473 310.566C712.605 311.645 711.486 312.336 710.115 312.641V312.939C711.803 313.115 713.162 313.736 714.193 314.803C715.248 315.916 715.775 317.328 715.775 319.039C715.775 321.23 714.844 323.047 712.98 324.488C711.117 325.918 708.791 326.633 706.002 326.633C703.178 326.633 700.881 325.936 699.111 324.541C697.33 323.135 696.381 321.277 696.264 318.969H700.623C700.717 320.129 701.25 321.055 702.223 321.746C703.195 322.438 704.461 322.783 706.02 322.783C707.555 322.783 708.791 322.408 709.729 321.658C710.654 320.92 711.117 319.953 711.117 318.758C711.117 317.574 710.666 316.648 709.764 315.98C708.838 315.301 707.555 314.961 705.914 314.961H702.451V311.234ZM721.014 326V300.635H726.322L733.951 319.109H734.268L741.896 300.635H747.205V326H742.986V308.158H742.74L735.727 325.016H732.492L725.479 308.158H725.232V326H721.014ZM770.232 326H753.814V300.635H770.232V304.555H758.35V311.287H769.582V314.979H758.35V322.08H770.232V326ZM791.273 305.205H790.975L784.664 309.635V305.275L791.291 300.635H795.809V326H791.273V305.205ZM812.156 326.633C809.543 326.633 807.393 325.912 805.705 324.471C804.041 323.053 803.156 321.219 803.051 318.969H807.305C807.445 320.129 807.967 321.066 808.869 321.781C809.771 322.496 810.879 322.854 812.191 322.854C813.68 322.854 814.881 322.391 815.795 321.465C816.721 320.551 817.184 319.338 817.184 317.826C817.184 316.314 816.721 315.084 815.795 314.135C814.881 313.197 813.691 312.729 812.227 312.729C810.117 312.729 808.564 313.561 807.568 315.225H803.455L804.773 300.635H820.049V304.467H808.289L807.674 311.586H807.973C809.145 310.004 810.932 309.213 813.334 309.213C815.736 309.213 817.711 310.01 819.258 311.604C820.793 313.197 821.561 315.236 821.561 317.721C821.561 320.369 820.699 322.514 818.977 324.154C817.242 325.807 814.969 326.633 812.156 326.633ZM846.012 323.557C846.68 323.557 847.219 323.252 847.629 322.643C848.027 322.033 848.227 321.219 848.227 320.199C848.227 319.156 848.027 318.336 847.629 317.738C847.242 317.141 846.703 316.842 846.012 316.842C845.332 316.842 844.787 317.146 844.377 317.756C843.979 318.354 843.779 319.168 843.779 320.199C843.779 321.23 843.979 322.045 844.377 322.643C844.787 323.252 845.332 323.557 846.012 323.557ZM846.012 326.527C844.301 326.527 842.918 325.941 841.863 324.77C840.797 323.598 840.264 322.074 840.264 320.199C840.264 318.324 840.797 316.807 841.863 315.646C842.918 314.475 844.301 313.889 846.012 313.889C847.711 313.889 849.094 314.475 850.16 315.646C851.215 316.807 851.742 318.324 851.742 320.199C851.742 322.086 851.215 323.609 850.16 324.77C849.094 325.941 847.711 326.527 846.012 326.527ZM830.666 312.746C828.955 312.746 827.566 312.16 826.5 310.988C825.434 309.816 824.9 308.293 824.9 306.418C824.9 304.543 825.434 303.025 826.5 301.865C827.566 300.693 828.955 300.107 830.666 300.107C832.377 300.107 833.76 300.688 834.814 301.848C835.869 303.02 836.396 304.543 836.396 306.418C836.396 308.293 835.869 309.816 834.814 310.988C833.748 312.16 832.365 312.746 830.666 312.746ZM827.379 326L836.994 312.746L845.08 300.635H849.387L839.613 314.064L831.703 326H827.379ZM830.666 309.775C831.334 309.775 831.873 309.471 832.283 308.861C832.682 308.252 832.881 307.432 832.881 306.4C832.881 305.357 832.682 304.537 832.283 303.939C831.896 303.354 831.357 303.061 830.666 303.061C829.975 303.061 829.43 303.359 829.031 303.957C828.633 304.555 828.434 305.369 828.434 306.4C828.434 307.432 828.633 308.252 829.031 308.861C829.441 309.471 829.986 309.775 830.666 309.775ZM880.113 319.514H870.779L868.6 326H864.012L873.012 300.635H878.109L887.127 326H882.258L880.113 319.514ZM871.834 315.928H879.059L875.613 305.469H875.314L871.834 315.928ZM906.902 326V304.555H898.834L898.148 316.139C897.949 319.432 897.334 321.881 896.303 323.486C895.154 325.291 893.391 326.193 891.012 326.193C890.344 326.193 889.787 326.123 889.342 325.982V321.887C889.693 321.969 890.062 322.01 890.449 322.01C891.68 322.01 892.57 321.424 893.121 320.252C893.566 319.326 893.842 317.861 893.947 315.857L894.756 300.635H911.438V326H906.902ZM923.373 311.533L932.9 300.635H938.104L927.223 312.975L938.912 326H933.322L923.391 315.137H922.6V326H918.064V300.635H922.6V311.533H923.373ZM953.168 300.002C956.848 300.002 959.766 301.197 961.922 303.588C964.066 305.979 965.139 309.219 965.139 313.309C965.139 317.398 964.066 320.639 961.922 323.029C959.777 325.432 956.859 326.633 953.168 326.633C949.453 326.633 946.518 325.438 944.361 323.047C942.217 320.656 941.145 317.41 941.145 313.309C941.145 309.219 942.229 305.979 944.396 303.588C946.553 301.197 949.477 300.002 953.168 300.002ZM953.168 304.027C950.906 304.027 949.113 304.865 947.789 306.541C946.453 308.217 945.785 310.473 945.785 313.309C945.785 316.156 946.441 318.412 947.754 320.076C949.078 321.764 950.883 322.607 953.168 322.607C955.418 322.607 957.205 321.764 958.529 320.076C959.842 318.4 960.498 316.145 960.498 313.309C960.498 310.473 959.842 308.217 958.529 306.541C957.205 304.865 955.418 304.027 953.168 304.027ZM970.799 326V300.635H986.672V304.572H975.352V326H970.799ZM1001.86 300.002C1005.54 300.002 1008.46 301.197 1010.61 303.588C1012.76 305.979 1013.83 309.219 1013.83 313.309C1013.83 317.398 1012.76 320.639 1010.61 323.029C1008.47 325.432 1005.55 326.633 1001.86 326.633C998.145 326.633 995.209 325.438 993.053 323.047C990.908 320.656 989.836 317.41 989.836 313.309C989.836 309.219 990.92 305.979 993.088 303.588C995.244 301.197 998.168 300.002 1001.86 300.002ZM1001.86 304.027C999.598 304.027 997.805 304.865 996.48 306.541C995.145 308.217 994.477 310.473 994.477 313.309C994.477 316.156 995.133 318.412 996.445 320.076C997.77 321.764 999.574 322.607 1001.86 322.607C1004.11 322.607 1005.9 321.764 1007.22 320.076C1008.53 318.4 1009.19 316.145 1009.19 313.309C1009.19 310.473 1008.53 308.217 1007.22 306.541C1005.9 304.865 1004.11 304.027 1001.86 304.027ZM1034.55 326V304.555H1026.49L1025.8 316.139C1025.6 319.432 1024.99 321.881 1023.96 323.486C1022.81 325.291 1021.04 326.193 1018.66 326.193C1018 326.193 1017.44 326.123 1016.99 325.982V321.887C1017.35 321.969 1017.71 322.01 1018.1 322.01C1019.33 322.01 1020.22 321.424 1020.77 320.252C1021.22 319.326 1021.49 317.861 1021.6 315.857L1022.41 300.635H1039.09V326H1034.55ZM1059.62 304.414H1054.93C1053.37 304.414 1052.15 304.795 1051.27 305.557C1050.4 306.307 1049.97 307.361 1049.97 308.721C1049.97 310.092 1050.4 311.152 1051.27 311.902C1052.14 312.664 1053.36 313.045 1054.93 313.045H1059.62V304.414ZM1049.2 326H1044.1L1050.99 316.033C1049.28 315.541 1047.91 314.65 1046.89 313.361C1045.85 312.049 1045.33 310.496 1045.33 308.703C1045.33 306.301 1046.13 304.355 1047.74 302.867C1049.37 301.379 1051.51 300.635 1054.15 300.635H1064.12V326H1059.62V316.666H1055.58L1049.2 326Z" fill="white"/>
<path d="M59 97.5581C63.9899 96.6509 67.1623 95.7436 71.248 94.3827C75.3336 93.0218 77.6106 90.9672 78.9626 88.9392C78.9888 88.9 79.015 88.8606 79.0412 88.8209C82.9213 82.9667 83.2994 75.5116 83.4886 68.4909C83.4963 68.2077 83.5002 67.9173 83.5 67.6188C83.4976 63.0825 83.4973 63.0825 83.5 58.9999" stroke="#F5F5F5" stroke-width="5" stroke-linecap="round" stroke-linejoin="round"/>
<path d="M59.0042 97.5581C63.9941 98.4654 67.1623 99.8262 71.248 101.187C75.3336 102.548 77.6106 104.603 78.9626 106.631C78.9888 106.67 79.015 106.709 79.0412 106.749C82.9213 112.603 83.2993 120.058 83.4886 127.079C83.4963 127.362 83.5002 127.653 83.5 127.951C83.4976 132.487 83.4973 132.487 83.5 136.57" stroke="#F5F5F5" stroke-width="5" stroke-linecap="round" stroke-linejoin="round"/>
<path d="M108 97.5581C103.01 96.6509 99.8377 95.7436 95.752 94.3827C91.6664 93.0218 89.3894 90.9672 88.0374 88.9392C88.0112 88.9 87.985 88.8606 87.9588 88.8209C84.0787 82.9667 83.7006 75.5116 83.5114 68.4909C83.5037 68.2077 83.4998 67.9173 83.5 67.6188C83.5024 63.0825 83.5027 63.0825 83.5 58.9999" stroke="#F5F5F5" stroke-width="5" stroke-linecap="round" stroke-linejoin="round"/>
<path d="M107.996 97.5581C103.006 98.4654 99.8377 99.8262 95.752 101.187C91.6664 102.548 89.3894 104.603 88.0374 106.631C88.0112 106.67 87.985 106.709 87.9588 106.749C84.0787 112.603 83.7007 120.058 83.5114 127.079C83.5037 127.362 83.4998 127.653 83.5 127.951C83.5024 132.487 83.5027 132.487 83.5 136.57" stroke="#F5F5F5" stroke-width="5" stroke-linecap="round" stroke-linejoin="round"/>
<path d="M1167 97.5581C1171.99 96.6509 1175.16 95.7436 1179.25 94.3827C1183.33 93.0218 1185.61 90.9672 1186.96 88.9392C1186.99 88.9 1187.01 88.8606 1187.04 88.8209C1190.92 82.9667 1191.3 75.5116 1191.49 68.4909C1191.5 68.2077 1191.5 67.9173 1191.5 67.6188C1191.5 63.0825 1191.5 63.0825 1191.5 58.9999" stroke="#F5F5F5" stroke-width="5" stroke-linecap="round" stroke-linejoin="round"/>
<path d="M1167 97.5581C1171.99 98.4654 1175.16 99.8262 1179.25 101.187C1183.33 102.548 1185.61 104.603 1186.96 106.631C1186.99 106.67 1187.01 106.709 1187.04 106.749C1190.92 112.603 1191.3 120.058 1191.49 127.079C1191.5 127.362 1191.5 127.653 1191.5 127.951C1191.5 132.487 1191.5 132.487 1191.5 136.57" stroke="#F5F5F5" stroke-width="5" stroke-linecap="round" stroke-linejoin="round"/>
<path d="M1216 97.5581C1211.01 96.6509 1207.84 95.7436 1203.75 94.3827C1199.67 93.0218 1197.39 90.9672 1196.04 88.9392C1196.01 88.9 1195.99 88.8606 1195.96 88.8209C1192.08 82.9667 1191.7 75.5116 1191.51 68.4909C1191.5 68.2077 1191.5 67.9173 1191.5 67.6188C1191.5 63.0825 1191.5 63.0825 1191.5 58.9999" stroke="#F5F5F5" stroke-width="5" stroke-linecap="round" stroke-linejoin="round"/>
<path d="M1216 97.5581C1211.01 98.4654 1207.84 99.8262 1203.75 101.187C1199.67 102.548 1197.39 104.603 1196.04 106.631C1196.01 106.67 1195.99 106.709 1195.96 106.749C1192.08 112.603 1191.7 120.058 1191.51 127.079C1191.5 127.362 1191.5 127.653 1191.5 127.951C1191.5 132.487 1191.5 132.487 1191.5 136.57" stroke="#F5F5F5" stroke-width="5" stroke-linecap="round" stroke-linejoin="round"/>
<path d="M59 528.558C63.9899 527.651 67.1623 526.744 71.248 525.383C75.3336 524.022 77.6106 521.967 78.9626 519.939C78.9888 519.9 79.015 519.861 79.0412 519.821C82.9213 513.967 83.2994 506.512 83.4886 499.491C83.4963 499.208 83.5002 498.917 83.5 498.619C83.4976 494.082 83.4973 494.082 83.5 490" stroke="#F5F5F5" stroke-width="5" stroke-linecap="round" stroke-linejoin="round"/>
<path d="M59.0042 528.558C63.9941 529.465 67.1623 530.826 71.248 532.187C75.3336 533.548 77.6106 535.603 78.9626 537.631C78.9888 537.67 79.015 537.709 79.0412 537.749C82.9213 543.603 83.2993 551.058 83.4886 558.079C83.4963 558.362 83.5002 558.653 83.5 558.951C83.4976 563.487 83.4973 563.487 83.5 567.57" stroke="#F5F5F5" stroke-width="5" stroke-linecap="round" stroke-linejoin="round"/>
<path d="M108 528.558C103.01 527.651 99.8377 526.744 95.752 525.383C91.6664 524.022 89.3894 521.967 88.0374 519.939C88.0112 519.9 87.985 519.861 87.9588 519.821C84.0787 513.967 83.7006 506.512 83.5114 499.491C83.5037 499.208 83.4998 498.917 83.5 498.619C83.5024 494.082 83.5027 494.082 83.5 490" stroke="#F5F5F5" stroke-width="5" stroke-linecap="round" stroke-linejoin="round"/>
<path d="M107.996 528.558C103.006 529.465 99.8377 530.826 95.752 532.187C91.6664 533.548 89.3894 535.603 88.0374 537.631C88.0112 537.67 87.985 537.709 87.9588 537.749C84.0787 543.603 83.7007 551.058 83.5114 558.079C83.5037 558.362 83.4998 558.653 83.5 558.951C83.5024 563.487 83.5027 563.487 83.5 567.57" stroke="#F5F5F5" stroke-width="5" stroke-linecap="round" stroke-linejoin="round"/>
<path d="M1167 528.558C1171.99 527.651 1175.16 526.744 1179.25 525.383C1183.33 524.022 1185.61 521.967 1186.96 519.939C1186.99 519.9 1187.01 519.861 1187.04 519.821C1190.92 513.967 1191.3 506.512 1191.49 499.491C1191.5 499.208 1191.5 498.917 1191.5 498.619C1191.5 494.082 1191.5 494.082 1191.5 490" stroke="#F5F5F5" stroke-width="5" stroke-linecap="round" stroke-linejoin="round"/>
<path d="M1167 528.558C1171.99 529.465 1175.16 530.826 1179.25 532.187C1183.33 533.548 1185.61 535.603 1186.96 537.631C1186.99 537.67 1187.01 537.709 1187.04 537.749C1190.92 543.603 1191.3 551.058 1191.49 558.079C1191.5 558.362 1191.5 558.653 1191.5 558.951C1191.5 563.487 1191.5 563.487 1191.5 567.57" stroke="#F5F5F5" stroke-width="5" stroke-linecap="round" stroke-linejoin="round"/>
<path d="M1216 528.558C1211.01 527.651 1207.84 526.744 1203.75 525.383C1199.67 524.022 1197.39 521.967 1196.04 519.939C1196.01 519.9 1195.99 519.861 1195.96 519.821C1192.08 513.967 1191.7 506.512 1191.51 499.491C1191.5 499.208 1191.5 498.917 1191.5 498.619C1191.5 494.082 1191.5 494.082 1191.5 490" stroke="#F5F5F5" stroke-width="5" stroke-linecap="round" stroke-linejoin="round"/>
<path d="M1216 528.558C1211.01 529.465 1207.84 530.826 1203.75 532.187C1199.67 533.548 1197.39 535.603 1196.04 537.631C1196.01 537.67 1195.99 537.709 1195.96 537.749C1192.08 543.603 1191.7 551.058 1191.51 558.079C1191.5 558.362 1191.5 558.653 1191.5 558.951C1191.5 563.487 1191.5 563.487 1191.5 567.57" stroke="#F5F5F5" stroke-width="5" stroke-linecap="round" stroke-linejoin="round"/>
<defs>
<filter id="filter0_b" x="-20" y="-20" width="1309" height="667" filterUnits="userSpaceOnUse" color-interpolation-filters="sRGB">
<feFlood flood-opacity="0" result="BackgroundImageFix"/>
<feGaussianBlur in="BackgroundImage" stdDeviation="10"/>
<feComposite in2="SourceAlpha" operator="in" result="effect1_backgroundBlur"/>
<feBlend mode="normal" in="SourceGraphic" in2="effect1_backgroundBlur" result="shape"/>
</filter>
</defs>
</svg>
