<svg width="529" height="293" viewBox="0 0 529 293" fill="none" xmlns="http://www.w3.org/2000/svg">
<g filter="url(#filter0_b)">
<rect width="529" height="293" rx="8" fill="white"/>
</g>
<path d="M21.5632 43.0586C23.7708 42.6572 25.1743 42.2558 26.9819 41.6538C28.7894 41.0517 29.7968 40.1427 30.3949 39.2455V39.2455C32.1418 36.6252 32.3284 33.2843 32.3989 30.136C32.4012 30.0307 32.4024 29.9231 32.4023 29.813C32.4013 27.8061 32.4012 27.8061 32.4023 25.9999" stroke="#AFBFFF" stroke-width="3" stroke-linecap="round" stroke-linejoin="round"/>
<path d="M21.565 43.0586C23.7727 43.46 25.1743 44.062 26.9819 44.6641C28.7894 45.2662 29.7968 46.1752 30.3949 47.0724V47.0724C32.1418 49.6927 32.3284 53.0335 32.3989 56.1819C32.4012 56.2872 32.4024 56.3948 32.4023 56.5049C32.4013 58.5118 32.4011 58.5118 32.4023 60.318" stroke="#AFBFFF" stroke-width="3" stroke-linecap="round" stroke-linejoin="round"/>
<path d="M43.2415 43.0586C41.0339 42.6572 39.6304 42.2558 37.8228 41.6538C36.0153 41.0517 35.0079 40.1427 34.4097 39.2455V39.2455C32.6629 36.6252 32.4763 33.2843 32.4058 30.136C32.4035 30.0307 32.4023 29.9231 32.4023 29.813C32.4034 27.8061 32.4035 27.8061 32.4023 25.9999" stroke="#AFBFFF" stroke-width="3" stroke-linecap="round" stroke-linejoin="round"/>
<path d="M43.2397 43.0586C41.032 43.46 39.6304 44.062 37.8228 44.6641C36.0153 45.2662 35.0079 46.1752 34.4097 47.0724V47.0724C32.6629 49.6927 32.4763 53.0335 32.4058 56.1819C32.4035 56.2872 32.4023 56.3948 32.4023 56.5049C32.4034 58.5118 32.4035 58.5118 32.4023 60.318" stroke="#AFBFFF" stroke-width="3" stroke-linecap="round" stroke-linejoin="round"/>
<path d="M487 43.0586C489.208 42.6572 490.611 42.2558 492.419 41.6538C494.226 41.0517 495.234 40.1427 495.832 39.2455V39.2455C497.579 36.6252 497.765 33.2843 497.836 30.136C497.838 30.0307 497.839 29.9231 497.839 29.813C497.838 27.8061 497.838 27.8061 497.839 25.9999" stroke="#AFBFFF" stroke-width="3" stroke-linecap="round" stroke-linejoin="round"/>
<path d="M487.002 43.0586C489.209 43.46 490.611 44.062 492.419 44.6641C494.226 45.2662 495.234 46.1752 495.832 47.0724V47.0724C497.579 49.6927 497.765 53.0335 497.836 56.1819C497.838 56.2872 497.839 56.3948 497.839 56.5049C497.838 58.5118 497.838 58.5118 497.839 60.318" stroke="#AFBFFF" stroke-width="3" stroke-linecap="round" stroke-linejoin="round"/>
<path d="M508.678 43.0586C506.471 42.6572 505.067 42.2558 503.26 41.6538C501.452 41.0517 500.445 40.1427 499.847 39.2455V39.2455C498.1 36.6252 497.913 33.2843 497.843 30.136C497.84 30.0307 497.839 29.9231 497.839 29.813C497.84 27.8061 497.84 27.8061 497.839 25.9999" stroke="#AFBFFF" stroke-width="3" stroke-linecap="round" stroke-linejoin="round"/>
<path d="M508.676 43.0586C506.469 43.46 505.067 44.062 503.26 44.6641C501.452 45.2662 500.445 46.1752 499.847 47.0724V47.0724C498.1 49.6927 497.913 53.0335 497.843 56.1819C497.84 56.2872 497.839 56.3948 497.839 56.5049C497.84 58.5118 497.84 58.5118 497.839 60.318" stroke="#AFBFFF" stroke-width="3" stroke-linecap="round" stroke-linejoin="round"/>
<path d="M21.5632 252.059C23.7708 251.657 25.1743 251.256 26.9819 250.654C28.7894 250.052 29.7968 249.143 30.3949 248.245V248.245C32.1418 245.625 32.3284 242.284 32.3989 239.136C32.4012 239.031 32.4024 238.923 32.4023 238.813C32.4013 236.806 32.4012 236.806 32.4023 235" stroke="#AFBFFF" stroke-width="3" stroke-linecap="round" stroke-linejoin="round"/>
<path d="M21.565 252.059C23.7727 252.46 25.1743 253.062 26.9819 253.664C28.7894 254.266 29.7968 255.175 30.3949 256.072V256.072C32.1418 258.693 32.3284 262.034 32.3989 265.182C32.4012 265.287 32.4024 265.395 32.4023 265.505C32.4013 267.512 32.4011 267.512 32.4023 269.318" stroke="#AFBFFF" stroke-width="3" stroke-linecap="round" stroke-linejoin="round"/>
<path d="M43.2415 252.059C41.0339 251.657 39.6304 251.256 37.8228 250.654C36.0153 250.052 35.0079 249.143 34.4097 248.245V248.245C32.6629 245.625 32.4763 242.284 32.4058 239.136C32.4035 239.031 32.4023 238.923 32.4023 238.813C32.4034 236.806 32.4035 236.806 32.4023 235" stroke="#AFBFFF" stroke-width="3" stroke-linecap="round" stroke-linejoin="round"/>
<path d="M43.2397 252.059C41.032 252.46 39.6304 253.062 37.8228 253.664C36.0153 254.266 35.0079 255.175 34.4097 256.072V256.072C32.6629 258.693 32.4763 262.034 32.4058 265.182C32.4035 265.287 32.4023 265.395 32.4023 265.505C32.4034 267.512 32.4035 267.512 32.4023 269.318" stroke="#AFBFFF" stroke-width="3" stroke-linecap="round" stroke-linejoin="round"/>
<path d="M487 252.059C489.208 251.657 490.611 251.256 492.419 250.654C494.226 250.052 495.234 249.143 495.832 248.245V248.245C497.579 245.625 497.765 242.284 497.836 239.136C497.838 239.031 497.839 238.923 497.839 238.813C497.838 236.806 497.838 236.806 497.839 235" stroke="#AFBFFF" stroke-width="3" stroke-linecap="round" stroke-linejoin="round"/>
<path d="M487.002 252.059C489.209 252.46 490.611 253.062 492.419 253.664C494.226 254.266 495.234 255.175 495.832 256.072V256.072C497.579 258.693 497.765 262.034 497.836 265.182C497.838 265.287 497.839 265.395 497.839 265.505C497.838 267.512 497.838 267.512 497.839 269.318" stroke="#AFBFFF" stroke-width="3" stroke-linecap="round" stroke-linejoin="round"/>
<path d="M508.678 252.059C506.471 251.657 505.067 251.256 503.26 250.654C501.452 250.052 500.445 249.143 499.847 248.245V248.245C498.1 245.625 497.913 242.284 497.843 239.136C497.84 239.031 497.839 238.923 497.839 238.813C497.84 236.806 497.84 236.806 497.839 235" stroke="#AFBFFF" stroke-width="3" stroke-linecap="round" stroke-linejoin="round"/>
<path d="M508.676 252.059C506.469 252.46 505.067 253.062 503.26 253.664C501.452 254.266 500.445 255.175 499.847 256.072V256.072C498.1 258.693 497.913 262.034 497.843 265.182C497.84 265.287 497.839 265.395 497.839 265.505C497.84 267.512 497.84 267.512 497.839 269.318" stroke="#AFBFFF" stroke-width="3" stroke-linecap="round" stroke-linejoin="round"/>
<path d="M121.987 143.316C120.188 143.316 118.768 142.722 117.725 141.532C116.682 140.337 116.16 138.714 116.16 136.663C116.16 134.601 116.682 132.975 117.725 131.785C118.762 130.596 120.18 130.001 121.979 130.001C123.42 130.001 124.642 130.426 125.644 131.275C126.646 132.119 127.214 133.203 127.349 134.527H125.116C124.958 133.766 124.595 133.159 124.026 132.708C123.458 132.251 122.775 132.022 121.979 132.022C120.9 132.022 120.048 132.438 119.421 133.271C118.794 134.097 118.48 135.225 118.48 136.654C118.48 138.084 118.794 139.215 119.421 140.047C120.048 140.879 120.903 141.295 121.987 141.295C122.79 141.295 123.476 141.087 124.044 140.671C124.612 140.249 124.973 139.684 125.125 138.975H127.357C127.205 140.275 126.64 141.324 125.661 142.121C124.671 142.918 123.446 143.316 121.987 143.316ZM138.502 143V132.286H132.49V143H130.214V130.317H140.761V143H138.502ZM151.176 139.757H146.509L145.419 143H143.125L147.625 130.317H150.174L154.683 143H152.248L151.176 139.757ZM147.036 137.964H150.648L148.926 132.734H148.776L147.036 137.964ZM161.819 143.316C160.021 143.316 158.6 142.722 157.557 141.532C156.514 140.337 155.992 138.714 155.992 136.663C155.992 134.601 156.514 132.975 157.557 131.785C158.594 130.596 160.012 130.001 161.811 130.001C163.252 130.001 164.474 130.426 165.476 131.275C166.478 132.119 167.046 133.203 167.181 134.527H164.948C164.79 133.766 164.427 133.159 163.858 132.708C163.29 132.251 162.607 132.022 161.811 132.022C160.732 132.022 159.88 132.438 159.253 133.271C158.626 134.097 158.312 135.225 158.312 136.654C158.312 138.084 158.626 139.215 159.253 140.047C159.88 140.879 160.735 141.295 161.819 141.295C162.622 141.295 163.308 141.087 163.876 140.671C164.444 140.249 164.805 139.684 164.957 138.975H167.189C167.037 140.275 166.472 141.324 165.493 142.121C164.503 142.918 163.278 143.316 161.819 143.316ZM178.519 133.982H178.369L172.243 143H170.046V130.317H172.305V139.353H172.454L178.571 130.317H180.769V143H178.519V133.982ZM193.354 139.062C193.354 140.234 192.959 141.184 192.168 141.91C191.377 142.637 190.349 143 189.083 143H184.091V130.317H192.15V132.277H186.358V135.169H189.013C190.296 135.169 191.339 135.526 192.142 136.241C192.95 136.968 193.354 137.908 193.354 139.062ZM188.512 141.093C189.314 141.093 189.936 140.917 190.375 140.565C190.814 140.214 191.034 139.713 191.034 139.062C191.034 138.4 190.814 137.894 190.375 137.542C189.936 137.19 189.312 137.015 188.503 137.015H186.358V141.093H188.512ZM201.572 130.001C203.412 130.001 204.871 130.599 205.949 131.794C207.021 132.989 207.558 134.609 207.558 136.654C207.558 138.699 207.021 140.319 205.949 141.515C204.877 142.716 203.418 143.316 201.572 143.316C199.715 143.316 198.247 142.719 197.169 141.523C196.097 140.328 195.561 138.705 195.561 136.654C195.561 134.609 196.103 132.989 197.187 131.794C198.265 130.599 199.727 130.001 201.572 130.001ZM201.572 132.014C200.441 132.014 199.545 132.433 198.883 133.271C198.215 134.108 197.881 135.236 197.881 136.654C197.881 138.078 198.209 139.206 198.865 140.038C199.527 140.882 200.43 141.304 201.572 141.304C202.697 141.304 203.591 140.882 204.253 140.038C204.909 139.2 205.237 138.072 205.237 136.654C205.237 135.236 204.909 134.108 204.253 133.271C203.591 132.433 202.697 132.014 201.572 132.014ZM217.542 135.617H219.238C219.906 135.617 220.448 135.438 220.864 135.081C221.28 134.729 221.488 134.27 221.488 133.701C221.488 133.139 221.292 132.693 220.899 132.365C220.495 132.031 219.941 131.864 219.238 131.864C218.535 131.864 217.967 132.037 217.533 132.383C217.105 132.723 216.868 133.188 216.821 133.78H214.694C214.753 132.62 215.192 131.7 216.013 131.021C216.839 130.341 217.938 130.001 219.309 130.001C220.598 130.001 221.649 130.317 222.464 130.95C223.284 131.589 223.694 132.415 223.694 133.429C223.694 134.132 223.48 134.75 223.053 135.283C222.619 135.822 222.06 136.168 221.374 136.32V136.47C222.218 136.558 222.897 136.868 223.413 137.401C223.94 137.958 224.204 138.664 224.204 139.52C224.204 140.615 223.738 141.523 222.807 142.244C221.875 142.959 220.712 143.316 219.317 143.316C217.905 143.316 216.757 142.968 215.872 142.271C214.981 141.567 214.507 140.639 214.448 139.484H216.628C216.675 140.064 216.941 140.527 217.428 140.873C217.914 141.219 218.547 141.392 219.326 141.392C220.094 141.392 220.712 141.204 221.181 140.829C221.644 140.46 221.875 139.977 221.875 139.379C221.875 138.787 221.649 138.324 221.198 137.99C220.735 137.65 220.094 137.48 219.273 137.48H217.542V135.617ZM233.934 139.757H229.267L228.177 143H225.883L230.383 130.317H232.932L237.44 143H235.006L233.934 139.757ZM229.794 137.964H233.406L231.684 132.734H231.534L229.794 137.964ZM252.883 143V132.286H246.871V143H244.595V130.317H255.142V143H252.883ZM263.975 130.001C265.814 130.001 267.273 130.599 268.352 131.794C269.424 132.989 269.96 134.609 269.96 136.654C269.96 138.699 269.424 140.319 268.352 141.515C267.279 142.716 265.82 143.316 263.975 143.316C262.117 143.316 260.649 142.719 259.571 141.523C258.499 140.328 257.963 138.705 257.963 136.654C257.963 134.609 258.505 132.989 259.589 131.794C260.667 130.599 262.129 130.001 263.975 130.001ZM263.975 132.014C262.844 132.014 261.947 132.433 261.285 133.271C260.617 134.108 260.283 135.236 260.283 136.654C260.283 138.078 260.611 139.206 261.268 140.038C261.93 140.882 262.832 141.304 263.975 141.304C265.1 141.304 265.993 140.882 266.655 140.038C267.312 139.2 267.64 138.072 267.64 136.654C267.64 135.236 267.312 134.108 266.655 133.271C265.993 132.433 265.1 132.014 263.975 132.014ZM275.444 135.767L280.208 130.317H282.81L277.369 136.487L283.214 143H280.419L275.453 137.568H275.058V143H272.79V130.317H275.058V135.767H275.444ZM286.87 143.105C286.419 143.105 286.1 143.064 285.912 142.982V141.04C286.152 141.093 286.401 141.119 286.659 141.119C287.503 141.119 288.136 140.771 288.558 140.073L284.304 130.317H286.703L289.683 137.718H289.832L292.715 130.317H295.088L291.203 139.37C290.641 140.671 290.078 141.591 289.516 142.13C288.83 142.78 287.948 143.105 286.87 143.105ZM305.723 143V132.286H299.711V143H297.435V130.317H307.981V143H305.723ZM313.94 135.767L318.704 130.317H321.306L315.865 136.487L321.71 143H318.915L313.949 137.568H313.554V143H311.286V130.317H313.554V135.767H313.94ZM325.366 143.105C324.915 143.105 324.596 143.064 324.408 142.982V141.04C324.648 141.093 324.897 141.119 325.155 141.119C325.999 141.119 326.632 140.771 327.054 140.073L322.8 130.317H325.199L328.179 137.718H328.328L331.211 130.317H333.584L329.699 139.37C329.137 140.671 328.574 141.591 328.012 142.13C327.326 142.78 326.444 143.105 325.366 143.105ZM338.55 130.309L338.348 138.808H336.317L336.115 130.309H338.55ZM335.878 141.831C335.878 141.403 336.01 141.063 336.273 140.812C336.537 140.554 336.892 140.425 337.337 140.425C337.782 140.425 338.137 140.554 338.4 140.812C338.664 141.063 338.796 141.403 338.796 141.831C338.796 142.253 338.664 142.59 338.4 142.842C338.137 143.1 337.782 143.229 337.337 143.229C336.892 143.229 336.537 143.1 336.273 142.842C336.01 142.59 335.878 142.253 335.878 141.831ZM125.081 164V158.524H118.911V164H116.644V151.317H118.911V156.564H125.081V151.317H127.34V164H125.081ZM138.862 164H130.653V151.317H138.862V153.277H132.921V156.644H138.537V158.489H132.921V162.04H138.862V164ZM149.005 156.617H150.701C151.369 156.617 151.911 156.438 152.327 156.081C152.743 155.729 152.951 155.27 152.951 154.701C152.951 154.139 152.755 153.693 152.362 153.365C151.958 153.031 151.404 152.864 150.701 152.864C149.998 152.864 149.43 153.037 148.996 153.383C148.568 153.723 148.331 154.188 148.284 154.78H146.157C146.216 153.62 146.655 152.7 147.476 152.021C148.302 151.341 149.4 151.001 150.771 151.001C152.061 151.001 153.112 151.317 153.927 151.95C154.747 152.589 155.157 153.415 155.157 154.429C155.157 155.132 154.943 155.75 154.516 156.283C154.082 156.822 153.522 157.168 152.837 157.32V157.47C153.681 157.558 154.36 157.868 154.876 158.401C155.403 158.958 155.667 159.664 155.667 160.52C155.667 161.615 155.201 162.523 154.27 163.244C153.338 163.959 152.175 164.316 150.78 164.316C149.368 164.316 148.22 163.968 147.335 163.271C146.444 162.567 145.97 161.639 145.911 160.484H148.091C148.138 161.064 148.404 161.527 148.891 161.873C149.377 162.219 150.01 162.392 150.789 162.392C151.557 162.392 152.175 162.204 152.644 161.829C153.106 161.46 153.338 160.977 153.338 160.379C153.338 159.787 153.112 159.324 152.661 158.99C152.198 158.65 151.557 158.48 150.736 158.48H149.005V156.617ZM165.396 160.757H160.729L159.64 164H157.346L161.846 151.317H164.395L168.903 164H166.469L165.396 160.757ZM161.257 158.964H164.869L163.146 153.734H162.997L161.257 158.964ZM180.522 160.062C180.522 161.234 180.127 162.184 179.336 162.91C178.545 163.637 177.517 164 176.251 164H171.259V151.317H179.318V153.277H173.526V156.169H176.181C177.464 156.169 178.507 156.526 179.31 157.241C180.118 157.968 180.522 158.908 180.522 160.062ZM175.68 162.093C176.482 162.093 177.104 161.917 177.543 161.565C177.982 161.214 178.202 160.713 178.202 160.062C178.202 159.4 177.982 158.894 177.543 158.542C177.104 158.19 176.479 158.015 175.671 158.015H173.526V162.093H175.68ZM194.093 164V151.317H196.36V164H194.093ZM183.273 151.317H185.541V155.712H188.23C189.52 155.712 190.568 156.093 191.377 156.854C192.191 157.622 192.599 158.621 192.599 159.852C192.599 161.088 192.203 162.09 191.412 162.857C190.621 163.619 189.593 164 188.327 164H183.273V151.317ZM187.729 162.093C188.538 162.093 189.165 161.899 189.61 161.513C190.056 161.126 190.278 160.572 190.278 159.852C190.278 159.131 190.056 158.574 189.61 158.182C189.165 157.795 188.535 157.602 187.721 157.602H185.541V162.093H187.729ZM199.665 164V151.317H204.965C206.166 151.317 207.109 151.602 207.795 152.17C208.48 152.732 208.823 153.503 208.823 154.481C208.823 155.149 208.606 155.744 208.173 156.266C207.739 156.787 207.203 157.098 206.564 157.197V157.355C207.42 157.438 208.114 157.757 208.647 158.313C209.181 158.876 209.447 159.57 209.447 160.396C209.447 161.51 209.061 162.389 208.287 163.033C207.508 163.678 206.441 164 205.088 164H199.665ZM201.933 156.652H204.121C205.762 156.652 206.582 156.063 206.582 154.886C206.582 154.329 206.392 153.896 206.011 153.585C205.63 153.274 205.097 153.119 204.411 153.119H201.933V156.652ZM204.569 162.198C206.274 162.198 207.127 161.539 207.127 160.221C207.127 158.932 206.245 158.287 204.481 158.287H201.933V162.198H204.569ZM219.203 160.757H214.536L213.446 164H211.152L215.652 151.317H218.201L222.71 164H220.275L219.203 160.757ZM215.063 158.964H218.676L216.953 153.734H216.804L215.063 158.964ZM228.862 147.292C228.868 147.731 229.012 148.083 229.293 148.347C229.568 148.61 229.92 148.742 230.348 148.742C230.781 148.742 231.139 148.61 231.42 148.347C231.701 148.083 231.845 147.731 231.851 147.292H233.564C233.564 148.136 233.271 148.807 232.686 149.305C232.1 149.803 231.32 150.052 230.348 150.052C229.381 150.052 228.607 149.803 228.027 149.305C227.441 148.807 227.148 148.136 227.148 147.292H228.862ZM233.538 154.982H233.389L227.263 164H225.065V151.317H227.324V160.353H227.474L233.591 151.317H235.788V164H233.538V154.982ZM252.197 164V153.286H246.186V164H243.909V151.317H254.456V164H252.197ZM262.876 151.317C264.142 151.317 265.17 151.713 265.961 152.504C266.746 153.295 267.139 154.329 267.139 155.606C267.139 156.86 266.734 157.88 265.926 158.665C265.111 159.45 264.062 159.843 262.779 159.843H260.028V164H257.761V151.317H262.876ZM260.028 157.962H262.27C263.084 157.962 263.714 157.757 264.159 157.347C264.61 156.937 264.836 156.356 264.836 155.606C264.836 154.833 264.613 154.241 264.168 153.831C263.729 153.421 263.099 153.216 262.278 153.216H260.028V157.962ZM275.348 151.001C277.188 151.001 278.646 151.599 279.725 152.794C280.797 153.989 281.333 155.609 281.333 157.654C281.333 159.699 280.797 161.319 279.725 162.515C278.652 163.716 277.193 164.316 275.348 164.316C273.49 164.316 272.022 163.719 270.944 162.523C269.872 161.328 269.336 159.705 269.336 157.654C269.336 155.609 269.878 153.989 270.962 152.794C272.04 151.599 273.502 151.001 275.348 151.001ZM275.348 153.014C274.217 153.014 273.32 153.433 272.658 154.271C271.99 155.108 271.656 156.236 271.656 157.654C271.656 159.078 271.984 160.206 272.641 161.038C273.303 161.882 274.205 162.304 275.348 162.304C276.473 162.304 277.366 161.882 278.028 161.038C278.685 160.2 279.013 159.072 279.013 157.654C279.013 156.236 278.685 155.108 278.028 154.271C277.366 153.433 276.473 153.014 275.348 153.014ZM291.95 158.876C291.856 160.341 291.578 161.349 291.115 161.899V162.04H296.626V153.277H292.311L291.95 158.876ZM289.727 166.505H287.661V162.04H288.566C288.994 161.765 289.308 161.352 289.507 160.801C289.688 160.314 289.806 159.623 289.858 158.727L290.307 151.317H298.885V162.04H300.467V166.505H298.41V164H289.727V166.505ZM311.216 154.982H311.066L304.94 164H302.743V151.317H305.002V160.353H305.151L311.269 151.317H313.466V164H311.216V154.982ZM322.132 164.316C320.333 164.316 318.912 163.722 317.869 162.532C316.826 161.337 316.305 159.714 316.305 157.663C316.305 155.601 316.826 153.975 317.869 152.785C318.906 151.596 320.324 151.001 322.123 151.001C323.564 151.001 324.786 151.426 325.788 152.275C326.79 153.119 327.358 154.203 327.493 155.527H325.261C325.103 154.766 324.739 154.159 324.171 153.708C323.603 153.251 322.92 153.022 322.123 153.022C321.045 153.022 320.192 153.438 319.565 154.271C318.938 155.097 318.625 156.225 318.625 157.654C318.625 159.084 318.938 160.215 319.565 161.047C320.192 161.879 321.048 162.295 322.132 162.295C322.935 162.295 323.62 162.087 324.188 161.671C324.757 161.249 325.117 160.684 325.27 159.975H327.502C327.35 161.275 326.784 162.324 325.806 163.121C324.815 163.918 323.591 164.316 322.132 164.316ZM332.986 164V153.277H329.084V151.317H339.165V153.277H335.254V164H332.986ZM347.523 160.757H342.856L341.767 164H339.473L343.973 151.317H346.521L351.03 164H348.596L347.523 160.757ZM343.384 158.964H346.996L345.273 153.734H345.124L343.384 158.964ZM361.823 164V158.524H355.653V164H353.386V151.317H355.653V156.564H361.823V151.317H364.082V164H361.823ZM377.468 166.505V164H367.396V151.317H369.663V162.04H375.684V151.317H377.942V162.04H379.524V166.505H377.468ZM390.265 154.982H390.115L383.989 164H381.792V151.317H384.051V160.353H384.2L390.317 151.317H392.515V164H390.265V154.982ZM406.006 164.316C404.312 164.316 402.944 163.798 401.901 162.761C400.87 161.735 400.281 160.323 400.135 158.524H398.104V164H395.837V151.317H398.104V156.564H400.152C400.34 154.836 400.949 153.477 401.98 152.486C403.018 151.496 404.359 151.001 406.006 151.001C407.822 151.001 409.261 151.599 410.321 152.794C411.376 153.983 411.903 155.604 411.903 157.654C411.903 159.699 411.376 161.319 410.321 162.515C409.267 163.716 407.828 164.316 406.006 164.316ZM405.997 153.014C404.896 153.014 404.02 153.433 403.369 154.271C402.719 155.108 402.394 156.236 402.394 157.654C402.394 159.078 402.716 160.206 403.36 161.038C404.005 161.882 404.884 162.304 405.997 162.304C407.099 162.304 407.975 161.882 408.625 161.038C409.27 160.2 409.592 159.072 409.592 157.654C409.592 156.236 409.27 155.108 408.625 154.271C407.975 153.433 407.099 153.014 405.997 153.014Z" fill="#AFBFFF"/>
<defs>
<filter id="filter0_b" x="-20" y="-20" width="569" height="333" filterUnits="userSpaceOnUse" color-interpolation-filters="sRGB">
<feFlood flood-opacity="0" result="BackgroundImageFix"/>
<feGaussianBlur in="BackgroundImage" stdDeviation="10"/>
<feComposite in2="SourceAlpha" operator="in" result="effect1_backgroundBlur"/>
<feBlend mode="normal" in="SourceGraphic" in2="effect1_backgroundBlur" result="shape"/>
</filter>
</defs>
</svg>
