<svg width="1267" height="180" viewBox="0 0 1267 180" fill="none" xmlns="http://www.w3.org/2000/svg">
<g filter="url(#filter0_b)">
<rect width="1267" height="180" rx="8" fill="white" fill-opacity="0.2"/>
</g>
<path d="M50.875 85.1562C45.2917 85.1562 40.9167 83.0625 37.75 78.875C34.5625 74.6667 32.9688 68.8333 32.9688 61.375C32.9688 53.9375 34.5625 48.1354 37.75 43.9688C40.9167 39.8229 45.2917 37.75 50.875 37.75C56.4375 37.75 60.8021 39.8229 63.9688 43.9688C67.1771 48.1562 68.7812 53.9688 68.7812 61.4062C68.7812 68.8438 67.1875 74.6667 64 78.875C60.8333 83.0625 56.4583 85.1562 50.875 85.1562ZM50.875 77.4688C53.5 77.4688 55.5417 76.1042 57 73.375C58.4792 70.5833 59.2188 66.5833 59.2188 61.375C59.2188 56.2083 58.4688 52.2396 56.9688 49.4688C55.5312 46.8021 53.5 45.4688 50.875 45.4688C48.2708 45.4688 46.2396 46.8125 44.7812 49.5C43.2812 52.2708 42.5312 56.2292 42.5312 61.375C42.5312 66.5625 43.2812 70.5625 44.7812 73.375C46.2188 76.1042 48.25 77.4688 50.875 77.4688ZM95.3438 85.1562C88.6146 85.1562 83.6562 82.4375 80.4688 77C77.9479 73.125 76.6875 68.0521 76.6875 61.7812C76.6875 54.3021 78.3542 48.4271 81.6875 44.1562C85.0208 39.8854 89.625 37.75 95.5 37.75C99.7917 37.75 103.448 38.9062 106.469 41.2188C109.51 43.5312 111.354 46.5729 112 50.3438H102.656C102.219 48.8646 101.344 47.6875 100.031 46.8125C98.7396 45.9375 97.2083 45.5 95.4375 45.5C92.3542 45.5 89.9375 46.8854 88.1875 49.6562C86.4167 52.4062 85.5833 56.125 85.6875 60.8125H86.25C88.3958 56.375 92.2292 54.1562 97.75 54.1562C102.021 54.1562 105.562 55.5729 108.375 58.4062C111.188 61.2396 112.594 64.8125 112.594 69.125C112.594 73.8125 110.979 77.6562 107.75 80.6562C104.521 83.6562 100.385 85.1562 95.3438 85.1562ZM95.25 77.4062C97.5625 77.4062 99.5104 76.6354 101.094 75.0938C102.656 73.5729 103.438 71.6771 103.438 69.4062C103.438 67.1146 102.667 65.2083 101.125 63.6875C99.5833 62.1875 97.6354 61.4375 95.2812 61.4375C92.9271 61.4375 90.9688 62.1875 89.4062 63.6875C87.8646 65.1875 87.0938 67.0625 87.0938 69.3125C87.0938 71.6042 87.875 73.5312 89.4375 75.0938C91 76.6354 92.9375 77.4062 95.25 77.4062ZM125.531 84.8438C123.885 84.8438 122.542 84.3333 121.5 83.3125C120.5 82.2917 120 80.9896 120 79.4062C120 77.8229 120.5 76.5312 121.5 75.5312C122.521 74.5104 123.865 74 125.531 74C127.198 74 128.542 74.5104 129.562 75.5312C130.562 76.5104 131.062 77.8021 131.062 79.4062C131.062 81.0104 130.562 82.3125 129.562 83.3125C128.542 84.3333 127.198 84.8438 125.531 84.8438ZM155.25 85.1562C149.667 85.1562 145.292 83.0625 142.125 78.875C138.938 74.6667 137.344 68.8333 137.344 61.375C137.344 53.9375 138.938 48.1354 142.125 43.9688C145.292 39.8229 149.667 37.75 155.25 37.75C160.812 37.75 165.177 39.8229 168.344 43.9688C171.552 48.1562 173.156 53.9688 173.156 61.4062C173.156 68.8438 171.562 74.6667 168.375 78.875C165.208 83.0625 160.833 85.1562 155.25 85.1562ZM155.25 77.4688C157.875 77.4688 159.917 76.1042 161.375 73.375C162.854 70.5833 163.594 66.5833 163.594 61.375C163.594 56.2083 162.844 52.2396 161.344 49.4688C159.906 46.8021 157.875 45.4688 155.25 45.4688C152.646 45.4688 150.615 46.8125 149.156 49.5C147.656 52.2708 146.906 56.2292 146.906 61.375C146.906 66.5625 147.656 70.5625 149.156 73.375C150.594 76.1042 152.625 77.4688 155.25 77.4688ZM202.906 47.25V46.6562H180.562V38.875H212.344V46.75L193.5 84H183.625L202.906 47.25Z" fill="white"/>
<path d="M35.6094 124.758V129.715H39.4238C41.6738 129.715 42.7988 128.883 42.7988 127.219C42.7988 125.578 41.8145 124.758 39.8457 124.758H35.6094ZM35.6094 132.492V138.1H40.1621C42.4473 138.1 43.5898 137.168 43.5898 135.305C43.5898 133.43 42.2891 132.492 39.6875 132.492H35.6094ZM31.8652 121.857H40.5664C42.4297 121.857 43.8887 122.297 44.9434 123.176C45.9863 124.043 46.5078 125.227 46.5078 126.727C46.5078 127.699 46.2031 128.572 45.5938 129.346C44.9727 130.119 44.1992 130.594 43.2734 130.77V131.068C44.5039 131.209 45.4941 131.689 46.2441 132.51C46.9941 133.318 47.3691 134.309 47.3691 135.48C47.3691 137.168 46.7773 138.504 45.5938 139.488C44.3867 140.496 42.7402 141 40.6543 141H31.8652V121.857ZM69.377 121.857H73.1562V141H69.377V121.857ZM56.2812 130.893V137.818H59.6387C60.7754 137.818 61.6895 137.502 62.3809 136.869C63.0605 136.236 63.4004 135.398 63.4004 134.355C63.4004 133.312 63.0605 132.475 62.3809 131.842C61.6895 131.209 60.7754 130.893 59.6387 130.893H56.2812ZM52.502 121.857H56.2812V127.729H59.9199C62.1348 127.729 63.8984 128.326 65.2109 129.521C66.5234 130.717 67.1797 132.328 67.1797 134.355C67.1797 136.383 66.5234 138 65.2109 139.207C63.8984 140.402 62.1348 141 59.9199 141H52.502V121.857ZM91.543 128.115C91.3086 127.143 90.8164 126.369 90.0664 125.795C89.2578 125.174 88.2441 124.863 87.0254 124.863C85.4434 124.863 84.2012 125.438 83.2988 126.586C82.3848 127.734 81.9277 129.328 81.9277 131.367C81.9277 133.43 82.3848 135.053 83.2988 136.236C84.2012 137.408 85.4434 137.994 87.0254 137.994C89.5332 137.994 91.0391 136.945 91.543 134.848H95.2168C94.9707 136.816 94.1387 138.387 92.7207 139.559C91.2559 140.766 89.3633 141.369 87.043 141.369C84.2539 141.369 82.0625 140.484 80.4688 138.715C78.8633 136.934 78.0605 134.484 78.0605 131.367C78.0605 128.297 78.8574 125.883 80.4512 124.125C82.0449 122.367 84.2363 121.488 87.0254 121.488C89.3574 121.488 91.2617 122.115 92.7383 123.369C94.1328 124.553 94.959 126.135 95.2168 128.115H91.543ZM113.34 125.039H107.311V141H103.531V125.039H97.502V121.857H113.34V125.039ZM119.51 147.961C118.76 147.961 118.238 147.932 117.945 147.873V144.621C118.215 144.668 118.625 144.691 119.176 144.691C120.078 144.691 120.799 144.486 121.338 144.076C121.877 143.654 122.311 142.963 122.639 142.002L122.92 141.07L115.994 121.857H120.107L124.906 137.062H125.205L129.986 121.857H133.994L126.857 141.791C126.037 144.123 125.094 145.734 124.027 146.625C122.973 147.516 121.467 147.961 119.51 147.961ZM150.746 125.039H141.957V141H138.178V121.857H154.525V141H150.746V125.039ZM165.494 132.246C165.295 135.199 164.785 137.373 163.965 138.768C163.016 140.385 161.539 141.193 159.535 141.193C159.031 141.193 158.598 141.123 158.234 140.982V137.449C158.551 137.543 158.891 137.59 159.254 137.59C160.133 137.59 160.795 137.08 161.24 136.061C161.627 135.182 161.885 133.846 162.014 132.053L162.682 121.857H175.865V141H172.086V125.039H166.021L165.494 132.246ZM189.559 124.705C188.164 124.705 187.016 125.156 186.113 126.059C185.211 126.961 184.707 128.162 184.602 129.662H194.27C194.223 128.15 193.777 126.949 192.934 126.059C192.078 125.156 190.953 124.705 189.559 124.705ZM197.891 135.832C197.457 137.555 196.514 138.908 195.061 139.893C193.596 140.877 191.773 141.369 189.594 141.369C186.852 141.369 184.695 140.484 183.125 138.715C181.543 136.957 180.752 134.549 180.752 131.49C180.752 128.432 181.549 126 183.143 124.195C184.736 122.391 186.881 121.488 189.576 121.488C192.236 121.488 194.328 122.344 195.852 124.055C197.363 125.766 198.119 128.127 198.119 131.139V132.457H184.602V132.668C184.66 134.355 185.146 135.691 186.061 136.676C186.975 137.66 188.188 138.152 189.699 138.152C192.008 138.152 193.525 137.379 194.252 135.832H197.891ZM203.006 121.857H206.785V129.521H215.75V121.857H219.529V141H215.75V132.703H206.785V141H203.006V121.857ZM225.295 141V121.857H229.039V135.023H229.338L238.32 121.857H242.064V141H238.32V127.764H238.021L229.039 141H225.295ZM255.758 124.705C254.363 124.705 253.215 125.156 252.312 126.059C251.41 126.961 250.906 128.162 250.801 129.662H260.469C260.422 128.15 259.977 126.949 259.133 126.059C258.277 125.156 257.152 124.705 255.758 124.705ZM264.09 135.832C263.656 137.555 262.713 138.908 261.26 139.893C259.795 140.877 257.973 141.369 255.793 141.369C253.051 141.369 250.895 140.484 249.324 138.715C247.742 136.957 246.951 134.549 246.951 131.49C246.951 128.432 247.748 126 249.342 124.195C250.936 122.391 253.08 121.488 255.775 121.488C258.436 121.488 260.527 122.344 262.051 124.055C263.562 125.766 264.318 128.127 264.318 131.139V132.457H250.801V132.668C250.859 134.355 251.346 135.691 252.26 136.676C253.174 137.66 254.387 138.152 255.898 138.152C258.207 138.152 259.725 137.379 260.451 135.832H264.09ZM282.828 125.039V141H279.049V121.857H291.652V125.039H282.828ZM306.084 121.541C308.521 121.541 310.455 122.426 311.885 124.195C313.314 125.977 314.029 128.385 314.029 131.42C314.029 134.455 313.314 136.863 311.885 138.645C310.467 140.426 308.545 141.316 306.119 141.316C303.26 141.316 301.297 140.244 300.23 138.1H299.932V147.205H296.152V121.857H299.791V125.021H300.072C300.646 123.932 301.467 123.076 302.533 122.455C303.6 121.846 304.783 121.541 306.084 121.541ZM305.012 137.924C306.617 137.924 307.877 137.35 308.791 136.201C309.693 135.041 310.145 133.447 310.145 131.42C310.145 129.393 309.693 127.805 308.791 126.656C307.877 125.508 306.623 124.934 305.029 124.934C303.436 124.934 302.176 125.514 301.25 126.674C300.324 127.846 299.861 129.434 299.861 131.438C299.861 133.43 300.324 135.012 301.25 136.184C302.176 137.344 303.43 137.924 305.012 137.924ZM320.111 147.961C319.361 147.961 318.84 147.932 318.547 147.873V144.621C318.816 144.668 319.227 144.691 319.777 144.691C320.68 144.691 321.4 144.486 321.939 144.076C322.479 143.654 322.912 142.963 323.24 142.002L323.521 141.07L316.596 121.857H320.709L325.508 137.062H325.807L330.588 121.857H334.596L327.459 141.791C326.639 144.123 325.695 145.734 324.629 146.625C323.574 147.516 322.068 147.961 320.111 147.961ZM351.348 125.039H342.559V141H338.779V121.857H355.127V141H351.348V125.039ZM373.461 125.039H364.672V141H360.893V121.857H377.24V141H373.461V125.039ZM400.021 121.857H403.801V141H400.021V121.857ZM386.926 130.893V137.818H390.283C391.42 137.818 392.334 137.502 393.025 136.869C393.705 136.236 394.045 135.398 394.045 134.355C394.045 133.312 393.705 132.475 393.025 131.842C392.334 131.209 391.42 130.893 390.283 130.893H386.926ZM383.146 121.857H386.926V127.729H390.564C392.779 127.729 394.543 128.326 395.855 129.521C397.168 130.717 397.824 132.328 397.824 134.355C397.824 136.383 397.168 138 395.855 139.207C394.543 140.402 392.779 141 390.564 141H383.146V121.857ZM432.189 131.174L438.342 138.398H434.281L428.164 131.139V130.998L434.334 123.721H438.342L432.189 130.928V131.174ZM423.559 131.174L429.711 138.398H425.668L419.551 131.139V130.998L425.703 123.721H429.711L423.559 130.928V131.174ZM458.258 125.039H452.229V141H448.449V125.039H442.42V121.857H458.258V125.039ZM466.959 132.246C466.76 135.199 466.25 137.373 465.43 138.768C464.48 140.385 463.004 141.193 461 141.193C460.496 141.193 460.062 141.123 459.699 140.982V137.449C460.016 137.543 460.355 137.59 460.719 137.59C461.598 137.59 462.26 137.08 462.705 136.061C463.092 135.182 463.35 133.846 463.479 132.053L464.146 121.857H477.33V141H473.551V125.039H467.486L466.959 132.246ZM493.467 131.402V125.039H490.039C488.891 125.039 487.982 125.332 487.314 125.918C486.635 126.504 486.295 127.301 486.295 128.309C486.295 129.223 486.635 129.967 487.314 130.541C488.006 131.115 488.914 131.402 490.039 131.402H493.467ZM493.467 134.443H490.619L485.979 141H481.584L486.805 133.758C485.48 133.383 484.443 132.715 483.693 131.754C482.932 130.781 482.551 129.639 482.551 128.326C482.551 126.346 483.213 124.77 484.537 123.598C485.861 122.438 487.631 121.857 489.846 121.857H497.193V141H493.467V134.443ZM503.117 123.721H507.125L513.295 130.998V131.139L507.178 138.398H503.117L509.27 131.174V130.928L503.117 123.721ZM511.748 123.721H515.756L521.908 130.998V131.139L515.791 138.398H511.748L517.9 131.174V130.928L511.748 123.721Z" fill="white"/>
<defs>
<filter id="filter0_b" x="-20" y="-20" width="1307" height="220" filterUnits="userSpaceOnUse" color-interpolation-filters="sRGB">
<feFlood flood-opacity="0" result="BackgroundImageFix"/>
<feGaussianBlur in="BackgroundImage" stdDeviation="10"/>
<feComposite in2="SourceAlpha" operator="in" result="effect1_backgroundBlur"/>
<feBlend mode="normal" in="SourceGraphic" in2="effect1_backgroundBlur" result="shape"/>
</filter>
</defs>
</svg>
