<svg width="310" height="310" viewBox="0 0 310 310" fill="none" xmlns="http://www.w3.org/2000/svg">
<g filter="url(#filter0_b)">
<rect width="310" height="310" rx="8" fill="white" fill-opacity="0.2"/>
</g>
<path d="M69.8848 40.2217C69.7285 42.7119 69.2354 44.4551 68.4053 45.4512V45.627H78.6592V29.2354H70.5732L69.8848 40.2217ZM66.0176 52.1748H63.5713V45.627H65.1387C66.4863 44.9141 67.2432 43.0928 67.4092 40.1631L68.2148 26.8623H81.2959V45.627H83.9326V52.1748H81.4863V48H66.0176V52.1748ZM100.896 48H87.7998V26.8623H100.896V29.2354H90.4365V36.0176H100.354V38.3613H90.4365V45.627H100.896V48ZM120.231 31.1836H119.997L108.571 48H105.964V26.8623H108.571V43.7373H108.806L120.231 26.8623H122.839V48H120.231V31.1836ZM111.589 20.5488C111.589 21.3398 111.848 21.9795 112.365 22.4678C112.873 22.9463 113.522 23.1855 114.313 23.1855C115.114 23.1855 115.773 22.9463 116.291 22.4678C116.809 21.9795 117.067 21.3398 117.067 20.5488H119.353C119.353 21.8965 118.889 22.9658 117.961 23.7568C117.053 24.5283 115.837 24.9141 114.313 24.9141C112.79 24.9141 111.579 24.5283 110.681 23.7568C109.763 22.9658 109.304 21.8965 109.304 20.5488H111.589ZM137.033 48.498C134.162 48.498 131.892 47.5068 130.222 45.5244C128.542 43.542 127.702 40.8467 127.702 37.4385C127.702 34.0303 128.537 31.3301 130.207 29.3379C131.877 27.3555 134.147 26.3643 137.019 26.3643C139.245 26.3643 141.149 26.999 142.731 28.2686C144.313 29.5381 145.261 31.1934 145.573 33.2344H142.893C142.541 31.8672 141.838 30.7881 140.783 29.9971C139.729 29.1963 138.474 28.7959 137.019 28.7959C134.987 28.7959 133.381 29.5723 132.199 31.125C131.008 32.6777 130.412 34.7822 130.412 37.4385C130.412 40.0947 131.008 42.1943 132.199 43.7373C133.391 45.29 135.002 46.0664 137.033 46.0664C138.508 46.0664 139.768 45.7148 140.812 45.0117C141.867 44.2988 142.561 43.332 142.893 42.1113H145.573C145.222 44.0547 144.274 45.6025 142.731 46.7549C141.179 47.917 139.279 48.498 137.033 48.498ZM155.051 48V29.2354H148.239V26.8623H164.499V29.2354H157.688V48H155.051ZM168.864 48V26.8623H176.95C178.884 26.8623 180.412 27.3359 181.535 28.2832C182.648 29.2305 183.205 30.5146 183.205 32.1357C183.205 33.2295 182.854 34.2158 182.15 35.0947C181.438 35.9736 180.573 36.5059 179.558 36.6914V36.9258C181.003 37.1113 182.15 37.6631 183 38.5811C183.85 39.5088 184.274 40.6709 184.274 42.0674C184.274 43.9326 183.645 45.3877 182.385 46.4326C181.115 47.4775 179.357 48 177.111 48H168.864ZM171.501 35.9736H175.72C178.933 35.9736 180.539 34.8457 180.539 32.5898C180.539 31.5156 180.178 30.6807 179.455 30.085C178.723 29.4893 177.702 29.1914 176.394 29.1914H171.501V35.9736ZM176.716 45.6709C179.948 45.6709 181.564 44.4258 181.564 41.9355C181.564 39.4746 179.865 38.2441 176.467 38.2441H171.501V45.6709H176.716ZM203.142 31.1836H202.907L191.481 48H188.874V26.8623H191.481V43.7373H191.716L203.142 26.8623H205.749V48H203.142V31.1836ZM224.528 48H211.433V26.8623H224.528V29.2354H214.069V36.0176H223.986V38.3613H214.069V45.627H224.528V48Z" fill="white"/>
<path d="M32.7695 268.848C32.7695 267.348 33.2812 266.113 34.3047 265.145C35.3203 264.176 36.6133 263.691 38.1836 263.691C39.6992 263.691 40.9727 264.148 42.0039 265.062C43.0273 265.969 43.5391 267.094 43.5391 268.438C43.5391 269.32 43.2891 270.184 42.7891 271.027C42.2891 271.887 41.3477 273.059 39.9648 274.543L35.8984 278.914V279.102H43.8203V281H32.875V279.547L38.7227 273.16C39.8086 271.98 40.5312 271.082 40.8906 270.465C41.25 269.848 41.4297 269.199 41.4297 268.52C41.4297 267.676 41.1133 266.965 40.4805 266.387C39.8398 265.816 39.0547 265.531 38.125 265.531C37.1328 265.531 36.332 265.836 35.7227 266.445C35.1133 267.055 34.8086 267.855 34.8086 268.848V268.859H32.7695V268.848ZM52.7852 281.387C51.3477 281.387 50.1328 280.988 49.1406 280.191C48.1406 279.402 47.5078 278.328 47.2422 276.969H49.4102C49.6367 277.758 50.0508 278.379 50.6523 278.832C51.2617 279.285 51.9805 279.512 52.8086 279.512C54.1836 279.512 55.25 278.918 56.0078 277.73C56.7734 276.543 57.1836 274.824 57.2383 272.574H57.0508C56.6367 273.395 56.0352 274.031 55.2461 274.484C54.457 274.945 53.5586 275.176 52.5508 275.176C50.9414 275.176 49.6133 274.641 48.5664 273.57C47.5195 272.508 46.9961 271.156 46.9961 269.516C46.9961 267.812 47.5508 266.418 48.6602 265.332C49.7695 264.238 51.1914 263.691 52.9258 263.691C55.5352 263.691 57.3828 264.973 58.4688 267.535C59.0156 268.816 59.2891 270.387 59.2891 272.246C59.2891 275.152 58.7227 277.402 57.5898 278.996C56.457 280.59 54.8555 281.387 52.7852 281.387ZM52.9258 273.348C54.043 273.348 54.9648 272.988 55.6914 272.27C56.4102 271.551 56.7695 270.633 56.7695 269.516C56.7695 268.383 56.4023 267.438 55.668 266.68C54.9414 265.922 54.0352 265.543 52.9492 265.543C51.8633 265.543 50.957 265.918 50.2305 266.668C49.4961 267.41 49.1289 268.336 49.1289 269.445C49.1289 270.602 49.4805 271.539 50.1836 272.258C50.8945 272.984 51.8086 273.348 52.9258 273.348ZM68.3711 281.398C66.4648 281.398 64.9883 280.625 63.9414 279.078C62.8945 277.531 62.3711 275.352 62.3711 272.539C62.3711 269.75 62.8984 267.578 63.9531 266.023C65.0078 264.469 66.4805 263.691 68.3711 263.691C70.2539 263.691 71.7188 264.473 72.7656 266.035C73.8203 267.598 74.3477 269.777 74.3477 272.574C74.3477 275.379 73.8281 277.551 72.7891 279.09C71.7422 280.629 70.2695 281.398 68.3711 281.398ZM68.3711 279.559C69.6211 279.559 70.5742 278.957 71.2305 277.754C71.8945 276.543 72.2266 274.805 72.2266 272.539C72.2266 270.297 71.8945 268.57 71.2305 267.359C70.5586 266.148 69.6055 265.543 68.3711 265.543C67.1367 265.543 66.1797 266.152 65.5 267.371C64.8281 268.582 64.4922 270.305 64.4922 272.539C64.4922 274.797 64.8281 276.531 65.5 277.742C66.1641 278.953 67.1211 279.559 68.3711 279.559ZM81.6953 272.621H84.3906C85.5703 272.621 86.4727 272.32 87.0977 271.719C87.6914 271.141 87.9883 270.328 87.9883 269.281C87.9883 268.242 87.6914 267.438 87.0977 266.867C86.4805 266.266 85.5781 265.965 84.3906 265.965H81.6953V272.621ZM81.6953 278.305V281H79.5859V278.305H77.2422V276.711H79.5859V274.449H77.2422V272.621H79.5859V264.09H84.9414C86.5039 264.09 87.7695 264.586 88.7383 265.578C89.6836 266.539 90.1562 267.773 90.1562 269.281C90.1562 270.789 89.6797 272.023 88.7266 272.984C87.7578 273.961 86.4883 274.449 84.918 274.449H81.6953V276.711H86.5586V278.305H81.6953Z" fill="white"/>
<path d="M30.7139 91.5098V94.6211H33.0781C33.7344 94.6211 34.2383 94.4805 34.5898 94.1992C34.9297 93.9238 35.0996 93.5312 35.0996 93.0215C35.0996 92.5527 34.9443 92.1865 34.6338 91.9229C34.3115 91.6475 33.8545 91.5098 33.2627 91.5098H30.7139ZM30.7139 95.5967V99.0244H33.4033C34.833 99.0244 35.5479 98.4473 35.5479 97.293C35.5479 96.1621 34.7568 95.5967 33.1748 95.5967H30.7139ZM29.5625 90.5342H33.3945C34.2793 90.5342 34.9766 90.748 35.4863 91.1758C35.9844 91.6035 36.2334 92.1836 36.2334 92.916C36.2334 93.4258 36.0781 93.877 35.7676 94.2695C35.457 94.6562 35.0586 94.8965 34.5723 94.9902V95.1045C35.1934 95.1748 35.6973 95.4092 36.084 95.8076C36.4883 96.2119 36.6904 96.7129 36.6904 97.3105C36.6904 98.1543 36.4062 98.8135 35.8379 99.2881C35.2637 99.7627 34.4609 100 33.4297 100H29.5625V90.5342ZM39.3887 100V90.5342H40.54V98.1631H40.6543L45.9717 90.5342H47.123V100H45.9717V92.3711H45.8662L40.54 100H39.3887ZM56.7646 93.3203C56.6123 92.7578 56.3047 92.3037 55.8418 91.958C55.3496 91.5947 54.752 91.4131 54.0488 91.4131C53.1055 91.4131 52.3584 91.7588 51.8076 92.4502C51.251 93.1416 50.9727 94.0703 50.9727 95.2363C50.9727 96.4199 51.251 97.3604 51.8076 98.0576C52.3643 98.7607 53.1113 99.1123 54.0488 99.1123C54.752 99.1123 55.3408 98.9512 55.8154 98.6289C56.2959 98.3066 56.6094 97.8555 56.7559 97.2754H57.9248C57.7783 98.1426 57.3682 98.834 56.6943 99.3496C55.9971 99.8887 55.1182 100.158 54.0576 100.158C52.751 100.158 51.7139 99.7129 50.9463 98.8223C50.1729 97.9375 49.7861 96.7422 49.7861 95.2363C49.7861 93.7539 50.1699 92.5732 50.9375 91.6943C51.7109 90.8154 52.748 90.376 54.0488 90.376C55.1035 90.376 55.9883 90.6602 56.7031 91.2285C57.377 91.7676 57.7871 92.4648 57.9336 93.3203H56.7646ZM62.0205 94.6826L66.2305 90.5342H67.6543L62.9873 95.0781L67.8652 100H66.3447L62.0205 95.6055H61.6514V100H60.5V90.5342H61.6514V94.6826H62.0205ZM70.0977 100V90.5342H71.249V98.1631H71.3633L76.6807 90.5342H77.832V100H76.6807V92.3711H76.5752L71.249 100H70.0977Z" fill="white"/>
<path d="M31.083 124.683L35.293 120.534H36.7168L32.0498 125.078L36.9277 130H35.4072L31.083 125.605H30.7139V130H29.5625V120.534H30.7139V124.683H31.083ZM42.6055 129.112C43.5781 129.112 44.3398 128.77 44.8906 128.084C45.4414 127.404 45.7168 126.464 45.7168 125.263C45.7168 124.062 45.4414 123.121 44.8906 122.441C44.3398 121.756 43.5781 121.413 42.6055 121.413C41.6328 121.413 40.8711 121.756 40.3203 122.441C39.7695 123.121 39.4941 124.062 39.4941 125.263C39.4941 126.464 39.7695 127.404 40.3203 128.084C40.8711 128.77 41.6328 129.112 42.6055 129.112ZM42.6055 130.158C41.2812 130.158 40.2354 129.719 39.4678 128.84C38.6943 127.967 38.3076 126.774 38.3076 125.263C38.3076 123.751 38.6943 122.559 39.4678 121.686C40.2354 120.812 41.2812 120.376 42.6055 120.376C43.9297 120.376 44.9785 120.812 45.752 121.686C46.5254 122.559 46.9121 123.751 46.9121 125.263C46.9121 126.774 46.5254 127.967 45.752 128.84C44.9785 129.719 43.9297 130.158 42.6055 130.158ZM49.5664 120.534H50.7178V124.595H56.0352V120.534H57.1865V130H56.0352V125.57H50.7178V130H49.5664V120.534ZM61.4756 124.735V129.024H63.5322C64.2236 129.024 64.7773 128.828 65.1934 128.436C65.6035 128.049 65.8086 127.53 65.8086 126.88C65.8086 126.224 65.6006 125.702 65.1846 125.315C64.7744 124.929 64.2236 124.735 63.5322 124.735H61.4756ZM60.3242 120.534H61.4756V123.751H63.5322C64.5811 123.751 65.4131 124.032 66.0283 124.595C66.6494 125.163 66.96 125.925 66.96 126.88C66.96 127.835 66.6494 128.594 66.0283 129.156C65.4131 129.719 64.5811 130 63.5322 130H60.3242V120.534ZM74.6504 125.447V121.51H72.5762C71.8789 121.51 71.3252 121.688 70.915 122.046C70.5049 122.409 70.2998 122.901 70.2998 123.522C70.2998 124.097 70.5078 124.56 70.9238 124.911C71.3398 125.269 71.8906 125.447 72.5762 125.447H74.6504ZM74.6504 126.423H72.7256L70.1504 130H68.7705L71.5039 126.229C70.7715 126.077 70.1973 125.767 69.7812 125.298C69.3594 124.823 69.1484 124.24 69.1484 123.549C69.1484 122.617 69.459 121.882 70.0801 121.343C70.6953 120.804 71.5273 120.534 72.5762 120.534H75.8018V130H74.6504V126.423ZM80.46 124.683L84.6699 120.534H86.0938L81.4268 125.078L86.3047 130H84.7842L80.46 125.605H80.0908V130H78.9395V120.534H80.0908V124.683H80.46Z" fill="white"/>
<path d="M34.7832 155.447V151.51H32.709C32.0117 151.51 31.458 151.688 31.0479 152.046C30.6377 152.409 30.4326 152.901 30.4326 153.522C30.4326 154.097 30.6406 154.56 31.0566 154.911C31.4727 155.269 32.0234 155.447 32.709 155.447H34.7832ZM34.7832 156.423H32.8584L30.2832 160H28.9033L31.6367 156.229C30.9043 156.077 30.3301 155.767 29.9141 155.298C29.4922 154.823 29.2812 154.24 29.2812 153.549C29.2812 152.617 29.5918 151.882 30.2129 151.343C30.8281 150.804 31.6602 150.534 32.709 150.534H35.9346V160H34.7832V156.423ZM42.9307 160.167C41.5537 160.167 40.4961 159.713 39.7578 158.805C38.9902 157.855 38.6064 156.446 38.6064 154.577C38.6064 152.151 38.9258 150.385 39.5645 149.277C40.3086 147.982 41.6006 147.309 43.4404 147.256C43.6279 147.256 44.0205 147.238 44.6182 147.203C45.4678 147.15 46.1592 147.007 46.6924 146.772V147.801C46.0713 148.076 45.4004 148.231 44.6797 148.267C44.334 148.308 43.9326 148.328 43.4756 148.328C42.1514 148.363 41.1934 148.756 40.6016 149.506C40.0859 150.156 39.752 151.22 39.5996 152.696H39.7051C40.3555 151.337 41.4834 150.657 43.0889 150.657C44.3486 150.657 45.3564 151.073 46.1123 151.905C46.8799 152.755 47.2637 153.897 47.2637 155.333C47.2637 156.827 46.874 158.008 46.0947 158.875C45.3154 159.736 44.2607 160.167 42.9307 160.167ZM42.9307 159.13C43.9092 159.13 44.6797 158.793 45.2422 158.119C45.7988 157.445 46.0771 156.517 46.0771 155.333C46.0771 154.196 45.7988 153.306 45.2422 152.661C44.6797 152.017 43.9092 151.694 42.9307 151.694C41.9521 151.694 41.1846 152.017 40.6279 152.661C40.0713 153.306 39.793 154.196 39.793 155.333C39.793 156.517 40.0713 157.445 40.6279 158.119C41.1846 158.793 41.9521 159.13 42.9307 159.13ZM51.79 155.931C51.6846 157.29 51.4678 158.286 51.1396 158.919C50.7354 159.692 50.1113 160.079 49.2676 160.079C49.0742 160.079 48.8984 160.05 48.7402 159.991V158.928C48.8809 158.975 49.0391 158.998 49.2148 158.998C49.6836 158.998 50.0352 158.711 50.2695 158.137C50.4746 157.65 50.6152 156.9 50.6914 155.887C50.8262 154.48 50.9492 152.696 51.0605 150.534H57.1162V160H55.9648V151.51H52.1064C52.0127 153.314 51.9072 154.788 51.79 155.931ZM64.0859 159.112C65.0586 159.112 65.8203 158.77 66.3711 158.084C66.9219 157.404 67.1973 156.464 67.1973 155.263C67.1973 154.062 66.9219 153.121 66.3711 152.441C65.8203 151.756 65.0586 151.413 64.0859 151.413C63.1133 151.413 62.3516 151.756 61.8008 152.441C61.25 153.121 60.9746 154.062 60.9746 155.263C60.9746 156.464 61.25 157.404 61.8008 158.084C62.3516 158.77 63.1133 159.112 64.0859 159.112ZM64.0859 160.158C62.7617 160.158 61.7158 159.719 60.9482 158.84C60.1748 157.967 59.7881 156.774 59.7881 155.263C59.7881 153.751 60.1748 152.559 60.9482 151.686C61.7158 150.812 62.7617 150.376 64.0859 150.376C65.4102 150.376 66.459 150.812 67.2324 151.686C68.0059 152.559 68.3926 153.751 68.3926 155.263C68.3926 156.774 68.0059 157.967 67.2324 158.84C66.459 159.719 65.4102 160.158 64.0859 160.158ZM76.7598 160V155.526H76.6367C75.957 156.206 75.0898 156.546 74.0352 156.546C73.0039 156.546 72.1924 156.232 71.6006 155.605C71.0322 155.002 70.748 154.185 70.748 153.153V150.534H71.8994V153.109C71.8994 153.854 72.0928 154.437 72.4795 154.858C72.8662 155.292 73.4111 155.509 74.1143 155.509C75.3154 155.509 76.1973 155.072 76.7598 154.199V150.534H77.9111V160H76.7598ZM81.0488 150.534H82.2002V154.595H87.5176V150.534H88.6689V160H87.5176V155.57H82.2002V160H81.0488V150.534ZM99.8838 150.534H101.035V160H99.8838V150.534ZM93.0195 154.735V159.024H95.0762C95.7676 159.024 96.3213 158.828 96.7373 158.436C97.1475 158.049 97.3525 157.53 97.3525 156.88C97.3525 156.224 97.1445 155.702 96.7285 155.315C96.3184 154.929 95.7676 154.735 95.0762 154.735H93.0195ZM91.8682 150.534H93.0195V153.751H95.0762C96.125 153.751 96.957 154.032 97.5723 154.595C98.1934 155.163 98.5039 155.925 98.5039 156.88C98.5039 157.835 98.1934 158.594 97.5723 159.156C96.957 159.719 96.125 160 95.0762 160H91.8682V150.534ZM106.186 146.482C106.186 146.998 106.338 147.426 106.643 147.766C106.965 148.117 107.384 148.293 107.899 148.293C108.421 148.293 108.843 148.117 109.165 147.766C109.47 147.426 109.622 146.998 109.622 146.482H110.677C110.677 147.256 110.425 147.883 109.921 148.363C109.405 148.855 108.731 149.102 107.899 149.102C107.067 149.102 106.396 148.855 105.887 148.363C105.383 147.883 105.131 147.256 105.131 146.482H106.186ZM104.164 160V150.534H105.315V158.163H105.43L110.747 150.534H111.898V160H110.747V152.371H110.642L105.315 160H104.164ZM126.409 153.32C126.257 152.758 125.949 152.304 125.486 151.958C124.994 151.595 124.396 151.413 123.693 151.413C122.75 151.413 122.003 151.759 121.452 152.45C120.896 153.142 120.617 154.07 120.617 155.236C120.617 156.42 120.896 157.36 121.452 158.058C122.009 158.761 122.756 159.112 123.693 159.112C124.396 159.112 124.985 158.951 125.46 158.629C125.94 158.307 126.254 157.855 126.4 157.275H127.569C127.423 158.143 127.013 158.834 126.339 159.35C125.642 159.889 124.763 160.158 123.702 160.158C122.396 160.158 121.358 159.713 120.591 158.822C119.817 157.938 119.431 156.742 119.431 155.236C119.431 153.754 119.814 152.573 120.582 151.694C121.355 150.815 122.393 150.376 123.693 150.376C124.748 150.376 125.633 150.66 126.348 151.229C127.021 151.768 127.432 152.465 127.578 153.32H126.409ZM133.977 159.112C134.949 159.112 135.711 158.77 136.262 158.084C136.812 157.404 137.088 156.464 137.088 155.263C137.088 154.062 136.812 153.121 136.262 152.441C135.711 151.756 134.949 151.413 133.977 151.413C133.004 151.413 132.242 151.756 131.691 152.441C131.141 153.121 130.865 154.062 130.865 155.263C130.865 156.464 131.141 157.404 131.691 158.084C132.242 158.77 133.004 159.112 133.977 159.112ZM133.977 160.158C132.652 160.158 131.606 159.719 130.839 158.84C130.065 157.967 129.679 156.774 129.679 155.263C129.679 153.751 130.065 152.559 130.839 151.686C131.606 150.812 132.652 150.376 133.977 150.376C135.301 150.376 136.35 150.812 137.123 151.686C137.896 152.559 138.283 153.751 138.283 155.263C138.283 156.774 137.896 157.967 137.123 158.84C136.35 159.719 135.301 160.158 133.977 160.158ZM142.458 154.683L146.668 150.534H148.092L143.425 155.078L148.303 160H146.782L142.458 155.605H142.089V160H140.938V150.534H142.089V154.683H142.458Z" fill="white"/>
<path d="M30.7139 181.51V190H29.5625V180.534H35.5654V181.51H30.7139ZM40.4785 189.139C41.3281 189.139 42.0371 188.884 42.6055 188.374C43.1797 187.858 43.4668 187.226 43.4668 186.476V185.368L40.6631 185.57C39.0752 185.682 38.2812 186.279 38.2812 187.363C38.2812 187.902 38.4893 188.333 38.9053 188.655C39.3096 188.978 39.834 189.139 40.4785 189.139ZM40.2852 190.158C39.3477 190.158 38.583 189.906 37.9912 189.402C37.3936 188.893 37.0947 188.219 37.0947 187.381C37.0947 186.561 37.3906 185.913 37.9824 185.438C38.5625 184.97 39.4033 184.697 40.5049 184.621L43.4668 184.428V183.514C43.4668 182.834 43.2676 182.312 42.8691 181.949C42.4648 181.586 41.8789 181.404 41.1113 181.404C40.4609 181.404 39.916 181.533 39.4766 181.791C39.0312 182.055 38.7529 182.415 38.6416 182.872H37.4727C37.584 182.122 37.9766 181.519 38.6504 181.062C39.3184 180.604 40.1504 180.376 41.1465 180.376C42.2539 180.376 43.1123 180.651 43.7217 181.202C44.3252 181.747 44.627 182.515 44.627 183.505V190H43.5195V188.374H43.4141C43.127 188.937 42.708 189.373 42.1572 189.684C41.6064 190 40.9824 190.158 40.2852 190.158ZM50.999 190.167C49.9795 190.167 49.1357 189.93 48.4678 189.455C47.8115 188.986 47.4277 188.362 47.3164 187.583H48.5029C48.6084 188.069 48.875 188.453 49.3027 188.734C49.748 189.033 50.3135 189.183 50.999 189.183C51.7432 189.183 52.332 189.016 52.7656 188.682C53.1934 188.354 53.4072 187.911 53.4072 187.354C53.4072 186.177 52.5928 185.588 50.9639 185.588H49.4873V184.612H50.9639C51.6377 184.612 52.1562 184.469 52.5195 184.182C52.877 183.9 53.0557 183.496 53.0557 182.969C53.0557 182.488 52.8799 182.104 52.5283 181.817C52.165 181.519 51.6553 181.369 50.999 181.369C50.3428 181.369 49.8037 181.519 49.3818 181.817C48.9658 182.104 48.7139 182.488 48.626 182.969H47.4834C47.6006 182.189 47.9639 181.565 48.5732 181.097C49.2061 180.616 50.0146 180.376 50.999 180.376C52.001 180.376 52.7891 180.607 53.3633 181.07C53.9141 181.521 54.1895 182.131 54.1895 182.898C54.1895 183.408 54.0312 183.854 53.7148 184.234C53.4043 184.621 53 184.867 52.502 184.973V185.078C53.1348 185.189 53.6299 185.436 53.9873 185.816C54.3623 186.203 54.5498 186.695 54.5498 187.293C54.5498 188.166 54.2246 188.863 53.5742 189.385C52.9238 189.906 52.0654 190.167 50.999 190.167ZM57.1953 190V180.534H58.3467V188.163H58.4609L63.7783 180.534H64.9297V190H63.7783V182.371H63.6729L58.3467 190H57.1953ZM72.5059 180.376C73.707 180.376 74.6709 180.821 75.3975 181.712C76.124 182.608 76.4873 183.792 76.4873 185.263C76.4873 186.733 76.124 187.917 75.3975 188.813C74.665 189.71 73.7012 190.158 72.5059 190.158C71.7734 190.158 71.123 189.985 70.5547 189.64C69.9922 189.288 69.5791 188.808 69.3154 188.198H69.21V193.085H68.0586V180.534H69.1572V182.468H69.2627C69.5557 181.817 69.9893 181.308 70.5635 180.938C71.1377 180.563 71.7852 180.376 72.5059 180.376ZM72.251 189.112C73.1885 189.112 73.9297 188.767 74.4746 188.075C75.0254 187.384 75.3008 186.449 75.3008 185.271C75.3008 184.088 75.0283 183.15 74.4834 182.459C73.9326 181.762 73.1914 181.413 72.2598 181.413C71.334 181.413 70.5869 181.765 70.0186 182.468C69.4561 183.171 69.1748 184.103 69.1748 185.263C69.1748 186.423 69.4561 187.354 70.0186 188.058C70.5811 188.761 71.3252 189.112 72.251 189.112ZM82.9824 189.112C83.9551 189.112 84.7168 188.77 85.2676 188.084C85.8184 187.404 86.0938 186.464 86.0938 185.263C86.0938 184.062 85.8184 183.121 85.2676 182.441C84.7168 181.756 83.9551 181.413 82.9824 181.413C82.0098 181.413 81.248 181.756 80.6973 182.441C80.1465 183.121 79.8711 184.062 79.8711 185.263C79.8711 186.464 80.1465 187.404 80.6973 188.084C81.248 188.77 82.0098 189.112 82.9824 189.112ZM82.9824 190.158C81.6582 190.158 80.6123 189.719 79.8447 188.84C79.0713 187.967 78.6846 186.774 78.6846 185.263C78.6846 183.751 79.0713 182.559 79.8447 181.686C80.6123 180.812 81.6582 180.376 82.9824 180.376C84.3066 180.376 85.3555 180.812 86.1289 181.686C86.9023 182.559 87.2891 183.751 87.2891 185.263C87.2891 186.774 86.9023 187.967 86.1289 188.84C85.3555 189.719 84.3066 190.158 82.9824 190.158ZM91.0947 181.51V184.621H93.459C94.1152 184.621 94.6191 184.48 94.9707 184.199C95.3105 183.924 95.4805 183.531 95.4805 183.021C95.4805 182.553 95.3252 182.187 95.0146 181.923C94.6924 181.647 94.2354 181.51 93.6436 181.51H91.0947ZM91.0947 185.597V189.024H93.7842C95.2139 189.024 95.9287 188.447 95.9287 187.293C95.9287 186.162 95.1377 185.597 93.5557 185.597H91.0947ZM89.9434 180.534H93.7754C94.6602 180.534 95.3574 180.748 95.8672 181.176C96.3652 181.604 96.6143 182.184 96.6143 182.916C96.6143 183.426 96.459 183.877 96.1484 184.27C95.8379 184.656 95.4395 184.896 94.9531 184.99V185.104C95.5742 185.175 96.0781 185.409 96.4648 185.808C96.8691 186.212 97.0713 186.713 97.0713 187.311C97.0713 188.154 96.7871 188.813 96.2188 189.288C95.6445 189.763 94.8418 190 93.8105 190H89.9434V180.534ZM101.29 184.683L105.5 180.534H106.924L102.257 185.078L107.135 190H105.614L101.29 185.605H100.921V190H99.7695V180.534H100.921V184.683H101.29ZM111.969 189.139C112.818 189.139 113.527 188.884 114.096 188.374C114.67 187.858 114.957 187.226 114.957 186.476V185.368L112.153 185.57C110.565 185.682 109.771 186.279 109.771 187.363C109.771 187.902 109.979 188.333 110.396 188.655C110.8 188.978 111.324 189.139 111.969 189.139ZM111.775 190.158C110.838 190.158 110.073 189.906 109.481 189.402C108.884 188.893 108.585 188.219 108.585 187.381C108.585 186.561 108.881 185.913 109.473 185.438C110.053 184.97 110.894 184.697 111.995 184.621L114.957 184.428V183.514C114.957 182.834 114.758 182.312 114.359 181.949C113.955 181.586 113.369 181.404 112.602 181.404C111.951 181.404 111.406 181.533 110.967 181.791C110.521 182.055 110.243 182.415 110.132 182.872H108.963C109.074 182.122 109.467 181.519 110.141 181.062C110.809 180.604 111.641 180.376 112.637 180.376C113.744 180.376 114.603 180.651 115.212 181.202C115.815 181.747 116.117 182.515 116.117 183.505V190H115.01V188.374H114.904C114.617 188.937 114.198 189.373 113.647 189.684C113.097 190 112.473 190.158 111.775 190.158Z" fill="white"/>
<path d="M29.5625 220V210.534H30.9512L34.6689 218.4H34.7744L38.4746 210.534H39.8105V220H38.6592V212.644H38.5273L35.1523 219.815H34.2471L30.8369 212.644H30.7139V220H29.5625ZM45.8047 219.139C46.6543 219.139 47.3633 218.884 47.9316 218.374C48.5059 217.858 48.793 217.226 48.793 216.476V215.368L45.9893 215.57C44.4014 215.682 43.6074 216.279 43.6074 217.363C43.6074 217.902 43.8154 218.333 44.2314 218.655C44.6357 218.978 45.1602 219.139 45.8047 219.139ZM45.6113 220.158C44.6738 220.158 43.9092 219.906 43.3174 219.402C42.7197 218.893 42.4209 218.219 42.4209 217.381C42.4209 216.561 42.7168 215.913 43.3086 215.438C43.8887 214.97 44.7295 214.697 45.8311 214.621L48.793 214.428V213.514C48.793 212.834 48.5938 212.312 48.1953 211.949C47.791 211.586 47.2051 211.404 46.4375 211.404C45.7871 211.404 45.2422 211.533 44.8027 211.791C44.3574 212.055 44.0791 212.415 43.9678 212.872H42.7988C42.9102 212.122 43.3027 211.519 43.9766 211.062C44.6445 210.604 45.4766 210.376 46.4727 210.376C47.5801 210.376 48.4385 210.651 49.0479 211.202C49.6514 211.747 49.9531 212.515 49.9531 213.505V220H48.8457V218.374H48.7402C48.4531 218.937 48.0342 219.373 47.4834 219.684C46.9326 220 46.3086 220.158 45.6113 220.158ZM57.6348 210.376C58.8359 210.376 59.7998 210.821 60.5264 211.712C61.2529 212.608 61.6162 213.792 61.6162 215.263C61.6162 216.733 61.2529 217.917 60.5264 218.813C59.7939 219.71 58.8301 220.158 57.6348 220.158C56.9023 220.158 56.252 219.985 55.6836 219.64C55.1211 219.288 54.708 218.808 54.4443 218.198H54.3389V223.085H53.1875V210.534H54.2861V212.468H54.3916C54.6846 211.817 55.1182 211.308 55.6924 210.938C56.2666 210.563 56.9141 210.376 57.6348 210.376ZM57.3799 219.112C58.3174 219.112 59.0586 218.767 59.6035 218.075C60.1543 217.384 60.4297 216.449 60.4297 215.271C60.4297 214.088 60.1572 213.15 59.6123 212.459C59.0615 211.762 58.3203 211.413 57.3887 211.413C56.4629 211.413 55.7158 211.765 55.1475 212.468C54.585 213.171 54.3037 214.103 54.3037 215.263C54.3037 216.423 54.585 217.354 55.1475 218.058C55.71 218.761 56.4541 219.112 57.3799 219.112ZM64.2793 220V210.534H65.668L69.3857 218.4H69.4912L73.1914 210.534H74.5273V220H73.376V212.644H73.2441L69.8691 219.815H68.9639L65.5537 212.644H65.4307V220H64.2793ZM81.4092 211.396C80.5479 211.396 79.8418 211.688 79.291 212.274C78.7402 212.866 78.4385 213.648 78.3857 214.621H84.2832C84.2715 213.643 84.0049 212.86 83.4834 212.274C82.9561 211.688 82.2646 211.396 81.4092 211.396ZM85.3379 217.662C85.1035 218.436 84.6406 219.045 83.9492 219.49C83.2578 219.936 82.417 220.158 81.4268 220.158C80.126 220.158 79.0947 219.716 78.333 218.831C77.5713 217.952 77.1904 216.766 77.1904 215.271C77.1904 213.783 77.5742 212.597 78.3418 211.712C79.1035 210.821 80.1289 210.376 81.418 210.376C82.6777 210.376 83.6709 210.795 84.3975 211.633C85.124 212.471 85.4873 213.613 85.4873 215.061V215.57H78.377V215.623C78.4062 216.695 78.6992 217.548 79.2559 218.181C79.8066 218.813 80.5391 219.13 81.4531 219.13C82.8418 219.13 83.7471 218.641 84.1689 217.662H85.3379ZM90.0752 215.931C89.9697 217.29 89.7529 218.286 89.4248 218.919C89.0205 219.692 88.3965 220.079 87.5527 220.079C87.3594 220.079 87.1836 220.05 87.0254 219.991V218.928C87.166 218.975 87.3242 218.998 87.5 218.998C87.9688 218.998 88.3203 218.711 88.5547 218.137C88.7598 217.65 88.9004 216.9 88.9766 215.887C89.1113 214.48 89.2344 212.696 89.3457 210.534H95.4014V220H94.25V211.51H90.3916C90.2979 213.314 90.1924 214.788 90.0752 215.931ZM101.404 219.139C102.254 219.139 102.963 218.884 103.531 218.374C104.105 217.858 104.393 217.226 104.393 216.476V215.368L101.589 215.57C100.001 215.682 99.207 216.279 99.207 217.363C99.207 217.902 99.415 218.333 99.8311 218.655C100.235 218.978 100.76 219.139 101.404 219.139ZM101.211 220.158C100.273 220.158 99.5088 219.906 98.917 219.402C98.3193 218.893 98.0205 218.219 98.0205 217.381C98.0205 216.561 98.3164 215.913 98.9082 215.438C99.4883 214.97 100.329 214.697 101.431 214.621L104.393 214.428V213.514C104.393 212.834 104.193 212.312 103.795 211.949C103.391 211.586 102.805 211.404 102.037 211.404C101.387 211.404 100.842 211.533 100.402 211.791C99.957 212.055 99.6787 212.415 99.5674 212.872H98.3984C98.5098 212.122 98.9023 211.519 99.5762 211.062C100.244 210.604 101.076 210.376 102.072 210.376C103.18 210.376 104.038 210.651 104.647 211.202C105.251 211.747 105.553 212.515 105.553 213.505V220H104.445V218.374H104.34C104.053 218.937 103.634 219.373 103.083 219.684C102.532 220 101.908 220.158 101.211 220.158ZM115.036 211.51H110.932C110.844 213.186 110.735 214.659 110.606 215.931C110.483 217.39 110.199 218.386 109.754 218.919V219.024H115.036V211.51ZM107.609 222.505V219.024H108.374C109.007 218.614 109.391 217.568 109.525 215.887C109.561 215.541 109.687 213.757 109.903 210.534H116.188V219.024H117.717V222.505H116.627V220H108.699V222.505H107.609ZM121.364 214.683L125.574 210.534H126.998L122.331 215.078L127.209 220H125.688L121.364 215.605H120.995V220H119.844V210.534H120.995V214.683H121.364ZM129.441 220V210.534H130.593V218.163H130.707L136.024 210.534H137.176V220H136.024V212.371H135.919L130.593 220H129.441Z" fill="white"/>
<path d="M225.342 88.9014H225.184L222.072 91.0459V88.5762L225.351 86.3174H227.996V99H225.342V88.9014ZM236.398 99.3252C234.828 99.3252 233.598 98.7363 232.707 97.5586C231.811 96.375 231.362 94.7344 231.362 92.6367C231.362 90.5449 231.811 88.9131 232.707 87.7412C233.598 86.5752 234.828 85.9922 236.398 85.9922C237.963 85.9922 239.19 86.5752 240.081 87.7412C240.983 88.9189 241.435 90.5537 241.435 92.6455C241.435 94.7373 240.986 96.375 240.09 97.5586C239.199 98.7363 237.969 99.3252 236.398 99.3252ZM236.398 97.1631C237.137 97.1631 237.711 96.7793 238.121 96.0117C238.537 95.2266 238.745 94.1016 238.745 92.6367C238.745 91.1836 238.534 90.0674 238.112 89.2881C237.708 88.5381 237.137 88.1631 236.398 88.1631C235.666 88.1631 235.095 88.541 234.685 89.2969C234.263 90.0762 234.052 91.1895 234.052 92.6367C234.052 94.0957 234.263 95.2207 234.685 96.0117C235.089 96.7793 235.66 97.1631 236.398 97.1631ZM248.545 99V89.3057H251.858L254.398 95.5107H254.557L257.105 89.3057H260.375V99H257.967V92.5752H257.8L255.348 98.4551H253.563L251.111 92.5752H250.953V99H248.545ZM266.229 94.3418C266.141 95.9004 265.865 97.0547 265.402 97.8047C264.869 98.6777 264.04 99.1143 262.915 99.1143C262.599 99.1143 262.326 99.0762 262.098 99V96.75C262.262 96.791 262.446 96.8115 262.651 96.8115C263.085 96.8115 263.407 96.5596 263.618 96.0557C263.794 95.6455 263.905 95.0156 263.952 94.166L264.233 89.3057H271.528V99H268.971V91.3184H266.431L266.229 94.3418Z" fill="white"/>
<path d="M225.064 129.325C223.699 129.325 222.577 128.953 221.698 128.209C220.837 127.482 220.386 126.545 220.345 125.396H222.797C222.873 125.924 223.122 126.349 223.544 126.671C223.966 126.993 224.479 127.154 225.082 127.154C225.768 127.154 226.321 126.943 226.743 126.521C227.171 126.1 227.385 125.546 227.385 124.86C227.385 124.163 227.171 123.601 226.743 123.173C226.315 122.745 225.765 122.531 225.091 122.531C224.112 122.531 223.389 122.912 222.92 123.674H220.547L221.18 116.317H229.151V118.523H223.236L222.955 121.784H223.113C223.688 120.958 224.584 120.545 225.803 120.545C227.004 120.545 227.991 120.943 228.765 121.74C229.532 122.537 229.916 123.557 229.916 124.799C229.916 126.146 229.471 127.236 228.58 128.068C227.689 128.906 226.518 129.325 225.064 129.325ZM237.105 129.325C235.535 129.325 234.305 128.736 233.414 127.559C232.518 126.375 232.069 124.734 232.069 122.637C232.069 120.545 232.518 118.913 233.414 117.741C234.305 116.575 235.535 115.992 237.105 115.992C238.67 115.992 239.897 116.575 240.788 117.741C241.69 118.919 242.142 120.554 242.142 122.646C242.142 124.737 241.693 126.375 240.797 127.559C239.906 128.736 238.676 129.325 237.105 129.325ZM237.105 127.163C237.844 127.163 238.418 126.779 238.828 126.012C239.244 125.227 239.452 124.102 239.452 122.637C239.452 121.184 239.241 120.067 238.819 119.288C238.415 118.538 237.844 118.163 237.105 118.163C236.373 118.163 235.802 118.541 235.392 119.297C234.97 120.076 234.759 121.189 234.759 122.637C234.759 124.096 234.97 125.221 235.392 126.012C235.796 126.779 236.367 127.163 237.105 127.163ZM249.252 129V119.306H252.565L255.105 125.511H255.264L257.812 119.306H261.082V129H258.674V122.575H258.507L256.055 128.455H254.271L251.818 122.575H251.66V129H249.252ZM266.936 124.342C266.848 125.9 266.572 127.055 266.109 127.805C265.576 128.678 264.747 129.114 263.622 129.114C263.306 129.114 263.033 129.076 262.805 129V126.75C262.969 126.791 263.153 126.812 263.358 126.812C263.792 126.812 264.114 126.56 264.325 126.056C264.501 125.646 264.612 125.016 264.659 124.166L264.94 119.306H272.235V129H269.678V121.318H267.138L266.936 124.342Z" fill="white"/>
<path d="M223.337 159.325C221.444 159.325 220.05 158.561 219.153 157.031C218.444 155.941 218.09 154.515 218.09 152.751C218.09 150.647 218.559 148.995 219.496 147.794C220.434 146.593 221.729 145.992 223.381 145.992C224.588 145.992 225.616 146.317 226.466 146.968C227.321 147.618 227.84 148.474 228.021 149.534H225.394C225.271 149.118 225.024 148.787 224.655 148.541C224.292 148.295 223.861 148.172 223.363 148.172C222.496 148.172 221.816 148.562 221.324 149.341C220.826 150.114 220.592 151.16 220.621 152.479H220.779C221.383 151.23 222.461 150.606 224.014 150.606C225.215 150.606 226.211 151.005 227.002 151.802C227.793 152.599 228.188 153.604 228.188 154.816C228.188 156.135 227.734 157.216 226.826 158.06C225.918 158.903 224.755 159.325 223.337 159.325ZM223.311 157.146C223.961 157.146 224.509 156.929 224.954 156.495C225.394 156.067 225.613 155.534 225.613 154.896C225.613 154.251 225.396 153.715 224.963 153.287C224.529 152.865 223.981 152.654 223.319 152.654C222.657 152.654 222.106 152.865 221.667 153.287C221.233 153.709 221.017 154.236 221.017 154.869C221.017 155.514 221.236 156.056 221.676 156.495C222.115 156.929 222.66 157.146 223.311 157.146ZM235.475 159.325C233.904 159.325 232.674 158.736 231.783 157.559C230.887 156.375 230.438 154.734 230.438 152.637C230.438 150.545 230.887 148.913 231.783 147.741C232.674 146.575 233.904 145.992 235.475 145.992C237.039 145.992 238.267 146.575 239.157 147.741C240.06 148.919 240.511 150.554 240.511 152.646C240.511 154.737 240.062 156.375 239.166 157.559C238.275 158.736 237.045 159.325 235.475 159.325ZM235.475 157.163C236.213 157.163 236.787 156.779 237.197 156.012C237.613 155.227 237.821 154.102 237.821 152.637C237.821 151.184 237.61 150.067 237.188 149.288C236.784 148.538 236.213 148.163 235.475 148.163C234.742 148.163 234.171 148.541 233.761 149.297C233.339 150.076 233.128 151.189 233.128 152.637C233.128 154.096 233.339 155.221 233.761 156.012C234.165 156.779 234.736 157.163 235.475 157.163ZM247.621 159V149.306H250.935L253.475 155.511H253.633L256.182 149.306H259.451V159H257.043V152.575H256.876L254.424 158.455H252.64L250.188 152.575H250.029V159H247.621ZM265.305 154.342C265.217 155.9 264.941 157.055 264.479 157.805C263.945 158.678 263.116 159.114 261.991 159.114C261.675 159.114 261.402 159.076 261.174 159V156.75C261.338 156.791 261.522 156.812 261.728 156.812C262.161 156.812 262.483 156.56 262.694 156.056C262.87 155.646 262.981 155.016 263.028 154.166L263.31 149.306H270.604V159H268.047V151.318H265.507L265.305 154.342Z" fill="white"/>
<path d="M224.071 189.325C222.706 189.325 221.584 188.953 220.705 188.209C219.844 187.482 219.393 186.545 219.352 185.396H221.804C221.88 185.924 222.129 186.349 222.551 186.671C222.973 186.993 223.485 187.154 224.089 187.154C224.774 187.154 225.328 186.943 225.75 186.521C226.178 186.1 226.392 185.546 226.392 184.86C226.392 184.163 226.178 183.601 225.75 183.173C225.322 182.745 224.771 182.531 224.098 182.531C223.119 182.531 222.396 182.912 221.927 183.674H219.554L220.187 176.317H228.158V178.523H222.243L221.962 181.784H222.12C222.694 180.958 223.591 180.545 224.81 180.545C226.011 180.545 226.998 180.943 227.771 181.74C228.539 182.537 228.923 183.557 228.923 184.799C228.923 186.146 228.478 187.236 227.587 188.068C226.696 188.906 225.524 189.325 224.071 189.325ZM236.112 189.325C234.542 189.325 233.312 188.736 232.421 187.559C231.524 186.375 231.076 184.734 231.076 182.637C231.076 180.545 231.524 178.913 232.421 177.741C233.312 176.575 234.542 175.992 236.112 175.992C237.677 175.992 238.904 176.575 239.795 177.741C240.697 178.919 241.148 180.554 241.148 182.646C241.148 184.737 240.7 186.375 239.804 187.559C238.913 188.736 237.683 189.325 236.112 189.325ZM236.112 187.163C236.851 187.163 237.425 186.779 237.835 186.012C238.251 185.227 238.459 184.102 238.459 182.637C238.459 181.184 238.248 180.067 237.826 179.288C237.422 178.538 236.851 178.163 236.112 178.163C235.38 178.163 234.809 178.541 234.398 179.297C233.977 180.076 233.766 181.189 233.766 182.637C233.766 184.096 233.977 185.221 234.398 186.012C234.803 186.779 235.374 187.163 236.112 187.163ZM248.259 189V179.306H251.572L254.112 185.511H254.271L256.819 179.306H260.089V189H257.681V182.575H257.514L255.062 188.455H253.277L250.825 182.575H250.667V189H248.259ZM265.942 184.342C265.854 185.9 265.579 187.055 265.116 187.805C264.583 188.678 263.754 189.114 262.629 189.114C262.312 189.114 262.04 189.076 261.812 189V186.75C261.976 186.791 262.16 186.812 262.365 186.812C262.799 186.812 263.121 186.56 263.332 186.056C263.508 185.646 263.619 185.016 263.666 184.166L263.947 179.306H271.242V189H268.685V181.318H266.145L265.942 184.342Z" fill="white"/>
<path d="M236.071 219.325C234.706 219.325 233.584 218.953 232.705 218.209C231.844 217.482 231.393 216.545 231.352 215.396H233.804C233.88 215.924 234.129 216.349 234.551 216.671C234.973 216.993 235.485 217.154 236.089 217.154C236.774 217.154 237.328 216.943 237.75 216.521C238.178 216.1 238.392 215.546 238.392 214.86C238.392 214.163 238.178 213.601 237.75 213.173C237.322 212.745 236.771 212.531 236.098 212.531C235.119 212.531 234.396 212.912 233.927 213.674H231.554L232.187 206.317H240.158V208.523H234.243L233.962 211.784H234.12C234.694 210.958 235.591 210.545 236.81 210.545C238.011 210.545 238.998 210.943 239.771 211.74C240.539 212.537 240.923 213.557 240.923 214.799C240.923 216.146 240.478 217.236 239.587 218.068C238.696 218.906 237.524 219.325 236.071 219.325ZM247.937 219V209.306H251.25L253.79 215.511H253.948L256.497 209.306H259.767V219H257.358V212.575H257.191L254.739 218.455H252.955L250.503 212.575H250.345V219H247.937ZM265.62 214.342C265.532 215.9 265.257 217.055 264.794 217.805C264.261 218.678 263.432 219.114 262.307 219.114C261.99 219.114 261.718 219.076 261.489 219V216.75C261.653 216.791 261.838 216.812 262.043 216.812C262.477 216.812 262.799 216.56 263.01 216.056C263.186 215.646 263.297 215.016 263.344 214.166L263.625 209.306H270.92V219H268.362V211.318H265.822L265.62 214.342Z" fill="white"/>
<line y1="240.5" x2="310" y2="240.5" stroke="white" stroke-opacity="0.5"/>
<defs>
<filter id="filter0_b" x="-20" y="-20" width="350" height="350" filterUnits="userSpaceOnUse" color-interpolation-filters="sRGB">
<feFlood flood-opacity="0" result="BackgroundImageFix"/>
<feGaussianBlur in="BackgroundImage" stdDeviation="10"/>
<feComposite in2="SourceAlpha" operator="in" result="effect1_backgroundBlur"/>
<feBlend mode="normal" in="SourceGraphic" in2="effect1_backgroundBlur" result="shape"/>
</filter>
</defs>
</svg>
