<svg width="239" height="45" viewBox="0 0 239 45" fill="none" xmlns="http://www.w3.org/2000/svg">
<rect width="239" height="45" rx="22.5" fill="white" fill-opacity="0.2"/>
<path d="M40.9961 26.6719C41.9922 26.6719 42.7604 26.3268 43.3008 25.6367C43.8411 24.9531 44.1113 23.9863 44.1113 22.7363C44.1113 21.4863 43.8411 20.5163 43.3008 19.8262C42.7604 19.1426 41.9922 18.8008 40.9961 18.8008C40 18.8008 39.2318 19.1426 38.6914 19.8262C38.151 20.5163 37.8809 21.4863 37.8809 22.7363C37.8809 23.9863 38.151 24.9531 38.6914 25.6367C39.2318 26.3268 40 26.6719 40.9961 26.6719ZM40.9961 28.1855C39.4987 28.1855 38.3138 27.7005 37.4414 26.7305C36.5755 25.7539 36.1426 24.4225 36.1426 22.7363C36.1426 21.0436 36.5755 19.7122 37.4414 18.7422C38.3073 17.7721 39.4922 17.2871 40.9961 17.2871C42.5 17.2871 43.6849 17.7721 44.5508 18.7422C45.4167 19.7122 45.8496 21.0436 45.8496 22.7363C45.8496 24.4225 45.4167 25.7539 44.5508 26.7305C43.6784 27.7005 42.4935 28.1855 40.9961 28.1855ZM55.6934 20.6953C55.5501 20.1419 55.2539 19.696 54.8047 19.3574C54.3099 18.9863 53.7012 18.8008 52.9785 18.8008C52.0345 18.8008 51.2826 19.1523 50.7227 19.8555C50.1693 20.5586 49.8926 21.5059 49.8926 22.6973C49.8926 23.9082 50.1725 24.875 50.7324 25.5977C51.2923 26.3138 52.041 26.6719 52.9785 26.6719C54.4629 26.6719 55.3678 26.0566 55.6934 24.8262H57.3926C57.2363 25.8223 56.7806 26.623 56.0254 27.2285C55.2311 27.8665 54.2188 28.1855 52.9883 28.1855C51.5104 28.1855 50.3353 27.6908 49.4629 26.7012C48.5905 25.7051 48.1543 24.3704 48.1543 22.6973C48.1543 21.0566 48.5905 19.7448 49.4629 18.7617C50.3353 17.7786 51.5072 17.2871 52.9785 17.2871C54.209 17.2871 55.2279 17.6191 56.0352 18.2832C56.7839 18.9082 57.2363 19.7122 57.3926 20.6953H55.6934ZM67.1973 18.8789H63.7793V28H62.0996V18.8789H58.6816V17.4727H67.1973V18.8789ZM72.8027 26.7109C73.6686 26.7109 74.3848 26.4603 74.9512 25.959C75.5241 25.4577 75.8105 24.8294 75.8105 24.0742V23.1074L72.9785 23.293C71.4421 23.3971 70.6738 23.9701 70.6738 25.0117C70.6738 25.5391 70.8757 25.9557 71.2793 26.2617C71.6699 26.5612 72.1777 26.7109 72.8027 26.7109ZM72.4902 28.1855C71.4551 28.1855 70.6087 27.9023 69.9512 27.3359C69.2741 26.763 68.9355 26.0013 68.9355 25.0508C68.9355 24.1133 69.2676 23.3776 69.9316 22.8438C70.5957 22.3099 71.543 22.0072 72.7734 21.9355L75.8105 21.75V20.793C75.8105 19.4518 75.0163 18.7812 73.4277 18.7812C72.0931 18.7812 71.3021 19.2174 71.0547 20.0898H69.3555C69.4661 19.25 69.9023 18.5729 70.6641 18.0586C71.4193 17.5443 72.36 17.2871 73.4863 17.2871C74.7624 17.2871 75.752 17.5964 76.4551 18.2148C77.1452 18.8333 77.4902 19.6927 77.4902 20.793V28H75.8887V26.4473H75.7324C75.0293 27.6061 73.9486 28.1855 72.4902 28.1855ZM82.5977 18.8789V21.8477H84.9414C86.263 21.8477 86.9238 21.3464 86.9238 20.3438C86.9238 19.3672 86.3542 18.8789 85.2148 18.8789H82.5977ZM82.5977 23.2539V26.5938H85.4102C86.7253 26.5938 87.3828 26.0436 87.3828 24.9434C87.3828 23.8171 86.6178 23.2539 85.0879 23.2539H82.5977ZM80.918 17.4727H85.4297C86.4128 17.4727 87.1875 17.7168 87.7539 18.2051C88.3073 18.6868 88.584 19.3411 88.584 20.168C88.584 20.6888 88.4212 21.1608 88.0957 21.584C87.7637 22.0137 87.3535 22.2806 86.8652 22.3848V22.541C87.5293 22.6322 88.0599 22.9023 88.457 23.3516C88.8542 23.7943 89.0527 24.3346 89.0527 24.9727C89.0527 25.8971 88.737 26.6296 88.1055 27.1699C87.4609 27.7233 86.5755 28 85.4492 28H80.918V17.4727ZM91.9336 28V17.4727H93.6133V25.3242H93.7695L99.1113 17.4727H100.791V28H99.1113V20.1484H98.9551L93.6133 28H91.9336ZM111.768 18.8789H108.35V28H106.67V18.8789H103.252V17.4727H111.768V18.8789ZM115.898 22.2578V26.5938H117.881C118.571 26.5938 119.124 26.3952 119.541 25.998C119.951 25.6074 120.156 25.0833 120.156 24.4258C120.156 23.7682 119.948 23.2409 119.531 22.8438C119.121 22.4531 118.571 22.2578 117.881 22.2578H115.898ZM114.219 17.4727H115.898V20.8516H117.881C119.085 20.8516 120.046 21.1738 120.762 21.8184C121.478 22.4629 121.836 23.332 121.836 24.4258C121.836 25.5195 121.478 26.3887 120.762 27.0332C120.046 27.6777 119.085 28 117.881 28H114.219V17.4727ZM133.633 28.1758C132.487 28.1758 131.536 27.9154 130.781 27.3945C130.02 26.8737 129.593 26.1771 129.502 25.3047H131.23C131.335 25.7669 131.595 26.125 132.012 26.3789C132.435 26.6328 132.975 26.7598 133.633 26.7598C134.395 26.7598 134.99 26.5938 135.42 26.2617C135.837 25.9427 136.045 25.5163 136.045 24.9824C136.045 23.8171 135.241 23.2344 133.633 23.2344H132.041V21.8281H133.633C134.974 21.8281 135.645 21.304 135.645 20.2559C135.645 19.7871 135.482 19.4193 135.156 19.1523C134.805 18.8594 134.297 18.7129 133.633 18.7129C133.001 18.7129 132.48 18.8398 132.07 19.0938C131.66 19.3477 131.419 19.6862 131.348 20.1094H129.688C129.798 19.2435 130.208 18.5566 130.918 18.0488C131.628 17.541 132.533 17.2871 133.633 17.2871C134.798 17.2871 135.706 17.5508 136.357 18.0781C136.989 18.5859 137.305 19.2695 137.305 20.1289C137.305 20.6562 137.148 21.1283 136.836 21.5449C136.517 21.9616 136.104 22.2285 135.596 22.3457V22.502C137.008 22.8079 137.715 23.6055 137.715 24.8945C137.715 25.8711 137.34 26.6621 136.592 27.2676C135.843 27.873 134.857 28.1758 133.633 28.1758ZM143.799 26.7109C144.665 26.7109 145.381 26.4603 145.947 25.959C146.52 25.4577 146.807 24.8294 146.807 24.0742V23.1074L143.975 23.293C142.438 23.3971 141.67 23.9701 141.67 25.0117C141.67 25.5391 141.872 25.9557 142.275 26.2617C142.666 26.5612 143.174 26.7109 143.799 26.7109ZM143.486 28.1855C142.451 28.1855 141.605 27.9023 140.947 27.3359C140.27 26.763 139.932 26.0013 139.932 25.0508C139.932 24.1133 140.264 23.3776 140.928 22.8438C141.592 22.3099 142.539 22.0072 143.77 21.9355L146.807 21.75V20.793C146.807 19.4518 146.012 18.7812 144.424 18.7812C143.089 18.7812 142.298 19.2174 142.051 20.0898H140.352C140.462 19.25 140.898 18.5729 141.66 18.0586C142.415 17.5443 143.356 17.2871 144.482 17.2871C145.758 17.2871 146.748 17.5964 147.451 18.2148C148.141 18.8333 148.486 19.6927 148.486 20.793V28H146.885V26.4473H146.729C146.025 27.6061 144.945 28.1855 143.486 28.1855ZM157.52 22.8242V18.8789H155.537C154.84 18.8789 154.287 19.0579 153.877 19.416C153.467 19.7806 153.262 20.2819 153.262 20.9199C153.262 21.4798 153.47 21.9355 153.887 22.2871C154.303 22.6452 154.854 22.8242 155.537 22.8242H157.52ZM157.52 24.2305H155.713L153.027 28H151.025L153.965 23.918C153.223 23.7096 152.64 23.3451 152.217 22.8242C151.794 22.3034 151.582 21.6816 151.582 20.959C151.582 19.8783 151.94 19.0254 152.656 18.4004C153.366 17.7819 154.326 17.4727 155.537 17.4727H159.199V28H157.52V24.2305ZM164.219 18.8789V21.8477H166.562C167.884 21.8477 168.545 21.3464 168.545 20.3438C168.545 19.3672 167.975 18.8789 166.836 18.8789H164.219ZM164.219 23.2539V26.5938H167.031C168.346 26.5938 169.004 26.0436 169.004 24.9434C169.004 23.8171 168.239 23.2539 166.709 23.2539H164.219ZM162.539 17.4727H167.051C168.034 17.4727 168.809 17.7168 169.375 18.2051C169.928 18.6868 170.205 19.3411 170.205 20.168C170.205 20.6888 170.042 21.1608 169.717 21.584C169.385 22.0137 168.975 22.2806 168.486 22.3848V22.541C169.15 22.6322 169.681 22.9023 170.078 23.3516C170.475 23.7943 170.674 24.3346 170.674 24.9727C170.674 25.8971 170.358 26.6296 169.727 27.1699C169.082 27.7233 168.197 28 167.07 28H162.539V17.4727ZM175.693 21.877L179.863 17.4727H181.904L177.08 22.4336L182.09 28H179.912L175.693 23.2051H175.234V28H173.555V17.4727H175.234V21.877H175.693ZM185.146 31.8184C184.88 31.8184 184.629 31.7988 184.395 31.7598V30.3242C184.564 30.3568 184.798 30.373 185.098 30.373C185.579 30.373 185.967 30.2428 186.26 29.9824C186.553 29.7155 186.81 29.2663 187.031 28.6348L187.227 28.0098L183.33 17.4727H185.146L188.037 26.1348H188.193L191.074 17.4727H192.861L188.75 28.6445C188.301 29.862 187.822 30.6953 187.314 31.1445C186.8 31.5938 186.077 31.8184 185.146 31.8184Z" fill="white"/>
</svg>
