<svg width="239" height="45" viewBox="0 0 239 45" fill="none" xmlns="http://www.w3.org/2000/svg">
<rect width="239" height="45" rx="22.5" fill="white" fill-opacity="0.2"/>
<path d="M45.9961 26.6719C46.9922 26.6719 47.7604 26.3268 48.3008 25.6367C48.8411 24.9531 49.1113 23.9863 49.1113 22.7363C49.1113 21.4863 48.8411 20.5163 48.3008 19.8262C47.7604 19.1426 46.9922 18.8008 45.9961 18.8008C45 18.8008 44.2318 19.1426 43.6914 19.8262C43.151 20.5163 42.8809 21.4863 42.8809 22.7363C42.8809 23.9863 43.151 24.9531 43.6914 25.6367C44.2318 26.3268 45 26.6719 45.9961 26.6719ZM45.9961 28.1855C44.4987 28.1855 43.3138 27.7005 42.4414 26.7305C41.5755 25.7539 41.1426 24.4225 41.1426 22.7363C41.1426 21.0436 41.5755 19.7122 42.4414 18.7422C43.3073 17.7721 44.4922 17.2871 45.9961 17.2871C47.5 17.2871 48.6849 17.7721 49.5508 18.7422C50.4167 19.7122 50.8496 21.0436 50.8496 22.7363C50.8496 24.4225 50.4167 25.7539 49.5508 26.7305C48.6784 27.7005 47.4935 28.1855 45.9961 28.1855ZM60.6934 20.6953C60.5501 20.1419 60.2539 19.696 59.8047 19.3574C59.3099 18.9863 58.7012 18.8008 57.9785 18.8008C57.0345 18.8008 56.2826 19.1523 55.7227 19.8555C55.1693 20.5586 54.8926 21.5059 54.8926 22.6973C54.8926 23.9082 55.1725 24.875 55.7324 25.5977C56.2923 26.3138 57.041 26.6719 57.9785 26.6719C59.4629 26.6719 60.3678 26.0566 60.6934 24.8262H62.3926C62.2363 25.8223 61.7806 26.623 61.0254 27.2285C60.2311 27.8665 59.2188 28.1855 57.9883 28.1855C56.5104 28.1855 55.3353 27.6908 54.4629 26.7012C53.5905 25.7051 53.1543 24.3704 53.1543 22.6973C53.1543 21.0566 53.5905 19.7448 54.4629 18.7617C55.3353 17.7786 56.5072 17.2871 57.9785 17.2871C59.209 17.2871 60.2279 17.6191 61.0352 18.2832C61.7839 18.9082 62.2363 19.7122 62.3926 20.6953H60.6934ZM72.1973 18.8789H68.7793V28H67.0996V18.8789H63.6816V17.4727H72.1973V18.8789ZM77.8027 26.7109C78.6686 26.7109 79.3848 26.4603 79.9512 25.959C80.5241 25.4577 80.8105 24.8294 80.8105 24.0742V23.1074L77.9785 23.293C76.4421 23.3971 75.6738 23.9701 75.6738 25.0117C75.6738 25.5391 75.8757 25.9557 76.2793 26.2617C76.6699 26.5612 77.1777 26.7109 77.8027 26.7109ZM77.4902 28.1855C76.4551 28.1855 75.6087 27.9023 74.9512 27.3359C74.2741 26.763 73.9355 26.0013 73.9355 25.0508C73.9355 24.1133 74.2676 23.3776 74.9316 22.8438C75.5957 22.3099 76.543 22.0072 77.7734 21.9355L80.8105 21.75V20.793C80.8105 19.4518 80.0163 18.7812 78.4277 18.7812C77.0931 18.7812 76.3021 19.2174 76.0547 20.0898H74.3555C74.4661 19.25 74.9023 18.5729 75.6641 18.0586C76.4193 17.5443 77.36 17.2871 78.4863 17.2871C79.7624 17.2871 80.752 17.5964 81.4551 18.2148C82.1452 18.8333 82.4902 19.6927 82.4902 20.793V28H80.8887V26.4473H80.7324C80.0293 27.6061 78.9486 28.1855 77.4902 28.1855ZM87.5977 18.8789V21.8477H89.9414C91.263 21.8477 91.9238 21.3464 91.9238 20.3438C91.9238 19.3672 91.3542 18.8789 90.2148 18.8789H87.5977ZM87.5977 23.2539V26.5938H90.4102C91.7253 26.5938 92.3828 26.0436 92.3828 24.9434C92.3828 23.8171 91.6178 23.2539 90.0879 23.2539H87.5977ZM85.918 17.4727H90.4297C91.4128 17.4727 92.1875 17.7168 92.7539 18.2051C93.3073 18.6868 93.584 19.3411 93.584 20.168C93.584 20.6888 93.4212 21.1608 93.0957 21.584C92.7637 22.0137 92.3535 22.2806 91.8652 22.3848V22.541C92.5293 22.6322 93.0599 22.9023 93.457 23.3516C93.8542 23.7943 94.0527 24.3346 94.0527 24.9727C94.0527 25.8971 93.737 26.6296 93.1055 27.1699C92.4609 27.7233 91.5755 28 90.4492 28H85.918V17.4727ZM96.9336 28V17.4727H98.6133V25.3242H98.7695L104.111 17.4727H105.791V28H104.111V20.1484H103.955L98.6133 28H96.9336ZM116.768 18.8789H113.35V28H111.67V18.8789H108.252V17.4727H116.768V18.8789ZM120.898 22.2578V26.5938H122.881C123.571 26.5938 124.124 26.3952 124.541 25.998C124.951 25.6074 125.156 25.0833 125.156 24.4258C125.156 23.7682 124.948 23.2409 124.531 22.8438C124.121 22.4531 123.571 22.2578 122.881 22.2578H120.898ZM119.219 17.4727H120.898V20.8516H122.881C124.085 20.8516 125.046 21.1738 125.762 21.8184C126.478 22.4629 126.836 23.332 126.836 24.4258C126.836 25.5195 126.478 26.3887 125.762 27.0332C125.046 27.6777 124.085 28 122.881 28H119.219V17.4727ZM138.633 28.1758C137.487 28.1758 136.536 27.9154 135.781 27.3945C135.02 26.8737 134.593 26.1771 134.502 25.3047H136.23C136.335 25.7669 136.595 26.125 137.012 26.3789C137.435 26.6328 137.975 26.7598 138.633 26.7598C139.395 26.7598 139.99 26.5938 140.42 26.2617C140.837 25.9427 141.045 25.5163 141.045 24.9824C141.045 23.8171 140.241 23.2344 138.633 23.2344H137.041V21.8281H138.633C139.974 21.8281 140.645 21.304 140.645 20.2559C140.645 19.7871 140.482 19.4193 140.156 19.1523C139.805 18.8594 139.297 18.7129 138.633 18.7129C138.001 18.7129 137.48 18.8398 137.07 19.0938C136.66 19.3477 136.419 19.6862 136.348 20.1094H134.688C134.798 19.2435 135.208 18.5566 135.918 18.0488C136.628 17.541 137.533 17.2871 138.633 17.2871C139.798 17.2871 140.706 17.5508 141.357 18.0781C141.989 18.5859 142.305 19.2695 142.305 20.1289C142.305 20.6562 142.148 21.1283 141.836 21.5449C141.517 21.9616 141.104 22.2285 140.596 22.3457V22.502C142.008 22.8079 142.715 23.6055 142.715 24.8945C142.715 25.8711 142.34 26.6621 141.592 27.2676C140.843 27.873 139.857 28.1758 138.633 28.1758ZM148.799 26.7109C149.665 26.7109 150.381 26.4603 150.947 25.959C151.52 25.4577 151.807 24.8294 151.807 24.0742V23.1074L148.975 23.293C147.438 23.3971 146.67 23.9701 146.67 25.0117C146.67 25.5391 146.872 25.9557 147.275 26.2617C147.666 26.5612 148.174 26.7109 148.799 26.7109ZM148.486 28.1855C147.451 28.1855 146.605 27.9023 145.947 27.3359C145.27 26.763 144.932 26.0013 144.932 25.0508C144.932 24.1133 145.264 23.3776 145.928 22.8438C146.592 22.3099 147.539 22.0072 148.77 21.9355L151.807 21.75V20.793C151.807 19.4518 151.012 18.7812 149.424 18.7812C148.089 18.7812 147.298 19.2174 147.051 20.0898H145.352C145.462 19.25 145.898 18.5729 146.66 18.0586C147.415 17.5443 148.356 17.2871 149.482 17.2871C150.758 17.2871 151.748 17.5964 152.451 18.2148C153.141 18.8333 153.486 19.6927 153.486 20.793V28H151.885V26.4473H151.729C151.025 27.6061 149.945 28.1855 148.486 28.1855ZM162.52 22.8242V18.8789H160.537C159.84 18.8789 159.287 19.0579 158.877 19.416C158.467 19.7806 158.262 20.2819 158.262 20.9199C158.262 21.4798 158.47 21.9355 158.887 22.2871C159.303 22.6452 159.854 22.8242 160.537 22.8242H162.52ZM162.52 24.2305H160.713L158.027 28H156.025L158.965 23.918C158.223 23.7096 157.64 23.3451 157.217 22.8242C156.794 22.3034 156.582 21.6816 156.582 20.959C156.582 19.8783 156.94 19.0254 157.656 18.4004C158.366 17.7819 159.326 17.4727 160.537 17.4727H164.199V28H162.52V24.2305ZM169.219 18.8789V21.8477H171.562C172.884 21.8477 173.545 21.3464 173.545 20.3438C173.545 19.3672 172.975 18.8789 171.836 18.8789H169.219ZM169.219 23.2539V26.5938H172.031C173.346 26.5938 174.004 26.0436 174.004 24.9434C174.004 23.8171 173.239 23.2539 171.709 23.2539H169.219ZM167.539 17.4727H172.051C173.034 17.4727 173.809 17.7168 174.375 18.2051C174.928 18.6868 175.205 19.3411 175.205 20.168C175.205 20.6888 175.042 21.1608 174.717 21.584C174.385 22.0137 173.975 22.2806 173.486 22.3848V22.541C174.15 22.6322 174.681 22.9023 175.078 23.3516C175.475 23.7943 175.674 24.3346 175.674 24.9727C175.674 25.8971 175.358 26.6296 174.727 27.1699C174.082 27.7233 173.197 28 172.07 28H167.539V17.4727ZM180.693 21.877L184.863 17.4727H186.904L182.08 22.4336L187.09 28H184.912L180.693 23.2051H180.234V28H178.555V17.4727H180.234V21.877H180.693ZM190.146 31.8184C189.88 31.8184 189.629 31.7988 189.395 31.7598V30.3242C189.564 30.3568 189.798 30.373 190.098 30.373C190.579 30.373 190.967 30.2428 191.26 29.9824C191.553 29.7155 191.81 29.2663 192.031 28.6348L192.227 28.0098L188.33 17.4727H190.146L193.037 26.1348H193.193L196.074 17.4727H197.861L193.75 28.6445C193.301 29.862 192.822 30.6953 192.314 31.1445C191.8 31.5938 191.077 31.8184 190.146 31.8184Z" fill="white"/>
</svg>
