<svg width="250" height="45" viewBox="0 0 250 45" fill="none" xmlns="http://www.w3.org/2000/svg">
<rect width="250" height="45" rx="22.5" fill="white" fill-opacity="0.2"/>
<path d="M44.1953 28.1758C43.0495 28.1758 42.099 27.9154 41.3438 27.3945C40.582 26.8737 40.1556 26.1771 40.0645 25.3047H41.793C41.8971 25.7669 42.1576 26.125 42.5742 26.3789C42.9974 26.6328 43.5378 26.7598 44.1953 26.7598C44.957 26.7598 45.5527 26.5938 45.9824 26.2617C46.3991 25.9427 46.6074 25.5163 46.6074 24.9824C46.6074 23.8171 45.8034 23.2344 44.1953 23.2344H42.6035V21.8281H44.1953C45.5365 21.8281 46.207 21.304 46.207 20.2559C46.207 19.7871 46.0443 19.4193 45.7188 19.1523C45.3672 18.8594 44.8594 18.7129 44.1953 18.7129C43.5638 18.7129 43.043 18.8398 42.6328 19.0938C42.2227 19.3477 41.9818 19.6862 41.9102 20.1094H40.25C40.3607 19.2435 40.7708 18.5566 41.4805 18.0488C42.1901 17.541 43.0951 17.2871 44.1953 17.2871C45.3607 17.2871 46.2689 17.5508 46.9199 18.0781C47.5514 18.5859 47.8672 19.2695 47.8672 20.1289C47.8672 20.6562 47.7109 21.1283 47.3984 21.5449C47.0794 21.9616 46.666 22.2285 46.1582 22.3457V22.502C47.571 22.8079 48.2773 23.6055 48.2773 24.8945C48.2773 25.8711 47.903 26.6621 47.1543 27.2676C46.4056 27.873 45.4193 28.1758 44.1953 28.1758ZM54.3613 26.7109C55.2272 26.7109 55.9434 26.4603 56.5098 25.959C57.0827 25.4577 57.3691 24.8294 57.3691 24.0742V23.1074L54.5371 23.293C53.0007 23.3971 52.2324 23.9701 52.2324 25.0117C52.2324 25.5391 52.4342 25.9557 52.8379 26.2617C53.2285 26.5612 53.7363 26.7109 54.3613 26.7109ZM54.0488 28.1855C53.0137 28.1855 52.1673 27.9023 51.5098 27.3359C50.8327 26.763 50.4941 26.0013 50.4941 25.0508C50.4941 24.1133 50.8262 23.3776 51.4902 22.8438C52.1543 22.3099 53.1016 22.0072 54.332 21.9355L57.3691 21.75V20.793C57.3691 19.4518 56.5749 18.7812 54.9863 18.7812C53.6517 18.7812 52.8607 19.2174 52.6133 20.0898H50.9141C51.0247 19.25 51.4609 18.5729 52.2227 18.0586C52.9779 17.5443 53.9186 17.2871 55.0449 17.2871C56.321 17.2871 57.3105 17.5964 58.0137 18.2148C58.7038 18.8333 59.0488 19.6927 59.0488 20.793V28H57.4473V26.4473H57.291C56.5879 27.6061 55.5072 28.1855 54.0488 28.1855ZM69.4102 18.8789H64.1562V28H62.4766V17.4727H71.0898V28H69.4102V18.8789ZM78.7656 26.6719C79.7617 26.6719 80.5299 26.3268 81.0703 25.6367C81.6107 24.9531 81.8809 23.9863 81.8809 22.7363C81.8809 21.4863 81.6107 20.5163 81.0703 19.8262C80.5299 19.1426 79.7617 18.8008 78.7656 18.8008C77.7695 18.8008 77.0013 19.1426 76.4609 19.8262C75.9206 20.5163 75.6504 21.4863 75.6504 22.7363C75.6504 23.9863 75.9206 24.9531 76.4609 25.6367C77.0013 26.3268 77.7695 26.6719 78.7656 26.6719ZM78.7656 28.1855C77.2682 28.1855 76.0833 27.7005 75.2109 26.7305C74.3451 25.7539 73.9121 24.4225 73.9121 22.7363C73.9121 21.0436 74.3451 19.7122 75.2109 18.7422C76.0768 17.7721 77.2617 17.2871 78.7656 17.2871C80.2695 17.2871 81.4544 17.7721 82.3203 18.7422C83.1862 19.7122 83.6191 21.0436 83.6191 22.7363C83.6191 24.4225 83.1862 25.7539 82.3203 26.7305C81.4479 27.7005 80.263 28.1855 78.7656 28.1855ZM88.873 23.3809C88.7559 24.9434 88.4857 26.0892 88.0625 26.8184C87.5742 27.6647 86.8125 28.0879 85.7773 28.0879C85.5365 28.0879 85.3314 28.0521 85.1621 27.9805V26.4375C85.3184 26.4896 85.4941 26.5156 85.6895 26.5156C86.1842 26.5156 86.5618 26.2292 86.8223 25.6562C87.0501 25.1549 87.1999 24.3835 87.2715 23.3418L87.6816 17.4727H94.5664V28H92.8867V18.8789H89.2051L88.873 23.3809ZM97.9062 17.4727H99.5859V21.8281H104.938V17.4727H106.617V28H104.938V23.2344H99.5859V28H97.9062V17.4727ZM109.957 28V17.4727H111.637V25.3242H111.793L117.135 17.4727H118.814V28H117.135V20.1484H116.979L111.637 28H109.957ZM129.791 18.8789H126.373V28H124.693V18.8789H121.275V17.4727H129.791V18.8789ZM133.922 22.2578V26.5938H135.904C136.594 26.5938 137.148 26.3952 137.564 25.998C137.975 25.6074 138.18 25.0833 138.18 24.4258C138.18 23.7682 137.971 23.2409 137.555 22.8438C137.145 22.4531 136.594 22.2578 135.904 22.2578H133.922ZM132.242 17.4727H133.922V20.8516H135.904C137.109 20.8516 138.069 21.1738 138.785 21.8184C139.501 22.4629 139.859 23.332 139.859 24.4258C139.859 25.5195 139.501 26.3887 138.785 27.0332C138.069 27.6777 137.109 28 135.904 28H132.242V17.4727ZM151.373 26.7109C152.239 26.7109 152.955 26.4603 153.521 25.959C154.094 25.4577 154.381 24.8294 154.381 24.0742V23.1074L151.549 23.293C150.012 23.3971 149.244 23.9701 149.244 25.0117C149.244 25.5391 149.446 25.9557 149.85 26.2617C150.24 26.5612 150.748 26.7109 151.373 26.7109ZM151.061 28.1855C150.025 28.1855 149.179 27.9023 148.521 27.3359C147.844 26.763 147.506 26.0013 147.506 25.0508C147.506 24.1133 147.838 23.3776 148.502 22.8438C149.166 22.3099 150.113 22.0072 151.344 21.9355L154.381 21.75V20.793C154.381 19.4518 153.587 18.7812 151.998 18.7812C150.663 18.7812 149.872 19.2174 149.625 20.0898H147.926C148.036 19.25 148.473 18.5729 149.234 18.0586C149.99 17.5443 150.93 17.2871 152.057 17.2871C153.333 17.2871 154.322 17.5964 155.025 18.2148C155.715 18.8333 156.061 19.6927 156.061 20.793V28H154.459V26.4473H154.303C153.6 27.6061 152.519 28.1855 151.061 28.1855ZM159.488 17.4727H161.168V21.8281H166.52V17.4727H168.199V28H166.52V23.2344H161.168V28H159.488V17.4727ZM173.678 21.877L177.848 17.4727H179.889L175.064 22.4336L180.074 28H177.896L173.678 23.2051H173.219V28H171.539V17.4727H173.219V21.877H173.678ZM186.139 18.7715C185.299 18.7715 184.609 19.0547 184.068 19.6211C183.528 20.1875 183.225 20.9362 183.16 21.8672H188.961C188.941 20.9362 188.674 20.1875 188.16 19.6211C187.646 19.0547 186.972 18.7715 186.139 18.7715ZM190.592 25.2754C190.338 26.1868 189.824 26.8965 189.049 27.4043C188.268 27.9251 187.304 28.1855 186.158 28.1855C184.7 28.1855 183.544 27.694 182.691 26.7109C181.839 25.7344 181.412 24.4128 181.412 22.7461C181.412 21.0859 181.842 19.7611 182.701 18.7715C183.561 17.7819 184.713 17.2871 186.158 17.2871C187.577 17.2871 188.694 17.7591 189.508 18.7031C190.322 19.6471 190.729 20.9395 190.729 22.5801V23.2246H183.16V23.3027C183.206 24.3444 183.499 25.1712 184.039 25.7832C184.586 26.3952 185.305 26.7012 186.197 26.7012C187.558 26.7012 188.463 26.2259 188.912 25.2754H190.592ZM200.787 18.8789H197.369V28H195.689V18.8789H192.271V17.4727H200.787V18.8789ZM204.146 31.8184C203.88 31.8184 203.629 31.7988 203.395 31.7598V30.3242C203.564 30.3568 203.798 30.373 204.098 30.373C204.579 30.373 204.967 30.2428 205.26 29.9824C205.553 29.7155 205.81 29.2663 206.031 28.6348L206.227 28.0098L202.33 17.4727H204.146L207.037 26.1348H207.193L210.074 17.4727H211.861L207.75 28.6445C207.301 29.862 206.822 30.6953 206.314 31.1445C205.8 31.5938 205.077 31.8184 204.146 31.8184Z" fill="white"/>
</svg>
