<svg width="55" height="84" viewBox="0 0 55 84" fill="none" xmlns="http://www.w3.org/2000/svg">
<path d="M3 41.5581C7.98995 40.6509 11.1623 39.7436 15.248 38.3827C19.3336 37.0218 21.6106 34.9672 22.9626 32.9392C22.9888 32.9 23.015 32.8606 23.0412 32.8209C26.9213 26.9667 27.2994 19.5116 27.4886 12.4909C27.4963 12.2077 27.5002 11.9173 27.5 11.6188C27.4976 7.0825 27.4973 7.0825 27.5 2.99986" stroke="#F5F5F5" stroke-width="5" stroke-linecap="round" stroke-linejoin="round"/>
<path d="M3.00417 41.5581C7.99412 42.4654 11.1623 43.8262 15.248 45.1871C19.3336 46.548 21.6106 48.6026 22.9626 50.6306C22.9888 50.6699 23.015 50.7093 23.0412 50.7489C26.9213 56.6031 27.2993 64.0582 27.4886 71.079C27.4963 71.3621 27.5002 71.6525 27.5 71.9511C27.4976 76.4873 27.4973 76.4873 27.5 80.57" stroke="#F5F5F5" stroke-width="5" stroke-linecap="round" stroke-linejoin="round"/>
<path d="M52 41.5581C47.0101 40.6509 43.8377 39.7436 39.752 38.3827C35.6664 37.0218 33.3894 34.9672 32.0374 32.9392C32.0112 32.9 31.985 32.8606 31.9588 32.8209C28.0787 26.9667 27.7006 19.5116 27.5114 12.4909C27.5037 12.2077 27.4998 11.9173 27.5 11.6188C27.5024 7.0825 27.5027 7.0825 27.5 2.99986" stroke="#F5F5F5" stroke-width="5" stroke-linecap="round" stroke-linejoin="round"/>
<path d="M51.9958 41.5581C47.0059 42.4654 43.8377 43.8262 39.752 45.1871C35.6664 46.548 33.3894 48.6026 32.0374 50.6306C32.0112 50.6699 31.985 50.7093 31.9588 50.7489C28.0787 56.6031 27.7007 64.0582 27.5114 71.079C27.5037 71.3621 27.4998 71.6525 27.5 71.9511C27.5024 76.4873 27.5027 76.4873 27.5 80.57" stroke="#F5F5F5" stroke-width="5" stroke-linecap="round" stroke-linejoin="round"/>
</svg>
