<svg width="144" height="34" viewBox="0 0 144 34" fill="none" xmlns="http://www.w3.org/2000/svg">
<rect width="144" height="34" rx="17" fill="white" fill-opacity="0.28"/>
<path d="M42.7988 15.877L46.9688 11.4727H49.0098L44.1855 16.4336L49.1953 22H47.0176L42.7988 17.2051H42.3398V22H40.6602V11.4727H42.3398V15.877H42.7988ZM52.252 25.8184C51.985 25.8184 51.7344 25.7988 51.5 25.7598V24.3242C51.6693 24.3568 51.9036 24.373 52.2031 24.373C52.6849 24.373 53.0723 24.2428 53.3652 23.9824C53.6582 23.7155 53.9154 23.2663 54.1367 22.6348L54.332 22.0098L50.4355 11.4727H52.252L55.1426 20.1348H55.2988L58.1797 11.4727H59.9668L55.8555 22.6445C55.4062 23.862 54.9277 24.6953 54.4199 25.1445C53.9056 25.5938 53.1829 25.8184 52.252 25.8184ZM69.332 12.8789H64.0781V22H62.3984V11.4727H71.0117V22H69.332V12.8789ZM74.3516 22V11.4727H76.0312V19.3242H76.1875L81.5293 11.4727H83.209V22H81.5293V14.1484H81.373L76.0312 22H74.3516ZM94.1855 12.8789H90.7676V22H89.0879V12.8789H85.6699V11.4727H94.1855V12.8789ZM98.3164 16.2578V20.5938H100.299C100.989 20.5938 101.542 20.3952 101.959 19.998C102.369 19.6074 102.574 19.0833 102.574 18.4258C102.574 17.7682 102.366 17.2409 101.949 16.8438C101.539 16.4531 100.989 16.2578 100.299 16.2578H98.3164ZM96.6367 11.4727H98.3164V14.8516H100.299C101.503 14.8516 102.464 15.1738 103.18 15.8184C103.896 16.4629 104.254 17.332 104.254 18.4258C104.254 19.5195 103.896 20.3887 103.18 21.0332C102.464 21.6777 101.503 22 100.299 22H96.6367V11.4727Z" fill="white"/>
</svg>
