<svg width="23" height="25" viewBox="0 0 23 25" fill="none" xmlns="http://www.w3.org/2000/svg">
<path d="M6.25 8.07692V6.30769C6.25 4.9 6.80312 3.54997 7.78769 2.55459C8.77226 1.5592 10.1076 1 11.5 1V1C12.8924 1 14.2277 1.5592 15.2123 2.55459C16.1969 3.54997 16.75 4.9 16.75 6.30769V8.07692M1.875 8.07692C1.64294 8.07692 1.42038 8.17012 1.25628 8.33602C1.09219 8.50192 1 8.72692 1 8.96154V20.9038C1 22.5758 2.40875 24 4.0625 24H18.9375C20.5912 24 22 22.6449 22 20.973V8.96154C22 8.72692 21.9078 8.50192 21.7437 8.33602C21.5796 8.17012 21.3571 8.07692 21.125 8.07692H1.875Z" stroke="white" stroke-linecap="round" stroke-linejoin="round"/>
</svg>
