<svg width="310" height="310" viewBox="0 0 310 310" fill="none" xmlns="http://www.w3.org/2000/svg">
<g filter="url(#filter0_b)">
<rect width="310" height="310" rx="8" fill="white" fill-opacity="0.2"/>
</g>
<path d="M82.3809 48V29.2354H74.6611L73.9873 40.0898C73.8213 42.7754 73.3477 44.7529 72.5664 46.0225C71.707 47.4287 70.3838 48.1318 68.5967 48.1318C68.1865 48.1318 67.8447 48.083 67.5713 47.9854V45.627C67.7861 45.6855 68.0498 45.7148 68.3623 45.7148C69.4658 45.7148 70.2617 45.1729 70.75 44.0889C71.1406 43.2393 71.3896 41.8721 71.4971 39.9873L72.2588 26.8623H85.0176V48H82.3809ZM104.983 31.1836H104.749L93.3232 48H90.7158V26.8623H93.3232V43.7373H93.5576L104.983 26.8623H107.591V48H104.983V31.1836ZM113.274 48V26.8623H116.336L123.572 44.3525H123.807L131.043 26.8623H134.104V48H131.644V31.8574H131.468L124.803 47.8535H122.576L115.911 31.8574H115.735V48H113.274ZM148.68 26.3643C151.678 26.3643 154.041 27.3604 155.77 29.3525C157.488 31.335 158.348 34.0254 158.348 37.4238C158.348 40.8223 157.493 43.5127 155.784 45.4951C154.046 47.4971 151.678 48.498 148.68 48.498C145.662 48.498 143.284 47.4971 141.546 45.4951C139.827 43.5127 138.968 40.8223 138.968 37.4238C138.968 34.0254 139.842 31.3301 141.59 29.3379C143.328 27.3555 145.691 26.3643 148.68 26.3643ZM148.68 28.7959C146.531 28.7959 144.827 29.5723 143.567 31.125C142.308 32.6777 141.678 34.7773 141.678 37.4238C141.678 40.0703 142.298 42.165 143.538 43.708C144.788 45.2803 146.502 46.0664 148.68 46.0664C150.838 46.0664 152.542 45.2803 153.792 43.708C155.022 42.1553 155.638 40.0605 155.638 37.4238C155.638 34.7676 155.018 32.668 153.777 31.125C152.537 29.5723 150.838 28.7959 148.68 28.7959ZM177.464 48V38.376H165.862V48H163.226V26.8623H165.862V36.0029H177.464V26.8623H180.101V48H177.464ZM197.4 41.9502H188.992L186.868 48H184.1L191.893 26.8623H194.5L202.293 48H199.524L197.4 41.9502ZM189.769 39.709H196.624L193.313 30.2754H193.079L189.769 39.709ZM210.35 40.2217C210.193 42.7119 209.7 44.4551 208.87 45.4512V45.627H219.124V29.2354H211.038L210.35 40.2217ZM206.482 52.1748H204.036V45.627H205.604C206.951 44.9141 207.708 43.0928 207.874 40.1631L208.68 26.8623H221.761V45.627H224.397V52.1748H221.951V48H206.482V52.1748Z" fill="white"/>
<path d="M35.918 266.434H35.7305L31.4297 269.551V267.324L35.9297 264.09H38.0273V281H35.918V266.434ZM48.6562 281.398C47.0547 281.398 45.7305 280.945 44.6836 280.039C43.6367 279.141 43.0664 277.961 42.9727 276.5H45.0469C45.1406 277.414 45.5195 278.148 46.1836 278.703C46.8555 279.266 47.6875 279.547 48.6797 279.547C49.8125 279.547 50.7227 279.191 51.4102 278.48C52.1055 277.77 52.4531 276.836 52.4531 275.68C52.4531 274.523 52.1055 273.582 51.4102 272.855C50.7227 272.137 49.8242 271.777 48.7148 271.777C47.1133 271.777 45.9492 272.41 45.2227 273.676H43.2422L44.168 264.09H53.6016V265.977H45.8203L45.3398 271.402H45.5273C46.3477 270.441 47.5391 269.961 49.1016 269.961C50.7109 269.961 52.0234 270.488 53.0391 271.543C54.0547 272.598 54.5625 273.957 54.5625 275.621C54.5625 277.34 54.0156 278.73 52.9219 279.793C51.8281 280.863 50.4062 281.398 48.6562 281.398ZM63.6211 281.398C61.7148 281.398 60.2383 280.625 59.1914 279.078C58.1445 277.531 57.6211 275.352 57.6211 272.539C57.6211 269.75 58.1484 267.578 59.2031 266.023C60.2578 264.469 61.7305 263.691 63.6211 263.691C65.5039 263.691 66.9688 264.473 68.0156 266.035C69.0703 267.598 69.5977 269.777 69.5977 272.574C69.5977 275.379 69.0781 277.551 68.0391 279.09C66.9922 280.629 65.5195 281.398 63.6211 281.398ZM63.6211 279.559C64.8711 279.559 65.8242 278.957 66.4805 277.754C67.1445 276.543 67.4766 274.805 67.4766 272.539C67.4766 270.297 67.1445 268.57 66.4805 267.359C65.8086 266.148 64.8555 265.543 63.6211 265.543C62.3867 265.543 61.4297 266.152 60.75 267.371C60.0781 268.582 59.7422 270.305 59.7422 272.539C59.7422 274.797 60.0781 276.531 60.75 277.742C61.4141 278.953 62.3711 279.559 63.6211 279.559ZM76.9453 272.621H79.6406C80.8203 272.621 81.7227 272.32 82.3477 271.719C82.9414 271.141 83.2383 270.328 83.2383 269.281C83.2383 268.242 82.9414 267.438 82.3477 266.867C81.7305 266.266 80.8281 265.965 79.6406 265.965H76.9453V272.621ZM76.9453 278.305V281H74.8359V278.305H72.4922V276.711H74.8359V274.449H72.4922V272.621H74.8359V264.09H80.1914C81.7539 264.09 83.0195 264.586 83.9883 265.578C84.9336 266.539 85.4062 267.773 85.4062 269.281C85.4062 270.789 84.9297 272.023 83.9766 272.984C83.0078 273.961 81.7383 274.449 80.168 274.449H76.9453V276.711H81.8086V278.305H76.9453Z" fill="white"/>
<path d="M31.4839 95.9307C31.3784 97.29 31.1616 98.2861 30.8335 98.9189C30.4292 99.6924 29.8052 100.079 28.9614 100.079C28.7681 100.079 28.5923 100.05 28.4341 99.9912V98.9277C28.5747 98.9746 28.7329 98.998 28.9087 98.998C29.3774 98.998 29.729 98.7109 29.9634 98.1367C30.1685 97.6504 30.3091 96.9004 30.3853 95.8867C30.52 94.4805 30.6431 92.6963 30.7544 90.5342H36.8101V100H35.6587V91.5098H31.8003C31.7065 93.3145 31.6011 94.7881 31.4839 95.9307ZM39.9478 100V90.5342H41.0991V98.1631H41.2134L46.5308 90.5342H47.6821V100H46.5308V92.3711H46.4253L41.0991 100H39.9478ZM50.811 100V90.5342H52.1997L55.9175 98.4004H56.0229L59.7231 90.5342H61.0591V100H59.9077V92.6436H59.7759L56.4009 99.8154H55.4956L52.0854 92.6436H51.9624V100H50.811ZM68.02 99.1123C68.9927 99.1123 69.7544 98.7695 70.3052 98.084C70.856 97.4043 71.1313 96.4639 71.1313 95.2627C71.1313 94.0615 70.856 93.1211 70.3052 92.4414C69.7544 91.7559 68.9927 91.4131 68.02 91.4131C67.0474 91.4131 66.2856 91.7559 65.7349 92.4414C65.1841 93.1211 64.9087 94.0615 64.9087 95.2627C64.9087 96.4639 65.1841 97.4043 65.7349 98.084C66.2856 98.7695 67.0474 99.1123 68.02 99.1123ZM68.02 100.158C66.6958 100.158 65.6499 99.7188 64.8823 98.8398C64.1089 97.9668 63.7222 96.7744 63.7222 95.2627C63.7222 93.751 64.1089 92.5586 64.8823 91.6855C65.6499 90.8125 66.6958 90.376 68.02 90.376C69.3442 90.376 70.3931 90.8125 71.1665 91.6855C71.9399 92.5586 72.3267 93.751 72.3267 95.2627C72.3267 96.7744 71.9399 97.9668 71.1665 98.8398C70.3931 99.7188 69.3442 100.158 68.02 100.158ZM74.981 90.5342H76.1323V94.5947H81.4497V90.5342H82.6011V100H81.4497V95.5703H76.1323V100H74.981V90.5342Z" fill="white"/>
<path d="M30.7104 121.51V124.621H33.0747C33.731 124.621 34.2349 124.48 34.5864 124.199C34.9263 123.924 35.0962 123.531 35.0962 123.021C35.0962 122.553 34.9409 122.187 34.6304 121.923C34.3081 121.647 33.8511 121.51 33.2593 121.51H30.7104ZM30.7104 125.597V129.024H33.3999C34.8296 129.024 35.5444 128.447 35.5444 127.293C35.5444 126.162 34.7534 125.597 33.1714 125.597H30.7104ZM29.5591 120.534H33.3911C34.2759 120.534 34.9731 120.748 35.4829 121.176C35.981 121.604 36.23 122.184 36.23 122.916C36.23 123.426 36.0747 123.877 35.7642 124.27C35.4536 124.656 35.0552 124.896 34.5688 124.99V125.104C35.1899 125.175 35.6938 125.409 36.0806 125.808C36.4849 126.212 36.687 126.713 36.687 127.311C36.687 128.154 36.4028 128.813 35.8345 129.288C35.2603 129.763 34.4575 130 33.4263 130H29.5591V120.534ZM43.147 129.112C44.1196 129.112 44.8813 128.77 45.4321 128.084C45.9829 127.404 46.2583 126.464 46.2583 125.263C46.2583 124.062 45.9829 123.121 45.4321 122.441C44.8813 121.756 44.1196 121.413 43.147 121.413C42.1743 121.413 41.4126 121.756 40.8618 122.441C40.311 123.121 40.0356 124.062 40.0356 125.263C40.0356 126.464 40.311 127.404 40.8618 128.084C41.4126 128.77 42.1743 129.112 43.147 129.112ZM43.147 130.158C41.8228 130.158 40.7769 129.719 40.0093 128.84C39.2358 127.967 38.8491 126.774 38.8491 125.263C38.8491 123.751 39.2358 122.559 40.0093 121.686C40.7769 120.812 41.8228 120.376 43.147 120.376C44.4712 120.376 45.52 120.812 46.2935 121.686C47.0669 122.559 47.4536 123.751 47.4536 125.263C47.4536 126.774 47.0669 127.967 46.2935 128.84C45.52 129.719 44.4712 130.158 43.147 130.158ZM56.2866 121.51H52.1821C52.0942 123.186 51.9858 124.659 51.8569 125.931C51.7339 127.39 51.4497 128.386 51.0044 128.919V129.024H56.2866V121.51ZM48.8599 132.505V129.024H49.6245C50.2573 128.614 50.6411 127.568 50.7759 125.887C50.811 125.541 50.937 123.757 51.1538 120.534H57.438V129.024H58.9673V132.505H57.8774V130H49.9497V132.505H48.8599ZM62.6147 124.683L66.8247 120.534H68.2485L63.5815 125.078L68.4595 130H66.939L62.6147 125.605H62.2456V130H61.0942V120.534H62.2456V124.683H62.6147ZM73.2935 129.139C74.1431 129.139 74.8521 128.884 75.4204 128.374C75.9946 127.858 76.2817 127.226 76.2817 126.476V125.368L73.478 125.57C71.8901 125.682 71.0962 126.279 71.0962 127.363C71.0962 127.902 71.3042 128.333 71.7202 128.655C72.1245 128.978 72.6489 129.139 73.2935 129.139ZM73.1001 130.158C72.1626 130.158 71.3979 129.906 70.8062 129.402C70.2085 128.893 69.9097 128.219 69.9097 127.381C69.9097 126.561 70.2056 125.913 70.7974 125.438C71.3774 124.97 72.2183 124.697 73.3198 124.621L76.2817 124.428V123.514C76.2817 122.834 76.0825 122.312 75.6841 121.949C75.2798 121.586 74.6938 121.404 73.9263 121.404C73.2759 121.404 72.731 121.533 72.2915 121.791C71.8462 122.055 71.5679 122.415 71.4565 122.872H70.2876C70.3989 122.122 70.7915 121.519 71.4653 121.062C72.1333 120.604 72.9653 120.376 73.9614 120.376C75.0688 120.376 75.9272 120.651 76.5366 121.202C77.1401 121.747 77.4419 122.515 77.4419 123.505V130H76.3345V128.374H76.229C75.9419 128.937 75.5229 129.373 74.9722 129.684C74.4214 130 73.7974 130.158 73.1001 130.158Z" fill="white"/>
<path d="M36.0718 153.32C35.9194 152.758 35.6118 152.304 35.1489 151.958C34.6567 151.595 34.0591 151.413 33.356 151.413C32.4126 151.413 31.6655 151.759 31.1147 152.45C30.5581 153.142 30.2798 154.07 30.2798 155.236C30.2798 156.42 30.5581 157.36 31.1147 158.058C31.6714 158.761 32.4185 159.112 33.356 159.112C34.0591 159.112 34.6479 158.951 35.1226 158.629C35.603 158.307 35.9165 157.855 36.063 157.275H37.2319C37.0854 158.143 36.6753 158.834 36.0015 159.35C35.3042 159.889 34.4253 160.158 33.3647 160.158C32.0581 160.158 31.021 159.713 30.2534 158.822C29.48 157.938 29.0933 156.742 29.0933 155.236C29.0933 153.754 29.4771 152.573 30.2446 151.694C31.0181 150.815 32.0552 150.376 33.356 150.376C34.4106 150.376 35.2954 150.66 36.0103 151.229C36.6841 151.768 37.0942 152.465 37.2407 153.32H36.0718ZM39.8071 160V150.534H40.9585V158.163H41.0728L46.3901 150.534H47.5415V160H46.3901V152.371H46.2847L40.9585 160H39.8071ZM55.1177 150.376C56.3188 150.376 57.2827 150.821 58.0093 151.712C58.7358 152.608 59.0991 153.792 59.0991 155.263C59.0991 156.733 58.7358 157.917 58.0093 158.813C57.2769 159.71 56.313 160.158 55.1177 160.158C54.3853 160.158 53.7349 159.985 53.1665 159.64C52.604 159.288 52.1909 158.808 51.9272 158.198H51.8218V163.085H50.6704V150.534H51.769V152.468H51.8745C52.1675 151.817 52.6011 151.308 53.1753 150.938C53.7495 150.563 54.397 150.376 55.1177 150.376ZM54.8628 159.112C55.8003 159.112 56.5415 158.767 57.0864 158.075C57.6372 157.384 57.9126 156.449 57.9126 155.271C57.9126 154.088 57.6401 153.15 57.0952 152.459C56.5444 151.762 55.8032 151.413 54.8716 151.413C53.9458 151.413 53.1987 151.765 52.6304 152.468C52.0679 153.171 51.7866 154.103 51.7866 155.263C51.7866 156.423 52.0679 157.354 52.6304 158.058C53.1929 158.761 53.937 159.112 54.8628 159.112ZM65.5942 159.112C66.5669 159.112 67.3286 158.77 67.8794 158.084C68.4302 157.404 68.7056 156.464 68.7056 155.263C68.7056 154.062 68.4302 153.121 67.8794 152.441C67.3286 151.756 66.5669 151.413 65.5942 151.413C64.6216 151.413 63.8599 151.756 63.3091 152.441C62.7583 153.121 62.4829 154.062 62.4829 155.263C62.4829 156.464 62.7583 157.404 63.3091 158.084C63.8599 158.77 64.6216 159.112 65.5942 159.112ZM65.5942 160.158C64.27 160.158 63.2241 159.719 62.4565 158.84C61.6831 157.967 61.2964 156.774 61.2964 155.263C61.2964 153.751 61.6831 152.559 62.4565 151.686C63.2241 150.812 64.27 150.376 65.5942 150.376C66.9185 150.376 67.9673 150.812 68.7407 151.686C69.5142 152.559 69.9009 153.751 69.9009 155.263C69.9009 156.774 69.5142 157.967 68.7407 158.84C67.9673 159.719 66.9185 160.158 65.5942 160.158ZM78.936 151.51H73.7065V160H72.5552V150.534H80.0874V160H78.936V151.51ZM88.0942 160V150.534H89.4829L93.2007 158.4H93.3062L97.0063 150.534H98.3423V160H97.1909V152.644H97.0591L93.6841 159.815H92.7788L89.3687 152.644H89.2456V160H88.0942ZM106.692 155.447V151.51H104.618C103.92 151.51 103.367 151.688 102.957 152.046C102.546 152.409 102.341 152.901 102.341 153.522C102.341 154.097 102.549 154.56 102.965 154.911C103.381 155.269 103.932 155.447 104.618 155.447H106.692ZM106.692 156.423H104.767L102.192 160H100.812L103.545 156.229C102.813 156.077 102.239 155.767 101.823 155.298C101.401 154.823 101.19 154.24 101.19 153.549C101.19 152.617 101.5 151.882 102.122 151.343C102.737 150.804 103.569 150.534 104.618 150.534H107.843V160H106.692V156.423ZM117.766 151.51H114.532V160H113.38V151.51H110.146V150.534H117.766V151.51ZM128.146 150.534H129.297V160H128.146V150.534ZM121.282 154.735V159.024H123.338C124.03 159.024 124.583 158.828 125 158.436C125.41 158.049 125.615 157.53 125.615 156.88C125.615 156.224 125.407 155.702 124.991 155.315C124.581 154.929 124.03 154.735 123.338 154.735H121.282ZM120.13 150.534H121.282V153.751H123.338C124.387 153.751 125.219 154.032 125.834 154.595C126.456 155.163 126.766 155.925 126.766 156.88C126.766 157.835 126.456 158.594 125.834 159.156C125.219 159.719 124.387 160 123.338 160H120.13V150.534Z" fill="white"/>
<path d="M36.0718 183.32C35.9194 182.758 35.6118 182.304 35.1489 181.958C34.6567 181.595 34.0591 181.413 33.356 181.413C32.4126 181.413 31.6655 181.759 31.1147 182.45C30.5581 183.142 30.2798 184.07 30.2798 185.236C30.2798 186.42 30.5581 187.36 31.1147 188.058C31.6714 188.761 32.4185 189.112 33.356 189.112C34.0591 189.112 34.6479 188.951 35.1226 188.629C35.603 188.307 35.9165 187.855 36.063 187.275H37.2319C37.0854 188.143 36.6753 188.834 36.0015 189.35C35.3042 189.889 34.4253 190.158 33.3647 190.158C32.0581 190.158 31.021 189.713 30.2534 188.822C29.48 187.938 29.0933 186.742 29.0933 185.236C29.0933 183.754 29.4771 182.573 30.2446 181.694C31.0181 180.815 32.0552 180.376 33.356 180.376C34.4106 180.376 35.2954 180.66 36.0103 181.229C36.6841 181.768 37.0942 182.465 37.2407 183.32H36.0718ZM40.9585 181.51V184.621H43.3228C43.979 184.621 44.4829 184.48 44.8345 184.199C45.1743 183.924 45.3442 183.531 45.3442 183.021C45.3442 182.553 45.189 182.187 44.8784 181.923C44.5562 181.647 44.0991 181.51 43.5073 181.51H40.9585ZM40.9585 185.597V189.024H43.6479C45.0776 189.024 45.7925 188.447 45.7925 187.293C45.7925 186.162 45.0015 185.597 43.4194 185.597H40.9585ZM39.8071 180.534H43.6392C44.5239 180.534 45.2212 180.748 45.731 181.176C46.229 181.604 46.478 182.184 46.478 182.916C46.478 183.426 46.3228 183.877 46.0122 184.27C45.7017 184.656 45.3032 184.896 44.8169 184.99V185.104C45.438 185.175 45.9419 185.409 46.3286 185.808C46.7329 186.212 46.9351 186.713 46.9351 187.311C46.9351 188.154 46.6509 188.813 46.0825 189.288C45.5083 189.763 44.7056 190 43.6743 190H39.8071V180.534ZM53.3159 181.396C52.4546 181.396 51.7485 181.688 51.1978 182.274C50.647 182.866 50.3452 183.648 50.2925 184.621H56.1899C56.1782 183.643 55.9116 182.86 55.3901 182.274C54.8628 181.688 54.1714 181.396 53.3159 181.396ZM57.2446 187.662C57.0103 188.436 56.5474 189.045 55.856 189.49C55.1646 189.936 54.3237 190.158 53.3335 190.158C52.0327 190.158 51.0015 189.716 50.2397 188.831C49.478 187.952 49.0972 186.766 49.0972 185.271C49.0972 183.783 49.481 182.597 50.2485 181.712C51.0103 180.821 52.0356 180.376 53.3247 180.376C54.5845 180.376 55.5776 180.795 56.3042 181.633C57.0308 182.471 57.394 183.613 57.394 185.061V185.57H50.2837V185.623C50.313 186.695 50.606 187.548 51.1626 188.181C51.7134 188.813 52.4458 189.13 53.3599 189.13C54.7485 189.13 55.6538 188.641 56.0757 187.662H57.2446ZM63.2212 185.087L58.9849 180.534H60.3999L64.144 184.7H64.5659V180.534H65.6997V184.7H66.1128L69.8569 180.534H71.2632L67.0444 185.061L71.4829 190H70.0063L66.1128 185.588H65.6997V190H64.5659V185.588H64.144L60.2593 190H58.8003L63.2212 185.087ZM76.3521 189.139C77.2017 189.139 77.9106 188.884 78.479 188.374C79.0532 187.858 79.3403 187.226 79.3403 186.476V185.368L76.5366 185.57C74.9487 185.682 74.1548 186.279 74.1548 187.363C74.1548 187.902 74.3628 188.333 74.7788 188.655C75.1831 188.978 75.7075 189.139 76.3521 189.139ZM76.1587 190.158C75.2212 190.158 74.4565 189.906 73.8647 189.402C73.2671 188.893 72.9683 188.219 72.9683 187.381C72.9683 186.561 73.2642 185.913 73.856 185.438C74.436 184.97 75.2769 184.697 76.3784 184.621L79.3403 184.428V183.514C79.3403 182.834 79.1411 182.312 78.7427 181.949C78.3384 181.586 77.7524 181.404 76.9849 181.404C76.3345 181.404 75.7896 181.533 75.3501 181.791C74.9048 182.055 74.6265 182.415 74.5151 182.872H73.3462C73.4575 182.122 73.8501 181.519 74.5239 181.062C75.1919 180.604 76.0239 180.376 77.02 180.376C78.1274 180.376 78.9858 180.651 79.5952 181.202C80.1987 181.747 80.5005 182.515 80.5005 183.505V190H79.3931V188.374H79.2876C79.0005 188.937 78.5815 189.373 78.0308 189.684C77.48 190 76.856 190.158 76.1587 190.158ZM88.9556 185.447V181.51H86.8813C86.1841 181.51 85.6304 181.688 85.2202 182.046C84.8101 182.409 84.605 182.901 84.605 183.522C84.605 184.097 84.813 184.56 85.229 184.911C85.645 185.269 86.1958 185.447 86.8813 185.447H88.9556ZM88.9556 186.423H87.0308L84.4556 190H83.0757L85.8091 186.229C85.0767 186.077 84.5024 185.767 84.0864 185.298C83.6646 184.823 83.4536 184.24 83.4536 183.549C83.4536 182.617 83.7642 181.882 84.3853 181.343C85.0005 180.804 85.8325 180.534 86.8813 180.534H90.1069V190H88.9556V186.423ZM98.1138 190V180.534H99.5024L103.22 188.4H103.326L107.026 180.534H108.362V190H107.21V182.644H107.079L103.704 189.815H102.798L99.3882 182.644H99.2651V190H98.1138ZM116.711 185.447V181.51H114.637C113.94 181.51 113.386 181.688 112.976 182.046C112.566 182.409 112.361 182.901 112.361 183.522C112.361 184.097 112.569 184.56 112.985 184.911C113.401 185.269 113.952 185.447 114.637 185.447H116.711ZM116.711 186.423H114.787L112.211 190H110.832L113.565 186.229C112.833 186.077 112.258 185.767 111.842 185.298C111.42 184.823 111.209 184.24 111.209 183.549C111.209 182.617 111.52 181.882 112.141 181.343C112.756 180.804 113.588 180.534 114.637 180.534H117.863V190H116.711V186.423ZM127.786 181.51H124.551V190H123.4V181.51H120.166V180.534H127.786V181.51ZM132.76 189.139C133.61 189.139 134.319 188.884 134.887 188.374C135.461 187.858 135.749 187.226 135.749 186.476V185.368L132.945 185.57C131.357 185.682 130.563 186.279 130.563 187.363C130.563 187.902 130.771 188.333 131.187 188.655C131.591 188.978 132.116 189.139 132.76 189.139ZM132.567 190.158C131.629 190.158 130.865 189.906 130.273 189.402C129.675 188.893 129.376 188.219 129.376 187.381C129.376 186.561 129.672 185.913 130.264 185.438C130.844 184.97 131.685 184.697 132.787 184.621L135.749 184.428V183.514C135.749 182.834 135.549 182.312 135.151 181.949C134.747 181.586 134.161 181.404 133.393 181.404C132.743 181.404 132.198 181.533 131.758 181.791C131.313 182.055 131.035 182.415 130.923 182.872H129.754C129.866 182.122 130.258 181.519 130.932 181.062C131.6 180.604 132.432 180.376 133.428 180.376C134.536 180.376 135.394 180.651 136.003 181.202C136.607 181.747 136.909 182.515 136.909 183.505V190H135.801V188.374H135.696C135.409 188.937 134.99 189.373 134.439 189.684C133.888 190 133.264 190.158 132.567 190.158Z" fill="white"/>
<path d="M237.128 90.1143C237.128 88.8896 237.556 87.8965 238.412 87.1348C239.267 86.373 240.38 85.9922 241.751 85.9922C243.076 85.9922 244.154 86.335 244.986 87.0205C245.824 87.7119 246.243 88.6025 246.243 89.6924C246.243 90.3838 246.026 91.0693 245.592 91.749C245.159 92.4346 244.394 93.293 243.298 94.3242L240.873 96.6357V96.7939H246.427V99H237.278V97.1455L241.417 93.0938C242.308 92.2266 242.903 91.5732 243.202 91.1338C243.5 90.7061 243.65 90.2842 243.65 89.8682C243.65 89.3584 243.465 88.9395 243.096 88.6113C242.721 88.2891 242.244 88.1279 241.664 88.1279C241.048 88.1279 240.55 88.3125 240.169 88.6816C239.783 89.0449 239.589 89.5195 239.589 90.1055V90.1582H237.128V90.1143ZM253.74 99.3252C252.169 99.3252 250.939 98.7363 250.048 97.5586C249.152 96.375 248.704 94.7344 248.704 92.6367C248.704 90.5449 249.152 88.9131 250.048 87.7412C250.939 86.5752 252.169 85.9922 253.74 85.9922C255.304 85.9922 256.532 86.5752 257.422 87.7412C258.325 88.9189 258.776 90.5537 258.776 92.6455C258.776 94.7373 258.328 96.375 257.431 97.5586C256.541 98.7363 255.31 99.3252 253.74 99.3252ZM253.74 97.1631C254.478 97.1631 255.052 96.7793 255.462 96.0117C255.878 95.2266 256.086 94.1016 256.086 92.6367C256.086 91.1836 255.875 90.0674 255.454 89.2881C255.049 88.5381 254.478 88.1631 253.74 88.1631C253.007 88.1631 252.436 88.541 252.026 89.2969C251.604 90.0762 251.393 91.1895 251.393 92.6367C251.393 94.0957 251.604 95.2207 252.026 96.0117C252.43 96.7793 253.001 97.1631 253.74 97.1631ZM268.444 91.3184V99H265.886V89.3057H272.592V91.3184H268.444Z" fill="white"/>
<path d="M225.202 126.785H218.997V124.438C219.987 122.569 221.66 119.862 224.015 116.317H227.733V124.579H229.394V126.785H227.733V129H225.202V126.785ZM221.378 124.658H225.263V118.383H225.123C223.769 120.404 222.521 122.449 221.378 124.518V124.658ZM236.548 129.325C234.978 129.325 233.748 128.736 232.857 127.559C231.96 126.375 231.512 124.734 231.512 122.637C231.512 120.545 231.96 118.913 232.857 117.741C233.748 116.575 234.978 115.992 236.548 115.992C238.113 115.992 239.34 116.575 240.231 117.741C241.133 118.919 241.584 120.554 241.584 122.646C241.584 124.737 241.136 126.375 240.24 127.559C239.349 128.736 238.119 129.325 236.548 129.325ZM236.548 127.163C237.287 127.163 237.861 126.779 238.271 126.012C238.687 125.227 238.895 124.102 238.895 122.637C238.895 121.184 238.684 120.067 238.262 119.288C237.858 118.538 237.287 118.163 236.548 118.163C235.816 118.163 235.245 118.541 234.834 119.297C234.413 120.076 234.202 121.189 234.202 122.637C234.202 124.096 234.413 125.221 234.834 126.012C235.239 126.779 235.81 127.163 236.548 127.163ZM248.695 129V119.306H252.008L254.548 125.511H254.707L257.255 119.306H260.525V129H258.117V122.575H257.95L255.498 128.455H253.713L251.261 122.575H251.103V129H248.695ZM266.378 124.342C266.291 125.9 266.015 127.055 265.552 127.805C265.019 128.678 264.19 129.114 263.065 129.114C262.749 129.114 262.476 129.076 262.248 129V126.75C262.412 126.791 262.596 126.812 262.801 126.812C263.235 126.812 263.557 126.56 263.768 126.056C263.944 125.646 264.055 125.016 264.102 124.166L264.383 119.306H271.678V129H269.121V121.318H266.581L266.378 124.342Z" fill="white"/>
<path d="M236.235 159.325C234.711 159.325 233.478 158.982 232.535 158.297C231.591 157.611 231.12 156.718 231.12 155.616C231.12 154.819 231.375 154.128 231.884 153.542C232.388 152.95 233.065 152.561 233.915 152.373V152.215C233.223 152.057 232.669 151.726 232.253 151.222C231.837 150.718 231.629 150.129 231.629 149.455C231.629 148.441 232.06 147.612 232.921 146.968C233.789 146.317 234.896 145.992 236.244 145.992C237.585 145.992 238.69 146.317 239.557 146.968C240.418 147.612 240.849 148.441 240.849 149.455C240.849 150.129 240.641 150.718 240.225 151.222C239.815 151.72 239.261 152.051 238.564 152.215V152.373C239.408 152.531 240.087 152.903 240.603 153.489C241.113 154.081 241.368 154.781 241.368 155.59C241.368 156.703 240.893 157.603 239.944 158.288C238.995 158.979 237.758 159.325 236.235 159.325ZM236.235 157.321C236.932 157.321 237.5 157.14 237.94 156.776C238.379 156.413 238.599 155.944 238.599 155.37C238.599 154.79 238.379 154.318 237.94 153.955C237.5 153.592 236.932 153.41 236.235 153.41C235.538 153.41 234.972 153.592 234.539 153.955C234.099 154.318 233.879 154.79 233.879 155.37C233.879 155.944 234.099 156.413 234.539 156.776C234.972 157.14 235.538 157.321 236.235 157.321ZM236.235 151.45C236.821 151.45 237.301 151.286 237.676 150.958C238.045 150.636 238.23 150.22 238.23 149.71C238.23 149.194 238.045 148.775 237.676 148.453C237.301 148.125 236.821 147.961 236.235 147.961C235.649 147.961 235.171 148.125 234.802 148.453C234.433 148.775 234.249 149.194 234.249 149.71C234.249 150.22 234.433 150.636 234.802 150.958C235.171 151.286 235.649 151.45 236.235 151.45ZM248.478 159V149.306H251.792L254.332 155.511H254.49L257.039 149.306H260.308V159H257.9V152.575H257.733L255.281 158.455H253.497L251.044 152.575H250.886V159H248.478ZM266.162 154.342C266.074 155.9 265.798 157.055 265.335 157.805C264.802 158.678 263.973 159.114 262.848 159.114C262.532 159.114 262.259 159.076 262.031 159V156.75C262.195 156.791 262.379 156.812 262.584 156.812C263.018 156.812 263.34 156.56 263.551 156.056C263.727 155.646 263.838 155.016 263.885 154.166L264.167 149.306H271.461V159H268.904V151.318H266.364L266.162 154.342Z" fill="white"/>
<path d="M224.068 189.325C222.703 189.325 221.581 188.953 220.702 188.209C219.84 187.482 219.389 186.545 219.348 185.396H221.8C221.876 185.924 222.125 186.349 222.547 186.671C222.969 186.993 223.482 187.154 224.085 187.154C224.771 187.154 225.325 186.943 225.747 186.521C226.174 186.1 226.388 185.546 226.388 184.86C226.388 184.163 226.174 183.601 225.747 183.173C225.319 182.745 224.768 182.531 224.094 182.531C223.116 182.531 222.392 182.912 221.923 183.674H219.55L220.183 176.317H228.155V178.523H222.24L221.958 181.784H222.117C222.691 180.958 223.587 180.545 224.806 180.545C226.007 180.545 226.995 180.943 227.768 181.74C228.536 182.537 228.919 183.557 228.919 184.799C228.919 186.146 228.474 187.236 227.583 188.068C226.693 188.906 225.521 189.325 224.068 189.325ZM236.109 189.325C234.539 189.325 233.308 188.736 232.417 187.559C231.521 186.375 231.073 184.734 231.073 182.637C231.073 180.545 231.521 178.913 232.417 177.741C233.308 176.575 234.539 175.992 236.109 175.992C237.673 175.992 238.901 176.575 239.792 177.741C240.694 178.919 241.145 180.554 241.145 182.646C241.145 184.737 240.697 186.375 239.8 187.559C238.91 188.736 237.679 189.325 236.109 189.325ZM236.109 187.163C236.847 187.163 237.421 186.779 237.832 186.012C238.248 185.227 238.456 184.102 238.456 182.637C238.456 181.184 238.245 180.067 237.823 179.288C237.418 178.538 236.847 178.163 236.109 178.163C235.376 178.163 234.805 178.541 234.395 179.297C233.973 180.076 233.762 181.189 233.762 182.637C233.762 184.096 233.973 185.221 234.395 186.012C234.799 186.779 235.371 187.163 236.109 187.163ZM248.255 189V179.306H251.569L254.109 185.511H254.267L256.816 179.306H260.085V189H257.677V182.575H257.51L255.058 188.455H253.274L250.822 182.575H250.664V189H248.255ZM265.939 184.342C265.851 185.9 265.576 187.055 265.113 187.805C264.58 188.678 263.75 189.114 262.625 189.114C262.309 189.114 262.037 189.076 261.808 189V186.75C261.972 186.791 262.157 186.812 262.362 186.812C262.795 186.812 263.118 186.56 263.329 186.056C263.504 185.646 263.616 185.016 263.663 184.166L263.944 179.306H271.239V189H268.681V181.318H266.141L265.939 184.342Z" fill="white"/>
<line y1="240.5" x2="310" y2="240.5" stroke="white" stroke-opacity="0.5"/>
<defs>
<filter id="filter0_b" x="-20" y="-20" width="350" height="350" filterUnits="userSpaceOnUse" color-interpolation-filters="sRGB">
<feFlood flood-opacity="0" result="BackgroundImageFix"/>
<feGaussianBlur in="BackgroundImage" stdDeviation="10"/>
<feComposite in2="SourceAlpha" operator="in" result="effect1_backgroundBlur"/>
<feBlend mode="normal" in="SourceGraphic" in2="effect1_backgroundBlur" result="shape"/>
</filter>
</defs>
</svg>
