<svg width="34" height="40" viewBox="0 0 34 40" fill="none" xmlns="http://www.w3.org/2000/svg">
<path fill-rule="evenodd" clip-rule="evenodd" d="M25.6491 19.9468L29.1028 23.3613H29.1048L29.1038 23.3622L29.1046 23.363H29.103L23.7715 28.634L20.3163 25.2182L17.6805 27.824L17.6801 27.8234L20.3158 25.2176L18.4399 23.363H18.4379L18.4389 23.362L18.4381 23.3613H18.4396L20.4552 21.3686L16.9992 17.9519L13.5516 21.3603L15.5755 23.3613H15.5757L15.5756 23.3614L15.5773 23.363H15.5739L13.6903 25.2253L16.3589 27.8636L16.3589 27.8636L13.6903 25.2253L10.2423 28.634L8.2189 26.6335L6.33447 28.4965L11.04 33.1486H11.0002L17.0002 39.0804L23.0002 33.1486H22.9613L27.6669 28.4965L27.6668 28.4965L32.9994 23.2246H33.0002L32.9998 23.2242L33.0002 23.2238H32.9994L27.6668 17.9519L25.6491 19.9468ZM20.456 21.3679L17.0002 17.9514L22.3335 12.6788V12.6787L22.3336 12.6788L22.3336 12.6787V12.6788L27.6669 17.9514L25.6488 19.9465L23.7712 18.0903L20.456 21.3679ZM13.5513 21.3601L16.9991 17.9514L11.6678 12.6807V12.6787L11.6668 12.6797L11.6658 12.6787V12.6807L6.33447 17.9514L8.35942 19.9533L10.2439 18.0903L13.5513 21.3601ZM8.35863 19.9541L6.33337 17.9519L1.00081 23.2238H1L1.0004 23.2242L1 23.2246H1.00081L6.33337 28.4965L8.21835 26.633L4.91077 23.363H4.91052L4.91065 23.3629L4.909 23.3613H4.9123L8.35863 19.9541ZM14.6852 34.8923L16.9609 37.1421L16.9202 34.8916L14.6852 34.8923ZM17.1322 37.1421L19.4078 34.8923L17.1728 34.8916L17.1322 37.1421Z" fill="white"/>
<path d="M1.31334 3.88693L9.97366 6.81848L11.9716 14.7144" stroke="white"/>
<path d="M32.6993 3.87488L24.0449 6.82496L22.0292 14.7144" stroke="white"/>
</svg>
