<svg width="310" height="310" viewBox="0 0 310 310" fill="none" xmlns="http://www.w3.org/2000/svg">
<path d="M17.3359 17.3057H19.8936V21.0234H23.7695V17.3057H26.3271V27H23.7695V23.0361H19.8936V27H17.3359V17.3057ZM32.7122 25.2246C33.304 25.2246 33.7991 25.0576 34.1976 24.7236C34.596 24.3896 34.7952 23.9766 34.7952 23.4844V22.7725L32.8353 22.8955C31.7454 22.9717 31.2005 23.3613 31.2005 24.0645C31.2005 24.4219 31.3411 24.7061 31.6224 24.917C31.8978 25.1221 32.2611 25.2246 32.7122 25.2246ZM31.8685 27.1494C30.931 27.1494 30.1693 26.8857 29.5833 26.3584C28.9915 25.8193 28.6956 25.1104 28.6956 24.2314C28.6956 23.3584 29.0208 22.6699 29.6712 22.166C30.3157 21.668 31.2415 21.3838 32.4486 21.3135L34.7952 21.1729V20.3818C34.7952 19.5381 34.2503 19.1162 33.1605 19.1162C32.2113 19.1162 31.6282 19.415 31.4114 20.0127H29.056C29.138 19.1162 29.5628 18.4043 30.3304 17.877C31.0921 17.3555 32.0823 17.0947 33.3011 17.0947C34.5784 17.0947 35.5687 17.3818 36.2718 17.9561C36.9691 18.5303 37.3177 19.3389 37.3177 20.3818V27H34.8392V25.7344H34.681C34.1478 26.6777 33.2103 27.1494 31.8685 27.1494ZM41.2682 30.542C40.7233 30.542 40.3981 30.5332 40.2926 30.5156V28.4502C40.3805 28.4678 40.5739 28.4766 40.8727 28.4766C41.8102 28.4766 42.3815 28.1221 42.5866 27.4131L42.6745 27.0615L39.2731 17.3057H42.0944L44.1334 24.6533H44.2916L46.3307 17.3057H49.0377L45.6979 27.1494C45.2877 28.3975 44.7487 29.2734 44.0807 29.7773C43.4186 30.2871 42.4811 30.542 41.2682 30.542ZM51.1513 17.3057H53.7089V24.9873H56.4863V17.3057H59.0439V24.9873H61.8213V17.3057H64.3789V27H51.1513V17.3057ZM67.2395 17.3057H69.7971V21.0234H73.6731V17.3057H76.2307V27H73.6731V23.0361H69.7971V27H67.2395V17.3057ZM79.0914 27V17.3057H81.6051V23.2646H81.7633L85.6744 17.3057H88.1881V27H85.6744V20.9707H85.5162L81.6051 27H79.0914ZM94.0458 21.085L96.9726 17.3057H99.8818L96.164 21.7266L100.075 27H97.0253L94.081 22.9834H93.6239V27H91.0663V17.3057H93.6239V21.085H94.0458ZM102.092 27V17.3057H104.606V23.2646H104.764L108.675 17.3057H111.189V27H108.675V20.9707H108.517L104.606 27H102.092ZM24.5957 40.0811L23.9805 43.1045H25.8789L25.624 44.3701H23.7256L22.9873 48H21.7217L22.4688 44.3701H19.7705L19.0322 48H17.7754L18.5137 44.3701H16.6152L16.8877 43.1045H18.7861L19.3926 40.0811H17.4941L17.749 38.8242H19.6475L20.3682 35.3174H21.625L20.9131 38.8242H23.6025L24.3232 35.3174H25.5889L24.8594 38.8242H26.7578L26.4941 40.0811H24.5957ZM20.0166 43.1309H22.7324L23.3564 40.0635H20.6318L20.0166 43.1309ZM34.5052 45.3721H28.3265V43.9307C29.4866 41.8682 31.2972 38.9971 33.7581 35.3174H36.0521V43.957H37.8538V45.3721H36.0521V48H34.5052V45.3721ZM29.9437 43.9658H34.514V36.7852H34.4085C33.0374 38.7773 31.5491 41.1357 29.9437 43.8604V43.9658ZM43.07 40.8018H44.608C45.3288 40.8018 45.9205 40.5908 46.3834 40.1689C46.8405 39.7471 47.069 39.208 47.069 38.5518C47.069 37.9072 46.8463 37.3857 46.401 36.9873C45.9557 36.5947 45.3668 36.3984 44.6344 36.3984C43.902 36.3984 43.3102 36.5889 42.859 36.9697C42.4079 37.3564 42.15 37.8896 42.0856 38.5693H40.5475C40.6295 37.4678 41.0397 36.6006 41.778 35.9678C42.5163 35.335 43.4889 35.0186 44.6959 35.0186C45.8034 35.0186 46.7438 35.3408 47.5172 35.9854C48.2907 36.6299 48.6774 37.415 48.6774 38.3408C48.6774 39.0967 48.4811 39.7354 48.0885 40.2568C47.6959 40.7783 47.151 41.124 46.4538 41.2939V41.4346C47.3151 41.5459 47.9918 41.8799 48.484 42.4365C48.9762 42.999 49.2223 43.7139 49.2223 44.5811C49.2223 45.624 48.7916 46.5059 47.9303 47.2266C47.069 47.9414 46.0114 48.2988 44.7575 48.2988C43.4684 48.2988 42.4166 47.9707 41.6022 47.3145C40.7877 46.6523 40.3512 45.7793 40.2926 44.6953H41.8219C41.8922 45.3691 42.1911 45.9082 42.7184 46.3125C43.2457 46.7168 43.9196 46.9189 44.7399 46.9189C45.5719 46.9189 46.2575 46.6963 46.7965 46.251C47.3297 45.8057 47.5963 45.2344 47.5963 44.5371C47.5963 43.8047 47.3356 43.2246 46.8141 42.7969C46.2926 42.3691 45.5807 42.1553 44.6784 42.1553H43.07V40.8018ZM56.1259 48.2988C54.9248 48.2988 53.9316 47.959 53.1464 47.2793C52.3613 46.6055 51.9336 45.7207 51.8632 44.625H53.4189C53.4892 45.3105 53.7734 45.8613 54.2714 46.2773C54.7754 46.6992 55.3994 46.9102 56.1435 46.9102C56.9931 46.9102 57.6757 46.6436 58.1914 46.1104C58.7129 45.5771 58.9736 44.877 58.9736 44.0098C58.9736 43.1426 58.7129 42.4365 58.1914 41.8916C57.6757 41.3525 57.0019 41.083 56.1699 41.083C54.9687 41.083 54.0957 41.5576 53.5507 42.5068H52.0654L52.7597 35.3174H59.8349V36.7324H53.999L53.6386 40.8018H53.7793C54.3945 40.0811 55.288 39.7207 56.4599 39.7207C57.667 39.7207 58.6513 40.1162 59.413 40.9072C60.1748 41.6982 60.5556 42.7178 60.5556 43.9658C60.5556 45.2549 60.1455 46.2979 59.3252 47.0947C58.5048 47.8975 57.4384 48.2988 56.1259 48.2988ZM67.7493 48.29C65.7923 48.29 64.4065 47.3291 63.5921 45.4072C63.1819 44.4463 62.9768 43.2686 62.9768 41.874C62.9768 39.6943 63.4016 38.0068 64.2513 36.8115C65.1009 35.6162 66.302 35.0186 67.8548 35.0186C68.9329 35.0186 69.844 35.3145 70.5882 35.9062C71.3382 36.5039 71.8128 37.3125 72.012 38.332H70.386C70.2161 37.7402 69.9055 37.2744 69.4544 36.9346C68.9973 36.5947 68.4583 36.4248 67.8372 36.4248C66.8059 36.4248 66.0061 36.8701 65.4378 37.7607C64.8636 38.6514 64.5559 39.9404 64.5149 41.6279H64.6555C64.9661 41.0127 65.4173 40.5322 66.0091 40.1865C66.6009 39.8467 67.2747 39.6768 68.0305 39.6768C69.2376 39.6768 70.2337 40.0752 71.0188 40.8721C71.804 41.6748 72.1966 42.6914 72.1966 43.9219C72.1966 45.1992 71.7805 46.2451 70.9485 47.0596C70.1165 47.8799 69.0501 48.29 67.7493 48.29ZM67.7317 46.9014C68.5462 46.9014 69.2259 46.6201 69.7708 46.0576C70.3216 45.501 70.597 44.8066 70.597 43.9746C70.597 43.1074 70.3333 42.4043 69.8059 41.8652C69.2727 41.3203 68.5872 41.0479 67.7493 41.0479C66.9114 41.0479 66.22 41.3174 65.6751 41.8564C65.136 42.3955 64.8665 43.084 64.8665 43.9219C64.8665 44.7715 65.1419 45.4805 65.6927 46.0488C66.2376 46.6172 66.9173 46.9014 67.7317 46.9014ZM79.4078 48.29C77.4508 48.29 76.065 47.3291 75.2506 45.4072C74.8404 44.4463 74.6354 43.2686 74.6354 41.874C74.6354 39.6943 75.0602 38.0068 75.9098 36.8115C76.7594 35.6162 77.9605 35.0186 79.5133 35.0186C80.5914 35.0186 81.5025 35.3145 82.2467 35.9062C82.9967 36.5039 83.4713 37.3125 83.6705 38.332H82.0445C81.8746 37.7402 81.5641 37.2744 81.1129 36.9346C80.6559 36.5947 80.1168 36.4248 79.4957 36.4248C78.4645 36.4248 77.6646 36.8701 77.0963 37.7607C76.5221 38.6514 76.2145 39.9404 76.1734 41.6279H76.3141C76.6246 41.0127 77.0758 40.5322 77.6676 40.1865C78.2594 39.8467 78.9332 39.6768 79.6891 39.6768C80.8961 39.6768 81.8922 40.0752 82.6773 40.8721C83.4625 41.6748 83.8551 42.6914 83.8551 43.9219C83.8551 45.1992 83.4391 46.2451 82.607 47.0596C81.775 47.8799 80.7086 48.29 79.4078 48.29ZM79.3902 46.9014C80.2047 46.9014 80.8844 46.6201 81.4293 46.0576C81.9801 45.501 82.2555 44.8066 82.2555 43.9746C82.2555 43.1074 81.9918 42.4043 81.4645 41.8652C80.9313 41.3203 80.2457 41.0479 79.4078 41.0479C78.5699 41.0479 77.8785 41.3174 77.3336 41.8564C76.7945 42.3955 76.525 43.084 76.525 43.9219C76.525 44.7715 76.8004 45.4805 77.3512 46.0488C77.8961 46.6172 78.5758 46.9014 79.3902 46.9014Z" fill="white"/>
</svg>
