<svg width="310" height="310" viewBox="0 0 310 310" fill="none" xmlns="http://www.w3.org/2000/svg">
<path d="M22.1699 19.1689C21.3613 19.1924 20.7227 19.4648 20.2539 19.9863C19.7734 20.5195 19.5332 21.2402 19.5332 22.1484C19.5332 23.0684 19.7705 23.792 20.2451 24.3193C20.7139 24.835 21.3555 25.1074 22.1699 25.1367V19.1689ZM27.2764 22.1484C27.2764 21.2344 27.0391 20.5137 26.5645 19.9863C26.0957 19.4707 25.4541 19.1982 24.6396 19.1689V25.1367C25.4482 25.1133 26.0869 24.8379 26.5557 24.3105C27.0361 23.7773 27.2764 23.0566 27.2764 22.1484ZM22.1436 27.1406C20.5439 27.1055 19.2783 26.6484 18.3467 25.7695C17.4033 24.8789 16.9316 23.6719 16.9316 22.1484C16.9316 20.6484 17.4062 19.4473 18.3555 18.5449C19.293 17.6602 20.5557 17.2002 22.1436 17.165V14.1943H24.666V17.165C26.2656 17.2002 27.5312 17.6572 28.4629 18.5361C29.4062 19.4268 29.8779 20.6338 29.8779 22.1572C29.8779 23.6572 29.4033 24.8555 28.4541 25.752C27.5166 26.6426 26.2539 27.1055 24.666 27.1406V30.0322H22.1436V27.1406ZM33.178 30.542C32.6331 30.542 32.3079 30.5332 32.2025 30.5156V28.4502C32.2904 28.4678 32.4837 28.4766 32.7825 28.4766C33.72 28.4766 34.2913 28.1221 34.4964 27.4131L34.5843 27.0615L31.1829 17.3057H34.0042L36.0433 24.6533H36.2015L38.2405 17.3057H40.9476L37.6077 27.1494C37.1976 28.3975 36.6585 29.2734 35.9905 29.7773C35.3284 30.2871 34.3909 30.542 33.178 30.542ZM50.5495 19.3184H47.6491V27H45.0914V19.3184H42.1911V17.3057H50.5495V19.3184ZM57.1103 25.1191C57.8017 25.1191 58.3379 24.8789 58.7187 24.3984C59.1054 23.9121 59.2988 23.2236 59.2988 22.333C59.2988 21.4834 59.1054 20.8213 58.7187 20.3467C58.3379 19.8721 57.8017 19.6348 57.1103 19.6348C56.4189 19.6348 55.8828 19.8721 55.5019 20.3467C55.1152 20.8213 54.9218 21.4834 54.9218 22.333C54.9218 23.2236 55.1123 23.9121 55.4931 24.3984C55.874 24.8789 56.413 25.1191 57.1103 25.1191ZM54.4296 19.5029C55.0625 18.2666 56.1435 17.6484 57.6728 17.6484C58.9502 17.6484 59.9755 18.0615 60.749 18.8877C61.5341 19.7256 61.9267 20.8506 61.9267 22.2627C61.9267 23.792 61.499 24.999 60.6435 25.8838C59.788 26.7686 58.625 27.2109 57.1543 27.2109C55.6015 27.2109 54.4091 26.7305 53.5771 25.7695C52.7216 24.7793 52.2939 23.332 52.2939 21.4277C52.2939 18.9434 52.7158 17.1094 53.5595 15.9258C54.3974 14.7422 55.7129 14.1182 57.5058 14.0537L58.7451 14.0098C59.372 13.9863 59.9814 13.916 60.5732 13.7988C61.0185 13.7109 61.2558 13.6523 61.2851 13.623V15.6885C60.8339 15.9287 60.04 16.0664 58.9033 16.1016L57.7255 16.1367C56.5713 16.1777 55.7275 16.4824 55.1943 17.0508C54.7197 17.5605 54.4121 18.3779 54.2714 19.5029H54.4296ZM68.76 25.1191C69.4397 25.1191 69.9671 24.8584 70.3421 24.3369C70.7171 23.8213 70.9046 23.0918 70.9046 22.1484C70.9046 21.2168 70.7171 20.4902 70.3421 19.9688C69.9612 19.4473 69.4339 19.1865 68.76 19.1865C68.0804 19.1865 67.553 19.4473 67.178 19.9688C66.803 20.4902 66.6155 21.2168 66.6155 22.1484C66.6155 23.0918 66.803 23.8242 67.178 24.3457C67.5471 24.8613 68.0745 25.1191 68.76 25.1191ZM68.76 27.2109C67.2718 27.2109 66.1028 26.7627 65.2532 25.8662C64.4095 24.9697 63.9876 23.7305 63.9876 22.1484C63.9876 20.5781 64.4153 19.3447 65.2708 18.4482C66.1204 17.5459 67.2835 17.0947 68.76 17.0947C70.2366 17.0947 71.4026 17.543 72.2581 18.4395C73.1077 19.3418 73.5325 20.5781 73.5325 22.1484C73.5325 23.7305 73.1106 24.9697 72.2669 25.8662C71.4173 26.7627 70.2483 27.2109 68.76 27.2109ZM79.109 22.3418C79.0211 23.9004 78.7457 25.0547 78.2828 25.8047C77.7496 26.6777 76.9205 27.1143 75.7955 27.1143C75.4791 27.1143 75.2066 27.0762 74.9781 27V24.75C75.1422 24.791 75.3268 24.8115 75.5318 24.8115C75.9654 24.8115 76.2877 24.5596 76.4986 24.0557C76.6744 23.6455 76.7857 23.0156 76.8326 22.166L77.1139 17.3057H84.4088V27H81.8512V19.3184H79.3111L79.109 22.3418ZM90.2489 21.085L93.1757 17.3057H96.0849L92.3671 21.7266L96.2782 27H93.2284L90.2841 22.9834H89.8271V27H87.2695V17.3057H89.8271V21.085H90.2489ZM101.468 25.2246C102.06 25.2246 102.555 25.0576 102.953 24.7236C103.352 24.3896 103.551 23.9766 103.551 23.4844V22.7725L101.591 22.8955C100.501 22.9717 99.9563 23.3613 99.9563 24.0645C99.9563 24.4219 100.097 24.7061 100.378 24.917C100.654 25.1221 101.017 25.2246 101.468 25.2246ZM100.624 27.1494C99.6868 27.1494 98.925 26.8857 98.3391 26.3584C97.7473 25.8193 97.4514 25.1104 97.4514 24.2314C97.4514 23.3584 97.7766 22.6699 98.427 22.166C99.0715 21.668 99.9973 21.3838 101.204 21.3135L103.551 21.1729V20.3818C103.551 19.5381 103.006 19.1162 101.916 19.1162C100.967 19.1162 100.384 19.415 100.167 20.0127H97.8118C97.8938 19.1162 98.3186 18.4043 99.0862 17.877C99.8479 17.3555 100.838 17.0947 102.057 17.0947C103.334 17.0947 104.324 17.3818 105.028 17.9561C105.725 18.5303 106.073 19.3389 106.073 20.3818V27H103.595V25.7344H103.437C102.904 26.6777 101.966 27.1494 100.624 27.1494ZM24.5957 40.0811L23.9805 43.1045H25.8789L25.624 44.3701H23.7256L22.9873 48H21.7217L22.4688 44.3701H19.7705L19.0322 48H17.7754L18.5137 44.3701H16.6152L16.8877 43.1045H18.7861L19.3926 40.0811H17.4941L17.749 38.8242H19.6475L20.3682 35.3174H21.625L20.9131 38.8242H23.6025L24.3232 35.3174H25.5889L24.8594 38.8242H26.7578L26.4941 40.0811H24.5957ZM20.0166 43.1309H22.7324L23.3564 40.0635H20.6318L20.0166 43.1309ZM35.1732 36.873V36.7324H28.6253V35.3174H36.7552V36.7852L31.1126 48H29.4515L35.1732 36.873ZM43.6413 48.29C41.6842 48.29 40.2985 47.3291 39.484 45.4072C39.0739 44.4463 38.8688 43.2686 38.8688 41.874C38.8688 39.6943 39.2936 38.0068 40.1432 36.8115C40.9928 35.6162 42.194 35.0186 43.7467 35.0186C44.8248 35.0186 45.736 35.3145 46.4801 35.9062C47.2301 36.5039 47.7047 37.3125 47.9039 38.332H46.278C46.108 37.7402 45.7975 37.2744 45.3463 36.9346C44.8893 36.5947 44.3502 36.4248 43.7291 36.4248C42.6979 36.4248 41.8981 36.8701 41.3297 37.7607C40.7555 38.6514 40.4479 39.9404 40.4069 41.6279H40.5475C40.858 41.0127 41.3092 40.5322 41.901 40.1865C42.4928 39.8467 43.1666 39.6768 43.9225 39.6768C45.1295 39.6768 46.1256 40.0752 46.9108 40.8721C47.6959 41.6748 48.0885 42.6914 48.0885 43.9219C48.0885 45.1992 47.6725 46.2451 46.8405 47.0596C46.0084 47.8799 44.942 48.29 43.6413 48.29ZM43.6237 46.9014C44.4381 46.9014 45.1178 46.6201 45.6627 46.0576C46.2135 45.501 46.4889 44.8066 46.4889 43.9746C46.4889 43.1074 46.2252 42.4043 45.6979 41.8652C45.1647 41.3203 44.4791 41.0479 43.6413 41.0479C42.8034 41.0479 42.112 41.3174 41.567 41.8564C41.028 42.3955 40.7584 43.084 40.7584 43.9219C40.7584 44.7715 41.0338 45.4805 41.5846 46.0488C42.1295 46.6172 42.8092 46.9014 43.6237 46.9014ZM57.0136 36.873V36.7324H50.4658V35.3174H58.5957V36.7852L52.9531 48H51.292L57.0136 36.873ZM65.3323 48.2988C63.9905 48.2988 62.8919 47.9561 62.0364 47.2705C61.1868 46.5791 60.762 45.6914 60.762 44.6074C60.762 43.7812 61.0022 43.0723 61.4827 42.4805C61.9632 41.8887 62.6018 41.5195 63.3987 41.373V41.2324C62.7542 41.0566 62.2386 40.7139 61.8518 40.2041C61.471 39.6943 61.2805 39.0938 61.2805 38.4023C61.2805 37.4121 61.6585 36.6006 62.4143 35.9678C63.1761 35.335 64.1487 35.0186 65.3323 35.0186C66.5159 35.0186 67.4886 35.335 68.2503 35.9678C69.0061 36.6006 69.3841 37.4121 69.3841 38.4023C69.3841 39.0996 69.1936 39.7002 68.8128 40.2041C68.4378 40.708 67.9221 41.0508 67.2659 41.2324V41.373C68.0628 41.5195 68.7014 41.8887 69.1819 42.4805C69.6624 43.0723 69.9026 43.7812 69.9026 44.6074C69.9026 45.6914 69.4778 46.5791 68.6282 47.2705C67.7727 47.9561 66.6741 48.2988 65.3323 48.2988ZM65.3323 46.9453C66.2112 46.9453 66.9261 46.7168 67.4768 46.2598C68.0276 45.8086 68.303 45.2197 68.303 44.4932C68.303 43.7666 68.0276 43.1777 67.4768 42.7266C66.9261 42.2695 66.2112 42.041 65.3323 42.041C64.4534 42.041 63.7386 42.2695 63.1878 42.7266C62.637 43.1777 62.3616 43.7666 62.3616 44.4932C62.3616 45.2197 62.637 45.8086 63.1878 46.2598C63.7386 46.7168 64.4534 46.9453 65.3323 46.9453ZM65.3323 40.7051C66.0823 40.7051 66.6858 40.5088 67.1429 40.1162C67.5999 39.7178 67.8284 39.1963 67.8284 38.5518C67.8284 37.8955 67.5999 37.3682 67.1429 36.9697C66.6858 36.5713 66.0823 36.3721 65.3323 36.3721C64.5823 36.3721 63.9788 36.5713 63.5218 36.9697C63.0647 37.3682 62.8362 37.8955 62.8362 38.5518C62.8362 39.1963 63.0647 39.7178 63.5218 40.1162C63.9788 40.5088 64.5823 40.7051 65.3323 40.7051ZM77.1578 48.29C75.2008 48.29 73.815 47.3291 73.0006 45.4072C72.5904 44.4463 72.3854 43.2686 72.3854 41.874C72.3854 39.6943 72.8102 38.0068 73.6598 36.8115C74.5094 35.6162 75.7105 35.0186 77.2633 35.0186C78.3414 35.0186 79.2525 35.3145 79.9967 35.9062C80.7467 36.5039 81.2213 37.3125 81.4205 38.332H79.7945C79.6246 37.7402 79.3141 37.2744 78.8629 36.9346C78.4059 36.5947 77.8668 36.4248 77.2457 36.4248C76.2145 36.4248 75.4146 36.8701 74.8463 37.7607C74.2721 38.6514 73.9645 39.9404 73.9234 41.6279H74.0641C74.3746 41.0127 74.8258 40.5322 75.4176 40.1865C76.0094 39.8467 76.6832 39.6768 77.4391 39.6768C78.6461 39.6768 79.6422 40.0752 80.4273 40.8721C81.2125 41.6748 81.6051 42.6914 81.6051 43.9219C81.6051 45.1992 81.1891 46.2451 80.357 47.0596C79.525 47.8799 78.4586 48.29 77.1578 48.29ZM77.1402 46.9014C77.9547 46.9014 78.6344 46.6201 79.1793 46.0576C79.7301 45.501 80.0055 44.8066 80.0055 43.9746C80.0055 43.1074 79.7418 42.4043 79.2145 41.8652C78.6813 41.3203 77.9957 41.0479 77.1578 41.0479C76.3199 41.0479 75.6285 41.3174 75.0836 41.8564C74.5445 42.3955 74.275 43.084 74.275 43.9219C74.275 44.7715 74.5504 45.4805 75.1012 46.0488C75.6461 46.6172 76.3258 46.9014 77.1402 46.9014Z" fill="white"/>
</svg>
