<svg width="310" height="310" viewBox="0 0 310 310" fill="none" xmlns="http://www.w3.org/2000/svg">
<path d="M23.6816 19.3184H19.8936V27H17.3359V17.3057H26.2393V27H23.6816V19.3184ZM32.6243 25.2246C33.2161 25.2246 33.7113 25.0576 34.1097 24.7236C34.5081 24.3896 34.7073 23.9766 34.7073 23.4844V22.7725L32.7474 22.8955C31.6575 22.9717 31.1126 23.3613 31.1126 24.0645C31.1126 24.4219 31.2532 24.7061 31.5345 24.917C31.8099 25.1221 32.1732 25.2246 32.6243 25.2246ZM31.7806 27.1494C30.8431 27.1494 30.0814 26.8857 29.4954 26.3584C28.9036 25.8193 28.6077 25.1104 28.6077 24.2314C28.6077 23.3584 28.9329 22.6699 29.5833 22.166C30.2279 21.668 31.1536 21.3838 32.3607 21.3135L34.7073 21.1729V20.3818C34.7073 19.5381 34.1624 19.1162 33.0726 19.1162C32.1234 19.1162 31.5404 19.415 31.3236 20.0127H28.9681C29.0501 19.1162 29.4749 18.4043 30.2425 17.877C31.0042 17.3555 31.9945 17.0947 33.2132 17.0947C34.4905 17.0947 35.4808 17.3818 36.1839 17.9561C36.8812 18.5303 37.2298 19.3389 37.2298 20.3818V27H34.7513V25.7344H34.5931C34.0599 26.6777 33.1224 27.1494 31.7806 27.1494ZM43.1051 21.085L46.0319 17.3057H48.9411L45.2233 21.7266L49.1344 27H46.0846L43.1403 22.9834H42.6832V27H40.1256V17.3057H42.6832V21.085H43.1051ZM54.9746 19.0547C54.3828 19.0547 53.8935 19.2451 53.5068 19.626C53.1259 20.0068 52.9121 20.5107 52.8652 21.1377H56.9961C56.9668 20.4932 56.7734 19.9863 56.416 19.6172C56.0527 19.2422 55.5722 19.0547 54.9746 19.0547ZM59.4306 24.2402C59.2373 25.1602 58.748 25.8838 57.9629 26.4111C57.1718 26.9443 56.1845 27.2109 55.0009 27.2109C53.5244 27.2109 52.373 26.7686 51.5468 25.8838C50.7207 25.0049 50.3076 23.7773 50.3076 22.2012C50.3076 20.625 50.7236 19.3799 51.5556 18.4658C52.3877 17.5518 53.5244 17.0947 54.9658 17.0947C56.3955 17.0947 57.5088 17.5254 58.3056 18.3867C59.1084 19.248 59.5097 20.4492 59.5097 21.9902V22.7725H52.8564V22.9043C52.874 23.625 53.082 24.1934 53.4804 24.6094C53.873 25.0312 54.4033 25.2422 55.0713 25.2422C56.1084 25.2422 56.7675 24.9082 57.0488 24.2402H59.4306ZM69.4016 19.3184H66.5013V27H63.9436V19.3184H61.0432V17.3057H69.4016V19.3184ZM82.6113 19.3096H79.6581L79.4384 22.3418C79.3622 23.4199 79.1337 24.249 78.7529 24.8291V24.9873H82.6113V19.3096ZM75.3515 29.5049V24.9873H76.0986C76.7079 24.6475 77.0654 23.707 77.1708 22.166L77.4872 17.3057H85.1601V24.9873H86.6015V29.5049H84.2636V27H77.6894V29.5049H75.3515ZM91.8088 22.3418C91.7209 23.9004 91.4455 25.0547 90.9827 25.8047C90.4495 26.6777 89.6204 27.1143 88.4954 27.1143C88.1789 27.1143 87.9065 27.0762 87.678 27V24.75C87.842 24.791 88.0266 24.8115 88.2317 24.8115C88.6653 24.8115 88.9875 24.5596 89.1985 24.0557C89.3743 23.6455 89.4856 23.0156 89.5325 22.166L89.8137 17.3057H97.1086V27H94.551V19.3184H92.011L91.8088 22.3418ZM105.383 22.0166V19.3096H103.81C103.336 19.3096 102.958 19.4355 102.676 19.6875C102.389 19.9395 102.246 20.2734 102.246 20.6895C102.246 21.082 102.389 21.3984 102.676 21.6387C102.963 21.8906 103.341 22.0166 103.81 22.0166H105.383ZM105.383 23.8799H104.337L102.184 27H99.2838L101.824 23.458C101.179 23.2646 100.669 22.916 100.294 22.4121C99.9195 21.9141 99.732 21.3311 99.732 20.6631C99.732 19.6436 100.084 18.8262 100.787 18.2109C101.484 17.6074 102.404 17.3057 103.546 17.3057H107.888V27H105.383V23.8799ZM115.587 27V17.3057H118.901L121.441 23.5107H121.599L124.148 17.3057H127.417V27H125.009V20.5752H124.842L122.39 26.4551H120.606L118.154 20.5752H117.995V27H115.587ZM134.549 19.0547C133.958 19.0547 133.468 19.2451 133.082 19.626C132.701 20.0068 132.487 20.5107 132.44 21.1377H136.571C136.542 20.4932 136.348 19.9863 135.991 19.6172C135.627 19.2422 135.147 19.0547 134.549 19.0547ZM139.005 24.2402C138.812 25.1602 138.323 25.8838 137.538 26.4111C136.747 26.9443 135.759 27.2109 134.576 27.2109C133.099 27.2109 131.948 26.7686 131.122 25.8838C130.295 25.0049 129.882 23.7773 129.882 22.2012C129.882 20.625 130.298 19.3799 131.13 18.4658C131.962 17.5518 133.099 17.0947 134.541 17.0947C135.97 17.0947 137.084 17.5254 137.88 18.3867C138.683 19.248 139.084 20.4492 139.084 21.9902V22.7725H132.431V22.9043C132.449 23.625 132.657 24.1934 133.055 24.6094C133.448 25.0312 133.978 25.2422 134.646 25.2422C135.683 25.2422 136.342 24.9082 136.624 24.2402H139.005ZM147.201 17.1475C148.431 17.1475 149.398 17.5898 150.101 18.4746C150.805 19.3594 151.156 20.584 151.156 22.1484C151.156 23.707 150.807 24.9316 150.11 25.8223C149.413 26.707 148.458 27.1494 147.245 27.1494C145.798 27.1494 144.822 26.6045 144.318 25.5146H144.16V30.0322H141.602V17.3057H144.081V18.8965H144.239C144.503 18.3516 144.895 17.9238 145.417 17.6133C145.938 17.3027 146.533 17.1475 147.201 17.1475ZM146.331 25.0137C147.022 25.0137 147.561 24.7588 147.948 24.249C148.335 23.7451 148.528 23.0449 148.528 22.1484C148.528 21.2578 148.335 20.5605 147.948 20.0566C147.556 19.5469 147.019 19.292 146.34 19.292C145.66 19.292 145.121 19.5469 144.723 20.0566C144.33 20.5723 144.134 21.2725 144.134 22.1572C144.134 23.042 144.33 23.7393 144.723 24.249C145.115 24.7588 145.651 25.0137 146.331 25.0137ZM159.448 27V22.8955H159.29C158.687 23.5928 157.822 23.9414 156.697 23.9414C155.672 23.9414 154.855 23.6191 154.245 22.9746C153.63 22.3301 153.322 21.46 153.322 20.3643V17.3057H155.88V19.9688C155.88 20.5195 156.027 20.9531 156.319 21.2695C156.607 21.5801 156.999 21.7354 157.497 21.7354C158.382 21.7354 159.032 21.416 159.448 20.7773V17.3057H162.006V27H159.448ZM168.4 25.2246C168.992 25.2246 169.487 25.0576 169.885 24.7236C170.284 24.3896 170.483 23.9766 170.483 23.4844V22.7725L168.523 22.8955C167.433 22.9717 166.888 23.3613 166.888 24.0645C166.888 24.4219 167.029 24.7061 167.31 24.917C167.585 25.1221 167.949 25.2246 168.4 25.2246ZM167.556 27.1494C166.619 27.1494 165.857 26.8857 165.271 26.3584C164.679 25.8193 164.383 25.1104 164.383 24.2314C164.383 23.3584 164.708 22.6699 165.359 22.166C166.003 21.668 166.929 21.3838 168.136 21.3135L170.483 21.1729V20.3818C170.483 19.5381 169.938 19.1162 168.848 19.1162C167.899 19.1162 167.316 19.415 167.099 20.0127H164.744C164.826 19.1162 165.25 18.4043 166.018 17.877C166.78 17.3555 167.77 17.0947 168.989 17.0947C170.266 17.0947 171.256 17.3818 171.959 17.9561C172.657 18.5303 173.005 19.3389 173.005 20.3818V27H170.527V25.7344H170.369C169.835 26.6777 168.898 27.1494 167.556 27.1494ZM24.5957 40.0811L23.9805 43.1045H25.8789L25.624 44.3701H23.7256L22.9873 48H21.7217L22.4688 44.3701H19.7705L19.0322 48H17.7754L18.5137 44.3701H16.6152L16.8877 43.1045H18.7861L19.3926 40.0811H17.4941L17.749 38.8242H19.6475L20.3682 35.3174H21.625L20.9131 38.8242H23.6025L24.3232 35.3174H25.5889L24.8594 38.8242H26.7578L26.4941 40.0811H24.5957ZM20.0166 43.1309H22.7324L23.3564 40.0635H20.6318L20.0166 43.1309ZM34.5052 45.3721H28.3265V43.9307C29.4866 41.8682 31.2972 38.9971 33.7581 35.3174H36.0521V43.957H37.8538V45.3721H36.0521V48H34.5052V45.3721ZM29.9437 43.9658H34.514V36.7852H34.4085C33.0374 38.7773 31.5491 41.1357 29.9437 43.8604V43.9658ZM44.8102 48.2988C43.4684 48.2988 42.3698 47.9561 41.5143 47.2705C40.6647 46.5791 40.2399 45.6914 40.2399 44.6074C40.2399 43.7812 40.4801 43.0723 40.9606 42.4805C41.4411 41.8887 42.0797 41.5195 42.8766 41.373V41.2324C42.2321 41.0566 41.7164 40.7139 41.3297 40.2041C40.9489 39.6943 40.7584 39.0938 40.7584 38.4023C40.7584 37.4121 41.1364 36.6006 41.8922 35.9678C42.6539 35.335 43.6266 35.0186 44.8102 35.0186C45.9938 35.0186 46.9664 35.335 47.7282 35.9678C48.484 36.6006 48.862 37.4121 48.862 38.4023C48.862 39.0996 48.6715 39.7002 48.2907 40.2041C47.9157 40.708 47.4 41.0508 46.7438 41.2324V41.373C47.5407 41.5195 48.1793 41.8887 48.6598 42.4805C49.1403 43.0723 49.3805 43.7812 49.3805 44.6074C49.3805 45.6914 48.9557 46.5791 48.1061 47.2705C47.2506 47.9561 46.152 48.2988 44.8102 48.2988ZM44.8102 46.9453C45.6891 46.9453 46.4039 46.7168 46.9547 46.2598C47.5055 45.8086 47.7809 45.2197 47.7809 44.4932C47.7809 43.7666 47.5055 43.1777 46.9547 42.7266C46.4039 42.2695 45.6891 42.041 44.8102 42.041C43.9313 42.041 43.2164 42.2695 42.6657 42.7266C42.1149 43.1777 41.8395 43.7666 41.8395 44.4932C41.8395 45.2197 42.1149 45.8086 42.6657 46.2598C43.2164 46.7168 43.9313 46.9453 44.8102 46.9453ZM44.8102 40.7051C45.5602 40.7051 46.1637 40.5088 46.6207 40.1162C47.0778 39.7178 47.3063 39.1963 47.3063 38.5518C47.3063 37.8955 47.0778 37.3682 46.6207 36.9697C46.1637 36.5713 45.5602 36.3721 44.8102 36.3721C44.0602 36.3721 43.4567 36.5713 42.9996 36.9697C42.5426 37.3682 42.3141 37.8955 42.3141 38.5518C42.3141 39.1963 42.5426 39.7178 42.9996 40.1162C43.4567 40.5088 44.0602 40.7051 44.8102 40.7051ZM58.3496 36.873V36.7324H51.8017V35.3174H59.9316V36.7852L54.289 48H52.6279L58.3496 36.873ZM66.8177 48.29C64.8606 48.29 63.4749 47.3291 62.6604 45.4072C62.2503 44.4463 62.0452 43.2686 62.0452 41.874C62.0452 39.6943 62.47 38.0068 63.3196 36.8115C64.1692 35.6162 65.3704 35.0186 66.9231 35.0186C68.0013 35.0186 68.9124 35.3145 69.6565 35.9062C70.4065 36.5039 70.8811 37.3125 71.0804 38.332H69.4544C69.2845 37.7402 68.9739 37.2744 68.5227 36.9346C68.0657 36.5947 67.5266 36.4248 66.9055 36.4248C65.8743 36.4248 65.0745 36.8701 64.5061 37.7607C63.9319 38.6514 63.6243 39.9404 63.5833 41.6279H63.7239C64.0345 41.0127 64.4856 40.5322 65.0774 40.1865C65.6692 39.8467 66.343 39.6768 67.0989 39.6768C68.3059 39.6768 69.302 40.0752 70.0872 40.8721C70.8723 41.6748 71.2649 42.6914 71.2649 43.9219C71.2649 45.1992 70.8489 46.2451 70.0169 47.0596C69.1848 47.8799 68.1184 48.29 66.8177 48.29ZM66.8001 46.9014C67.6145 46.9014 68.2942 46.6201 68.8391 46.0576C69.3899 45.501 69.6653 44.8066 69.6653 43.9746C69.6653 43.1074 69.4016 42.4043 68.8743 41.8652C68.3411 41.3203 67.6555 41.0479 66.8177 41.0479C65.9798 41.0479 65.2884 41.3174 64.7434 41.8564C64.2044 42.3955 63.9348 43.084 63.9348 43.9219C63.9348 44.7715 64.2102 45.4805 64.761 46.0488C65.3059 46.6172 65.9856 46.9014 66.8001 46.9014ZM78.4762 48.29C76.5191 48.29 75.1334 47.3291 74.3189 45.4072C73.9088 44.4463 73.7037 43.2686 73.7037 41.874C73.7037 39.6943 74.1285 38.0068 74.9781 36.8115C75.8277 35.6162 77.0289 35.0186 78.5816 35.0186C79.6598 35.0186 80.5709 35.3145 81.315 35.9062C82.065 36.5039 82.5396 37.3125 82.7389 38.332H81.1129C80.943 37.7402 80.6324 37.2744 80.1813 36.9346C79.7242 36.5947 79.1852 36.4248 78.5641 36.4248C77.5328 36.4248 76.733 36.8701 76.1646 37.7607C75.5904 38.6514 75.2828 39.9404 75.2418 41.6279H75.3824C75.693 41.0127 76.1441 40.5322 76.7359 40.1865C77.3277 39.8467 78.0016 39.6768 78.7574 39.6768C79.9645 39.6768 80.9605 40.0752 81.7457 40.8721C82.5309 41.6748 82.9234 42.6914 82.9234 43.9219C82.9234 45.1992 82.5074 46.2451 81.6754 47.0596C80.8434 47.8799 79.777 48.29 78.4762 48.29ZM78.4586 46.9014C79.273 46.9014 79.9527 46.6201 80.4977 46.0576C81.0484 45.501 81.3238 44.8066 81.3238 43.9746C81.3238 43.1074 81.0602 42.4043 80.5328 41.8652C79.9996 41.3203 79.3141 41.0479 78.4762 41.0479C77.6383 41.0479 76.9469 41.3174 76.402 41.8564C75.8629 42.3955 75.5934 43.084 75.5934 43.9219C75.5934 44.7715 75.8688 45.4805 76.4195 46.0488C76.9645 46.6172 77.6441 46.9014 78.4586 46.9014Z" fill="white"/>
</svg>
