<svg width="310" height="310" viewBox="0 0 310 310" fill="none" xmlns="http://www.w3.org/2000/svg">
<path d="M22.1699 19.1689C21.3613 19.1924 20.7227 19.4648 20.2539 19.9863C19.7734 20.5195 19.5332 21.2402 19.5332 22.1484C19.5332 23.0684 19.7705 23.792 20.2451 24.3193C20.7139 24.835 21.3555 25.1074 22.1699 25.1367V19.1689ZM27.2764 22.1484C27.2764 21.2344 27.0391 20.5137 26.5645 19.9863C26.0957 19.4707 25.4541 19.1982 24.6396 19.1689V25.1367C25.4482 25.1133 26.0869 24.8379 26.5557 24.3105C27.0361 23.7773 27.2764 23.0566 27.2764 22.1484ZM22.1436 27.1406C20.5439 27.1055 19.2783 26.6484 18.3467 25.7695C17.4033 24.8789 16.9316 23.6719 16.9316 22.1484C16.9316 20.6484 17.4062 19.4473 18.3555 18.5449C19.293 17.6602 20.5557 17.2002 22.1436 17.165V14.1943H24.666V17.165C26.2656 17.2002 27.5312 17.6572 28.4629 18.5361C29.4062 19.4268 29.8779 20.6338 29.8779 22.1572C29.8779 23.6572 29.4033 24.8555 28.4541 25.752C27.5166 26.6426 26.2539 27.1055 24.666 27.1406V30.0322H22.1436V27.1406ZM33.178 30.542C32.6331 30.542 32.3079 30.5332 32.2025 30.5156V28.4502C32.2904 28.4678 32.4837 28.4766 32.7825 28.4766C33.72 28.4766 34.2913 28.1221 34.4964 27.4131L34.5843 27.0615L31.1829 17.3057H34.0042L36.0433 24.6533H36.2015L38.2405 17.3057H40.9476L37.6077 27.1494C37.1976 28.3975 36.6585 29.2734 35.9905 29.7773C35.3284 30.2871 34.3909 30.542 33.178 30.542ZM50.5495 19.3184H47.6491V27H45.0914V19.3184H42.1911V17.3057H50.5495V19.3184ZM57.1103 25.1191C57.8017 25.1191 58.3379 24.8789 58.7187 24.3984C59.1054 23.9121 59.2988 23.2236 59.2988 22.333C59.2988 21.4834 59.1054 20.8213 58.7187 20.3467C58.3379 19.8721 57.8017 19.6348 57.1103 19.6348C56.4189 19.6348 55.8828 19.8721 55.5019 20.3467C55.1152 20.8213 54.9218 21.4834 54.9218 22.333C54.9218 23.2236 55.1123 23.9121 55.4931 24.3984C55.874 24.8789 56.413 25.1191 57.1103 25.1191ZM54.4296 19.5029C55.0625 18.2666 56.1435 17.6484 57.6728 17.6484C58.9502 17.6484 59.9755 18.0615 60.749 18.8877C61.5341 19.7256 61.9267 20.8506 61.9267 22.2627C61.9267 23.792 61.499 24.999 60.6435 25.8838C59.788 26.7686 58.625 27.2109 57.1543 27.2109C55.6015 27.2109 54.4091 26.7305 53.5771 25.7695C52.7216 24.7793 52.2939 23.332 52.2939 21.4277C52.2939 18.9434 52.7158 17.1094 53.5595 15.9258C54.3974 14.7422 55.7129 14.1182 57.5058 14.0537L58.7451 14.0098C59.372 13.9863 59.9814 13.916 60.5732 13.7988C61.0185 13.7109 61.2558 13.6523 61.2851 13.623V15.6885C60.8339 15.9287 60.04 16.0664 58.9033 16.1016L57.7255 16.1367C56.5713 16.1777 55.7275 16.4824 55.1943 17.0508C54.7197 17.5605 54.4121 18.3779 54.2714 19.5029H54.4296ZM68.76 25.1191C69.4397 25.1191 69.9671 24.8584 70.3421 24.3369C70.7171 23.8213 70.9046 23.0918 70.9046 22.1484C70.9046 21.2168 70.7171 20.4902 70.3421 19.9688C69.9612 19.4473 69.4339 19.1865 68.76 19.1865C68.0804 19.1865 67.553 19.4473 67.178 19.9688C66.803 20.4902 66.6155 21.2168 66.6155 22.1484C66.6155 23.0918 66.803 23.8242 67.178 24.3457C67.5471 24.8613 68.0745 25.1191 68.76 25.1191ZM68.76 27.2109C67.2718 27.2109 66.1028 26.7627 65.2532 25.8662C64.4095 24.9697 63.9876 23.7305 63.9876 22.1484C63.9876 20.5781 64.4153 19.3447 65.2708 18.4482C66.1204 17.5459 67.2835 17.0947 68.76 17.0947C70.2366 17.0947 71.4026 17.543 72.2581 18.4395C73.1077 19.3418 73.5325 20.5781 73.5325 22.1484C73.5325 23.7305 73.1106 24.9697 72.2669 25.8662C71.4173 26.7627 70.2483 27.2109 68.76 27.2109ZM79.109 22.3418C79.0211 23.9004 78.7457 25.0547 78.2828 25.8047C77.7496 26.6777 76.9205 27.1143 75.7955 27.1143C75.4791 27.1143 75.2066 27.0762 74.9781 27V24.75C75.1422 24.791 75.3268 24.8115 75.5318 24.8115C75.9654 24.8115 76.2877 24.5596 76.4986 24.0557C76.6744 23.6455 76.7857 23.0156 76.8326 22.166L77.1139 17.3057H84.4088V27H81.8512V19.3184H79.3111L79.109 22.3418ZM90.2489 21.085L93.1757 17.3057H96.0849L92.3671 21.7266L96.2782 27H93.2284L90.2841 22.9834H89.8271V27H87.2695V17.3057H89.8271V21.085H90.2489ZM101.468 25.2246C102.06 25.2246 102.555 25.0576 102.953 24.7236C103.352 24.3896 103.551 23.9766 103.551 23.4844V22.7725L101.591 22.8955C100.501 22.9717 99.9563 23.3613 99.9563 24.0645C99.9563 24.4219 100.097 24.7061 100.378 24.917C100.654 25.1221 101.017 25.2246 101.468 25.2246ZM100.624 27.1494C99.6868 27.1494 98.925 26.8857 98.3391 26.3584C97.7473 25.8193 97.4514 25.1104 97.4514 24.2314C97.4514 23.3584 97.7766 22.6699 98.427 22.166C99.0715 21.668 99.9973 21.3838 101.204 21.3135L103.551 21.1729V20.3818C103.551 19.5381 103.006 19.1162 101.916 19.1162C100.967 19.1162 100.384 19.415 100.167 20.0127H97.8118C97.8938 19.1162 98.3186 18.4043 99.0862 17.877C99.8479 17.3555 100.838 17.0947 102.057 17.0947C103.334 17.0947 104.324 17.3818 105.028 17.9561C105.725 18.5303 106.073 19.3389 106.073 20.3818V27H103.595V25.7344H103.437C102.904 26.6777 101.966 27.1494 100.624 27.1494ZM24.5957 40.0811L23.9805 43.1045H25.8789L25.624 44.3701H23.7256L22.9873 48H21.7217L22.4688 44.3701H19.7705L19.0322 48H17.7754L18.5137 44.3701H16.6152L16.8877 43.1045H18.7861L19.3926 40.0811H17.4941L17.749 38.8242H19.6475L20.3682 35.3174H21.625L20.9131 38.8242H23.6025L24.3232 35.3174H25.5889L24.8594 38.8242H26.7578L26.4941 40.0811H24.5957ZM20.0166 43.1309H22.7324L23.3564 40.0635H20.6318L20.0166 43.1309ZM31.5696 40.8018H33.1077C33.8284 40.8018 34.4202 40.5908 34.8831 40.1689C35.3402 39.7471 35.5687 39.208 35.5687 38.5518C35.5687 37.9072 35.346 37.3857 34.9007 36.9873C34.4554 36.5947 33.8665 36.3984 33.1341 36.3984C32.4017 36.3984 31.8099 36.5889 31.3587 36.9697C30.9075 37.3564 30.6497 37.8896 30.5853 38.5693H29.0472C29.1292 37.4678 29.5394 36.6006 30.2777 35.9678C31.0159 35.335 31.9886 35.0186 33.1956 35.0186C34.303 35.0186 35.2435 35.3408 36.0169 35.9854C36.7904 36.6299 37.1771 37.415 37.1771 38.3408C37.1771 39.0967 36.9808 39.7354 36.5882 40.2568C36.1956 40.7783 35.6507 41.124 34.9534 41.2939V41.4346C35.8148 41.5459 36.4915 41.8799 36.9837 42.4365C37.4759 42.999 37.722 43.7139 37.722 44.5811C37.722 45.624 37.2913 46.5059 36.43 47.2266C35.5687 47.9414 34.5111 48.2988 33.2571 48.2988C31.9681 48.2988 30.9163 47.9707 30.1019 47.3145C29.2874 46.6523 28.8509 45.7793 28.7923 44.6953H30.3216C30.3919 45.3691 30.6907 45.9082 31.2181 46.3125C31.7454 46.7168 32.4193 46.9189 33.2396 46.9189C34.0716 46.9189 34.7571 46.6963 35.2962 46.251C35.8294 45.8057 36.096 45.2344 36.096 44.5371C36.096 43.8047 35.8353 43.2246 35.3138 42.7969C34.7923 42.3691 34.0804 42.1553 33.178 42.1553H31.5696V40.8018ZM44.9245 48.29C42.9674 48.29 41.5817 47.3291 40.7672 45.4072C40.3571 44.4463 40.152 43.2686 40.152 41.874C40.152 39.6943 40.5768 38.0068 41.4264 36.8115C42.276 35.6162 43.4772 35.0186 45.0299 35.0186C46.108 35.0186 47.0192 35.3145 47.7633 35.9062C48.5133 36.5039 48.9879 37.3125 49.1871 38.332H47.5612C47.3913 37.7402 47.0807 37.2744 46.6295 36.9346C46.1725 36.5947 45.6334 36.4248 45.0123 36.4248C43.9811 36.4248 43.1813 36.8701 42.6129 37.7607C42.0387 38.6514 41.7311 39.9404 41.6901 41.6279H41.8307C42.1413 41.0127 42.5924 40.5322 43.1842 40.1865C43.776 39.8467 44.4498 39.6768 45.2057 39.6768C46.4127 39.6768 47.4088 40.0752 48.194 40.8721C48.9791 41.6748 49.3717 42.6914 49.3717 43.9219C49.3717 45.1992 48.9557 46.2451 48.1237 47.0596C47.2916 47.8799 46.2252 48.29 44.9245 48.29ZM44.9069 46.9014C45.7213 46.9014 46.401 46.6201 46.9459 46.0576C47.4967 45.501 47.7721 44.8066 47.7721 43.9746C47.7721 43.1074 47.5084 42.4043 46.9811 41.8652C46.4479 41.3203 45.7623 41.0479 44.9245 41.0479C44.0866 41.0479 43.3952 41.3174 42.8502 41.8564C42.3112 42.3955 42.0416 43.084 42.0416 43.9219C42.0416 44.7715 42.317 45.4805 42.8678 46.0488C43.4127 46.6172 44.0924 46.9014 44.9069 46.9014ZM57.8925 45.3721H51.7138V43.9307C52.874 41.8682 54.6845 38.9971 57.1455 35.3174H59.4394V43.957H61.2412V45.3721H59.4394V48H57.8925V45.3721ZM53.331 43.9658H57.9013V36.7852H57.7959C56.4248 38.7773 54.9365 41.1357 53.331 43.8604V43.9658ZM68.1975 48.2988C66.8557 48.2988 65.7571 47.9561 64.9016 47.2705C64.052 46.5791 63.6272 45.6914 63.6272 44.6074C63.6272 43.7812 63.8675 43.0723 64.3479 42.4805C64.8284 41.8887 65.4671 41.5195 66.2639 41.373V41.2324C65.6194 41.0566 65.1038 40.7139 64.7171 40.2041C64.3362 39.6943 64.1458 39.0938 64.1458 38.4023C64.1458 37.4121 64.5237 36.6006 65.2796 35.9678C66.0413 35.335 67.0139 35.0186 68.1975 35.0186C69.3811 35.0186 70.3538 35.335 71.1155 35.9678C71.8714 36.6006 72.2493 37.4121 72.2493 38.4023C72.2493 39.0996 72.0589 39.7002 71.678 40.2041C71.303 40.708 70.7874 41.0508 70.1311 41.2324V41.373C70.928 41.5195 71.5667 41.8887 72.0471 42.4805C72.5276 43.0723 72.7679 43.7812 72.7679 44.6074C72.7679 45.6914 72.343 46.5791 71.4934 47.2705C70.638 47.9561 69.5393 48.2988 68.1975 48.2988ZM68.1975 46.9453C69.0764 46.9453 69.7913 46.7168 70.3421 46.2598C70.8929 45.8086 71.1682 45.2197 71.1682 44.4932C71.1682 43.7666 70.8929 43.1777 70.3421 42.7266C69.7913 42.2695 69.0764 42.041 68.1975 42.041C67.3186 42.041 66.6038 42.2695 66.053 42.7266C65.5022 43.1777 65.2268 43.7666 65.2268 44.4932C65.2268 45.2197 65.5022 45.8086 66.053 46.2598C66.6038 46.7168 67.3186 46.9453 68.1975 46.9453ZM68.1975 40.7051C68.9475 40.7051 69.5511 40.5088 70.0081 40.1162C70.4651 39.7178 70.6936 39.1963 70.6936 38.5518C70.6936 37.8955 70.4651 37.3682 70.0081 36.9697C69.5511 36.5713 68.9475 36.3721 68.1975 36.3721C67.4475 36.3721 66.844 36.5713 66.387 36.9697C65.93 37.3682 65.7014 37.8955 65.7014 38.5518C65.7014 39.1963 65.93 39.7178 66.387 40.1162C66.844 40.5088 67.4475 40.7051 68.1975 40.7051ZM78.1334 40.8018H79.6715C80.3922 40.8018 80.984 40.5908 81.4469 40.1689C81.9039 39.7471 82.1324 39.208 82.1324 38.5518C82.1324 37.9072 81.9098 37.3857 81.4645 36.9873C81.0191 36.5947 80.4303 36.3984 79.6979 36.3984C78.9654 36.3984 78.3736 36.5889 77.9225 36.9697C77.4713 37.3564 77.2135 37.8896 77.149 38.5693H75.6109C75.693 37.4678 76.1031 36.6006 76.8414 35.9678C77.5797 35.335 78.5523 35.0186 79.7594 35.0186C80.8668 35.0186 81.8072 35.3408 82.5807 35.9854C83.3541 36.6299 83.7408 37.415 83.7408 38.3408C83.7408 39.0967 83.5445 39.7354 83.152 40.2568C82.7594 40.7783 82.2145 41.124 81.5172 41.2939V41.4346C82.3785 41.5459 83.0553 41.8799 83.5475 42.4365C84.0396 42.999 84.2857 43.7139 84.2857 44.5811C84.2857 45.624 83.8551 46.5059 82.9938 47.2266C82.1324 47.9414 81.0748 48.2988 79.8209 48.2988C78.5318 48.2988 77.4801 47.9707 76.6656 47.3145C75.8512 46.6523 75.4146 45.7793 75.3561 44.6953H76.8854C76.9557 45.3691 77.2545 45.9082 77.7818 46.3125C78.3092 46.7168 78.983 46.9189 79.8033 46.9189C80.6354 46.9189 81.3209 46.6963 81.86 46.251C82.3932 45.8057 82.6598 45.2344 82.6598 44.5371C82.6598 43.8047 82.399 43.2246 81.8775 42.7969C81.3561 42.3691 80.6441 42.1553 79.7418 42.1553H78.1334V40.8018Z" fill="white"/>
</svg>
