<svg width="310" height="310" viewBox="0 0 310 310" fill="none" xmlns="http://www.w3.org/2000/svg">
<path d="M23.5938 20.7246C23.5059 20.25 23.3008 19.8809 22.9785 19.6172C22.6387 19.3359 22.2021 19.1953 21.6689 19.1953C20.9775 19.1953 20.4473 19.4473 20.0781 19.9512C19.7031 20.4551 19.5156 21.1816 19.5156 22.1309C19.5156 23.0918 19.7031 23.8301 20.0781 24.3457C20.4473 24.8555 20.9775 25.1104 21.6689 25.1104C22.7529 25.1104 23.3945 24.6211 23.5938 23.6426H25.9844C25.8789 24.7383 25.4482 25.6055 24.6924 26.2441C23.9248 26.8887 22.917 27.2109 21.6689 27.2109C20.1572 27.2109 18.9912 26.7715 18.1709 25.8926C17.3447 25.0078 16.9316 23.7539 16.9316 22.1309C16.9316 20.5195 17.3418 19.2773 18.1621 18.4043C18.9824 17.5312 20.1514 17.0947 21.6689 17.0947C22.9346 17.0947 23.9482 17.4229 24.71 18.0791C25.4541 18.7236 25.8789 19.6055 25.9844 20.7246H23.5938ZM35.6214 19.3184H32.721V27H30.1634V19.3184H27.263V17.3057H35.6214V19.3184ZM37.7702 27V17.3057H40.2838V23.2646H40.442L44.3532 17.3057H46.8668V27H44.3532V20.9707H44.195L40.2838 27H37.7702ZM52.7246 21.085L55.6513 17.3057H58.5605L54.8427 21.7266L58.7539 27H55.7041L52.7597 22.9834H52.3027V27H49.7451V17.3057H52.3027V21.085H52.7246ZM64.594 19.0547C64.0022 19.0547 63.513 19.2451 63.1263 19.626C62.7454 20.0068 62.5315 20.5107 62.4846 21.1377H66.6155C66.5862 20.4932 66.3929 19.9863 66.0354 19.6172C65.6721 19.2422 65.1917 19.0547 64.594 19.0547ZM69.0501 24.2402C68.8567 25.1602 68.3675 25.8838 67.5823 26.4111C66.7913 26.9443 65.804 27.2109 64.6204 27.2109C63.1438 27.2109 61.9925 26.7686 61.1663 25.8838C60.3401 25.0049 59.927 23.7773 59.927 22.2012C59.927 20.625 60.343 19.3799 61.1751 18.4658C62.0071 17.5518 63.1438 17.0947 64.5852 17.0947C66.0149 17.0947 67.1282 17.5254 67.9251 18.3867C68.7278 19.248 69.1292 20.4492 69.1292 21.9902V22.7725H62.4759V22.9043C62.4934 23.625 62.7014 24.1934 63.0999 24.6094C63.4925 25.0312 64.0227 25.2422 64.6907 25.2422C65.7278 25.2422 66.387 24.9082 66.6682 24.2402H69.0501ZM77.2457 17.1475C78.4762 17.1475 79.443 17.5898 80.1461 18.4746C80.8492 19.3594 81.2008 20.584 81.2008 22.1484C81.2008 23.707 80.8521 24.9316 80.1549 25.8223C79.4576 26.707 78.5025 27.1494 77.2896 27.1494C75.8424 27.1494 74.8668 26.6045 74.3629 25.5146H74.2047V30.0322H71.6471V17.3057H74.1256V18.8965H74.2838C74.5475 18.3516 74.94 17.9238 75.4615 17.6133C75.983 17.3027 76.5777 17.1475 77.2457 17.1475ZM76.3756 25.0137C77.067 25.0137 77.6061 24.7588 77.9928 24.249C78.3795 23.7451 78.5729 23.0449 78.5729 22.1484C78.5729 21.2578 78.3795 20.5605 77.9928 20.0566C77.6002 19.5469 77.0641 19.292 76.3844 19.292C75.7047 19.292 75.1656 19.5469 74.7672 20.0566C74.3746 20.5723 74.1783 21.2725 74.1783 22.1572C74.1783 23.042 74.3746 23.7393 74.7672 24.249C75.1598 24.7588 75.6959 25.0137 76.3756 25.0137ZM92.8241 17.3057H95.3818V27H92.8241V17.3057ZM86.2323 22.0869V24.9873H87.7089C88.1952 24.9873 88.5849 24.8525 88.8779 24.583C89.165 24.3193 89.3085 23.9707 89.3085 23.5371C89.3085 23.1035 89.162 22.752 88.8691 22.4824C88.5761 22.2188 88.1894 22.0869 87.7089 22.0869H86.2323ZM83.6747 17.3057H86.2323V20.1006H88.1132C89.2558 20.1006 90.1669 20.4111 90.8466 21.0322C91.5204 21.6592 91.8573 22.5 91.8573 23.5547C91.8573 24.6094 91.5204 25.4473 90.8466 26.0684C90.1669 26.6895 89.2558 27 88.1132 27H83.6747V17.3057ZM24.5957 40.0811L23.9805 43.1045H25.8789L25.624 44.3701H23.7256L22.9873 48H21.7217L22.4688 44.3701H19.7705L19.0322 48H17.7754L18.5137 44.3701H16.6152L16.8877 43.1045H18.7861L19.3926 40.0811H17.4941L17.749 38.8242H19.6475L20.3682 35.3174H21.625L20.9131 38.8242H23.6025L24.3232 35.3174H25.5889L24.8594 38.8242H26.7578L26.4941 40.0811H24.5957ZM20.0166 43.1309H22.7324L23.3564 40.0635H20.6318L20.0166 43.1309ZM33.2396 48.2988C31.8099 48.2988 30.7025 47.7188 29.9173 46.5586C29.1321 45.3984 28.7396 43.7637 28.7396 41.6543C28.7396 39.5625 29.1351 37.9336 29.9261 36.7676C30.7171 35.6016 31.8216 35.0186 33.2396 35.0186C34.6517 35.0186 35.7503 35.6045 36.5355 36.7764C37.3265 37.9482 37.722 39.583 37.722 41.6807C37.722 43.7842 37.3323 45.4131 36.553 46.5674C35.7679 47.7217 34.6634 48.2988 33.2396 48.2988ZM33.2396 46.9189C34.1771 46.9189 34.8919 46.4678 35.3841 45.5654C35.8821 44.6572 36.1312 43.3535 36.1312 41.6543C36.1312 39.9727 35.8821 38.6777 35.3841 37.7695C34.8802 36.8613 34.1654 36.4072 33.2396 36.4072C32.3138 36.4072 31.596 36.8643 31.0863 37.7783C30.5823 38.6865 30.3304 39.9785 30.3304 41.6543C30.3304 43.3477 30.5823 44.6484 31.0863 45.5566C31.5843 46.4648 32.3021 46.9189 33.2396 46.9189ZM44.7575 48.2988C43.3278 48.2988 42.2204 47.7188 41.4352 46.5586C40.65 45.3984 40.2575 43.7637 40.2575 41.6543C40.2575 39.5625 40.653 37.9336 41.444 36.7676C42.235 35.6016 43.3395 35.0186 44.7575 35.0186C46.1696 35.0186 47.2682 35.6045 48.0534 36.7764C48.8444 37.9482 49.2399 39.583 49.2399 41.6807C49.2399 43.7842 48.8502 45.4131 48.0709 46.5674C47.2858 47.7217 46.1813 48.2988 44.7575 48.2988ZM44.7575 46.9189C45.695 46.9189 46.4098 46.4678 46.902 45.5654C47.4 44.6572 47.6491 43.3535 47.6491 41.6543C47.6491 39.9727 47.4 38.6777 46.902 37.7695C46.3981 36.8613 45.6832 36.4072 44.7575 36.4072C43.8317 36.4072 43.1139 36.8643 42.6041 37.7783C42.1002 38.6865 41.8483 39.9785 41.8483 41.6543C41.8483 43.3477 42.1002 44.6484 42.6041 45.5566C43.1022 46.4648 43.82 46.9189 44.7575 46.9189ZM56.2754 48.2988C54.8457 48.2988 53.7382 47.7188 52.9531 46.5586C52.1679 45.3984 51.7754 43.7637 51.7754 41.6543C51.7754 39.5625 52.1709 37.9336 52.9619 36.7676C53.7529 35.6016 54.8574 35.0186 56.2754 35.0186C57.6875 35.0186 58.7861 35.6045 59.5713 36.7764C60.3623 37.9482 60.7578 39.583 60.7578 41.6807C60.7578 43.7842 60.3681 45.4131 59.5888 46.5674C58.8037 47.7217 57.6992 48.2988 56.2754 48.2988ZM56.2754 46.9189C57.2129 46.9189 57.9277 46.4678 58.4199 45.5654C58.9179 44.6572 59.167 43.3535 59.167 41.6543C59.167 39.9727 58.9179 38.6777 58.4199 37.7695C57.916 36.8613 57.2011 36.4072 56.2754 36.4072C55.3496 36.4072 54.6318 36.8643 54.122 37.7783C53.6181 38.6865 53.3662 39.9785 53.3662 41.6543C53.3662 43.3477 53.6181 44.6484 54.122 45.5566C54.6201 46.4648 55.3379 46.9189 56.2754 46.9189ZM67.7932 48.2988C66.3636 48.2988 65.2561 47.7188 64.471 46.5586C63.6858 45.3984 63.2932 43.7637 63.2932 41.6543C63.2932 39.5625 63.6888 37.9336 64.4798 36.7676C65.2708 35.6016 66.3753 35.0186 67.7932 35.0186C69.2054 35.0186 70.304 35.6045 71.0891 36.7764C71.8802 37.9482 72.2757 39.583 72.2757 41.6807C72.2757 43.7842 71.886 45.4131 71.1067 46.5674C70.3216 47.7217 69.2171 48.2988 67.7932 48.2988ZM67.7932 46.9189C68.7307 46.9189 69.4456 46.4678 69.9378 45.5654C70.4358 44.6572 70.6848 43.3535 70.6848 41.6543C70.6848 39.9727 70.4358 38.6777 69.9378 37.7695C69.4339 36.8613 68.719 36.4072 67.7932 36.4072C66.8675 36.4072 66.1497 36.8643 65.6399 37.7783C65.136 38.6865 64.8841 39.9785 64.8841 41.6543C64.8841 43.3477 65.136 44.6484 65.6399 45.5566C66.138 46.4648 66.8557 46.9189 67.7932 46.9189ZM78.0807 37.0752H77.94L74.7145 39.4131V37.7432L78.0895 35.3174H79.6627V48H78.0807V37.0752Z" fill="white"/>
</svg>
