<svg width="310" height="310" viewBox="0 0 310 310" fill="none" xmlns="http://www.w3.org/2000/svg">
<path d="M26.2656 27H23.7871V25.4443H23.6289C23.4004 26.0068 23.0283 26.4404 22.5127 26.7451C21.9971 27.0557 21.3877 27.2109 20.6846 27.2109C19.6123 27.2109 18.7627 26.8916 18.1357 26.2529C17.5029 25.6084 17.1865 24.7178 17.1865 23.5811V17.3057H19.7441V22.9658C19.7441 24.3135 20.374 24.9873 21.6338 24.9873C22.2666 24.9873 22.7705 24.7998 23.1455 24.4248C23.5205 24.0498 23.708 23.54 23.708 22.8955V17.3057H26.2656V27ZM28.8011 20.1533C28.8011 19.2334 29.1702 18.4951 29.9085 17.9385C30.6527 17.376 31.6282 17.0947 32.8353 17.0947C34.0657 17.0947 35.0325 17.3438 35.7357 17.8418C36.4329 18.3398 36.8167 19.0518 36.887 19.9775H34.5228C34.3821 19.3037 33.8255 18.9668 32.8529 18.9668C32.39 18.9668 32.012 19.0605 31.7191 19.248C31.4144 19.4414 31.262 19.6904 31.262 19.9951C31.262 20.4404 31.6986 20.7627 32.5716 20.9619L34.3909 21.3574C35.3343 21.5625 36.0228 21.876 36.4564 22.2979C36.8958 22.7197 37.1155 23.291 37.1155 24.0117C37.1155 24.9727 36.72 25.7461 35.929 26.332C35.1497 26.918 34.1214 27.2109 32.8441 27.2109C31.5667 27.2109 30.556 26.959 29.8118 26.4551C29.0677 25.9512 28.6517 25.2334 28.5638 24.3018H31.0599C31.265 24.9932 31.8773 25.3389 32.8968 25.3389C33.3948 25.3389 33.7991 25.2451 34.1097 25.0576C34.4202 24.8643 34.5755 24.6123 34.5755 24.3018C34.5755 23.8447 34.1683 23.5283 33.3538 23.3525L31.596 22.957C29.7327 22.5469 28.8011 21.6123 28.8011 20.1533ZM45.109 27.1494C43.6618 27.1494 42.6657 26.5928 42.1207 25.4795H41.9625V27H39.484V13.6055H42.0416V18.8525H42.1998C42.4459 18.3193 42.8268 17.9033 43.3424 17.6045C43.858 17.2998 44.4469 17.1475 45.109 17.1475C46.3336 17.1475 47.2946 17.5898 47.9918 18.4746C48.6891 19.3594 49.0377 20.584 49.0377 22.1484C49.0377 23.7012 48.6862 24.9229 47.983 25.8135C47.2858 26.7041 46.3278 27.1494 45.109 27.1494ZM44.2213 19.292C43.5475 19.292 43.0143 19.5498 42.6217 20.0654C42.2233 20.5752 42.0211 21.2725 42.0153 22.1572C42.0211 23.0361 42.2204 23.7305 42.6129 24.2402C43.0114 24.7559 43.5475 25.0137 44.2213 25.0137C44.901 25.0137 45.4371 24.7588 45.8297 24.249C46.2164 23.7393 46.4098 23.0391 46.4098 22.1484C46.4098 21.2637 46.2135 20.5664 45.8209 20.0566C45.4284 19.5469 44.8952 19.292 44.2213 19.292ZM51.4941 23.0801V20.6807H57.2685V23.0801H51.4941ZM65.095 19.1689C64.2864 19.1924 63.6477 19.4648 63.179 19.9863C62.6985 20.5195 62.4583 21.2402 62.4583 22.1484C62.4583 23.0684 62.6956 23.792 63.1702 24.3193C63.6389 24.835 64.2805 25.1074 65.095 25.1367V19.1689ZM70.2014 22.1484C70.2014 21.2344 69.9641 20.5137 69.4895 19.9863C69.0208 19.4707 68.3792 19.1982 67.5647 19.1689V25.1367C68.3733 25.1133 69.012 24.8379 69.4807 24.3105C69.9612 23.7773 70.2014 23.0566 70.2014 22.1484ZM65.0686 27.1406C63.469 27.1055 62.2034 26.6484 61.2718 25.7695C60.3284 24.8789 59.8567 23.6719 59.8567 22.1484C59.8567 20.6484 60.3313 19.4473 61.2805 18.5449C62.218 17.6602 63.4807 17.2002 65.0686 17.165V14.1943H67.5911V17.165C69.1907 17.2002 70.4563 17.6572 71.388 18.5361C72.3313 19.4268 72.803 20.6338 72.803 22.1572C72.803 23.6572 72.3284 24.8555 71.3792 25.752C70.4417 26.6426 69.179 27.1055 67.5911 27.1406V30.0322H65.0686V27.1406ZM78.3883 22.3418C78.3004 23.9004 78.025 25.0547 77.5621 25.8047C77.0289 26.6777 76.1998 27.1143 75.0748 27.1143C74.7584 27.1143 74.4859 27.0762 74.2574 27V24.75C74.4215 24.791 74.6061 24.8115 74.8111 24.8115C75.2447 24.8115 75.567 24.5596 75.7779 24.0557C75.9537 23.6455 76.065 23.0156 76.1119 22.166L76.3932 17.3057H83.6881V27H81.1305V19.3184H78.5904L78.3883 22.3418ZM90.8114 19.0547C90.2197 19.0547 89.7304 19.2451 89.3437 19.626C88.9628 20.0068 88.7489 20.5107 88.7021 21.1377H92.8329C92.8036 20.4932 92.6103 19.9863 92.2529 19.6172C91.8896 19.2422 91.4091 19.0547 90.8114 19.0547ZM95.2675 24.2402C95.0741 25.1602 94.5849 25.8838 93.7997 26.4111C93.0087 26.9443 92.0214 27.2109 90.8378 27.2109C89.3613 27.2109 88.2099 26.7686 87.3837 25.8838C86.5575 25.0049 86.1445 23.7773 86.1445 22.2012C86.1445 20.625 86.5605 19.3799 87.3925 18.4658C88.2245 17.5518 89.3613 17.0947 90.8027 17.0947C92.2323 17.0947 93.3456 17.5254 94.1425 18.3867C94.9452 19.248 95.3466 20.4492 95.3466 21.9902V22.7725H88.6933V22.9043C88.7109 23.625 88.9189 24.1934 89.3173 24.6094C89.7099 25.0312 90.2402 25.2422 90.9081 25.2422C91.9452 25.2422 92.6044 24.9082 92.8857 24.2402H95.2675ZM97.8381 17.3057H100.396V24.9873H103.173V17.3057H105.731V24.9873H108.508V17.3057H111.066V27H97.8381V17.3057ZM114.058 23.0801V20.6807H119.833V23.0801H114.058ZM122.825 17.3057H125.383V21.0234H129.259V17.3057H131.816V27H129.259V23.0361H125.383V27H122.825V17.3057ZM138.201 25.2246C138.793 25.2246 139.288 25.0576 139.687 24.7236C140.085 24.3896 140.284 23.9766 140.284 23.4844V22.7725L138.324 22.8955C137.235 22.9717 136.69 23.3613 136.69 24.0645C136.69 24.4219 136.83 24.7061 137.112 24.917C137.387 25.1221 137.75 25.2246 138.201 25.2246ZM137.358 27.1494C136.42 27.1494 135.658 26.8857 135.072 26.3584C134.481 25.8193 134.185 25.1104 134.185 24.2314C134.185 23.3584 134.51 22.6699 135.16 22.166C135.805 21.668 136.731 21.3838 137.938 21.3135L140.284 21.1729V20.3818C140.284 19.5381 139.739 19.1162 138.65 19.1162C137.7 19.1162 137.117 19.415 136.901 20.0127H134.545C134.627 19.1162 135.052 18.4043 135.82 17.877C136.581 17.3555 137.571 17.0947 138.79 17.0947C140.068 17.0947 141.058 17.3818 141.761 17.9561C142.458 18.5303 142.807 19.3389 142.807 20.3818V27H140.328V25.7344H140.17C139.637 26.6777 138.699 27.1494 137.358 27.1494ZM148.682 21.085L151.609 17.3057H154.518L150.8 21.7266L154.711 27H151.662L148.717 22.9834H148.26V27H145.703V17.3057H148.26V21.085H148.682ZM160.657 25.1191C161.337 25.1191 161.864 24.8584 162.239 24.3369C162.614 23.8213 162.802 23.0918 162.802 22.1484C162.802 21.2168 162.614 20.4902 162.239 19.9688C161.858 19.4473 161.331 19.1865 160.657 19.1865C159.977 19.1865 159.45 19.4473 159.075 19.9688C158.7 20.4902 158.513 21.2168 158.513 22.1484C158.513 23.0918 158.7 23.8242 159.075 24.3457C159.444 24.8613 159.972 25.1191 160.657 25.1191ZM160.657 27.2109C159.169 27.2109 158 26.7627 157.15 25.8662C156.306 24.9697 155.885 23.7305 155.885 22.1484C155.885 20.5781 156.312 19.3447 157.168 18.4482C158.017 17.5459 159.181 17.0947 160.657 17.0947C162.134 17.0947 163.3 17.543 164.155 18.4395C165.005 19.3418 165.43 20.5781 165.43 22.1484C165.43 23.7305 165.008 24.9697 164.164 25.8662C163.314 26.7627 162.145 27.2109 160.657 27.2109ZM174.24 19.3184H170.452V27H167.895V17.3057H176.798V27H174.24V19.3184ZM179.659 27V17.3057H182.172V23.2646H182.331L186.242 17.3057H188.755V27H186.242V20.9707H186.083L182.172 27H179.659ZM199.262 19.3184H196.362V27H193.804V19.3184H190.904V17.3057H199.262V19.3184ZM205.358 19.0547C204.766 19.0547 204.276 19.2451 203.89 19.626C203.509 20.0068 203.295 20.5107 203.248 21.1377H207.379C207.35 20.4932 207.156 19.9863 206.799 19.6172C206.436 19.2422 205.955 19.0547 205.358 19.0547ZM209.814 24.2402C209.62 25.1602 209.131 25.8838 208.346 26.4111C207.555 26.9443 206.568 27.2109 205.384 27.2109C203.907 27.2109 202.756 26.7686 201.93 25.8838C201.104 25.0049 200.691 23.7773 200.691 22.2012C200.691 20.625 201.107 19.3799 201.939 18.4658C202.771 17.5518 203.907 17.0947 205.349 17.0947C206.778 17.0947 207.892 17.5254 208.689 18.3867C209.491 19.248 209.893 20.4492 209.893 21.9902V22.7725H203.239V22.9043C203.257 23.625 203.465 24.1934 203.863 24.6094C204.256 25.0312 204.786 25.2422 205.454 25.2422C206.491 25.2422 207.151 24.9082 207.432 24.2402H209.814ZM215.46 22.3418C215.372 23.9004 215.097 25.0547 214.634 25.8047C214.101 26.6777 213.272 27.1143 212.147 27.1143C211.831 27.1143 211.558 27.0762 211.33 27V24.75C211.494 24.791 211.678 24.8115 211.883 24.8115C212.317 24.8115 212.639 24.5596 212.85 24.0557C213.026 23.6455 213.137 23.0156 213.184 22.166L213.465 17.3057H220.76V27H218.203V19.3184H215.663L215.46 22.3418ZM226.178 22.0869V24.9873H227.655C228.141 24.9873 228.531 24.8525 228.824 24.583C229.111 24.3193 229.255 23.9707 229.255 23.5371C229.255 23.1035 229.108 22.752 228.815 22.4824C228.522 22.2188 228.136 22.0869 227.655 22.0869H226.178ZM223.621 17.3057H226.178V20.1006H228.059C229.202 20.1006 230.113 20.4111 230.793 21.0322C231.467 21.6592 231.803 22.5 231.803 23.5547C231.803 24.6094 231.467 25.4473 230.793 26.0684C230.113 26.6895 229.202 27 228.059 27H223.621V17.3057ZM24.5957 40.0811L23.9805 43.1045H25.8789L25.624 44.3701H23.7256L22.9873 48H21.7217L22.4688 44.3701H19.7705L19.0322 48H17.7754L18.5137 44.3701H16.6152L16.8877 43.1045H18.7861L19.3926 40.0811H17.4941L17.749 38.8242H19.6475L20.3682 35.3174H21.625L20.9131 38.8242H23.6025L24.3232 35.3174H25.5889L24.8594 38.8242H26.7578L26.4941 40.0811H24.5957ZM20.0166 43.1309H22.7324L23.3564 40.0635H20.6318L20.0166 43.1309ZM33.0286 48.29C31.9505 48.29 31.0394 47.9912 30.2952 47.3936C29.5452 46.8018 29.0706 45.9961 28.8714 44.9766H30.4974C30.6673 45.5684 30.9779 46.0342 31.429 46.374C31.8861 46.7139 32.4251 46.8838 33.0462 46.8838C34.0775 46.8838 34.8773 46.4385 35.4456 45.5479C36.0198 44.6572 36.3275 43.3682 36.3685 41.6807H36.2279C35.9173 42.2959 35.4661 42.7734 34.8743 43.1133C34.2825 43.459 33.6087 43.6318 32.8529 43.6318C31.6458 43.6318 30.6497 43.2305 29.8646 42.4277C29.0794 41.6309 28.6868 40.6172 28.6868 39.3867C28.6868 38.1094 29.1029 37.0635 29.9349 36.249C30.7669 35.4287 31.8333 35.0186 33.1341 35.0186C35.0911 35.0186 36.4769 35.9795 37.2913 37.9014C37.7015 38.8623 37.9066 40.04 37.9066 41.4346C37.9066 43.6143 37.4818 45.3018 36.6321 46.4971C35.7825 47.6924 34.5814 48.29 33.0286 48.29ZM33.1341 42.2607C33.972 42.2607 34.6634 41.9912 35.2083 41.4521C35.7474 40.9131 36.0169 40.2246 36.0169 39.3867C36.0169 38.5371 35.7415 37.8281 35.1907 37.2598C34.6458 36.6914 33.9661 36.4072 33.1517 36.4072C32.3372 36.4072 31.6575 36.6885 31.1126 37.251C30.5618 37.8076 30.2864 38.502 30.2864 39.334C30.2864 40.2012 30.5501 40.9043 31.0775 41.4434C31.6107 41.9883 32.2962 42.2607 33.1341 42.2607ZM46.8317 36.873V36.7324H40.2838V35.3174H48.4137V36.7852L42.7711 48H41.11L46.8317 36.873ZM55.2998 48.29C53.3427 48.29 51.957 47.3291 51.1425 45.4072C50.7324 44.4463 50.5273 43.2686 50.5273 41.874C50.5273 39.6943 50.9521 38.0068 51.8017 36.8115C52.6513 35.6162 53.8525 35.0186 55.4052 35.0186C56.4834 35.0186 57.3945 35.3145 58.1386 35.9062C58.8886 36.5039 59.3632 37.3125 59.5625 38.332H57.9365C57.7666 37.7402 57.456 37.2744 57.0048 36.9346C56.5478 36.5947 56.0088 36.4248 55.3877 36.4248C54.3564 36.4248 53.5566 36.8701 52.9882 37.7607C52.414 38.6514 52.1064 39.9404 52.0654 41.6279H52.206C52.5166 41.0127 52.9677 40.5322 53.5595 40.1865C54.1513 39.8467 54.8252 39.6768 55.581 39.6768C56.788 39.6768 57.7841 40.0752 58.5693 40.8721C59.3545 41.6748 59.747 42.6914 59.747 43.9219C59.747 45.1992 59.331 46.2451 58.499 47.0596C57.667 47.8799 56.6005 48.29 55.2998 48.29ZM55.2822 46.9014C56.0966 46.9014 56.7763 46.6201 57.3213 46.0576C57.872 45.501 58.1474 44.8066 58.1474 43.9746C58.1474 43.1074 57.8838 42.4043 57.3564 41.8652C56.8232 41.3203 56.1377 41.0479 55.2998 41.0479C54.4619 41.0479 53.7705 41.3174 53.2255 41.8564C52.6865 42.3955 52.417 43.084 52.417 43.9219C52.417 44.7715 52.6923 45.4805 53.2431 46.0488C53.788 46.6172 54.4677 46.9014 55.2822 46.9014ZM62.3968 38.8857C62.3968 37.7607 62.7805 36.835 63.5481 36.1084C64.3098 35.3818 65.2796 35.0186 66.4573 35.0186C67.594 35.0186 68.5491 35.3613 69.3225 36.0469C70.0901 36.7266 70.4739 37.5703 70.4739 38.5781C70.4739 39.2402 70.2864 39.8877 69.9114 40.5205C69.5364 41.165 68.8304 42.0439 67.7932 43.1572L64.7434 46.4355V46.5762H70.6848V48H62.4759V46.9102L66.8616 42.1201C67.6761 41.2354 68.218 40.5615 68.4876 40.0986C68.7571 39.6357 68.8919 39.1494 68.8919 38.6396C68.8919 38.0068 68.6546 37.4736 68.18 37.04C67.6995 36.6123 67.1106 36.3984 66.4134 36.3984C65.6692 36.3984 65.0686 36.627 64.6116 37.084C64.1546 37.541 63.9261 38.1416 63.9261 38.8857V38.8945H62.3968V38.8857ZM77.8697 48.2988C76.5279 48.2988 75.4293 47.9561 74.5738 47.2705C73.7242 46.5791 73.2994 45.6914 73.2994 44.6074C73.2994 43.7812 73.5396 43.0723 74.0201 42.4805C74.5006 41.8887 75.1393 41.5195 75.9361 41.373V41.2324C75.2916 41.0566 74.776 40.7139 74.3893 40.2041C74.0084 39.6943 73.818 39.0938 73.818 38.4023C73.818 37.4121 74.1959 36.6006 74.9518 35.9678C75.7135 35.335 76.6861 35.0186 77.8697 35.0186C79.0533 35.0186 80.026 35.335 80.7877 35.9678C81.5436 36.6006 81.9215 37.4121 81.9215 38.4023C81.9215 39.0996 81.7311 39.7002 81.3502 40.2041C80.9752 40.708 80.4596 41.0508 79.8033 41.2324V41.373C80.6002 41.5195 81.2389 41.8887 81.7193 42.4805C82.1998 43.0723 82.44 43.7812 82.44 44.6074C82.44 45.6914 82.0152 46.5791 81.1656 47.2705C80.3102 47.9561 79.2115 48.2988 77.8697 48.2988ZM77.8697 46.9453C78.7486 46.9453 79.4635 46.7168 80.0143 46.2598C80.565 45.8086 80.8404 45.2197 80.8404 44.4932C80.8404 43.7666 80.565 43.1777 80.0143 42.7266C79.4635 42.2695 78.7486 42.041 77.8697 42.041C76.9908 42.041 76.276 42.2695 75.7252 42.7266C75.1744 43.1777 74.899 43.7666 74.899 44.4932C74.899 45.2197 75.1744 45.8086 75.7252 46.2598C76.276 46.7168 76.9908 46.9453 77.8697 46.9453ZM77.8697 40.7051C78.6197 40.7051 79.2232 40.5088 79.6803 40.1162C80.1373 39.7178 80.3658 39.1963 80.3658 38.5518C80.3658 37.8955 80.1373 37.3682 79.6803 36.9697C79.2232 36.5713 78.6197 36.3721 77.8697 36.3721C77.1197 36.3721 76.5162 36.5713 76.0592 36.9697C75.6021 37.3682 75.3736 37.8955 75.3736 38.5518C75.3736 39.1963 75.6021 39.7178 76.0592 40.1162C76.5162 40.5088 77.1197 40.7051 77.8697 40.7051Z" fill="white"/>
</svg>
