<svg width="310" height="310" viewBox="0 0 310 310" fill="none" xmlns="http://www.w3.org/2000/svg">
<path d="M21.748 25.1191C22.4395 25.1191 22.9756 24.8789 23.3564 24.3984C23.7432 23.9121 23.9365 23.2236 23.9365 22.333C23.9365 21.4834 23.7432 20.8213 23.3564 20.3467C22.9756 19.8721 22.4395 19.6348 21.748 19.6348C21.0566 19.6348 20.5205 19.8721 20.1396 20.3467C19.7529 20.8213 19.5596 21.4834 19.5596 22.333C19.5596 23.2236 19.75 23.9121 20.1309 24.3984C20.5117 24.8789 21.0508 25.1191 21.748 25.1191ZM19.0674 19.5029C19.7002 18.2666 20.7812 17.6484 22.3105 17.6484C23.5879 17.6484 24.6133 18.0615 25.3867 18.8877C26.1719 19.7256 26.5645 20.8506 26.5645 22.2627C26.5645 23.792 26.1367 24.999 25.2812 25.8838C24.4258 26.7686 23.2627 27.2109 21.792 27.2109C20.2393 27.2109 19.0469 26.7305 18.2148 25.7695C17.3594 24.7793 16.9316 23.332 16.9316 21.4277C16.9316 18.9434 17.3535 17.1094 18.1973 15.9258C19.0352 14.7422 20.3506 14.1182 22.1436 14.0537L23.3828 14.0098C24.0098 13.9863 24.6191 13.916 25.2109 13.7988C25.6562 13.7109 25.8936 13.6523 25.9229 13.623V15.6885C25.4717 15.9287 24.6777 16.0664 23.541 16.1016L22.3633 16.1367C21.209 16.1777 20.3652 16.4824 19.832 17.0508C19.3574 17.5605 19.0498 18.3779 18.9092 19.5029H19.0674ZM29.8558 30.542C29.3109 30.542 28.9857 30.5332 28.8802 30.5156V28.4502C28.9681 28.4678 29.1614 28.4766 29.4603 28.4766C30.3978 28.4766 30.9691 28.1221 31.1741 27.4131L31.262 27.0615L27.8607 17.3057H30.682L32.721 24.6533H32.8792L34.9183 17.3057H37.6253L34.2855 27.1494C33.8753 28.3975 33.3363 29.2734 32.6683 29.7773C32.0062 30.2871 31.0687 30.542 29.8558 30.542ZM39.7389 27V17.3057H43.0524L45.5924 23.5107H45.7506L48.2995 17.3057H51.569V27H49.1608V20.5752H48.9938L46.5416 26.4551H44.7575L42.3053 20.5752H42.1471V27H39.7389ZM57.9629 25.2246C58.5546 25.2246 59.0498 25.0576 59.4482 24.7236C59.8466 24.3896 60.0459 23.9766 60.0459 23.4844V22.7725L58.0859 22.8955C56.9961 22.9717 56.4511 23.3613 56.4511 24.0645C56.4511 24.4219 56.5918 24.7061 56.873 24.917C57.1484 25.1221 57.5117 25.2246 57.9629 25.2246ZM57.1191 27.1494C56.1816 27.1494 55.4199 26.8857 54.8339 26.3584C54.2421 25.8193 53.9463 25.1104 53.9463 24.2314C53.9463 23.3584 54.2714 22.6699 54.9218 22.166C55.5664 21.668 56.4921 21.3838 57.6992 21.3135L60.0459 21.1729V20.3818C60.0459 19.5381 59.5009 19.1162 58.4111 19.1162C57.4619 19.1162 56.8789 19.415 56.6621 20.0127H54.3066C54.3886 19.1162 54.8134 18.4043 55.581 17.877C56.3427 17.3555 57.333 17.0947 58.5517 17.0947C59.8291 17.0947 60.8193 17.3818 61.5224 17.9561C62.2197 18.5303 62.5683 19.3389 62.5683 20.3818V27H60.0898V25.7344H59.9316C59.3984 26.6777 58.4609 27.1494 57.1191 27.1494ZM68.1975 21.7441L64.7962 17.3057H67.6526L70.2805 21.1201H70.7552V17.3057H73.2513V21.1201H73.7346L76.3626 17.3057H79.2014L75.8177 21.7266L79.4124 27H76.4329L73.761 22.9395H73.2513V27H70.7552V22.9395H70.2454L67.5735 27H64.6116L68.1975 21.7441ZM81.4293 17.3057H83.9869V21.0234H87.8629V17.3057H90.4205V27H87.8629V23.0361H83.9869V27H81.4293V17.3057ZM102.475 17.3057H105.032V27H102.475V17.3057ZM95.8827 22.0869V24.9873H97.3593C97.8456 24.9873 98.2353 24.8525 98.5282 24.583C98.8154 24.3193 98.9589 23.9707 98.9589 23.5371C98.9589 23.1035 98.8124 22.752 98.5195 22.4824C98.2265 22.2188 97.8398 22.0869 97.3593 22.0869H95.8827ZM93.3251 17.3057H95.8827V20.1006H97.7636C98.9062 20.1006 99.8173 20.4111 100.497 21.0322C101.171 21.6592 101.508 22.5 101.508 23.5547C101.508 24.6094 101.171 25.4473 100.497 26.0684C99.8173 26.6895 98.9062 27 97.7636 27H93.3251V17.3057ZM110.89 12.7969C110.902 13.2715 111.033 13.6582 111.285 13.957C111.549 14.2617 111.892 14.4141 112.314 14.4141C112.736 14.4141 113.078 14.2617 113.342 13.957C113.6 13.6582 113.735 13.2715 113.746 12.7969H115.662C115.662 13.7051 115.355 14.4434 114.739 15.0117C114.124 15.5859 113.316 15.873 112.314 15.873C111.312 15.873 110.503 15.5859 109.888 15.0117C109.279 14.4492 108.974 13.7109 108.974 12.7969H110.89ZM107.91 27V17.3057H110.424V23.2646H110.582L114.493 17.3057H117.007V27H114.493V20.9707H114.335L110.424 27H107.91ZM130.964 20.7246C130.876 20.25 130.671 19.8809 130.349 19.6172C130.009 19.3359 129.572 19.1953 129.039 19.1953C128.348 19.1953 127.817 19.4473 127.448 19.9512C127.073 20.4551 126.886 21.1816 126.886 22.1309C126.886 23.0918 127.073 23.8301 127.448 24.3457C127.817 24.8555 128.348 25.1104 129.039 25.1104C130.123 25.1104 130.765 24.6211 130.964 23.6426H133.354C133.249 24.7383 132.818 25.6055 132.062 26.2441C131.295 26.8887 130.287 27.2109 129.039 27.2109C127.527 27.2109 126.361 26.7715 125.541 25.8926C124.715 25.0078 124.302 23.7539 124.302 22.1309C124.302 20.5195 124.712 19.2773 125.532 18.4043C126.352 17.5312 127.521 17.0947 129.039 17.0947C130.305 17.0947 131.318 17.4229 132.08 18.0791C132.824 18.7236 133.249 19.6055 133.354 20.7246H130.964ZM142.991 19.3184H140.091V27H137.533V19.3184H134.633V17.3057H142.991V19.3184ZM148.524 25.2246C149.116 25.2246 149.611 25.0576 150.009 24.7236C150.408 24.3896 150.607 23.9766 150.607 23.4844V22.7725L148.647 22.8955C147.557 22.9717 147.012 23.3613 147.012 24.0645C147.012 24.4219 147.153 24.7061 147.434 24.917C147.709 25.1221 148.073 25.2246 148.524 25.2246ZM147.68 27.1494C146.743 27.1494 145.981 26.8857 145.395 26.3584C144.803 25.8193 144.507 25.1104 144.507 24.2314C144.507 23.3584 144.833 22.6699 145.483 22.166C146.127 21.668 147.053 21.3838 148.26 21.3135L150.607 21.1729V20.3818C150.607 19.5381 150.062 19.1162 148.972 19.1162C148.023 19.1162 147.44 19.415 147.223 20.0127H144.868C144.95 19.1162 145.375 18.4043 146.142 17.877C146.904 17.3555 147.894 17.0947 149.113 17.0947C150.39 17.0947 151.38 17.3818 152.084 17.9561C152.781 18.5303 153.129 19.3389 153.129 20.3818V27H150.651V25.7344H150.493C149.959 26.6777 149.022 27.1494 147.68 27.1494ZM159.005 21.085L161.931 17.3057H164.841L161.123 21.7266L165.034 27H161.984L159.04 22.9834H158.583V27H156.025V17.3057H158.583V21.085H159.005ZM170.224 25.2246C170.816 25.2246 171.311 25.0576 171.709 24.7236C172.108 24.3896 172.307 23.9766 172.307 23.4844V22.7725L170.347 22.8955C169.257 22.9717 168.712 23.3613 168.712 24.0645C168.712 24.4219 168.853 24.7061 169.134 24.917C169.409 25.1221 169.773 25.2246 170.224 25.2246ZM169.38 27.1494C168.443 27.1494 167.681 26.8857 167.095 26.3584C166.503 25.8193 166.207 25.1104 166.207 24.2314C166.207 23.3584 166.532 22.6699 167.183 22.166C167.827 21.668 168.753 21.3838 169.96 21.3135L172.307 21.1729V20.3818C172.307 19.5381 171.762 19.1162 170.672 19.1162C169.723 19.1162 169.14 19.415 168.923 20.0127H166.568C166.65 19.1162 167.074 18.4043 167.842 17.877C168.604 17.3555 169.594 17.0947 170.813 17.0947C172.09 17.0947 173.08 17.3818 173.783 17.9561C174.481 18.5303 174.829 19.3389 174.829 20.3818V27H172.351V25.7344H172.193C171.659 26.6777 170.722 27.1494 169.38 27.1494ZM177.725 17.3057H180.283V21.0234H184.159V17.3057H186.716V27H184.159V23.0361H180.283V27H177.725V17.3057ZM24.5957 40.0811L23.9805 43.1045H25.8789L25.624 44.3701H23.7256L22.9873 48H21.7217L22.4688 44.3701H19.7705L19.0322 48H17.7754L18.5137 44.3701H16.6152L16.8877 43.1045H18.7861L19.3926 40.0811H17.4941L17.749 38.8242H19.6475L20.3682 35.3174H21.625L20.9131 38.8242H23.6025L24.3232 35.3174H25.5889L24.8594 38.8242H26.7578L26.4941 40.0811H24.5957ZM20.0166 43.1309H22.7324L23.3564 40.0635H20.6318L20.0166 43.1309ZM34.5052 45.3721H28.3265V43.9307C29.4866 41.8682 31.2972 38.9971 33.7581 35.3174H36.0521V43.957H37.8538V45.3721H36.0521V48H34.5052V45.3721ZM29.9437 43.9658H34.514V36.7852H34.4085C33.0374 38.7773 31.5491 41.1357 29.9437 43.8604V43.9658ZM44.8102 48.2988C43.4684 48.2988 42.3698 47.9561 41.5143 47.2705C40.6647 46.5791 40.2399 45.6914 40.2399 44.6074C40.2399 43.7812 40.4801 43.0723 40.9606 42.4805C41.4411 41.8887 42.0797 41.5195 42.8766 41.373V41.2324C42.2321 41.0566 41.7164 40.7139 41.3297 40.2041C40.9489 39.6943 40.7584 39.0938 40.7584 38.4023C40.7584 37.4121 41.1364 36.6006 41.8922 35.9678C42.6539 35.335 43.6266 35.0186 44.8102 35.0186C45.9938 35.0186 46.9664 35.335 47.7282 35.9678C48.484 36.6006 48.862 37.4121 48.862 38.4023C48.862 39.0996 48.6715 39.7002 48.2907 40.2041C47.9157 40.708 47.4 41.0508 46.7438 41.2324V41.373C47.5407 41.5195 48.1793 41.8887 48.6598 42.4805C49.1403 43.0723 49.3805 43.7812 49.3805 44.6074C49.3805 45.6914 48.9557 46.5791 48.1061 47.2705C47.2506 47.9561 46.152 48.2988 44.8102 48.2988ZM44.8102 46.9453C45.6891 46.9453 46.4039 46.7168 46.9547 46.2598C47.5055 45.8086 47.7809 45.2197 47.7809 44.4932C47.7809 43.7666 47.5055 43.1777 46.9547 42.7266C46.4039 42.2695 45.6891 42.041 44.8102 42.041C43.9313 42.041 43.2164 42.2695 42.6657 42.7266C42.1149 43.1777 41.8395 43.7666 41.8395 44.4932C41.8395 45.2197 42.1149 45.8086 42.6657 46.2598C43.2164 46.7168 43.9313 46.9453 44.8102 46.9453ZM44.8102 40.7051C45.5602 40.7051 46.1637 40.5088 46.6207 40.1162C47.0778 39.7178 47.3063 39.1963 47.3063 38.5518C47.3063 37.8955 47.0778 37.3682 46.6207 36.9697C46.1637 36.5713 45.5602 36.3721 44.8102 36.3721C44.0602 36.3721 43.4567 36.5713 42.9996 36.9697C42.5426 37.3682 42.3141 37.8955 42.3141 38.5518C42.3141 39.1963 42.5426 39.7178 42.9996 40.1162C43.4567 40.5088 44.0602 40.7051 44.8102 40.7051ZM56.205 48.29C55.1269 48.29 54.2158 47.9912 53.4716 47.3936C52.7216 46.8018 52.247 45.9961 52.0478 44.9766H53.6738C53.8437 45.5684 54.1543 46.0342 54.6054 46.374C55.0625 46.7139 55.6015 46.8838 56.2226 46.8838C57.2539 46.8838 58.0537 46.4385 58.622 45.5479C59.1963 44.6572 59.5039 43.3682 59.5449 41.6807H59.4043C59.0937 42.2959 58.6425 42.7734 58.0507 43.1133C57.4589 43.459 56.7851 43.6318 56.0293 43.6318C54.8222 43.6318 53.8261 43.2305 53.041 42.4277C52.2558 41.6309 51.8632 40.6172 51.8632 39.3867C51.8632 38.1094 52.2793 37.0635 53.1113 36.249C53.9433 35.4287 55.0097 35.0186 56.3105 35.0186C58.2675 35.0186 59.6533 35.9795 60.4677 37.9014C60.8779 38.8623 61.083 40.04 61.083 41.4346C61.083 43.6143 60.6582 45.3018 59.8086 46.4971C58.9589 47.6924 57.7578 48.29 56.205 48.29ZM56.3105 42.2607C57.1484 42.2607 57.8398 41.9912 58.3847 41.4521C58.9238 40.9131 59.1933 40.2246 59.1933 39.3867C59.1933 38.5371 58.9179 37.8281 58.3671 37.2598C57.8222 36.6914 57.1425 36.4072 56.3281 36.4072C55.5136 36.4072 54.8339 36.6885 54.289 37.251C53.7382 37.8076 53.4629 38.502 53.4629 39.334C53.4629 40.2012 53.7265 40.9043 54.2539 41.4434C54.7871 41.9883 55.4726 42.2607 56.3105 42.2607ZM70.0081 36.873V36.7324H63.4602V35.3174H71.5901V36.7852L65.9475 48H64.2864L70.0081 36.873ZM78.4762 48.29C76.5191 48.29 75.1334 47.3291 74.3189 45.4072C73.9088 44.4463 73.7037 43.2686 73.7037 41.874C73.7037 39.6943 74.1285 38.0068 74.9781 36.8115C75.8277 35.6162 77.0289 35.0186 78.5816 35.0186C79.6598 35.0186 80.5709 35.3145 81.315 35.9062C82.065 36.5039 82.5396 37.3125 82.7389 38.332H81.1129C80.943 37.7402 80.6324 37.2744 80.1813 36.9346C79.7242 36.5947 79.1852 36.4248 78.5641 36.4248C77.5328 36.4248 76.733 36.8701 76.1646 37.7607C75.5904 38.6514 75.2828 39.9404 75.2418 41.6279H75.3824C75.693 41.0127 76.1441 40.5322 76.7359 40.1865C77.3277 39.8467 78.0016 39.6768 78.7574 39.6768C79.9645 39.6768 80.9605 40.0752 81.7457 40.8721C82.5309 41.6748 82.9234 42.6914 82.9234 43.9219C82.9234 45.1992 82.5074 46.2451 81.6754 47.0596C80.8434 47.8799 79.777 48.29 78.4762 48.29ZM78.4586 46.9014C79.273 46.9014 79.9527 46.6201 80.4977 46.0576C81.0484 45.501 81.3238 44.8066 81.3238 43.9746C81.3238 43.1074 81.0602 42.4043 80.5328 41.8652C79.9996 41.3203 79.3141 41.0479 78.4762 41.0479C77.6383 41.0479 76.9469 41.3174 76.402 41.8564C75.8629 42.3955 75.5934 43.084 75.5934 43.9219C75.5934 44.7715 75.8688 45.4805 76.4195 46.0488C76.9645 46.6172 77.6441 46.9014 78.4586 46.9014Z" fill="white"/>
</svg>
