<svg width="310" height="310" viewBox="0 0 310 310" fill="none" xmlns="http://www.w3.org/2000/svg">
<path d="M23.6816 19.3184H19.8936V27H17.3359V17.3057H26.2393V27H23.6816V19.3184ZM33.4681 25.1191C34.1478 25.1191 34.6751 24.8584 35.0501 24.3369C35.4251 23.8213 35.6126 23.0918 35.6126 22.1484C35.6126 21.2168 35.4251 20.4902 35.0501 19.9688C34.6693 19.4473 34.1419 19.1865 33.4681 19.1865C32.7884 19.1865 32.2611 19.4473 31.8861 19.9688C31.5111 20.4902 31.3236 21.2168 31.3236 22.1484C31.3236 23.0918 31.5111 23.8242 31.8861 24.3457C32.2552 24.8613 32.7825 25.1191 33.4681 25.1191ZM33.4681 27.2109C31.9798 27.2109 30.8109 26.7627 29.9613 25.8662C29.1175 24.9697 28.6956 23.7305 28.6956 22.1484C28.6956 20.5781 29.1234 19.3447 29.9788 18.4482C30.8284 17.5459 31.9915 17.0947 33.4681 17.0947C34.9446 17.0947 36.1107 17.543 36.9661 18.4395C37.8157 19.3418 38.2405 20.5781 38.2405 22.1484C38.2405 23.7305 37.8187 24.9697 36.9749 25.8662C36.1253 26.7627 34.9564 27.2109 33.4681 27.2109ZM46.8053 19.3096H43.8522L43.6325 22.3418C43.5563 23.4199 43.3278 24.249 42.9469 24.8291V24.9873H46.8053V19.3096ZM39.5455 29.5049V24.9873H40.2926C40.902 24.6475 41.2594 23.707 41.3649 22.166L41.6813 17.3057H49.3541V24.9873H50.7955V29.5049H48.4577V27H41.8834V29.5049H39.5455ZM53.9814 30.542C53.4365 30.542 53.1113 30.5332 53.0058 30.5156V28.4502C53.0937 28.4678 53.2871 28.4766 53.5859 28.4766C54.5234 28.4766 55.0947 28.1221 55.2998 27.4131L55.3877 27.0615L51.9863 17.3057H54.8076L56.8466 24.6533H57.0048L59.0439 17.3057H61.7509L58.4111 27.1494C58.0009 28.3975 57.4619 29.2734 56.7939 29.7773C56.1318 30.2871 55.1943 30.542 53.9814 30.542ZM63.8645 17.3057H66.4221V24.9873H69.1995V17.3057H71.7571V24.9873H74.5345V17.3057H77.0921V27H63.8645V17.3057ZM82.9322 21.085L85.859 17.3057H88.7682L85.0504 21.7266L88.9615 27H85.9117L82.9674 22.9834H82.5104V27H79.9527V17.3057H82.5104V21.085H82.9322ZM94.1513 25.2246C94.7431 25.2246 95.2382 25.0576 95.6366 24.7236C96.0351 24.3896 96.2343 23.9766 96.2343 23.4844V22.7725L94.2743 22.8955C93.1845 22.9717 92.6396 23.3613 92.6396 24.0645C92.6396 24.4219 92.7802 24.7061 93.0614 24.917C93.3368 25.1221 93.7001 25.2246 94.1513 25.2246ZM93.3075 27.1494C92.37 27.1494 91.6083 26.8857 91.0224 26.3584C90.4306 25.8193 90.1347 25.1104 90.1347 24.2314C90.1347 23.3584 90.4599 22.6699 91.1103 22.166C91.7548 21.668 92.6806 21.3838 93.8876 21.3135L96.2343 21.1729V20.3818C96.2343 19.5381 95.6894 19.1162 94.5995 19.1162C93.6503 19.1162 93.0673 19.415 92.8505 20.0127H90.495C90.5771 19.1162 91.0019 18.4043 91.7695 17.877C92.5312 17.3555 93.5214 17.0947 94.7402 17.0947C96.0175 17.0947 97.0077 17.3818 97.7109 17.9561C98.4081 18.5303 98.7568 19.3389 98.7568 20.3818V27H96.2782V25.7344H96.12C95.5868 26.6777 94.6493 27.1494 93.3075 27.1494ZM24.5957 40.0811L23.9805 43.1045H25.8789L25.624 44.3701H23.7256L22.9873 48H21.7217L22.4688 44.3701H19.7705L19.0322 48H17.7754L18.5137 44.3701H16.6152L16.8877 43.1045H18.7861L19.3926 40.0811H17.4941L17.749 38.8242H19.6475L20.3682 35.3174H21.625L20.9131 38.8242H23.6025L24.3232 35.3174H25.5889L24.8594 38.8242H26.7578L26.4941 40.0811H24.5957ZM20.0166 43.1309H22.7324L23.3564 40.0635H20.6318L20.0166 43.1309ZM31.5696 40.8018H33.1077C33.8284 40.8018 34.4202 40.5908 34.8831 40.1689C35.3402 39.7471 35.5687 39.208 35.5687 38.5518C35.5687 37.9072 35.346 37.3857 34.9007 36.9873C34.4554 36.5947 33.8665 36.3984 33.1341 36.3984C32.4017 36.3984 31.8099 36.5889 31.3587 36.9697C30.9075 37.3564 30.6497 37.8896 30.5853 38.5693H29.0472C29.1292 37.4678 29.5394 36.6006 30.2777 35.9678C31.0159 35.335 31.9886 35.0186 33.1956 35.0186C34.303 35.0186 35.2435 35.3408 36.0169 35.9854C36.7904 36.6299 37.1771 37.415 37.1771 38.3408C37.1771 39.0967 36.9808 39.7354 36.5882 40.2568C36.1956 40.7783 35.6507 41.124 34.9534 41.2939V41.4346C35.8148 41.5459 36.4915 41.8799 36.9837 42.4365C37.4759 42.999 37.722 43.7139 37.722 44.5811C37.722 45.624 37.2913 46.5059 36.43 47.2266C35.5687 47.9414 34.5111 48.2988 33.2571 48.2988C31.9681 48.2988 30.9163 47.9707 30.1019 47.3145C29.2874 46.6523 28.8509 45.7793 28.7923 44.6953H30.3216C30.3919 45.3691 30.6907 45.9082 31.2181 46.3125C31.7454 46.7168 32.4193 46.9189 33.2396 46.9189C34.0716 46.9189 34.7571 46.6963 35.2962 46.251C35.8294 45.8057 36.096 45.2344 36.096 44.5371C36.096 43.8047 35.8353 43.2246 35.3138 42.7969C34.7923 42.3691 34.0804 42.1553 33.178 42.1553H31.5696V40.8018ZM44.4938 48.29C43.4157 48.29 42.5045 47.9912 41.7604 47.3936C41.0104 46.8018 40.5358 45.9961 40.3366 44.9766H41.9625C42.1325 45.5684 42.443 46.0342 42.8942 46.374C43.3512 46.7139 43.8903 46.8838 44.5114 46.8838C45.5426 46.8838 46.3424 46.4385 46.9108 45.5479C47.485 44.6572 47.7926 43.3682 47.8336 41.6807H47.693C47.3825 42.2959 46.9313 42.7734 46.3395 43.1133C45.7477 43.459 45.0739 43.6318 44.318 43.6318C43.111 43.6318 42.1149 43.2305 41.3297 42.4277C40.5446 41.6309 40.152 40.6172 40.152 39.3867C40.152 38.1094 40.568 37.0635 41.4 36.249C42.2321 35.4287 43.2985 35.0186 44.5993 35.0186C46.5563 35.0186 47.942 35.9795 48.7565 37.9014C49.1666 38.8623 49.3717 40.04 49.3717 41.4346C49.3717 43.6143 48.9469 45.3018 48.0973 46.4971C47.2477 47.6924 46.0465 48.29 44.4938 48.29ZM44.5993 42.2607C45.4371 42.2607 46.1286 41.9912 46.6735 41.4521C47.2125 40.9131 47.4821 40.2246 47.4821 39.3867C47.4821 38.5371 47.2067 37.8281 46.6559 37.2598C46.111 36.6914 45.4313 36.4072 44.6168 36.4072C43.8024 36.4072 43.1227 36.6885 42.5778 37.251C42.027 37.8076 41.7516 38.502 41.7516 39.334C41.7516 40.2012 42.0153 40.9043 42.5426 41.4434C43.0758 41.9883 43.7614 42.2607 44.5993 42.2607ZM56.4336 48.2988C55.0918 48.2988 53.9931 47.9561 53.1377 47.2705C52.288 46.5791 51.8632 45.6914 51.8632 44.6074C51.8632 43.7812 52.1035 43.0723 52.5839 42.4805C53.0644 41.8887 53.7031 41.5195 54.5 41.373V41.2324C53.8554 41.0566 53.3398 40.7139 52.9531 40.2041C52.5722 39.6943 52.3818 39.0938 52.3818 38.4023C52.3818 37.4121 52.7597 36.6006 53.5156 35.9678C54.2773 35.335 55.25 35.0186 56.4336 35.0186C57.6171 35.0186 58.5898 35.335 59.3515 35.9678C60.1074 36.6006 60.4853 37.4121 60.4853 38.4023C60.4853 39.0996 60.2949 39.7002 59.914 40.2041C59.539 40.708 59.0234 41.0508 58.3671 41.2324V41.373C59.164 41.5195 59.8027 41.8887 60.2832 42.4805C60.7636 43.0723 61.0039 43.7812 61.0039 44.6074C61.0039 45.6914 60.5791 46.5791 59.7295 47.2705C58.874 47.9561 57.7754 48.2988 56.4336 48.2988ZM56.4336 46.9453C57.3125 46.9453 58.0273 46.7168 58.5781 46.2598C59.1289 45.8086 59.4043 45.2197 59.4043 44.4932C59.4043 43.7666 59.1289 43.1777 58.5781 42.7266C58.0273 42.2695 57.3125 42.041 56.4336 42.041C55.5546 42.041 54.8398 42.2695 54.289 42.7266C53.7382 43.1777 53.4629 43.7666 53.4629 44.4932C53.4629 45.2197 53.7382 45.8086 54.289 46.2598C54.8398 46.7168 55.5546 46.9453 56.4336 46.9453ZM56.4336 40.7051C57.1836 40.7051 57.7871 40.5088 58.2441 40.1162C58.7011 39.7178 58.9296 39.1963 58.9296 38.5518C58.9296 37.8955 58.7011 37.3682 58.2441 36.9697C57.7871 36.5713 57.1836 36.3721 56.4336 36.3721C55.6836 36.3721 55.08 36.5713 54.623 36.9697C54.166 37.3682 53.9375 37.8955 53.9375 38.5518C53.9375 39.1963 54.166 39.7178 54.623 40.1162C55.08 40.5088 55.6836 40.7051 56.4336 40.7051ZM68.0393 48.2988C66.6096 48.2988 65.5022 47.7188 64.7171 46.5586C63.9319 45.3984 63.5393 43.7637 63.5393 41.6543C63.5393 39.5625 63.9348 37.9336 64.7259 36.7676C65.5169 35.6016 66.6214 35.0186 68.0393 35.0186C69.4514 35.0186 70.5501 35.6045 71.3352 36.7764C72.1263 37.9482 72.5218 39.583 72.5218 41.6807C72.5218 43.7842 72.1321 45.4131 71.3528 46.5674C70.5677 47.7217 69.4632 48.2988 68.0393 48.2988ZM68.0393 46.9189C68.9768 46.9189 69.6917 46.4678 70.1839 45.5654C70.6819 44.6572 70.9309 43.3535 70.9309 41.6543C70.9309 39.9727 70.6819 38.6777 70.1839 37.7695C69.68 36.8613 68.9651 36.4072 68.0393 36.4072C67.1136 36.4072 66.3958 36.8643 65.886 37.7783C65.3821 38.6865 65.1302 39.9785 65.1302 41.6543C65.1302 43.3477 65.3821 44.6484 65.886 45.5566C66.3841 46.4648 67.1018 46.9189 68.0393 46.9189ZM78.3268 37.0752H78.1861L74.9605 39.4131V37.7432L78.3355 35.3174H79.9088V48H78.3268V37.0752Z" fill="white"/>
</svg>
