<svg width="310" height="310" viewBox="0 0 310 310" fill="none" xmlns="http://www.w3.org/2000/svg">
<path d="M20.3154 21.085L23.2422 17.3057H26.1514L22.4336 21.7266L26.3447 27H23.2949L20.3506 22.9834H19.8936V27H17.3359V17.3057H19.8936V21.085H20.3154ZM28.3616 17.3057H30.9193V21.0234H34.7952V17.3057H37.3529V27H34.7952V23.0361H30.9193V27H28.3616V17.3057ZM40.2135 27V17.3057H42.7272V23.2646H42.8854L46.7965 17.3057H49.3102V27H46.7965V20.9707H46.6383L42.7272 27H40.2135ZM54.7461 19.3184V27H52.1884V17.3057H58.8945V19.3184H54.7461ZM64.5061 25.2246C65.0979 25.2246 65.593 25.0576 65.9915 24.7236C66.3899 24.3896 66.5891 23.9766 66.5891 23.4844V22.7725L64.6292 22.8955C63.5393 22.9717 62.9944 23.3613 62.9944 24.0645C62.9944 24.4219 63.135 24.7061 63.4163 24.917C63.6917 25.1221 64.055 25.2246 64.5061 25.2246ZM63.6624 27.1494C62.7249 27.1494 61.9632 26.8857 61.3772 26.3584C60.7854 25.8193 60.4895 25.1104 60.4895 24.2314C60.4895 23.3584 60.8147 22.6699 61.4651 22.166C62.1096 21.668 63.0354 21.3838 64.2425 21.3135L66.5891 21.1729V20.3818C66.5891 19.5381 66.0442 19.1162 64.9544 19.1162C64.0052 19.1162 63.4221 19.415 63.2054 20.0127H60.8499C60.9319 19.1162 61.3567 18.4043 62.1243 17.877C62.886 17.3555 63.8763 17.0947 65.095 17.0947C66.3723 17.0947 67.3626 17.3818 68.0657 17.9561C68.763 18.5303 69.1116 19.3389 69.1116 20.3818V27H66.6331V25.7344H66.4749C65.9417 26.6777 65.0042 27.1494 63.6624 27.1494ZM76.828 27V17.3057H80.1415L82.6816 23.5107H82.8398L85.3886 17.3057H88.6581V27H86.2499V20.5752H86.0829L83.6308 26.4551H81.8466L79.3945 20.5752H79.2363V27H76.828ZM92.758 30.542C92.2131 30.542 91.8879 30.5332 91.7825 30.5156V28.4502C91.8704 28.4678 92.0637 28.4766 92.3625 28.4766C93.3 28.4766 93.8713 28.1221 94.0764 27.4131L94.1643 27.0615L90.7629 17.3057H93.5842L95.6233 24.6533H95.7815L97.8205 17.3057H100.528L97.1877 27.1494C96.7776 28.3975 96.2385 29.2734 95.5705 29.7773C94.9084 30.2871 93.9709 30.542 92.758 30.542ZM108.266 17.1475C109.497 17.1475 110.463 17.5898 111.167 18.4746C111.87 19.3594 112.221 20.584 112.221 22.1484C112.221 23.707 111.873 24.9316 111.175 25.8223C110.478 26.707 109.523 27.1494 108.31 27.1494C106.863 27.1494 105.887 26.6045 105.383 25.5146H105.225V30.0322H102.668V17.3057H105.146V18.8965H105.304C105.568 18.3516 105.961 17.9238 106.482 17.6133C107.003 17.3027 107.598 17.1475 108.266 17.1475ZM107.396 25.0137C108.087 25.0137 108.627 24.7588 109.013 24.249C109.4 23.7451 109.593 23.0449 109.593 22.1484C109.593 21.2578 109.4 20.5605 109.013 20.0566C108.621 19.5469 108.085 19.292 107.405 19.292C106.725 19.292 106.186 19.5469 105.788 20.0566C105.395 20.5723 105.199 21.2725 105.199 22.1572C105.199 23.042 105.395 23.7393 105.788 24.249C106.18 24.7588 106.716 25.0137 107.396 25.0137ZM118.176 25.2246C118.767 25.2246 119.263 25.0576 119.661 24.7236C120.059 24.3896 120.259 23.9766 120.259 23.4844V22.7725L118.299 22.8955C117.209 22.9717 116.664 23.3613 116.664 24.0645C116.664 24.4219 116.805 24.7061 117.086 24.917C117.361 25.1221 117.724 25.2246 118.176 25.2246ZM117.332 27.1494C116.394 27.1494 115.633 26.8857 115.047 26.3584C114.455 25.8193 114.159 25.1104 114.159 24.2314C114.159 23.3584 114.484 22.6699 115.135 22.166C115.779 21.668 116.705 21.3838 117.912 21.3135L120.259 21.1729V20.3818C120.259 19.5381 119.714 19.1162 118.624 19.1162C117.675 19.1162 117.092 19.415 116.875 20.0127H114.519C114.601 19.1162 115.026 18.4043 115.794 17.877C116.556 17.3555 117.546 17.0947 118.765 17.0947C120.042 17.0947 121.032 17.3818 121.735 17.9561C122.433 18.5303 122.781 19.3389 122.781 20.3818V27H120.303V25.7344H120.144C119.611 26.6777 118.674 27.1494 117.332 27.1494ZM128.191 18.9932V21.2256H129.729C130.731 21.2256 131.232 20.8506 131.232 20.1006C131.232 19.3623 130.778 18.9932 129.869 18.9932H128.191ZM128.191 22.7637V25.3125H129.992C131.065 25.3125 131.601 24.8848 131.601 24.0293C131.601 23.1855 131.021 22.7637 129.861 22.7637H128.191ZM125.677 17.3057H130.537C131.545 17.3057 132.333 17.5225 132.902 17.9561C133.464 18.3896 133.745 18.9873 133.745 19.749C133.745 20.2529 133.578 20.7012 133.244 21.0938C132.916 21.4805 132.503 21.7148 132.005 21.7969V21.9551C132.65 22.0137 133.174 22.2539 133.578 22.6758C133.977 23.0918 134.176 23.5986 134.176 24.1963C134.176 25.0459 133.86 25.7227 133.227 26.2266C132.582 26.7422 131.715 27 130.625 27H125.677V17.3057ZM140.895 19.0547C140.303 19.0547 139.814 19.2451 139.427 19.626C139.046 20.0068 138.833 20.5107 138.786 21.1377H142.917C142.887 20.4932 142.694 19.9863 142.336 19.6172C141.973 19.2422 141.493 19.0547 140.895 19.0547ZM145.351 24.2402C145.158 25.1602 144.668 25.8838 143.883 26.4111C143.092 26.9443 142.105 27.2109 140.921 27.2109C139.445 27.2109 138.293 26.7686 137.467 25.8838C136.641 25.0049 136.228 23.7773 136.228 22.2012C136.228 20.625 136.644 19.3799 137.476 18.4658C138.308 17.5518 139.445 17.0947 140.886 17.0947C142.316 17.0947 143.429 17.5254 144.226 18.3867C145.029 19.248 145.43 20.4492 145.43 21.9902V22.7725H138.777V22.9043C138.794 23.625 139.002 24.1934 139.401 24.6094C139.793 25.0312 140.324 25.2422 140.992 25.2422C142.029 25.2422 142.688 24.9082 142.969 24.2402H145.351ZM150.901 12.7969C150.913 13.2715 151.045 13.6582 151.297 13.957C151.56 14.2617 151.903 14.4141 152.325 14.4141C152.747 14.4141 153.09 14.2617 153.353 13.957C153.611 13.6582 153.746 13.2715 153.758 12.7969H155.674C155.674 13.7051 155.366 14.4434 154.751 15.0117C154.136 15.5859 153.327 15.873 152.325 15.873C151.323 15.873 150.514 15.5859 149.899 15.0117C149.29 14.4492 148.985 13.7109 148.985 12.7969H150.901ZM147.922 27V17.3057H150.435V23.2646H150.594L154.505 17.3057H157.018V27H154.505V20.9707H154.347L150.435 27H147.922ZM159.897 17.3057H162.454V21.0234H166.33V17.3057H168.888V27H166.33V23.0361H162.454V27H159.897V17.3057ZM171.749 27V17.3057H174.262V23.2646H174.42L178.332 17.3057H180.845V27H178.332V20.9707H178.173L174.262 27H171.749ZM186.703 21.085L189.63 17.3057H192.539L188.821 21.7266L192.732 27H189.682L186.738 22.9834H186.281V27H183.723V17.3057H186.281V21.085H186.703ZM197.922 25.2246C198.514 25.2246 199.009 25.0576 199.407 24.7236C199.806 24.3896 200.005 23.9766 200.005 23.4844V22.7725L198.045 22.8955C196.955 22.9717 196.41 23.3613 196.41 24.0645C196.41 24.4219 196.551 24.7061 196.832 24.917C197.108 25.1221 197.471 25.2246 197.922 25.2246ZM197.078 27.1494C196.141 27.1494 195.379 26.8857 194.793 26.3584C194.201 25.8193 193.905 25.1104 193.905 24.2314C193.905 23.3584 194.231 22.6699 194.881 22.166C195.526 21.668 196.451 21.3838 197.658 21.3135L200.005 21.1729V20.3818C200.005 19.5381 199.46 19.1162 198.37 19.1162C197.421 19.1162 196.838 19.415 196.621 20.0127H194.266C194.348 19.1162 194.773 18.4043 195.54 17.877C196.302 17.3555 197.292 17.0947 198.511 17.0947C199.788 17.0947 200.778 17.3818 201.482 17.9561C202.179 18.5303 202.527 19.3389 202.527 20.3818V27H200.049V25.7344H199.891C199.358 26.6777 198.42 27.1494 197.078 27.1494ZM24.5957 40.0811L23.9805 43.1045H25.8789L25.624 44.3701H23.7256L22.9873 48H21.7217L22.4688 44.3701H19.7705L19.0322 48H17.7754L18.5137 44.3701H16.6152L16.8877 43.1045H18.7861L19.3926 40.0811H17.4941L17.749 38.8242H19.6475L20.3682 35.3174H21.625L20.9131 38.8242H23.6025L24.3232 35.3174H25.5889L24.8594 38.8242H26.7578L26.4941 40.0811H24.5957ZM20.0166 43.1309H22.7324L23.3564 40.0635H20.6318L20.0166 43.1309ZM31.5696 40.8018H33.1077C33.8284 40.8018 34.4202 40.5908 34.8831 40.1689C35.3402 39.7471 35.5687 39.208 35.5687 38.5518C35.5687 37.9072 35.346 37.3857 34.9007 36.9873C34.4554 36.5947 33.8665 36.3984 33.1341 36.3984C32.4017 36.3984 31.8099 36.5889 31.3587 36.9697C30.9075 37.3564 30.6497 37.8896 30.5853 38.5693H29.0472C29.1292 37.4678 29.5394 36.6006 30.2777 35.9678C31.0159 35.335 31.9886 35.0186 33.1956 35.0186C34.303 35.0186 35.2435 35.3408 36.0169 35.9854C36.7904 36.6299 37.1771 37.415 37.1771 38.3408C37.1771 39.0967 36.9808 39.7354 36.5882 40.2568C36.1956 40.7783 35.6507 41.124 34.9534 41.2939V41.4346C35.8148 41.5459 36.4915 41.8799 36.9837 42.4365C37.4759 42.999 37.722 43.7139 37.722 44.5811C37.722 45.624 37.2913 46.5059 36.43 47.2266C35.5687 47.9414 34.5111 48.2988 33.2571 48.2988C31.9681 48.2988 30.9163 47.9707 30.1019 47.3145C29.2874 46.6523 28.8509 45.7793 28.7923 44.6953H30.3216C30.3919 45.3691 30.6907 45.9082 31.2181 46.3125C31.7454 46.7168 32.4193 46.9189 33.2396 46.9189C34.0716 46.9189 34.7571 46.6963 35.2962 46.251C35.8294 45.8057 36.096 45.2344 36.096 44.5371C36.096 43.8047 35.8353 43.2246 35.3138 42.7969C34.7923 42.3691 34.0804 42.1553 33.178 42.1553H31.5696V40.8018ZM44.9245 48.29C42.9674 48.29 41.5817 47.3291 40.7672 45.4072C40.3571 44.4463 40.152 43.2686 40.152 41.874C40.152 39.6943 40.5768 38.0068 41.4264 36.8115C42.276 35.6162 43.4772 35.0186 45.0299 35.0186C46.108 35.0186 47.0192 35.3145 47.7633 35.9062C48.5133 36.5039 48.9879 37.3125 49.1871 38.332H47.5612C47.3913 37.7402 47.0807 37.2744 46.6295 36.9346C46.1725 36.5947 45.6334 36.4248 45.0123 36.4248C43.9811 36.4248 43.1813 36.8701 42.6129 37.7607C42.0387 38.6514 41.7311 39.9404 41.6901 41.6279H41.8307C42.1413 41.0127 42.5924 40.5322 43.1842 40.1865C43.776 39.8467 44.4498 39.6768 45.2057 39.6768C46.4127 39.6768 47.4088 40.0752 48.194 40.8721C48.9791 41.6748 49.3717 42.6914 49.3717 43.9219C49.3717 45.1992 48.9557 46.2451 48.1237 47.0596C47.2916 47.8799 46.2252 48.29 44.9245 48.29ZM44.9069 46.9014C45.7213 46.9014 46.401 46.6201 46.9459 46.0576C47.4967 45.501 47.7721 44.8066 47.7721 43.9746C47.7721 43.1074 47.5084 42.4043 46.9811 41.8652C46.4479 41.3203 45.7623 41.0479 44.9245 41.0479C44.0866 41.0479 43.3952 41.3174 42.8502 41.8564C42.3112 42.3955 42.0416 43.084 42.0416 43.9219C42.0416 44.7715 42.317 45.4805 42.8678 46.0488C43.4127 46.6172 44.0924 46.9014 44.9069 46.9014ZM57.8925 45.3721H51.7138V43.9307C52.874 41.8682 54.6845 38.9971 57.1455 35.3174H59.4394V43.957H61.2412V45.3721H59.4394V48H57.8925V45.3721ZM53.331 43.9658H57.9013V36.7852H57.7959C56.4248 38.7773 54.9365 41.1357 53.331 43.8604V43.9658ZM68.1975 48.2988C66.8557 48.2988 65.7571 47.9561 64.9016 47.2705C64.052 46.5791 63.6272 45.6914 63.6272 44.6074C63.6272 43.7812 63.8675 43.0723 64.3479 42.4805C64.8284 41.8887 65.4671 41.5195 66.2639 41.373V41.2324C65.6194 41.0566 65.1038 40.7139 64.7171 40.2041C64.3362 39.6943 64.1458 39.0938 64.1458 38.4023C64.1458 37.4121 64.5237 36.6006 65.2796 35.9678C66.0413 35.335 67.0139 35.0186 68.1975 35.0186C69.3811 35.0186 70.3538 35.335 71.1155 35.9678C71.8714 36.6006 72.2493 37.4121 72.2493 38.4023C72.2493 39.0996 72.0589 39.7002 71.678 40.2041C71.303 40.708 70.7874 41.0508 70.1311 41.2324V41.373C70.928 41.5195 71.5667 41.8887 72.0471 42.4805C72.5276 43.0723 72.7679 43.7812 72.7679 44.6074C72.7679 45.6914 72.343 46.5791 71.4934 47.2705C70.638 47.9561 69.5393 48.2988 68.1975 48.2988ZM68.1975 46.9453C69.0764 46.9453 69.7913 46.7168 70.3421 46.2598C70.8929 45.8086 71.1682 45.2197 71.1682 44.4932C71.1682 43.7666 70.8929 43.1777 70.3421 42.7266C69.7913 42.2695 69.0764 42.041 68.1975 42.041C67.3186 42.041 66.6038 42.2695 66.053 42.7266C65.5022 43.1777 65.2268 43.7666 65.2268 44.4932C65.2268 45.2197 65.5022 45.8086 66.053 46.2598C66.6038 46.7168 67.3186 46.9453 68.1975 46.9453ZM68.1975 40.7051C68.9475 40.7051 69.5511 40.5088 70.0081 40.1162C70.4651 39.7178 70.6936 39.1963 70.6936 38.5518C70.6936 37.8955 70.4651 37.3682 70.0081 36.9697C69.5511 36.5713 68.9475 36.3721 68.1975 36.3721C67.4475 36.3721 66.844 36.5713 66.387 36.9697C65.93 37.3682 65.7014 37.8955 65.7014 38.5518C65.7014 39.1963 65.93 39.7178 66.387 40.1162C66.844 40.5088 67.4475 40.7051 68.1975 40.7051ZM78.1334 40.8018H79.6715C80.3922 40.8018 80.984 40.5908 81.4469 40.1689C81.9039 39.7471 82.1324 39.208 82.1324 38.5518C82.1324 37.9072 81.9098 37.3857 81.4645 36.9873C81.0191 36.5947 80.4303 36.3984 79.6979 36.3984C78.9654 36.3984 78.3736 36.5889 77.9225 36.9697C77.4713 37.3564 77.2135 37.8896 77.149 38.5693H75.6109C75.693 37.4678 76.1031 36.6006 76.8414 35.9678C77.5797 35.335 78.5523 35.0186 79.7594 35.0186C80.8668 35.0186 81.8072 35.3408 82.5807 35.9854C83.3541 36.6299 83.7408 37.415 83.7408 38.3408C83.7408 39.0967 83.5445 39.7354 83.152 40.2568C82.7594 40.7783 82.2145 41.124 81.5172 41.2939V41.4346C82.3785 41.5459 83.0553 41.8799 83.5475 42.4365C84.0396 42.999 84.2857 43.7139 84.2857 44.5811C84.2857 45.624 83.8551 46.5059 82.9938 47.2266C82.1324 47.9414 81.0748 48.2988 79.8209 48.2988C78.5318 48.2988 77.4801 47.9707 76.6656 47.3145C75.8512 46.6523 75.4146 45.7793 75.3561 44.6953H76.8854C76.9557 45.3691 77.2545 45.9082 77.7818 46.3125C78.3092 46.7168 78.983 46.9189 79.8033 46.9189C80.6354 46.9189 81.3209 46.6963 81.86 46.251C82.3932 45.8057 82.6598 45.2344 82.6598 44.5371C82.6598 43.8047 82.399 43.2246 81.8775 42.7969C81.3561 42.3691 80.6441 42.1553 79.7418 42.1553H78.1334V40.8018Z" fill="white"/>
</svg>
