<svg width="1267" height="180" viewBox="0 0 1267 180" fill="none" xmlns="http://www.w3.org/2000/svg">
<g filter="url(#filter0_b)">
<rect width="1267" height="180" rx="8" fill="white" fill-opacity="0.2"/>
</g>
<path d="M32 52.4062C32 48.0521 33.5208 44.5208 36.5625 41.8125C39.6042 39.1042 43.5625 37.75 48.4375 37.75C53.1458 37.75 56.9792 38.9688 59.9375 41.4062C62.9167 43.8646 64.4062 47.0312 64.4062 50.9062C64.4062 53.3646 63.6354 55.8021 62.0938 58.2188C60.5521 60.6562 57.8333 63.7083 53.9375 67.375L45.3125 75.5938V76.1562H65.0625V84H32.5312V77.4062L47.25 63C50.4167 59.9167 52.5312 57.5938 53.5938 56.0312C54.6562 54.5104 55.1875 53.0104 55.1875 51.5312C55.1875 49.7188 54.5312 48.2292 53.2188 47.0625C51.8854 45.9167 50.1875 45.3438 48.125 45.3438C45.9375 45.3438 44.1667 46 42.8125 47.3125C41.4375 48.6042 40.75 50.2917 40.75 52.375V52.5625H32V52.4062ZM84.625 48.0938H84.0625L73 55.7188V46.9375L84.6562 38.9062H94.0625V84H84.625V48.0938ZM111.406 84.8438C109.76 84.8438 108.417 84.3333 107.375 83.3125C106.375 82.2917 105.875 80.9896 105.875 79.4062C105.875 77.8229 106.375 76.5312 107.375 75.5312C108.396 74.5104 109.74 74 111.406 74C113.073 74 114.417 74.5104 115.438 75.5312C116.438 76.5104 116.938 77.8021 116.938 79.4062C116.938 81.0104 116.438 82.3125 115.438 83.3125C114.417 84.3333 113.073 84.8438 111.406 84.8438ZM141.125 85.1562C135.542 85.1562 131.167 83.0625 128 78.875C124.812 74.6667 123.219 68.8333 123.219 61.375C123.219 53.9375 124.812 48.1354 128 43.9688C131.167 39.8229 135.542 37.75 141.125 37.75C146.688 37.75 151.052 39.8229 154.219 43.9688C157.427 48.1562 159.031 53.9688 159.031 61.4062C159.031 68.8438 157.438 74.6667 154.25 78.875C151.083 83.0625 146.708 85.1562 141.125 85.1562ZM141.125 77.4688C143.75 77.4688 145.792 76.1042 147.25 73.375C148.729 70.5833 149.469 66.5833 149.469 61.375C149.469 56.2083 148.719 52.2396 147.219 49.4688C145.781 46.8021 143.75 45.4688 141.125 45.4688C138.521 45.4688 136.49 46.8125 135.031 49.5C133.531 52.2708 132.781 56.2292 132.781 61.375C132.781 66.5625 133.531 70.5625 135.031 73.375C136.469 76.1042 138.5 77.4688 141.125 77.4688ZM188.781 47.25V46.6562H166.438V38.875H198.219V46.75L179.375 84H169.5L188.781 47.25Z" fill="white"/>
<path d="M43.082 125.039H36.3496L35.8223 132.246C35.623 134.648 35.125 136.406 34.3281 137.52V137.818H43.082V125.039ZM28.5977 146.01V137.818H30.1445C31.4102 137.045 32.1484 135.123 32.3594 132.053L33.0625 121.857H46.8438V137.818H49.832V146.01H46.3164V141H32.1133V146.01H28.5977ZM61.5742 124.705C60.1797 124.705 59.0312 125.156 58.1289 126.059C57.2266 126.961 56.7227 128.162 56.6172 129.662H66.2852C66.2383 128.15 65.793 126.949 64.9492 126.059C64.0938 125.156 62.9688 124.705 61.5742 124.705ZM69.9062 135.832C69.4727 137.555 68.5293 138.908 67.0762 139.893C65.6113 140.877 63.7891 141.369 61.6094 141.369C58.8672 141.369 56.7109 140.484 55.1406 138.715C53.5586 136.957 52.7676 134.549 52.7676 131.49C52.7676 128.432 53.5645 126 55.1582 124.195C56.752 122.391 58.8965 121.488 61.5918 121.488C64.252 121.488 66.3438 122.344 67.8672 124.055C69.3789 125.766 70.1348 128.127 70.1348 131.139V132.457H56.6172V132.668C56.6758 134.355 57.1621 135.691 58.0762 136.676C58.9902 137.66 60.2031 138.152 61.7148 138.152C64.0234 138.152 65.541 137.379 66.2676 135.832H69.9062ZM75.0215 121.857H78.8008V129.521H87.7656V121.857H91.5449V141H87.7656V132.703H78.8008V141H75.0215V121.857ZM101.09 130.893V137.818H104.447C105.584 137.818 106.498 137.502 107.189 136.869C107.869 136.236 108.209 135.398 108.209 134.355C108.209 133.312 107.869 132.475 107.189 131.842C106.498 131.209 105.584 130.893 104.447 130.893H101.09ZM97.3105 121.857H101.09V127.729H104.729C106.943 127.729 108.707 128.326 110.02 129.521C111.332 130.717 111.988 132.328 111.988 134.355C111.988 136.383 111.332 138 110.02 139.207C108.707 140.402 106.943 141 104.729 141H97.3105V121.857ZM131.008 129.627L137.916 121.857H142.363L134.119 130.752L142.715 141H138.004L131.025 132.633H130.164V141H126.385V121.857H130.164V129.627H131.008ZM156.689 121.541C159.127 121.541 161.061 122.426 162.49 124.195C163.92 125.977 164.635 128.385 164.635 131.42C164.635 134.455 163.92 136.863 162.49 138.645C161.072 140.426 159.15 141.316 156.725 141.316C153.865 141.316 151.902 140.244 150.836 138.1H150.537V147.205H146.758V121.857H150.396V125.021H150.678C151.252 123.932 152.072 123.076 153.139 122.455C154.205 121.846 155.389 121.541 156.689 121.541ZM155.617 137.924C157.223 137.924 158.482 137.35 159.396 136.201C160.299 135.041 160.75 133.447 160.75 131.42C160.75 129.393 160.299 127.805 159.396 126.656C158.482 125.508 157.229 124.934 155.635 124.934C154.041 124.934 152.781 125.514 151.855 126.674C150.93 127.846 150.467 129.434 150.467 131.438C150.467 133.43 150.93 135.012 151.855 136.184C152.781 137.344 154.035 137.924 155.617 137.924ZM177.678 138.012C179.307 138.012 180.572 137.432 181.475 136.271C182.365 135.123 182.811 133.506 182.811 131.42C182.811 129.346 182.365 127.729 181.475 126.568C180.572 125.42 179.307 124.846 177.678 124.846C176.037 124.846 174.771 125.42 173.881 126.568C172.99 127.717 172.545 129.334 172.545 131.42C172.545 133.518 172.99 135.141 173.881 136.289C174.771 137.438 176.037 138.012 177.678 138.012ZM177.678 141.369C174.865 141.369 172.656 140.484 171.051 138.715C169.445 136.945 168.643 134.514 168.643 131.42C168.643 128.338 169.451 125.912 171.068 124.143C172.674 122.373 174.877 121.488 177.678 121.488C180.467 121.488 182.664 122.373 184.27 124.143C185.887 125.912 186.695 128.338 186.695 131.42C186.695 134.514 185.893 136.945 184.287 138.715C182.682 140.484 180.479 141.369 177.678 141.369ZM195.344 124.758V129.715H199.158C201.408 129.715 202.533 128.883 202.533 127.219C202.533 125.578 201.549 124.758 199.58 124.758H195.344ZM195.344 132.492V138.1H199.896C202.182 138.1 203.324 137.168 203.324 135.305C203.324 133.43 202.023 132.492 199.422 132.492H195.344ZM191.6 121.857H200.301C202.164 121.857 203.623 122.297 204.678 123.176C205.721 124.043 206.242 125.227 206.242 126.727C206.242 127.699 205.938 128.572 205.328 129.346C204.707 130.119 203.934 130.594 203.008 130.77V131.068C204.238 131.209 205.229 131.689 205.979 132.51C206.729 133.318 207.104 134.309 207.104 135.48C207.104 137.168 206.512 138.504 205.328 139.488C204.121 140.496 202.475 141 200.389 141H191.6V121.857ZM218.389 138.135C219.807 138.135 220.99 137.736 221.939 136.939C222.877 136.143 223.346 135.146 223.346 133.951V132.352L218.67 132.65C216.115 132.826 214.838 133.746 214.838 135.41C214.838 136.254 215.172 136.922 215.84 137.414C216.484 137.895 217.334 138.135 218.389 138.135ZM217.422 141.316C215.547 141.316 214.023 140.801 212.852 139.77C211.645 138.703 211.041 137.309 211.041 135.586C211.041 133.875 211.656 132.527 212.887 131.543C214.117 130.57 215.875 130.014 218.16 129.873L223.346 129.574V127.922C223.346 125.812 222.039 124.758 219.426 124.758C217.211 124.758 215.881 125.467 215.436 126.885H211.779C211.967 125.244 212.775 123.932 214.205 122.947C215.623 121.975 217.422 121.488 219.602 121.488C221.992 121.488 223.844 122.057 225.156 123.193C226.457 124.318 227.107 125.895 227.107 127.922V141H223.469V138.311H223.17C221.975 140.314 220.059 141.316 217.422 141.316ZM236.758 124.758V129.715H240.572C242.822 129.715 243.947 128.883 243.947 127.219C243.947 125.578 242.963 124.758 240.994 124.758H236.758ZM236.758 132.492V138.1H241.311C243.596 138.1 244.738 137.168 244.738 135.305C244.738 133.43 243.438 132.492 240.836 132.492H236.758ZM233.014 121.857H241.715C243.578 121.857 245.037 122.297 246.092 123.176C247.135 124.043 247.656 125.227 247.656 126.727C247.656 127.699 247.352 128.572 246.742 129.346C246.121 130.119 245.348 130.594 244.422 130.77V131.068C245.652 131.209 246.643 131.689 247.393 132.51C248.143 133.318 248.518 134.309 248.518 135.48C248.518 137.168 247.926 138.504 246.742 139.488C245.535 140.496 243.889 141 241.803 141H233.014V121.857ZM261.525 138.012C263.154 138.012 264.42 137.432 265.322 136.271C266.213 135.123 266.658 133.506 266.658 131.42C266.658 129.346 266.213 127.729 265.322 126.568C264.42 125.42 263.154 124.846 261.525 124.846C259.885 124.846 258.619 125.42 257.729 126.568C256.838 127.717 256.393 129.334 256.393 131.42C256.393 133.518 256.838 135.141 257.729 136.289C258.619 137.438 259.885 138.012 261.525 138.012ZM261.525 141.369C258.713 141.369 256.504 140.484 254.898 138.715C253.293 136.945 252.49 134.514 252.49 131.42C252.49 128.338 253.299 125.912 254.916 124.143C256.521 122.373 258.725 121.488 261.525 121.488C264.314 121.488 266.512 122.373 268.117 124.143C269.734 125.912 270.543 128.338 270.543 131.42C270.543 134.514 269.74 136.945 268.135 138.715C266.529 140.484 264.326 141.369 261.525 141.369ZM280.387 113.191C280.387 114.164 280.668 114.984 281.23 115.652C281.816 116.344 282.572 116.689 283.498 116.689C284.447 116.689 285.215 116.344 285.801 115.652C286.352 114.984 286.633 114.164 286.645 113.191H289.773C289.773 114.914 289.199 116.332 288.051 117.445C286.879 118.57 285.361 119.133 283.498 119.133C281.635 119.133 280.123 118.57 278.963 117.445C277.814 116.332 277.24 114.914 277.24 113.191H280.387ZM275.447 141V121.857H279.191V135.023H279.49L288.473 121.857H292.217V141H288.473V127.764H288.174L279.191 141H275.447ZM307.826 141V121.857H312.572L318.742 135.551H319.041L325.229 121.857H329.834V141H326.16V127.799H325.826L320.219 140.227H317.441L311.834 127.799H311.5V141H307.826ZM342.859 141.352C340.527 141.352 338.617 140.748 337.129 139.541C335.711 138.381 334.873 136.828 334.615 134.883H338.289C338.793 136.957 340.322 137.994 342.877 137.994C344.318 137.994 345.508 137.508 346.445 136.535C347.383 135.562 347.91 134.256 348.027 132.615H339.818V129.697H347.975C347.822 128.209 347.271 127.025 346.322 126.146C345.408 125.291 344.26 124.863 342.877 124.863C341.646 124.863 340.621 125.168 339.801 125.777C339.027 126.34 338.523 127.09 338.289 128.027H334.615C334.885 126.105 335.729 124.553 337.146 123.369C338.646 122.115 340.557 121.488 342.877 121.488C345.619 121.488 347.811 122.379 349.451 124.16C351.092 125.953 351.912 128.355 351.912 131.367C351.912 134.438 351.092 136.869 349.451 138.662C347.822 140.455 345.625 141.352 342.859 141.352ZM366.748 121.541C369.186 121.541 371.119 122.426 372.549 124.195C373.979 125.977 374.693 128.385 374.693 131.42C374.693 134.455 373.979 136.863 372.549 138.645C371.131 140.426 369.209 141.316 366.783 141.316C363.924 141.316 361.961 140.244 360.895 138.1H360.596V147.205H356.816V121.857H360.455V125.021H360.736C361.311 123.932 362.131 123.076 363.197 122.455C364.264 121.846 365.447 121.541 366.748 121.541ZM365.676 137.924C367.281 137.924 368.541 137.35 369.455 136.201C370.357 135.041 370.809 133.447 370.809 131.42C370.809 129.393 370.357 127.805 369.455 126.656C368.541 125.508 367.287 124.934 365.693 124.934C364.1 124.934 362.84 125.514 361.914 126.674C360.988 127.846 360.525 129.434 360.525 131.438C360.525 133.43 360.988 135.012 361.914 136.184C362.84 137.344 364.094 137.924 365.676 137.924ZM379.58 141V121.857H383.324V135.023H383.623L392.605 121.857H396.35V141H392.605V127.764H392.307L383.324 141H379.58Z" fill="white"/>
<defs>
<filter id="filter0_b" x="-20" y="-20" width="1307" height="220" filterUnits="userSpaceOnUse" color-interpolation-filters="sRGB">
<feFlood flood-opacity="0" result="BackgroundImageFix"/>
<feGaussianBlur in="BackgroundImage" stdDeviation="10"/>
<feComposite in2="SourceAlpha" operator="in" result="effect1_backgroundBlur"/>
<feBlend mode="normal" in="SourceGraphic" in2="effect1_backgroundBlur" result="shape"/>
</filter>
</defs>
</svg>
