<svg width="612" height="164" viewBox="0 0 612 164" fill="none" xmlns="http://www.w3.org/2000/svg">
<line y1="44.5" x2="612" y2="44.5" stroke="white" stroke-opacity="0.5"/>
<line y1="103.5" x2="612" y2="103.5" stroke="white" stroke-opacity="0.5"/>
<line y1="163.5" x2="612" y2="163.5" stroke="white" stroke-opacity="0.5"/>
<path d="M43.2729 72.9932V75.2256H44.811C45.813 75.2256 46.314 74.8506 46.314 74.1006C46.314 73.3623 45.8599 72.9932 44.9517 72.9932H43.2729ZM43.2729 76.7637V79.3125H45.0747C46.147 79.3125 46.6831 78.8848 46.6831 78.0293C46.6831 77.1855 46.103 76.7637 44.9429 76.7637H43.2729ZM40.7593 71.3057H45.6196C46.6274 71.3057 47.4155 71.5225 47.9839 71.9561C48.5464 72.3896 48.8276 72.9873 48.8276 73.749C48.8276 74.2529 48.6606 74.7012 48.3267 75.0938C47.9985 75.4805 47.5854 75.7148 47.0874 75.7969V75.9551C47.7319 76.0137 48.2563 76.2539 48.6606 76.6758C49.0591 77.0918 49.2583 77.5986 49.2583 78.1963C49.2583 79.0459 48.9419 79.7227 48.3091 80.2266C47.6646 80.7422 46.7974 81 45.7075 81H40.7593V71.3057ZM57.2124 71.1475C58.4429 71.1475 59.4097 71.5898 60.1128 72.4746C60.8159 73.3594 61.1675 74.584 61.1675 76.1484C61.1675 77.707 60.8188 78.9316 60.1216 79.8223C59.4243 80.707 58.4692 81.1494 57.2563 81.1494C55.8091 81.1494 54.8335 80.6045 54.3296 79.5146H54.1714V84.0322H51.6138V71.3057H54.0923V72.8965H54.2505C54.5142 72.3516 54.9067 71.9238 55.4282 71.6133C55.9497 71.3027 56.5444 71.1475 57.2124 71.1475ZM56.3423 79.0137C57.0337 79.0137 57.5728 78.7588 57.9595 78.249C58.3462 77.7451 58.5396 77.0449 58.5396 76.1484C58.5396 75.2578 58.3462 74.5605 57.9595 74.0566C57.5669 73.5469 57.0308 73.292 56.3511 73.292C55.6714 73.292 55.1323 73.5469 54.7339 74.0566C54.3413 74.5723 54.145 75.2725 54.145 76.1572C54.145 77.042 54.3413 77.7393 54.7339 78.249C55.1265 78.7588 55.6626 79.0137 56.3423 79.0137ZM67.6802 73.0547C67.0884 73.0547 66.5991 73.2451 66.2124 73.626C65.8315 74.0068 65.6177 74.5107 65.5708 75.1377H69.7017C69.6724 74.4932 69.479 73.9863 69.1216 73.6172C68.7583 73.2422 68.2778 73.0547 67.6802 73.0547ZM72.1362 78.2402C71.9429 79.1602 71.4536 79.8838 70.6685 80.4111C69.8774 80.9443 68.8901 81.2109 67.7065 81.2109C66.23 81.2109 65.0786 80.7686 64.2524 79.8838C63.4263 79.0049 63.0132 77.7773 63.0132 76.2012C63.0132 74.625 63.4292 73.3799 64.2612 72.4658C65.0933 71.5518 66.23 71.0947 67.6714 71.0947C69.1011 71.0947 70.2144 71.5254 71.0112 72.3867C71.814 73.248 72.2153 74.4492 72.2153 75.9902V76.7725H65.562V76.9043C65.5796 77.625 65.7876 78.1934 66.186 78.6094C66.5786 79.0312 67.1089 79.2422 67.7769 79.2422C68.814 79.2422 69.4731 78.9082 69.7544 78.2402H72.1362ZM74.5269 81V71.3057H77.8403L80.3804 77.5107H80.5386L83.0874 71.3057H86.3569V81H83.9487V74.5752H83.7817L81.3296 80.4551H79.5454L77.0933 74.5752H76.9351V81H74.5269ZM94.4604 76.0166V73.3096H92.8872C92.4126 73.3096 92.0347 73.4355 91.7534 73.6875C91.4663 73.9395 91.3228 74.2734 91.3228 74.6895C91.3228 75.082 91.4663 75.3984 91.7534 75.6387C92.0405 75.8906 92.4185 76.0166 92.8872 76.0166H94.4604ZM94.4604 77.8799H93.4146L91.2612 81H88.3608L90.9009 77.458C90.2563 77.2646 89.7466 76.916 89.3716 76.4121C88.9966 75.9141 88.8091 75.3311 88.8091 74.6631C88.8091 73.6436 89.1606 72.8262 89.8638 72.2109C90.561 71.6074 91.481 71.3057 92.6235 71.3057H96.9653V81H94.4604V77.8799Z" fill="white"/>
<path d="M46.9995 9.30957H44.0464L43.8267 12.3418C43.7505 13.4199 43.522 14.249 43.1411 14.8291V14.9873H46.9995V9.30957ZM39.7397 19.5049V14.9873H40.4868C41.0962 14.6475 41.4536 13.707 41.5591 12.166L41.8755 7.30566H49.5483V14.9873H50.9897V19.5049H48.6519V17H42.0776V19.5049H39.7397ZM56.2896 15.2246C56.8813 15.2246 57.3765 15.0576 57.7749 14.7236C58.1733 14.3896 58.3726 13.9766 58.3726 13.4844V12.7725L56.4126 12.8955C55.3228 12.9717 54.7778 13.3613 54.7778 14.0645C54.7778 14.4219 54.9185 14.7061 55.1997 14.917C55.4751 15.1221 55.8384 15.2246 56.2896 15.2246ZM55.4458 17.1494C54.5083 17.1494 53.7466 16.8857 53.1606 16.3584C52.5688 15.8193 52.2729 15.1104 52.2729 14.2314C52.2729 13.3584 52.5981 12.6699 53.2485 12.166C53.8931 11.668 54.8188 11.3838 56.0259 11.3135L58.3726 11.1729V10.3818C58.3726 9.53809 57.8276 9.11621 56.7378 9.11621C55.7886 9.11621 55.2056 9.41504 54.9888 10.0127H52.6333C52.7153 9.11621 53.1401 8.4043 53.9077 7.87695C54.6694 7.35547 55.6597 7.09473 56.8784 7.09473C58.1558 7.09473 59.146 7.38184 59.8491 7.95605C60.5464 8.53027 60.895 9.33887 60.895 10.3818V17H58.4165V15.7344H58.2583C57.7251 16.6777 56.7876 17.1494 55.4458 17.1494ZM71.0991 9.31836H68.1987V17H65.6411V9.31836H62.7407V7.30566H71.0991V9.31836ZM76.4517 15.2246C77.0435 15.2246 77.5386 15.0576 77.937 14.7236C78.3354 14.3896 78.5347 13.9766 78.5347 13.4844V12.7725L76.5747 12.8955C75.4849 12.9717 74.9399 13.3613 74.9399 14.0645C74.9399 14.4219 75.0806 14.7061 75.3618 14.917C75.6372 15.1221 76.0005 15.2246 76.4517 15.2246ZM75.6079 17.1494C74.6704 17.1494 73.9087 16.8857 73.3228 16.3584C72.731 15.8193 72.4351 15.1104 72.4351 14.2314C72.4351 13.3584 72.7603 12.6699 73.4106 12.166C74.0552 11.668 74.981 11.3838 76.188 11.3135L78.5347 11.1729V10.3818C78.5347 9.53809 77.9897 9.11621 76.8999 9.11621C75.9507 9.11621 75.3677 9.41504 75.1509 10.0127H72.7954C72.8774 9.11621 73.3022 8.4043 74.0698 7.87695C74.8315 7.35547 75.8218 7.09473 77.0405 7.09473C78.3179 7.09473 79.3081 7.38184 80.0112 7.95605C80.7085 8.53027 81.0571 9.33887 81.0571 10.3818V17H78.5786V15.7344H78.4204C77.8872 16.6777 76.9497 17.1494 75.6079 17.1494Z" fill="white"/>
<path d="M48.7397 142.505V140H40.7593V130.306H43.3169V137.987H47.061V130.306H49.6187V137.987H51.0776V142.505H48.7397ZM57.0981 132.055C56.5063 132.055 56.0171 132.245 55.6304 132.626C55.2495 133.007 55.0356 133.511 54.9888 134.138H59.1196C59.0903 133.493 58.897 132.986 58.5396 132.617C58.1763 132.242 57.6958 132.055 57.0981 132.055ZM61.5542 137.24C61.3608 138.16 60.8716 138.884 60.0864 139.411C59.2954 139.944 58.3081 140.211 57.1245 140.211C55.6479 140.211 54.4966 139.769 53.6704 138.884C52.8442 138.005 52.4312 136.777 52.4312 135.201C52.4312 133.625 52.8472 132.38 53.6792 131.466C54.5112 130.552 55.6479 130.095 57.0894 130.095C58.519 130.095 59.6323 130.525 60.4292 131.387C61.2319 132.248 61.6333 133.449 61.6333 134.99V135.772H54.98V135.904C54.9976 136.625 55.2056 137.193 55.604 137.609C55.9966 138.031 56.5269 138.242 57.1948 138.242C58.2319 138.242 58.8911 137.908 59.1724 137.24H61.5542ZM63.9448 130.306H66.5024V134.023H70.3784V130.306H72.936V140H70.3784V136.036H66.5024V140H63.9448V130.306ZM79.1411 138.225C79.7329 138.225 80.228 138.058 80.6265 137.724C81.0249 137.39 81.2241 136.977 81.2241 136.484V135.772L79.2642 135.896C78.1743 135.972 77.6294 136.361 77.6294 137.064C77.6294 137.422 77.77 137.706 78.0513 137.917C78.3267 138.122 78.6899 138.225 79.1411 138.225ZM78.2974 140.149C77.3599 140.149 76.5981 139.886 76.0122 139.358C75.4204 138.819 75.1245 138.11 75.1245 137.231C75.1245 136.358 75.4497 135.67 76.1001 135.166C76.7446 134.668 77.6704 134.384 78.8774 134.313L81.2241 134.173V133.382C81.2241 132.538 80.6792 132.116 79.5894 132.116C78.6401 132.116 78.0571 132.415 77.8403 133.013H75.4849C75.5669 132.116 75.9917 131.404 76.7593 130.877C77.521 130.355 78.5112 130.095 79.73 130.095C81.0073 130.095 81.9976 130.382 82.7007 130.956C83.3979 131.53 83.7466 132.339 83.7466 133.382V140H81.2681V138.734H81.1099C80.5767 139.678 79.6392 140.149 78.2974 140.149Z" fill="white"/>
<path d="M515.152 19.3252C513.582 19.3252 512.352 18.7363 511.461 17.5586C510.564 16.375 510.116 14.7344 510.116 12.6367C510.116 10.5449 510.564 8.91309 511.461 7.74121C512.352 6.5752 513.582 5.99219 515.152 5.99219C516.717 5.99219 517.944 6.5752 518.835 7.74121C519.737 8.91895 520.188 10.5537 520.188 12.6455C520.188 14.7373 519.74 16.375 518.844 17.5586C517.953 18.7363 516.723 19.3252 515.152 19.3252ZM515.152 17.1631C515.891 17.1631 516.465 16.7793 516.875 16.0117C517.291 15.2266 517.499 14.1016 517.499 12.6367C517.499 11.1836 517.288 10.0674 516.866 9.28809C516.462 8.53809 515.891 8.16309 515.152 8.16309C514.42 8.16309 513.849 8.54102 513.438 9.29688C513.017 10.0762 512.806 11.1895 512.806 12.6367C512.806 14.0957 513.017 15.2207 513.438 16.0117C513.843 16.7793 514.414 17.1631 515.152 17.1631ZM527.659 19.3252C525.767 19.3252 524.372 18.5605 523.476 17.0312C522.767 15.9414 522.412 14.5146 522.412 12.751C522.412 10.6475 522.881 8.99512 523.818 7.79395C524.756 6.59277 526.051 5.99219 527.703 5.99219C528.91 5.99219 529.938 6.31738 530.788 6.96777C531.644 7.61816 532.162 8.47363 532.344 9.53418H529.716C529.593 9.11816 529.347 8.78711 528.978 8.54102C528.614 8.29492 528.184 8.17188 527.686 8.17188C526.818 8.17188 526.139 8.56152 525.646 9.34082C525.148 10.1143 524.914 11.1602 524.943 12.4785H525.102C525.705 11.2305 526.783 10.6064 528.336 10.6064C529.537 10.6064 530.533 11.0049 531.324 11.8018C532.115 12.5986 532.511 13.6035 532.511 14.8164C532.511 16.1348 532.057 17.2158 531.148 18.0596C530.24 18.9033 529.077 19.3252 527.659 19.3252ZM527.633 17.1455C528.283 17.1455 528.831 16.9287 529.276 16.4951C529.716 16.0674 529.936 15.5342 529.936 14.8955C529.936 14.251 529.719 13.7148 529.285 13.2871C528.852 12.8652 528.304 12.6543 527.642 12.6543C526.979 12.6543 526.429 12.8652 525.989 13.2871C525.556 13.709 525.339 14.2363 525.339 14.8691C525.339 15.5137 525.559 16.0557 525.998 16.4951C526.438 16.9287 526.982 17.1455 527.633 17.1455ZM536.149 19.2373C535.687 19.2373 535.309 19.0938 535.016 18.8066C534.734 18.5195 534.594 18.1533 534.594 17.708C534.594 17.2627 534.734 16.8994 535.016 16.6182C535.303 16.3311 535.681 16.1875 536.149 16.1875C536.618 16.1875 536.996 16.3311 537.283 16.6182C537.564 16.8936 537.705 17.2568 537.705 17.708C537.705 18.1592 537.564 18.5254 537.283 18.8066C536.996 19.0938 536.618 19.2373 536.149 19.2373ZM544.508 19.3252C542.938 19.3252 541.707 18.7363 540.816 17.5586C539.92 16.375 539.472 14.7344 539.472 12.6367C539.472 10.5449 539.92 8.91309 540.816 7.74121C541.707 6.5752 542.938 5.99219 544.508 5.99219C546.072 5.99219 547.3 6.5752 548.19 7.74121C549.093 8.91895 549.544 10.5537 549.544 12.6455C549.544 14.7373 549.096 16.375 548.199 17.5586C547.309 18.7363 546.078 19.3252 544.508 19.3252ZM544.508 17.1631C545.246 17.1631 545.82 16.7793 546.23 16.0117C546.646 15.2266 546.854 14.1016 546.854 12.6367C546.854 11.1836 546.644 10.0674 546.222 9.28809C545.817 8.53809 545.246 8.16309 544.508 8.16309C543.775 8.16309 543.204 8.54102 542.794 9.29688C542.372 10.0762 542.161 11.1895 542.161 12.6367C542.161 14.0957 542.372 15.2207 542.794 16.0117C543.198 16.7793 543.77 17.1631 544.508 17.1631ZM557.911 8.66406V8.49707H551.627V6.30859H560.565V8.52344L555.266 19H552.488L557.911 8.66406Z" fill="white"/>
<path d="M514.152 81.3252C512.582 81.3252 511.352 80.7363 510.461 79.5586C509.564 78.375 509.116 76.7344 509.116 74.6367C509.116 72.5449 509.564 70.9131 510.461 69.7412C511.352 68.5752 512.582 67.9922 514.152 67.9922C515.717 67.9922 516.944 68.5752 517.835 69.7412C518.737 70.9189 519.188 72.5537 519.188 74.6455C519.188 76.7373 518.74 78.375 517.844 79.5586C516.953 80.7363 515.723 81.3252 514.152 81.3252ZM514.152 79.1631C514.891 79.1631 515.465 78.7793 515.875 78.0117C516.291 77.2266 516.499 76.1016 516.499 74.6367C516.499 73.1836 516.288 72.0674 515.866 71.2881C515.462 70.5381 514.891 70.1631 514.152 70.1631C513.42 70.1631 512.849 70.541 512.438 71.2969C512.017 72.0762 511.806 73.1895 511.806 74.6367C511.806 76.0957 512.017 77.2207 512.438 78.0117C512.843 78.7793 513.414 79.1631 514.152 79.1631ZM526.475 81.3252C524.904 81.3252 523.674 80.7363 522.783 79.5586C521.887 78.375 521.438 76.7344 521.438 74.6367C521.438 72.5449 521.887 70.9131 522.783 69.7412C523.674 68.5752 524.904 67.9922 526.475 67.9922C528.039 67.9922 529.267 68.5752 530.157 69.7412C531.06 70.9189 531.511 72.5537 531.511 74.6455C531.511 76.7373 531.062 78.375 530.166 79.5586C529.275 80.7363 528.045 81.3252 526.475 81.3252ZM526.475 79.1631C527.213 79.1631 527.787 78.7793 528.197 78.0117C528.613 77.2266 528.821 76.1016 528.821 74.6367C528.821 73.1836 528.61 72.0674 528.188 71.2881C527.784 70.5381 527.213 70.1631 526.475 70.1631C525.742 70.1631 525.171 70.541 524.761 71.2969C524.339 72.0762 524.128 73.1895 524.128 74.6367C524.128 76.0957 524.339 77.2207 524.761 78.0117C525.165 78.7793 525.736 79.1631 526.475 79.1631ZM534.068 78.2051C534.068 77.7363 534.212 77.3584 534.499 77.0713C534.792 76.7783 535.185 76.6318 535.677 76.6318C536.169 76.6318 536.559 76.7783 536.846 77.0713C537.133 77.3584 537.276 77.7363 537.276 78.2051C537.276 78.6738 537.133 79.0518 536.846 79.3389C536.559 79.6318 536.169 79.7783 535.677 79.7783C535.185 79.7783 534.792 79.6318 534.499 79.3389C534.212 79.0518 534.068 78.6738 534.068 78.2051ZM534.068 71.6924C534.068 71.2236 534.212 70.8428 534.499 70.5498C534.792 70.2568 535.185 70.1104 535.677 70.1104C536.169 70.1104 536.559 70.2568 536.846 70.5498C537.133 70.8369 537.276 71.2178 537.276 71.6924C537.276 72.1611 537.133 72.5391 536.846 72.8262C536.559 73.1191 536.169 73.2656 535.677 73.2656C535.185 73.2656 534.792 73.1191 534.499 72.8262C534.212 72.5391 534.068 72.1611 534.068 71.6924ZM544.879 81.3252C543.309 81.3252 542.078 80.7363 541.188 79.5586C540.291 78.375 539.843 76.7344 539.843 74.6367C539.843 72.5449 540.291 70.9131 541.188 69.7412C542.078 68.5752 543.309 67.9922 544.879 67.9922C546.443 67.9922 547.671 68.5752 548.562 69.7412C549.464 70.9189 549.915 72.5537 549.915 74.6455C549.915 76.7373 549.467 78.375 548.57 79.5586C547.68 80.7363 546.449 81.3252 544.879 81.3252ZM544.879 79.1631C545.617 79.1631 546.191 78.7793 546.602 78.0117C547.018 77.2266 547.226 76.1016 547.226 74.6367C547.226 73.1836 547.015 72.0674 546.593 71.2881C546.188 70.5381 545.617 70.1631 544.879 70.1631C544.146 70.1631 543.575 70.541 543.165 71.2969C542.743 72.0762 542.532 73.1895 542.532 74.6367C542.532 76.0957 542.743 77.2207 543.165 78.0117C543.569 78.7793 544.141 79.1631 544.879 79.1631ZM557.201 81.3252C555.631 81.3252 554.4 80.7363 553.51 79.5586C552.613 78.375 552.165 76.7344 552.165 74.6367C552.165 72.5449 552.613 70.9131 553.51 69.7412C554.4 68.5752 555.631 67.9922 557.201 67.9922C558.766 67.9922 559.993 68.5752 560.884 69.7412C561.786 70.9189 562.237 72.5537 562.237 74.6455C562.237 76.7373 561.789 78.375 560.893 79.5586C560.002 80.7363 558.771 81.3252 557.201 81.3252ZM557.201 79.1631C557.939 79.1631 558.514 78.7793 558.924 78.0117C559.34 77.2266 559.548 76.1016 559.548 74.6367C559.548 73.1836 559.337 72.0674 558.915 71.2881C558.511 70.5381 557.939 70.1631 557.201 70.1631C556.469 70.1631 555.897 70.541 555.487 71.2969C555.065 72.0762 554.854 73.1895 554.854 74.6367C554.854 76.0957 555.065 77.2207 555.487 78.0117C555.892 78.7793 556.463 79.1631 557.201 79.1631Z" fill="white"/>
<path d="M520.064 141.325C518.699 141.325 517.577 140.953 516.698 140.209C515.837 139.482 515.386 138.545 515.345 137.396H517.797C517.873 137.924 518.122 138.349 518.544 138.671C518.966 138.993 519.479 139.154 520.082 139.154C520.768 139.154 521.321 138.943 521.743 138.521C522.171 138.1 522.385 137.546 522.385 136.86C522.385 136.163 522.171 135.601 521.743 135.173C521.315 134.745 520.765 134.531 520.091 134.531C519.112 134.531 518.389 134.912 517.92 135.674H515.547L516.18 128.317H524.151V130.523H518.236L517.955 133.784H518.113C518.688 132.958 519.584 132.545 520.803 132.545C522.004 132.545 522.991 132.943 523.765 133.74C524.532 134.537 524.916 135.557 524.916 136.799C524.916 138.146 524.471 139.236 523.58 140.068C522.689 140.906 521.518 141.325 520.064 141.325ZM532.105 141.325C530.535 141.325 529.305 140.736 528.414 139.559C527.518 138.375 527.069 136.734 527.069 134.637C527.069 132.545 527.518 130.913 528.414 129.741C529.305 128.575 530.535 127.992 532.105 127.992C533.67 127.992 534.897 128.575 535.788 129.741C536.69 130.919 537.142 132.554 537.142 134.646C537.142 136.737 536.693 138.375 535.797 139.559C534.906 140.736 533.676 141.325 532.105 141.325ZM532.105 139.163C532.844 139.163 533.418 138.779 533.828 138.012C534.244 137.227 534.452 136.102 534.452 134.637C534.452 133.184 534.241 132.067 533.819 131.288C533.415 130.538 532.844 130.163 532.105 130.163C531.373 130.163 530.802 130.541 530.392 131.297C529.97 132.076 529.759 133.189 529.759 134.637C529.759 136.096 529.97 137.221 530.392 138.012C530.796 138.779 531.367 139.163 532.105 139.163ZM544.19 141.325C542.989 141.325 541.961 140.997 541.105 140.341C540.25 139.69 539.731 138.838 539.55 137.783H542.178C542.301 138.199 542.547 138.53 542.916 138.776C543.279 139.022 543.71 139.146 544.208 139.146C545.075 139.146 545.758 138.756 546.256 137.977C546.748 137.197 546.979 136.148 546.95 134.83H546.792C546.188 136.078 545.11 136.702 543.558 136.702C542.351 136.702 541.354 136.304 540.569 135.507C539.778 134.716 539.383 133.714 539.383 132.501C539.383 131.183 539.837 130.102 540.745 129.258C541.653 128.414 542.816 127.992 544.234 127.992C546.121 127.992 547.516 128.754 548.418 130.277C549.127 131.379 549.481 132.806 549.481 134.558C549.481 136.667 549.013 138.322 548.075 139.523C547.138 140.725 545.843 141.325 544.19 141.325ZM544.252 134.654C544.914 134.654 545.465 134.443 545.904 134.021C546.338 133.605 546.555 133.078 546.555 132.439C546.555 131.795 546.335 131.256 545.896 130.822C545.456 130.383 544.911 130.163 544.261 130.163C543.61 130.163 543.065 130.38 542.626 130.813C542.181 131.247 541.958 131.78 541.958 132.413C541.958 133.063 542.175 133.6 542.608 134.021C543.042 134.443 543.59 134.654 544.252 134.654ZM555.651 134.364H557.189C557.945 134.364 558.525 134.191 558.93 133.846C559.328 133.506 559.527 133.031 559.527 132.422C559.527 131.818 559.331 131.35 558.938 131.016C558.534 130.67 557.954 130.497 557.198 130.497H555.651V134.364ZM555.651 139.339V141H552.997V139.339H551.406V137.66H552.997V136.403H551.406V134.399H552.997V128.317H557.989C559.249 128.317 560.271 128.698 561.057 129.46C561.83 130.216 562.217 131.194 562.217 132.396C562.217 133.579 561.815 134.549 561.013 135.305C560.198 136.066 559.146 136.447 557.857 136.447H555.651V137.66H559.088V139.339H555.651Z" fill="white"/>
</svg>
