<svg width="1267" height="180" viewBox="0 0 1267 180" fill="none" xmlns="http://www.w3.org/2000/svg">
<g filter="url(#filter0_b)">
<rect width="1267" height="180" rx="8" fill="white" fill-opacity="0.2"/>
</g>
<path d="M43.4375 48.0938H42.875L31.8125 55.7188V46.9375L43.4688 38.9062H52.875V84H43.4375V48.0938ZM86.5938 47.25V46.6562H64.25V38.875H96.0312V46.75L77.1875 84H67.3125L86.5938 47.25ZM102.094 84.8438C100.448 84.8438 99.1042 84.3333 98.0625 83.3125C97.0625 82.2917 96.5625 80.9896 96.5625 79.4062C96.5625 77.8229 97.0625 76.5312 98.0625 75.5312C99.0833 74.5104 100.427 74 102.094 74C103.76 74 105.104 74.5104 106.125 75.5312C107.125 76.5104 107.625 77.8021 107.625 79.4062C107.625 81.0104 107.125 82.3125 106.125 83.3125C105.104 84.3333 103.76 84.8438 102.094 84.8438ZM131.812 85.1562C126.229 85.1562 121.854 83.0625 118.688 78.875C115.5 74.6667 113.906 68.8333 113.906 61.375C113.906 53.9375 115.5 48.1354 118.688 43.9688C121.854 39.8229 126.229 37.75 131.812 37.75C137.375 37.75 141.74 39.8229 144.906 43.9688C148.115 48.1562 149.719 53.9688 149.719 61.4062C149.719 68.8438 148.125 74.6667 144.938 78.875C141.771 83.0625 137.396 85.1562 131.812 85.1562ZM131.812 77.4688C134.438 77.4688 136.479 76.1042 137.938 73.375C139.417 70.5833 140.156 66.5833 140.156 61.375C140.156 56.2083 139.406 52.2396 137.906 49.4688C136.469 46.8021 134.438 45.4688 131.812 45.4688C129.208 45.4688 127.177 46.8125 125.719 49.5C124.219 52.2708 123.469 56.2292 123.469 61.375C123.469 66.5625 124.219 70.5625 125.719 73.375C127.156 76.1042 129.188 77.4688 131.812 77.4688ZM179.469 47.25V46.6562H157.125V38.875H188.906V46.75L170.062 84H160.188L179.469 47.25Z" fill="white"/>
<path d="M30.8652 141V121.857H35.6113L41.7812 135.551H42.0801L48.2676 121.857H52.873V141H49.1992V127.799H48.8652L43.2578 140.227H40.4805L34.873 127.799H34.5391V141H30.8652ZM75.6895 121.857H79.4688V141H75.6895V121.857ZM62.5938 130.893V137.818H65.9512C67.0879 137.818 68.002 137.502 68.6934 136.869C69.373 136.236 69.7129 135.398 69.7129 134.355C69.7129 133.312 69.373 132.475 68.6934 131.842C68.002 131.209 67.0879 130.893 65.9512 130.893H62.5938ZM58.8145 121.857H62.5938V127.729H66.2324C68.4473 127.729 70.2109 128.326 71.5234 129.521C72.8359 130.717 73.4922 132.328 73.4922 134.355C73.4922 136.383 72.8359 138 71.5234 139.207C70.2109 140.402 68.4473 141 66.2324 141H58.8145V121.857ZM103.252 138.012C104.881 138.012 106.146 137.432 107.049 136.271C107.939 135.123 108.385 133.506 108.385 131.42C108.385 129.346 107.939 127.729 107.049 126.568C106.146 125.42 104.881 124.846 103.252 124.846C101.611 124.846 100.346 125.42 99.4551 126.568C98.5645 127.717 98.1191 129.334 98.1191 131.42C98.1191 133.518 98.5645 135.141 99.4551 136.289C100.346 137.438 101.611 138.012 103.252 138.012ZM103.252 141.369C100.439 141.369 98.2305 140.484 96.625 138.715C95.0195 136.945 94.2168 134.514 94.2168 131.42C94.2168 128.338 95.0254 125.912 96.6426 124.143C98.248 122.373 100.451 121.488 103.252 121.488C106.041 121.488 108.238 122.373 109.844 124.143C111.461 125.912 112.27 128.338 112.27 131.42C112.27 134.514 111.467 136.945 109.861 138.715C108.256 140.484 106.053 141.369 103.252 141.369ZM128.494 141V132.598H128.195C126.883 133.887 125.207 134.531 123.168 134.531C121.117 134.531 119.494 133.898 118.299 132.633C117.127 131.379 116.541 129.691 116.541 127.57V121.857H120.32V127.236C120.32 128.432 120.637 129.369 121.27 130.049C121.902 130.74 122.775 131.086 123.889 131.086C125.986 131.086 127.521 130.359 128.494 128.906V121.857H132.273V141H128.494ZM145.984 124.705C144.59 124.705 143.441 125.156 142.539 126.059C141.637 126.961 141.133 128.162 141.027 129.662H150.695C150.648 128.15 150.203 126.949 149.359 126.059C148.504 125.156 147.379 124.705 145.984 124.705ZM154.316 135.832C153.883 137.555 152.939 138.908 151.486 139.893C150.021 140.877 148.199 141.369 146.02 141.369C143.277 141.369 141.121 140.484 139.551 138.715C137.969 136.957 137.178 134.549 137.178 131.49C137.178 128.432 137.975 126 139.568 124.195C141.162 122.391 143.307 121.488 146.002 121.488C148.662 121.488 150.754 122.344 152.277 124.055C153.789 125.766 154.545 128.127 154.545 131.139V132.457H141.027V132.668C141.086 134.355 141.572 135.691 142.486 136.676C143.4 137.66 144.613 138.152 146.125 138.152C148.434 138.152 149.951 137.379 150.678 135.832H154.316ZM159.432 121.857H163.211V129.521H172.176V121.857H175.955V141H172.176V132.703H163.211V141H159.432V121.857ZM185.5 130.893V137.818H188.857C189.994 137.818 190.908 137.502 191.6 136.869C192.279 136.236 192.619 135.398 192.619 134.355C192.619 133.312 192.279 132.475 191.6 131.842C190.908 131.209 189.994 130.893 188.857 130.893H185.5ZM181.721 121.857H185.5V127.729H189.139C191.354 127.729 193.117 128.326 194.43 129.521C195.742 130.717 196.398 132.328 196.398 134.355C196.398 136.383 195.742 138 194.43 139.207C193.117 140.402 191.354 141 189.139 141H181.721V121.857ZM221.166 131.402V125.039H217.738C216.59 125.039 215.682 125.332 215.014 125.918C214.334 126.504 213.994 127.301 213.994 128.309C213.994 129.223 214.334 129.967 215.014 130.541C215.705 131.115 216.613 131.402 217.738 131.402H221.166ZM221.166 134.443H218.318L213.678 141H209.283L214.504 133.758C213.18 133.383 212.143 132.715 211.393 131.754C210.631 130.781 210.25 129.639 210.25 128.326C210.25 126.346 210.912 124.77 212.236 123.598C213.561 122.438 215.33 121.857 217.545 121.857H224.893V141H221.166V134.443ZM242.91 125.039H236.178L235.65 132.246C235.451 134.648 234.953 136.406 234.156 137.52V137.818H242.91V125.039ZM228.426 146.01V137.818H229.973C231.238 137.045 231.977 135.123 232.188 132.053L232.891 121.857H246.672V137.818H249.66V146.01H246.145V141H231.941V146.01H228.426ZM261.631 138.012C263.26 138.012 264.525 137.432 265.428 136.271C266.318 135.123 266.764 133.506 266.764 131.42C266.764 129.346 266.318 127.729 265.428 126.568C264.525 125.42 263.26 124.846 261.631 124.846C259.99 124.846 258.725 125.42 257.834 126.568C256.943 127.717 256.498 129.334 256.498 131.42C256.498 133.518 256.943 135.141 257.834 136.289C258.725 137.438 259.99 138.012 261.631 138.012ZM261.631 141.369C258.818 141.369 256.609 140.484 255.004 138.715C253.398 136.945 252.596 134.514 252.596 131.42C252.596 128.338 253.404 125.912 255.021 124.143C256.627 122.373 258.83 121.488 261.631 121.488C264.42 121.488 266.617 122.373 268.223 124.143C269.84 125.912 270.648 128.338 270.648 131.42C270.648 134.514 269.846 136.945 268.24 138.715C266.635 140.484 264.432 141.369 261.631 141.369ZM279.297 124.758V129.715H283.111C285.361 129.715 286.486 128.883 286.486 127.219C286.486 125.578 285.502 124.758 283.533 124.758H279.297ZM279.297 132.492V138.1H283.85C286.135 138.1 287.277 137.168 287.277 135.305C287.277 133.43 285.977 132.492 283.375 132.492H279.297ZM275.553 121.857H284.254C286.117 121.857 287.576 122.297 288.631 123.176C289.674 124.043 290.195 125.227 290.195 126.727C290.195 127.699 289.891 128.572 289.281 129.346C288.66 130.119 287.887 130.594 286.961 130.77V131.068C288.191 131.209 289.182 131.689 289.932 132.51C290.682 133.318 291.057 134.309 291.057 135.48C291.057 137.168 290.465 138.504 289.281 139.488C288.074 140.496 286.428 141 284.342 141H275.553V121.857ZM296.049 141V121.857H299.793V135.023H300.092L309.074 121.857H312.818V141H309.074V127.764H308.775L299.793 141H296.049ZM332.875 125.039H326.846V141H323.066V125.039H317.037V121.857H332.875V125.039ZM354.127 121.857H357.906V141H354.127V121.857ZM341.031 130.893V137.818H344.389C345.525 137.818 346.439 137.502 347.131 136.869C347.811 136.236 348.15 135.398 348.15 134.355C348.15 133.312 347.811 132.475 347.131 131.842C346.439 131.209 345.525 130.893 344.389 130.893H341.031ZM337.252 121.857H341.031V127.729H344.67C346.885 127.729 348.648 128.326 349.961 129.521C351.273 130.717 351.93 132.328 351.93 134.355C351.93 136.383 351.273 138 349.961 139.207C348.648 140.402 346.885 141 344.67 141H337.252V121.857Z" fill="white"/>
<defs>
<filter id="filter0_b" x="-20" y="-20" width="1307" height="220" filterUnits="userSpaceOnUse" color-interpolation-filters="sRGB">
<feFlood flood-opacity="0" result="BackgroundImageFix"/>
<feGaussianBlur in="BackgroundImage" stdDeviation="10"/>
<feComposite in2="SourceAlpha" operator="in" result="effect1_backgroundBlur"/>
<feBlend mode="normal" in="SourceGraphic" in2="effect1_backgroundBlur" result="shape"/>
</filter>
</defs>
</svg>
