<svg width="1267" height="180" viewBox="0 0 1267 180" fill="none" xmlns="http://www.w3.org/2000/svg">
<g filter="url(#filter0_b)">
<rect width="1267" height="180" rx="8" fill="white" fill-opacity="0.2"/>
</g>
<path d="M50.875 85.1562C45.2917 85.1562 40.9167 83.0625 37.75 78.875C34.5625 74.6667 32.9688 68.8333 32.9688 61.375C32.9688 53.9375 34.5625 48.1354 37.75 43.9688C40.9167 39.8229 45.2917 37.75 50.875 37.75C56.4375 37.75 60.8021 39.8229 63.9688 43.9688C67.1771 48.1562 68.7812 53.9688 68.7812 61.4062C68.7812 68.8438 67.1875 74.6667 64 78.875C60.8333 83.0625 56.4583 85.1562 50.875 85.1562ZM50.875 77.4688C53.5 77.4688 55.5417 76.1042 57 73.375C58.4792 70.5833 59.2188 66.5833 59.2188 61.375C59.2188 56.2083 58.4688 52.2396 56.9688 49.4688C55.5312 46.8021 53.5 45.4688 50.875 45.4688C48.2708 45.4688 46.2396 46.8125 44.7812 49.5C43.2812 52.2708 42.5312 56.2292 42.5312 61.375C42.5312 66.5625 43.2812 70.5625 44.7812 73.375C46.2188 76.1042 48.25 77.4688 50.875 77.4688ZM95.3438 85.1562C88.6146 85.1562 83.6562 82.4375 80.4688 77C77.9479 73.125 76.6875 68.0521 76.6875 61.7812C76.6875 54.3021 78.3542 48.4271 81.6875 44.1562C85.0208 39.8854 89.625 37.75 95.5 37.75C99.7917 37.75 103.448 38.9062 106.469 41.2188C109.51 43.5312 111.354 46.5729 112 50.3438H102.656C102.219 48.8646 101.344 47.6875 100.031 46.8125C98.7396 45.9375 97.2083 45.5 95.4375 45.5C92.3542 45.5 89.9375 46.8854 88.1875 49.6562C86.4167 52.4062 85.5833 56.125 85.6875 60.8125H86.25C88.3958 56.375 92.2292 54.1562 97.75 54.1562C102.021 54.1562 105.562 55.5729 108.375 58.4062C111.188 61.2396 112.594 64.8125 112.594 69.125C112.594 73.8125 110.979 77.6562 107.75 80.6562C104.521 83.6562 100.385 85.1562 95.3438 85.1562ZM95.25 77.4062C97.5625 77.4062 99.5104 76.6354 101.094 75.0938C102.656 73.5729 103.438 71.6771 103.438 69.4062C103.438 67.1146 102.667 65.2083 101.125 63.6875C99.5833 62.1875 97.6354 61.4375 95.2812 61.4375C92.9271 61.4375 90.9688 62.1875 89.4062 63.6875C87.8646 65.1875 87.0938 67.0625 87.0938 69.3125C87.0938 71.6042 87.875 73.5312 89.4375 75.0938C91 76.6354 92.9375 77.4062 95.25 77.4062ZM125.531 84.8438C123.885 84.8438 122.542 84.3333 121.5 83.3125C120.5 82.2917 120 80.9896 120 79.4062C120 77.8229 120.5 76.5312 121.5 75.5312C122.521 74.5104 123.865 74 125.531 74C127.198 74 128.542 74.5104 129.562 75.5312C130.562 76.5104 131.062 77.8021 131.062 79.4062C131.062 81.0104 130.562 82.3125 129.562 83.3125C128.542 84.3333 127.198 84.8438 125.531 84.8438ZM155.25 85.1562C149.667 85.1562 145.292 83.0625 142.125 78.875C138.938 74.6667 137.344 68.8333 137.344 61.375C137.344 53.9375 138.938 48.1354 142.125 43.9688C145.292 39.8229 149.667 37.75 155.25 37.75C160.812 37.75 165.177 39.8229 168.344 43.9688C171.552 48.1562 173.156 53.9688 173.156 61.4062C173.156 68.8438 171.562 74.6667 168.375 78.875C165.208 83.0625 160.833 85.1562 155.25 85.1562ZM155.25 77.4688C157.875 77.4688 159.917 76.1042 161.375 73.375C162.854 70.5833 163.594 66.5833 163.594 61.375C163.594 56.2083 162.844 52.2396 161.344 49.4688C159.906 46.8021 157.875 45.4688 155.25 45.4688C152.646 45.4688 150.615 46.8125 149.156 49.5C147.656 52.2708 146.906 56.2292 146.906 61.375C146.906 66.5625 147.656 70.5625 149.156 73.375C150.594 76.1042 152.625 77.4688 155.25 77.4688ZM202.906 47.25V46.6562H180.562V38.875H212.344V46.75L193.5 84H183.625L202.906 47.25Z" fill="white"/>
<path d="M31.8652 141V121.857H36.6113L42.7812 135.551H43.0801L49.2676 121.857H53.873V141H50.1992V127.799H49.8652L44.2578 140.227H41.4805L35.873 127.799H35.5391V141H31.8652ZM76.6895 121.857H80.4688V141H76.6895V121.857ZM63.5938 130.893V137.818H66.9512C68.0879 137.818 69.002 137.502 69.6934 136.869C70.373 136.236 70.7129 135.398 70.7129 134.355C70.7129 133.312 70.373 132.475 69.6934 131.842C69.002 131.209 68.0879 130.893 66.9512 130.893H63.5938ZM59.8145 121.857H63.5938V127.729H67.2324C69.4473 127.729 71.2109 128.326 72.5234 129.521C73.8359 130.717 74.4922 132.328 74.4922 134.355C74.4922 136.383 73.8359 138 72.5234 139.207C71.2109 140.402 69.4473 141 67.2324 141H59.8145V121.857ZM104.252 138.012C105.881 138.012 107.146 137.432 108.049 136.271C108.939 135.123 109.385 133.506 109.385 131.42C109.385 129.346 108.939 127.729 108.049 126.568C107.146 125.42 105.881 124.846 104.252 124.846C102.611 124.846 101.346 125.42 100.455 126.568C99.5645 127.717 99.1191 129.334 99.1191 131.42C99.1191 133.518 99.5645 135.141 100.455 136.289C101.346 137.438 102.611 138.012 104.252 138.012ZM104.252 141.369C101.439 141.369 99.2305 140.484 97.625 138.715C96.0195 136.945 95.2168 134.514 95.2168 131.42C95.2168 128.338 96.0254 125.912 97.6426 124.143C99.248 122.373 101.451 121.488 104.252 121.488C107.041 121.488 109.238 122.373 110.844 124.143C112.461 125.912 113.27 128.338 113.27 131.42C113.27 134.514 112.467 136.945 110.861 138.715C109.256 140.484 107.053 141.369 104.252 141.369ZM129.494 141V132.598H129.195C127.883 133.887 126.207 134.531 124.168 134.531C122.117 134.531 120.494 133.898 119.299 132.633C118.127 131.379 117.541 129.691 117.541 127.57V121.857H121.32V127.236C121.32 128.432 121.637 129.369 122.27 130.049C122.902 130.74 123.775 131.086 124.889 131.086C126.986 131.086 128.521 130.359 129.494 128.906V121.857H133.273V141H129.494ZM146.984 124.705C145.59 124.705 144.441 125.156 143.539 126.059C142.637 126.961 142.133 128.162 142.027 129.662H151.695C151.648 128.15 151.203 126.949 150.359 126.059C149.504 125.156 148.379 124.705 146.984 124.705ZM155.316 135.832C154.883 137.555 153.939 138.908 152.486 139.893C151.021 140.877 149.199 141.369 147.02 141.369C144.277 141.369 142.121 140.484 140.551 138.715C138.969 136.957 138.178 134.549 138.178 131.49C138.178 128.432 138.975 126 140.568 124.195C142.162 122.391 144.307 121.488 147.002 121.488C149.662 121.488 151.754 122.344 153.277 124.055C154.789 125.766 155.545 128.127 155.545 131.139V132.457H142.027V132.668C142.086 134.355 142.572 135.691 143.486 136.676C144.4 137.66 145.613 138.152 147.125 138.152C149.434 138.152 150.951 137.379 151.678 135.832H155.316ZM160.432 121.857H164.211V129.521H173.176V121.857H176.955V141H173.176V132.703H164.211V141H160.432V121.857ZM186.5 130.893V137.818H189.857C190.994 137.818 191.908 137.502 192.6 136.869C193.279 136.236 193.619 135.398 193.619 134.355C193.619 133.312 193.279 132.475 192.6 131.842C191.908 131.209 190.994 130.893 189.857 130.893H186.5ZM182.721 121.857H186.5V127.729H190.139C192.354 127.729 194.117 128.326 195.43 129.521C196.742 130.717 197.398 132.328 197.398 134.355C197.398 136.383 196.742 138 195.43 139.207C194.117 140.402 192.354 141 190.139 141H182.721V121.857ZM222.166 131.402V125.039H218.738C217.59 125.039 216.682 125.332 216.014 125.918C215.334 126.504 214.994 127.301 214.994 128.309C214.994 129.223 215.334 129.967 216.014 130.541C216.705 131.115 217.613 131.402 218.738 131.402H222.166ZM222.166 134.443H219.318L214.678 141H210.283L215.504 133.758C214.18 133.383 213.143 132.715 212.393 131.754C211.631 130.781 211.25 129.639 211.25 128.326C211.25 126.346 211.912 124.77 213.236 123.598C214.561 122.438 216.33 121.857 218.545 121.857H225.893V141H222.166V134.443ZM243.91 125.039H237.178L236.65 132.246C236.451 134.648 235.953 136.406 235.156 137.52V137.818H243.91V125.039ZM229.426 146.01V137.818H230.973C232.238 137.045 232.977 135.123 233.188 132.053L233.891 121.857H247.672V137.818H250.66V146.01H247.145V141H232.941V146.01H229.426ZM262.631 138.012C264.26 138.012 265.525 137.432 266.428 136.271C267.318 135.123 267.764 133.506 267.764 131.42C267.764 129.346 267.318 127.729 266.428 126.568C265.525 125.42 264.26 124.846 262.631 124.846C260.99 124.846 259.725 125.42 258.834 126.568C257.943 127.717 257.498 129.334 257.498 131.42C257.498 133.518 257.943 135.141 258.834 136.289C259.725 137.438 260.99 138.012 262.631 138.012ZM262.631 141.369C259.818 141.369 257.609 140.484 256.004 138.715C254.398 136.945 253.596 134.514 253.596 131.42C253.596 128.338 254.404 125.912 256.021 124.143C257.627 122.373 259.83 121.488 262.631 121.488C265.42 121.488 267.617 122.373 269.223 124.143C270.84 125.912 271.648 128.338 271.648 131.42C271.648 134.514 270.846 136.945 269.24 138.715C267.635 140.484 265.432 141.369 262.631 141.369ZM280.297 124.758V129.715H284.111C286.361 129.715 287.486 128.883 287.486 127.219C287.486 125.578 286.502 124.758 284.533 124.758H280.297ZM280.297 132.492V138.1H284.85C287.135 138.1 288.277 137.168 288.277 135.305C288.277 133.43 286.977 132.492 284.375 132.492H280.297ZM276.553 121.857H285.254C287.117 121.857 288.576 122.297 289.631 123.176C290.674 124.043 291.195 125.227 291.195 126.727C291.195 127.699 290.891 128.572 290.281 129.346C289.66 130.119 288.887 130.594 287.961 130.77V131.068C289.191 131.209 290.182 131.689 290.932 132.51C291.682 133.318 292.057 134.309 292.057 135.48C292.057 137.168 291.465 138.504 290.281 139.488C289.074 140.496 287.428 141 285.342 141H276.553V121.857ZM297.049 141V121.857H300.793V135.023H301.092L310.074 121.857H313.818V141H310.074V127.764H309.775L300.793 141H297.049ZM333.875 125.039H327.846V141H324.066V125.039H318.037V121.857H333.875V125.039ZM355.127 121.857H358.906V141H355.127V121.857ZM342.031 130.893V137.818H345.389C346.525 137.818 347.439 137.502 348.131 136.869C348.811 136.236 349.15 135.398 349.15 134.355C349.15 133.312 348.811 132.475 348.131 131.842C347.439 131.209 346.525 130.893 345.389 130.893H342.031ZM338.252 121.857H342.031V127.729H345.67C347.885 127.729 349.648 128.326 350.961 129.521C352.273 130.717 352.93 132.328 352.93 134.355C352.93 136.383 352.273 138 350.961 139.207C349.648 140.402 347.885 141 345.67 141H338.252V121.857Z" fill="white"/>
<defs>
<filter id="filter0_b" x="-20" y="-20" width="1307" height="220" filterUnits="userSpaceOnUse" color-interpolation-filters="sRGB">
<feFlood flood-opacity="0" result="BackgroundImageFix"/>
<feGaussianBlur in="BackgroundImage" stdDeviation="10"/>
<feComposite in2="SourceAlpha" operator="in" result="effect1_backgroundBlur"/>
<feBlend mode="normal" in="SourceGraphic" in2="effect1_backgroundBlur" result="shape"/>
</filter>
</defs>
</svg>
