<svg width="310" height="310" viewBox="0 0 310 310" fill="none" xmlns="http://www.w3.org/2000/svg">
<g filter="url(#filter0_b)">
<rect width="310" height="310" rx="8" fill="white" fill-opacity="0.2"/>
</g>
<path d="M102.827 48V26.8623H105.889L113.125 44.3525H113.359L120.596 26.8623H123.657V48H121.196V31.8574H121.021L114.355 47.8535H112.129L105.464 31.8574H105.288V48H102.827ZM141.177 29.2354H136.665C135.151 29.2354 133.979 29.5918 133.149 30.3047C132.329 31.0176 131.919 32.0332 131.919 33.3516C131.919 34.6797 132.334 35.7002 133.164 36.4131C133.984 37.1357 135.151 37.4971 136.665 37.4971H141.177V29.2354ZM131.245 48H128.11L134.175 39.5479C132.671 39.1963 131.47 38.4688 130.571 37.3652C129.663 36.252 129.209 34.9141 129.209 33.3516C129.209 31.4375 129.839 29.8799 131.099 28.6787C132.368 27.4678 133.994 26.8623 135.977 26.8623H143.813V48H141.177V39.8701H137.075L131.245 48ZM154.99 48V29.2354H148.179V26.8623H164.438V29.2354H157.627V48H154.99ZM170.737 48.1465C170.21 48.1465 169.819 48.083 169.565 47.9561V45.583C169.878 45.6611 170.269 45.7002 170.737 45.7002C172.251 45.7002 173.403 44.9629 174.194 43.4883L166.973 26.8623H169.785L175.454 40.5586H175.688L181.226 26.8623H183.965L177.49 41.9502C176.543 44.1572 175.649 45.6904 174.81 46.5498C173.765 47.6143 172.407 48.1465 170.737 48.1465ZM202.202 48V38.376H190.601V48H187.964V26.8623H190.601V36.0029H202.202V26.8623H204.839V48H202.202Z" fill="white"/>
<path d="M39.5977 279.496H31.3594V277.574C32.9062 274.824 35.3203 270.996 38.6016 266.09H41.6602V277.609H44.0625V279.496H41.6602V283H39.5977V279.496ZM33.5156 277.621H39.6094V268.047H39.4688C37.6406 270.703 35.6562 273.848 33.5156 277.48V277.621ZM52.8984 283.398C51.2969 283.398 49.9727 282.945 48.9258 282.039C47.8789 281.141 47.3086 279.961 47.2148 278.5H49.2891C49.3828 279.414 49.7617 280.148 50.4258 280.703C51.0977 281.266 51.9297 281.547 52.9219 281.547C54.0547 281.547 54.9648 281.191 55.6523 280.48C56.3477 279.77 56.6953 278.836 56.6953 277.68C56.6953 276.523 56.3477 275.582 55.6523 274.855C54.9648 274.137 54.0664 273.777 52.957 273.777C51.3555 273.777 50.1914 274.41 49.4648 275.676H47.4844L48.4102 266.09H57.8438V267.977H50.0625L49.582 273.402H49.7695C50.5898 272.441 51.7812 271.961 53.3438 271.961C54.9531 271.961 56.2656 272.488 57.2812 273.543C58.2969 274.598 58.8047 275.957 58.8047 277.621C58.8047 279.34 58.2578 280.73 57.1641 281.793C56.0703 282.863 54.6484 283.398 52.8984 283.398ZM67.7578 283.398C66.1562 283.398 64.832 282.945 63.7852 282.039C62.7383 281.141 62.168 279.961 62.0742 278.5H64.1484C64.2422 279.414 64.6211 280.148 65.2852 280.703C65.957 281.266 66.7891 281.547 67.7812 281.547C68.9141 281.547 69.8242 281.191 70.5117 280.48C71.207 279.77 71.5547 278.836 71.5547 277.68C71.5547 276.523 71.207 275.582 70.5117 274.855C69.8242 274.137 68.9258 273.777 67.8164 273.777C66.2148 273.777 65.0508 274.41 64.3242 275.676H62.3438L63.2695 266.09H72.7031V267.977H64.9219L64.4414 273.402H64.6289C65.4492 272.441 66.6406 271.961 68.2031 271.961C69.8125 271.961 71.125 272.488 72.1406 273.543C73.1562 274.598 73.6641 275.957 73.6641 277.621C73.6641 279.34 73.1172 280.73 72.0234 281.793C70.9297 282.863 69.5078 283.398 67.7578 283.398ZM80.9297 274.621H83.625C84.8047 274.621 85.707 274.32 86.332 273.719C86.9258 273.141 87.2227 272.328 87.2227 271.281C87.2227 270.242 86.9258 269.438 86.332 268.867C85.7148 268.266 84.8125 267.965 83.625 267.965H80.9297V274.621ZM80.9297 280.305V283H78.8203V280.305H76.4766V278.711H78.8203V276.449H76.4766V274.621H78.8203V266.09H84.1758C85.7383 266.09 87.0039 266.586 87.9727 267.578C88.918 268.539 89.3906 269.773 89.3906 271.281C89.3906 272.789 88.9141 274.023 87.9609 274.984C86.9922 275.961 85.7227 276.449 84.1523 276.449H80.9297V278.711H85.793V280.305H80.9297Z" fill="white"/>
<path d="M36.0752 93.3203C35.9229 92.7578 35.6152 92.3037 35.1523 91.958C34.6602 91.5947 34.0625 91.4131 33.3594 91.4131C32.416 91.4131 31.6689 91.7588 31.1182 92.4502C30.5615 93.1416 30.2832 94.0703 30.2832 95.2363C30.2832 96.4199 30.5615 97.3604 31.1182 98.0576C31.6748 98.7607 32.4219 99.1123 33.3594 99.1123C34.0625 99.1123 34.6514 98.9512 35.126 98.6289C35.6064 98.3066 35.9199 97.8555 36.0664 97.2754H37.2354C37.0889 98.1426 36.6787 98.834 36.0049 99.3496C35.3076 99.8887 34.4287 100.158 33.3682 100.158C32.0615 100.158 31.0244 99.7129 30.2568 98.8223C29.4834 97.9375 29.0967 96.7422 29.0967 95.2363C29.0967 93.7539 29.4805 92.5732 30.248 91.6943C31.0215 90.8154 32.0586 90.376 33.3594 90.376C34.4141 90.376 35.2988 90.6602 36.0137 91.2285C36.6875 91.7676 37.0977 92.4648 37.2441 93.3203H36.0752ZM40.9619 91.5098V94.6211H43.3262C43.9824 94.6211 44.4863 94.4805 44.8379 94.1992C45.1777 93.9238 45.3477 93.5312 45.3477 93.0215C45.3477 92.5527 45.1924 92.1865 44.8818 91.9229C44.5596 91.6475 44.1025 91.5098 43.5107 91.5098H40.9619ZM40.9619 95.5967V99.0244H43.6514C45.0811 99.0244 45.7959 98.4473 45.7959 97.293C45.7959 96.1621 45.0049 95.5967 43.4229 95.5967H40.9619ZM39.8105 90.5342H43.6426C44.5273 90.5342 45.2246 90.748 45.7344 91.1758C46.2324 91.6035 46.4814 92.1836 46.4814 92.916C46.4814 93.4258 46.3262 93.877 46.0156 94.2695C45.7051 94.6562 45.3066 94.8965 44.8203 94.9902V95.1045C45.4414 95.1748 45.9453 95.4092 46.332 95.8076C46.7363 96.2119 46.9385 96.7129 46.9385 97.3105C46.9385 98.1543 46.6543 98.8135 46.0859 99.2881C45.5117 99.7627 44.709 100 43.6777 100H39.8105V90.5342ZM53.3193 91.3955C52.458 91.3955 51.752 91.6885 51.2012 92.2744C50.6504 92.8662 50.3486 93.6484 50.2959 94.6211H56.1934C56.1816 93.6426 55.915 92.8604 55.3936 92.2744C54.8662 91.6885 54.1748 91.3955 53.3193 91.3955ZM57.248 97.6621C57.0137 98.4355 56.5508 99.0449 55.8594 99.4902C55.168 99.9355 54.3271 100.158 53.3369 100.158C52.0361 100.158 51.0049 99.7158 50.2432 98.8311C49.4814 97.9521 49.1006 96.7656 49.1006 95.2715C49.1006 93.7832 49.4844 92.5967 50.252 91.7119C51.0137 90.8213 52.0391 90.376 53.3281 90.376C54.5879 90.376 55.5811 90.7949 56.3076 91.6328C57.0342 92.4707 57.3975 93.6133 57.3975 95.0605V95.5703H50.2871V95.623C50.3164 96.6953 50.6094 97.5479 51.166 98.1807C51.7168 98.8135 52.4492 99.1299 53.3633 99.1299C54.752 99.1299 55.6572 98.6406 56.0791 97.6621H57.248ZM63.2246 95.0869L58.9883 90.5342H60.4033L64.1475 94.7002H64.5693V90.5342H65.7031V94.7002H66.1162L69.8604 90.5342H71.2666L67.0479 95.0605L71.4863 100H70.0098L66.1162 95.5879H65.7031V100H64.5693V95.5879H64.1475L60.2627 100H58.8037L63.2246 95.0869ZM76.3555 99.1387C77.2051 99.1387 77.9141 98.8838 78.4824 98.374C79.0566 97.8584 79.3438 97.2256 79.3438 96.4756V95.3682L76.54 95.5703C74.9521 95.6816 74.1582 96.2793 74.1582 97.3633C74.1582 97.9023 74.3662 98.333 74.7822 98.6553C75.1865 98.9775 75.7109 99.1387 76.3555 99.1387ZM76.1621 100.158C75.2246 100.158 74.46 99.9062 73.8682 99.4023C73.2705 98.8926 72.9717 98.2188 72.9717 97.3809C72.9717 96.5605 73.2676 95.9131 73.8594 95.4385C74.4395 94.9697 75.2803 94.6973 76.3818 94.6211L79.3438 94.4277V93.5137C79.3438 92.834 79.1445 92.3125 78.7461 91.9492C78.3418 91.5859 77.7559 91.4043 76.9883 91.4043C76.3379 91.4043 75.793 91.5332 75.3535 91.791C74.9082 92.0547 74.6299 92.415 74.5186 92.8721H73.3496C73.4609 92.1221 73.8535 91.5186 74.5273 91.0615C75.1953 90.6045 76.0273 90.376 77.0234 90.376C78.1309 90.376 78.9893 90.6514 79.5986 91.2021C80.2021 91.7471 80.5039 92.5146 80.5039 93.5049V100H79.3965V98.374H79.291C79.0039 98.9365 78.585 99.373 78.0342 99.6836C77.4834 100 76.8594 100.158 76.1621 100.158ZM88.959 95.4473V91.5098H86.8848C86.1875 91.5098 85.6338 91.6885 85.2236 92.0459C84.8135 92.4092 84.6084 92.9014 84.6084 93.5225C84.6084 94.0967 84.8164 94.5596 85.2324 94.9111C85.6484 95.2686 86.1992 95.4473 86.8848 95.4473H88.959ZM88.959 96.4229H87.0342L84.459 100H83.0791L85.8125 96.2295C85.0801 96.0771 84.5059 95.7666 84.0898 95.2979C83.668 94.8232 83.457 94.2402 83.457 93.5488C83.457 92.6172 83.7676 91.8818 84.3887 91.3428C85.0039 90.8037 85.8359 90.5342 86.8848 90.5342H90.1104V100H88.959V96.4229ZM98.1172 100V90.5342H99.5059L103.224 98.4004H103.329L107.029 90.5342H108.365V100H107.214V92.6436H107.082L103.707 99.8154H102.802L99.3916 92.6436H99.2686V100H98.1172ZM116.715 95.4473V91.5098H114.641C113.943 91.5098 113.39 91.6885 112.979 92.0459C112.569 92.4092 112.364 92.9014 112.364 93.5225C112.364 94.0967 112.572 94.5596 112.988 94.9111C113.404 95.2686 113.955 95.4473 114.641 95.4473H116.715ZM116.715 96.4229H114.79L112.215 100H110.835L113.568 96.2295C112.836 96.0771 112.262 95.7666 111.846 95.2979C111.424 94.8232 111.213 94.2402 111.213 93.5488C111.213 92.6172 111.523 91.8818 112.145 91.3428C112.76 90.8037 113.592 90.5342 114.641 90.5342H117.866V100H116.715V96.4229ZM127.789 91.5098H124.555V100H123.403V91.5098H120.169V90.5342H127.789V91.5098ZM132.764 99.1387C133.613 99.1387 134.322 98.8838 134.891 98.374C135.465 97.8584 135.752 97.2256 135.752 96.4756V95.3682L132.948 95.5703C131.36 95.6816 130.566 96.2793 130.566 97.3633C130.566 97.9023 130.774 98.333 131.19 98.6553C131.595 98.9775 132.119 99.1387 132.764 99.1387ZM132.57 100.158C131.633 100.158 130.868 99.9062 130.276 99.4023C129.679 98.8926 129.38 98.2188 129.38 97.3809C129.38 96.5605 129.676 95.9131 130.268 95.4385C130.848 94.9697 131.688 94.6973 132.79 94.6211L135.752 94.4277V93.5137C135.752 92.834 135.553 92.3125 135.154 91.9492C134.75 91.5859 134.164 91.4043 133.396 91.4043C132.746 91.4043 132.201 91.5332 131.762 91.791C131.316 92.0547 131.038 92.415 130.927 92.8721H129.758C129.869 92.1221 130.262 91.5186 130.936 91.0615C131.604 90.6045 132.436 90.376 133.432 90.376C134.539 90.376 135.397 90.6514 136.007 91.2021C136.61 91.7471 136.912 92.5146 136.912 93.5049V100H135.805V98.374H135.699C135.412 98.9365 134.993 99.373 134.442 99.6836C133.892 100 133.268 100.158 132.57 100.158Z" fill="white"/>
<path d="M30.7139 121.51V124.621H33.0781C33.7344 124.621 34.2383 124.48 34.5898 124.199C34.9297 123.924 35.0996 123.531 35.0996 123.021C35.0996 122.553 34.9443 122.187 34.6338 121.923C34.3115 121.647 33.8545 121.51 33.2627 121.51H30.7139ZM30.7139 125.597V129.024H33.4033C34.833 129.024 35.5479 128.447 35.5479 127.293C35.5479 126.162 34.7568 125.597 33.1748 125.597H30.7139ZM29.5625 120.534H33.3945C34.2793 120.534 34.9766 120.748 35.4863 121.176C35.9844 121.604 36.2334 122.184 36.2334 122.916C36.2334 123.426 36.0781 123.877 35.7676 124.27C35.457 124.656 35.0586 124.896 34.5723 124.99V125.104C35.1934 125.175 35.6973 125.409 36.084 125.808C36.4883 126.212 36.6904 126.713 36.6904 127.311C36.6904 128.154 36.4062 128.813 35.8379 129.288C35.2637 129.763 34.4609 130 33.4297 130H29.5625V120.534ZM43.1504 129.112C44.123 129.112 44.8848 128.77 45.4355 128.084C45.9863 127.404 46.2617 126.464 46.2617 125.263C46.2617 124.062 45.9863 123.121 45.4355 122.441C44.8848 121.756 44.123 121.413 43.1504 121.413C42.1777 121.413 41.416 121.756 40.8652 122.441C40.3145 123.121 40.0391 124.062 40.0391 125.263C40.0391 126.464 40.3145 127.404 40.8652 128.084C41.416 128.77 42.1777 129.112 43.1504 129.112ZM43.1504 130.158C41.8262 130.158 40.7803 129.719 40.0127 128.84C39.2393 127.967 38.8525 126.774 38.8525 125.263C38.8525 123.751 39.2393 122.559 40.0127 121.686C40.7803 120.812 41.8262 120.376 43.1504 120.376C44.4746 120.376 45.5234 120.812 46.2969 121.686C47.0703 122.559 47.457 123.751 47.457 125.263C47.457 126.774 47.0703 127.967 46.2969 128.84C45.5234 129.719 44.4746 130.158 43.1504 130.158ZM56.29 121.51H52.1855C52.0977 123.186 51.9893 124.659 51.8604 125.931C51.7373 127.39 51.4531 128.386 51.0078 128.919V129.024H56.29V121.51ZM48.8633 132.505V129.024H49.6279C50.2607 128.614 50.6445 127.568 50.7793 125.887C50.8145 125.541 50.9404 123.757 51.1572 120.534H57.4414V129.024H58.9707V132.505H57.8809V130H49.9531V132.505H48.8633ZM62.6182 124.683L66.8281 120.534H68.252L63.585 125.078L68.4629 130H66.9424L62.6182 125.605H62.249V130H61.0977V120.534H62.249V124.683H62.6182ZM73.2969 129.139C74.1465 129.139 74.8555 128.884 75.4238 128.374C75.998 127.858 76.2852 127.226 76.2852 126.476V125.368L73.4814 125.57C71.8936 125.682 71.0996 126.279 71.0996 127.363C71.0996 127.902 71.3076 128.333 71.7236 128.655C72.1279 128.978 72.6523 129.139 73.2969 129.139ZM73.1035 130.158C72.166 130.158 71.4014 129.906 70.8096 129.402C70.2119 128.893 69.9131 128.219 69.9131 127.381C69.9131 126.561 70.209 125.913 70.8008 125.438C71.3809 124.97 72.2217 124.697 73.3232 124.621L76.2852 124.428V123.514C76.2852 122.834 76.0859 122.312 75.6875 121.949C75.2832 121.586 74.6973 121.404 73.9297 121.404C73.2793 121.404 72.7344 121.533 72.2949 121.791C71.8496 122.055 71.5713 122.415 71.46 122.872H70.291C70.4023 122.122 70.7949 121.519 71.4688 121.062C72.1367 120.604 72.9688 120.376 73.9648 120.376C75.0723 120.376 75.9307 120.651 76.54 121.202C77.1436 121.747 77.4453 122.515 77.4453 123.505V130H76.3379V128.374H76.2324C75.9453 128.937 75.5264 129.373 74.9756 129.684C74.4248 130 73.8008 130.158 73.1035 130.158Z" fill="white"/>
<path d="M36.0752 153.32C35.9229 152.758 35.6152 152.304 35.1523 151.958C34.6602 151.595 34.0625 151.413 33.3594 151.413C32.416 151.413 31.6689 151.759 31.1182 152.45C30.5615 153.142 30.2832 154.07 30.2832 155.236C30.2832 156.42 30.5615 157.36 31.1182 158.058C31.6748 158.761 32.4219 159.112 33.3594 159.112C34.0625 159.112 34.6514 158.951 35.126 158.629C35.6064 158.307 35.9199 157.855 36.0664 157.275H37.2354C37.0889 158.143 36.6787 158.834 36.0049 159.35C35.3076 159.889 34.4287 160.158 33.3682 160.158C32.0615 160.158 31.0244 159.713 30.2568 158.822C29.4834 157.938 29.0967 156.742 29.0967 155.236C29.0967 153.754 29.4805 152.573 30.248 151.694C31.0215 150.815 32.0586 150.376 33.3594 150.376C34.4141 150.376 35.2988 150.66 36.0137 151.229C36.6875 151.768 37.0977 152.465 37.2441 153.32H36.0752ZM46.1914 151.51H40.9619V160H39.8105V150.534H47.3428V160H46.1914V151.51ZM54.9277 150.376C56.1289 150.376 57.0928 150.821 57.8193 151.712C58.5459 152.608 58.9092 153.792 58.9092 155.263C58.9092 156.733 58.5459 157.917 57.8193 158.813C57.0869 159.71 56.123 160.158 54.9277 160.158C54.1953 160.158 53.5449 159.985 52.9766 159.64C52.4141 159.288 52.001 158.808 51.7373 158.198H51.6318V163.085H50.4805V150.534H51.5791V152.468H51.6846C51.9775 151.817 52.4111 151.308 52.9854 150.938C53.5596 150.563 54.207 150.376 54.9277 150.376ZM54.6729 159.112C55.6104 159.112 56.3516 158.767 56.8965 158.075C57.4473 157.384 57.7227 156.449 57.7227 155.271C57.7227 154.088 57.4502 153.15 56.9053 152.459C56.3545 151.762 55.6133 151.413 54.6816 151.413C53.7559 151.413 53.0088 151.765 52.4404 152.468C51.8779 153.171 51.5967 154.103 51.5967 155.263C51.5967 156.423 51.8779 157.354 52.4404 158.058C53.0029 158.761 53.7471 159.112 54.6729 159.112ZM64.4375 159.139C65.2871 159.139 65.9961 158.884 66.5645 158.374C67.1387 157.858 67.4258 157.226 67.4258 156.476V155.368L64.6221 155.57C63.0342 155.682 62.2402 156.279 62.2402 157.363C62.2402 157.902 62.4482 158.333 62.8643 158.655C63.2686 158.978 63.793 159.139 64.4375 159.139ZM64.2441 160.158C63.3066 160.158 62.542 159.906 61.9502 159.402C61.3525 158.893 61.0537 158.219 61.0537 157.381C61.0537 156.561 61.3496 155.913 61.9414 155.438C62.5215 154.97 63.3623 154.697 64.4639 154.621L67.4258 154.428V153.514C67.4258 152.834 67.2266 152.312 66.8281 151.949C66.4238 151.586 65.8379 151.404 65.0703 151.404C64.4199 151.404 63.875 151.533 63.4355 151.791C62.9902 152.055 62.7119 152.415 62.6006 152.872H61.4316C61.543 152.122 61.9355 151.519 62.6094 151.062C63.2773 150.604 64.1094 150.376 65.1055 150.376C66.2129 150.376 67.0713 150.651 67.6807 151.202C68.2842 151.747 68.5859 152.515 68.5859 153.505V160H67.4785V158.374H67.373C67.0859 158.937 66.667 159.373 66.1162 159.684C65.5654 160 64.9414 160.158 64.2441 160.158ZM73.8418 146.482C73.8418 146.998 73.9941 147.426 74.2988 147.766C74.6211 148.117 75.04 148.293 75.5557 148.293C76.0771 148.293 76.499 148.117 76.8213 147.766C77.126 147.426 77.2783 146.998 77.2783 146.482H78.333C78.333 147.256 78.0811 147.883 77.5771 148.363C77.0615 148.855 76.3877 149.102 75.5557 149.102C74.7236 149.102 74.0527 148.855 73.543 148.363C73.0391 147.883 72.7871 147.256 72.7871 146.482H73.8418ZM71.8203 160V150.534H72.9717V158.163H73.0859L78.4033 150.534H79.5547V160H78.4033V152.371H78.2979L72.9717 160H71.8203ZM89.4688 151.51H86.2344V160H85.083V151.51H81.8486V150.534H89.4688V151.51Z" fill="white"/>
<path d="M31.083 184.683L35.293 180.534H36.7168L32.0498 185.078L36.9277 190H35.4072L31.083 185.605H30.7139V190H29.5625V180.534H30.7139V184.683H31.083ZM41.0498 185.931C40.9443 187.29 40.7275 188.286 40.3994 188.919C39.9951 189.692 39.3711 190.079 38.5273 190.079C38.334 190.079 38.1582 190.05 38 189.991V188.928C38.1406 188.975 38.2988 188.998 38.4746 188.998C38.9434 188.998 39.2949 188.711 39.5293 188.137C39.7344 187.65 39.875 186.9 39.9512 185.887C40.0859 184.48 40.209 182.696 40.3203 180.534H46.376V190H45.2246V181.51H41.3662C41.2725 183.314 41.167 184.788 41.0498 185.931ZM50.208 193.296C49.9736 193.296 49.7949 193.284 49.6719 193.261V192.268C49.7949 192.285 49.9678 192.294 50.1904 192.294C50.6299 192.294 50.9844 192.168 51.2539 191.916C51.5176 191.676 51.7607 191.254 51.9834 190.65L52.1768 190.062L48.626 180.534H49.874L52.7393 188.743H52.8447L55.7012 180.534H56.9316L53.249 190.457C52.833 191.57 52.4199 192.32 52.0098 192.707C51.5879 193.1 50.9873 193.296 50.208 193.296ZM62.9697 190.167C61.5928 190.167 60.5352 189.713 59.7969 188.805C59.0293 187.855 58.6455 186.446 58.6455 184.577C58.6455 182.151 58.9648 180.385 59.6035 179.277C60.3477 177.982 61.6396 177.309 63.4795 177.256C63.667 177.256 64.0596 177.238 64.6572 177.203C65.5068 177.15 66.1982 177.007 66.7314 176.772V177.801C66.1104 178.076 65.4395 178.231 64.7188 178.267C64.373 178.308 63.9717 178.328 63.5146 178.328C62.1904 178.363 61.2324 178.756 60.6406 179.506C60.125 180.156 59.791 181.22 59.6387 182.696H59.7441C60.3945 181.337 61.5225 180.657 63.1279 180.657C64.3877 180.657 65.3955 181.073 66.1514 181.905C66.9189 182.755 67.3027 183.897 67.3027 185.333C67.3027 186.827 66.9131 188.008 66.1338 188.875C65.3545 189.736 64.2998 190.167 62.9697 190.167ZM62.9697 189.13C63.9482 189.13 64.7188 188.793 65.2812 188.119C65.8379 187.445 66.1162 186.517 66.1162 185.333C66.1162 184.196 65.8379 183.306 65.2812 182.661C64.7188 182.017 63.9482 181.694 62.9697 181.694C61.9912 181.694 61.2236 182.017 60.667 182.661C60.1104 183.306 59.832 184.196 59.832 185.333C59.832 186.517 60.1104 187.445 60.667 188.119C61.2236 188.793 61.9912 189.13 62.9697 189.13ZM69.9746 180.534H71.126V184.595H76.4434V180.534H77.5947V190H76.4434V185.57H71.126V190H69.9746V180.534ZM80.7324 190V180.534H81.8838V188.163H81.998L87.3154 180.534H88.4668V190H87.3154V182.371H87.21L81.8838 190H80.7324ZM93.1162 184.683L97.3262 180.534H98.75L94.083 185.078L98.9609 190H97.4404L93.1162 185.605H92.7471V190H91.5957V180.534H92.7471V184.683H93.1162ZM103.795 189.139C104.645 189.139 105.354 188.884 105.922 188.374C106.496 187.858 106.783 187.226 106.783 186.476V185.368L103.979 185.57C102.392 185.682 101.598 186.279 101.598 187.363C101.598 187.902 101.806 188.333 102.222 188.655C102.626 188.978 103.15 189.139 103.795 189.139ZM103.602 190.158C102.664 190.158 101.899 189.906 101.308 189.402C100.71 188.893 100.411 188.219 100.411 187.381C100.411 186.561 100.707 185.913 101.299 185.438C101.879 184.97 102.72 184.697 103.821 184.621L106.783 184.428V183.514C106.783 182.834 106.584 182.312 106.186 181.949C105.781 181.586 105.195 181.404 104.428 181.404C103.777 181.404 103.232 181.533 102.793 181.791C102.348 182.055 102.069 182.415 101.958 182.872H100.789C100.9 182.122 101.293 181.519 101.967 181.062C102.635 180.604 103.467 180.376 104.463 180.376C105.57 180.376 106.429 180.651 107.038 181.202C107.642 181.747 107.943 182.515 107.943 183.505V190H106.836V188.374H106.73C106.443 188.937 106.024 189.373 105.474 189.684C104.923 190 104.299 190.158 103.602 190.158Z" fill="white"/>
<path d="M242.342 88.9014H242.184L239.072 91.0459V88.5762L242.351 86.3174H244.996V99H242.342V88.9014ZM253.398 99.3252C251.828 99.3252 250.598 98.7363 249.707 97.5586C248.811 96.375 248.362 94.7344 248.362 92.6367C248.362 90.5449 248.811 88.9131 249.707 87.7412C250.598 86.5752 251.828 85.9922 253.398 85.9922C254.963 85.9922 256.19 86.5752 257.081 87.7412C257.983 88.9189 258.435 90.5537 258.435 92.6455C258.435 94.7373 257.986 96.375 257.09 97.5586C256.199 98.7363 254.969 99.3252 253.398 99.3252ZM253.398 97.1631C254.137 97.1631 254.711 96.7793 255.121 96.0117C255.537 95.2266 255.745 94.1016 255.745 92.6367C255.745 91.1836 255.534 90.0674 255.112 89.2881C254.708 88.5381 254.137 88.1631 253.398 88.1631C252.666 88.1631 252.095 88.541 251.685 89.2969C251.263 90.0762 251.052 91.1895 251.052 92.6367C251.052 94.0957 251.263 95.2207 251.685 96.0117C252.089 96.7793 252.66 97.1631 253.398 97.1631ZM268.103 91.3184V99H265.545V89.3057H272.251V91.3184H268.103Z" fill="white"/>
<path d="M225.205 126.785H219V124.438C219.99 122.569 221.663 119.862 224.019 116.317H227.736V124.579H229.397V126.785H227.736V129H225.205V126.785ZM221.382 124.658H225.267V118.383H225.126C223.772 120.404 222.524 122.449 221.382 124.518V124.658ZM236.552 129.325C234.981 129.325 233.751 128.736 232.86 127.559C231.964 126.375 231.516 124.734 231.516 122.637C231.516 120.545 231.964 118.913 232.86 117.741C233.751 116.575 234.981 115.992 236.552 115.992C238.116 115.992 239.344 116.575 240.234 117.741C241.137 118.919 241.588 120.554 241.588 122.646C241.588 124.737 241.14 126.375 240.243 127.559C239.353 128.736 238.122 129.325 236.552 129.325ZM236.552 127.163C237.29 127.163 237.864 126.779 238.274 126.012C238.69 125.227 238.898 124.102 238.898 122.637C238.898 121.184 238.688 120.067 238.266 119.288C237.861 118.538 237.29 118.163 236.552 118.163C235.819 118.163 235.248 118.541 234.838 119.297C234.416 120.076 234.205 121.189 234.205 122.637C234.205 124.096 234.416 125.221 234.838 126.012C235.242 126.779 235.813 127.163 236.552 127.163ZM248.698 129V119.306H252.012L254.552 125.511H254.71L257.259 119.306H260.528V129H258.12V122.575H257.953L255.501 128.455H253.717L251.265 122.575H251.106V129H248.698ZM266.382 124.342C266.294 125.9 266.019 127.055 265.556 127.805C265.022 128.678 264.193 129.114 263.068 129.114C262.752 129.114 262.479 129.076 262.251 129V126.75C262.415 126.791 262.6 126.812 262.805 126.812C263.238 126.812 263.561 126.56 263.771 126.056C263.947 125.646 264.059 125.016 264.105 124.166L264.387 119.306H271.682V129H269.124V121.318H266.584L266.382 124.342Z" fill="white"/>
<path d="M225.337 159.325C223.444 159.325 222.05 158.561 221.153 157.031C220.444 155.941 220.09 154.515 220.09 152.751C220.09 150.647 220.559 148.995 221.496 147.794C222.434 146.593 223.729 145.992 225.381 145.992C226.588 145.992 227.616 146.317 228.466 146.968C229.321 147.618 229.84 148.474 230.021 149.534H227.394C227.271 149.118 227.024 148.787 226.655 148.541C226.292 148.295 225.861 148.172 225.363 148.172C224.496 148.172 223.816 148.562 223.324 149.341C222.826 150.114 222.592 151.16 222.621 152.479H222.779C223.383 151.23 224.461 150.606 226.014 150.606C227.215 150.606 228.211 151.005 229.002 151.802C229.793 152.599 230.188 153.604 230.188 154.816C230.188 156.135 229.734 157.216 228.826 158.06C227.918 158.903 226.755 159.325 225.337 159.325ZM225.311 157.146C225.961 157.146 226.509 156.929 226.954 156.495C227.394 156.067 227.613 155.534 227.613 154.896C227.613 154.251 227.396 153.715 226.963 153.287C226.529 152.865 225.981 152.654 225.319 152.654C224.657 152.654 224.106 152.865 223.667 153.287C223.233 153.709 223.017 154.236 223.017 154.869C223.017 155.514 223.236 156.056 223.676 156.495C224.115 156.929 224.66 157.146 225.311 157.146ZM237.475 159.325C235.904 159.325 234.674 158.736 233.783 157.559C232.887 156.375 232.438 154.734 232.438 152.637C232.438 150.545 232.887 148.913 233.783 147.741C234.674 146.575 235.904 145.992 237.475 145.992C239.039 145.992 240.267 146.575 241.157 147.741C242.06 148.919 242.511 150.554 242.511 152.646C242.511 154.737 242.062 156.375 241.166 157.559C240.275 158.736 239.045 159.325 237.475 159.325ZM237.475 157.163C238.213 157.163 238.787 156.779 239.197 156.012C239.613 155.227 239.821 154.102 239.821 152.637C239.821 151.184 239.61 150.067 239.188 149.288C238.784 148.538 238.213 148.163 237.475 148.163C236.742 148.163 236.171 148.541 235.761 149.297C235.339 150.076 235.128 151.189 235.128 152.637C235.128 154.096 235.339 155.221 235.761 156.012C236.165 156.779 236.736 157.163 237.475 157.163ZM249.621 159V149.306H252.935L255.475 155.511H255.633L258.182 149.306H261.451V159H259.043V152.575H258.876L256.424 158.455H254.64L252.188 152.575H252.029V159H249.621ZM267.305 154.342C267.217 155.9 266.941 157.055 266.479 157.805C265.945 158.678 265.116 159.114 263.991 159.114C263.675 159.114 263.402 159.076 263.174 159V156.75C263.338 156.791 263.522 156.812 263.728 156.812C264.161 156.812 264.483 156.56 264.694 156.056C264.87 155.646 264.981 155.016 265.028 154.166L265.31 149.306H272.604V159H270.047V151.318H267.507L267.305 154.342Z" fill="white"/>
<path d="M242.342 178.901H242.184L239.072 181.046V178.576L242.351 176.317H244.996V189H242.342V178.901ZM253.311 189.325C251.945 189.325 250.823 188.953 249.944 188.209C249.083 187.482 248.632 186.545 248.591 185.396H251.043C251.119 185.924 251.368 186.349 251.79 186.671C252.212 186.993 252.725 187.154 253.328 187.154C254.014 187.154 254.567 186.943 254.989 186.521C255.417 186.1 255.631 185.546 255.631 184.86C255.631 184.163 255.417 183.601 254.989 183.173C254.562 182.745 254.011 182.531 253.337 182.531C252.358 182.531 251.635 182.912 251.166 183.674H248.793L249.426 176.317H257.397V178.523H251.482L251.201 181.784H251.359C251.934 180.958 252.83 180.545 254.049 180.545C255.25 180.545 256.237 180.943 257.011 181.74C257.778 182.537 258.162 183.557 258.162 184.799C258.162 186.146 257.717 187.236 256.826 188.068C255.936 188.906 254.764 189.325 253.311 189.325ZM267.733 181.318V189H265.176V179.306H271.882V181.318H267.733Z" fill="white"/>
<line y1="240.5" x2="310" y2="240.5" stroke="white" stroke-opacity="0.5"/>
<defs>
<filter id="filter0_b" x="-20" y="-20" width="350" height="350" filterUnits="userSpaceOnUse" color-interpolation-filters="sRGB">
<feFlood flood-opacity="0" result="BackgroundImageFix"/>
<feGaussianBlur in="BackgroundImage" stdDeviation="10"/>
<feComposite in2="SourceAlpha" operator="in" result="effect1_backgroundBlur"/>
<feBlend mode="normal" in="SourceGraphic" in2="effect1_backgroundBlur" result="shape"/>
</filter>
</defs>
</svg>
