<svg width="1268" height="180" viewBox="0 0 1268 180" fill="none" xmlns="http://www.w3.org/2000/svg">
<g filter="url(#filter0_b)">
<rect width="1268" height="180" rx="8" fill="white" fill-opacity="0.2"/>
</g>
<path d="M44.5312 56.4062H50.0312C52.1771 56.4062 53.9062 55.8333 55.2188 54.6875C56.5521 53.5417 57.2188 52.0521 57.2188 50.2188C57.2188 48.4062 56.5625 46.9583 55.25 45.875C53.9583 44.8125 52.2083 44.2812 50 44.2812C47.8125 44.2812 46.0417 44.8542 44.6875 46C43.3333 47.1458 42.5938 48.6979 42.4688 50.6562H33.75C33.9167 46.3854 35.4792 43 38.4375 40.5C41.3958 38 45.3333 36.75 50.25 36.75C54.875 36.75 58.6875 37.8854 61.6875 40.1562C64.6667 42.4479 66.1562 45.3646 66.1562 48.9062C66.1562 51.5104 65.3958 53.75 63.875 55.625C62.375 57.5 60.3646 58.6979 57.8438 59.2188V59.7812C60.9479 60.1354 63.3958 61.2708 65.1875 63.1875C67 65.125 67.9062 67.5729 67.9062 70.5312C67.9062 74.4896 66.2396 77.75 62.9062 80.3125C59.5729 82.875 55.3333 84.1562 50.1875 84.1562C45.1667 84.1562 41.0833 82.875 37.9375 80.3125C34.7917 77.75 33.1146 74.3438 32.9062 70.0938H41.9375C42.0833 72.0104 42.9062 73.5208 44.4062 74.625C45.9062 75.75 47.8646 76.3125 50.2812 76.3125C52.6354 76.3125 54.5625 75.7083 56.0625 74.5C57.5417 73.2917 58.2812 71.7292 58.2812 69.8125C58.2812 67.8333 57.5521 66.2812 56.0938 65.1562C54.6354 64.0104 52.6458 63.4375 50.125 63.4375H44.5312V56.4062ZM93.375 84.1562C87.7917 84.1562 83.4167 82.0625 80.25 77.875C77.0625 73.6667 75.4688 67.8333 75.4688 60.375C75.4688 52.9375 77.0625 47.1354 80.25 42.9688C83.4167 38.8229 87.7917 36.75 93.375 36.75C98.9375 36.75 103.302 38.8229 106.469 42.9688C109.677 47.1562 111.281 52.9688 111.281 60.4062C111.281 67.8438 109.688 73.6667 106.5 77.875C103.333 82.0625 98.9583 84.1562 93.375 84.1562ZM93.375 76.4688C96 76.4688 98.0417 75.1042 99.5 72.375C100.979 69.5833 101.719 65.5833 101.719 60.375C101.719 55.2083 100.969 51.2396 99.4688 48.4688C98.0312 45.8021 96 44.4688 93.375 44.4688C90.7708 44.4688 88.7396 45.8125 87.2812 48.5C85.7812 51.2708 85.0312 55.2292 85.0312 60.375C85.0312 65.5625 85.7812 69.5625 87.2812 72.375C88.7188 75.1042 90.75 76.4688 93.375 76.4688ZM122.781 83.8438C121.135 83.8438 119.792 83.3333 118.75 82.3125C117.75 81.2917 117.25 79.9896 117.25 78.4062C117.25 76.8229 117.75 75.5312 118.75 74.5312C119.771 73.5104 121.115 73 122.781 73C124.448 73 125.792 73.5104 126.812 74.5312C127.812 75.5104 128.312 76.8021 128.312 78.4062C128.312 80.0104 127.812 81.3125 126.812 82.3125C125.792 83.3333 124.448 83.8438 122.781 83.8438ZM152.5 84.1562C146.917 84.1562 142.542 82.0625 139.375 77.875C136.188 73.6667 134.594 67.8333 134.594 60.375C134.594 52.9375 136.188 47.1354 139.375 42.9688C142.542 38.8229 146.917 36.75 152.5 36.75C158.062 36.75 162.427 38.8229 165.594 42.9688C168.802 47.1562 170.406 52.9688 170.406 60.4062C170.406 67.8438 168.812 73.6667 165.625 77.875C162.458 82.0625 158.083 84.1562 152.5 84.1562ZM152.5 76.4688C155.125 76.4688 157.167 75.1042 158.625 72.375C160.104 69.5833 160.844 65.5833 160.844 60.375C160.844 55.2083 160.094 51.2396 158.594 48.4688C157.156 45.8021 155.125 44.4688 152.5 44.4688C149.896 44.4688 147.865 45.8125 146.406 48.5C144.906 51.2708 144.156 55.2292 144.156 60.375C144.156 65.5625 144.906 69.5625 146.406 72.375C147.844 75.1042 149.875 76.4688 152.5 76.4688ZM196.969 84.1562C190.24 84.1562 185.281 81.4375 182.094 76C179.573 72.125 178.312 67.0521 178.312 60.7812C178.312 53.3021 179.979 47.4271 183.312 43.1562C186.646 38.8854 191.25 36.75 197.125 36.75C201.417 36.75 205.073 37.9062 208.094 40.2188C211.135 42.5312 212.979 45.5729 213.625 49.3438H204.281C203.844 47.8646 202.969 46.6875 201.656 45.8125C200.365 44.9375 198.833 44.5 197.062 44.5C193.979 44.5 191.562 45.8854 189.812 48.6562C188.042 51.4062 187.208 55.125 187.312 59.8125H187.875C190.021 55.375 193.854 53.1562 199.375 53.1562C203.646 53.1562 207.188 54.5729 210 57.4062C212.812 60.2396 214.219 63.8125 214.219 68.125C214.219 72.8125 212.604 76.6562 209.375 79.6562C206.146 82.6562 202.01 84.1562 196.969 84.1562ZM196.875 76.4062C199.188 76.4062 201.135 75.6354 202.719 74.0938C204.281 72.5729 205.062 70.6771 205.062 68.4062C205.062 66.1146 204.292 64.2083 202.75 62.6875C201.208 61.1875 199.26 60.4375 196.906 60.4375C194.552 60.4375 192.594 61.1875 191.031 62.6875C189.49 64.1875 188.719 66.0625 188.719 68.3125C188.719 70.6042 189.5 72.5312 191.062 74.0938C192.625 75.6354 194.562 76.4062 196.875 76.4062Z" fill="white"/>
<path d="M44.4336 125.039H35.6445V141H31.8652V121.857H48.2129V141H44.4336V125.039ZM61.9062 124.705C60.5117 124.705 59.3633 125.156 58.4609 126.059C57.5586 126.961 57.0547 128.162 56.9492 129.662H66.6172C66.5703 128.15 66.125 126.949 65.2812 126.059C64.4258 125.156 63.3008 124.705 61.9062 124.705ZM70.2383 135.832C69.8047 137.555 68.8613 138.908 67.4082 139.893C65.9434 140.877 64.1211 141.369 61.9414 141.369C59.1992 141.369 57.043 140.484 55.4727 138.715C53.8906 136.957 53.0996 134.549 53.0996 131.49C53.0996 128.432 53.8965 126 55.4902 124.195C57.084 122.391 59.2285 121.488 61.9238 121.488C64.584 121.488 66.6758 122.344 68.1992 124.055C69.7109 125.766 70.4668 128.127 70.4668 131.139V132.457H56.9492V132.668C57.0078 134.355 57.4941 135.691 58.4082 136.676C59.3223 137.66 60.5352 138.152 62.0469 138.152C64.3555 138.152 65.873 137.379 66.5996 135.832H70.2383ZM75.3535 121.857H79.1328V129.521H88.0977V121.857H91.877V141H88.0977V132.703H79.1328V141H75.3535V121.857ZM97.6426 121.857H101.422V129.521H110.387V121.857H114.166V141H110.387V132.703H101.422V141H97.6426V121.857ZM126.225 138.135C127.643 138.135 128.826 137.736 129.775 136.939C130.713 136.143 131.182 135.146 131.182 133.951V132.352L126.506 132.65C123.951 132.826 122.674 133.746 122.674 135.41C122.674 136.254 123.008 136.922 123.676 137.414C124.32 137.895 125.17 138.135 126.225 138.135ZM125.258 141.316C123.383 141.316 121.859 140.801 120.688 139.77C119.48 138.703 118.877 137.309 118.877 135.586C118.877 133.875 119.492 132.527 120.723 131.543C121.953 130.57 123.711 130.014 125.996 129.873L131.182 129.574V127.922C131.182 125.812 129.875 124.758 127.262 124.758C125.047 124.758 123.717 125.467 123.271 126.885H119.615C119.803 125.244 120.611 123.932 122.041 122.947C123.459 121.975 125.258 121.488 127.438 121.488C129.828 121.488 131.68 122.057 132.992 123.193C134.293 124.318 134.943 125.895 134.943 127.922V141H131.305V138.311H131.006C129.811 140.314 127.895 141.316 125.258 141.316ZM151.221 131.402V125.039H147.793C146.645 125.039 145.736 125.332 145.068 125.918C144.389 126.504 144.049 127.301 144.049 128.309C144.049 129.223 144.389 129.967 145.068 130.541C145.76 131.115 146.668 131.402 147.793 131.402H151.221ZM151.221 134.443H148.373L143.732 141H139.338L144.559 133.758C143.234 133.383 142.197 132.715 141.447 131.754C140.686 130.781 140.305 129.639 140.305 128.326C140.305 126.346 140.967 124.77 142.291 123.598C143.615 122.438 145.385 121.857 147.6 121.857H154.947V141H151.221V134.443ZM174.336 124.758V129.715H178.15C180.4 129.715 181.525 128.883 181.525 127.219C181.525 125.578 180.541 124.758 178.572 124.758H174.336ZM174.336 132.492V138.1H178.889C181.174 138.1 182.316 137.168 182.316 135.305C182.316 133.43 181.016 132.492 178.414 132.492H174.336ZM170.592 121.857H179.293C181.156 121.857 182.615 122.297 183.67 123.176C184.713 124.043 185.234 125.227 185.234 126.727C185.234 127.699 184.93 128.572 184.32 129.346C183.699 130.119 182.926 130.594 182 130.77V131.068C183.23 131.209 184.221 131.689 184.971 132.51C185.721 133.318 186.096 134.309 186.096 135.48C186.096 137.168 185.504 138.504 184.32 139.488C183.113 140.496 181.467 141 179.381 141H170.592V121.857ZM198.875 124.705C197.48 124.705 196.332 125.156 195.43 126.059C194.527 126.961 194.023 128.162 193.918 129.662H203.586C203.539 128.15 203.094 126.949 202.25 126.059C201.395 125.156 200.27 124.705 198.875 124.705ZM207.207 135.832C206.773 137.555 205.83 138.908 204.377 139.893C202.912 140.877 201.09 141.369 198.91 141.369C196.168 141.369 194.012 140.484 192.441 138.715C190.859 136.957 190.068 134.549 190.068 131.49C190.068 128.432 190.865 126 192.459 124.195C194.053 122.391 196.197 121.488 198.893 121.488C201.553 121.488 203.645 122.344 205.168 124.055C206.68 125.766 207.436 128.127 207.436 131.139V132.457H193.918V132.668C193.977 134.355 194.463 135.691 195.377 136.676C196.291 137.66 197.504 138.152 199.016 138.152C201.324 138.152 202.842 137.379 203.568 135.832H207.207ZM223.607 141V132.598H223.309C221.996 133.887 220.32 134.531 218.281 134.531C216.23 134.531 214.607 133.898 213.412 132.633C212.24 131.379 211.654 129.691 211.654 127.57V121.857H215.434V127.236C215.434 128.432 215.75 129.369 216.383 130.049C217.016 130.74 217.889 131.086 219.002 131.086C221.1 131.086 222.635 130.359 223.607 128.906V121.857H227.387V141H223.607ZM241.098 124.705C239.703 124.705 238.555 125.156 237.652 126.059C236.75 126.961 236.246 128.162 236.141 129.662H245.809C245.762 128.15 245.316 126.949 244.473 126.059C243.617 125.156 242.492 124.705 241.098 124.705ZM249.43 135.832C248.996 137.555 248.053 138.908 246.6 139.893C245.135 140.877 243.312 141.369 241.133 141.369C238.391 141.369 236.234 140.484 234.664 138.715C233.082 136.957 232.291 134.549 232.291 131.49C232.291 128.432 233.088 126 234.682 124.195C236.275 122.391 238.42 121.488 241.115 121.488C243.775 121.488 245.867 122.344 247.391 124.055C248.902 125.766 249.658 128.127 249.658 131.139V132.457H236.141V132.668C236.199 134.355 236.686 135.691 237.6 136.676C238.514 137.66 239.727 138.152 241.238 138.152C243.547 138.152 245.064 137.379 245.791 135.832H249.43ZM264.494 121.541C266.932 121.541 268.865 122.426 270.295 124.195C271.725 125.977 272.439 128.385 272.439 131.42C272.439 134.455 271.725 136.863 270.295 138.645C268.877 140.426 266.955 141.316 264.529 141.316C261.67 141.316 259.707 140.244 258.641 138.1H258.342V147.205H254.562V121.857H258.201V125.021H258.482C259.057 123.932 259.877 123.076 260.943 122.455C262.01 121.846 263.193 121.541 264.494 121.541ZM263.422 137.924C265.027 137.924 266.287 137.35 267.201 136.201C268.104 135.041 268.555 133.447 268.555 131.42C268.555 129.393 268.104 127.805 267.201 126.656C266.287 125.508 265.033 124.934 263.439 124.934C261.846 124.934 260.586 125.514 259.66 126.674C258.734 127.846 258.271 129.434 258.271 131.438C258.271 133.43 258.734 135.012 259.66 136.184C260.586 137.344 261.84 137.924 263.422 137.924ZM277.326 141V121.857H281.07V135.023H281.369L290.352 121.857H294.096V141H290.352V127.764H290.053L281.07 141H277.326ZM299.861 121.857H303.641V129.521H312.605V121.857H316.385V141H312.605V132.703H303.641V141H299.861V121.857ZM326.773 129.627L333.682 121.857H338.129L329.885 130.752L338.48 141H333.77L326.791 132.633H325.93V141H322.15V121.857H325.93V129.627H326.773ZM348.201 138.135C349.619 138.135 350.803 137.736 351.752 136.939C352.689 136.143 353.158 135.146 353.158 133.951V132.352L348.482 132.65C345.928 132.826 344.65 133.746 344.65 135.41C344.65 136.254 344.984 136.922 345.652 137.414C346.297 137.895 347.146 138.135 348.201 138.135ZM347.234 141.316C345.359 141.316 343.836 140.801 342.664 139.77C341.457 138.703 340.854 137.309 340.854 135.586C340.854 133.875 341.469 132.527 342.699 131.543C343.93 130.57 345.688 130.014 347.973 129.873L353.158 129.574V127.922C353.158 125.812 351.852 124.758 349.238 124.758C347.023 124.758 345.693 125.467 345.248 126.885H341.592C341.779 125.244 342.588 123.932 344.018 122.947C345.436 121.975 347.234 121.488 349.414 121.488C351.805 121.488 353.656 122.057 354.969 123.193C356.27 124.318 356.92 125.895 356.92 127.922V141H353.281V138.311H352.982C351.787 140.314 349.871 141.316 347.234 141.316Z" fill="white"/>
<defs>
<filter id="filter0_b" x="-20" y="-20" width="1308" height="220" filterUnits="userSpaceOnUse" color-interpolation-filters="sRGB">
<feFlood flood-opacity="0" result="BackgroundImageFix"/>
<feGaussianBlur in="BackgroundImage" stdDeviation="10"/>
<feComposite in2="SourceAlpha" operator="in" result="effect1_backgroundBlur"/>
<feBlend mode="normal" in="SourceGraphic" in2="effect1_backgroundBlur" result="shape"/>
</filter>
</defs>
</svg>
