<svg width="310" height="310" viewBox="0 0 310 310" fill="none" xmlns="http://www.w3.org/2000/svg">
<g filter="url(#filter0_b)">
<rect width="310" height="310" rx="8" fill="white" fill-opacity="0.2"/>
</g>
<path d="M104.787 48V29.2646H93.4785V48H90.8271V26.8623H107.395V48H104.787ZM126.188 48H113.093V26.8623H126.188V29.2354H115.729V36.0176H125.646V38.3613H115.729V45.627H126.188V48ZM145.495 48V38.376H133.894V48H131.257V26.8623H133.894V36.0029H145.495V26.8623H148.132V48H145.495ZM162.326 48.498C159.455 48.498 157.185 47.5068 155.515 45.5244C153.835 43.542 152.995 40.8467 152.995 37.4385C152.995 34.0303 153.83 31.3301 155.5 29.3379C157.17 27.3555 159.44 26.3643 162.312 26.3643C164.538 26.3643 166.442 26.999 168.024 28.2686C169.606 29.5381 170.554 31.1934 170.866 33.2344H168.186C167.834 31.8672 167.131 30.7881 166.076 29.9971C165.021 29.1963 163.767 28.7959 162.312 28.7959C160.28 28.7959 158.674 29.5723 157.492 31.125C156.301 32.6777 155.705 34.7822 155.705 37.4385C155.705 40.0947 156.301 42.1943 157.492 43.7373C158.684 45.29 160.295 46.0664 162.326 46.0664C163.801 46.0664 165.061 45.7148 166.105 45.0117C167.16 44.2988 167.854 43.332 168.186 42.1113H170.866C170.515 44.0547 169.567 45.6025 168.024 46.7549C166.472 47.917 164.572 48.498 162.326 48.498ZM190.144 31.1836H189.909L178.483 48H175.876V26.8623H178.483V43.7373H178.718L190.144 26.8623H192.751V48H190.144V31.1836ZM210.271 29.2354H205.759C204.245 29.2354 203.073 29.5918 202.243 30.3047C201.423 31.0176 201.013 32.0332 201.013 33.3516C201.013 34.6797 201.428 35.7002 202.258 36.4131C203.078 37.1357 204.245 37.4971 205.759 37.4971H210.271V29.2354ZM200.339 48H197.204L203.269 39.5479C201.765 39.1963 200.563 38.4688 199.665 37.3652C198.757 36.252 198.303 34.9141 198.303 33.3516C198.303 31.4375 198.933 29.8799 200.192 28.6787C201.462 27.4678 203.088 26.8623 205.07 26.8623H212.907V48H210.271V39.8701H206.169L200.339 48Z" fill="white"/>
<path d="M35.918 266.434H35.7305L31.4297 269.551V267.324L35.9297 264.09H38.0273V281H35.918V266.434ZM48.7617 281.398C46.8555 281.398 45.3789 280.625 44.332 279.078C43.2852 277.531 42.7617 275.352 42.7617 272.539C42.7617 269.75 43.2891 267.578 44.3438 266.023C45.3984 264.469 46.8711 263.691 48.7617 263.691C50.6445 263.691 52.1094 264.473 53.1562 266.035C54.2109 267.598 54.7383 269.777 54.7383 272.574C54.7383 275.379 54.2188 277.551 53.1797 279.09C52.1328 280.629 50.6602 281.398 48.7617 281.398ZM48.7617 279.559C50.0117 279.559 50.9648 278.957 51.6211 277.754C52.2852 276.543 52.6172 274.805 52.6172 272.539C52.6172 270.297 52.2852 268.57 51.6211 267.359C50.9492 266.148 49.9961 265.543 48.7617 265.543C47.5273 265.543 46.5703 266.152 45.8906 267.371C45.2188 268.582 44.8828 270.305 44.8828 272.539C44.8828 274.797 45.2188 276.531 45.8906 277.742C46.5547 278.953 47.5117 279.559 48.7617 279.559ZM63.8789 281.398C61.9727 281.398 60.4961 280.625 59.4492 279.078C58.4023 277.531 57.8789 275.352 57.8789 272.539C57.8789 269.75 58.4062 267.578 59.4609 266.023C60.5156 264.469 61.9883 263.691 63.8789 263.691C65.7617 263.691 67.2266 264.473 68.2734 266.035C69.3281 267.598 69.8555 269.777 69.8555 272.574C69.8555 275.379 69.3359 277.551 68.2969 279.09C67.25 280.629 65.7773 281.398 63.8789 281.398ZM63.8789 279.559C65.1289 279.559 66.082 278.957 66.7383 277.754C67.4023 276.543 67.7344 274.805 67.7344 272.539C67.7344 270.297 67.4023 268.57 66.7383 267.359C66.0664 266.148 65.1133 265.543 63.8789 265.543C62.6445 265.543 61.6875 266.152 61.0078 267.371C60.3359 268.582 60 270.305 60 272.539C60 274.797 60.3359 276.531 61.0078 277.742C61.6719 278.953 62.6289 279.559 63.8789 279.559ZM77.2031 272.621H79.8984C81.0781 272.621 81.9805 272.32 82.6055 271.719C83.1992 271.141 83.4961 270.328 83.4961 269.281C83.4961 268.242 83.1992 267.438 82.6055 266.867C81.9883 266.266 81.0859 265.965 79.8984 265.965H77.2031V272.621ZM77.2031 278.305V281H75.0938V278.305H72.75V276.711H75.0938V274.449H72.75V272.621H75.0938V264.09H80.4492C82.0117 264.09 83.2773 264.586 84.2461 265.578C85.1914 266.539 85.6641 267.773 85.6641 269.281C85.6641 270.789 85.1875 272.023 84.2344 272.984C83.2656 273.961 81.9961 274.449 80.4258 274.449H77.2031V276.711H82.0664V278.305H77.2031Z" fill="white"/>
<path d="M33.3945 99.1123C34.3672 99.1123 35.1289 98.7695 35.6797 98.084C36.2305 97.4043 36.5059 96.4639 36.5059 95.2627C36.5059 94.0615 36.2305 93.1211 35.6797 92.4414C35.1289 91.7559 34.3672 91.4131 33.3945 91.4131C32.4219 91.4131 31.6602 91.7559 31.1094 92.4414C30.5586 93.1211 30.2832 94.0615 30.2832 95.2627C30.2832 96.4639 30.5586 97.4043 31.1094 98.084C31.6602 98.7695 32.4219 99.1123 33.3945 99.1123ZM33.3945 100.158C32.0703 100.158 31.0244 99.7188 30.2568 98.8398C29.4834 97.9668 29.0967 96.7744 29.0967 95.2627C29.0967 93.751 29.4834 92.5586 30.2568 91.6855C31.0244 90.8125 32.0703 90.376 33.3945 90.376C34.7188 90.376 35.7676 90.8125 36.541 91.6855C37.3145 92.5586 37.7012 93.751 37.7012 95.2627C37.7012 96.7744 37.3145 97.9668 36.541 98.8398C35.7676 99.7188 34.7188 100.158 33.3945 100.158ZM41.5068 91.5098V100H40.3555V90.5342H46.3584V91.5098H41.5068ZM49.4521 103.296C49.2178 103.296 49.0391 103.284 48.916 103.261V102.268C49.0391 102.285 49.2119 102.294 49.4346 102.294C49.874 102.294 50.2285 102.168 50.498 101.916C50.7617 101.676 51.0049 101.254 51.2275 100.65L51.4209 100.062L47.8701 90.5342H49.1182L51.9834 98.7432H52.0889L54.9453 90.5342H56.1758L52.4932 100.457C52.0771 101.57 51.6641 102.32 51.2539 102.707C50.832 103.1 50.2314 103.296 49.4521 103.296ZM62.873 90.376C64.0742 90.376 65.0381 90.8213 65.7646 91.7119C66.4912 92.6084 66.8545 93.792 66.8545 95.2627C66.8545 96.7334 66.4912 97.917 65.7646 98.8135C65.0322 99.71 64.0684 100.158 62.873 100.158C62.1406 100.158 61.4902 99.9854 60.9219 99.6396C60.3594 99.2881 59.9463 98.8076 59.6826 98.1982H59.5771V103.085H58.4258V90.5342H59.5244V92.4678H59.6299C59.9229 91.8174 60.3564 91.3076 60.9307 90.9385C61.5049 90.5635 62.1523 90.376 62.873 90.376ZM62.6182 99.1123C63.5557 99.1123 64.2969 98.7666 64.8418 98.0752C65.3926 97.3838 65.668 96.4492 65.668 95.2715C65.668 94.0879 65.3955 93.1504 64.8506 92.459C64.2998 91.7617 63.5586 91.4131 62.627 91.4131C61.7012 91.4131 60.9541 91.7646 60.3857 92.4678C59.8232 93.1709 59.542 94.1025 59.542 95.2627C59.542 96.4229 59.8232 97.3545 60.3857 98.0576C60.9482 98.7607 61.6924 99.1123 62.6182 99.1123ZM75.2305 100V95.5264H75.1074C74.4277 96.2061 73.5605 96.5459 72.5059 96.5459C71.4746 96.5459 70.6631 96.2324 70.0713 95.6055C69.5029 95.002 69.2188 94.1846 69.2188 93.1533V90.5342H70.3701V93.1094C70.3701 93.8535 70.5635 94.4365 70.9502 94.8584C71.3369 95.292 71.8818 95.5088 72.585 95.5088C73.7861 95.5088 74.668 95.0723 75.2305 94.1992V90.5342H76.3818V100H75.2305ZM79.5195 100V90.5342H80.6709V98.1631H80.7852L86.1025 90.5342H87.2539V100H86.1025V92.3711H85.9971L80.6709 100H79.5195ZM91.9033 94.6826L96.1133 90.5342H97.5371L92.8701 95.0781L97.748 100H96.2275L91.9033 95.6055H91.5342V100H90.3828V90.5342H91.5342V94.6826H91.9033ZM99.9805 100V90.5342H101.132V98.1631H101.246L106.563 90.5342H107.715V100H106.563V92.3711H106.458L101.132 100H99.9805Z" fill="white"/>
<path d="M30.7139 121.51V124.621H33.0781C33.7344 124.621 34.2383 124.48 34.5898 124.199C34.9297 123.924 35.0996 123.531 35.0996 123.021C35.0996 122.553 34.9443 122.187 34.6338 121.923C34.3115 121.647 33.8545 121.51 33.2627 121.51H30.7139ZM30.7139 125.597V129.024H33.4033C34.833 129.024 35.5479 128.447 35.5479 127.293C35.5479 126.162 34.7568 125.597 33.1748 125.597H30.7139ZM29.5625 120.534H33.3945C34.2793 120.534 34.9766 120.748 35.4863 121.176C35.9844 121.604 36.2334 122.184 36.2334 122.916C36.2334 123.426 36.0781 123.877 35.7676 124.27C35.457 124.656 35.0586 124.896 34.5723 124.99V125.104C35.1934 125.175 35.6973 125.409 36.084 125.808C36.4883 126.212 36.6904 126.713 36.6904 127.311C36.6904 128.154 36.4062 128.813 35.8379 129.288C35.2637 129.763 34.4609 130 33.4297 130H29.5625V120.534ZM43.1504 129.112C44.123 129.112 44.8848 128.77 45.4355 128.084C45.9863 127.404 46.2617 126.464 46.2617 125.263C46.2617 124.062 45.9863 123.121 45.4355 122.441C44.8848 121.756 44.123 121.413 43.1504 121.413C42.1777 121.413 41.416 121.756 40.8652 122.441C40.3145 123.121 40.0391 124.062 40.0391 125.263C40.0391 126.464 40.3145 127.404 40.8652 128.084C41.416 128.77 42.1777 129.112 43.1504 129.112ZM43.1504 130.158C41.8262 130.158 40.7803 129.719 40.0127 128.84C39.2393 127.967 38.8525 126.774 38.8525 125.263C38.8525 123.751 39.2393 122.559 40.0127 121.686C40.7803 120.812 41.8262 120.376 43.1504 120.376C44.4746 120.376 45.5234 120.812 46.2969 121.686C47.0703 122.559 47.457 123.751 47.457 125.263C47.457 126.774 47.0703 127.967 46.2969 128.84C45.5234 129.719 44.4746 130.158 43.1504 130.158ZM56.29 121.51H52.1855C52.0977 123.186 51.9893 124.659 51.8604 125.931C51.7373 127.39 51.4531 128.386 51.0078 128.919V129.024H56.29V121.51ZM48.8633 132.505V129.024H49.6279C50.2607 128.614 50.6445 127.568 50.7793 125.887C50.8145 125.541 50.9404 123.757 51.1572 120.534H57.4414V129.024H58.9707V132.505H57.8809V130H49.9531V132.505H48.8633ZM62.6182 124.683L66.8281 120.534H68.252L63.585 125.078L68.4629 130H66.9424L62.6182 125.605H62.249V130H61.0977V120.534H62.249V124.683H62.6182ZM73.2969 129.139C74.1465 129.139 74.8555 128.884 75.4238 128.374C75.998 127.858 76.2852 127.226 76.2852 126.476V125.368L73.4814 125.57C71.8936 125.682 71.0996 126.279 71.0996 127.363C71.0996 127.902 71.3076 128.333 71.7236 128.655C72.1279 128.978 72.6523 129.139 73.2969 129.139ZM73.1035 130.158C72.166 130.158 71.4014 129.906 70.8096 129.402C70.2119 128.893 69.9131 128.219 69.9131 127.381C69.9131 126.561 70.209 125.913 70.8008 125.438C71.3809 124.97 72.2217 124.697 73.3232 124.621L76.2852 124.428V123.514C76.2852 122.834 76.0859 122.312 75.6875 121.949C75.2832 121.586 74.6973 121.404 73.9297 121.404C73.2793 121.404 72.7344 121.533 72.2949 121.791C71.8496 122.055 71.5713 122.415 71.46 122.872H70.291C70.4023 122.122 70.7949 121.519 71.4688 121.062C72.1367 120.604 72.9688 120.376 73.9648 120.376C75.0723 120.376 75.9307 120.651 76.54 121.202C77.1436 121.747 77.4453 122.515 77.4453 123.505V130H76.3379V128.374H76.2324C75.9453 128.937 75.5264 129.373 74.9756 129.684C74.4248 130 73.8008 130.158 73.1035 130.158Z" fill="white"/>
<path d="M242.071 99.3252C240.706 99.3252 239.584 98.9531 238.705 98.209C237.844 97.4824 237.393 96.5449 237.352 95.3965H239.804C239.88 95.9238 240.129 96.3486 240.551 96.6709C240.973 96.9932 241.485 97.1543 242.089 97.1543C242.774 97.1543 243.328 96.9434 243.75 96.5215C244.178 96.0996 244.392 95.5459 244.392 94.8604C244.392 94.1631 244.178 93.6006 243.75 93.1729C243.322 92.7451 242.771 92.5312 242.098 92.5312C241.119 92.5312 240.396 92.9121 239.927 93.6738H237.554L238.187 86.3174H246.158V88.5234H240.243L239.962 91.7842H240.12C240.694 90.958 241.591 90.5449 242.81 90.5449C244.011 90.5449 244.998 90.9434 245.771 91.7402C246.539 92.5371 246.923 93.5566 246.923 94.7988C246.923 96.1465 246.478 97.2363 245.587 98.0684C244.696 98.9062 243.524 99.3252 242.071 99.3252ZM254.112 99.3252C252.542 99.3252 251.312 98.7363 250.421 97.5586C249.524 96.375 249.076 94.7344 249.076 92.6367C249.076 90.5449 249.524 88.9131 250.421 87.7412C251.312 86.5752 252.542 85.9922 254.112 85.9922C255.677 85.9922 256.904 86.5752 257.795 87.7412C258.697 88.9189 259.148 90.5537 259.148 92.6455C259.148 94.7373 258.7 96.375 257.804 97.5586C256.913 98.7363 255.683 99.3252 254.112 99.3252ZM254.112 97.1631C254.851 97.1631 255.425 96.7793 255.835 96.0117C256.251 95.2266 256.459 94.1016 256.459 92.6367C256.459 91.1836 256.248 90.0674 255.826 89.2881C255.422 88.5381 254.851 88.1631 254.112 88.1631C253.38 88.1631 252.809 88.541 252.398 89.2969C251.977 90.0762 251.766 91.1895 251.766 92.6367C251.766 94.0957 251.977 95.2207 252.398 96.0117C252.803 96.7793 253.374 97.1631 254.112 97.1631ZM268.816 91.3184V99H266.259V89.3057H272.965V91.3184H268.816Z" fill="white"/>
<path d="M224.071 129.325C222.706 129.325 221.584 128.953 220.705 128.209C219.844 127.482 219.393 126.545 219.352 125.396H221.804C221.88 125.924 222.129 126.349 222.551 126.671C222.973 126.993 223.485 127.154 224.089 127.154C224.774 127.154 225.328 126.943 225.75 126.521C226.178 126.1 226.392 125.546 226.392 124.86C226.392 124.163 226.178 123.601 225.75 123.173C225.322 122.745 224.771 122.531 224.098 122.531C223.119 122.531 222.396 122.912 221.927 123.674H219.554L220.187 116.317H228.158V118.523H222.243L221.962 121.784H222.12C222.694 120.958 223.591 120.545 224.81 120.545C226.011 120.545 226.998 120.943 227.771 121.74C228.539 122.537 228.923 123.557 228.923 124.799C228.923 126.146 228.478 127.236 227.587 128.068C226.696 128.906 225.524 129.325 224.071 129.325ZM236.112 129.325C234.542 129.325 233.312 128.736 232.421 127.559C231.524 126.375 231.076 124.734 231.076 122.637C231.076 120.545 231.524 118.913 232.421 117.741C233.312 116.575 234.542 115.992 236.112 115.992C237.677 115.992 238.904 116.575 239.795 117.741C240.697 118.919 241.148 120.554 241.148 122.646C241.148 124.737 240.7 126.375 239.804 127.559C238.913 128.736 237.683 129.325 236.112 129.325ZM236.112 127.163C236.851 127.163 237.425 126.779 237.835 126.012C238.251 125.227 238.459 124.102 238.459 122.637C238.459 121.184 238.248 120.067 237.826 119.288C237.422 118.538 236.851 118.163 236.112 118.163C235.38 118.163 234.809 118.541 234.398 119.297C233.977 120.076 233.766 121.189 233.766 122.637C233.766 124.096 233.977 125.221 234.398 126.012C234.803 126.779 235.374 127.163 236.112 127.163ZM248.259 129V119.306H251.572L254.112 125.511H254.271L256.819 119.306H260.089V129H257.681V122.575H257.514L255.062 128.455H253.277L250.825 122.575H250.667V129H248.259ZM265.942 124.342C265.854 125.9 265.579 127.055 265.116 127.805C264.583 128.678 263.754 129.114 262.629 129.114C262.312 129.114 262.04 129.076 261.812 129V126.75C261.976 126.791 262.16 126.812 262.365 126.812C262.799 126.812 263.121 126.56 263.332 126.056C263.508 125.646 263.619 125.016 263.666 124.166L263.947 119.306H271.242V129H268.685V121.318H266.145L265.942 124.342Z" fill="white"/>
<line y1="240.5" x2="310" y2="240.5" stroke="white" stroke-opacity="0.5"/>
<defs>
<filter id="filter0_b" x="-20" y="-20" width="350" height="350" filterUnits="userSpaceOnUse" color-interpolation-filters="sRGB">
<feFlood flood-opacity="0" result="BackgroundImageFix"/>
<feGaussianBlur in="BackgroundImage" stdDeviation="10"/>
<feComposite in2="SourceAlpha" operator="in" result="effect1_backgroundBlur"/>
<feBlend mode="normal" in="SourceGraphic" in2="effect1_backgroundBlur" result="shape"/>
</filter>
</defs>
</svg>
