<svg width="612" height="164" viewBox="0 0 612 164" fill="none" xmlns="http://www.w3.org/2000/svg">
<line y1="44.5" x2="612" y2="44.5" stroke="white" stroke-opacity="0.5"/>
<line y1="103.5" x2="612" y2="103.5" stroke="white" stroke-opacity="0.5"/>
<line y1="163.5" x2="612" y2="163.5" stroke="white" stroke-opacity="0.5"/>
<path d="M43.2729 72.9932V75.2256H44.811C45.813 75.2256 46.314 74.8506 46.314 74.1006C46.314 73.3623 45.8599 72.9932 44.9517 72.9932H43.2729ZM43.2729 76.7637V79.3125H45.0747C46.147 79.3125 46.6831 78.8848 46.6831 78.0293C46.6831 77.1855 46.103 76.7637 44.9429 76.7637H43.2729ZM40.7593 71.3057H45.6196C46.6274 71.3057 47.4155 71.5225 47.9839 71.9561C48.5464 72.3896 48.8276 72.9873 48.8276 73.749C48.8276 74.2529 48.6606 74.7012 48.3267 75.0938C47.9985 75.4805 47.5854 75.7148 47.0874 75.7969V75.9551C47.7319 76.0137 48.2563 76.2539 48.6606 76.6758C49.0591 77.0918 49.2583 77.5986 49.2583 78.1963C49.2583 79.0459 48.9419 79.7227 48.3091 80.2266C47.6646 80.7422 46.7974 81 45.7075 81H40.7593V71.3057ZM57.2124 71.1475C58.4429 71.1475 59.4097 71.5898 60.1128 72.4746C60.8159 73.3594 61.1675 74.584 61.1675 76.1484C61.1675 77.707 60.8188 78.9316 60.1216 79.8223C59.4243 80.707 58.4692 81.1494 57.2563 81.1494C55.8091 81.1494 54.8335 80.6045 54.3296 79.5146H54.1714V84.0322H51.6138V71.3057H54.0923V72.8965H54.2505C54.5142 72.3516 54.9067 71.9238 55.4282 71.6133C55.9497 71.3027 56.5444 71.1475 57.2124 71.1475ZM56.3423 79.0137C57.0337 79.0137 57.5728 78.7588 57.9595 78.249C58.3462 77.7451 58.5396 77.0449 58.5396 76.1484C58.5396 75.2578 58.3462 74.5605 57.9595 74.0566C57.5669 73.5469 57.0308 73.292 56.3511 73.292C55.6714 73.292 55.1323 73.5469 54.7339 74.0566C54.3413 74.5723 54.145 75.2725 54.145 76.1572C54.145 77.042 54.3413 77.7393 54.7339 78.249C55.1265 78.7588 55.6626 79.0137 56.3423 79.0137ZM67.6802 73.0547C67.0884 73.0547 66.5991 73.2451 66.2124 73.626C65.8315 74.0068 65.6177 74.5107 65.5708 75.1377H69.7017C69.6724 74.4932 69.479 73.9863 69.1216 73.6172C68.7583 73.2422 68.2778 73.0547 67.6802 73.0547ZM72.1362 78.2402C71.9429 79.1602 71.4536 79.8838 70.6685 80.4111C69.8774 80.9443 68.8901 81.2109 67.7065 81.2109C66.23 81.2109 65.0786 80.7686 64.2524 79.8838C63.4263 79.0049 63.0132 77.7773 63.0132 76.2012C63.0132 74.625 63.4292 73.3799 64.2612 72.4658C65.0933 71.5518 66.23 71.0947 67.6714 71.0947C69.1011 71.0947 70.2144 71.5254 71.0112 72.3867C71.814 73.248 72.2153 74.4492 72.2153 75.9902V76.7725H65.562V76.9043C65.5796 77.625 65.7876 78.1934 66.186 78.6094C66.5786 79.0312 67.1089 79.2422 67.7769 79.2422C68.814 79.2422 69.4731 78.9082 69.7544 78.2402H72.1362ZM74.5269 81V71.3057H77.8403L80.3804 77.5107H80.5386L83.0874 71.3057H86.3569V81H83.9487V74.5752H83.7817L81.3296 80.4551H79.5454L77.0933 74.5752H76.9351V81H74.5269ZM94.4604 76.0166V73.3096H92.8872C92.4126 73.3096 92.0347 73.4355 91.7534 73.6875C91.4663 73.9395 91.3228 74.2734 91.3228 74.6895C91.3228 75.082 91.4663 75.3984 91.7534 75.6387C92.0405 75.8906 92.4185 76.0166 92.8872 76.0166H94.4604ZM94.4604 77.8799H93.4146L91.2612 81H88.3608L90.9009 77.458C90.2563 77.2646 89.7466 76.916 89.3716 76.4121C88.9966 75.9141 88.8091 75.3311 88.8091 74.6631C88.8091 73.6436 89.1606 72.8262 89.8638 72.2109C90.561 71.6074 91.481 71.3057 92.6235 71.3057H96.9653V81H94.4604V77.8799Z" fill="white"/>
<path d="M46.9995 9.30957H44.0464L43.8267 12.3418C43.7505 13.4199 43.522 14.249 43.1411 14.8291V14.9873H46.9995V9.30957ZM39.7397 19.5049V14.9873H40.4868C41.0962 14.6475 41.4536 13.707 41.5591 12.166L41.8755 7.30566H49.5483V14.9873H50.9897V19.5049H48.6519V17H42.0776V19.5049H39.7397ZM56.2896 15.2246C56.8813 15.2246 57.3765 15.0576 57.7749 14.7236C58.1733 14.3896 58.3726 13.9766 58.3726 13.4844V12.7725L56.4126 12.8955C55.3228 12.9717 54.7778 13.3613 54.7778 14.0645C54.7778 14.4219 54.9185 14.7061 55.1997 14.917C55.4751 15.1221 55.8384 15.2246 56.2896 15.2246ZM55.4458 17.1494C54.5083 17.1494 53.7466 16.8857 53.1606 16.3584C52.5688 15.8193 52.2729 15.1104 52.2729 14.2314C52.2729 13.3584 52.5981 12.6699 53.2485 12.166C53.8931 11.668 54.8188 11.3838 56.0259 11.3135L58.3726 11.1729V10.3818C58.3726 9.53809 57.8276 9.11621 56.7378 9.11621C55.7886 9.11621 55.2056 9.41504 54.9888 10.0127H52.6333C52.7153 9.11621 53.1401 8.4043 53.9077 7.87695C54.6694 7.35547 55.6597 7.09473 56.8784 7.09473C58.1558 7.09473 59.146 7.38184 59.8491 7.95605C60.5464 8.53027 60.895 9.33887 60.895 10.3818V17H58.4165V15.7344H58.2583C57.7251 16.6777 56.7876 17.1494 55.4458 17.1494ZM71.0991 9.31836H68.1987V17H65.6411V9.31836H62.7407V7.30566H71.0991V9.31836ZM76.4517 15.2246C77.0435 15.2246 77.5386 15.0576 77.937 14.7236C78.3354 14.3896 78.5347 13.9766 78.5347 13.4844V12.7725L76.5747 12.8955C75.4849 12.9717 74.9399 13.3613 74.9399 14.0645C74.9399 14.4219 75.0806 14.7061 75.3618 14.917C75.6372 15.1221 76.0005 15.2246 76.4517 15.2246ZM75.6079 17.1494C74.6704 17.1494 73.9087 16.8857 73.3228 16.3584C72.731 15.8193 72.4351 15.1104 72.4351 14.2314C72.4351 13.3584 72.7603 12.6699 73.4106 12.166C74.0552 11.668 74.981 11.3838 76.188 11.3135L78.5347 11.1729V10.3818C78.5347 9.53809 77.9897 9.11621 76.8999 9.11621C75.9507 9.11621 75.3677 9.41504 75.1509 10.0127H72.7954C72.8774 9.11621 73.3022 8.4043 74.0698 7.87695C74.8315 7.35547 75.8218 7.09473 77.0405 7.09473C78.3179 7.09473 79.3081 7.38184 80.0112 7.95605C80.7085 8.53027 81.0571 9.33887 81.0571 10.3818V17H78.5786V15.7344H78.4204C77.8872 16.6777 76.9497 17.1494 75.6079 17.1494Z" fill="white"/>
<path d="M48.7397 142.505V140H40.7593V130.306H43.3169V137.987H47.061V130.306H49.6187V137.987H51.0776V142.505H48.7397ZM57.0981 132.055C56.5063 132.055 56.0171 132.245 55.6304 132.626C55.2495 133.007 55.0356 133.511 54.9888 134.138H59.1196C59.0903 133.493 58.897 132.986 58.5396 132.617C58.1763 132.242 57.6958 132.055 57.0981 132.055ZM61.5542 137.24C61.3608 138.16 60.8716 138.884 60.0864 139.411C59.2954 139.944 58.3081 140.211 57.1245 140.211C55.6479 140.211 54.4966 139.769 53.6704 138.884C52.8442 138.005 52.4312 136.777 52.4312 135.201C52.4312 133.625 52.8472 132.38 53.6792 131.466C54.5112 130.552 55.6479 130.095 57.0894 130.095C58.519 130.095 59.6323 130.525 60.4292 131.387C61.2319 132.248 61.6333 133.449 61.6333 134.99V135.772H54.98V135.904C54.9976 136.625 55.2056 137.193 55.604 137.609C55.9966 138.031 56.5269 138.242 57.1948 138.242C58.2319 138.242 58.8911 137.908 59.1724 137.24H61.5542ZM63.9448 130.306H66.5024V134.023H70.3784V130.306H72.936V140H70.3784V136.036H66.5024V140H63.9448V130.306ZM79.1411 138.225C79.7329 138.225 80.228 138.058 80.6265 137.724C81.0249 137.39 81.2241 136.977 81.2241 136.484V135.772L79.2642 135.896C78.1743 135.972 77.6294 136.361 77.6294 137.064C77.6294 137.422 77.77 137.706 78.0513 137.917C78.3267 138.122 78.6899 138.225 79.1411 138.225ZM78.2974 140.149C77.3599 140.149 76.5981 139.886 76.0122 139.358C75.4204 138.819 75.1245 138.11 75.1245 137.231C75.1245 136.358 75.4497 135.67 76.1001 135.166C76.7446 134.668 77.6704 134.384 78.8774 134.313L81.2241 134.173V133.382C81.2241 132.538 80.6792 132.116 79.5894 132.116C78.6401 132.116 78.0571 132.415 77.8403 133.013H75.4849C75.5669 132.116 75.9917 131.404 76.7593 130.877C77.521 130.355 78.5112 130.095 79.73 130.095C81.0073 130.095 81.9976 130.382 82.7007 130.956C83.3979 131.53 83.7466 132.339 83.7466 133.382V140H81.2681V138.734H81.1099C80.5767 139.678 79.6392 140.149 78.2974 140.149Z" fill="white"/>
<path d="M513.368 11.5205H514.915C515.519 11.5205 516.005 11.3594 516.374 11.0371C516.749 10.7148 516.937 10.2959 516.937 9.78027C516.937 9.27051 516.752 8.86328 516.383 8.55859C516.02 8.25977 515.527 8.11035 514.906 8.11035C514.291 8.11035 513.793 8.27148 513.412 8.59375C513.031 8.91602 512.823 9.35254 512.788 9.90332H510.336C510.383 8.70215 510.822 7.75 511.654 7.04688C512.486 6.34375 513.594 5.99219 514.977 5.99219C516.277 5.99219 517.35 6.31152 518.193 6.9502C519.031 7.59473 519.45 8.41504 519.45 9.41113C519.45 10.1436 519.236 10.7734 518.809 11.3008C518.387 11.8281 517.821 12.165 517.112 12.3115V12.4697C517.985 12.5693 518.674 12.8887 519.178 13.4277C519.688 13.9727 519.942 14.6611 519.942 15.4932C519.942 16.6064 519.474 17.5234 518.536 18.2441C517.599 18.9648 516.406 19.3252 514.959 19.3252C513.547 19.3252 512.398 18.9648 511.514 18.2441C510.629 17.5234 510.157 16.5654 510.099 15.3701H512.639C512.68 15.9092 512.911 16.334 513.333 16.6445C513.755 16.9609 514.306 17.1191 514.985 17.1191C515.647 17.1191 516.189 16.9492 516.611 16.6094C517.027 16.2695 517.235 15.8301 517.235 15.291C517.235 14.7344 517.03 14.2979 516.62 13.9814C516.21 13.6592 515.65 13.498 514.941 13.498H513.368V11.5205ZM527.105 19.3252C525.535 19.3252 524.305 18.7363 523.414 17.5586C522.518 16.375 522.069 14.7344 522.069 12.6367C522.069 10.5449 522.518 8.91309 523.414 7.74121C524.305 6.5752 525.535 5.99219 527.105 5.99219C528.67 5.99219 529.897 6.5752 530.788 7.74121C531.69 8.91895 532.142 10.5537 532.142 12.6455C532.142 14.7373 531.693 16.375 530.797 17.5586C529.906 18.7363 528.676 19.3252 527.105 19.3252ZM527.105 17.1631C527.844 17.1631 528.418 16.7793 528.828 16.0117C529.244 15.2266 529.452 14.1016 529.452 12.6367C529.452 11.1836 529.241 10.0674 528.819 9.28809C528.415 8.53809 527.844 8.16309 527.105 8.16309C526.373 8.16309 525.802 8.54102 525.392 9.29688C524.97 10.0762 524.759 11.1895 524.759 12.6367C524.759 14.0957 524.97 15.2207 525.392 16.0117C525.796 16.7793 526.367 17.1631 527.105 17.1631ZM535.376 19.2373C534.913 19.2373 534.535 19.0938 534.242 18.8066C533.961 18.5195 533.82 18.1533 533.82 17.708C533.82 17.2627 533.961 16.8994 534.242 16.6182C534.529 16.3311 534.907 16.1875 535.376 16.1875C535.845 16.1875 536.223 16.3311 536.51 16.6182C536.791 16.8936 536.932 17.2568 536.932 17.708C536.932 18.1592 536.791 18.5254 536.51 18.8066C536.223 19.0938 535.845 19.2373 535.376 19.2373ZM543.734 19.3252C542.164 19.3252 540.934 18.7363 540.043 17.5586C539.146 16.375 538.698 14.7344 538.698 12.6367C538.698 10.5449 539.146 8.91309 540.043 7.74121C540.934 6.5752 542.164 5.99219 543.734 5.99219C545.299 5.99219 546.526 6.5752 547.417 7.74121C548.319 8.91895 548.771 10.5537 548.771 12.6455C548.771 14.7373 548.322 16.375 547.426 17.5586C546.535 18.7363 545.305 19.3252 543.734 19.3252ZM543.734 17.1631C544.473 17.1631 545.047 16.7793 545.457 16.0117C545.873 15.2266 546.081 14.1016 546.081 12.6367C546.081 11.1836 545.87 10.0674 545.448 9.28809C545.044 8.53809 544.473 8.16309 543.734 8.16309C543.002 8.16309 542.431 8.54102 542.021 9.29688C541.599 10.0762 541.388 11.1895 541.388 12.6367C541.388 14.0957 541.599 15.2207 542.021 16.0117C542.425 16.7793 542.996 17.1631 543.734 17.1631ZM556.241 19.3252C554.349 19.3252 552.954 18.5605 552.058 17.0312C551.349 15.9414 550.994 14.5146 550.994 12.751C550.994 10.6475 551.463 8.99512 552.4 7.79395C553.338 6.59277 554.633 5.99219 556.285 5.99219C557.492 5.99219 558.521 6.31738 559.37 6.96777C560.226 7.61816 560.744 8.47363 560.926 9.53418H558.298C558.175 9.11816 557.929 8.78711 557.56 8.54102C557.196 8.29492 556.766 8.17188 556.268 8.17188C555.4 8.17188 554.721 8.56152 554.229 9.34082C553.73 10.1143 553.496 11.1602 553.525 12.4785H553.684C554.287 11.2305 555.365 10.6064 556.918 10.6064C558.119 10.6064 559.115 11.0049 559.906 11.8018C560.697 12.5986 561.093 13.6035 561.093 14.8164C561.093 16.1348 560.639 17.2158 559.73 18.0596C558.822 18.9033 557.659 19.3252 556.241 19.3252ZM556.215 17.1455C556.865 17.1455 557.413 16.9287 557.858 16.4951C558.298 16.0674 558.518 15.5342 558.518 14.8955C558.518 14.251 558.301 13.7148 557.867 13.2871C557.434 12.8652 556.886 12.6543 556.224 12.6543C555.562 12.6543 555.011 12.8652 554.571 13.2871C554.138 13.709 553.921 14.2363 553.921 14.8691C553.921 15.5137 554.141 16.0557 554.58 16.4951C555.02 16.9287 555.564 17.1455 556.215 17.1455Z" fill="white"/>
<path d="M509.125 72.1143C509.125 70.8896 509.553 69.8965 510.408 69.1348C511.264 68.373 512.377 67.9922 513.748 67.9922C515.072 67.9922 516.15 68.335 516.982 69.0205C517.82 69.7119 518.239 70.6025 518.239 71.6924C518.239 72.3838 518.022 73.0693 517.589 73.749C517.155 74.4346 516.391 75.293 515.295 76.3242L512.869 78.6357V78.7939H518.424V81H509.274V79.1455L513.414 75.0938C514.305 74.2266 514.899 73.5732 515.198 73.1338C515.497 72.7061 515.646 72.2842 515.646 71.8682C515.646 71.3584 515.462 70.9395 515.093 70.6113C514.718 70.2891 514.24 70.1279 513.66 70.1279C513.045 70.1279 512.547 70.3125 512.166 70.6816C511.779 71.0449 511.586 71.5195 511.586 72.1055V72.1582H509.125V72.1143ZM523.952 73.5205H525.499C526.103 73.5205 526.589 73.3594 526.958 73.0371C527.333 72.7148 527.521 72.2959 527.521 71.7803C527.521 71.2705 527.336 70.8633 526.967 70.5586C526.604 70.2598 526.111 70.1104 525.49 70.1104C524.875 70.1104 524.377 70.2715 523.996 70.5938C523.615 70.916 523.407 71.3525 523.372 71.9033H520.92C520.967 70.7021 521.406 69.75 522.238 69.0469C523.07 68.3438 524.178 67.9922 525.561 67.9922C526.861 67.9922 527.934 68.3115 528.777 68.9502C529.615 69.5947 530.034 70.415 530.034 71.4111C530.034 72.1436 529.82 72.7734 529.393 73.3008C528.971 73.8281 528.405 74.165 527.696 74.3115V74.4697C528.569 74.5693 529.258 74.8887 529.762 75.4277C530.271 75.9727 530.526 76.6611 530.526 77.4932C530.526 78.6064 530.058 79.5234 529.12 80.2441C528.183 80.9648 526.99 81.3252 525.543 81.3252C524.131 81.3252 522.982 80.9648 522.098 80.2441C521.213 79.5234 520.741 78.5654 520.683 77.3701H523.223C523.264 77.9092 523.495 78.334 523.917 78.6445C524.339 78.9609 524.89 79.1191 525.569 79.1191C526.231 79.1191 526.773 78.9492 527.195 78.6094C527.611 78.2695 527.819 77.8301 527.819 77.291C527.819 76.7344 527.614 76.2979 527.204 75.9814C526.794 75.6592 526.234 75.498 525.525 75.498H523.952V73.5205ZM533.189 78.2051C533.189 77.7363 533.333 77.3584 533.62 77.0713C533.913 76.7783 534.306 76.6318 534.798 76.6318C535.29 76.6318 535.68 76.7783 535.967 77.0713C536.254 77.3584 536.397 77.7363 536.397 78.2051C536.397 78.6738 536.254 79.0518 535.967 79.3389C535.68 79.6318 535.29 79.7783 534.798 79.7783C534.306 79.7783 533.913 79.6318 533.62 79.3389C533.333 79.0518 533.189 78.6738 533.189 78.2051ZM533.189 71.6924C533.189 71.2236 533.333 70.8428 533.62 70.5498C533.913 70.2568 534.306 70.1104 534.798 70.1104C535.29 70.1104 535.68 70.2568 535.967 70.5498C536.254 70.8369 536.397 71.2178 536.397 71.6924C536.397 72.1611 536.254 72.5391 535.967 72.8262C535.68 73.1191 535.29 73.2656 534.798 73.2656C534.306 73.2656 533.913 73.1191 533.62 72.8262C533.333 72.5391 533.189 72.1611 533.189 71.6924ZM544 81.3252C542.43 81.3252 541.199 80.7363 540.309 79.5586C539.412 78.375 538.964 76.7344 538.964 74.6367C538.964 72.5449 539.412 70.9131 540.309 69.7412C541.199 68.5752 542.43 67.9922 544 67.9922C545.564 67.9922 546.792 68.5752 547.683 69.7412C548.585 70.9189 549.036 72.5537 549.036 74.6455C549.036 76.7373 548.588 78.375 547.691 79.5586C546.801 80.7363 545.57 81.3252 544 81.3252ZM544 79.1631C544.738 79.1631 545.312 78.7793 545.723 78.0117C546.139 77.2266 546.347 76.1016 546.347 74.6367C546.347 73.1836 546.136 72.0674 545.714 71.2881C545.31 70.5381 544.738 70.1631 544 70.1631C543.268 70.1631 542.696 70.541 542.286 71.2969C541.864 72.0762 541.653 73.1895 541.653 74.6367C541.653 76.0957 541.864 77.2207 542.286 78.0117C542.69 78.7793 543.262 79.1631 544 79.1631ZM556.322 81.3252C554.752 81.3252 553.521 80.7363 552.631 79.5586C551.734 78.375 551.286 76.7344 551.286 74.6367C551.286 72.5449 551.734 70.9131 552.631 69.7412C553.521 68.5752 554.752 67.9922 556.322 67.9922C557.887 67.9922 559.114 68.5752 560.005 69.7412C560.907 70.9189 561.358 72.5537 561.358 74.6455C561.358 76.7373 560.91 78.375 560.014 79.5586C559.123 80.7363 557.893 81.3252 556.322 81.3252ZM556.322 79.1631C557.061 79.1631 557.635 78.7793 558.045 78.0117C558.461 77.2266 558.669 76.1016 558.669 74.6367C558.669 73.1836 558.458 72.0674 558.036 71.2881C557.632 70.5381 557.061 70.1631 556.322 70.1631C555.59 70.1631 555.019 70.541 554.608 71.2969C554.187 72.0762 553.976 73.1895 553.976 74.6367C553.976 76.0957 554.187 77.2207 554.608 78.0117C555.013 78.7793 555.584 79.1631 556.322 79.1631Z" fill="white"/>
<path d="M517.368 133.521H518.915C519.519 133.521 520.005 133.359 520.374 133.037C520.749 132.715 520.937 132.296 520.937 131.78C520.937 131.271 520.752 130.863 520.383 130.559C520.02 130.26 519.527 130.11 518.906 130.11C518.291 130.11 517.793 130.271 517.412 130.594C517.031 130.916 516.823 131.353 516.788 131.903H514.336C514.383 130.702 514.822 129.75 515.654 129.047C516.486 128.344 517.594 127.992 518.977 127.992C520.277 127.992 521.35 128.312 522.193 128.95C523.031 129.595 523.45 130.415 523.45 131.411C523.45 132.144 523.236 132.773 522.809 133.301C522.387 133.828 521.821 134.165 521.112 134.312V134.47C521.985 134.569 522.674 134.889 523.178 135.428C523.688 135.973 523.942 136.661 523.942 137.493C523.942 138.606 523.474 139.523 522.536 140.244C521.599 140.965 520.406 141.325 518.959 141.325C517.547 141.325 516.398 140.965 515.514 140.244C514.629 139.523 514.157 138.565 514.099 137.37H516.639C516.68 137.909 516.911 138.334 517.333 138.645C517.755 138.961 518.306 139.119 518.985 139.119C519.647 139.119 520.189 138.949 520.611 138.609C521.027 138.27 521.235 137.83 521.235 137.291C521.235 136.734 521.03 136.298 520.62 135.981C520.21 135.659 519.65 135.498 518.941 135.498H517.368V133.521ZM531.29 141.325C529.397 141.325 528.003 140.561 527.106 139.031C526.397 137.941 526.043 136.515 526.043 134.751C526.043 132.647 526.512 130.995 527.449 129.794C528.387 128.593 529.682 127.992 531.334 127.992C532.541 127.992 533.569 128.317 534.419 128.968C535.274 129.618 535.793 130.474 535.975 131.534H533.347C533.224 131.118 532.978 130.787 532.608 130.541C532.245 130.295 531.814 130.172 531.316 130.172C530.449 130.172 529.77 130.562 529.277 131.341C528.779 132.114 528.545 133.16 528.574 134.479H528.732C529.336 133.23 530.414 132.606 531.967 132.606C533.168 132.606 534.164 133.005 534.955 133.802C535.746 134.599 536.142 135.604 536.142 136.816C536.142 138.135 535.688 139.216 534.779 140.06C533.871 140.903 532.708 141.325 531.29 141.325ZM531.264 139.146C531.914 139.146 532.462 138.929 532.907 138.495C533.347 138.067 533.566 137.534 533.566 136.896C533.566 136.251 533.35 135.715 532.916 135.287C532.482 134.865 531.935 134.654 531.272 134.654C530.61 134.654 530.06 134.865 529.62 135.287C529.187 135.709 528.97 136.236 528.97 136.869C528.97 137.514 529.189 138.056 529.629 138.495C530.068 138.929 530.613 139.146 531.264 139.146ZM543.507 141.325C541.983 141.325 540.75 140.982 539.807 140.297C538.863 139.611 538.392 138.718 538.392 137.616C538.392 136.819 538.646 136.128 539.156 135.542C539.66 134.95 540.337 134.561 541.187 134.373V134.215C540.495 134.057 539.941 133.726 539.525 133.222C539.109 132.718 538.901 132.129 538.901 131.455C538.901 130.441 539.332 129.612 540.193 128.968C541.061 128.317 542.168 127.992 543.516 127.992C544.857 127.992 545.962 128.317 546.829 128.968C547.69 129.612 548.121 130.441 548.121 131.455C548.121 132.129 547.913 132.718 547.497 133.222C547.087 133.72 546.533 134.051 545.836 134.215V134.373C546.68 134.531 547.359 134.903 547.875 135.489C548.385 136.081 548.64 136.781 548.64 137.59C548.64 138.703 548.165 139.603 547.216 140.288C546.267 140.979 545.03 141.325 543.507 141.325ZM543.507 139.321C544.204 139.321 544.772 139.14 545.212 138.776C545.651 138.413 545.871 137.944 545.871 137.37C545.871 136.79 545.651 136.318 545.212 135.955C544.772 135.592 544.204 135.41 543.507 135.41C542.81 135.41 542.244 135.592 541.811 135.955C541.371 136.318 541.151 136.79 541.151 137.37C541.151 137.944 541.371 138.413 541.811 138.776C542.244 139.14 542.81 139.321 543.507 139.321ZM543.507 133.45C544.093 133.45 544.573 133.286 544.948 132.958C545.317 132.636 545.502 132.22 545.502 131.71C545.502 131.194 545.317 130.775 544.948 130.453C544.573 130.125 544.093 129.961 543.507 129.961C542.921 129.961 542.443 130.125 542.074 130.453C541.705 130.775 541.521 131.194 541.521 131.71C541.521 132.22 541.705 132.636 542.074 132.958C542.443 133.286 542.921 133.45 543.507 133.45ZM554.827 134.364H556.365C557.121 134.364 557.701 134.191 558.105 133.846C558.504 133.506 558.703 133.031 558.703 132.422C558.703 131.818 558.507 131.35 558.114 131.016C557.71 130.67 557.13 130.497 556.374 130.497H554.827V134.364ZM554.827 139.339V141H552.173V139.339H550.582V137.66H552.173V136.403H550.582V134.399H552.173V128.317H557.165C558.425 128.317 559.447 128.698 560.232 129.46C561.006 130.216 561.393 131.194 561.393 132.396C561.393 133.579 560.991 134.549 560.188 135.305C559.374 136.066 558.322 136.447 557.033 136.447H554.827V137.66H558.264V139.339H554.827Z" fill="white"/>
</svg>
