<svg width="310" height="310" viewBox="0 0 310 310" fill="none" xmlns="http://www.w3.org/2000/svg">
<g filter="url(#filter0_b)">
<rect width="310" height="310" rx="8" fill="white" fill-opacity="0.2"/>
</g>
<path d="M72.7871 48V29.2646H61.4785V48H58.8271V26.8623H75.3945V48H72.7871ZM89.9844 26.3643C92.9824 26.3643 95.3457 27.3604 97.0742 29.3525C98.793 31.335 99.6523 34.0254 99.6523 37.4238C99.6523 40.8223 98.7979 43.5127 97.0889 45.4951C95.3506 47.4971 92.9824 48.498 89.9844 48.498C86.9668 48.498 84.5889 47.4971 82.8506 45.4951C81.1318 43.5127 80.2725 40.8223 80.2725 37.4238C80.2725 34.0254 81.1465 31.3301 82.8945 29.3379C84.6328 27.3555 86.9961 26.3643 89.9844 26.3643ZM89.9844 28.7959C87.8359 28.7959 86.1318 29.5723 84.8721 31.125C83.6123 32.6777 82.9824 34.7773 82.9824 37.4238C82.9824 40.0703 83.6025 42.165 84.8428 43.708C86.0928 45.2803 87.8066 46.0664 89.9844 46.0664C92.1426 46.0664 93.8467 45.2803 95.0967 43.708C96.3271 42.1553 96.9424 40.0605 96.9424 37.4238C96.9424 34.7676 96.3223 32.668 95.082 31.125C93.8418 29.5723 92.1426 28.7959 89.9844 28.7959ZM108.588 40.2217C108.432 42.7119 107.938 44.4551 107.108 45.4512V45.627H117.362V29.2354H109.276L108.588 40.2217ZM104.721 52.1748H102.274V45.627H103.842C105.189 44.9141 105.946 43.0928 106.112 40.1631L106.918 26.8623H119.999V45.627H122.636V52.1748H120.189V48H104.721V52.1748ZM134.486 26.8623C136.488 26.8623 138.114 27.4971 139.364 28.7666C140.624 30.0459 141.254 31.6914 141.254 33.7031C141.254 35.6758 140.619 37.2969 139.35 38.5664C138.07 39.8262 136.439 40.4561 134.457 40.4561H129.14V48H126.503V26.8623H134.486ZM129.14 38.1123H133.798C135.302 38.1123 136.469 37.7266 137.299 36.9551C138.129 36.1836 138.544 35.0996 138.544 33.7031C138.544 32.248 138.134 31.1348 137.313 30.3633C136.503 29.5918 135.331 29.2061 133.798 29.2061H129.14V38.1123ZM147.655 48.1465C147.128 48.1465 146.737 48.083 146.483 47.9561V45.583C146.796 45.6611 147.187 45.7002 147.655 45.7002C149.169 45.7002 150.321 44.9629 151.112 43.4883L143.891 26.8623H146.703L152.372 40.5586H152.606L158.144 26.8623H160.883L154.408 41.9502C153.461 44.1572 152.567 45.6904 151.728 46.5498C150.683 47.6143 149.325 48.1465 147.655 48.1465ZM175.268 26.8623H177.904V36.1934H178.52L186.811 26.8623H190.048L180.702 37.043L190.912 48H187.484L178.52 38.2295H177.904V48H175.268V38.2295H174.652L165.688 48H162.304L172.47 37.1016L163.095 26.8623H166.361L174.652 36.1934H175.268V26.8623ZM198.017 36.1494L206.894 26.8623H210.204L200.287 37.043L211.054 48H207.567L198.017 38.2588H197.401V48H194.765V26.8623H197.401V36.1494H198.017ZM226.508 41.9502H218.1L215.976 48H213.207L221 26.8623H223.607L231.4 48H228.632L226.508 41.9502ZM218.876 39.709H225.731L222.421 30.2754H222.187L218.876 39.709Z" fill="white"/>
<path d="M39.5977 279.496H31.3594V277.574C32.9062 274.824 35.3203 270.996 38.6016 266.09H41.6602V277.609H44.0625V279.496H41.6602V283H39.5977V279.496ZM33.5156 277.621H39.6094V268.047H39.4688C37.6406 270.703 35.6562 273.848 33.5156 277.48V277.621ZM52.7227 283.387C51.2852 283.387 50.0703 282.988 49.0781 282.191C48.0781 281.402 47.4453 280.328 47.1797 278.969H49.3477C49.5742 279.758 49.9883 280.379 50.5898 280.832C51.1992 281.285 51.918 281.512 52.7461 281.512C54.1211 281.512 55.1875 280.918 55.9453 279.73C56.7109 278.543 57.1211 276.824 57.1758 274.574H56.9883C56.5742 275.395 55.9727 276.031 55.1836 276.484C54.3945 276.945 53.4961 277.176 52.4883 277.176C50.8789 277.176 49.5508 276.641 48.5039 275.57C47.457 274.508 46.9336 273.156 46.9336 271.516C46.9336 269.812 47.4883 268.418 48.5977 267.332C49.707 266.238 51.1289 265.691 52.8633 265.691C55.4727 265.691 57.3203 266.973 58.4062 269.535C58.9531 270.816 59.2266 272.387 59.2266 274.246C59.2266 277.152 58.6602 279.402 57.5273 280.996C56.3945 282.59 54.793 283.387 52.7227 283.387ZM52.8633 275.348C53.9805 275.348 54.9023 274.988 55.6289 274.27C56.3477 273.551 56.707 272.633 56.707 271.516C56.707 270.383 56.3398 269.438 55.6055 268.68C54.8789 267.922 53.9727 267.543 52.8867 267.543C51.8008 267.543 50.8945 267.918 50.168 268.668C49.4336 269.41 49.0664 270.336 49.0664 271.445C49.0664 272.602 49.418 273.539 50.1211 274.258C50.832 274.984 51.7461 275.348 52.8633 275.348ZM68.3086 283.398C66.4023 283.398 64.9258 282.625 63.8789 281.078C62.832 279.531 62.3086 277.352 62.3086 274.539C62.3086 271.75 62.8359 269.578 63.8906 268.023C64.9453 266.469 66.418 265.691 68.3086 265.691C70.1914 265.691 71.6562 266.473 72.7031 268.035C73.7578 269.598 74.2852 271.777 74.2852 274.574C74.2852 277.379 73.7656 279.551 72.7266 281.09C71.6797 282.629 70.207 283.398 68.3086 283.398ZM68.3086 281.559C69.5586 281.559 70.5117 280.957 71.168 279.754C71.832 278.543 72.1641 276.805 72.1641 274.539C72.1641 272.297 71.832 270.57 71.168 269.359C70.4961 268.148 69.543 267.543 68.3086 267.543C67.0742 267.543 66.1172 268.152 65.4375 269.371C64.7656 270.582 64.4297 272.305 64.4297 274.539C64.4297 276.797 64.7656 278.531 65.4375 279.742C66.1016 280.953 67.0586 281.559 68.3086 281.559ZM81.6328 274.621H84.3281C85.5078 274.621 86.4102 274.32 87.0352 273.719C87.6289 273.141 87.9258 272.328 87.9258 271.281C87.9258 270.242 87.6289 269.438 87.0352 268.867C86.418 268.266 85.5156 267.965 84.3281 267.965H81.6328V274.621ZM81.6328 280.305V283H79.5234V280.305H77.1797V278.711H79.5234V276.449H77.1797V274.621H79.5234V266.09H84.8789C86.4414 266.09 87.707 266.586 88.6758 267.578C89.6211 268.539 90.0938 269.773 90.0938 271.281C90.0938 272.789 89.6172 274.023 88.6641 274.984C87.6953 275.961 86.4258 276.449 84.8555 276.449H81.6328V278.711H86.4961V280.305H81.6328Z" fill="white"/>
<path d="M29.5625 100V90.5342H30.9512L34.6689 98.4004H34.7744L38.4746 90.5342H39.8105V100H38.6592V92.6436H38.5273L35.1523 99.8154H34.2471L30.8369 92.6436H30.7139V100H29.5625ZM45.8047 99.1387C46.6543 99.1387 47.3633 98.8838 47.9316 98.374C48.5059 97.8584 48.793 97.2256 48.793 96.4756V95.3682L45.9893 95.5703C44.4014 95.6816 43.6074 96.2793 43.6074 97.3633C43.6074 97.9023 43.8154 98.333 44.2314 98.6553C44.6357 98.9775 45.1602 99.1387 45.8047 99.1387ZM45.6113 100.158C44.6738 100.158 43.9092 99.9062 43.3174 99.4023C42.7197 98.8926 42.4209 98.2188 42.4209 97.3809C42.4209 96.5605 42.7168 95.9131 43.3086 95.4385C43.8887 94.9697 44.7295 94.6973 45.8311 94.6211L48.793 94.4277V93.5137C48.793 92.834 48.5938 92.3125 48.1953 91.9492C47.791 91.5859 47.2051 91.4043 46.4375 91.4043C45.7871 91.4043 45.2422 91.5332 44.8027 91.791C44.3574 92.0547 44.0791 92.415 43.9678 92.8721H42.7988C42.9102 92.1221 43.3027 91.5186 43.9766 91.0615C44.6445 90.6045 45.4766 90.376 46.4727 90.376C47.5801 90.376 48.4385 90.6514 49.0479 91.2021C49.6514 91.7471 49.9531 92.5146 49.9531 93.5049V100H48.8457V98.374H48.7402C48.4531 98.9365 48.0342 99.373 47.4834 99.6836C46.9326 100 46.3086 100.158 45.6113 100.158ZM55.1123 95.9307C55.0068 97.29 54.79 98.2861 54.4619 98.9189C54.0576 99.6924 53.4336 100.079 52.5898 100.079C52.3965 100.079 52.2207 100.05 52.0625 99.9912V98.9277C52.2031 98.9746 52.3613 98.998 52.5371 98.998C53.0059 98.998 53.3574 98.7109 53.5918 98.1367C53.7969 97.6504 53.9375 96.9004 54.0137 95.8867C54.1484 94.4805 54.2715 92.6963 54.3828 90.5342H60.4385V100H59.2871V91.5098H55.4287C55.335 93.3145 55.2295 94.7881 55.1123 95.9307ZM63.5762 100V90.5342H64.7275V98.1631H64.8418L70.1592 90.5342H71.3105V100H70.1592V92.3711H70.0537L64.7275 100H63.5762ZM74.4395 90.5342H75.5908V94.5947H80.9082V90.5342H82.0596V100H80.9082V95.5703H75.5908V100H74.4395V90.5342ZM88.0625 99.1387C88.9121 99.1387 89.6211 98.8838 90.1895 98.374C90.7637 97.8584 91.0508 97.2256 91.0508 96.4756V95.3682L88.2471 95.5703C86.6592 95.6816 85.8652 96.2793 85.8652 97.3633C85.8652 97.9023 86.0732 98.333 86.4893 98.6553C86.8936 98.9775 87.418 99.1387 88.0625 99.1387ZM87.8691 100.158C86.9316 100.158 86.167 99.9062 85.5752 99.4023C84.9775 98.8926 84.6787 98.2188 84.6787 97.3809C84.6787 96.5605 84.9746 95.9131 85.5664 95.4385C86.1465 94.9697 86.9873 94.6973 88.0889 94.6211L91.0508 94.4277V93.5137C91.0508 92.834 90.8516 92.3125 90.4531 91.9492C90.0488 91.5859 89.4629 91.4043 88.6953 91.4043C88.0449 91.4043 87.5 91.5332 87.0605 91.791C86.6152 92.0547 86.3369 92.415 86.2256 92.8721H85.0566C85.168 92.1221 85.5605 91.5186 86.2344 91.0615C86.9023 90.6045 87.7344 90.376 88.7305 90.376C89.8379 90.376 90.6963 90.6514 91.3057 91.2021C91.9092 91.7471 92.2109 92.5146 92.2109 93.5049V100H91.1035V98.374H90.998C90.7109 98.9365 90.292 99.373 89.7412 99.6836C89.1904 100 88.5664 100.158 87.8691 100.158Z" fill="white"/>
<path d="M29.5625 120.534H30.7139V129.024H34.8008V120.534H35.9521V129.024H40.0303V120.534H41.1816V130H29.5625V120.534ZM47.1758 129.139C48.0254 129.139 48.7344 128.884 49.3027 128.374C49.877 127.858 50.1641 127.226 50.1641 126.476V125.368L47.3604 125.57C45.7725 125.682 44.9785 126.279 44.9785 127.363C44.9785 127.902 45.1865 128.333 45.6025 128.655C46.0068 128.978 46.5312 129.139 47.1758 129.139ZM46.9824 130.158C46.0449 130.158 45.2803 129.906 44.6885 129.402C44.0908 128.893 43.792 128.219 43.792 127.381C43.792 126.561 44.0879 125.913 44.6797 125.438C45.2598 124.97 46.1006 124.697 47.2021 124.621L50.1641 124.428V123.514C50.1641 122.834 49.9648 122.312 49.5664 121.949C49.1621 121.586 48.5762 121.404 47.8086 121.404C47.1582 121.404 46.6133 121.533 46.1738 121.791C45.7285 122.055 45.4502 122.415 45.3389 122.872H44.1699C44.2812 122.122 44.6738 121.519 45.3477 121.062C46.0156 120.604 46.8477 120.376 47.8438 120.376C48.9512 120.376 49.8096 120.651 50.4189 121.202C51.0225 121.747 51.3242 122.515 51.3242 123.505V130H50.2168V128.374H50.1113C49.8242 128.937 49.4053 129.373 48.8545 129.684C48.3037 130 47.6797 130.158 46.9824 130.158ZM54.5586 130V120.534H55.9473L59.665 128.4H59.7705L63.4707 120.534H64.8066V130H63.6553V122.644H63.5234L60.1484 129.815H59.2432L55.833 122.644H55.71V130H54.5586ZM74.3164 121.51H69.0869V130H67.9355V120.534H75.4678V130H74.3164V121.51ZM81.4707 129.139C82.3203 129.139 83.0293 128.884 83.5977 128.374C84.1719 127.858 84.459 127.226 84.459 126.476V125.368L81.6553 125.57C80.0674 125.682 79.2734 126.279 79.2734 127.363C79.2734 127.902 79.4814 128.333 79.8975 128.655C80.3018 128.978 80.8262 129.139 81.4707 129.139ZM81.2773 130.158C80.3398 130.158 79.5752 129.906 78.9834 129.402C78.3857 128.893 78.0869 128.219 78.0869 127.381C78.0869 126.561 78.3828 125.913 78.9746 125.438C79.5547 124.97 80.3955 124.697 81.4971 124.621L84.459 124.428V123.514C84.459 122.834 84.2598 122.312 83.8613 121.949C83.457 121.586 82.8711 121.404 82.1035 121.404C81.4531 121.404 80.9082 121.533 80.4688 121.791C80.0234 122.055 79.7451 122.415 79.6338 122.872H78.4648C78.5762 122.122 78.9688 121.519 79.6426 121.062C80.3105 120.604 81.1426 120.376 82.1387 120.376C83.2461 120.376 84.1045 120.651 84.7139 121.202C85.3174 121.747 85.6191 122.515 85.6191 123.505V130H84.5117V128.374H84.4062C84.1191 128.937 83.7002 129.373 83.1494 129.684C82.5986 130 81.9746 130.158 81.2773 130.158ZM88.8535 120.534H90.0049V124.595H95.3223V120.534H96.4736V130H95.3223V125.57H90.0049V130H88.8535V120.534ZM106.124 123.32C105.972 122.758 105.664 122.304 105.201 121.958C104.709 121.595 104.111 121.413 103.408 121.413C102.465 121.413 101.718 121.759 101.167 122.45C100.61 123.142 100.332 124.07 100.332 125.236C100.332 126.42 100.61 127.36 101.167 128.058C101.724 128.761 102.471 129.112 103.408 129.112C104.111 129.112 104.7 128.951 105.175 128.629C105.655 128.307 105.969 127.855 106.115 127.275H107.284C107.138 128.143 106.728 128.834 106.054 129.35C105.356 129.889 104.478 130.158 103.417 130.158C102.11 130.158 101.073 129.713 100.306 128.822C99.5322 127.938 99.1455 126.742 99.1455 125.236C99.1455 123.754 99.5293 122.573 100.297 121.694C101.07 120.815 102.107 120.376 103.408 120.376C104.463 120.376 105.348 120.66 106.062 121.229C106.736 121.768 107.146 122.465 107.293 123.32H106.124ZM111.38 124.683L115.59 120.534H117.014L112.347 125.078L117.225 130H115.704L111.38 125.605H111.011V130H109.859V120.534H111.011V124.683H111.38ZM122.902 129.112C123.875 129.112 124.637 128.77 125.188 128.084C125.738 127.404 126.014 126.464 126.014 125.263C126.014 124.062 125.738 123.121 125.188 122.441C124.637 121.756 123.875 121.413 122.902 121.413C121.93 121.413 121.168 121.756 120.617 122.441C120.066 123.121 119.791 124.062 119.791 125.263C119.791 126.464 120.066 127.404 120.617 128.084C121.168 128.77 121.93 129.112 122.902 129.112ZM122.902 130.158C121.578 130.158 120.532 129.719 119.765 128.84C118.991 127.967 118.604 126.774 118.604 125.263C118.604 123.751 118.991 122.559 119.765 121.686C120.532 120.812 121.578 120.376 122.902 120.376C124.227 120.376 125.275 120.812 126.049 121.686C126.822 122.559 127.209 123.751 127.209 125.263C127.209 126.774 126.822 127.967 126.049 128.84C125.275 129.719 124.227 130.158 122.902 130.158ZM133.616 121.396C132.755 121.396 132.049 121.688 131.498 122.274C130.947 122.866 130.646 123.648 130.593 124.621H136.49C136.479 123.643 136.212 122.86 135.69 122.274C135.163 121.688 134.472 121.396 133.616 121.396ZM137.545 127.662C137.311 128.436 136.848 129.045 136.156 129.49C135.465 129.936 134.624 130.158 133.634 130.158C132.333 130.158 131.302 129.716 130.54 128.831C129.778 127.952 129.397 126.766 129.397 125.271C129.397 123.783 129.781 122.597 130.549 121.712C131.311 120.821 132.336 120.376 133.625 120.376C134.885 120.376 135.878 120.795 136.604 121.633C137.331 122.471 137.694 123.613 137.694 125.061V125.57H130.584V125.623C130.613 126.695 130.906 127.548 131.463 128.181C132.014 128.813 132.746 129.13 133.66 129.13C135.049 129.13 135.954 128.641 136.376 127.662H137.545Z" fill="white"/>
<path d="M36.0752 153.32C35.9229 152.758 35.6152 152.304 35.1523 151.958C34.6602 151.595 34.0625 151.413 33.3594 151.413C32.416 151.413 31.6689 151.759 31.1182 152.45C30.5615 153.142 30.2832 154.07 30.2832 155.236C30.2832 156.42 30.5615 157.36 31.1182 158.058C31.6748 158.761 32.4219 159.112 33.3594 159.112C34.0625 159.112 34.6514 158.951 35.126 158.629C35.6064 158.307 35.9199 157.855 36.0664 157.275H37.2354C37.0889 158.143 36.6787 158.834 36.0049 159.35C35.3076 159.889 34.4287 160.158 33.3682 160.158C32.0615 160.158 31.0244 159.713 30.2568 158.822C29.4834 157.938 29.0967 156.742 29.0967 155.236C29.0967 153.754 29.4805 152.573 30.248 151.694C31.0215 150.815 32.0586 150.376 33.3594 150.376C34.4141 150.376 35.2988 150.66 36.0137 151.229C36.6875 151.768 37.0977 152.465 37.2441 153.32H36.0752ZM39.8105 160V150.534H40.9619V158.163H41.0762L46.3936 150.534H47.5449V160H46.3936V152.371H46.2881L40.9619 160H39.8105ZM55.1211 150.376C56.3223 150.376 57.2861 150.821 58.0127 151.712C58.7393 152.608 59.1025 153.792 59.1025 155.263C59.1025 156.733 58.7393 157.917 58.0127 158.813C57.2803 159.71 56.3164 160.158 55.1211 160.158C54.3887 160.158 53.7383 159.985 53.1699 159.64C52.6074 159.288 52.1943 158.808 51.9307 158.198H51.8252V163.085H50.6738V150.534H51.7725V152.468H51.8779C52.1709 151.817 52.6045 151.308 53.1787 150.938C53.7529 150.563 54.4004 150.376 55.1211 150.376ZM54.8662 159.112C55.8037 159.112 56.5449 158.767 57.0898 158.075C57.6406 157.384 57.916 156.449 57.916 155.271C57.916 154.088 57.6436 153.15 57.0986 152.459C56.5479 151.762 55.8066 151.413 54.875 151.413C53.9492 151.413 53.2021 151.765 52.6338 152.468C52.0713 153.171 51.79 154.103 51.79 155.263C51.79 156.423 52.0713 157.354 52.6338 158.058C53.1963 158.761 53.9404 159.112 54.8662 159.112ZM65.5977 159.112C66.5703 159.112 67.332 158.77 67.8828 158.084C68.4336 157.404 68.709 156.464 68.709 155.263C68.709 154.062 68.4336 153.121 67.8828 152.441C67.332 151.756 66.5703 151.413 65.5977 151.413C64.625 151.413 63.8633 151.756 63.3125 152.441C62.7617 153.121 62.4863 154.062 62.4863 155.263C62.4863 156.464 62.7617 157.404 63.3125 158.084C63.8633 158.77 64.625 159.112 65.5977 159.112ZM65.5977 160.158C64.2734 160.158 63.2275 159.719 62.46 158.84C61.6865 157.967 61.2998 156.774 61.2998 155.263C61.2998 153.751 61.6865 152.559 62.46 151.686C63.2275 150.812 64.2734 150.376 65.5977 150.376C66.9219 150.376 67.9707 150.812 68.7441 151.686C69.5176 152.559 69.9043 153.751 69.9043 155.263C69.9043 156.774 69.5176 157.967 68.7441 158.84C67.9707 159.719 66.9219 160.158 65.5977 160.158ZM78.9395 151.51H73.71V160H72.5586V150.534H80.0908V160H78.9395V151.51ZM89.6182 154.683L93.8281 150.534H95.252L90.585 155.078L95.4629 160H93.9424L89.6182 155.605H89.249V160H88.0977V150.534H89.249V154.683H89.6182ZM99.585 155.931C99.4795 157.29 99.2627 158.286 98.9346 158.919C98.5303 159.692 97.9062 160.079 97.0625 160.079C96.8691 160.079 96.6934 160.05 96.5352 159.991V158.928C96.6758 158.975 96.834 158.998 97.0098 158.998C97.4785 158.998 97.8301 158.711 98.0645 158.137C98.2695 157.65 98.4102 156.9 98.4863 155.887C98.6211 154.48 98.7441 152.696 98.8555 150.534H104.911V160H103.76V151.51H99.9014C99.8076 153.314 99.7021 154.788 99.585 155.931ZM108.743 163.296C108.509 163.296 108.33 163.284 108.207 163.261V162.268C108.33 162.285 108.503 162.294 108.726 162.294C109.165 162.294 109.52 162.168 109.789 161.916C110.053 161.676 110.296 161.254 110.519 160.65L110.712 160.062L107.161 150.534H108.409L111.274 158.743H111.38L114.236 150.534H115.467L111.784 160.457C111.368 161.57 110.955 162.32 110.545 162.707C110.123 163.1 109.522 163.296 108.743 163.296ZM121.505 160.167C120.128 160.167 119.07 159.713 118.332 158.805C117.564 157.855 117.181 156.446 117.181 154.577C117.181 152.151 117.5 150.385 118.139 149.277C118.883 147.982 120.175 147.309 122.015 147.256C122.202 147.256 122.595 147.238 123.192 147.203C124.042 147.15 124.733 147.007 125.267 146.772V147.801C124.646 148.076 123.975 148.231 123.254 148.267C122.908 148.308 122.507 148.328 122.05 148.328C120.726 148.363 119.768 148.756 119.176 149.506C118.66 150.156 118.326 151.22 118.174 152.696H118.279C118.93 151.337 120.058 150.657 121.663 150.657C122.923 150.657 123.931 151.073 124.687 151.905C125.454 152.755 125.838 153.897 125.838 155.333C125.838 156.827 125.448 158.008 124.669 158.875C123.89 159.736 122.835 160.167 121.505 160.167ZM121.505 159.13C122.483 159.13 123.254 158.793 123.816 158.119C124.373 157.445 124.651 156.517 124.651 155.333C124.651 154.196 124.373 153.306 123.816 152.661C123.254 152.017 122.483 151.694 121.505 151.694C120.526 151.694 119.759 152.017 119.202 152.661C118.646 153.306 118.367 154.196 118.367 155.333C118.367 156.517 118.646 157.445 119.202 158.119C119.759 158.793 120.526 159.13 121.505 159.13ZM128.51 150.534H129.661V154.595H134.979V150.534H136.13V160H134.979V155.57H129.661V160H128.51V150.534ZM139.268 160V150.534H140.419V158.163H140.533L145.851 150.534H147.002V160H145.851V152.371H145.745L140.419 160H139.268ZM151.651 154.683L155.861 150.534H157.285L152.618 155.078L157.496 160H155.976L151.651 155.605H151.282V160H150.131V150.534H151.282V154.683H151.651ZM159.729 160V150.534H160.88V158.163H160.994L166.312 150.534H167.463V160H166.312V152.371H166.206L160.88 160H159.729Z" fill="white"/>
<path d="M237.132 90.1143C237.132 88.8896 237.56 87.8965 238.415 87.1348C239.271 86.373 240.384 85.9922 241.755 85.9922C243.079 85.9922 244.157 86.335 244.989 87.0205C245.827 87.7119 246.246 88.6025 246.246 89.6924C246.246 90.3838 246.029 91.0693 245.596 91.749C245.162 92.4346 244.397 93.293 243.302 94.3242L240.876 96.6357V96.7939H246.431V99H237.281V97.1455L241.421 93.0938C242.312 92.2266 242.906 91.5732 243.205 91.1338C243.504 90.7061 243.653 90.2842 243.653 89.8682C243.653 89.3584 243.469 88.9395 243.1 88.6113C242.725 88.2891 242.247 88.1279 241.667 88.1279C241.052 88.1279 240.554 88.3125 240.173 88.6816C239.786 89.0449 239.593 89.5195 239.593 90.1055V90.1582H237.132V90.1143ZM253.743 99.3252C252.173 99.3252 250.942 98.7363 250.052 97.5586C249.155 96.375 248.707 94.7344 248.707 92.6367C248.707 90.5449 249.155 88.9131 250.052 87.7412C250.942 86.5752 252.173 85.9922 253.743 85.9922C255.308 85.9922 256.535 86.5752 257.426 87.7412C258.328 88.9189 258.779 90.5537 258.779 92.6455C258.779 94.7373 258.331 96.375 257.435 97.5586C256.544 98.7363 255.313 99.3252 253.743 99.3252ZM253.743 97.1631C254.481 97.1631 255.056 96.7793 255.466 96.0117C255.882 95.2266 256.09 94.1016 256.09 92.6367C256.09 91.1836 255.879 90.0674 255.457 89.2881C255.053 88.5381 254.481 88.1631 253.743 88.1631C253.011 88.1631 252.439 88.541 252.029 89.2969C251.607 90.0762 251.396 91.1895 251.396 92.6367C251.396 94.0957 251.607 95.2207 252.029 96.0117C252.434 96.7793 253.005 97.1631 253.743 97.1631ZM268.447 91.3184V99H265.89V89.3057H272.596V91.3184H268.447Z" fill="white"/>
<path d="M226.231 129.325C224.708 129.325 223.475 128.982 222.531 128.297C221.588 127.611 221.116 126.718 221.116 125.616C221.116 124.819 221.371 124.128 221.881 123.542C222.385 122.95 223.062 122.561 223.911 122.373V122.215C223.22 122.057 222.666 121.726 222.25 121.222C221.834 120.718 221.626 120.129 221.626 119.455C221.626 118.441 222.057 117.612 222.918 116.968C223.785 116.317 224.893 115.992 226.24 115.992C227.582 115.992 228.687 116.317 229.554 116.968C230.415 117.612 230.846 118.441 230.846 119.455C230.846 120.129 230.638 120.718 230.222 121.222C229.812 121.72 229.258 122.051 228.561 122.215V122.373C229.404 122.531 230.084 122.903 230.6 123.489C231.109 124.081 231.364 124.781 231.364 125.59C231.364 126.703 230.89 127.603 229.94 128.288C228.991 128.979 227.755 129.325 226.231 129.325ZM226.231 127.321C226.929 127.321 227.497 127.14 227.937 126.776C228.376 126.413 228.596 125.944 228.596 125.37C228.596 124.79 228.376 124.318 227.937 123.955C227.497 123.592 226.929 123.41 226.231 123.41C225.534 123.41 224.969 123.592 224.535 123.955C224.096 124.318 223.876 124.79 223.876 125.37C223.876 125.944 224.096 126.413 224.535 126.776C224.969 127.14 225.534 127.321 226.231 127.321ZM226.231 121.45C226.817 121.45 227.298 121.286 227.673 120.958C228.042 120.636 228.227 120.22 228.227 119.71C228.227 119.194 228.042 118.775 227.673 118.453C227.298 118.125 226.817 117.961 226.231 117.961C225.646 117.961 225.168 118.125 224.799 118.453C224.43 118.775 224.245 119.194 224.245 119.71C224.245 120.22 224.43 120.636 224.799 120.958C225.168 121.286 225.646 121.45 226.231 121.45ZM238.562 129.325C236.992 129.325 235.762 128.736 234.871 127.559C233.975 126.375 233.526 124.734 233.526 122.637C233.526 120.545 233.975 118.913 234.871 117.741C235.762 116.575 236.992 115.992 238.562 115.992C240.127 115.992 241.354 116.575 242.245 117.741C243.147 118.919 243.599 120.554 243.599 122.646C243.599 124.737 243.15 126.375 242.254 127.559C241.363 128.736 240.133 129.325 238.562 129.325ZM238.562 127.163C239.301 127.163 239.875 126.779 240.285 126.012C240.701 125.227 240.909 124.102 240.909 122.637C240.909 121.184 240.698 120.067 240.276 119.288C239.872 118.538 239.301 118.163 238.562 118.163C237.83 118.163 237.259 118.541 236.849 119.297C236.427 120.076 236.216 121.189 236.216 122.637C236.216 124.096 236.427 125.221 236.849 126.012C237.253 126.779 237.824 127.163 238.562 127.163ZM250.709 129V119.306H254.022L256.562 125.511H256.721L259.27 119.306H262.539V129H260.131V122.575H259.964L257.512 128.455H255.728L253.275 122.575H253.117V129H250.709ZM268.393 124.342C268.305 125.9 268.029 127.055 267.566 127.805C267.033 128.678 266.204 129.114 265.079 129.114C264.763 129.114 264.49 129.076 264.262 129V126.75C264.426 126.791 264.61 126.812 264.815 126.812C265.249 126.812 265.571 126.56 265.782 126.056C265.958 125.646 266.069 125.016 266.116 124.166L266.397 119.306H273.692V129H271.135V121.318H268.595L268.393 124.342Z" fill="white"/>
<path d="M238.231 159.325C236.708 159.325 235.475 158.982 234.531 158.297C233.588 157.611 233.116 156.718 233.116 155.616C233.116 154.819 233.371 154.128 233.881 153.542C234.385 152.95 235.062 152.561 235.911 152.373V152.215C235.22 152.057 234.666 151.726 234.25 151.222C233.834 150.718 233.626 150.129 233.626 149.455C233.626 148.441 234.057 147.612 234.918 146.968C235.785 146.317 236.893 145.992 238.24 145.992C239.582 145.992 240.687 146.317 241.554 146.968C242.415 147.612 242.846 148.441 242.846 149.455C242.846 150.129 242.638 150.718 242.222 151.222C241.812 151.72 241.258 152.051 240.561 152.215V152.373C241.404 152.531 242.084 152.903 242.6 153.489C243.109 154.081 243.364 154.781 243.364 155.59C243.364 156.703 242.89 157.603 241.94 158.288C240.991 158.979 239.755 159.325 238.231 159.325ZM238.231 157.321C238.929 157.321 239.497 157.14 239.937 156.776C240.376 156.413 240.596 155.944 240.596 155.37C240.596 154.79 240.376 154.318 239.937 153.955C239.497 153.592 238.929 153.41 238.231 153.41C237.534 153.41 236.969 153.592 236.535 153.955C236.096 154.318 235.876 154.79 235.876 155.37C235.876 155.944 236.096 156.413 236.535 156.776C236.969 157.14 237.534 157.321 238.231 157.321ZM238.231 151.45C238.817 151.45 239.298 151.286 239.673 150.958C240.042 150.636 240.227 150.22 240.227 149.71C240.227 149.194 240.042 148.775 239.673 148.453C239.298 148.125 238.817 147.961 238.231 147.961C237.646 147.961 237.168 148.125 236.799 148.453C236.43 148.775 236.245 149.194 236.245 149.71C236.245 150.22 236.43 150.636 236.799 150.958C237.168 151.286 237.646 151.45 238.231 151.45ZM250.475 159V149.306H253.788L256.328 155.511H256.486L259.035 149.306H262.305V159H259.896V152.575H259.729L257.277 158.455H255.493L253.041 152.575H252.883V159H250.475ZM268.158 154.342C268.07 155.9 267.795 157.055 267.332 157.805C266.799 158.678 265.97 159.114 264.845 159.114C264.528 159.114 264.256 159.076 264.027 159V156.75C264.191 156.791 264.376 156.812 264.581 156.812C265.015 156.812 265.337 156.56 265.548 156.056C265.724 155.646 265.835 155.016 265.882 154.166L266.163 149.306H273.458V159H270.9V151.318H268.36L268.158 154.342Z" fill="white"/>
<line y1="240.5" x2="310" y2="240.5" stroke="white" stroke-opacity="0.5"/>
<defs>
<filter id="filter0_b" x="-20" y="-20" width="350" height="350" filterUnits="userSpaceOnUse" color-interpolation-filters="sRGB">
<feFlood flood-opacity="0" result="BackgroundImageFix"/>
<feGaussianBlur in="BackgroundImage" stdDeviation="10"/>
<feComposite in2="SourceAlpha" operator="in" result="effect1_backgroundBlur"/>
<feBlend mode="normal" in="SourceGraphic" in2="effect1_backgroundBlur" result="shape"/>
</filter>
</defs>
</svg>
