<svg width="310" height="310" viewBox="0 0 310 310" fill="none" xmlns="http://www.w3.org/2000/svg">
<g filter="url(#filter0_b)">
<rect width="310" height="310" rx="8" fill="white" fill-opacity="0.2"/>
</g>
<path d="M59.8105 26.8623C61.8125 26.8623 63.4385 27.4971 64.6885 28.7666C65.9482 30.0459 66.5781 31.6914 66.5781 33.7031C66.5781 35.6758 65.9434 37.2969 64.6738 38.5664C63.3945 39.8262 61.7637 40.4561 59.7812 40.4561H54.4639V48H51.8271V26.8623H59.8105ZM54.4639 38.1123H59.1221C60.626 38.1123 61.793 37.7266 62.623 36.9551C63.4531 36.1836 63.8682 35.0996 63.8682 33.7031C63.8682 32.248 63.458 31.1348 62.6377 30.3633C61.8271 29.5918 60.6553 29.2061 59.1221 29.2061H54.4639V38.1123ZM80.084 26.3643C83.082 26.3643 85.4453 27.3604 87.1738 29.3525C88.8926 31.335 89.752 34.0254 89.752 37.4238C89.752 40.8223 88.8975 43.5127 87.1885 45.4951C85.4502 47.4971 83.082 48.498 80.084 48.498C77.0664 48.498 74.6885 47.4971 72.9502 45.4951C71.2314 43.5127 70.3721 40.8223 70.3721 37.4238C70.3721 34.0254 71.2461 31.3301 72.9941 29.3379C74.7324 27.3555 77.0957 26.3643 80.084 26.3643ZM80.084 28.7959C77.9355 28.7959 76.2314 29.5723 74.9717 31.125C73.7119 32.6777 73.082 34.7773 73.082 37.4238C73.082 40.0703 73.7021 42.165 74.9424 43.708C76.1924 45.2803 77.9062 46.0664 80.084 46.0664C82.2422 46.0664 83.9463 45.2803 85.1963 43.708C86.4268 42.1553 87.042 40.0605 87.042 37.4238C87.042 34.7676 86.4219 32.668 85.1816 31.125C83.9414 29.5723 82.2422 28.7959 80.084 28.7959ZM97.7354 36.0322H100.592C101.832 36.0322 102.853 35.6807 103.653 34.9775C104.444 34.2646 104.84 33.3564 104.84 32.2529C104.84 31.1787 104.474 30.3242 103.741 29.6895C102.989 29.0352 101.954 28.708 100.636 28.708C99.3271 28.708 98.2725 29.0254 97.4717 29.6602C96.6611 30.2852 96.2021 31.1592 96.0947 32.2822H93.5312C93.668 30.4463 94.376 29.001 95.6553 27.9463C96.9443 26.8916 98.6387 26.3643 100.738 26.3643C102.721 26.3643 104.347 26.8965 105.616 27.9609C106.886 29.0156 107.521 30.3682 107.521 32.0186C107.521 33.1709 107.174 34.1963 106.48 35.0947C105.777 36.0029 104.864 36.5938 103.741 36.8672V37.1016C105.128 37.248 106.246 37.7705 107.096 38.6689C107.984 39.6162 108.429 40.8271 108.429 42.3018C108.429 44.04 107.696 45.5098 106.231 46.7109C104.767 47.9023 102.97 48.498 100.841 48.498C98.6045 48.498 96.7832 47.9463 95.377 46.8428C93.9609 45.749 93.2041 44.2988 93.1064 42.4922H95.6553C95.7725 43.6055 96.2949 44.4941 97.2227 45.1582C98.1602 45.8223 99.3564 46.1543 100.812 46.1543C102.286 46.1543 103.478 45.7832 104.386 45.041C105.274 44.3184 105.719 43.3809 105.719 42.2285C105.719 41.0273 105.284 40.0898 104.415 39.416C103.526 38.7227 102.291 38.376 100.709 38.376H97.7354V36.0322ZM124.498 41.9502H116.09L113.966 48H111.197L118.99 26.8623H121.598L129.391 48H126.622L124.498 41.9502ZM116.866 39.709H123.722L120.411 30.2754H120.177L116.866 39.709ZM145.943 48V29.2354H138.224L137.55 40.0898C137.384 42.7754 136.91 44.7529 136.129 46.0225C135.27 47.4287 133.946 48.1318 132.159 48.1318C131.749 48.1318 131.407 48.083 131.134 47.9854V45.627C131.349 45.6855 131.612 45.7148 131.925 45.7148C133.028 45.7148 133.824 45.1729 134.312 44.0889C134.703 43.2393 134.952 41.8721 135.06 39.9873L135.821 26.8623H148.58V48H145.943ZM168.546 31.1836H168.312L156.886 48H154.278V26.8623H156.886V43.7373H157.12L168.546 26.8623H171.153V48H168.546V31.1836ZM191.075 48V38.376H179.474V48H176.837V26.8623H179.474V36.0029H191.075V26.8623H193.712V48H191.075ZM203.453 40.2217C203.297 42.7119 202.804 44.4551 201.974 45.4512V45.627H212.228V29.2354H204.142L203.453 40.2217ZM199.586 52.1748H197.14V45.627H198.707C200.055 44.9141 200.812 43.0928 200.978 40.1631L201.783 26.8623H214.864V45.627H217.501V52.1748H215.055V48H199.586V52.1748ZM233.57 41.9502H225.162L223.038 48H220.27L228.062 26.8623H230.67L238.463 48H235.694L233.57 41.9502ZM225.938 39.709H232.794L229.483 30.2754H229.249L225.938 39.709Z" fill="white"/>
<path d="M39.5977 281.496H31.3594V279.574C32.9062 276.824 35.3203 272.996 38.6016 268.09H41.6602V279.609H44.0625V281.496H41.6602V285H39.5977V281.496ZM33.5156 279.621H39.6094V270.047H39.4688C37.6406 272.703 35.6562 275.848 33.5156 279.48V279.621ZM52.7227 285.387C51.2852 285.387 50.0703 284.988 49.0781 284.191C48.0781 283.402 47.4453 282.328 47.1797 280.969H49.3477C49.5742 281.758 49.9883 282.379 50.5898 282.832C51.1992 283.285 51.918 283.512 52.7461 283.512C54.1211 283.512 55.1875 282.918 55.9453 281.73C56.7109 280.543 57.1211 278.824 57.1758 276.574H56.9883C56.5742 277.395 55.9727 278.031 55.1836 278.484C54.3945 278.945 53.4961 279.176 52.4883 279.176C50.8789 279.176 49.5508 278.641 48.5039 277.57C47.457 276.508 46.9336 275.156 46.9336 273.516C46.9336 271.812 47.4883 270.418 48.5977 269.332C49.707 268.238 51.1289 267.691 52.8633 267.691C55.4727 267.691 57.3203 268.973 58.4062 271.535C58.9531 272.816 59.2266 274.387 59.2266 276.246C59.2266 279.152 58.6602 281.402 57.5273 282.996C56.3945 284.59 54.793 285.387 52.7227 285.387ZM52.8633 277.348C53.9805 277.348 54.9023 276.988 55.6289 276.27C56.3477 275.551 56.707 274.633 56.707 273.516C56.707 272.383 56.3398 271.438 55.6055 270.68C54.8789 269.922 53.9727 269.543 52.8867 269.543C51.8008 269.543 50.8945 269.918 50.168 270.668C49.4336 271.41 49.0664 272.336 49.0664 273.445C49.0664 274.602 49.418 275.539 50.1211 276.258C50.832 276.984 51.7461 277.348 52.8633 277.348ZM68.3086 285.398C66.4023 285.398 64.9258 284.625 63.8789 283.078C62.832 281.531 62.3086 279.352 62.3086 276.539C62.3086 273.75 62.8359 271.578 63.8906 270.023C64.9453 268.469 66.418 267.691 68.3086 267.691C70.1914 267.691 71.6562 268.473 72.7031 270.035C73.7578 271.598 74.2852 273.777 74.2852 276.574C74.2852 279.379 73.7656 281.551 72.7266 283.09C71.6797 284.629 70.207 285.398 68.3086 285.398ZM68.3086 283.559C69.5586 283.559 70.5117 282.957 71.168 281.754C71.832 280.543 72.1641 278.805 72.1641 276.539C72.1641 274.297 71.832 272.57 71.168 271.359C70.4961 270.148 69.543 269.543 68.3086 269.543C67.0742 269.543 66.1172 270.152 65.4375 271.371C64.7656 272.582 64.4297 274.305 64.4297 276.539C64.4297 278.797 64.7656 280.531 65.4375 281.742C66.1016 282.953 67.0586 283.559 68.3086 283.559ZM81.6328 276.621H84.3281C85.5078 276.621 86.4102 276.32 87.0352 275.719C87.6289 275.141 87.9258 274.328 87.9258 273.281C87.9258 272.242 87.6289 271.438 87.0352 270.867C86.418 270.266 85.5156 269.965 84.3281 269.965H81.6328V276.621ZM81.6328 282.305V285H79.5234V282.305H77.1797V280.711H79.5234V278.449H77.1797V276.621H79.5234V268.09H84.8789C86.4414 268.09 87.707 268.586 88.6758 269.578C89.6211 270.539 90.0938 271.773 90.0938 273.281C90.0938 274.789 89.6172 276.023 88.6641 276.984C87.6953 277.961 86.4258 278.449 84.8555 278.449H81.6328V280.711H86.4961V282.305H81.6328Z" fill="white"/>
<path d="M29.5557 100V90.5342H30.9443L34.6621 98.4004H34.7676L38.4678 90.5342H39.8037V100H38.6523V92.6436H38.5205L35.1455 99.8154H34.2402L30.8301 92.6436H30.707V100H29.5557ZM45.7979 99.1387C46.6475 99.1387 47.3564 98.8838 47.9248 98.374C48.499 97.8584 48.7861 97.2256 48.7861 96.4756V95.3682L45.9824 95.5703C44.3945 95.6816 43.6006 96.2793 43.6006 97.3633C43.6006 97.9023 43.8086 98.333 44.2246 98.6553C44.6289 98.9775 45.1533 99.1387 45.7979 99.1387ZM45.6045 100.158C44.667 100.158 43.9023 99.9062 43.3105 99.4023C42.7129 98.8926 42.4141 98.2188 42.4141 97.3809C42.4141 96.5605 42.71 95.9131 43.3018 95.4385C43.8818 94.9697 44.7227 94.6973 45.8242 94.6211L48.7861 94.4277V93.5137C48.7861 92.834 48.5869 92.3125 48.1885 91.9492C47.7842 91.5859 47.1982 91.4043 46.4307 91.4043C45.7803 91.4043 45.2354 91.5332 44.7959 91.791C44.3506 92.0547 44.0723 92.415 43.9609 92.8721H42.792C42.9033 92.1221 43.2959 91.5186 43.9697 91.0615C44.6377 90.6045 45.4697 90.376 46.4658 90.376C47.5732 90.376 48.4316 90.6514 49.041 91.2021C49.6445 91.7471 49.9463 92.5146 49.9463 93.5049V100H48.8389V98.374H48.7334C48.4463 98.9365 48.0273 99.373 47.4766 99.6836C46.9258 100 46.3018 100.158 45.6045 100.158ZM55.1055 95.9307C55 97.29 54.7832 98.2861 54.4551 98.9189C54.0508 99.6924 53.4268 100.079 52.583 100.079C52.3896 100.079 52.2139 100.05 52.0557 99.9912V98.9277C52.1963 98.9746 52.3545 98.998 52.5303 98.998C52.999 98.998 53.3506 98.7109 53.585 98.1367C53.79 97.6504 53.9307 96.9004 54.0068 95.8867C54.1416 94.4805 54.2646 92.6963 54.376 90.5342H60.4316V100H59.2803V91.5098H55.4219C55.3281 93.3145 55.2227 94.7881 55.1055 95.9307ZM63.5693 100V90.5342H64.7207V98.1631H64.835L70.1523 90.5342H71.3037V100H70.1523V92.3711H70.0469L64.7207 100H63.5693ZM74.4326 90.5342H75.584V94.5947H80.9014V90.5342H82.0527V100H80.9014V95.5703H75.584V100H74.4326V90.5342ZM88.0557 99.1387C88.9053 99.1387 89.6143 98.8838 90.1826 98.374C90.7568 97.8584 91.0439 97.2256 91.0439 96.4756V95.3682L88.2402 95.5703C86.6523 95.6816 85.8584 96.2793 85.8584 97.3633C85.8584 97.9023 86.0664 98.333 86.4824 98.6553C86.8867 98.9775 87.4111 99.1387 88.0557 99.1387ZM87.8623 100.158C86.9248 100.158 86.1602 99.9062 85.5684 99.4023C84.9707 98.8926 84.6719 98.2188 84.6719 97.3809C84.6719 96.5605 84.9678 95.9131 85.5596 95.4385C86.1396 94.9697 86.9805 94.6973 88.082 94.6211L91.0439 94.4277V93.5137C91.0439 92.834 90.8447 92.3125 90.4463 91.9492C90.042 91.5859 89.4561 91.4043 88.6885 91.4043C88.0381 91.4043 87.4932 91.5332 87.0537 91.791C86.6084 92.0547 86.3301 92.415 86.2188 92.8721H85.0498C85.1611 92.1221 85.5537 91.5186 86.2275 91.0615C86.8955 90.6045 87.7275 90.376 88.7236 90.376C89.8311 90.376 90.6895 90.6514 91.2988 91.2021C91.9023 91.7471 92.2041 92.5146 92.2041 93.5049V100H91.0967V98.374H90.9912C90.7041 98.9365 90.2852 99.373 89.7344 99.6836C89.1836 100 88.5596 100.158 87.8623 100.158Z" fill="white"/>
<path d="M30.707 121.51V124.621H33.0713C33.7275 124.621 34.2314 124.48 34.583 124.199C34.9229 123.924 35.0928 123.531 35.0928 123.021C35.0928 122.553 34.9375 122.187 34.627 121.923C34.3047 121.647 33.8477 121.51 33.2559 121.51H30.707ZM30.707 125.597V129.024H33.3965C34.8262 129.024 35.541 128.447 35.541 127.293C35.541 126.162 34.75 125.597 33.168 125.597H30.707ZM29.5557 120.534H33.3877C34.2725 120.534 34.9697 120.748 35.4795 121.176C35.9775 121.604 36.2266 122.184 36.2266 122.916C36.2266 123.426 36.0713 123.877 35.7607 124.27C35.4502 124.656 35.0518 124.896 34.5654 124.99V125.104C35.1865 125.175 35.6904 125.409 36.0771 125.808C36.4814 126.212 36.6836 126.713 36.6836 127.311C36.6836 128.154 36.3994 128.813 35.8311 129.288C35.2568 129.763 34.4541 130 33.4229 130H29.5557V120.534ZM43.1436 129.112C44.1162 129.112 44.8779 128.77 45.4287 128.084C45.9795 127.404 46.2549 126.464 46.2549 125.263C46.2549 124.062 45.9795 123.121 45.4287 122.441C44.8779 121.756 44.1162 121.413 43.1436 121.413C42.1709 121.413 41.4092 121.756 40.8584 122.441C40.3076 123.121 40.0322 124.062 40.0322 125.263C40.0322 126.464 40.3076 127.404 40.8584 128.084C41.4092 128.77 42.1709 129.112 43.1436 129.112ZM43.1436 130.158C41.8193 130.158 40.7734 129.719 40.0059 128.84C39.2324 127.967 38.8457 126.774 38.8457 125.263C38.8457 123.751 39.2324 122.559 40.0059 121.686C40.7734 120.812 41.8193 120.376 43.1436 120.376C44.4678 120.376 45.5166 120.812 46.29 121.686C47.0635 122.559 47.4502 123.751 47.4502 125.263C47.4502 126.774 47.0635 127.967 46.29 128.84C45.5166 129.719 44.4678 130.158 43.1436 130.158ZM56.2832 121.51H52.1787C52.0908 123.186 51.9824 124.659 51.8535 125.931C51.7305 127.39 51.4463 128.386 51.001 128.919V129.024H56.2832V121.51ZM48.8564 132.505V129.024H49.6211C50.2539 128.614 50.6377 127.568 50.7725 125.887C50.8076 125.541 50.9336 123.757 51.1504 120.534H57.4346V129.024H58.9639V132.505H57.874V130H49.9463V132.505H48.8564ZM62.6113 124.683L66.8213 120.534H68.2451L63.5781 125.078L68.4561 130H66.9355L62.6113 125.605H62.2422V130H61.0908V120.534H62.2422V124.683H62.6113ZM73.29 129.139C74.1396 129.139 74.8486 128.884 75.417 128.374C75.9912 127.858 76.2783 127.226 76.2783 126.476V125.368L73.4746 125.57C71.8867 125.682 71.0928 126.279 71.0928 127.363C71.0928 127.902 71.3008 128.333 71.7168 128.655C72.1211 128.978 72.6455 129.139 73.29 129.139ZM73.0967 130.158C72.1592 130.158 71.3945 129.906 70.8027 129.402C70.2051 128.893 69.9062 128.219 69.9062 127.381C69.9062 126.561 70.2021 125.913 70.7939 125.438C71.374 124.97 72.2148 124.697 73.3164 124.621L76.2783 124.428V123.514C76.2783 122.834 76.0791 122.312 75.6807 121.949C75.2764 121.586 74.6904 121.404 73.9229 121.404C73.2725 121.404 72.7275 121.533 72.2881 121.791C71.8428 122.055 71.5645 122.415 71.4531 122.872H70.2842C70.3955 122.122 70.7881 121.519 71.4619 121.062C72.1299 120.604 72.9619 120.376 73.958 120.376C75.0654 120.376 75.9238 120.651 76.5332 121.202C77.1367 121.747 77.4385 122.515 77.4385 123.505V130H76.3311V128.374H76.2256C75.9385 128.937 75.5195 129.373 74.9688 129.684C74.418 130 73.7939 130.158 73.0967 130.158Z" fill="white"/>
<path d="M36.0684 153.32C35.916 152.758 35.6084 152.304 35.1455 151.958C34.6533 151.595 34.0557 151.413 33.3525 151.413C32.4092 151.413 31.6621 151.759 31.1113 152.45C30.5547 153.142 30.2764 154.07 30.2764 155.236C30.2764 156.42 30.5547 157.36 31.1113 158.058C31.668 158.761 32.415 159.112 33.3525 159.112C34.0557 159.112 34.6445 158.951 35.1191 158.629C35.5996 158.307 35.9131 157.855 36.0596 157.275H37.2285C37.082 158.143 36.6719 158.834 35.998 159.35C35.3008 159.889 34.4219 160.158 33.3613 160.158C32.0547 160.158 31.0176 159.713 30.25 158.822C29.4766 157.938 29.0898 156.742 29.0898 155.236C29.0898 153.754 29.4736 152.573 30.2412 151.694C31.0146 150.815 32.0518 150.376 33.3525 150.376C34.4072 150.376 35.292 150.66 36.0068 151.229C36.6807 151.768 37.0908 152.465 37.2373 153.32H36.0684ZM39.8037 160V150.534H40.9551V158.163H41.0693L46.3867 150.534H47.5381V160H46.3867V152.371H46.2812L40.9551 160H39.8037ZM55.1143 150.376C56.3154 150.376 57.2793 150.821 58.0059 151.712C58.7324 152.608 59.0957 153.792 59.0957 155.263C59.0957 156.733 58.7324 157.917 58.0059 158.813C57.2734 159.71 56.3096 160.158 55.1143 160.158C54.3818 160.158 53.7314 159.985 53.1631 159.64C52.6006 159.288 52.1875 158.808 51.9238 158.198H51.8184V163.085H50.667V150.534H51.7656V152.468H51.8711C52.1641 151.817 52.5977 151.308 53.1719 150.938C53.7461 150.563 54.3936 150.376 55.1143 150.376ZM54.8594 159.112C55.7969 159.112 56.5381 158.767 57.083 158.075C57.6338 157.384 57.9092 156.449 57.9092 155.271C57.9092 154.088 57.6367 153.15 57.0918 152.459C56.541 151.762 55.7998 151.413 54.8682 151.413C53.9424 151.413 53.1953 151.765 52.627 152.468C52.0645 153.171 51.7832 154.103 51.7832 155.263C51.7832 156.423 52.0645 157.354 52.627 158.058C53.1895 158.761 53.9336 159.112 54.8594 159.112ZM65.5908 159.112C66.5635 159.112 67.3252 158.77 67.876 158.084C68.4268 157.404 68.7021 156.464 68.7021 155.263C68.7021 154.062 68.4268 153.121 67.876 152.441C67.3252 151.756 66.5635 151.413 65.5908 151.413C64.6182 151.413 63.8564 151.756 63.3057 152.441C62.7549 153.121 62.4795 154.062 62.4795 155.263C62.4795 156.464 62.7549 157.404 63.3057 158.084C63.8564 158.77 64.6182 159.112 65.5908 159.112ZM65.5908 160.158C64.2666 160.158 63.2207 159.719 62.4531 158.84C61.6797 157.967 61.293 156.774 61.293 155.263C61.293 153.751 61.6797 152.559 62.4531 151.686C63.2207 150.812 64.2666 150.376 65.5908 150.376C66.915 150.376 67.9639 150.812 68.7373 151.686C69.5107 152.559 69.8975 153.751 69.8975 155.263C69.8975 156.774 69.5107 157.967 68.7373 158.84C67.9639 159.719 66.915 160.158 65.5908 160.158ZM78.9326 151.51H73.7031V160H72.5518V150.534H80.084V160H78.9326V151.51ZM89.2422 151.51V154.621H91.6064C92.2627 154.621 92.7666 154.48 93.1182 154.199C93.458 153.924 93.6279 153.531 93.6279 153.021C93.6279 152.553 93.4727 152.187 93.1621 151.923C92.8398 151.647 92.3828 151.51 91.791 151.51H89.2422ZM89.2422 155.597V159.024H91.9316C93.3613 159.024 94.0762 158.447 94.0762 157.293C94.0762 156.162 93.2852 155.597 91.7031 155.597H89.2422ZM88.0908 150.534H91.9229C92.8076 150.534 93.5049 150.748 94.0146 151.176C94.5127 151.604 94.7617 152.184 94.7617 152.916C94.7617 153.426 94.6064 153.877 94.2959 154.27C93.9854 154.656 93.5869 154.896 93.1006 154.99V155.104C93.7217 155.175 94.2256 155.409 94.6123 155.808C95.0166 156.212 95.2188 156.713 95.2188 157.311C95.2188 158.154 94.9346 158.813 94.3662 159.288C93.792 159.763 92.9893 160 91.958 160H88.0908V150.534ZM97.917 160V150.534H99.0684V158.163H99.1826L104.5 150.534H105.651V160H104.5V152.371H104.395L99.0684 160H97.917ZM108.78 150.534H109.932V159.024H114.019V150.534H115.17V159.024H119.248V150.534H120.399V160H108.78V150.534ZM123.528 150.534H124.68V154.595H129.997V150.534H131.148V160H129.997V155.57H124.68V160H123.528V150.534ZM134.286 160V150.534H135.438V158.163H135.552L140.869 150.534H142.021V160H140.869V152.371H140.764L135.438 160H134.286Z" fill="white"/>
<path d="M30.707 181.51V190H29.5557V180.534H35.5586V181.51H30.707ZM40.4717 189.139C41.3213 189.139 42.0303 188.884 42.5986 188.374C43.1729 187.858 43.46 187.226 43.46 186.476V185.368L40.6562 185.57C39.0684 185.682 38.2744 186.279 38.2744 187.363C38.2744 187.902 38.4824 188.333 38.8984 188.655C39.3027 188.978 39.8271 189.139 40.4717 189.139ZM40.2783 190.158C39.3408 190.158 38.5762 189.906 37.9844 189.402C37.3867 188.893 37.0879 188.219 37.0879 187.381C37.0879 186.561 37.3838 185.913 37.9756 185.438C38.5557 184.97 39.3965 184.697 40.498 184.621L43.46 184.428V183.514C43.46 182.834 43.2607 182.312 42.8623 181.949C42.458 181.586 41.8721 181.404 41.1045 181.404C40.4541 181.404 39.9092 181.533 39.4697 181.791C39.0244 182.055 38.7461 182.415 38.6348 182.872H37.4658C37.5771 182.122 37.9697 181.519 38.6436 181.062C39.3115 180.604 40.1436 180.376 41.1396 180.376C42.2471 180.376 43.1055 180.651 43.7148 181.202C44.3184 181.747 44.6201 182.515 44.6201 183.505V190H43.5127V188.374H43.4072C43.1201 188.937 42.7012 189.373 42.1504 189.684C41.5996 190 40.9756 190.158 40.2783 190.158ZM50.9922 190.167C49.9727 190.167 49.1289 189.93 48.4609 189.455C47.8047 188.986 47.4209 188.362 47.3096 187.583H48.4961C48.6016 188.069 48.8682 188.453 49.2959 188.734C49.7412 189.033 50.3066 189.183 50.9922 189.183C51.7363 189.183 52.3252 189.016 52.7588 188.682C53.1865 188.354 53.4004 187.911 53.4004 187.354C53.4004 186.177 52.5859 185.588 50.957 185.588H49.4805V184.612H50.957C51.6309 184.612 52.1494 184.469 52.5127 184.182C52.8701 183.9 53.0488 183.496 53.0488 182.969C53.0488 182.488 52.873 182.104 52.5215 181.817C52.1582 181.519 51.6484 181.369 50.9922 181.369C50.3359 181.369 49.7969 181.519 49.375 181.817C48.959 182.104 48.707 182.488 48.6191 182.969H47.4766C47.5938 182.189 47.957 181.565 48.5664 181.097C49.1992 180.616 50.0078 180.376 50.9922 180.376C51.9941 180.376 52.7822 180.607 53.3564 181.07C53.9072 181.521 54.1826 182.131 54.1826 182.898C54.1826 183.408 54.0244 183.854 53.708 184.234C53.3975 184.621 52.9932 184.867 52.4951 184.973V185.078C53.1279 185.189 53.623 185.436 53.9805 185.816C54.3555 186.203 54.543 186.695 54.543 187.293C54.543 188.166 54.2178 188.863 53.5674 189.385C52.917 189.906 52.0586 190.167 50.9922 190.167ZM57.1885 190V180.534H58.3398V188.163H58.4541L63.7715 180.534H64.9229V190H63.7715V182.371H63.666L58.3398 190H57.1885ZM72.499 180.376C73.7002 180.376 74.6641 180.821 75.3906 181.712C76.1172 182.608 76.4805 183.792 76.4805 185.263C76.4805 186.733 76.1172 187.917 75.3906 188.813C74.6582 189.71 73.6943 190.158 72.499 190.158C71.7666 190.158 71.1162 189.985 70.5479 189.64C69.9854 189.288 69.5723 188.808 69.3086 188.198H69.2031V193.085H68.0518V180.534H69.1504V182.468H69.2559C69.5488 181.817 69.9824 181.308 70.5566 180.938C71.1309 180.563 71.7783 180.376 72.499 180.376ZM72.2441 189.112C73.1816 189.112 73.9229 188.767 74.4678 188.075C75.0186 187.384 75.2939 186.449 75.2939 185.271C75.2939 184.088 75.0215 183.15 74.4766 182.459C73.9258 181.762 73.1846 181.413 72.2529 181.413C71.3271 181.413 70.5801 181.765 70.0117 182.468C69.4492 183.171 69.168 184.103 69.168 185.263C69.168 186.423 69.4492 187.354 70.0117 188.058C70.5742 188.761 71.3184 189.112 72.2441 189.112ZM82.9756 189.112C83.9482 189.112 84.71 188.77 85.2607 188.084C85.8115 187.404 86.0869 186.464 86.0869 185.263C86.0869 184.062 85.8115 183.121 85.2607 182.441C84.71 181.756 83.9482 181.413 82.9756 181.413C82.0029 181.413 81.2412 181.756 80.6904 182.441C80.1396 183.121 79.8643 184.062 79.8643 185.263C79.8643 186.464 80.1396 187.404 80.6904 188.084C81.2412 188.77 82.0029 189.112 82.9756 189.112ZM82.9756 190.158C81.6514 190.158 80.6055 189.719 79.8379 188.84C79.0645 187.967 78.6777 186.774 78.6777 185.263C78.6777 183.751 79.0645 182.559 79.8379 181.686C80.6055 180.812 81.6514 180.376 82.9756 180.376C84.2998 180.376 85.3486 180.812 86.1221 181.686C86.8955 182.559 87.2822 183.751 87.2822 185.263C87.2822 186.774 86.8955 187.967 86.1221 188.84C85.3486 189.719 84.2998 190.158 82.9756 190.158ZM91.0879 181.51V184.621H93.4521C94.1084 184.621 94.6123 184.48 94.9639 184.199C95.3037 183.924 95.4736 183.531 95.4736 183.021C95.4736 182.553 95.3184 182.187 95.0078 181.923C94.6855 181.647 94.2285 181.51 93.6367 181.51H91.0879ZM91.0879 185.597V189.024H93.7773C95.207 189.024 95.9219 188.447 95.9219 187.293C95.9219 186.162 95.1309 185.597 93.5488 185.597H91.0879ZM89.9365 180.534H93.7686C94.6533 180.534 95.3506 180.748 95.8604 181.176C96.3584 181.604 96.6074 182.184 96.6074 182.916C96.6074 183.426 96.4521 183.877 96.1416 184.27C95.8311 184.656 95.4326 184.896 94.9463 184.99V185.104C95.5674 185.175 96.0713 185.409 96.458 185.808C96.8623 186.212 97.0645 186.713 97.0645 187.311C97.0645 188.154 96.7803 188.813 96.2119 189.288C95.6377 189.763 94.835 190 93.8037 190H89.9365V180.534ZM101.283 184.683L105.493 180.534H106.917L102.25 185.078L107.128 190H105.607L101.283 185.605H100.914V190H99.7627V180.534H100.914V184.683H101.283ZM111.962 189.139C112.812 189.139 113.521 188.884 114.089 188.374C114.663 187.858 114.95 187.226 114.95 186.476V185.368L112.146 185.57C110.559 185.682 109.765 186.279 109.765 187.363C109.765 187.902 109.973 188.333 110.389 188.655C110.793 188.978 111.317 189.139 111.962 189.139ZM111.769 190.158C110.831 190.158 110.066 189.906 109.475 189.402C108.877 188.893 108.578 188.219 108.578 187.381C108.578 186.561 108.874 185.913 109.466 185.438C110.046 184.97 110.887 184.697 111.988 184.621L114.95 184.428V183.514C114.95 182.834 114.751 182.312 114.353 181.949C113.948 181.586 113.362 181.404 112.595 181.404C111.944 181.404 111.399 181.533 110.96 181.791C110.515 182.055 110.236 182.415 110.125 182.872H108.956C109.067 182.122 109.46 181.519 110.134 181.062C110.802 180.604 111.634 180.376 112.63 180.376C113.737 180.376 114.596 180.651 115.205 181.202C115.809 181.747 116.11 182.515 116.11 183.505V190H115.003V188.374H114.897C114.61 188.937 114.191 189.373 113.641 189.684C113.09 190 112.466 190.158 111.769 190.158Z" fill="white"/>
<path d="M29.5557 220V210.534H30.9443L34.6621 218.4H34.7676L38.4678 210.534H39.8037V220H38.6523V212.644H38.5205L35.1455 219.815H34.2402L30.8301 212.644H30.707V220H29.5557ZM45.7979 219.139C46.6475 219.139 47.3564 218.884 47.9248 218.374C48.499 217.858 48.7861 217.226 48.7861 216.476V215.368L45.9824 215.57C44.3945 215.682 43.6006 216.279 43.6006 217.363C43.6006 217.902 43.8086 218.333 44.2246 218.655C44.6289 218.978 45.1533 219.139 45.7979 219.139ZM45.6045 220.158C44.667 220.158 43.9023 219.906 43.3105 219.402C42.7129 218.893 42.4141 218.219 42.4141 217.381C42.4141 216.561 42.71 215.913 43.3018 215.438C43.8818 214.97 44.7227 214.697 45.8242 214.621L48.7861 214.428V213.514C48.7861 212.834 48.5869 212.312 48.1885 211.949C47.7842 211.586 47.1982 211.404 46.4307 211.404C45.7803 211.404 45.2354 211.533 44.7959 211.791C44.3506 212.055 44.0723 212.415 43.9609 212.872H42.792C42.9033 212.122 43.2959 211.519 43.9697 211.062C44.6377 210.604 45.4697 210.376 46.4658 210.376C47.5732 210.376 48.4316 210.651 49.041 211.202C49.6445 211.747 49.9463 212.515 49.9463 213.505V220H48.8389V218.374H48.7334C48.4463 218.937 48.0273 219.373 47.4766 219.684C46.9258 220 46.3018 220.158 45.6045 220.158ZM57.6279 210.376C58.8291 210.376 59.793 210.821 60.5195 211.712C61.2461 212.608 61.6094 213.792 61.6094 215.263C61.6094 216.733 61.2461 217.917 60.5195 218.813C59.7871 219.71 58.8232 220.158 57.6279 220.158C56.8955 220.158 56.2451 219.985 55.6768 219.64C55.1143 219.288 54.7012 218.808 54.4375 218.198H54.332V223.085H53.1807V210.534H54.2793V212.468H54.3848C54.6777 211.817 55.1113 211.308 55.6855 210.938C56.2598 210.563 56.9072 210.376 57.6279 210.376ZM57.373 219.112C58.3105 219.112 59.0518 218.767 59.5967 218.075C60.1475 217.384 60.4229 216.449 60.4229 215.271C60.4229 214.088 60.1504 213.15 59.6055 212.459C59.0547 211.762 58.3135 211.413 57.3818 211.413C56.4561 211.413 55.709 211.765 55.1406 212.468C54.5781 213.171 54.2969 214.103 54.2969 215.263C54.2969 216.423 54.5781 217.354 55.1406 218.058C55.7031 218.761 56.4473 219.112 57.373 219.112ZM64.2725 220V210.534H65.6611L69.3789 218.4H69.4844L73.1846 210.534H74.5205V220H73.3691V212.644H73.2373L69.8623 219.815H68.957L65.5469 212.644H65.4238V220H64.2725ZM81.4023 211.396C80.541 211.396 79.835 211.688 79.2842 212.274C78.7334 212.866 78.4316 213.648 78.3789 214.621H84.2764C84.2646 213.643 83.998 212.86 83.4766 212.274C82.9492 211.688 82.2578 211.396 81.4023 211.396ZM85.3311 217.662C85.0967 218.436 84.6338 219.045 83.9424 219.49C83.251 219.936 82.4102 220.158 81.4199 220.158C80.1191 220.158 79.0879 219.716 78.3262 218.831C77.5645 217.952 77.1836 216.766 77.1836 215.271C77.1836 213.783 77.5674 212.597 78.335 211.712C79.0967 210.821 80.1221 210.376 81.4111 210.376C82.6709 210.376 83.6641 210.795 84.3906 211.633C85.1172 212.471 85.4805 213.613 85.4805 215.061V215.57H78.3701V215.623C78.3994 216.695 78.6924 217.548 79.249 218.181C79.7998 218.813 80.5322 219.13 81.4463 219.13C82.835 219.13 83.7402 218.641 84.1621 217.662H85.3311ZM90.0684 215.931C89.9629 217.29 89.7461 218.286 89.418 218.919C89.0137 219.692 88.3896 220.079 87.5459 220.079C87.3525 220.079 87.1768 220.05 87.0186 219.991V218.928C87.1592 218.975 87.3174 218.998 87.4932 218.998C87.9619 218.998 88.3135 218.711 88.5479 218.137C88.7529 217.65 88.8936 216.9 88.9697 215.887C89.1045 214.48 89.2275 212.696 89.3389 210.534H95.3945V220H94.2432V211.51H90.3848C90.291 213.314 90.1855 214.788 90.0684 215.931ZM101.397 219.139C102.247 219.139 102.956 218.884 103.524 218.374C104.099 217.858 104.386 217.226 104.386 216.476V215.368L101.582 215.57C99.9941 215.682 99.2002 216.279 99.2002 217.363C99.2002 217.902 99.4082 218.333 99.8242 218.655C100.229 218.978 100.753 219.139 101.397 219.139ZM101.204 220.158C100.267 220.158 99.502 219.906 98.9102 219.402C98.3125 218.893 98.0137 218.219 98.0137 217.381C98.0137 216.561 98.3096 215.913 98.9014 215.438C99.4814 214.97 100.322 214.697 101.424 214.621L104.386 214.428V213.514C104.386 212.834 104.187 212.312 103.788 211.949C103.384 211.586 102.798 211.404 102.03 211.404C101.38 211.404 100.835 211.533 100.396 211.791C99.9502 212.055 99.6719 212.415 99.5605 212.872H98.3916C98.5029 212.122 98.8955 211.519 99.5693 211.062C100.237 210.604 101.069 210.376 102.065 210.376C103.173 210.376 104.031 210.651 104.641 211.202C105.244 211.747 105.546 212.515 105.546 213.505V220H104.438V218.374H104.333C104.046 218.937 103.627 219.373 103.076 219.684C102.525 220 101.901 220.158 101.204 220.158ZM115.029 211.51H110.925C110.837 213.186 110.729 214.659 110.6 215.931C110.477 217.39 110.192 218.386 109.747 218.919V219.024H115.029V211.51ZM107.603 222.505V219.024H108.367C109 218.614 109.384 217.568 109.519 215.887C109.554 215.541 109.68 213.757 109.896 210.534H116.181V219.024H117.71V222.505H116.62V220H108.692V222.505H107.603ZM121.357 214.683L125.567 210.534H126.991L122.324 215.078L127.202 220H125.682L121.357 215.605H120.988V220H119.837V210.534H120.988V214.683H121.357ZM129.435 220V210.534H130.586V218.163H130.7L136.018 210.534H137.169V220H136.018V212.371H135.912L130.586 220H129.435Z" fill="white"/>
<path d="M237.125 90.1143C237.125 88.8896 237.553 87.8965 238.408 87.1348C239.264 86.373 240.377 85.9922 241.748 85.9922C243.072 85.9922 244.15 86.335 244.982 87.0205C245.82 87.7119 246.239 88.6025 246.239 89.6924C246.239 90.3838 246.022 91.0693 245.589 91.749C245.155 92.4346 244.391 93.293 243.295 94.3242L240.869 96.6357V96.7939H246.424V99H237.274V97.1455L241.414 93.0938C242.305 92.2266 242.899 91.5732 243.198 91.1338C243.497 90.7061 243.646 90.2842 243.646 89.8682C243.646 89.3584 243.462 88.9395 243.093 88.6113C242.718 88.2891 242.24 88.1279 241.66 88.1279C241.045 88.1279 240.547 88.3125 240.166 88.6816C239.779 89.0449 239.586 89.5195 239.586 90.1055V90.1582H237.125V90.1143ZM253.736 99.3252C252.166 99.3252 250.936 98.7363 250.045 97.5586C249.148 96.375 248.7 94.7344 248.7 92.6367C248.7 90.5449 249.148 88.9131 250.045 87.7412C250.936 86.5752 252.166 85.9922 253.736 85.9922C255.301 85.9922 256.528 86.5752 257.419 87.7412C258.321 88.9189 258.772 90.5537 258.772 92.6455C258.772 94.7373 258.324 96.375 257.428 97.5586C256.537 98.7363 255.307 99.3252 253.736 99.3252ZM253.736 97.1631C254.475 97.1631 255.049 96.7793 255.459 96.0117C255.875 95.2266 256.083 94.1016 256.083 92.6367C256.083 91.1836 255.872 90.0674 255.45 89.2881C255.046 88.5381 254.475 88.1631 253.736 88.1631C253.004 88.1631 252.433 88.541 252.022 89.2969C251.601 90.0762 251.39 91.1895 251.39 92.6367C251.39 94.0957 251.601 95.2207 252.022 96.0117C252.427 96.7793 252.998 97.1631 253.736 97.1631ZM268.44 91.3184V99H265.883V89.3057H272.589V91.3184H268.44Z" fill="white"/>
<path d="M225.198 126.785H218.993V124.438C219.983 122.569 221.656 119.862 224.012 116.317H227.729V124.579H229.391V126.785H227.729V129H225.198V126.785ZM221.375 124.658H225.26V118.383H225.119C223.766 120.404 222.518 122.449 221.375 124.518V124.658ZM236.545 129.325C234.975 129.325 233.744 128.736 232.854 127.559C231.957 126.375 231.509 124.734 231.509 122.637C231.509 120.545 231.957 118.913 232.854 117.741C233.744 116.575 234.975 115.992 236.545 115.992C238.109 115.992 239.337 116.575 240.228 117.741C241.13 118.919 241.581 120.554 241.581 122.646C241.581 124.737 241.133 126.375 240.236 127.559C239.346 128.736 238.115 129.325 236.545 129.325ZM236.545 127.163C237.283 127.163 237.857 126.779 238.268 126.012C238.684 125.227 238.892 124.102 238.892 122.637C238.892 121.184 238.681 120.067 238.259 119.288C237.854 118.538 237.283 118.163 236.545 118.163C235.812 118.163 235.241 118.541 234.831 119.297C234.409 120.076 234.198 121.189 234.198 122.637C234.198 124.096 234.409 125.221 234.831 126.012C235.235 126.779 235.807 127.163 236.545 127.163ZM248.691 129V119.306H252.005L254.545 125.511H254.703L257.252 119.306H260.521V129H258.113V122.575H257.946L255.494 128.455H253.71L251.258 122.575H251.1V129H248.691ZM266.375 124.342C266.287 125.9 266.012 127.055 265.549 127.805C265.016 128.678 264.187 129.114 263.062 129.114C262.745 129.114 262.473 129.076 262.244 129V126.75C262.408 126.791 262.593 126.812 262.798 126.812C263.231 126.812 263.554 126.56 263.765 126.056C263.94 125.646 264.052 125.016 264.099 124.166L264.38 119.306H271.675V129H269.117V121.318H266.577L266.375 124.342Z" fill="white"/>
<path d="M236.231 159.325C234.708 159.325 233.475 158.982 232.531 158.297C231.588 157.611 231.116 156.718 231.116 155.616C231.116 154.819 231.371 154.128 231.881 153.542C232.385 152.95 233.062 152.561 233.911 152.373V152.215C233.22 152.057 232.666 151.726 232.25 151.222C231.834 150.718 231.626 150.129 231.626 149.455C231.626 148.441 232.057 147.612 232.918 146.968C233.785 146.317 234.893 145.992 236.24 145.992C237.582 145.992 238.687 146.317 239.554 146.968C240.415 147.612 240.846 148.441 240.846 149.455C240.846 150.129 240.638 150.718 240.222 151.222C239.812 151.72 239.258 152.051 238.561 152.215V152.373C239.404 152.531 240.084 152.903 240.6 153.489C241.109 154.081 241.364 154.781 241.364 155.59C241.364 156.703 240.89 157.603 239.94 158.288C238.991 158.979 237.755 159.325 236.231 159.325ZM236.231 157.321C236.929 157.321 237.497 157.14 237.937 156.776C238.376 156.413 238.596 155.944 238.596 155.37C238.596 154.79 238.376 154.318 237.937 153.955C237.497 153.592 236.929 153.41 236.231 153.41C235.534 153.41 234.969 153.592 234.535 153.955C234.096 154.318 233.876 154.79 233.876 155.37C233.876 155.944 234.096 156.413 234.535 156.776C234.969 157.14 235.534 157.321 236.231 157.321ZM236.231 151.45C236.817 151.45 237.298 151.286 237.673 150.958C238.042 150.636 238.227 150.22 238.227 149.71C238.227 149.194 238.042 148.775 237.673 148.453C237.298 148.125 236.817 147.961 236.231 147.961C235.646 147.961 235.168 148.125 234.799 148.453C234.43 148.775 234.245 149.194 234.245 149.71C234.245 150.22 234.43 150.636 234.799 150.958C235.168 151.286 235.646 151.45 236.231 151.45ZM248.475 159V149.306H251.788L254.328 155.511H254.486L257.035 149.306H260.305V159H257.896V152.575H257.729L255.277 158.455H253.493L251.041 152.575H250.883V159H248.475ZM266.158 154.342C266.07 155.9 265.795 157.055 265.332 157.805C264.799 158.678 263.97 159.114 262.845 159.114C262.528 159.114 262.256 159.076 262.027 159V156.75C262.191 156.791 262.376 156.812 262.581 156.812C263.015 156.812 263.337 156.56 263.548 156.056C263.724 155.646 263.835 155.016 263.882 154.166L264.163 149.306H271.458V159H268.9V151.318H266.36L266.158 154.342Z" fill="white"/>
<path d="M224.064 189.325C222.699 189.325 221.577 188.953 220.698 188.209C219.837 187.482 219.386 186.545 219.345 185.396H221.797C221.873 185.924 222.122 186.349 222.544 186.671C222.966 186.993 223.479 187.154 224.082 187.154C224.768 187.154 225.321 186.943 225.743 186.521C226.171 186.1 226.385 185.546 226.385 184.86C226.385 184.163 226.171 183.601 225.743 183.173C225.315 182.745 224.765 182.531 224.091 182.531C223.112 182.531 222.389 182.912 221.92 183.674H219.547L220.18 176.317H228.151V178.523H222.236L221.955 181.784H222.113C222.688 180.958 223.584 180.545 224.803 180.545C226.004 180.545 226.991 180.943 227.765 181.74C228.532 182.537 228.916 183.557 228.916 184.799C228.916 186.146 228.471 187.236 227.58 188.068C226.689 188.906 225.518 189.325 224.064 189.325ZM236.105 189.325C234.535 189.325 233.305 188.736 232.414 187.559C231.518 186.375 231.069 184.734 231.069 182.637C231.069 180.545 231.518 178.913 232.414 177.741C233.305 176.575 234.535 175.992 236.105 175.992C237.67 175.992 238.897 176.575 239.788 177.741C240.69 178.919 241.142 180.554 241.142 182.646C241.142 184.737 240.693 186.375 239.797 187.559C238.906 188.736 237.676 189.325 236.105 189.325ZM236.105 187.163C236.844 187.163 237.418 186.779 237.828 186.012C238.244 185.227 238.452 184.102 238.452 182.637C238.452 181.184 238.241 180.067 237.819 179.288C237.415 178.538 236.844 178.163 236.105 178.163C235.373 178.163 234.802 178.541 234.392 179.297C233.97 180.076 233.759 181.189 233.759 182.637C233.759 184.096 233.97 185.221 234.392 186.012C234.796 186.779 235.367 187.163 236.105 187.163ZM248.252 189V179.306H251.565L254.105 185.511H254.264L256.812 179.306H260.082V189H257.674V182.575H257.507L255.055 188.455H253.271L250.818 182.575H250.66V189H248.252ZM265.936 184.342C265.848 185.9 265.572 187.055 265.109 187.805C264.576 188.678 263.747 189.114 262.622 189.114C262.306 189.114 262.033 189.076 261.805 189V186.75C261.969 186.791 262.153 186.812 262.358 186.812C262.792 186.812 263.114 186.56 263.325 186.056C263.501 185.646 263.612 185.016 263.659 184.166L263.94 179.306H271.235V189H268.678V181.318H266.138L265.936 184.342Z" fill="white"/>
<path d="M236.064 219.325C234.699 219.325 233.577 218.953 232.698 218.209C231.837 217.482 231.386 216.545 231.345 215.396H233.797C233.873 215.924 234.122 216.349 234.544 216.671C234.966 216.993 235.479 217.154 236.082 217.154C236.768 217.154 237.321 216.943 237.743 216.521C238.171 216.1 238.385 215.546 238.385 214.86C238.385 214.163 238.171 213.601 237.743 213.173C237.315 212.745 236.765 212.531 236.091 212.531C235.112 212.531 234.389 212.912 233.92 213.674H231.547L232.18 206.317H240.151V208.523H234.236L233.955 211.784H234.113C234.688 210.958 235.584 210.545 236.803 210.545C238.004 210.545 238.991 210.943 239.765 211.74C240.532 212.537 240.916 213.557 240.916 214.799C240.916 216.146 240.471 217.236 239.58 218.068C238.689 218.906 237.518 219.325 236.064 219.325ZM247.93 219V209.306H251.243L253.783 215.511H253.941L256.49 209.306H259.76V219H257.352V212.575H257.185L254.732 218.455H252.948L250.496 212.575H250.338V219H247.93ZM265.613 214.342C265.525 215.9 265.25 217.055 264.787 217.805C264.254 218.678 263.425 219.114 262.3 219.114C261.983 219.114 261.711 219.076 261.482 219V216.75C261.646 216.791 261.831 216.812 262.036 216.812C262.47 216.812 262.792 216.56 263.003 216.056C263.179 215.646 263.29 215.016 263.337 214.166L263.618 209.306H270.913V219H268.355V211.318H265.815L265.613 214.342Z" fill="white"/>
<line y1="240.5" x2="310" y2="240.5" stroke="white" stroke-opacity="0.5"/>
<defs>
<filter id="filter0_b" x="-20" y="-20" width="350" height="350" filterUnits="userSpaceOnUse" color-interpolation-filters="sRGB">
<feFlood flood-opacity="0" result="BackgroundImageFix"/>
<feGaussianBlur in="BackgroundImage" stdDeviation="10"/>
<feComposite in2="SourceAlpha" operator="in" result="effect1_backgroundBlur"/>
<feBlend mode="normal" in="SourceGraphic" in2="effect1_backgroundBlur" result="shape"/>
</filter>
</defs>
</svg>
