<svg width="612" height="164" viewBox="0 0 612 164" fill="none" xmlns="http://www.w3.org/2000/svg">
<line y1="44.5" x2="612" y2="44.5" stroke="white" stroke-opacity="0.5"/>
<line y1="103.5" x2="612" y2="103.5" stroke="white" stroke-opacity="0.5"/>
<line y1="163.5" x2="612" y2="163.5" stroke="white" stroke-opacity="0.5"/>
<path d="M43.2729 72.9932V75.2256H44.811C45.813 75.2256 46.314 74.8506 46.314 74.1006C46.314 73.3623 45.8599 72.9932 44.9517 72.9932H43.2729ZM43.2729 76.7637V79.3125H45.0747C46.147 79.3125 46.6831 78.8848 46.6831 78.0293C46.6831 77.1855 46.103 76.7637 44.9429 76.7637H43.2729ZM40.7593 71.3057H45.6196C46.6274 71.3057 47.4155 71.5225 47.9839 71.9561C48.5464 72.3896 48.8276 72.9873 48.8276 73.749C48.8276 74.2529 48.6606 74.7012 48.3267 75.0938C47.9985 75.4805 47.5854 75.7148 47.0874 75.7969V75.9551C47.7319 76.0137 48.2563 76.2539 48.6606 76.6758C49.0591 77.0918 49.2583 77.5986 49.2583 78.1963C49.2583 79.0459 48.9419 79.7227 48.3091 80.2266C47.6646 80.7422 46.7974 81 45.7075 81H40.7593V71.3057ZM57.2124 71.1475C58.4429 71.1475 59.4097 71.5898 60.1128 72.4746C60.8159 73.3594 61.1675 74.584 61.1675 76.1484C61.1675 77.707 60.8188 78.9316 60.1216 79.8223C59.4243 80.707 58.4692 81.1494 57.2563 81.1494C55.8091 81.1494 54.8335 80.6045 54.3296 79.5146H54.1714V84.0322H51.6138V71.3057H54.0923V72.8965H54.2505C54.5142 72.3516 54.9067 71.9238 55.4282 71.6133C55.9497 71.3027 56.5444 71.1475 57.2124 71.1475ZM56.3423 79.0137C57.0337 79.0137 57.5728 78.7588 57.9595 78.249C58.3462 77.7451 58.5396 77.0449 58.5396 76.1484C58.5396 75.2578 58.3462 74.5605 57.9595 74.0566C57.5669 73.5469 57.0308 73.292 56.3511 73.292C55.6714 73.292 55.1323 73.5469 54.7339 74.0566C54.3413 74.5723 54.145 75.2725 54.145 76.1572C54.145 77.042 54.3413 77.7393 54.7339 78.249C55.1265 78.7588 55.6626 79.0137 56.3423 79.0137ZM67.6802 73.0547C67.0884 73.0547 66.5991 73.2451 66.2124 73.626C65.8315 74.0068 65.6177 74.5107 65.5708 75.1377H69.7017C69.6724 74.4932 69.479 73.9863 69.1216 73.6172C68.7583 73.2422 68.2778 73.0547 67.6802 73.0547ZM72.1362 78.2402C71.9429 79.1602 71.4536 79.8838 70.6685 80.4111C69.8774 80.9443 68.8901 81.2109 67.7065 81.2109C66.23 81.2109 65.0786 80.7686 64.2524 79.8838C63.4263 79.0049 63.0132 77.7773 63.0132 76.2012C63.0132 74.625 63.4292 73.3799 64.2612 72.4658C65.0933 71.5518 66.23 71.0947 67.6714 71.0947C69.1011 71.0947 70.2144 71.5254 71.0112 72.3867C71.814 73.248 72.2153 74.4492 72.2153 75.9902V76.7725H65.562V76.9043C65.5796 77.625 65.7876 78.1934 66.186 78.6094C66.5786 79.0312 67.1089 79.2422 67.7769 79.2422C68.814 79.2422 69.4731 78.9082 69.7544 78.2402H72.1362ZM74.5269 81V71.3057H77.8403L80.3804 77.5107H80.5386L83.0874 71.3057H86.3569V81H83.9487V74.5752H83.7817L81.3296 80.4551H79.5454L77.0933 74.5752H76.9351V81H74.5269ZM94.4604 76.0166V73.3096H92.8872C92.4126 73.3096 92.0347 73.4355 91.7534 73.6875C91.4663 73.9395 91.3228 74.2734 91.3228 74.6895C91.3228 75.082 91.4663 75.3984 91.7534 75.6387C92.0405 75.8906 92.4185 76.0166 92.8872 76.0166H94.4604ZM94.4604 77.8799H93.4146L91.2612 81H88.3608L90.9009 77.458C90.2563 77.2646 89.7466 76.916 89.3716 76.4121C88.9966 75.9141 88.8091 75.3311 88.8091 74.6631C88.8091 73.6436 89.1606 72.8262 89.8638 72.2109C90.561 71.6074 91.481 71.3057 92.6235 71.3057H96.9653V81H94.4604V77.8799Z" fill="white"/>
<path d="M46.9995 9.30957H44.0464L43.8267 12.3418C43.7505 13.4199 43.522 14.249 43.1411 14.8291V14.9873H46.9995V9.30957ZM39.7397 19.5049V14.9873H40.4868C41.0962 14.6475 41.4536 13.707 41.5591 12.166L41.8755 7.30566H49.5483V14.9873H50.9897V19.5049H48.6519V17H42.0776V19.5049H39.7397ZM56.2896 15.2246C56.8813 15.2246 57.3765 15.0576 57.7749 14.7236C58.1733 14.3896 58.3726 13.9766 58.3726 13.4844V12.7725L56.4126 12.8955C55.3228 12.9717 54.7778 13.3613 54.7778 14.0645C54.7778 14.4219 54.9185 14.7061 55.1997 14.917C55.4751 15.1221 55.8384 15.2246 56.2896 15.2246ZM55.4458 17.1494C54.5083 17.1494 53.7466 16.8857 53.1606 16.3584C52.5688 15.8193 52.2729 15.1104 52.2729 14.2314C52.2729 13.3584 52.5981 12.6699 53.2485 12.166C53.8931 11.668 54.8188 11.3838 56.0259 11.3135L58.3726 11.1729V10.3818C58.3726 9.53809 57.8276 9.11621 56.7378 9.11621C55.7886 9.11621 55.2056 9.41504 54.9888 10.0127H52.6333C52.7153 9.11621 53.1401 8.4043 53.9077 7.87695C54.6694 7.35547 55.6597 7.09473 56.8784 7.09473C58.1558 7.09473 59.146 7.38184 59.8491 7.95605C60.5464 8.53027 60.895 9.33887 60.895 10.3818V17H58.4165V15.7344H58.2583C57.7251 16.6777 56.7876 17.1494 55.4458 17.1494ZM71.0991 9.31836H68.1987V17H65.6411V9.31836H62.7407V7.30566H71.0991V9.31836ZM76.4517 15.2246C77.0435 15.2246 77.5386 15.0576 77.937 14.7236C78.3354 14.3896 78.5347 13.9766 78.5347 13.4844V12.7725L76.5747 12.8955C75.4849 12.9717 74.9399 13.3613 74.9399 14.0645C74.9399 14.4219 75.0806 14.7061 75.3618 14.917C75.6372 15.1221 76.0005 15.2246 76.4517 15.2246ZM75.6079 17.1494C74.6704 17.1494 73.9087 16.8857 73.3228 16.3584C72.731 15.8193 72.4351 15.1104 72.4351 14.2314C72.4351 13.3584 72.7603 12.6699 73.4106 12.166C74.0552 11.668 74.981 11.3838 76.188 11.3135L78.5347 11.1729V10.3818C78.5347 9.53809 77.9897 9.11621 76.8999 9.11621C75.9507 9.11621 75.3677 9.41504 75.1509 10.0127H72.7954C72.8774 9.11621 73.3022 8.4043 74.0698 7.87695C74.8315 7.35547 75.8218 7.09473 77.0405 7.09473C78.3179 7.09473 79.3081 7.38184 80.0112 7.95605C80.7085 8.53027 81.0571 9.33887 81.0571 10.3818V17H78.5786V15.7344H78.4204C77.8872 16.6777 76.9497 17.1494 75.6079 17.1494Z" fill="white"/>
<path d="M48.7397 142.505V140H40.7593V130.306H43.3169V137.987H47.061V130.306H49.6187V137.987H51.0776V142.505H48.7397ZM57.0981 132.055C56.5063 132.055 56.0171 132.245 55.6304 132.626C55.2495 133.007 55.0356 133.511 54.9888 134.138H59.1196C59.0903 133.493 58.897 132.986 58.5396 132.617C58.1763 132.242 57.6958 132.055 57.0981 132.055ZM61.5542 137.24C61.3608 138.16 60.8716 138.884 60.0864 139.411C59.2954 139.944 58.3081 140.211 57.1245 140.211C55.6479 140.211 54.4966 139.769 53.6704 138.884C52.8442 138.005 52.4312 136.777 52.4312 135.201C52.4312 133.625 52.8472 132.38 53.6792 131.466C54.5112 130.552 55.6479 130.095 57.0894 130.095C58.519 130.095 59.6323 130.525 60.4292 131.387C61.2319 132.248 61.6333 133.449 61.6333 134.99V135.772H54.98V135.904C54.9976 136.625 55.2056 137.193 55.604 137.609C55.9966 138.031 56.5269 138.242 57.1948 138.242C58.2319 138.242 58.8911 137.908 59.1724 137.24H61.5542ZM63.9448 130.306H66.5024V134.023H70.3784V130.306H72.936V140H70.3784V136.036H66.5024V140H63.9448V130.306ZM79.1411 138.225C79.7329 138.225 80.228 138.058 80.6265 137.724C81.0249 137.39 81.2241 136.977 81.2241 136.484V135.772L79.2642 135.896C78.1743 135.972 77.6294 136.361 77.6294 137.064C77.6294 137.422 77.77 137.706 78.0513 137.917C78.3267 138.122 78.6899 138.225 79.1411 138.225ZM78.2974 140.149C77.3599 140.149 76.5981 139.886 76.0122 139.358C75.4204 138.819 75.1245 138.11 75.1245 137.231C75.1245 136.358 75.4497 135.67 76.1001 135.166C76.7446 134.668 77.6704 134.384 78.8774 134.313L81.2241 134.173V133.382C81.2241 132.538 80.6792 132.116 79.5894 132.116C78.6401 132.116 78.0571 132.415 77.8403 133.013H75.4849C75.5669 132.116 75.9917 131.404 76.7593 130.877C77.521 130.355 78.5112 130.095 79.73 130.095C81.0073 130.095 81.9976 130.382 82.7007 130.956C83.3979 131.53 83.7466 132.339 83.7466 133.382V140H81.2681V138.734H81.1099C80.5767 139.678 79.6392 140.149 78.2974 140.149Z" fill="white"/>
<path d="M513.342 8.90137H513.184L510.072 11.0459V8.57617L513.351 6.31738H515.996V19H513.342V8.90137ZM522.614 11.5205H524.161C524.765 11.5205 525.251 11.3594 525.62 11.0371C525.995 10.7148 526.183 10.2959 526.183 9.78027C526.183 9.27051 525.998 8.86328 525.629 8.55859C525.266 8.25977 524.773 8.11035 524.152 8.11035C523.537 8.11035 523.039 8.27148 522.658 8.59375C522.277 8.91602 522.069 9.35254 522.034 9.90332H519.582C519.629 8.70215 520.068 7.75 520.9 7.04688C521.732 6.34375 522.84 5.99219 524.223 5.99219C525.523 5.99219 526.596 6.31152 527.439 6.9502C528.277 7.59473 528.696 8.41504 528.696 9.41113C528.696 10.1436 528.482 10.7734 528.055 11.3008C527.633 11.8281 527.067 12.165 526.358 12.3115V12.4697C527.231 12.5693 527.92 12.8887 528.424 13.4277C528.934 13.9727 529.188 14.6611 529.188 15.4932C529.188 16.6064 528.72 17.5234 527.782 18.2441C526.845 18.9648 525.652 19.3252 524.205 19.3252C522.793 19.3252 521.645 18.9648 520.76 18.2441C519.875 17.5234 519.403 16.5654 519.345 15.3701H521.885C521.926 15.9092 522.157 16.334 522.579 16.6445C523.001 16.9609 523.552 17.1191 524.231 17.1191C524.894 17.1191 525.436 16.9492 525.857 16.6094C526.273 16.2695 526.481 15.8301 526.481 15.291C526.481 14.7344 526.276 14.2979 525.866 13.9814C525.456 13.6592 524.896 13.498 524.188 13.498H522.614V11.5205ZM532.739 19.2373C532.276 19.2373 531.898 19.0938 531.605 18.8066C531.324 18.5195 531.184 18.1533 531.184 17.708C531.184 17.2627 531.324 16.8994 531.605 16.6182C531.893 16.3311 532.271 16.1875 532.739 16.1875C533.208 16.1875 533.586 16.3311 533.873 16.6182C534.154 16.8936 534.295 17.2568 534.295 17.708C534.295 18.1592 534.154 18.5254 533.873 18.8066C533.586 19.0938 533.208 19.2373 532.739 19.2373ZM541.098 19.3252C539.527 19.3252 538.297 18.7363 537.406 17.5586C536.51 16.375 536.062 14.7344 536.062 12.6367C536.062 10.5449 536.51 8.91309 537.406 7.74121C538.297 6.5752 539.527 5.99219 541.098 5.99219C542.662 5.99219 543.89 6.5752 544.78 7.74121C545.683 8.91895 546.134 10.5537 546.134 12.6455C546.134 14.7373 545.686 16.375 544.789 17.5586C543.898 18.7363 542.668 19.3252 541.098 19.3252ZM541.098 17.1631C541.836 17.1631 542.41 16.7793 542.82 16.0117C543.236 15.2266 543.444 14.1016 543.444 12.6367C543.444 11.1836 543.233 10.0674 542.812 9.28809C542.407 8.53809 541.836 8.16309 541.098 8.16309C540.365 8.16309 539.794 8.54102 539.384 9.29688C538.962 10.0762 538.751 11.1895 538.751 12.6367C538.751 14.0957 538.962 15.2207 539.384 16.0117C539.788 16.7793 540.359 17.1631 541.098 17.1631ZM554.501 8.66406V8.49707H548.217V6.30859H557.155V8.52344L551.855 19H549.078L554.501 8.66406Z" fill="white"/>
<path d="M509.125 72.1143C509.125 70.8896 509.553 69.8965 510.408 69.1348C511.264 68.373 512.377 67.9922 513.748 67.9922C515.072 67.9922 516.15 68.335 516.982 69.0205C517.82 69.7119 518.239 70.6025 518.239 71.6924C518.239 72.3838 518.022 73.0693 517.589 73.749C517.155 74.4346 516.391 75.293 515.295 76.3242L512.869 78.6357V78.7939H518.424V81H509.274V79.1455L513.414 75.0938C514.305 74.2266 514.899 73.5732 515.198 73.1338C515.497 72.7061 515.646 72.2842 515.646 71.8682C515.646 71.3584 515.462 70.9395 515.093 70.6113C514.718 70.2891 514.24 70.1279 513.66 70.1279C513.045 70.1279 512.547 70.3125 512.166 70.6816C511.779 71.0449 511.586 71.5195 511.586 72.1055V72.1582H509.125V72.1143ZM523.952 73.5205H525.499C526.103 73.5205 526.589 73.3594 526.958 73.0371C527.333 72.7148 527.521 72.2959 527.521 71.7803C527.521 71.2705 527.336 70.8633 526.967 70.5586C526.604 70.2598 526.111 70.1104 525.49 70.1104C524.875 70.1104 524.377 70.2715 523.996 70.5938C523.615 70.916 523.407 71.3525 523.372 71.9033H520.92C520.967 70.7021 521.406 69.75 522.238 69.0469C523.07 68.3438 524.178 67.9922 525.561 67.9922C526.861 67.9922 527.934 68.3115 528.777 68.9502C529.615 69.5947 530.034 70.415 530.034 71.4111C530.034 72.1436 529.82 72.7734 529.393 73.3008C528.971 73.8281 528.405 74.165 527.696 74.3115V74.4697C528.569 74.5693 529.258 74.8887 529.762 75.4277C530.271 75.9727 530.526 76.6611 530.526 77.4932C530.526 78.6064 530.058 79.5234 529.12 80.2441C528.183 80.9648 526.99 81.3252 525.543 81.3252C524.131 81.3252 522.982 80.9648 522.098 80.2441C521.213 79.5234 520.741 78.5654 520.683 77.3701H523.223C523.264 77.9092 523.495 78.334 523.917 78.6445C524.339 78.9609 524.89 79.1191 525.569 79.1191C526.231 79.1191 526.773 78.9492 527.195 78.6094C527.611 78.2695 527.819 77.8301 527.819 77.291C527.819 76.7344 527.614 76.2979 527.204 75.9814C526.794 75.6592 526.234 75.498 525.525 75.498H523.952V73.5205ZM533.189 78.2051C533.189 77.7363 533.333 77.3584 533.62 77.0713C533.913 76.7783 534.306 76.6318 534.798 76.6318C535.29 76.6318 535.68 76.7783 535.967 77.0713C536.254 77.3584 536.397 77.7363 536.397 78.2051C536.397 78.6738 536.254 79.0518 535.967 79.3389C535.68 79.6318 535.29 79.7783 534.798 79.7783C534.306 79.7783 533.913 79.6318 533.62 79.3389C533.333 79.0518 533.189 78.6738 533.189 78.2051ZM533.189 71.6924C533.189 71.2236 533.333 70.8428 533.62 70.5498C533.913 70.2568 534.306 70.1104 534.798 70.1104C535.29 70.1104 535.68 70.2568 535.967 70.5498C536.254 70.8369 536.397 71.2178 536.397 71.6924C536.397 72.1611 536.254 72.5391 535.967 72.8262C535.68 73.1191 535.29 73.2656 534.798 73.2656C534.306 73.2656 533.913 73.1191 533.62 72.8262C533.333 72.5391 533.189 72.1611 533.189 71.6924ZM544 81.3252C542.43 81.3252 541.199 80.7363 540.309 79.5586C539.412 78.375 538.964 76.7344 538.964 74.6367C538.964 72.5449 539.412 70.9131 540.309 69.7412C541.199 68.5752 542.43 67.9922 544 67.9922C545.564 67.9922 546.792 68.5752 547.683 69.7412C548.585 70.9189 549.036 72.5537 549.036 74.6455C549.036 76.7373 548.588 78.375 547.691 79.5586C546.801 80.7363 545.57 81.3252 544 81.3252ZM544 79.1631C544.738 79.1631 545.312 78.7793 545.723 78.0117C546.139 77.2266 546.347 76.1016 546.347 74.6367C546.347 73.1836 546.136 72.0674 545.714 71.2881C545.31 70.5381 544.738 70.1631 544 70.1631C543.268 70.1631 542.696 70.541 542.286 71.2969C541.864 72.0762 541.653 73.1895 541.653 74.6367C541.653 76.0957 541.864 77.2207 542.286 78.0117C542.69 78.7793 543.262 79.1631 544 79.1631ZM556.322 81.3252C554.752 81.3252 553.521 80.7363 552.631 79.5586C551.734 78.375 551.286 76.7344 551.286 74.6367C551.286 72.5449 551.734 70.9131 552.631 69.7412C553.521 68.5752 554.752 67.9922 556.322 67.9922C557.887 67.9922 559.114 68.5752 560.005 69.7412C560.907 70.9189 561.358 72.5537 561.358 74.6455C561.358 76.7373 560.91 78.375 560.014 79.5586C559.123 80.7363 557.893 81.3252 556.322 81.3252ZM556.322 79.1631C557.061 79.1631 557.635 78.7793 558.045 78.0117C558.461 77.2266 558.669 76.1016 558.669 74.6367C558.669 73.1836 558.458 72.0674 558.036 71.2881C557.632 70.5381 557.061 70.1631 556.322 70.1631C555.59 70.1631 555.019 70.541 554.608 71.2969C554.187 72.0762 553.976 73.1895 553.976 74.6367C553.976 76.0957 554.187 77.2207 554.608 78.0117C555.013 78.7793 555.584 79.1631 556.322 79.1631Z" fill="white"/>
<path d="M515.125 132.114C515.125 130.89 515.553 129.896 516.408 129.135C517.264 128.373 518.377 127.992 519.748 127.992C521.072 127.992 522.15 128.335 522.982 129.021C523.82 129.712 524.239 130.603 524.239 131.692C524.239 132.384 524.022 133.069 523.589 133.749C523.155 134.435 522.391 135.293 521.295 136.324L518.869 138.636V138.794H524.424V141H515.274V139.146L519.414 135.094C520.305 134.227 520.899 133.573 521.198 133.134C521.497 132.706 521.646 132.284 521.646 131.868C521.646 131.358 521.462 130.939 521.093 130.611C520.718 130.289 520.24 130.128 519.66 130.128C519.045 130.128 518.547 130.312 518.166 130.682C517.779 131.045 517.586 131.52 517.586 132.105V132.158H515.125V132.114ZM531.736 141.325C530.166 141.325 528.936 140.736 528.045 139.559C527.148 138.375 526.7 136.734 526.7 134.637C526.7 132.545 527.148 130.913 528.045 129.741C528.936 128.575 530.166 127.992 531.736 127.992C533.301 127.992 534.528 128.575 535.419 129.741C536.321 130.919 536.772 132.554 536.772 134.646C536.772 136.737 536.324 138.375 535.428 139.559C534.537 140.736 533.307 141.325 531.736 141.325ZM531.736 139.163C532.475 139.163 533.049 138.779 533.459 138.012C533.875 137.227 534.083 136.102 534.083 134.637C534.083 133.184 533.872 132.067 533.45 131.288C533.046 130.538 532.475 130.163 531.736 130.163C531.004 130.163 530.433 130.541 530.022 131.297C529.601 132.076 529.39 133.189 529.39 134.637C529.39 136.096 529.601 137.221 530.022 138.012C530.427 138.779 530.998 139.163 531.736 139.163ZM544.059 141.325C542.488 141.325 541.258 140.736 540.367 139.559C539.471 138.375 539.022 136.734 539.022 134.637C539.022 132.545 539.471 130.913 540.367 129.741C541.258 128.575 542.488 127.992 544.059 127.992C545.623 127.992 546.851 128.575 547.741 129.741C548.644 130.919 549.095 132.554 549.095 134.646C549.095 136.737 548.646 138.375 547.75 139.559C546.859 140.736 545.629 141.325 544.059 141.325ZM544.059 139.163C544.797 139.163 545.371 138.779 545.781 138.012C546.197 137.227 546.405 136.102 546.405 134.637C546.405 133.184 546.194 132.067 545.772 131.288C545.368 130.538 544.797 130.163 544.059 130.163C543.326 130.163 542.755 130.541 542.345 131.297C541.923 132.076 541.712 133.189 541.712 134.637C541.712 136.096 541.923 137.221 542.345 138.012C542.749 138.779 543.32 139.163 544.059 139.163ZM555.282 134.364H556.82C557.576 134.364 558.156 134.191 558.561 133.846C558.959 133.506 559.158 133.031 559.158 132.422C559.158 131.818 558.962 131.35 558.569 131.016C558.165 130.67 557.585 130.497 556.829 130.497H555.282V134.364ZM555.282 139.339V141H552.628V139.339H551.037V137.66H552.628V136.403H551.037V134.399H552.628V128.317H557.62C558.88 128.317 559.902 128.698 560.688 129.46C561.461 130.216 561.848 131.194 561.848 132.396C561.848 133.579 561.446 134.549 560.644 135.305C559.829 136.066 558.777 136.447 557.488 136.447H555.282V137.66H558.719V139.339H555.282Z" fill="white"/>
</svg>
