<svg width="24" height="33" viewBox="0 0 24 33" fill="none" xmlns="http://www.w3.org/2000/svg">
<rect x="11.5" y="16.5" width="1" height="14" stroke="white"/>
<path d="M9 31.5H15C15.6531 31.5 16.2087 31.9174 16.4146 32.5H7.58535C7.79127 31.9174 8.34689 31.5 9 31.5Z" stroke="white"/>
<path d="M4.74518 0.5H19.4703C19.5212 0.5 19.5379 0.514926 19.5447 0.521432C19.5571 0.533266 19.5722 0.55757 19.577 0.593377C19.5819 0.629183 19.5736 0.656621 19.5648 0.671294C19.56 0.679361 19.5478 0.698177 19.4987 0.711586C18.8825 0.879953 18.536 1.53322 18.7423 2.13779L20.6917 7.85171C21.9715 11.6027 19.1833 15.5 15.2199 15.5H8.78341C4.84973 15.5 2.10411 11.602 3.42892 7.8981L5.48187 2.15849C5.70102 1.54579 5.34759 0.877008 4.7179 0.712895C4.66794 0.699876 4.65553 0.680959 4.65069 0.673031C4.64173 0.658388 4.63321 0.630738 4.63787 0.594442C4.64252 0.558145 4.65774 0.533538 4.67009 0.521625C4.67678 0.515176 4.69356 0.5 4.74518 0.5Z" stroke="white"/>
</svg>
