<svg width="310" height="310" viewBox="0 0 310 310" fill="none" xmlns="http://www.w3.org/2000/svg">
<g filter="url(#filter0_b)">
<rect width="310" height="310" rx="8" fill="white" fill-opacity="0.2"/>
</g>
<path d="M87.3379 48.498C84.4668 48.498 82.1963 47.5068 80.5264 45.5244C78.8467 43.542 78.0068 40.8467 78.0068 37.4385C78.0068 34.0303 78.8418 31.3301 80.5117 29.3379C82.1816 27.3555 84.4521 26.3643 87.3232 26.3643C89.5498 26.3643 91.4541 26.999 93.0361 28.2686C94.6182 29.5381 95.5654 31.1934 95.8779 33.2344H93.1973C92.8457 31.8672 92.1426 30.7881 91.0879 29.9971C90.0332 29.1963 88.7783 28.7959 87.3232 28.7959C85.292 28.7959 83.6855 29.5723 82.5039 31.125C81.3125 32.6777 80.7168 34.7822 80.7168 37.4385C80.7168 40.0947 81.3125 42.1943 82.5039 43.7373C83.6953 45.29 85.3066 46.0664 87.3379 46.0664C88.8125 46.0664 90.0723 45.7148 91.1172 45.0117C92.1719 44.2988 92.8652 43.332 93.1973 42.1113H95.8779C95.5264 44.0547 94.5791 45.6025 93.0361 46.7549C91.4834 47.917 89.584 48.498 87.3379 48.498ZM111.918 41.9502H103.51L101.386 48H98.6172L106.41 26.8623H109.018L116.811 48H114.042L111.918 41.9502ZM104.286 39.709H111.142L107.831 30.2754H107.597L104.286 39.709ZM135.048 48V38.376H123.446V48H120.81V26.8623H123.446V36.0029H135.048V26.8623H137.685V48H135.048ZM151.352 26.8623C153.354 26.8623 154.979 27.4971 156.229 28.7666C157.489 30.0459 158.119 31.6914 158.119 33.7031C158.119 35.6758 157.484 37.2969 156.215 38.5664C154.936 39.8262 153.305 40.4561 151.322 40.4561H146.005V48H143.368V26.8623H151.352ZM146.005 38.1123H150.663C152.167 38.1123 153.334 37.7266 154.164 36.9551C154.994 36.1836 155.409 35.0996 155.409 33.7031C155.409 32.248 154.999 31.1348 154.179 30.3633C153.368 29.5918 152.196 29.2061 150.663 29.2061H146.005V38.1123ZM172.152 41.9502H163.744L161.62 48H158.852L166.645 26.8623H169.252L177.045 48H174.276L172.152 41.9502ZM164.521 39.709H171.376L168.065 30.2754H167.831L164.521 39.709ZM195.312 31.1836H195.077L183.651 48H181.044V26.8623H183.651V43.7373H183.886L195.312 26.8623H197.919V48H195.312V31.1836ZM186.669 20.5488C186.669 21.3398 186.928 21.9795 187.445 22.4678C187.953 22.9463 188.603 23.1855 189.394 23.1855C190.194 23.1855 190.854 22.9463 191.371 22.4678C191.889 21.9795 192.147 21.3398 192.147 20.5488H194.433C194.433 21.8965 193.969 22.9658 193.041 23.7568C192.133 24.5283 190.917 24.9141 189.394 24.9141C187.87 24.9141 186.659 24.5283 185.761 23.7568C184.843 22.9658 184.384 21.8965 184.384 20.5488H186.669ZM206.854 36.0322H209.711C210.951 36.0322 211.972 35.6807 212.772 34.9775C213.563 34.2646 213.959 33.3564 213.959 32.2529C213.959 31.1787 213.593 30.3242 212.86 29.6895C212.108 29.0352 211.073 28.708 209.755 28.708C208.446 28.708 207.392 29.0254 206.591 29.6602C205.78 30.2852 205.321 31.1592 205.214 32.2822H202.65C202.787 30.4463 203.495 29.001 204.774 27.9463C206.063 26.8916 207.758 26.3643 209.857 26.3643C211.84 26.3643 213.466 26.8965 214.735 27.9609C216.005 29.0156 216.64 30.3682 216.64 32.0186C216.64 33.1709 216.293 34.1963 215.6 35.0947C214.896 36.0029 213.983 36.5938 212.86 36.8672V37.1016C214.247 37.248 215.365 37.7705 216.215 38.6689C217.104 39.6162 217.548 40.8271 217.548 42.3018C217.548 44.04 216.815 45.5098 215.351 46.7109C213.886 47.9023 212.089 48.498 209.96 48.498C207.724 48.498 205.902 47.9463 204.496 46.8428C203.08 45.749 202.323 44.2988 202.226 42.4922H204.774C204.892 43.6055 205.414 44.4941 206.342 45.1582C207.279 45.8223 208.476 46.1543 209.931 46.1543C211.405 46.1543 212.597 45.7832 213.505 45.041C214.394 44.3184 214.838 43.3809 214.838 42.2285C214.838 41.0273 214.403 40.0898 213.534 39.416C212.646 38.7227 211.41 38.376 209.828 38.376H206.854V36.0322Z" fill="white"/>
<path d="M37.4531 283.398C35.8516 283.398 34.5273 282.945 33.4805 282.039C32.4336 281.141 31.8633 279.961 31.7695 278.5H33.8438C33.9375 279.414 34.3164 280.148 34.9805 280.703C35.6523 281.266 36.4844 281.547 37.4766 281.547C38.6094 281.547 39.5195 281.191 40.207 280.48C40.9023 279.77 41.25 278.836 41.25 277.68C41.25 276.523 40.9023 275.582 40.207 274.855C39.5195 274.137 38.6211 273.777 37.5117 273.777C35.9102 273.777 34.7461 274.41 34.0195 275.676H32.0391L32.9648 266.09H42.3984V267.977H34.6172L34.1367 273.402H34.3242C35.1445 272.441 36.3359 271.961 37.8984 271.961C39.5078 271.961 40.8203 272.488 41.8359 273.543C42.8516 274.598 43.3594 275.957 43.3594 277.621C43.3594 279.34 42.8125 280.73 41.7188 281.793C40.625 282.863 39.2031 283.398 37.4531 283.398ZM52.418 283.398C50.5117 283.398 49.0352 282.625 47.9883 281.078C46.9414 279.531 46.418 277.352 46.418 274.539C46.418 271.75 46.9453 269.578 48 268.023C49.0547 266.469 50.5273 265.691 52.418 265.691C54.3008 265.691 55.7656 266.473 56.8125 268.035C57.8672 269.598 58.3945 271.777 58.3945 274.574C58.3945 277.379 57.875 279.551 56.8359 281.09C55.7891 282.629 54.3164 283.398 52.418 283.398ZM52.418 281.559C53.668 281.559 54.6211 280.957 55.2773 279.754C55.9414 278.543 56.2734 276.805 56.2734 274.539C56.2734 272.297 55.9414 270.57 55.2773 269.359C54.6055 268.148 53.6523 267.543 52.418 267.543C51.1836 267.543 50.2266 268.152 49.5469 269.371C48.875 270.582 48.5391 272.305 48.5391 274.539C48.5391 276.797 48.875 278.531 49.5469 279.742C50.2109 280.953 51.168 281.559 52.418 281.559ZM67.5352 283.398C65.6289 283.398 64.1523 282.625 63.1055 281.078C62.0586 279.531 61.5352 277.352 61.5352 274.539C61.5352 271.75 62.0625 269.578 63.1172 268.023C64.1719 266.469 65.6445 265.691 67.5352 265.691C69.418 265.691 70.8828 266.473 71.9297 268.035C72.9844 269.598 73.5117 271.777 73.5117 274.574C73.5117 277.379 72.9922 279.551 71.9531 281.09C70.9062 282.629 69.4336 283.398 67.5352 283.398ZM67.5352 281.559C68.7852 281.559 69.7383 280.957 70.3945 279.754C71.0586 278.543 71.3906 276.805 71.3906 274.539C71.3906 272.297 71.0586 270.57 70.3945 269.359C69.7227 268.148 68.7695 267.543 67.5352 267.543C66.3008 267.543 65.3438 268.152 64.6641 269.371C63.9922 270.582 63.6562 272.305 63.6562 274.539C63.6562 276.797 63.9922 278.531 64.6641 279.742C65.3281 280.953 66.2852 281.559 67.5352 281.559ZM80.8594 274.621H83.5547C84.7344 274.621 85.6367 274.32 86.2617 273.719C86.8555 273.141 87.1523 272.328 87.1523 271.281C87.1523 270.242 86.8555 269.438 86.2617 268.867C85.6445 268.266 84.7422 267.965 83.5547 267.965H80.8594V274.621ZM80.8594 280.305V283H78.75V280.305H76.4062V278.711H78.75V276.449H76.4062V274.621H78.75V266.09H84.1055C85.668 266.09 86.9336 266.586 87.9023 267.578C88.8477 268.539 89.3203 269.773 89.3203 271.281C89.3203 272.789 88.8438 274.023 87.8906 274.984C86.9219 275.961 85.6523 276.449 84.082 276.449H80.8594V278.711H85.7227V280.305H80.8594Z" fill="white"/>
<path d="M32.4243 99.1387C33.2739 99.1387 33.9829 98.8838 34.5513 98.374C35.1255 97.8584 35.4126 97.2256 35.4126 96.4756V95.3682L32.6089 95.5703C31.021 95.6816 30.2271 96.2793 30.2271 97.3633C30.2271 97.9023 30.4351 98.333 30.8511 98.6553C31.2554 98.9775 31.7798 99.1387 32.4243 99.1387ZM32.231 100.158C31.2935 100.158 30.5288 99.9062 29.937 99.4023C29.3394 98.8926 29.0405 98.2188 29.0405 97.3809C29.0405 96.5605 29.3364 95.9131 29.9282 95.4385C30.5083 94.9697 31.3491 94.6973 32.4507 94.6211L35.4126 94.4277V93.5137C35.4126 92.834 35.2134 92.3125 34.8149 91.9492C34.4106 91.5859 33.8247 91.4043 33.0571 91.4043C32.4067 91.4043 31.8618 91.5332 31.4224 91.791C30.9771 92.0547 30.6987 92.415 30.5874 92.8721H29.4185C29.5298 92.1221 29.9224 91.5186 30.5962 91.0615C31.2642 90.6045 32.0962 90.376 33.0923 90.376C34.1997 90.376 35.0581 90.6514 35.6675 91.2021C36.271 91.7471 36.5728 92.5146 36.5728 93.5049V100H35.4653V98.374H35.3599C35.0728 98.9365 34.6538 99.373 34.103 99.6836C33.5522 100 32.9282 100.158 32.231 100.158ZM46.188 91.5098H40.9585V100H39.8071V90.5342H47.3394V100H46.188V91.5098ZM54.23 91.3955C53.3687 91.3955 52.6626 91.6885 52.1118 92.2744C51.561 92.8662 51.2593 93.6484 51.2065 94.6211H57.104C57.0923 93.6426 56.8257 92.8604 56.3042 92.2744C55.7769 91.6885 55.0854 91.3955 54.23 91.3955ZM58.1587 97.6621C57.9243 98.4355 57.4614 99.0449 56.77 99.4902C56.0786 99.9355 55.2378 100.158 54.2476 100.158C52.9468 100.158 51.9155 99.7158 51.1538 98.8311C50.3921 97.9521 50.0112 96.7656 50.0112 95.2715C50.0112 93.7832 50.395 92.5967 51.1626 91.7119C51.9243 90.8213 52.9497 90.376 54.2388 90.376C55.4985 90.376 56.4917 90.7949 57.2183 91.6328C57.9448 92.4707 58.3081 93.6133 58.3081 95.0605V95.5703H51.1978V95.623C51.2271 96.6953 51.52 97.5479 52.0767 98.1807C52.6274 98.8135 53.3599 99.1299 54.2739 99.1299C55.6626 99.1299 56.5679 98.6406 56.9897 97.6621H58.1587ZM62.896 95.9307C62.7905 97.29 62.5737 98.2861 62.2456 98.9189C61.8413 99.6924 61.2173 100.079 60.3735 100.079C60.1802 100.079 60.0044 100.05 59.8462 99.9912V98.9277C59.9868 98.9746 60.145 98.998 60.3208 98.998C60.7896 98.998 61.1411 98.7109 61.3755 98.1367C61.5806 97.6504 61.7212 96.9004 61.7974 95.8867C61.9321 94.4805 62.0552 92.6963 62.1665 90.5342H68.2222V100H67.0708V91.5098H63.2124C63.1187 93.3145 63.0132 94.7881 62.896 95.9307ZM72.5112 94.7354V99.0244H74.5679C75.2593 99.0244 75.813 98.8281 76.229 98.4355C76.6392 98.0488 76.8442 97.5303 76.8442 96.8799C76.8442 96.2236 76.6362 95.7021 76.2202 95.3154C75.8101 94.9287 75.2593 94.7354 74.5679 94.7354H72.5112ZM71.3599 90.5342H72.5112V93.751H74.5679C75.6167 93.751 76.4487 94.0322 77.064 94.5947C77.6851 95.1631 77.9956 95.9248 77.9956 96.8799C77.9956 97.835 77.6851 98.5938 77.064 99.1562C76.4487 99.7188 75.6167 100 74.5679 100H71.3599V90.5342ZM87.0308 93.3203C86.8784 92.7578 86.5708 92.3037 86.1079 91.958C85.6157 91.5947 85.0181 91.4131 84.3149 91.4131C83.3716 91.4131 82.6245 91.7588 82.0737 92.4502C81.5171 93.1416 81.2388 94.0703 81.2388 95.2363C81.2388 96.4199 81.5171 97.3604 82.0737 98.0576C82.6304 98.7607 83.3774 99.1123 84.3149 99.1123C85.0181 99.1123 85.6069 98.9512 86.0815 98.6289C86.562 98.3066 86.8755 97.8555 87.022 97.2754H88.1909C88.0444 98.1426 87.6343 98.834 86.9604 99.3496C86.2632 99.8887 85.3843 100.158 84.3237 100.158C83.0171 100.158 81.98 99.7129 81.2124 98.8223C80.439 97.9375 80.0522 96.7422 80.0522 95.2363C80.0522 93.7539 80.436 92.5732 81.2036 91.6943C81.9771 90.8154 83.0142 90.376 84.3149 90.376C85.3696 90.376 86.2544 90.6602 86.9692 91.2285C87.6431 91.7676 88.0532 92.4648 88.1997 93.3203H87.0308ZM90.7661 100V90.5342H91.9175V98.1631H92.0317L97.3491 90.5342H98.5005V100H97.3491V92.3711H97.2437L91.9175 100H90.7661ZM101.629 90.5342H102.781V94.5947H108.098V90.5342H109.25V100H108.098V95.5703H102.781V100H101.629V90.5342Z" fill="white"/>
<path d="M33.4175 130.167C32.0405 130.167 30.9829 129.713 30.2446 128.805C29.4771 127.855 29.0933 126.446 29.0933 124.577C29.0933 122.151 29.4126 120.385 30.0513 119.277C30.7954 117.982 32.0874 117.309 33.9272 117.256C34.1147 117.256 34.5073 117.238 35.105 117.203C35.9546 117.15 36.646 117.007 37.1792 116.772V117.801C36.5581 118.076 35.8872 118.231 35.1665 118.267C34.8208 118.308 34.4194 118.328 33.9624 118.328C32.6382 118.363 31.6802 118.756 31.0884 119.506C30.5728 120.156 30.2388 121.22 30.0864 122.696H30.1919C30.8423 121.337 31.9702 120.657 33.5757 120.657C34.8354 120.657 35.8433 121.073 36.5991 121.905C37.3667 122.755 37.7505 123.897 37.7505 125.333C37.7505 126.827 37.3608 128.008 36.5815 128.875C35.8022 129.736 34.7476 130.167 33.4175 130.167ZM33.4175 129.13C34.396 129.13 35.1665 128.793 35.729 128.119C36.2856 127.445 36.564 126.517 36.564 125.333C36.564 124.196 36.2856 123.306 35.729 122.661C35.1665 122.017 34.396 121.694 33.4175 121.694C32.439 121.694 31.6714 122.017 31.1147 122.661C30.5581 123.306 30.2798 124.196 30.2798 125.333C30.2798 126.517 30.5581 127.445 31.1147 128.119C31.6714 128.793 32.439 129.13 33.4175 129.13ZM44.1753 121.396C43.314 121.396 42.6079 121.688 42.0571 122.274C41.5063 122.866 41.2046 123.648 41.1519 124.621H47.0493C47.0376 123.643 46.771 122.86 46.2495 122.274C45.7222 121.688 45.0308 121.396 44.1753 121.396ZM48.104 127.662C47.8696 128.436 47.4067 129.045 46.7153 129.49C46.0239 129.936 45.1831 130.158 44.1929 130.158C42.8921 130.158 41.8608 129.716 41.0991 128.831C40.3374 127.952 39.9565 126.766 39.9565 125.271C39.9565 123.783 40.3403 122.597 41.1079 121.712C41.8696 120.821 42.895 120.376 44.1841 120.376C45.4438 120.376 46.437 120.795 47.1636 121.633C47.8901 122.471 48.2534 123.613 48.2534 125.061V125.57H41.1431V125.623C41.1724 126.695 41.4653 127.548 42.022 128.181C42.5728 128.813 43.3052 129.13 44.2192 129.13C45.6079 129.13 46.5132 128.641 46.9351 127.662H48.104ZM52.8413 125.931C52.7358 127.29 52.519 128.286 52.1909 128.919C51.7866 129.692 51.1626 130.079 50.3188 130.079C50.1255 130.079 49.9497 130.05 49.7915 129.991V128.928C49.9321 128.975 50.0903 128.998 50.2661 128.998C50.7349 128.998 51.0864 128.711 51.3208 128.137C51.5259 127.65 51.6665 126.9 51.7427 125.887C51.8774 124.48 52.0005 122.696 52.1118 120.534H58.1675V130H57.0161V121.51H53.1577C53.064 123.314 52.9585 124.788 52.8413 125.931ZM69.3823 120.534H70.5337V130H69.3823V120.534ZM62.5181 124.735V129.024H64.5747C65.2661 129.024 65.8198 128.828 66.2358 128.436C66.646 128.049 66.8511 127.53 66.8511 126.88C66.8511 126.224 66.6431 125.702 66.2271 125.315C65.8169 124.929 65.2661 124.735 64.5747 124.735H62.5181ZM61.3667 120.534H62.5181V123.751H64.5747C65.6235 123.751 66.4556 124.032 67.0708 124.595C67.6919 125.163 68.0024 125.925 68.0024 126.88C68.0024 127.835 67.6919 128.594 67.0708 129.156C66.4556 129.719 65.6235 130 64.5747 130H61.3667V120.534ZM75.6841 116.482C75.6841 116.998 75.8364 117.426 76.1411 117.766C76.4634 118.117 76.8823 118.293 77.3979 118.293C77.9194 118.293 78.3413 118.117 78.6636 117.766C78.9683 117.426 79.1206 116.998 79.1206 116.482H80.1753C80.1753 117.256 79.9233 117.883 79.4194 118.363C78.9038 118.855 78.23 119.102 77.3979 119.102C76.5659 119.102 75.895 118.855 75.3853 118.363C74.8813 117.883 74.6294 117.256 74.6294 116.482H75.6841ZM73.6626 130V120.534H74.814V128.163H74.9282L80.2456 120.534H81.397V130H80.2456V122.371H80.1401L74.814 130H73.6626ZM93.8423 120.376C95.0435 120.376 96.0073 120.821 96.7339 121.712C97.4604 122.608 97.8237 123.792 97.8237 125.263C97.8237 126.733 97.4604 127.917 96.7339 128.813C96.0015 129.71 95.0376 130.158 93.8423 130.158C93.1099 130.158 92.4595 129.985 91.8911 129.64C91.3286 129.288 90.9155 128.808 90.6519 128.198H90.5464V133.085H89.395V120.534H90.4937V122.468H90.5991C90.8921 121.817 91.3257 121.308 91.8999 120.938C92.4741 120.563 93.1216 120.376 93.8423 120.376ZM93.5874 129.112C94.5249 129.112 95.2661 128.767 95.811 128.075C96.3618 127.384 96.6372 126.449 96.6372 125.271C96.6372 124.088 96.3647 123.15 95.8198 122.459C95.269 121.762 94.5278 121.413 93.5962 121.413C92.6704 121.413 91.9233 121.765 91.355 122.468C90.7925 123.171 90.5112 124.103 90.5112 125.263C90.5112 126.423 90.7925 127.354 91.355 128.058C91.9175 128.761 92.6616 129.112 93.5874 129.112ZM104.319 129.112C105.292 129.112 106.053 128.77 106.604 128.084C107.155 127.404 107.43 126.464 107.43 125.263C107.43 124.062 107.155 123.121 106.604 122.441C106.053 121.756 105.292 121.413 104.319 121.413C103.346 121.413 102.584 121.756 102.034 122.441C101.483 123.121 101.208 124.062 101.208 125.263C101.208 126.464 101.483 127.404 102.034 128.084C102.584 128.77 103.346 129.112 104.319 129.112ZM104.319 130.158C102.995 130.158 101.949 129.719 101.181 128.84C100.408 127.967 100.021 126.774 100.021 125.263C100.021 123.751 100.408 122.559 101.181 121.686C101.949 120.812 102.995 120.376 104.319 120.376C105.643 120.376 106.692 120.812 107.465 121.686C108.239 122.559 108.625 123.751 108.625 125.263C108.625 126.774 108.239 127.967 107.465 128.84C106.692 129.719 105.643 130.158 104.319 130.158ZM111.28 130V120.534H112.668L116.386 128.4H116.492L120.192 120.534H121.528V130H120.376V122.644H120.245L116.87 129.815H115.964L112.554 122.644H112.431V130H111.28Z" fill="white"/>
<path d="M36.0718 153.32C35.9194 152.758 35.6118 152.304 35.1489 151.958C34.6567 151.595 34.0591 151.413 33.356 151.413C32.4126 151.413 31.6655 151.759 31.1147 152.45C30.5581 153.142 30.2798 154.07 30.2798 155.236C30.2798 156.42 30.5581 157.36 31.1147 158.058C31.6714 158.761 32.4185 159.112 33.356 159.112C34.0591 159.112 34.6479 158.951 35.1226 158.629C35.603 158.307 35.9165 157.855 36.063 157.275H37.2319C37.0854 158.143 36.6753 158.834 36.0015 159.35C35.3042 159.889 34.4253 160.158 33.3647 160.158C32.0581 160.158 31.021 159.713 30.2534 158.822C29.48 157.938 29.0933 156.742 29.0933 155.236C29.0933 153.754 29.4771 152.573 30.2446 151.694C31.0181 150.815 32.0552 150.376 33.356 150.376C34.4106 150.376 35.2954 150.66 36.0103 151.229C36.6841 151.768 37.0942 152.465 37.2407 153.32H36.0718ZM39.8071 160V150.534H40.9585V158.163H41.0728L46.3901 150.534H47.5415V160H46.3901V152.371H46.2847L40.9585 160H39.8071ZM55.1177 150.376C56.3188 150.376 57.2827 150.821 58.0093 151.712C58.7358 152.608 59.0991 153.792 59.0991 155.263C59.0991 156.733 58.7358 157.917 58.0093 158.813C57.2769 159.71 56.313 160.158 55.1177 160.158C54.3853 160.158 53.7349 159.985 53.1665 159.64C52.604 159.288 52.1909 158.808 51.9272 158.198H51.8218V163.085H50.6704V150.534H51.769V152.468H51.8745C52.1675 151.817 52.6011 151.308 53.1753 150.938C53.7495 150.563 54.397 150.376 55.1177 150.376ZM54.8628 159.112C55.8003 159.112 56.5415 158.767 57.0864 158.075C57.6372 157.384 57.9126 156.449 57.9126 155.271C57.9126 154.088 57.6401 153.15 57.0952 152.459C56.5444 151.762 55.8032 151.413 54.8716 151.413C53.9458 151.413 53.1987 151.765 52.6304 152.468C52.0679 153.171 51.7866 154.103 51.7866 155.263C51.7866 156.423 52.0679 157.354 52.6304 158.058C53.1929 158.761 53.937 159.112 54.8628 159.112ZM65.5942 159.112C66.5669 159.112 67.3286 158.77 67.8794 158.084C68.4302 157.404 68.7056 156.464 68.7056 155.263C68.7056 154.062 68.4302 153.121 67.8794 152.441C67.3286 151.756 66.5669 151.413 65.5942 151.413C64.6216 151.413 63.8599 151.756 63.3091 152.441C62.7583 153.121 62.4829 154.062 62.4829 155.263C62.4829 156.464 62.7583 157.404 63.3091 158.084C63.8599 158.77 64.6216 159.112 65.5942 159.112ZM65.5942 160.158C64.27 160.158 63.2241 159.719 62.4565 158.84C61.6831 157.967 61.2964 156.774 61.2964 155.263C61.2964 153.751 61.6831 152.559 62.4565 151.686C63.2241 150.812 64.27 150.376 65.5942 150.376C66.9185 150.376 67.9673 150.812 68.7407 151.686C69.5142 152.559 69.9009 153.751 69.9009 155.263C69.9009 156.774 69.5142 157.967 68.7407 158.84C67.9673 159.719 66.9185 160.158 65.5942 160.158ZM78.936 151.51H73.7065V160H72.5552V150.534H80.0874V160H78.936V151.51ZM90.9595 159.139C91.8091 159.139 92.5181 158.884 93.0864 158.374C93.6606 157.858 93.9478 157.226 93.9478 156.476V155.368L91.144 155.57C89.5562 155.682 88.7622 156.279 88.7622 157.363C88.7622 157.902 88.9702 158.333 89.3862 158.655C89.7905 158.978 90.3149 159.139 90.9595 159.139ZM90.7661 160.158C89.8286 160.158 89.064 159.906 88.4722 159.402C87.8745 158.893 87.5757 158.219 87.5757 157.381C87.5757 156.561 87.8716 155.913 88.4634 155.438C89.0435 154.97 89.8843 154.697 90.9858 154.621L93.9478 154.428V153.514C93.9478 152.834 93.7485 152.312 93.3501 151.949C92.9458 151.586 92.3599 151.404 91.5923 151.404C90.9419 151.404 90.397 151.533 89.9575 151.791C89.5122 152.055 89.2339 152.415 89.1226 152.872H87.9536C88.0649 152.122 88.4575 151.519 89.1313 151.062C89.7993 150.604 90.6313 150.376 91.6274 150.376C92.7349 150.376 93.5933 150.651 94.2026 151.202C94.8062 151.747 95.1079 152.515 95.1079 153.505V160H94.0005V158.374H93.895C93.6079 158.937 93.189 159.373 92.6382 159.684C92.0874 160 91.4634 160.158 90.7661 160.158ZM98.3423 150.534H99.4937V154.595H104.811V150.534H105.962V160H104.811V155.57H99.4937V160H98.3423V150.534ZM111.965 159.139C112.815 159.139 113.524 158.884 114.092 158.374C114.667 157.858 114.954 157.226 114.954 156.476V155.368L112.15 155.57C110.562 155.682 109.768 156.279 109.768 157.363C109.768 157.902 109.976 158.333 110.392 158.655C110.796 158.978 111.321 159.139 111.965 159.139ZM111.772 160.158C110.834 160.158 110.07 159.906 109.478 159.402C108.88 158.893 108.582 158.219 108.582 157.381C108.582 156.561 108.877 155.913 109.469 155.438C110.049 154.97 110.89 154.697 111.992 154.621L114.954 154.428V153.514C114.954 152.834 114.754 152.312 114.356 151.949C113.952 151.586 113.366 151.404 112.598 151.404C111.948 151.404 111.403 151.533 110.963 151.791C110.518 152.055 110.24 152.415 110.128 152.872H108.959C109.071 152.122 109.463 151.519 110.137 151.062C110.805 150.604 111.637 150.376 112.633 150.376C113.741 150.376 114.599 150.651 115.208 151.202C115.812 151.747 116.114 152.515 116.114 153.505V160H115.006V158.374H114.901C114.614 158.937 114.195 159.373 113.644 159.684C113.093 160 112.469 160.158 111.772 160.158ZM119.348 150.534H120.5V154.595H125.817V150.534H126.968V160H125.817V155.57H120.5V160H119.348V150.534ZM132.971 159.139C133.821 159.139 134.53 158.884 135.098 158.374C135.672 157.858 135.959 157.226 135.959 156.476V155.368L133.156 155.57C131.568 155.682 130.774 156.279 130.774 157.363C130.774 157.902 130.982 158.333 131.398 158.655C131.802 158.978 132.327 159.139 132.971 159.139ZM132.778 160.158C131.84 160.158 131.076 159.906 130.484 159.402C129.886 158.893 129.587 158.219 129.587 157.381C129.587 156.561 129.883 155.913 130.475 155.438C131.055 154.97 131.896 154.697 132.998 154.621L135.959 154.428V153.514C135.959 152.834 135.76 152.312 135.362 151.949C134.958 151.586 134.372 151.404 133.604 151.404C132.954 151.404 132.409 151.533 131.969 151.791C131.524 152.055 131.246 152.415 131.134 152.872H129.965C130.077 152.122 130.469 151.519 131.143 151.062C131.811 150.604 132.643 150.376 133.639 150.376C134.747 150.376 135.605 150.651 136.214 151.202C136.818 151.747 137.12 152.515 137.12 153.505V160H136.012V158.374H135.907C135.62 158.937 135.201 159.373 134.65 159.684C134.099 160 133.475 160.158 132.778 160.158ZM146.867 153.32C146.714 152.758 146.407 152.304 145.944 151.958C145.452 151.595 144.854 151.413 144.151 151.413C143.208 151.413 142.46 151.759 141.91 152.45C141.353 153.142 141.075 154.07 141.075 155.236C141.075 156.42 141.353 157.36 141.91 158.058C142.466 158.761 143.213 159.112 144.151 159.112C144.854 159.112 145.443 158.951 145.917 158.629C146.398 158.307 146.711 157.855 146.858 157.275H148.027C147.88 158.143 147.47 158.834 146.796 159.35C146.099 159.889 145.22 160.158 144.16 160.158C142.853 160.158 141.816 159.713 141.048 158.822C140.275 157.938 139.888 156.742 139.888 155.236C139.888 153.754 140.272 152.573 141.04 151.694C141.813 150.815 142.85 150.376 144.151 150.376C145.206 150.376 146.09 150.66 146.805 151.229C147.479 151.768 147.889 152.465 148.036 153.32H146.867ZM153.415 159.139C154.264 159.139 154.973 158.884 155.542 158.374C156.116 157.858 156.403 157.226 156.403 156.476V155.368L153.599 155.57C152.011 155.682 151.217 156.279 151.217 157.363C151.217 157.902 151.425 158.333 151.841 158.655C152.246 158.978 152.77 159.139 153.415 159.139ZM153.221 160.158C152.284 160.158 151.519 159.906 150.927 159.402C150.33 158.893 150.031 158.219 150.031 157.381C150.031 156.561 150.327 155.913 150.918 155.438C151.499 154.97 152.339 154.697 153.441 154.621L156.403 154.428V153.514C156.403 152.834 156.204 152.312 155.805 151.949C155.401 151.586 154.815 151.404 154.047 151.404C153.397 151.404 152.852 151.533 152.413 151.791C151.967 152.055 151.689 152.415 151.578 152.872H150.409C150.52 152.122 150.913 151.519 151.586 151.062C152.254 150.604 153.086 150.376 154.083 150.376C155.19 150.376 156.048 150.651 156.658 151.202C157.261 151.747 157.563 152.515 157.563 153.505V160H156.456V158.374H156.35C156.063 158.937 155.644 159.373 155.093 159.684C154.542 160 153.918 160.158 153.221 160.158Z" fill="white"/>
<path d="M242.068 99.3252C240.703 99.3252 239.581 98.9531 238.702 98.209C237.84 97.4824 237.389 96.5449 237.348 95.3965H239.8C239.876 95.9238 240.125 96.3486 240.547 96.6709C240.969 96.9932 241.482 97.1543 242.085 97.1543C242.771 97.1543 243.325 96.9434 243.747 96.5215C244.174 96.0996 244.388 95.5459 244.388 94.8604C244.388 94.1631 244.174 93.6006 243.747 93.1729C243.319 92.7451 242.768 92.5312 242.094 92.5312C241.116 92.5312 240.392 92.9121 239.923 93.6738H237.55L238.183 86.3174H246.155V88.5234H240.24L239.958 91.7842H240.117C240.691 90.958 241.587 90.5449 242.806 90.5449C244.007 90.5449 244.995 90.9434 245.768 91.7402C246.536 92.5371 246.919 93.5566 246.919 94.7988C246.919 96.1465 246.474 97.2363 245.583 98.0684C244.693 98.9062 243.521 99.3252 242.068 99.3252ZM254.109 99.3252C252.539 99.3252 251.308 98.7363 250.417 97.5586C249.521 96.375 249.073 94.7344 249.073 92.6367C249.073 90.5449 249.521 88.9131 250.417 87.7412C251.308 86.5752 252.539 85.9922 254.109 85.9922C255.673 85.9922 256.901 86.5752 257.792 87.7412C258.694 88.9189 259.145 90.5537 259.145 92.6455C259.145 94.7373 258.697 96.375 257.8 97.5586C256.91 98.7363 255.679 99.3252 254.109 99.3252ZM254.109 97.1631C254.847 97.1631 255.421 96.7793 255.832 96.0117C256.248 95.2266 256.456 94.1016 256.456 92.6367C256.456 91.1836 256.245 90.0674 255.823 89.2881C255.418 88.5381 254.847 88.1631 254.109 88.1631C253.376 88.1631 252.805 88.541 252.395 89.2969C251.973 90.0762 251.762 91.1895 251.762 92.6367C251.762 94.0957 251.973 95.2207 252.395 96.0117C252.799 96.7793 253.371 97.1631 254.109 97.1631ZM268.813 91.3184V99H266.255V89.3057H272.961V91.3184H268.813Z" fill="white"/>
<path d="M224.34 129.325C222.448 129.325 221.053 128.561 220.157 127.031C219.448 125.941 219.093 124.515 219.093 122.751C219.093 120.647 219.562 118.995 220.5 117.794C221.437 116.593 222.732 115.992 224.384 115.992C225.591 115.992 226.62 116.317 227.469 116.968C228.325 117.618 228.843 118.474 229.025 119.534H226.397C226.274 119.118 226.028 118.787 225.659 118.541C225.295 118.295 224.865 118.172 224.367 118.172C223.5 118.172 222.82 118.562 222.328 119.341C221.83 120.114 221.595 121.16 221.625 122.479H221.783C222.386 121.23 223.464 120.606 225.017 120.606C226.218 120.606 227.214 121.005 228.005 121.802C228.796 122.599 229.192 123.604 229.192 124.816C229.192 126.135 228.738 127.216 227.83 128.06C226.921 128.903 225.758 129.325 224.34 129.325ZM224.314 127.146C224.964 127.146 225.512 126.929 225.958 126.495C226.397 126.067 226.617 125.534 226.617 124.896C226.617 124.251 226.4 123.715 225.966 123.287C225.533 122.865 224.985 122.654 224.323 122.654C223.661 122.654 223.11 122.865 222.67 123.287C222.237 123.709 222.02 124.236 222.02 124.869C222.02 125.514 222.24 126.056 222.679 126.495C223.119 126.929 223.664 127.146 224.314 127.146ZM236.478 129.325C234.908 129.325 233.677 128.736 232.787 127.559C231.89 126.375 231.442 124.734 231.442 122.637C231.442 120.545 231.89 118.913 232.787 117.741C233.677 116.575 234.908 115.992 236.478 115.992C238.042 115.992 239.27 116.575 240.161 117.741C241.063 118.919 241.514 120.554 241.514 122.646C241.514 124.737 241.066 126.375 240.169 127.559C239.279 128.736 238.048 129.325 236.478 129.325ZM236.478 127.163C237.216 127.163 237.791 126.779 238.201 126.012C238.617 125.227 238.825 124.102 238.825 122.637C238.825 121.184 238.614 120.067 238.192 119.288C237.788 118.538 237.216 118.163 236.478 118.163C235.746 118.163 235.174 118.541 234.764 119.297C234.342 120.076 234.131 121.189 234.131 122.637C234.131 124.096 234.342 125.221 234.764 126.012C235.168 126.779 235.74 127.163 236.478 127.163ZM248.625 129V119.306H251.938L254.478 125.511H254.636L257.185 119.306H260.455V129H258.046V122.575H257.879L255.427 128.455H253.643L251.191 122.575H251.033V129H248.625ZM266.308 124.342C266.22 125.9 265.945 127.055 265.482 127.805C264.949 128.678 264.12 129.114 262.995 129.114C262.678 129.114 262.406 129.076 262.177 129V126.75C262.341 126.791 262.526 126.812 262.731 126.812C263.165 126.812 263.487 126.56 263.698 126.056C263.874 125.646 263.985 125.016 264.032 124.166L264.313 119.306H271.608V129H269.05V121.318H266.51L266.308 124.342Z" fill="white"/>
<path d="M227.342 148.901H227.184L224.072 151.046V148.576L227.351 146.317H229.996V159H227.342V148.901ZM233.371 150.114C233.371 148.89 233.799 147.896 234.654 147.135C235.51 146.373 236.623 145.992 237.994 145.992C239.318 145.992 240.396 146.335 241.229 147.021C242.066 147.712 242.485 148.603 242.485 149.692C242.485 150.384 242.269 151.069 241.835 151.749C241.401 152.435 240.637 153.293 239.541 154.324L237.115 156.636V156.794H242.67V159H233.521V157.146L237.66 153.094C238.551 152.227 239.146 151.573 239.444 151.134C239.743 150.706 239.893 150.284 239.893 149.868C239.893 149.358 239.708 148.939 239.339 148.611C238.964 148.289 238.486 148.128 237.906 148.128C237.291 148.128 236.793 148.312 236.412 148.682C236.025 149.045 235.832 149.52 235.832 150.105V150.158H233.371V150.114ZM249.807 159V149.306H253.12L255.66 155.511H255.818L258.367 149.306H261.637V159H259.229V152.575H259.062L256.609 158.455H254.825L252.373 152.575H252.215V159H249.807ZM267.49 154.342C267.402 155.9 267.127 157.055 266.664 157.805C266.131 158.678 265.302 159.114 264.177 159.114C263.86 159.114 263.588 159.076 263.359 159V156.75C263.523 156.791 263.708 156.812 263.913 156.812C264.347 156.812 264.669 156.56 264.88 156.056C265.056 155.646 265.167 155.016 265.214 154.166L265.495 149.306H272.79V159H270.232V151.318H267.692L267.49 154.342Z" fill="white"/>
<line y1="240.5" x2="310" y2="240.5" stroke="white" stroke-opacity="0.5"/>
<defs>
<filter id="filter0_b" x="-20" y="-20" width="350" height="350" filterUnits="userSpaceOnUse" color-interpolation-filters="sRGB">
<feFlood flood-opacity="0" result="BackgroundImageFix"/>
<feGaussianBlur in="BackgroundImage" stdDeviation="10"/>
<feComposite in2="SourceAlpha" operator="in" result="effect1_backgroundBlur"/>
<feBlend mode="normal" in="SourceGraphic" in2="effect1_backgroundBlur" result="shape"/>
</filter>
</defs>
</svg>
