<svg width="1267" height="180" viewBox="0 0 1267 180" fill="none" xmlns="http://www.w3.org/2000/svg">
<g filter="url(#filter0_b)">
<rect width="1267" height="180" rx="8" fill="white" fill-opacity="0.2"/>
</g>
<path d="M50.875 84.1562C45.2917 84.1562 40.9167 82.0625 37.75 77.875C34.5625 73.6667 32.9688 67.8333 32.9688 60.375C32.9688 52.9375 34.5625 47.1354 37.75 42.9688C40.9167 38.8229 45.2917 36.75 50.875 36.75C56.4375 36.75 60.8021 38.8229 63.9688 42.9688C67.1771 47.1562 68.7812 52.9688 68.7812 60.4062C68.7812 67.8438 67.1875 73.6667 64 77.875C60.8333 82.0625 56.4583 84.1562 50.875 84.1562ZM50.875 76.4688C53.5 76.4688 55.5417 75.1042 57 72.375C58.4792 69.5833 59.2188 65.5833 59.2188 60.375C59.2188 55.2083 58.4688 51.2396 56.9688 48.4688C55.5312 45.8021 53.5 44.4688 50.875 44.4688C48.2708 44.4688 46.2396 45.8125 44.7812 48.5C43.2812 51.2708 42.5312 55.2292 42.5312 60.375C42.5312 65.5625 43.2812 69.5625 44.7812 72.375C46.2188 75.1042 48.25 76.4688 50.875 76.4688ZM87.8438 56.4062H93.3438C95.4896 56.4062 97.2188 55.8333 98.5312 54.6875C99.8646 53.5417 100.531 52.0521 100.531 50.2188C100.531 48.4062 99.875 46.9583 98.5625 45.875C97.2708 44.8125 95.5208 44.2812 93.3125 44.2812C91.125 44.2812 89.3542 44.8542 88 46C86.6458 47.1458 85.9062 48.6979 85.7812 50.6562H77.0625C77.2292 46.3854 78.7917 43 81.75 40.5C84.7083 38 88.6458 36.75 93.5625 36.75C98.1875 36.75 102 37.8854 105 40.1562C107.979 42.4479 109.469 45.3646 109.469 48.9062C109.469 51.5104 108.708 53.75 107.188 55.625C105.688 57.5 103.677 58.6979 101.156 59.2188V59.7812C104.26 60.1354 106.708 61.2708 108.5 63.1875C110.312 65.125 111.219 67.5729 111.219 70.5312C111.219 74.4896 109.552 77.75 106.219 80.3125C102.885 82.875 98.6458 84.1562 93.5 84.1562C88.4792 84.1562 84.3958 82.875 81.25 80.3125C78.1042 77.75 76.4271 74.3438 76.2188 70.0938H85.25C85.3958 72.0104 86.2188 73.5208 87.7188 74.625C89.2188 75.75 91.1771 76.3125 93.5938 76.3125C95.9479 76.3125 97.875 75.7083 99.375 74.5C100.854 73.2917 101.594 71.7292 101.594 69.8125C101.594 67.8333 100.865 66.2812 99.4062 65.1562C97.9479 64.0104 95.9583 63.4375 93.4375 63.4375H87.8438V56.4062ZM123.844 83.8438C122.198 83.8438 120.854 83.3333 119.812 82.3125C118.812 81.2917 118.312 79.9896 118.312 78.4062C118.312 76.8229 118.812 75.5312 119.812 74.5312C120.833 73.5104 122.177 73 123.844 73C125.51 73 126.854 73.5104 127.875 74.5312C128.875 75.5104 129.375 76.8021 129.375 78.4062C129.375 80.0104 128.875 81.3125 127.875 82.3125C126.854 83.3333 125.51 83.8438 123.844 83.8438ZM153.562 84.1562C147.979 84.1562 143.604 82.0625 140.438 77.875C137.25 73.6667 135.656 67.8333 135.656 60.375C135.656 52.9375 137.25 47.1354 140.438 42.9688C143.604 38.8229 147.979 36.75 153.562 36.75C159.125 36.75 163.49 38.8229 166.656 42.9688C169.865 47.1562 171.469 52.9688 171.469 60.4062C171.469 67.8438 169.875 73.6667 166.688 77.875C163.521 82.0625 159.146 84.1562 153.562 84.1562ZM153.562 76.4688C156.188 76.4688 158.229 75.1042 159.688 72.375C161.167 69.5833 161.906 65.5833 161.906 60.375C161.906 55.2083 161.156 51.2396 159.656 48.4688C158.219 45.8021 156.188 44.4688 153.562 44.4688C150.958 44.4688 148.927 45.8125 147.469 48.5C145.969 51.2708 145.219 55.2292 145.219 60.375C145.219 65.5625 145.969 69.5625 147.469 72.375C148.906 75.1042 150.938 76.4688 153.562 76.4688ZM201.219 46.25V45.6562H178.875V37.875H210.656V45.75L191.812 83H181.938L201.219 46.25Z" fill="white"/>
<path d="M44.4688 127.115C44.2344 126.143 43.7422 125.369 42.9922 124.795C42.1836 124.174 41.1699 123.863 39.9512 123.863C38.3691 123.863 37.127 124.438 36.2246 125.586C35.3105 126.734 34.8535 128.328 34.8535 130.367C34.8535 132.43 35.3105 134.053 36.2246 135.236C37.127 136.408 38.3691 136.994 39.9512 136.994C42.459 136.994 43.9648 135.945 44.4688 133.848H48.1426C47.8965 135.816 47.0645 137.387 45.6465 138.559C44.1816 139.766 42.2891 140.369 39.9688 140.369C37.1797 140.369 34.9883 139.484 33.3945 137.715C31.7891 135.934 30.9863 133.484 30.9863 130.367C30.9863 127.297 31.7832 124.883 33.377 123.125C34.9707 121.367 37.1621 120.488 39.9512 120.488C42.2832 120.488 44.1875 121.115 45.6641 122.369C47.0586 123.553 47.8848 125.135 48.1426 127.115H44.4688ZM59.0762 137.135C60.4941 137.135 61.6777 136.736 62.627 135.939C63.5645 135.143 64.0332 134.146 64.0332 132.951V131.352L59.3574 131.65C56.8027 131.826 55.5254 132.746 55.5254 134.41C55.5254 135.254 55.8594 135.922 56.5273 136.414C57.1719 136.895 58.0215 137.135 59.0762 137.135ZM58.1094 140.316C56.2344 140.316 54.7109 139.801 53.5391 138.77C52.332 137.703 51.7285 136.309 51.7285 134.586C51.7285 132.875 52.3438 131.527 53.5742 130.543C54.8047 129.57 56.5625 129.014 58.8477 128.873L64.0332 128.574V126.922C64.0332 124.812 62.7266 123.758 60.1133 123.758C57.8984 123.758 56.5684 124.467 56.123 125.885H52.4668C52.6543 124.244 53.4629 122.932 54.8926 121.947C56.3105 120.975 58.1094 120.488 60.2891 120.488C62.6797 120.488 64.5312 121.057 65.8438 122.193C67.1445 123.318 67.7949 124.895 67.7949 126.922V140H64.1562V137.311H63.8574C62.6621 139.314 60.7461 140.316 58.1094 140.316ZM80.6094 133.215L76.4258 140H72.2773L78.623 130.473L72.2246 120.857H76.6367L80.75 127.607H81.0488L85.127 120.857H89.3281L83.0176 130.314L89.3984 140H85.0566L80.8906 133.215H80.6094ZM99.8574 137.135C101.275 137.135 102.459 136.736 103.408 135.939C104.346 135.143 104.814 134.146 104.814 132.951V131.352L100.139 131.65C97.584 131.826 96.3066 132.746 96.3066 134.41C96.3066 135.254 96.6406 135.922 97.3086 136.414C97.9531 136.895 98.8027 137.135 99.8574 137.135ZM98.8906 140.316C97.0156 140.316 95.4922 139.801 94.3203 138.77C93.1133 137.703 92.5098 136.309 92.5098 134.586C92.5098 132.875 93.125 131.527 94.3555 130.543C95.5859 129.57 97.3438 129.014 99.6289 128.873L104.814 128.574V126.922C104.814 124.812 103.508 123.758 100.895 123.758C98.6797 123.758 97.3496 124.467 96.9043 125.885H93.248C93.4355 124.244 94.2441 122.932 95.6738 121.947C97.0918 120.975 98.8906 120.488 101.07 120.488C103.461 120.488 105.312 121.057 106.625 122.193C107.926 123.318 108.576 124.895 108.576 126.922V140H104.938V137.311H104.639C103.443 139.314 101.527 140.316 98.8906 140.316ZM124.432 120.541C126.869 120.541 128.803 121.426 130.232 123.195C131.662 124.977 132.377 127.385 132.377 130.42C132.377 133.455 131.662 135.863 130.232 137.645C128.814 139.426 126.893 140.316 124.467 140.316C121.607 140.316 119.645 139.244 118.578 137.1H118.279V146.205H114.5V120.857H118.139V124.021H118.42C118.994 122.932 119.814 122.076 120.881 121.455C121.947 120.846 123.131 120.541 124.432 120.541ZM123.359 136.924C124.965 136.924 126.225 136.35 127.139 135.201C128.041 134.041 128.492 132.447 128.492 130.42C128.492 128.393 128.041 126.805 127.139 125.656C126.225 124.508 124.971 123.934 123.377 123.934C121.783 123.934 120.523 124.514 119.598 125.674C118.672 126.846 118.209 128.434 118.209 130.438C118.209 132.43 118.672 134.012 119.598 135.184C120.523 136.344 121.777 136.924 123.359 136.924ZM137.264 120.857H141.043V128.521H150.008V120.857H153.787V140H150.008V131.703H141.043V140H137.264V120.857ZM176.568 120.857H180.348V140H176.568V120.857ZM163.473 129.893V136.818H166.83C167.967 136.818 168.881 136.502 169.572 135.869C170.252 135.236 170.592 134.398 170.592 133.355C170.592 132.312 170.252 131.475 169.572 130.842C168.881 130.209 167.967 129.893 166.83 129.893H163.473ZM159.693 120.857H163.473V126.729H167.111C169.326 126.729 171.09 127.326 172.402 128.521C173.715 129.717 174.371 131.328 174.371 133.355C174.371 135.383 173.715 137 172.402 138.207C171.09 139.402 169.326 140 167.111 140H159.693V120.857ZM191.07 112.191C191.07 113.164 191.352 113.984 191.914 114.652C192.5 115.344 193.256 115.689 194.182 115.689C195.131 115.689 195.898 115.344 196.484 114.652C197.035 113.984 197.316 113.164 197.328 112.191H200.457C200.457 113.914 199.883 115.332 198.734 116.445C197.562 117.57 196.045 118.133 194.182 118.133C192.318 118.133 190.807 117.57 189.646 116.445C188.498 115.332 187.924 113.914 187.924 112.191H191.07ZM186.131 140V120.857H189.875V134.023H190.174L199.156 120.857H202.9V140H199.156V126.764H198.857L189.875 140H186.131ZM218.51 140V120.857H223.256L229.426 134.551H229.725L235.912 120.857H240.518V140H236.844V126.799H236.51L230.902 139.227H228.125L222.518 126.799H222.184V140H218.51ZM252.611 137.135C254.029 137.135 255.213 136.736 256.162 135.939C257.1 135.143 257.568 134.146 257.568 132.951V131.352L252.893 131.65C250.338 131.826 249.061 132.746 249.061 134.41C249.061 135.254 249.395 135.922 250.062 136.414C250.707 136.895 251.557 137.135 252.611 137.135ZM251.645 140.316C249.77 140.316 248.246 139.801 247.074 138.77C245.867 137.703 245.264 136.309 245.264 134.586C245.264 132.875 245.879 131.527 247.109 130.543C248.34 129.57 250.098 129.014 252.383 128.873L257.568 128.574V126.922C257.568 124.812 256.262 123.758 253.648 123.758C251.434 123.758 250.104 124.467 249.658 125.885H246.002C246.189 124.244 246.998 122.932 248.428 121.947C249.846 120.975 251.645 120.488 253.824 120.488C256.215 120.488 258.066 121.057 259.379 122.193C260.68 123.318 261.33 124.895 261.33 126.922V140H257.691V137.311H257.393C256.197 139.314 254.281 140.316 251.645 140.316ZM279.84 127.115C279.605 126.143 279.113 125.369 278.363 124.795C277.555 124.174 276.541 123.863 275.322 123.863C273.74 123.863 272.498 124.438 271.596 125.586C270.682 126.734 270.225 128.328 270.225 130.367C270.225 132.43 270.682 134.053 271.596 135.236C272.498 136.408 273.74 136.994 275.322 136.994C277.83 136.994 279.336 135.945 279.84 133.848H283.514C283.268 135.816 282.436 137.387 281.018 138.559C279.553 139.766 277.66 140.369 275.34 140.369C272.551 140.369 270.359 139.484 268.766 137.715C267.16 135.934 266.357 133.484 266.357 130.367C266.357 127.297 267.154 124.883 268.748 123.125C270.342 121.367 272.533 120.488 275.322 120.488C277.654 120.488 279.559 121.115 281.035 122.369C282.43 123.553 283.256 125.135 283.514 127.115H279.84ZM301.637 124.039H295.607V140H291.828V124.039H285.799V120.857H301.637V124.039ZM313.133 123.705C311.738 123.705 310.59 124.156 309.688 125.059C308.785 125.961 308.281 127.162 308.176 128.662H317.844C317.797 127.15 317.352 125.949 316.508 125.059C315.652 124.156 314.527 123.705 313.133 123.705ZM321.465 134.832C321.031 136.555 320.088 137.908 318.635 138.893C317.17 139.877 315.348 140.369 313.168 140.369C310.426 140.369 308.27 139.484 306.699 137.715C305.117 135.957 304.326 133.549 304.326 130.49C304.326 127.432 305.123 125 306.717 123.195C308.311 121.391 310.455 120.488 313.15 120.488C315.811 120.488 317.902 121.344 319.426 123.055C320.938 124.766 321.693 127.127 321.693 130.139V131.457H308.176V131.668C308.234 133.355 308.721 134.691 309.635 135.676C310.549 136.66 311.762 137.152 313.273 137.152C315.582 137.152 317.1 136.379 317.826 134.832H321.465ZM336.529 120.541C338.967 120.541 340.9 121.426 342.33 123.195C343.76 124.977 344.475 127.385 344.475 130.42C344.475 133.455 343.76 135.863 342.33 137.645C340.912 139.426 338.99 140.316 336.564 140.316C333.705 140.316 331.742 139.244 330.676 137.1H330.377V146.205H326.598V120.857H330.236V124.021H330.518C331.092 122.932 331.912 122.076 332.979 121.455C334.045 120.846 335.229 120.541 336.529 120.541ZM335.457 136.924C337.062 136.924 338.322 136.35 339.236 135.201C340.139 134.041 340.59 132.447 340.59 130.42C340.59 128.393 340.139 126.805 339.236 125.656C338.322 124.508 337.068 123.934 335.475 123.934C333.881 123.934 332.621 124.514 331.695 125.674C330.77 126.846 330.307 128.434 330.307 130.438C330.307 132.43 330.77 134.012 331.695 135.184C332.621 136.344 333.875 136.924 335.457 136.924ZM349.291 131.633V127.924H360.822V131.633H349.291ZM371.141 128.627L378.049 120.857H382.496L374.252 129.752L382.848 140H378.137L371.158 131.633H370.297V140H366.518V120.857H370.297V128.627H371.141ZM392.076 131.246C391.877 134.199 391.367 136.373 390.547 137.768C389.598 139.385 388.121 140.193 386.117 140.193C385.613 140.193 385.18 140.123 384.816 139.982V136.449C385.133 136.543 385.473 136.59 385.836 136.59C386.715 136.59 387.377 136.08 387.822 135.061C388.209 134.182 388.467 132.846 388.596 131.053L389.264 120.857H402.447V140H398.668V124.039H392.604L392.076 131.246ZM414.506 137.135C415.924 137.135 417.107 136.736 418.057 135.939C418.994 135.143 419.463 134.146 419.463 132.951V131.352L414.787 131.65C412.232 131.826 410.955 132.746 410.955 134.41C410.955 135.254 411.289 135.922 411.957 136.414C412.602 136.895 413.451 137.135 414.506 137.135ZM413.539 140.316C411.664 140.316 410.141 139.801 408.969 138.77C407.762 137.703 407.158 136.309 407.158 134.586C407.158 132.875 407.773 131.527 409.004 130.543C410.234 129.57 411.992 129.014 414.277 128.873L419.463 128.574V126.922C419.463 124.812 418.156 123.758 415.543 123.758C413.328 123.758 411.998 124.467 411.553 125.885H407.896C408.084 124.244 408.893 122.932 410.322 121.947C411.74 120.975 413.539 120.488 415.719 120.488C418.109 120.488 419.961 121.057 421.273 122.193C422.574 123.318 423.225 124.895 423.225 126.922V140H419.586V137.311H419.287C418.092 139.314 416.176 140.316 413.539 140.316ZM441.734 127.115C441.5 126.143 441.008 125.369 440.258 124.795C439.449 124.174 438.436 123.863 437.217 123.863C435.635 123.863 434.393 124.438 433.49 125.586C432.576 126.734 432.119 128.328 432.119 130.367C432.119 132.43 432.576 134.053 433.49 135.236C434.393 136.408 435.635 136.994 437.217 136.994C439.725 136.994 441.23 135.945 441.734 133.848H445.408C445.162 135.816 444.33 137.387 442.912 138.559C441.447 139.766 439.555 140.369 437.234 140.369C434.445 140.369 432.254 139.484 430.66 137.715C429.055 135.934 428.252 133.484 428.252 130.367C428.252 127.297 429.049 124.883 430.643 123.125C432.236 121.367 434.428 120.488 437.217 120.488C439.549 120.488 441.453 121.115 442.93 122.369C444.324 123.553 445.15 125.135 445.408 127.115H441.734ZM462.652 127.115C462.418 126.143 461.926 125.369 461.176 124.795C460.367 124.174 459.354 123.863 458.135 123.863C456.553 123.863 455.311 124.438 454.408 125.586C453.494 126.734 453.037 128.328 453.037 130.367C453.037 132.43 453.494 134.053 454.408 135.236C455.311 136.408 456.553 136.994 458.135 136.994C460.643 136.994 462.148 135.945 462.652 133.848H466.326C466.08 135.816 465.248 137.387 463.83 138.559C462.365 139.766 460.473 140.369 458.152 140.369C455.363 140.369 453.172 139.484 451.578 137.715C449.973 135.934 449.17 133.484 449.17 130.367C449.17 127.297 449.967 124.883 451.561 123.125C453.154 121.367 455.346 120.488 458.135 120.488C460.467 120.488 462.371 121.115 463.848 122.369C465.242 123.553 466.068 125.135 466.326 127.115H462.652Z" fill="white"/>
<defs>
<filter id="filter0_b" x="-20" y="-20" width="1307" height="220" filterUnits="userSpaceOnUse" color-interpolation-filters="sRGB">
<feFlood flood-opacity="0" result="BackgroundImageFix"/>
<feGaussianBlur in="BackgroundImage" stdDeviation="10"/>
<feComposite in2="SourceAlpha" operator="in" result="effect1_backgroundBlur"/>
<feBlend mode="normal" in="SourceGraphic" in2="effect1_backgroundBlur" result="shape"/>
</filter>
</defs>
</svg>
