<svg width="310" height="310" viewBox="0 0 310 310" fill="none" xmlns="http://www.w3.org/2000/svg">
<g filter="url(#filter0_b)">
<rect width="310" height="310" rx="8" fill="white" fill-opacity="0.2"/>
</g>
<path d="M84.3379 48.498C81.4668 48.498 79.1963 47.5068 77.5264 45.5244C75.8467 43.542 75.0068 40.8467 75.0068 37.4385C75.0068 34.0303 75.8418 31.3301 77.5117 29.3379C79.1816 27.3555 81.4521 26.3643 84.3232 26.3643C86.5498 26.3643 88.4541 26.999 90.0361 28.2686C91.6182 29.5381 92.5654 31.1934 92.8779 33.2344H90.1973C89.8457 31.8672 89.1426 30.7881 88.0879 29.9971C87.0332 29.1963 85.7783 28.7959 84.3232 28.7959C82.292 28.7959 80.6855 29.5723 79.5039 31.125C78.3125 32.6777 77.7168 34.7822 77.7168 37.4385C77.7168 40.0947 78.3125 42.1943 79.5039 43.7373C80.6953 45.29 82.3066 46.0664 84.3379 46.0664C85.8125 46.0664 87.0723 45.7148 88.1172 45.0117C89.1719 44.2988 89.8652 43.332 90.1973 42.1113H92.8779C92.5264 44.0547 91.5791 45.6025 90.0361 46.7549C88.4834 47.917 86.584 48.498 84.3379 48.498ZM101.14 36.1494L110.017 26.8623H113.327L103.41 37.043L114.177 48H110.69L101.14 38.2588H100.524V48H97.8877V26.8623H100.524V36.1494H101.14ZM129.631 41.9502H121.223L119.099 48H116.33L124.123 26.8623H126.73L134.523 48H131.755L129.631 41.9502ZM121.999 39.709H128.854L125.544 30.2754H125.31L121.999 39.709ZM152.79 31.1836H152.556L141.13 48H138.522V26.8623H141.13V43.7373H141.364L152.79 26.8623H155.397V48H152.79V31.1836ZM144.147 20.5488C144.147 21.3398 144.406 21.9795 144.924 22.4678C145.432 22.9463 146.081 23.1855 146.872 23.1855C147.673 23.1855 148.332 22.9463 148.85 22.4678C149.367 21.9795 149.626 21.3398 149.626 20.5488H151.911C151.911 21.8965 151.447 22.9658 150.52 23.7568C149.611 24.5283 148.396 24.9141 146.872 24.9141C145.349 24.9141 144.138 24.5283 143.239 23.7568C142.321 22.9658 141.862 21.8965 141.862 20.5488H144.147ZM184.006 41.6572C184.006 43.5225 183.376 45.0459 182.116 46.2275C180.847 47.4092 179.221 48 177.238 48H169.548V26.8623H181.896V29.2354H172.185V35.2852H177.209C179.201 35.2852 180.832 35.876 182.102 37.0576C183.371 38.249 184.006 39.7822 184.006 41.6572ZM176.55 45.627C178.063 45.627 179.235 45.2852 180.065 44.6016C180.886 43.9082 181.296 42.9268 181.296 41.6572C181.296 40.3779 180.881 39.3916 180.051 38.6982C179.23 38.0049 178.063 37.6582 176.55 37.6582H172.185V45.627H176.55ZM201.174 48V29.2354H193.454L192.78 40.0898C192.614 42.7754 192.141 44.7529 191.359 46.0225C190.5 47.4287 189.177 48.1318 187.39 48.1318C186.979 48.1318 186.638 48.083 186.364 47.9854V45.627C186.579 45.6855 186.843 45.7148 187.155 45.7148C188.259 45.7148 189.055 45.1729 189.543 44.0889C189.934 43.2393 190.183 41.8721 190.29 39.9873L191.052 26.8623H203.811V48H201.174ZM211.589 48.1465C211.062 48.1465 210.671 48.083 210.417 47.9561V45.583C210.729 45.6611 211.12 45.7002 211.589 45.7002C213.103 45.7002 214.255 44.9629 215.046 43.4883L207.824 26.8623H210.637L216.306 40.5586H216.54L222.077 26.8623H224.816L218.342 41.9502C217.395 44.1572 216.501 45.6904 215.661 46.5498C214.616 47.6143 213.259 48.1465 211.589 48.1465Z" fill="white"/>
<path d="M39.5977 281.496H31.3594V279.574C32.9062 276.824 35.3203 272.996 38.6016 268.09H41.6602V279.609H44.0625V281.496H41.6602V285H39.5977V281.496ZM33.5156 279.621H39.6094V270.047H39.4688C37.6406 272.703 35.6562 275.848 33.5156 279.48V279.621ZM52.8984 285.398C51.2969 285.398 49.9727 284.945 48.9258 284.039C47.8789 283.141 47.3086 281.961 47.2148 280.5H49.2891C49.3828 281.414 49.7617 282.148 50.4258 282.703C51.0977 283.266 51.9297 283.547 52.9219 283.547C54.0547 283.547 54.9648 283.191 55.6523 282.48C56.3477 281.77 56.6953 280.836 56.6953 279.68C56.6953 278.523 56.3477 277.582 55.6523 276.855C54.9648 276.137 54.0664 275.777 52.957 275.777C51.3555 275.777 50.1914 276.41 49.4648 277.676H47.4844L48.4102 268.09H57.8438V269.977H50.0625L49.582 275.402H49.7695C50.5898 274.441 51.7812 273.961 53.3438 273.961C54.9531 273.961 56.2656 274.488 57.2812 275.543C58.2969 276.598 58.8047 277.957 58.8047 279.621C58.8047 281.34 58.2578 282.73 57.1641 283.793C56.0703 284.863 54.6484 285.398 52.8984 285.398ZM67.8633 285.398C65.957 285.398 64.4805 284.625 63.4336 283.078C62.3867 281.531 61.8633 279.352 61.8633 276.539C61.8633 273.75 62.3906 271.578 63.4453 270.023C64.5 268.469 65.9727 267.691 67.8633 267.691C69.7461 267.691 71.2109 268.473 72.2578 270.035C73.3125 271.598 73.8398 273.777 73.8398 276.574C73.8398 279.379 73.3203 281.551 72.2812 283.09C71.2344 284.629 69.7617 285.398 67.8633 285.398ZM67.8633 283.559C69.1133 283.559 70.0664 282.957 70.7227 281.754C71.3867 280.543 71.7188 278.805 71.7188 276.539C71.7188 274.297 71.3867 272.57 70.7227 271.359C70.0508 270.148 69.0977 269.543 67.8633 269.543C66.6289 269.543 65.6719 270.152 64.9922 271.371C64.3203 272.582 63.9844 274.305 63.9844 276.539C63.9844 278.797 64.3203 280.531 64.9922 281.742C65.6562 282.953 66.6133 283.559 67.8633 283.559ZM81.1875 276.621H83.8828C85.0625 276.621 85.9648 276.32 86.5898 275.719C87.1836 275.141 87.4805 274.328 87.4805 273.281C87.4805 272.242 87.1836 271.438 86.5898 270.867C85.9727 270.266 85.0703 269.965 83.8828 269.965H81.1875V276.621ZM81.1875 282.305V285H79.0781V282.305H76.7344V280.711H79.0781V278.449H76.7344V276.621H79.0781V268.09H84.4336C85.9961 268.09 87.2617 268.586 88.2305 269.578C89.1758 270.539 89.6484 271.773 89.6484 273.281C89.6484 274.789 89.1719 276.023 88.2188 276.984C87.25 277.961 85.9805 278.449 84.4102 278.449H81.1875V280.711H86.0508V282.305H81.1875Z" fill="white"/>
<path d="M30.7104 91.5098V100H29.5591V90.5342H35.562V91.5098H30.7104ZM41.4419 99.1123C42.4146 99.1123 43.1763 98.7695 43.7271 98.084C44.2778 97.4043 44.5532 96.4639 44.5532 95.2627C44.5532 94.0615 44.2778 93.1211 43.7271 92.4414C43.1763 91.7559 42.4146 91.4131 41.4419 91.4131C40.4692 91.4131 39.7075 91.7559 39.1567 92.4414C38.606 93.1211 38.3306 94.0615 38.3306 95.2627C38.3306 96.4639 38.606 97.4043 39.1567 98.084C39.7075 98.7695 40.4692 99.1123 41.4419 99.1123ZM41.4419 100.158C40.1177 100.158 39.0718 99.7188 38.3042 98.8398C37.5308 97.9668 37.144 96.7744 37.144 95.2627C37.144 93.751 37.5308 92.5586 38.3042 91.6855C39.0718 90.8125 40.1177 90.376 41.4419 90.376C42.7661 90.376 43.8149 90.8125 44.5884 91.6855C45.3618 92.5586 45.7485 93.751 45.7485 95.2627C45.7485 96.7744 45.3618 97.9668 44.5884 98.8398C43.8149 99.7188 42.7661 100.158 41.4419 100.158ZM50.2573 95.9307C50.1519 97.29 49.9351 98.2861 49.6069 98.9189C49.2026 99.6924 48.5786 100.079 47.7349 100.079C47.5415 100.079 47.3657 100.05 47.2075 99.9912V98.9277C47.3481 98.9746 47.5063 98.998 47.6821 98.998C48.1509 98.998 48.5024 98.7109 48.7368 98.1367C48.9419 97.6504 49.0825 96.9004 49.1587 95.8867C49.2935 94.4805 49.4165 92.6963 49.5278 90.5342H55.5835V100H54.4321V91.5098H50.5737C50.48 93.3145 50.3745 94.7881 50.2573 95.9307ZM59.4155 103.296C59.1812 103.296 59.0024 103.284 58.8794 103.261V102.268C59.0024 102.285 59.1753 102.294 59.3979 102.294C59.8374 102.294 60.1919 102.168 60.4614 101.916C60.7251 101.676 60.9683 101.254 61.1909 100.65L61.3843 100.062L57.8335 90.5342H59.0815L61.9468 98.7432H62.0522L64.9087 90.5342H66.1392L62.4565 100.457C62.0405 101.57 61.6274 102.32 61.2173 102.707C60.7954 103.1 60.1948 103.296 59.4155 103.296ZM72.1772 100.167C70.8003 100.167 69.7427 99.7129 69.0044 98.8047C68.2368 97.8555 67.853 96.4463 67.853 94.5771C67.853 92.1514 68.1724 90.3848 68.811 89.2773C69.5552 87.9824 70.8472 87.3086 72.687 87.2559C72.8745 87.2559 73.2671 87.2383 73.8647 87.2031C74.7144 87.1504 75.4058 87.0068 75.939 86.7725V87.8008C75.3179 88.0762 74.647 88.2314 73.9263 88.2666C73.5806 88.3076 73.1792 88.3281 72.7222 88.3281C71.3979 88.3633 70.4399 88.7559 69.8481 89.5059C69.3325 90.1562 68.9985 91.2197 68.8462 92.6963H68.9517C69.6021 91.3369 70.73 90.6572 72.3354 90.6572C73.5952 90.6572 74.603 91.0732 75.3589 91.9053C76.1265 92.7549 76.5103 93.8975 76.5103 95.333C76.5103 96.8271 76.1206 98.0078 75.3413 98.875C74.562 99.7363 73.5073 100.167 72.1772 100.167ZM72.1772 99.1299C73.1558 99.1299 73.9263 98.793 74.4888 98.1191C75.0454 97.4453 75.3237 96.5166 75.3237 95.333C75.3237 94.1963 75.0454 93.3057 74.4888 92.6611C73.9263 92.0166 73.1558 91.6943 72.1772 91.6943C71.1987 91.6943 70.4312 92.0166 69.8745 92.6611C69.3179 93.3057 69.0396 94.1963 69.0396 95.333C69.0396 96.5166 69.3179 97.4453 69.8745 98.1191C70.4312 98.793 71.1987 99.1299 72.1772 99.1299ZM79.1821 100V90.5342H80.3335V98.1631H80.4478L85.7651 90.5342H86.9165V100H85.7651V92.3711H85.6597L80.3335 100H79.1821ZM91.5659 94.6826L95.7759 90.5342H97.1997L92.5327 95.0781L97.4106 100H95.8901L91.5659 95.6055H91.1968V100H90.0454V90.5342H91.1968V94.6826H91.5659ZM102.245 99.1387C103.094 99.1387 103.803 98.8838 104.372 98.374C104.946 97.8584 105.233 97.2256 105.233 96.4756V95.3682L102.429 95.5703C100.841 95.6816 100.047 96.2793 100.047 97.3633C100.047 97.9023 100.255 98.333 100.671 98.6553C101.076 98.9775 101.6 99.1387 102.245 99.1387ZM102.051 100.158C101.114 100.158 100.349 99.9062 99.7573 99.4023C99.1597 98.8926 98.8608 98.2188 98.8608 97.3809C98.8608 96.5605 99.1567 95.9131 99.7485 95.4385C100.329 94.9697 101.169 94.6973 102.271 94.6211L105.233 94.4277V93.5137C105.233 92.834 105.034 92.3125 104.635 91.9492C104.231 91.5859 103.645 91.4043 102.877 91.4043C102.227 91.4043 101.682 91.5332 101.243 91.791C100.797 92.0547 100.519 92.415 100.408 92.8721H99.2388C99.3501 92.1221 99.7427 91.5186 100.417 91.0615C101.084 90.6045 101.917 90.376 102.913 90.376C104.02 90.376 104.878 90.6514 105.488 91.2021C106.091 91.7471 106.393 92.5146 106.393 93.5049V100H105.286V98.374H105.18C104.893 98.9365 104.474 99.373 103.923 99.6836C103.373 100 102.749 100.158 102.051 100.158Z" fill="white"/>
<path d="M35.8081 121.51H31.7036C31.6157 123.186 31.5073 124.659 31.3784 125.931C31.2554 127.39 30.9712 128.386 30.5259 128.919V129.024H35.8081V121.51ZM28.3813 132.505V129.024H29.146C29.7788 128.614 30.1626 127.568 30.2974 125.887C30.3325 125.541 30.4585 123.757 30.6753 120.534H36.9595V129.024H38.4888V132.505H37.3989V130H29.4712V132.505H28.3813ZM44.1665 125.087L39.9302 120.534H41.3452L45.0894 124.7H45.5112V120.534H46.645V124.7H47.0581L50.8022 120.534H52.2085L47.9897 125.061L52.4282 130H50.9517L47.0581 125.588H46.645V130H45.5112V125.588H45.0894L41.2046 130H39.7456L44.1665 125.087ZM54.6958 130V120.534H55.8472V128.163H55.9614L61.2788 120.534H62.4302V130H61.2788V122.371H61.1733L55.8472 130H54.6958ZM65.5591 120.534H66.7104V124.595H72.0278V120.534H73.1792V130H72.0278V125.57H66.7104V130H65.5591V120.534Z" fill="white"/>
<path d="M29.5591 150.534H30.7104V159.024H34.7974V150.534H35.9487V159.024H40.0269V150.534H41.1782V160H29.5591V150.534ZM45.4585 151.51V154.621H47.8228C48.479 154.621 48.9829 154.48 49.3345 154.199C49.6743 153.924 49.8442 153.531 49.8442 153.021C49.8442 152.553 49.689 152.187 49.3784 151.923C49.0562 151.647 48.5991 151.51 48.0073 151.51H45.4585ZM45.4585 155.597V159.024H48.1479C49.5776 159.024 50.2925 158.447 50.2925 157.293C50.2925 156.162 49.5015 155.597 47.9194 155.597H45.4585ZM44.3071 150.534H48.1392C49.0239 150.534 49.7212 150.748 50.231 151.176C50.729 151.604 50.978 152.184 50.978 152.916C50.978 153.426 50.8228 153.877 50.5122 154.27C50.2017 154.656 49.8032 154.896 49.3169 154.99V155.104C49.938 155.175 50.4419 155.409 50.8286 155.808C51.2329 156.212 51.4351 156.713 51.4351 157.311C51.4351 158.154 51.1509 158.813 50.5825 159.288C50.0083 159.763 49.2056 160 48.1743 160H44.3071V150.534ZM57.8159 151.396C56.9546 151.396 56.2485 151.688 55.6978 152.274C55.147 152.866 54.8452 153.648 54.7925 154.621H60.6899C60.6782 153.643 60.4116 152.86 59.8901 152.274C59.3628 151.688 58.6714 151.396 57.8159 151.396ZM61.7446 157.662C61.5103 158.436 61.0474 159.045 60.356 159.49C59.6646 159.936 58.8237 160.158 57.8335 160.158C56.5327 160.158 55.5015 159.716 54.7397 158.831C53.978 157.952 53.5972 156.766 53.5972 155.271C53.5972 153.783 53.981 152.597 54.7485 151.712C55.5103 150.821 56.5356 150.376 57.8247 150.376C59.0845 150.376 60.0776 150.795 60.8042 151.633C61.5308 152.471 61.894 153.613 61.894 155.061V155.57H54.7837V155.623C54.813 156.695 55.106 157.548 55.6626 158.181C56.2134 158.813 56.9458 159.13 57.8599 159.13C59.2485 159.13 60.1538 158.641 60.5757 157.662H61.7446ZM70.938 151.51H65.7085V160H64.5571V150.534H72.0894V160H70.938V151.51ZM81.7397 153.32C81.5874 152.758 81.2798 152.304 80.8169 151.958C80.3247 151.595 79.7271 151.413 79.0239 151.413C78.0806 151.413 77.3335 151.759 76.7827 152.45C76.2261 153.142 75.9478 154.07 75.9478 155.236C75.9478 156.42 76.2261 157.36 76.7827 158.058C77.3394 158.761 78.0864 159.112 79.0239 159.112C79.7271 159.112 80.3159 158.951 80.7905 158.629C81.271 158.307 81.5845 157.855 81.731 157.275H82.8999C82.7534 158.143 82.3433 158.834 81.6694 159.35C80.9722 159.889 80.0933 160.158 79.0327 160.158C77.7261 160.158 76.689 159.713 75.9214 158.822C75.1479 157.938 74.7612 156.742 74.7612 155.236C74.7612 153.754 75.145 152.573 75.9126 151.694C76.686 150.815 77.7231 150.376 79.0239 150.376C80.0786 150.376 80.9634 150.66 81.6782 151.229C82.3521 151.768 82.7622 152.465 82.9087 153.32H81.7397Z" fill="white"/>
<path d="M32.4243 189.139C33.2739 189.139 33.9829 188.884 34.5513 188.374C35.1255 187.858 35.4126 187.226 35.4126 186.476V185.368L32.6089 185.57C31.021 185.682 30.2271 186.279 30.2271 187.363C30.2271 187.902 30.4351 188.333 30.8511 188.655C31.2554 188.978 31.7798 189.139 32.4243 189.139ZM32.231 190.158C31.2935 190.158 30.5288 189.906 29.937 189.402C29.3394 188.893 29.0405 188.219 29.0405 187.381C29.0405 186.561 29.3364 185.913 29.9282 185.438C30.5083 184.97 31.3491 184.697 32.4507 184.621L35.4126 184.428V183.514C35.4126 182.834 35.2134 182.312 34.8149 181.949C34.4106 181.586 33.8247 181.404 33.0571 181.404C32.4067 181.404 31.8618 181.533 31.4224 181.791C30.9771 182.055 30.6987 182.415 30.5874 182.872H29.4185C29.5298 182.122 29.9224 181.519 30.5962 181.062C31.2642 180.604 32.0962 180.376 33.0923 180.376C34.1997 180.376 35.0581 180.651 35.6675 181.202C36.271 181.747 36.5728 182.515 36.5728 183.505V190H35.4653V188.374H35.3599C35.0728 188.937 34.6538 189.373 34.103 189.684C33.5522 190 32.9282 190.158 32.231 190.158ZM46.3198 183.32C46.1675 182.758 45.8599 182.304 45.397 181.958C44.9048 181.595 44.3071 181.413 43.604 181.413C42.6606 181.413 41.9136 181.759 41.3628 182.45C40.8062 183.142 40.5278 184.07 40.5278 185.236C40.5278 186.42 40.8062 187.36 41.3628 188.058C41.9194 188.761 42.6665 189.112 43.604 189.112C44.3071 189.112 44.896 188.951 45.3706 188.629C45.8511 188.307 46.1646 187.855 46.311 187.275H47.48C47.3335 188.143 46.9233 188.834 46.2495 189.35C45.5522 189.889 44.6733 190.158 43.6128 190.158C42.3062 190.158 41.269 189.713 40.5015 188.822C39.728 187.938 39.3413 186.742 39.3413 185.236C39.3413 183.754 39.7251 182.573 40.4927 181.694C41.2661 180.815 42.3032 180.376 43.604 180.376C44.6587 180.376 45.5435 180.66 46.2583 181.229C46.9321 181.768 47.3423 182.465 47.4888 183.32H46.3198ZM56.4185 181.51H53.1841V190H52.0327V181.51H48.7983V180.534H56.4185V181.51ZM58.7212 190V180.534H59.8726V188.163H59.9868L65.3042 180.534H66.4556V190H65.3042V182.371H65.1987L59.8726 190H58.7212ZM69.4175 185.43V184.34H75.1831V185.43H69.4175ZM78.1626 180.534H79.314V189.024H83.4009V180.534H84.5522V189.024H88.6304V180.534H89.7817V190H78.1626V180.534ZM95.7759 189.139C96.6255 189.139 97.3345 188.884 97.9028 188.374C98.4771 187.858 98.7642 187.226 98.7642 186.476V185.368L95.9604 185.57C94.3726 185.682 93.5786 186.279 93.5786 187.363C93.5786 187.902 93.7866 188.333 94.2026 188.655C94.6069 188.978 95.1313 189.139 95.7759 189.139ZM95.5825 190.158C94.645 190.158 93.8804 189.906 93.2886 189.402C92.6909 188.893 92.3921 188.219 92.3921 187.381C92.3921 186.561 92.688 185.913 93.2798 185.438C93.8599 184.97 94.7007 184.697 95.8022 184.621L98.7642 184.428V183.514C98.7642 182.834 98.5649 182.312 98.1665 181.949C97.7622 181.586 97.1763 181.404 96.4087 181.404C95.7583 181.404 95.2134 181.533 94.7739 181.791C94.3286 182.055 94.0503 182.415 93.939 182.872H92.77C92.8813 182.122 93.2739 181.519 93.9478 181.062C94.6157 180.604 95.4478 180.376 96.4438 180.376C97.5513 180.376 98.4097 180.651 99.019 181.202C99.6226 181.747 99.9243 182.515 99.9243 183.505V190H98.8169V188.374H98.7114C98.4243 188.937 98.0054 189.373 97.4546 189.684C96.9038 190 96.2798 190.158 95.5825 190.158ZM103.159 190V180.534H104.547L108.265 188.4H108.371L112.071 180.534H113.407V190H112.255V182.644H112.124L108.749 189.815H107.843L104.433 182.644H104.31V190H103.159ZM122.917 181.51H117.687V190H116.536V180.534H124.068V190H122.917V181.51ZM130.071 189.139C130.92 189.139 131.629 188.884 132.198 188.374C132.772 187.858 133.059 187.226 133.059 186.476V185.368L130.255 185.57C128.667 185.682 127.874 186.279 127.874 187.363C127.874 187.902 128.082 188.333 128.498 188.655C128.902 188.978 129.426 189.139 130.071 189.139ZM129.877 190.158C128.94 190.158 128.175 189.906 127.583 189.402C126.986 188.893 126.687 188.219 126.687 187.381C126.687 186.561 126.983 185.913 127.575 185.438C128.155 184.97 128.996 184.697 130.097 184.621L133.059 184.428V183.514C133.059 182.834 132.86 182.312 132.461 181.949C132.057 181.586 131.471 181.404 130.704 181.404C130.053 181.404 129.508 181.533 129.069 181.791C128.624 182.055 128.345 182.415 128.234 182.872H127.065C127.176 182.122 127.569 181.519 128.243 181.062C128.911 180.604 129.743 180.376 130.739 180.376C131.846 180.376 132.705 180.651 133.314 181.202C133.917 181.747 134.219 182.515 134.219 183.505V190H133.112V188.374H133.006C132.719 188.937 132.3 189.373 131.75 189.684C131.199 190 130.575 190.158 129.877 190.158ZM137.454 180.534H138.605V184.595H143.922V180.534H145.074V190H143.922V185.57H138.605V190H137.454V180.534ZM149.363 184.735V189.024H151.419C152.111 189.024 152.665 188.828 153.081 188.436C153.491 188.049 153.696 187.53 153.696 186.88C153.696 186.224 153.488 185.702 153.072 185.315C152.662 184.929 152.111 184.735 151.419 184.735H149.363ZM148.211 180.534H149.363V183.751H151.419C152.468 183.751 153.3 184.032 153.916 184.595C154.537 185.163 154.847 185.925 154.847 186.88C154.847 187.835 154.537 188.594 153.916 189.156C153.3 189.719 152.468 190 151.419 190H148.211V180.534Z" fill="white"/>
<path d="M242.068 99.3252C240.703 99.3252 239.581 98.9531 238.702 98.209C237.84 97.4824 237.389 96.5449 237.348 95.3965H239.8C239.876 95.9238 240.125 96.3486 240.547 96.6709C240.969 96.9932 241.482 97.1543 242.085 97.1543C242.771 97.1543 243.325 96.9434 243.747 96.5215C244.174 96.0996 244.388 95.5459 244.388 94.8604C244.388 94.1631 244.174 93.6006 243.747 93.1729C243.319 92.7451 242.768 92.5312 242.094 92.5312C241.116 92.5312 240.392 92.9121 239.923 93.6738H237.55L238.183 86.3174H246.155V88.5234H240.24L239.958 91.7842H240.117C240.691 90.958 241.587 90.5449 242.806 90.5449C244.007 90.5449 244.995 90.9434 245.768 91.7402C246.536 92.5371 246.919 93.5566 246.919 94.7988C246.919 96.1465 246.474 97.2363 245.583 98.0684C244.693 98.9062 243.521 99.3252 242.068 99.3252ZM254.109 99.3252C252.539 99.3252 251.308 98.7363 250.417 97.5586C249.521 96.375 249.073 94.7344 249.073 92.6367C249.073 90.5449 249.521 88.9131 250.417 87.7412C251.308 86.5752 252.539 85.9922 254.109 85.9922C255.673 85.9922 256.901 86.5752 257.792 87.7412C258.694 88.9189 259.145 90.5537 259.145 92.6455C259.145 94.7373 258.697 96.375 257.8 97.5586C256.91 98.7363 255.679 99.3252 254.109 99.3252ZM254.109 97.1631C254.847 97.1631 255.421 96.7793 255.832 96.0117C256.248 95.2266 256.456 94.1016 256.456 92.6367C256.456 91.1836 256.245 90.0674 255.823 89.2881C255.418 88.5381 254.847 88.1631 254.109 88.1631C253.376 88.1631 252.805 88.541 252.395 89.2969C251.973 90.0762 251.762 91.1895 251.762 92.6367C251.762 94.0957 251.973 95.2207 252.395 96.0117C252.799 96.7793 253.371 97.1631 254.109 97.1631ZM268.813 91.3184V99H266.255V89.3057H272.961V91.3184H268.813Z" fill="white"/>
<path d="M222.368 121.521H223.915C224.519 121.521 225.005 121.359 225.374 121.037C225.749 120.715 225.937 120.296 225.937 119.78C225.937 119.271 225.752 118.863 225.383 118.559C225.02 118.26 224.527 118.11 223.906 118.11C223.291 118.11 222.793 118.271 222.412 118.594C222.031 118.916 221.823 119.353 221.788 119.903H219.336C219.383 118.702 219.822 117.75 220.654 117.047C221.486 116.344 222.594 115.992 223.977 115.992C225.277 115.992 226.35 116.312 227.193 116.95C228.031 117.595 228.45 118.415 228.45 119.411C228.45 120.144 228.236 120.773 227.809 121.301C227.387 121.828 226.821 122.165 226.112 122.312V122.47C226.985 122.569 227.674 122.889 228.178 123.428C228.688 123.973 228.942 124.661 228.942 125.493C228.942 126.606 228.474 127.523 227.536 128.244C226.599 128.965 225.406 129.325 223.959 129.325C222.547 129.325 221.398 128.965 220.514 128.244C219.629 127.523 219.157 126.565 219.099 125.37H221.639C221.68 125.909 221.911 126.334 222.333 126.645C222.755 126.961 223.306 127.119 223.985 127.119C224.647 127.119 225.189 126.949 225.611 126.609C226.027 126.27 226.235 125.83 226.235 125.291C226.235 124.734 226.03 124.298 225.62 123.981C225.21 123.659 224.65 123.498 223.941 123.498H222.368V121.521ZM236.105 129.325C234.535 129.325 233.305 128.736 232.414 127.559C231.518 126.375 231.069 124.734 231.069 122.637C231.069 120.545 231.518 118.913 232.414 117.741C233.305 116.575 234.535 115.992 236.105 115.992C237.67 115.992 238.897 116.575 239.788 117.741C240.69 118.919 241.142 120.554 241.142 122.646C241.142 124.737 240.693 126.375 239.797 127.559C238.906 128.736 237.676 129.325 236.105 129.325ZM236.105 127.163C236.844 127.163 237.418 126.779 237.828 126.012C238.244 125.227 238.452 124.102 238.452 122.637C238.452 121.184 238.241 120.067 237.819 119.288C237.415 118.538 236.844 118.163 236.105 118.163C235.373 118.163 234.802 118.541 234.392 119.297C233.97 120.076 233.759 121.189 233.759 122.637C233.759 124.096 233.97 125.221 234.392 126.012C234.796 126.779 235.367 127.163 236.105 127.163ZM248.252 129V119.306H251.565L254.105 125.511H254.264L256.812 119.306H260.082V129H257.674V122.575H257.507L255.055 128.455H253.271L250.818 122.575H250.66V129H248.252ZM265.936 124.342C265.848 125.9 265.572 127.055 265.109 127.805C264.576 128.678 263.747 129.114 262.622 129.114C262.306 129.114 262.033 129.076 261.805 129V126.75C261.969 126.791 262.153 126.812 262.358 126.812C262.792 126.812 263.114 126.56 263.325 126.056C263.501 125.646 263.612 125.016 263.659 124.166L263.94 119.306H271.235V129H268.678V121.318H266.138L265.936 124.342Z" fill="white"/>
<path d="M224.231 159.325C222.708 159.325 221.475 158.982 220.531 158.297C219.588 157.611 219.116 156.718 219.116 155.616C219.116 154.819 219.371 154.128 219.881 153.542C220.385 152.95 221.062 152.561 221.911 152.373V152.215C221.22 152.057 220.666 151.726 220.25 151.222C219.834 150.718 219.626 150.129 219.626 149.455C219.626 148.441 220.057 147.612 220.918 146.968C221.785 146.317 222.893 145.992 224.24 145.992C225.582 145.992 226.687 146.317 227.554 146.968C228.415 147.612 228.846 148.441 228.846 149.455C228.846 150.129 228.638 150.718 228.222 151.222C227.812 151.72 227.258 152.051 226.561 152.215V152.373C227.404 152.531 228.084 152.903 228.6 153.489C229.109 154.081 229.364 154.781 229.364 155.59C229.364 156.703 228.89 157.603 227.94 158.288C226.991 158.979 225.755 159.325 224.231 159.325ZM224.231 157.321C224.929 157.321 225.497 157.14 225.937 156.776C226.376 156.413 226.596 155.944 226.596 155.37C226.596 154.79 226.376 154.318 225.937 153.955C225.497 153.592 224.929 153.41 224.231 153.41C223.534 153.41 222.969 153.592 222.535 153.955C222.096 154.318 221.876 154.79 221.876 155.37C221.876 155.944 222.096 156.413 222.535 156.776C222.969 157.14 223.534 157.321 224.231 157.321ZM224.231 151.45C224.817 151.45 225.298 151.286 225.673 150.958C226.042 150.636 226.227 150.22 226.227 149.71C226.227 149.194 226.042 148.775 225.673 148.453C225.298 148.125 224.817 147.961 224.231 147.961C223.646 147.961 223.168 148.125 222.799 148.453C222.43 148.775 222.245 149.194 222.245 149.71C222.245 150.22 222.43 150.636 222.799 150.958C223.168 151.286 223.646 151.45 224.231 151.45ZM236.562 159.325C234.992 159.325 233.762 158.736 232.871 157.559C231.975 156.375 231.526 154.734 231.526 152.637C231.526 150.545 231.975 148.913 232.871 147.741C233.762 146.575 234.992 145.992 236.562 145.992C238.127 145.992 239.354 146.575 240.245 147.741C241.147 148.919 241.599 150.554 241.599 152.646C241.599 154.737 241.15 156.375 240.254 157.559C239.363 158.736 238.133 159.325 236.562 159.325ZM236.562 157.163C237.301 157.163 237.875 156.779 238.285 156.012C238.701 155.227 238.909 154.102 238.909 152.637C238.909 151.184 238.698 150.067 238.276 149.288C237.872 148.538 237.301 148.163 236.562 148.163C235.83 148.163 235.259 148.541 234.849 149.297C234.427 150.076 234.216 151.189 234.216 152.637C234.216 154.096 234.427 155.221 234.849 156.012C235.253 156.779 235.824 157.163 236.562 157.163ZM248.709 159V149.306H252.022L254.562 155.511H254.721L257.27 149.306H260.539V159H258.131V152.575H257.964L255.512 158.455H253.728L251.275 152.575H251.117V159H248.709ZM266.393 154.342C266.305 155.9 266.029 157.055 265.566 157.805C265.033 158.678 264.204 159.114 263.079 159.114C262.763 159.114 262.49 159.076 262.262 159V156.75C262.426 156.791 262.61 156.812 262.815 156.812C263.249 156.812 263.571 156.56 263.782 156.056C263.958 155.646 264.069 155.016 264.116 154.166L264.397 149.306H271.692V159H269.135V151.318H266.595L266.393 154.342Z" fill="white"/>
<path d="M224.068 189.325C222.703 189.325 221.581 188.953 220.702 188.209C219.84 187.482 219.389 186.545 219.348 185.396H221.8C221.876 185.924 222.125 186.349 222.547 186.671C222.969 186.993 223.482 187.154 224.085 187.154C224.771 187.154 225.325 186.943 225.747 186.521C226.174 186.1 226.388 185.546 226.388 184.86C226.388 184.163 226.174 183.601 225.747 183.173C225.319 182.745 224.768 182.531 224.094 182.531C223.116 182.531 222.392 182.912 221.923 183.674H219.55L220.183 176.317H228.155V178.523H222.24L221.958 181.784H222.117C222.691 180.958 223.587 180.545 224.806 180.545C226.007 180.545 226.995 180.943 227.768 181.74C228.536 182.537 228.919 183.557 228.919 184.799C228.919 186.146 228.474 187.236 227.583 188.068C226.693 188.906 225.521 189.325 224.068 189.325ZM236.109 189.325C234.539 189.325 233.308 188.736 232.417 187.559C231.521 186.375 231.073 184.734 231.073 182.637C231.073 180.545 231.521 178.913 232.417 177.741C233.308 176.575 234.539 175.992 236.109 175.992C237.673 175.992 238.901 176.575 239.792 177.741C240.694 178.919 241.145 180.554 241.145 182.646C241.145 184.737 240.697 186.375 239.8 187.559C238.91 188.736 237.679 189.325 236.109 189.325ZM236.109 187.163C236.847 187.163 237.421 186.779 237.832 186.012C238.248 185.227 238.456 184.102 238.456 182.637C238.456 181.184 238.245 180.067 237.823 179.288C237.418 178.538 236.847 178.163 236.109 178.163C235.376 178.163 234.805 178.541 234.395 179.297C233.973 180.076 233.762 181.189 233.762 182.637C233.762 184.096 233.973 185.221 234.395 186.012C234.799 186.779 235.371 187.163 236.109 187.163ZM248.255 189V179.306H251.569L254.109 185.511H254.267L256.816 179.306H260.085V189H257.677V182.575H257.51L255.058 188.455H253.274L250.822 182.575H250.664V189H248.255ZM265.939 184.342C265.851 185.9 265.576 187.055 265.113 187.805C264.58 188.678 263.75 189.114 262.625 189.114C262.309 189.114 262.037 189.076 261.808 189V186.75C261.972 186.791 262.157 186.812 262.362 186.812C262.795 186.812 263.118 186.56 263.329 186.056C263.504 185.646 263.616 185.016 263.663 184.166L263.944 179.306H271.239V189H268.681V181.318H266.141L265.939 184.342Z" fill="white"/>
<line y1="240.5" x2="310" y2="240.5" stroke="white" stroke-opacity="0.5"/>
<defs>
<filter id="filter0_b" x="-20" y="-20" width="350" height="350" filterUnits="userSpaceOnUse" color-interpolation-filters="sRGB">
<feFlood flood-opacity="0" result="BackgroundImageFix"/>
<feGaussianBlur in="BackgroundImage" stdDeviation="10"/>
<feComposite in2="SourceAlpha" operator="in" result="effect1_backgroundBlur"/>
<feBlend mode="normal" in="SourceGraphic" in2="effect1_backgroundBlur" result="shape"/>
</filter>
</defs>
</svg>
