<svg width="310" height="310" viewBox="0 0 310 310" fill="none" xmlns="http://www.w3.org/2000/svg">
<g filter="url(#filter0_b)">
<rect width="310" height="310" rx="8" fill="white" fill-opacity="0.2"/>
</g>
<path d="M63.3379 48.498C60.4668 48.498 58.1963 47.5068 56.5264 45.5244C54.8467 43.542 54.0068 40.8467 54.0068 37.4385C54.0068 34.0303 54.8418 31.3301 56.5117 29.3379C58.1816 27.3555 60.4521 26.3643 63.3232 26.3643C65.5498 26.3643 67.4541 26.999 69.0361 28.2686C70.6182 29.5381 71.5654 31.1934 71.8779 33.2344H69.1973C68.8457 31.8672 68.1426 30.7881 67.0879 29.9971C66.0332 29.1963 64.7783 28.7959 63.3232 28.7959C61.292 28.7959 59.6855 29.5723 58.5039 31.125C57.3125 32.6777 56.7168 34.7822 56.7168 37.4385C56.7168 40.0947 57.3125 42.1943 58.5039 43.7373C59.6953 45.29 61.3066 46.0664 63.3379 46.0664C64.8125 46.0664 66.0723 45.7148 67.1172 45.0117C68.1719 44.2988 68.8652 43.332 69.1973 42.1113H71.8779C71.5264 44.0547 70.5791 45.6025 69.0361 46.7549C67.4834 47.917 65.584 48.498 63.3379 48.498ZM89.1484 48V29.2354H81.4287L80.7549 40.0898C80.5889 42.7754 80.1152 44.7529 79.334 46.0225C78.4746 47.4287 77.1514 48.1318 75.3643 48.1318C74.9541 48.1318 74.6123 48.083 74.3389 47.9854V45.627C74.5537 45.6855 74.8174 45.7148 75.1299 45.7148C76.2334 45.7148 77.0293 45.1729 77.5176 44.0889C77.9082 43.2393 78.1572 41.8721 78.2646 39.9873L79.0264 26.8623H91.7852V48H89.1484ZM113.553 48.498C110.721 48.498 108.46 47.585 106.771 45.7588C105.101 43.9619 104.183 41.501 104.017 38.376H100.12V48H97.4834V26.8623H100.12V36.0029H104.046C104.29 33.0146 105.252 30.6611 106.932 28.9424C108.621 27.2236 110.828 26.3643 113.553 26.3643C116.502 26.3643 118.831 27.3604 120.54 29.3525C122.229 31.335 123.074 34.0254 123.074 37.4238C123.074 40.8223 122.229 43.5127 120.54 45.4951C118.841 47.4971 116.512 48.498 113.553 48.498ZM113.553 28.7959C111.443 28.7959 109.773 29.5723 108.543 31.125C107.312 32.6777 106.697 34.7773 106.697 37.4238C106.697 40.0703 107.303 42.165 108.514 43.708C109.734 45.2803 111.414 46.0664 113.553 46.0664C115.662 46.0664 117.327 45.2803 118.548 43.708C119.759 42.1553 120.364 40.0605 120.364 37.4238C120.364 34.7676 119.759 32.668 118.548 31.125C117.327 29.5723 115.662 28.7959 113.553 28.7959ZM142.19 48V38.376H130.589V48H127.952V26.8623H130.589V36.0029H142.19V26.8623H144.827V48H142.19ZM162.127 41.9502H153.719L151.595 48H148.826L156.619 26.8623H159.227L167.02 48H164.251L162.127 41.9502ZM154.495 39.709H161.351L158.04 30.2754H157.806L154.495 39.709ZM182.737 36.1494L191.614 26.8623H194.925L185.008 37.043L195.774 48H192.288L182.737 38.2588H182.122V48H179.485V26.8623H182.122V36.1494H182.737ZM207.479 26.3643C210.477 26.3643 212.84 27.3604 214.568 29.3525C216.287 31.335 217.146 34.0254 217.146 37.4238C217.146 40.8223 216.292 43.5127 214.583 45.4951C212.845 47.4971 210.477 48.498 207.479 48.498C204.461 48.498 202.083 47.4971 200.345 45.4951C198.626 43.5127 197.767 40.8223 197.767 37.4238C197.767 34.0254 198.641 31.3301 200.389 29.3379C202.127 27.3555 204.49 26.3643 207.479 26.3643ZM207.479 28.7959C205.33 28.7959 203.626 29.5723 202.366 31.125C201.106 32.6777 200.477 34.7773 200.477 37.4238C200.477 40.0703 201.097 42.165 202.337 43.708C203.587 45.2803 205.301 46.0664 207.479 46.0664C209.637 46.0664 211.341 45.2803 212.591 43.708C213.821 42.1553 214.437 40.0605 214.437 37.4238C214.437 34.7676 213.816 32.668 212.576 31.125C211.336 29.5723 209.637 28.7959 207.479 28.7959ZM226.492 48V29.2354H219.681V26.8623H235.94V29.2354H229.129V48H226.492ZM249.725 41.9502H241.316L239.192 48H236.424L244.217 26.8623H246.824L254.617 48H251.849L249.725 41.9502ZM242.093 39.709H248.948L245.638 30.2754H245.403L242.093 39.709Z" fill="white"/>
<path d="M35.332 275.402H37.3828C38.3438 275.402 39.1328 275.121 39.75 274.559C40.3594 273.996 40.6641 273.277 40.6641 272.402C40.6641 271.543 40.3672 270.848 39.7734 270.316C39.1797 269.793 38.3945 269.531 37.418 269.531C36.4414 269.531 35.6523 269.785 35.0508 270.293C34.4492 270.809 34.1055 271.52 34.0195 272.426H31.9688C32.0781 270.957 32.625 269.801 33.6094 268.957C34.5938 268.113 35.8906 267.691 37.5 267.691C38.9766 267.691 40.2305 268.121 41.2617 268.98C42.293 269.84 42.8086 270.887 42.8086 272.121C42.8086 273.129 42.5469 273.98 42.0234 274.676C41.5 275.371 40.7734 275.832 39.8438 276.059V276.246C40.9922 276.395 41.8945 276.84 42.5508 277.582C43.207 278.332 43.5352 279.285 43.5352 280.441C43.5352 281.832 42.9609 283.008 41.8125 283.969C40.6641 284.922 39.2539 285.398 37.582 285.398C35.8633 285.398 34.4609 284.961 33.375 284.086C32.2891 283.203 31.707 282.039 31.6289 280.594H33.668C33.7617 281.492 34.1602 282.211 34.8633 282.75C35.5664 283.289 36.4648 283.559 37.5586 283.559C38.668 283.559 39.582 283.262 40.3008 282.668C41.0117 282.074 41.3672 281.312 41.3672 280.383C41.3672 279.406 41.0195 278.633 40.3242 278.062C39.6289 277.492 38.6797 277.207 37.4766 277.207H35.332V275.402ZM54.6445 281.496H46.4062V279.574C47.9531 276.824 50.3672 272.996 53.6484 268.09H56.707V279.609H59.1094V281.496H56.707V285H54.6445V281.496ZM48.5625 279.621H54.6562V270.047H54.5156C52.6875 272.703 50.7031 275.848 48.5625 279.48V279.621ZM68.0508 285.398C66.1445 285.398 64.668 284.625 63.6211 283.078C62.5742 281.531 62.0508 279.352 62.0508 276.539C62.0508 273.75 62.5781 271.578 63.6328 270.023C64.6875 268.469 66.1602 267.691 68.0508 267.691C69.9336 267.691 71.3984 268.473 72.4453 270.035C73.5 271.598 74.0273 273.777 74.0273 276.574C74.0273 279.379 73.5078 281.551 72.4688 283.09C71.4219 284.629 69.9492 285.398 68.0508 285.398ZM68.0508 283.559C69.3008 283.559 70.2539 282.957 70.9102 281.754C71.5742 280.543 71.9062 278.805 71.9062 276.539C71.9062 274.297 71.5742 272.57 70.9102 271.359C70.2383 270.148 69.2852 269.543 68.0508 269.543C66.8164 269.543 65.8594 270.152 65.1797 271.371C64.5078 272.582 64.1719 274.305 64.1719 276.539C64.1719 278.797 64.5078 280.531 65.1797 281.742C65.8438 282.953 66.8008 283.559 68.0508 283.559ZM81.375 276.621H84.0703C85.25 276.621 86.1523 276.32 86.7773 275.719C87.3711 275.141 87.668 274.328 87.668 273.281C87.668 272.242 87.3711 271.438 86.7773 270.867C86.1602 270.266 85.2578 269.965 84.0703 269.965H81.375V276.621ZM81.375 282.305V285H79.2656V282.305H76.9219V280.711H79.2656V278.449H76.9219V276.621H79.2656V268.09H84.6211C86.1836 268.09 87.4492 268.586 88.418 269.578C89.3633 270.539 89.8359 271.773 89.8359 273.281C89.8359 274.789 89.3594 276.023 88.4062 276.984C87.4375 277.961 86.168 278.449 84.5977 278.449H81.375V280.711H86.2383V282.305H81.375Z" fill="white"/>
<path d="M36.0718 93.3203C35.9194 92.7578 35.6118 92.3037 35.1489 91.958C34.6567 91.5947 34.0591 91.4131 33.356 91.4131C32.4126 91.4131 31.6655 91.7588 31.1147 92.4502C30.5581 93.1416 30.2798 94.0703 30.2798 95.2363C30.2798 96.4199 30.5581 97.3604 31.1147 98.0576C31.6714 98.7607 32.4185 99.1123 33.356 99.1123C34.0591 99.1123 34.6479 98.9512 35.1226 98.6289C35.603 98.3066 35.9165 97.8555 36.063 97.2754H37.2319C37.0854 98.1426 36.6753 98.834 36.0015 99.3496C35.3042 99.8887 34.4253 100.158 33.3647 100.158C32.0581 100.158 31.021 99.7129 30.2534 98.8223C29.48 97.9375 29.0933 96.7422 29.0933 95.2363C29.0933 93.7539 29.4771 92.5732 30.2446 91.6943C31.0181 90.8154 32.0552 90.376 33.356 90.376C34.4106 90.376 35.2954 90.6602 36.0103 91.2285C36.6841 91.7676 37.0942 92.4648 37.2407 93.3203H36.0718ZM41.7319 95.9307C41.6265 97.29 41.4097 98.2861 41.0815 98.9189C40.6772 99.6924 40.0532 100.079 39.2095 100.079C39.0161 100.079 38.8403 100.05 38.6821 99.9912V98.9277C38.8228 98.9746 38.981 98.998 39.1567 98.998C39.6255 98.998 39.9771 98.7109 40.2114 98.1367C40.4165 97.6504 40.5571 96.9004 40.6333 95.8867C40.7681 94.4805 40.8911 92.6963 41.0024 90.5342H47.0581V100H45.9067V91.5098H42.0483C41.9546 93.3145 41.8491 94.7881 41.7319 95.9307ZM57.5786 100.167C56.3247 100.167 55.3228 99.7568 54.5728 98.9365C53.8228 98.1221 53.4214 97 53.3687 95.5703H51.3472V100H50.1958V90.5342H51.3472V94.5947H53.395C53.5122 93.2822 53.9399 92.251 54.6782 91.501C55.4224 90.751 56.3892 90.376 57.5786 90.376C58.8735 90.376 59.8989 90.8125 60.6548 91.6855C61.4106 92.5645 61.7886 93.7627 61.7886 95.2803C61.7886 96.792 61.4106 97.9844 60.6548 98.8574C59.8989 99.7305 58.8735 100.167 57.5786 100.167ZM57.5786 99.1299C58.522 99.1299 59.2603 98.7871 59.7935 98.1016C60.3325 97.4219 60.6021 96.4814 60.6021 95.2803C60.6021 94.0732 60.3325 93.127 59.7935 92.4414C59.2603 91.7617 58.522 91.4219 57.5786 91.4219C56.6353 91.4219 55.894 91.7617 55.355 92.4414C54.8218 93.127 54.5552 94.0732 54.5552 95.2803C54.5552 96.4814 54.8218 97.4219 55.355 98.1016C55.894 98.7871 56.6353 99.1299 57.5786 99.1299ZM64.4517 90.5342H65.603V94.5947H70.9204V90.5342H72.0718V100H70.9204V95.5703H65.603V100H64.4517V90.5342ZM78.0747 99.1387C78.9243 99.1387 79.6333 98.8838 80.2017 98.374C80.7759 97.8584 81.063 97.2256 81.063 96.4756V95.3682L78.2593 95.5703C76.6714 95.6816 75.8774 96.2793 75.8774 97.3633C75.8774 97.9023 76.0854 98.333 76.5015 98.6553C76.9058 98.9775 77.4302 99.1387 78.0747 99.1387ZM77.8813 100.158C76.9438 100.158 76.1792 99.9062 75.5874 99.4023C74.9897 98.8926 74.6909 98.2188 74.6909 97.3809C74.6909 96.5605 74.9868 95.9131 75.5786 95.4385C76.1587 94.9697 76.9995 94.6973 78.1011 94.6211L81.063 94.4277V93.5137C81.063 92.834 80.8638 92.3125 80.4653 91.9492C80.061 91.5859 79.4751 91.4043 78.7075 91.4043C78.0571 91.4043 77.5122 91.5332 77.0728 91.791C76.6274 92.0547 76.3491 92.415 76.2378 92.8721H75.0688C75.1802 92.1221 75.5728 91.5186 76.2466 91.0615C76.9146 90.6045 77.7466 90.376 78.7427 90.376C79.8501 90.376 80.7085 90.6514 81.3179 91.2021C81.9214 91.7471 82.2231 92.5146 82.2231 93.5049V100H81.1157V98.374H81.0103C80.7231 98.9365 80.3042 99.373 79.7534 99.6836C79.2026 100 78.5786 100.158 77.8813 100.158ZM91.8472 94.6826L96.0571 90.5342H97.481L92.814 95.0781L97.6919 100H96.1714L91.8472 95.6055H91.478V100H90.3267V90.5342H91.478V94.6826H91.8472ZM103.37 99.1123C104.342 99.1123 105.104 98.7695 105.655 98.084C106.206 97.4043 106.481 96.4639 106.481 95.2627C106.481 94.0615 106.206 93.1211 105.655 92.4414C105.104 91.7559 104.342 91.4131 103.37 91.4131C102.397 91.4131 101.635 91.7559 101.084 92.4414C100.534 93.1211 100.258 94.0615 100.258 95.2627C100.258 96.4639 100.534 97.4043 101.084 98.084C101.635 98.7695 102.397 99.1123 103.37 99.1123ZM103.37 100.158C102.045 100.158 101 99.7188 100.232 98.8398C99.4585 97.9668 99.0718 96.7744 99.0718 95.2627C99.0718 93.751 99.4585 92.5586 100.232 91.6855C101 90.8125 102.045 90.376 103.37 90.376C104.694 90.376 105.743 90.8125 106.516 91.6855C107.29 92.5586 107.676 93.751 107.676 95.2627C107.676 96.7744 107.29 97.9668 106.516 98.8398C105.743 99.7188 104.694 100.158 103.37 100.158ZM116.764 91.5098H113.53V100H112.378V91.5098H109.144V90.5342H116.764V91.5098ZM121.739 99.1387C122.588 99.1387 123.297 98.8838 123.866 98.374C124.44 97.8584 124.727 97.2256 124.727 96.4756V95.3682L121.923 95.5703C120.335 95.6816 119.542 96.2793 119.542 97.3633C119.542 97.9023 119.75 98.333 120.166 98.6553C120.57 98.9775 121.094 99.1387 121.739 99.1387ZM121.545 100.158C120.608 100.158 119.843 99.9062 119.251 99.4023C118.654 98.8926 118.355 98.2188 118.355 97.3809C118.355 96.5605 118.651 95.9131 119.243 95.4385C119.823 94.9697 120.664 94.6973 121.765 94.6211L124.727 94.4277V93.5137C124.727 92.834 124.528 92.3125 124.129 91.9492C123.725 91.5859 123.139 91.4043 122.372 91.4043C121.721 91.4043 121.176 91.5332 120.737 91.791C120.292 92.0547 120.013 92.415 119.902 92.8721H118.733C118.844 92.1221 119.237 91.5186 119.911 91.0615C120.579 90.6045 121.411 90.376 122.407 90.376C123.514 90.376 124.373 90.6514 124.982 91.2021C125.585 91.7471 125.887 92.5146 125.887 93.5049V100H124.78V98.374H124.674C124.387 98.9365 123.968 99.373 123.417 99.6836C122.867 100 122.243 100.158 121.545 100.158Z" fill="white"/>
<path d="M31.4839 125.931C31.3784 127.29 31.1616 128.286 30.8335 128.919C30.4292 129.692 29.8052 130.079 28.9614 130.079C28.7681 130.079 28.5923 130.05 28.4341 129.991V128.928C28.5747 128.975 28.7329 128.998 28.9087 128.998C29.3774 128.998 29.729 128.711 29.9634 128.137C30.1685 127.65 30.3091 126.9 30.3853 125.887C30.52 124.48 30.6431 122.696 30.7544 120.534H36.8101V130H35.6587V121.51H31.8003C31.7065 123.314 31.6011 124.788 31.4839 125.931ZM39.9478 130V120.534H41.0991V128.163H41.2134L46.5308 120.534H47.6821V130H46.5308V122.371H46.4253L41.0991 130H39.9478ZM52.3315 124.683L56.5415 120.534H57.9653L53.2983 125.078L58.1763 130H56.6558L52.3315 125.605H51.9624V130H50.811V120.534H51.9624V124.683H52.3315ZM63.7749 121.396C62.9136 121.396 62.2075 121.688 61.6567 122.274C61.106 122.866 60.8042 123.648 60.7515 124.621H66.6489C66.6372 123.643 66.3706 122.86 65.8491 122.274C65.3218 121.688 64.6304 121.396 63.7749 121.396ZM67.7036 127.662C67.4692 128.436 67.0063 129.045 66.3149 129.49C65.6235 129.936 64.7827 130.158 63.7925 130.158C62.4917 130.158 61.4604 129.716 60.6987 128.831C59.937 127.952 59.5562 126.766 59.5562 125.271C59.5562 123.783 59.9399 122.597 60.7075 121.712C61.4692 120.821 62.4946 120.376 63.7837 120.376C65.0435 120.376 66.0366 120.795 66.7632 121.633C67.4897 122.471 67.853 123.613 67.853 125.061V125.57H60.7427V125.623C60.772 126.695 61.0649 127.548 61.6216 128.181C62.1724 128.813 62.9048 129.13 63.8188 129.13C65.2075 129.13 66.1128 128.641 66.5347 127.662H67.7036ZM74.9634 120.376C76.1646 120.376 77.1284 120.821 77.855 121.712C78.5815 122.608 78.9448 123.792 78.9448 125.263C78.9448 126.733 78.5815 127.917 77.855 128.813C77.1226 129.71 76.1587 130.158 74.9634 130.158C74.231 130.158 73.5806 129.985 73.0122 129.64C72.4497 129.288 72.0366 128.808 71.7729 128.198H71.6675V133.085H70.5161V120.534H71.6147V122.468H71.7202C72.0132 121.817 72.4468 121.308 73.021 120.938C73.5952 120.563 74.2427 120.376 74.9634 120.376ZM74.7085 129.112C75.646 129.112 76.3872 128.767 76.9321 128.075C77.4829 127.384 77.7583 126.449 77.7583 125.271C77.7583 124.088 77.4858 123.15 76.9409 122.459C76.3901 121.762 75.6489 121.413 74.7173 121.413C73.7915 121.413 73.0444 121.765 72.4761 122.468C71.9136 123.171 71.6323 124.103 71.6323 125.263C71.6323 126.423 71.9136 127.354 72.4761 128.058C73.0386 128.761 73.7827 129.112 74.7085 129.112Z" fill="white"/>
<path d="M30.7104 151.51V160H29.5591V150.534H35.562V151.51H30.7104ZM40.4751 159.139C41.3247 159.139 42.0337 158.884 42.6021 158.374C43.1763 157.858 43.4634 157.226 43.4634 156.476V155.368L40.6597 155.57C39.0718 155.682 38.2778 156.279 38.2778 157.363C38.2778 157.902 38.4858 158.333 38.9019 158.655C39.3062 158.978 39.8306 159.139 40.4751 159.139ZM40.2817 160.158C39.3442 160.158 38.5796 159.906 37.9878 159.402C37.3901 158.893 37.0913 158.219 37.0913 157.381C37.0913 156.561 37.3872 155.913 37.979 155.438C38.5591 154.97 39.3999 154.697 40.5015 154.621L43.4634 154.428V153.514C43.4634 152.834 43.2642 152.312 42.8657 151.949C42.4614 151.586 41.8755 151.404 41.1079 151.404C40.4575 151.404 39.9126 151.533 39.4731 151.791C39.0278 152.055 38.7495 152.415 38.6382 152.872H37.4692C37.5806 152.122 37.9731 151.519 38.647 151.062C39.3149 150.604 40.147 150.376 41.1431 150.376C42.2505 150.376 43.1089 150.651 43.7183 151.202C44.3218 151.747 44.6235 152.515 44.6235 153.505V160H43.5161V158.374H43.4106C43.1235 158.937 42.7046 159.373 42.1538 159.684C41.603 160 40.979 160.158 40.2817 160.158ZM50.9956 160.167C49.9761 160.167 49.1323 159.93 48.4644 159.455C47.8081 158.986 47.4243 158.362 47.313 157.583H48.4995C48.605 158.069 48.8716 158.453 49.2993 158.734C49.7446 159.033 50.3101 159.183 50.9956 159.183C51.7397 159.183 52.3286 159.016 52.7622 158.682C53.1899 158.354 53.4038 157.911 53.4038 157.354C53.4038 156.177 52.5894 155.588 50.9604 155.588H49.4839V154.612H50.9604C51.6343 154.612 52.1528 154.469 52.5161 154.182C52.8735 153.9 53.0522 153.496 53.0522 152.969C53.0522 152.488 52.8765 152.104 52.5249 151.817C52.1616 151.519 51.6519 151.369 50.9956 151.369C50.3394 151.369 49.8003 151.519 49.3784 151.817C48.9624 152.104 48.7104 152.488 48.6226 152.969H47.48C47.5972 152.189 47.9604 151.565 48.5698 151.097C49.2026 150.616 50.0112 150.376 50.9956 150.376C51.9976 150.376 52.7856 150.607 53.3599 151.07C53.9106 151.521 54.186 152.131 54.186 152.898C54.186 153.408 54.0278 153.854 53.7114 154.234C53.4009 154.621 52.9966 154.867 52.4985 154.973V155.078C53.1313 155.189 53.6265 155.436 53.9839 155.816C54.3589 156.203 54.5464 156.695 54.5464 157.293C54.5464 158.166 54.2212 158.863 53.5708 159.385C52.9204 159.906 52.062 160.167 50.9956 160.167ZM57.1919 160V150.534H58.3433V158.163H58.4575L63.7749 150.534H64.9263V160H63.7749V152.371H63.6694L58.3433 160H57.1919ZM72.5024 150.376C73.7036 150.376 74.6675 150.821 75.394 151.712C76.1206 152.608 76.4839 153.792 76.4839 155.263C76.4839 156.733 76.1206 157.917 75.394 158.813C74.6616 159.71 73.6978 160.158 72.5024 160.158C71.77 160.158 71.1196 159.985 70.5513 159.64C69.9888 159.288 69.5757 158.808 69.312 158.198H69.2065V163.085H68.0552V150.534H69.1538V152.468H69.2593C69.5522 151.817 69.9858 151.308 70.5601 150.938C71.1343 150.563 71.7817 150.376 72.5024 150.376ZM72.2476 159.112C73.1851 159.112 73.9263 158.767 74.4712 158.075C75.022 157.384 75.2974 156.449 75.2974 155.271C75.2974 154.088 75.0249 153.15 74.48 152.459C73.9292 151.762 73.188 151.413 72.2563 151.413C71.3306 151.413 70.5835 151.765 70.0151 152.468C69.4526 153.171 69.1714 154.103 69.1714 155.263C69.1714 156.423 69.4526 157.354 70.0151 158.058C70.5776 158.761 71.3218 159.112 72.2476 159.112ZM82.979 159.112C83.9517 159.112 84.7134 158.77 85.2642 158.084C85.8149 157.404 86.0903 156.464 86.0903 155.263C86.0903 154.062 85.8149 153.121 85.2642 152.441C84.7134 151.756 83.9517 151.413 82.979 151.413C82.0063 151.413 81.2446 151.756 80.6938 152.441C80.1431 153.121 79.8677 154.062 79.8677 155.263C79.8677 156.464 80.1431 157.404 80.6938 158.084C81.2446 158.77 82.0063 159.112 82.979 159.112ZM82.979 160.158C81.6548 160.158 80.6089 159.719 79.8413 158.84C79.0679 157.967 78.6812 156.774 78.6812 155.263C78.6812 153.751 79.0679 152.559 79.8413 151.686C80.6089 150.812 81.6548 150.376 82.979 150.376C84.3032 150.376 85.3521 150.812 86.1255 151.686C86.8989 152.559 87.2856 153.751 87.2856 155.263C87.2856 156.774 86.8989 157.967 86.1255 158.84C85.3521 159.719 84.3032 160.158 82.979 160.158ZM91.0913 151.51V154.621H93.4556C94.1118 154.621 94.6157 154.48 94.9673 154.199C95.3071 153.924 95.4771 153.531 95.4771 153.021C95.4771 152.553 95.3218 152.187 95.0112 151.923C94.689 151.647 94.2319 151.51 93.6401 151.51H91.0913ZM91.0913 155.597V159.024H93.7808C95.2104 159.024 95.9253 158.447 95.9253 157.293C95.9253 156.162 95.1343 155.597 93.5522 155.597H91.0913ZM89.9399 150.534H93.772C94.6567 150.534 95.354 150.748 95.8638 151.176C96.3618 151.604 96.6108 152.184 96.6108 152.916C96.6108 153.426 96.4556 153.877 96.145 154.27C95.8345 154.656 95.436 154.896 94.9497 154.99V155.104C95.5708 155.175 96.0747 155.409 96.4614 155.808C96.8657 156.212 97.0679 156.713 97.0679 157.311C97.0679 158.154 96.7837 158.813 96.2153 159.288C95.6411 159.763 94.8384 160 93.8071 160H89.9399V150.534ZM101.287 154.683L105.497 150.534H106.92L102.253 155.078L107.131 160H105.611L101.287 155.605H100.917V160H99.7661V150.534H100.917V154.683H101.287ZM111.965 159.139C112.815 159.139 113.524 158.884 114.092 158.374C114.667 157.858 114.954 157.226 114.954 156.476V155.368L112.15 155.57C110.562 155.682 109.768 156.279 109.768 157.363C109.768 157.902 109.976 158.333 110.392 158.655C110.796 158.978 111.321 159.139 111.965 159.139ZM111.772 160.158C110.834 160.158 110.07 159.906 109.478 159.402C108.88 158.893 108.582 158.219 108.582 157.381C108.582 156.561 108.877 155.913 109.469 155.438C110.049 154.97 110.89 154.697 111.992 154.621L114.954 154.428V153.514C114.954 152.834 114.754 152.312 114.356 151.949C113.952 151.586 113.366 151.404 112.598 151.404C111.948 151.404 111.403 151.533 110.963 151.791C110.518 152.055 110.24 152.415 110.128 152.872H108.959C109.071 152.122 109.463 151.519 110.137 151.062C110.805 150.604 111.637 150.376 112.633 150.376C113.741 150.376 114.599 150.651 115.208 151.202C115.812 151.747 116.114 152.515 116.114 153.505V160H115.006V158.374H114.901C114.614 158.937 114.195 159.373 113.644 159.684C113.093 160 112.469 160.158 111.772 160.158Z" fill="white"/>
<path d="M237.128 90.1143C237.128 88.8896 237.556 87.8965 238.412 87.1348C239.267 86.373 240.38 85.9922 241.751 85.9922C243.076 85.9922 244.154 86.335 244.986 87.0205C245.824 87.7119 246.243 88.6025 246.243 89.6924C246.243 90.3838 246.026 91.0693 245.592 91.749C245.159 92.4346 244.394 93.293 243.298 94.3242L240.873 96.6357V96.7939H246.427V99H237.278V97.1455L241.417 93.0938C242.308 92.2266 242.903 91.5732 243.202 91.1338C243.5 90.7061 243.65 90.2842 243.65 89.8682C243.65 89.3584 243.465 88.9395 243.096 88.6113C242.721 88.2891 242.244 88.1279 241.664 88.1279C241.048 88.1279 240.55 88.3125 240.169 88.6816C239.783 89.0449 239.589 89.5195 239.589 90.1055V90.1582H237.128V90.1143ZM253.74 99.3252C252.169 99.3252 250.939 98.7363 250.048 97.5586C249.152 96.375 248.704 94.7344 248.704 92.6367C248.704 90.5449 249.152 88.9131 250.048 87.7412C250.939 86.5752 252.169 85.9922 253.74 85.9922C255.304 85.9922 256.532 86.5752 257.422 87.7412C258.325 88.9189 258.776 90.5537 258.776 92.6455C258.776 94.7373 258.328 96.375 257.431 97.5586C256.541 98.7363 255.31 99.3252 253.74 99.3252ZM253.74 97.1631C254.478 97.1631 255.052 96.7793 255.462 96.0117C255.878 95.2266 256.086 94.1016 256.086 92.6367C256.086 91.1836 255.875 90.0674 255.454 89.2881C255.049 88.5381 254.478 88.1631 253.74 88.1631C253.007 88.1631 252.436 88.541 252.026 89.2969C251.604 90.0762 251.393 91.1895 251.393 92.6367C251.393 94.0957 251.604 95.2207 252.026 96.0117C252.43 96.7793 253.001 97.1631 253.74 97.1631ZM268.444 91.3184V99H265.886V89.3057H272.592V91.3184H268.444Z" fill="white"/>
<path d="M225.202 126.785H218.997V124.438C219.987 122.569 221.66 119.862 224.015 116.317H227.733V124.579H229.394V126.785H227.733V129H225.202V126.785ZM221.378 124.658H225.263V118.383H225.123C223.769 120.404 222.521 122.449 221.378 124.518V124.658ZM236.548 129.325C234.978 129.325 233.748 128.736 232.857 127.559C231.96 126.375 231.512 124.734 231.512 122.637C231.512 120.545 231.96 118.913 232.857 117.741C233.748 116.575 234.978 115.992 236.548 115.992C238.113 115.992 239.34 116.575 240.231 117.741C241.133 118.919 241.584 120.554 241.584 122.646C241.584 124.737 241.136 126.375 240.24 127.559C239.349 128.736 238.119 129.325 236.548 129.325ZM236.548 127.163C237.287 127.163 237.861 126.779 238.271 126.012C238.687 125.227 238.895 124.102 238.895 122.637C238.895 121.184 238.684 120.067 238.262 119.288C237.858 118.538 237.287 118.163 236.548 118.163C235.816 118.163 235.245 118.541 234.834 119.297C234.413 120.076 234.202 121.189 234.202 122.637C234.202 124.096 234.413 125.221 234.834 126.012C235.239 126.779 235.81 127.163 236.548 127.163ZM248.695 129V119.306H252.008L254.548 125.511H254.707L257.255 119.306H260.525V129H258.117V122.575H257.95L255.498 128.455H253.713L251.261 122.575H251.103V129H248.695ZM266.378 124.342C266.291 125.9 266.015 127.055 265.552 127.805C265.019 128.678 264.19 129.114 263.065 129.114C262.749 129.114 262.476 129.076 262.248 129V126.75C262.412 126.791 262.596 126.812 262.801 126.812C263.235 126.812 263.557 126.56 263.768 126.056C263.944 125.646 264.055 125.016 264.102 124.166L264.383 119.306H271.678V129H269.121V121.318H266.581L266.378 124.342Z" fill="white"/>
<path d="M225.198 156.785H218.993V154.438C219.983 152.569 221.656 149.862 224.012 146.317H227.729V154.579H229.391V156.785H227.729V159H225.198V156.785ZM221.375 154.658H225.26V148.383H225.119C223.766 150.404 222.518 152.449 221.375 154.518V154.658ZM236.545 159.325C234.975 159.325 233.744 158.736 232.854 157.559C231.957 156.375 231.509 154.734 231.509 152.637C231.509 150.545 231.957 148.913 232.854 147.741C233.744 146.575 234.975 145.992 236.545 145.992C238.109 145.992 239.337 146.575 240.228 147.741C241.13 148.919 241.581 150.554 241.581 152.646C241.581 154.737 241.133 156.375 240.236 157.559C239.346 158.736 238.115 159.325 236.545 159.325ZM236.545 157.163C237.283 157.163 237.857 156.779 238.268 156.012C238.684 155.227 238.892 154.102 238.892 152.637C238.892 151.184 238.681 150.067 238.259 149.288C237.854 148.538 237.283 148.163 236.545 148.163C235.812 148.163 235.241 148.541 234.831 149.297C234.409 150.076 234.198 151.189 234.198 152.637C234.198 154.096 234.409 155.221 234.831 156.012C235.235 156.779 235.807 157.163 236.545 157.163ZM248.691 159V149.306H252.005L254.545 155.511H254.703L257.252 149.306H260.521V159H258.113V152.575H257.946L255.494 158.455H253.71L251.258 152.575H251.1V159H248.691ZM266.375 154.342C266.287 155.9 266.012 157.055 265.549 157.805C265.016 158.678 264.187 159.114 263.062 159.114C262.745 159.114 262.473 159.076 262.244 159V156.75C262.408 156.791 262.593 156.812 262.798 156.812C263.231 156.812 263.554 156.56 263.765 156.056C263.94 155.646 264.052 155.016 264.099 154.166L264.38 149.306H271.675V159H269.117V151.318H266.577L266.375 154.342Z" fill="white"/>
<line y1="240.5" x2="310" y2="240.5" stroke="white" stroke-opacity="0.5"/>
<defs>
<filter id="filter0_b" x="-20" y="-20" width="350" height="350" filterUnits="userSpaceOnUse" color-interpolation-filters="sRGB">
<feFlood flood-opacity="0" result="BackgroundImageFix"/>
<feGaussianBlur in="BackgroundImage" stdDeviation="10"/>
<feComposite in2="SourceAlpha" operator="in" result="effect1_backgroundBlur"/>
<feBlend mode="normal" in="SourceGraphic" in2="effect1_backgroundBlur" result="shape"/>
</filter>
</defs>
</svg>
