<svg width="310" height="310" viewBox="0 0 310 310" fill="none" xmlns="http://www.w3.org/2000/svg">
<g filter="url(#filter0_b)">
<rect width="310" height="310" rx="8" fill="white" fill-opacity="0.2"/>
</g>
<path d="M89.3379 48.498C86.4668 48.498 84.1963 47.5068 82.5264 45.5244C80.8467 43.542 80.0068 40.8467 80.0068 37.4385C80.0068 34.0303 80.8418 31.3301 82.5117 29.3379C84.1816 27.3555 86.4521 26.3643 89.3232 26.3643C91.5498 26.3643 93.4541 26.999 95.0361 28.2686C96.6182 29.5381 97.5654 31.1934 97.8779 33.2344H95.1973C94.8457 31.8672 94.1426 30.7881 93.0879 29.9971C92.0332 29.1963 90.7783 28.7959 89.3232 28.7959C87.292 28.7959 85.6855 29.5723 84.5039 31.125C83.3125 32.6777 82.7168 34.7822 82.7168 37.4385C82.7168 40.0947 83.3125 42.1943 84.5039 43.7373C85.6953 45.29 87.3066 46.0664 89.3379 46.0664C90.8125 46.0664 92.0723 45.7148 93.1172 45.0117C94.1719 44.2988 94.8652 43.332 95.1973 42.1113H97.8779C97.5264 44.0547 96.5791 45.6025 95.0361 46.7549C93.4834 47.917 91.584 48.498 89.3379 48.498ZM115.148 48V29.2354H107.429L106.755 40.0898C106.589 42.7754 106.115 44.7529 105.334 46.0225C104.475 47.4287 103.151 48.1318 101.364 48.1318C100.954 48.1318 100.612 48.083 100.339 47.9854V45.627C100.554 45.6855 100.817 45.7148 101.13 45.7148C102.233 45.7148 103.029 45.1729 103.518 44.0889C103.908 43.2393 104.157 41.8721 104.265 39.9873L105.026 26.8623H117.785V48H115.148ZM136.579 48H123.483V26.8623H136.579V29.2354H126.12V36.0176H136.037V38.3613H126.12V45.627H136.579V48ZM155.607 48V29.2646H144.299V48H141.647V26.8623H158.215V48H155.607ZM172.805 26.3643C175.803 26.3643 178.166 27.3604 179.895 29.3525C181.613 31.335 182.473 34.0254 182.473 37.4238C182.473 40.8223 181.618 43.5127 179.909 45.4951C178.171 47.4971 175.803 48.498 172.805 48.498C169.787 48.498 167.409 47.4971 165.671 45.4951C163.952 43.5127 163.093 40.8223 163.093 37.4238C163.093 34.0254 163.967 31.3301 165.715 29.3379C167.453 27.3555 169.816 26.3643 172.805 26.3643ZM172.805 28.7959C170.656 28.7959 168.952 29.5723 167.692 31.125C166.433 32.6777 165.803 34.7773 165.803 37.4238C165.803 40.0703 166.423 42.165 167.663 43.708C168.913 45.2803 170.627 46.0664 172.805 46.0664C174.963 46.0664 176.667 45.2803 177.917 43.708C179.147 42.1553 179.763 40.0605 179.763 37.4238C179.763 34.7676 179.143 32.668 177.902 31.125C176.662 29.5723 174.963 28.7959 172.805 28.7959ZM191.818 48V29.2354H185.007V26.8623H201.267V29.2354H194.455V48H191.818ZM215.051 41.9502H206.643L204.519 48H201.75L209.543 26.8623H212.15L219.943 48H217.175L215.051 41.9502ZM207.419 39.709H214.274L210.964 30.2754H210.729L207.419 39.709Z" fill="white"/>
<path d="M40.5977 278.496H32.3594V276.574C33.9062 273.824 36.3203 269.996 39.6016 265.09H42.6602V276.609H45.0625V278.496H42.6602V282H40.5977V278.496ZM34.5156 276.621H40.6094V267.047H40.4688C38.6406 269.703 36.6562 272.848 34.5156 276.48V276.621ZM53.8984 282.398C52.2969 282.398 50.9727 281.945 49.9258 281.039C48.8789 280.141 48.3086 278.961 48.2148 277.5H50.2891C50.3828 278.414 50.7617 279.148 51.4258 279.703C52.0977 280.266 52.9297 280.547 53.9219 280.547C55.0547 280.547 55.9648 280.191 56.6523 279.48C57.3477 278.77 57.6953 277.836 57.6953 276.68C57.6953 275.523 57.3477 274.582 56.6523 273.855C55.9648 273.137 55.0664 272.777 53.957 272.777C52.3555 272.777 51.1914 273.41 50.4648 274.676H48.4844L49.4102 265.09H58.8438V266.977H51.0625L50.582 272.402H50.7695C51.5898 271.441 52.7812 270.961 54.3438 270.961C55.9531 270.961 57.2656 271.488 58.2812 272.543C59.2969 273.598 59.8047 274.957 59.8047 276.621C59.8047 278.34 59.2578 279.73 58.1641 280.793C57.0703 281.863 55.6484 282.398 53.8984 282.398ZM68.8633 282.398C66.957 282.398 65.4805 281.625 64.4336 280.078C63.3867 278.531 62.8633 276.352 62.8633 273.539C62.8633 270.75 63.3906 268.578 64.4453 267.023C65.5 265.469 66.9727 264.691 68.8633 264.691C70.7461 264.691 72.2109 265.473 73.2578 267.035C74.3125 268.598 74.8398 270.777 74.8398 273.574C74.8398 276.379 74.3203 278.551 73.2812 280.09C72.2344 281.629 70.7617 282.398 68.8633 282.398ZM68.8633 280.559C70.1133 280.559 71.0664 279.957 71.7227 278.754C72.3867 277.543 72.7188 275.805 72.7188 273.539C72.7188 271.297 72.3867 269.57 71.7227 268.359C71.0508 267.148 70.0977 266.543 68.8633 266.543C67.6289 266.543 66.6719 267.152 65.9922 268.371C65.3203 269.582 64.9844 271.305 64.9844 273.539C64.9844 275.797 65.3203 277.531 65.9922 278.742C66.6562 279.953 67.6133 280.559 68.8633 280.559ZM82.1875 273.621H84.8828C86.0625 273.621 86.9648 273.32 87.5898 272.719C88.1836 272.141 88.4805 271.328 88.4805 270.281C88.4805 269.242 88.1836 268.438 87.5898 267.867C86.9727 267.266 86.0703 266.965 84.8828 266.965H82.1875V273.621ZM82.1875 279.305V282H80.0781V279.305H77.7344V277.711H80.0781V275.449H77.7344V273.621H80.0781V265.09H85.4336C86.9961 265.09 88.2617 265.586 89.2305 266.578C90.1758 267.539 90.6484 268.773 90.6484 270.281C90.6484 271.789 90.1719 273.023 89.2188 273.984C88.25 274.961 86.9805 275.449 85.4102 275.449H82.1875V277.711H87.0508V279.305H82.1875Z" fill="white"/>
<path d="M36.3477 91.5098H33.1133V100H31.9619V91.5098H28.7275V90.5342H36.3477V91.5098ZM42.0518 91.3955C41.1904 91.3955 40.4844 91.6885 39.9336 92.2744C39.3828 92.8662 39.0811 93.6484 39.0283 94.6211H44.9258C44.9141 93.6426 44.6475 92.8604 44.126 92.2744C43.5986 91.6885 42.9072 91.3955 42.0518 91.3955ZM45.9805 97.6621C45.7461 98.4355 45.2832 99.0449 44.5918 99.4902C43.9004 99.9355 43.0596 100.158 42.0693 100.158C40.7686 100.158 39.7373 99.7158 38.9756 98.8311C38.2139 97.9521 37.833 96.7656 37.833 95.2715C37.833 93.7832 38.2168 92.5967 38.9844 91.7119C39.7461 90.8213 40.7715 90.376 42.0605 90.376C43.3203 90.376 44.3135 90.7949 45.04 91.6328C45.7666 92.4707 46.1299 93.6133 46.1299 95.0605V95.5703H39.0195V95.623C39.0488 96.6953 39.3418 97.5479 39.8984 98.1807C40.4492 98.8135 41.1816 99.1299 42.0957 99.1299C43.4844 99.1299 44.3896 98.6406 44.8115 97.6621H45.9805ZM50.3135 94.6826L54.5234 90.5342H55.9473L51.2803 95.0781L56.1582 100H54.6377L50.3135 95.6055H49.9443V100H48.793V90.5342H49.9443V94.6826H50.3135ZM58.3906 100V90.5342H59.542V98.1631H59.6562L64.9736 90.5342H66.125V100H64.9736V92.3711H64.8682L59.542 100H58.3906ZM71.1787 95.9307C71.0732 97.29 70.8564 98.2861 70.5283 98.9189C70.124 99.6924 69.5 100.079 68.6562 100.079C68.4629 100.079 68.2871 100.05 68.1289 99.9912V98.9277C68.2695 98.9746 68.4277 98.998 68.6035 98.998C69.0723 98.998 69.4238 98.7109 69.6582 98.1367C69.8633 97.6504 70.0039 96.9004 70.0801 95.8867C70.2148 94.4805 70.3379 92.6963 70.4492 90.5342H76.5049V100H75.3535V91.5098H71.4951C71.4014 93.3145 71.2959 94.7881 71.1787 95.9307ZM82.5078 99.1387C83.3574 99.1387 84.0664 98.8838 84.6348 98.374C85.209 97.8584 85.4961 97.2256 85.4961 96.4756V95.3682L82.6924 95.5703C81.1045 95.6816 80.3105 96.2793 80.3105 97.3633C80.3105 97.9023 80.5186 98.333 80.9346 98.6553C81.3389 98.9775 81.8633 99.1387 82.5078 99.1387ZM82.3145 100.158C81.377 100.158 80.6123 99.9062 80.0205 99.4023C79.4229 98.8926 79.124 98.2188 79.124 97.3809C79.124 96.5605 79.4199 95.9131 80.0117 95.4385C80.5918 94.9697 81.4326 94.6973 82.5342 94.6211L85.4961 94.4277V93.5137C85.4961 92.834 85.2969 92.3125 84.8984 91.9492C84.4941 91.5859 83.9082 91.4043 83.1406 91.4043C82.4902 91.4043 81.9453 91.5332 81.5059 91.791C81.0605 92.0547 80.7822 92.415 80.6709 92.8721H79.502C79.6133 92.1221 80.0059 91.5186 80.6797 91.0615C81.3477 90.6045 82.1797 90.376 83.1758 90.376C84.2832 90.376 85.1416 90.6514 85.751 91.2021C86.3545 91.7471 86.6562 92.5146 86.6562 93.5049V100H85.5488V98.374H85.4434C85.1562 98.9365 84.7373 99.373 84.1865 99.6836C83.6357 100 83.0117 100.158 82.3145 100.158Z" fill="white"/>
<path d="M34.0098 120.376C35.2109 120.376 36.1748 120.821 36.9014 121.712C37.6279 122.608 37.9912 123.792 37.9912 125.263C37.9912 126.733 37.6279 127.917 36.9014 128.813C36.1689 129.71 35.2051 130.158 34.0098 130.158C33.2773 130.158 32.627 129.985 32.0586 129.64C31.4961 129.288 31.083 128.808 30.8193 128.198H30.7139V133.085H29.5625V120.534H30.6611V122.468H30.7666C31.0596 121.817 31.4932 121.308 32.0674 120.938C32.6416 120.563 33.2891 120.376 34.0098 120.376ZM33.7549 129.112C34.6924 129.112 35.4336 128.767 35.9785 128.075C36.5293 127.384 36.8047 126.449 36.8047 125.271C36.8047 124.088 36.5322 123.15 35.9873 122.459C35.4365 121.762 34.6953 121.413 33.7637 121.413C32.8379 121.413 32.0908 121.765 31.5225 122.468C30.96 123.171 30.6787 124.103 30.6787 125.263C30.6787 126.423 30.96 127.354 31.5225 128.058C32.085 128.761 32.8291 129.112 33.7549 129.112ZM44.4863 129.112C45.459 129.112 46.2207 128.77 46.7715 128.084C47.3223 127.404 47.5977 126.464 47.5977 125.263C47.5977 124.062 47.3223 123.121 46.7715 122.441C46.2207 121.756 45.459 121.413 44.4863 121.413C43.5137 121.413 42.752 121.756 42.2012 122.441C41.6504 123.121 41.375 124.062 41.375 125.263C41.375 126.464 41.6504 127.404 42.2012 128.084C42.752 128.77 43.5137 129.112 44.4863 129.112ZM44.4863 130.158C43.1621 130.158 42.1162 129.719 41.3486 128.84C40.5752 127.967 40.1885 126.774 40.1885 125.263C40.1885 123.751 40.5752 122.559 41.3486 121.686C42.1162 120.812 43.1621 120.376 44.4863 120.376C45.8105 120.376 46.8594 120.812 47.6328 121.686C48.4062 122.559 48.793 123.751 48.793 125.263C48.793 126.774 48.4062 127.967 47.6328 128.84C46.8594 129.719 45.8105 130.158 44.4863 130.158ZM51.4473 130V120.534H52.8359L56.5537 128.4H56.6592L60.3594 120.534H61.6953V130H60.5439V122.644H60.4121L57.0371 129.815H56.1318L52.7217 122.644H52.5986V130H51.4473Z" fill="white"/>
<path d="M31.4873 155.931C31.3818 157.29 31.165 158.286 30.8369 158.919C30.4326 159.692 29.8086 160.079 28.9648 160.079C28.7715 160.079 28.5957 160.05 28.4375 159.991V158.928C28.5781 158.975 28.7363 158.998 28.9121 158.998C29.3809 158.998 29.7324 158.711 29.9668 158.137C30.1719 157.65 30.3125 156.9 30.3887 155.887C30.5234 154.48 30.6465 152.696 30.7578 150.534H36.8135V160H35.6621V151.51H31.8037C31.71 153.314 31.6045 154.788 31.4873 155.931ZM39.9512 160V150.534H41.1025V158.163H41.2168L46.5342 150.534H47.6855V160H46.5342V152.371H46.4287L41.1025 160H39.9512ZM50.8145 160V150.534H52.2031L55.9209 158.4H56.0264L59.7266 150.534H61.0625V160H59.9111V152.644H59.7793L56.4043 159.815H55.499L52.0889 152.644H51.9658V160H50.8145ZM68.0234 159.112C68.9961 159.112 69.7578 158.77 70.3086 158.084C70.8594 157.404 71.1348 156.464 71.1348 155.263C71.1348 154.062 70.8594 153.121 70.3086 152.441C69.7578 151.756 68.9961 151.413 68.0234 151.413C67.0508 151.413 66.2891 151.756 65.7383 152.441C65.1875 153.121 64.9121 154.062 64.9121 155.263C64.9121 156.464 65.1875 157.404 65.7383 158.084C66.2891 158.77 67.0508 159.112 68.0234 159.112ZM68.0234 160.158C66.6992 160.158 65.6533 159.719 64.8857 158.84C64.1123 157.967 63.7256 156.774 63.7256 155.263C63.7256 153.751 64.1123 152.559 64.8857 151.686C65.6533 150.812 66.6992 150.376 68.0234 150.376C69.3477 150.376 70.3965 150.812 71.1699 151.686C71.9434 152.559 72.3301 153.751 72.3301 155.263C72.3301 156.774 71.9434 157.967 71.1699 158.84C70.3965 159.719 69.3477 160.158 68.0234 160.158ZM74.9844 150.534H76.1357V154.595H81.4531V150.534H82.6045V160H81.4531V155.57H76.1357V160H74.9844V150.534Z" fill="white"/>
<path d="M30.7139 181.51V190H29.5625V180.534H35.5654V181.51H30.7139ZM40.4785 189.139C41.3281 189.139 42.0371 188.884 42.6055 188.374C43.1797 187.858 43.4668 187.226 43.4668 186.476V185.368L40.6631 185.57C39.0752 185.682 38.2812 186.279 38.2812 187.363C38.2812 187.902 38.4893 188.333 38.9053 188.655C39.3096 188.978 39.834 189.139 40.4785 189.139ZM40.2852 190.158C39.3477 190.158 38.583 189.906 37.9912 189.402C37.3936 188.893 37.0947 188.219 37.0947 187.381C37.0947 186.561 37.3906 185.913 37.9824 185.438C38.5625 184.97 39.4033 184.697 40.5049 184.621L43.4668 184.428V183.514C43.4668 182.834 43.2676 182.312 42.8691 181.949C42.4648 181.586 41.8789 181.404 41.1113 181.404C40.4609 181.404 39.916 181.533 39.4766 181.791C39.0312 182.055 38.7529 182.415 38.6416 182.872H37.4727C37.584 182.122 37.9766 181.519 38.6504 181.062C39.3184 180.604 40.1504 180.376 41.1465 180.376C42.2539 180.376 43.1123 180.651 43.7217 181.202C44.3252 181.747 44.627 182.515 44.627 183.505V190H43.5195V188.374H43.4141C43.127 188.937 42.708 189.373 42.1572 189.684C41.6064 190 40.9824 190.158 40.2852 190.158ZM50.999 190.167C49.9795 190.167 49.1357 189.93 48.4678 189.455C47.8115 188.986 47.4277 188.362 47.3164 187.583H48.5029C48.6084 188.069 48.875 188.453 49.3027 188.734C49.748 189.033 50.3135 189.183 50.999 189.183C51.7432 189.183 52.332 189.016 52.7656 188.682C53.1934 188.354 53.4072 187.911 53.4072 187.354C53.4072 186.177 52.5928 185.588 50.9639 185.588H49.4873V184.612H50.9639C51.6377 184.612 52.1562 184.469 52.5195 184.182C52.877 183.9 53.0557 183.496 53.0557 182.969C53.0557 182.488 52.8799 182.104 52.5283 181.817C52.165 181.519 51.6553 181.369 50.999 181.369C50.3428 181.369 49.8037 181.519 49.3818 181.817C48.9658 182.104 48.7139 182.488 48.626 182.969H47.4834C47.6006 182.189 47.9639 181.565 48.5732 181.097C49.2061 180.616 50.0146 180.376 50.999 180.376C52.001 180.376 52.7891 180.607 53.3633 181.07C53.9141 181.521 54.1895 182.131 54.1895 182.898C54.1895 183.408 54.0312 183.854 53.7148 184.234C53.4043 184.621 53 184.867 52.502 184.973V185.078C53.1348 185.189 53.6299 185.436 53.9873 185.816C54.3623 186.203 54.5498 186.695 54.5498 187.293C54.5498 188.166 54.2246 188.863 53.5742 189.385C52.9238 189.906 52.0654 190.167 50.999 190.167ZM57.1953 190V180.534H58.3467V188.163H58.4609L63.7783 180.534H64.9297V190H63.7783V182.371H63.6729L58.3467 190H57.1953ZM72.5059 180.376C73.707 180.376 74.6709 180.821 75.3975 181.712C76.124 182.608 76.4873 183.792 76.4873 185.263C76.4873 186.733 76.124 187.917 75.3975 188.813C74.665 189.71 73.7012 190.158 72.5059 190.158C71.7734 190.158 71.123 189.985 70.5547 189.64C69.9922 189.288 69.5791 188.808 69.3154 188.198H69.21V193.085H68.0586V180.534H69.1572V182.468H69.2627C69.5557 181.817 69.9893 181.308 70.5635 180.938C71.1377 180.563 71.7852 180.376 72.5059 180.376ZM72.251 189.112C73.1885 189.112 73.9297 188.767 74.4746 188.075C75.0254 187.384 75.3008 186.449 75.3008 185.271C75.3008 184.088 75.0283 183.15 74.4834 182.459C73.9326 181.762 73.1914 181.413 72.2598 181.413C71.334 181.413 70.5869 181.765 70.0186 182.468C69.4561 183.171 69.1748 184.103 69.1748 185.263C69.1748 186.423 69.4561 187.354 70.0186 188.058C70.5811 188.761 71.3252 189.112 72.251 189.112ZM82.9824 189.112C83.9551 189.112 84.7168 188.77 85.2676 188.084C85.8184 187.404 86.0938 186.464 86.0938 185.263C86.0938 184.062 85.8184 183.121 85.2676 182.441C84.7168 181.756 83.9551 181.413 82.9824 181.413C82.0098 181.413 81.248 181.756 80.6973 182.441C80.1465 183.121 79.8711 184.062 79.8711 185.263C79.8711 186.464 80.1465 187.404 80.6973 188.084C81.248 188.77 82.0098 189.112 82.9824 189.112ZM82.9824 190.158C81.6582 190.158 80.6123 189.719 79.8447 188.84C79.0713 187.967 78.6846 186.774 78.6846 185.263C78.6846 183.751 79.0713 182.559 79.8447 181.686C80.6123 180.812 81.6582 180.376 82.9824 180.376C84.3066 180.376 85.3555 180.812 86.1289 181.686C86.9023 182.559 87.2891 183.751 87.2891 185.263C87.2891 186.774 86.9023 187.967 86.1289 188.84C85.3555 189.719 84.3066 190.158 82.9824 190.158ZM91.0947 181.51V184.621H93.459C94.1152 184.621 94.6191 184.48 94.9707 184.199C95.3105 183.924 95.4805 183.531 95.4805 183.021C95.4805 182.553 95.3252 182.187 95.0146 181.923C94.6924 181.647 94.2354 181.51 93.6436 181.51H91.0947ZM91.0947 185.597V189.024H93.7842C95.2139 189.024 95.9287 188.447 95.9287 187.293C95.9287 186.162 95.1377 185.597 93.5557 185.597H91.0947ZM89.9434 180.534H93.7754C94.6602 180.534 95.3574 180.748 95.8672 181.176C96.3652 181.604 96.6143 182.184 96.6143 182.916C96.6143 183.426 96.459 183.877 96.1484 184.27C95.8379 184.656 95.4395 184.896 94.9531 184.99V185.104C95.5742 185.175 96.0781 185.409 96.4648 185.808C96.8691 186.212 97.0713 186.713 97.0713 187.311C97.0713 188.154 96.7871 188.813 96.2188 189.288C95.6445 189.763 94.8418 190 93.8105 190H89.9434V180.534ZM101.29 184.683L105.5 180.534H106.924L102.257 185.078L107.135 190H105.614L101.29 185.605H100.921V190H99.7695V180.534H100.921V184.683H101.29ZM111.969 189.139C112.818 189.139 113.527 188.884 114.096 188.374C114.67 187.858 114.957 187.226 114.957 186.476V185.368L112.153 185.57C110.565 185.682 109.771 186.279 109.771 187.363C109.771 187.902 109.979 188.333 110.396 188.655C110.8 188.978 111.324 189.139 111.969 189.139ZM111.775 190.158C110.838 190.158 110.073 189.906 109.481 189.402C108.884 188.893 108.585 188.219 108.585 187.381C108.585 186.561 108.881 185.913 109.473 185.438C110.053 184.97 110.894 184.697 111.995 184.621L114.957 184.428V183.514C114.957 182.834 114.758 182.312 114.359 181.949C113.955 181.586 113.369 181.404 112.602 181.404C111.951 181.404 111.406 181.533 110.967 181.791C110.521 182.055 110.243 182.415 110.132 182.872H108.963C109.074 182.122 109.467 181.519 110.141 181.062C110.809 180.604 111.641 180.376 112.637 180.376C113.744 180.376 114.603 180.651 115.212 181.202C115.815 181.747 116.117 182.515 116.117 183.505V190H115.01V188.374H114.904C114.617 188.937 114.198 189.373 113.647 189.684C113.097 190 112.473 190.158 111.775 190.158Z" fill="white"/>
<path d="M29.5625 220V210.534H30.9512L34.6689 218.4H34.7744L38.4746 210.534H39.8105V220H38.6592V212.644H38.5273L35.1523 219.815H34.2471L30.8369 212.644H30.7139V220H29.5625ZM45.8047 219.139C46.6543 219.139 47.3633 218.884 47.9316 218.374C48.5059 217.858 48.793 217.226 48.793 216.476V215.368L45.9893 215.57C44.4014 215.682 43.6074 216.279 43.6074 217.363C43.6074 217.902 43.8154 218.333 44.2314 218.655C44.6357 218.978 45.1602 219.139 45.8047 219.139ZM45.6113 220.158C44.6738 220.158 43.9092 219.906 43.3174 219.402C42.7197 218.893 42.4209 218.219 42.4209 217.381C42.4209 216.561 42.7168 215.913 43.3086 215.438C43.8887 214.97 44.7295 214.697 45.8311 214.621L48.793 214.428V213.514C48.793 212.834 48.5938 212.312 48.1953 211.949C47.791 211.586 47.2051 211.404 46.4375 211.404C45.7871 211.404 45.2422 211.533 44.8027 211.791C44.3574 212.055 44.0791 212.415 43.9678 212.872H42.7988C42.9102 212.122 43.3027 211.519 43.9766 211.062C44.6445 210.604 45.4766 210.376 46.4727 210.376C47.5801 210.376 48.4385 210.651 49.0479 211.202C49.6514 211.747 49.9531 212.515 49.9531 213.505V220H48.8457V218.374H48.7402C48.4531 218.937 48.0342 219.373 47.4834 219.684C46.9326 220 46.3086 220.158 45.6113 220.158ZM57.6348 210.376C58.8359 210.376 59.7998 210.821 60.5264 211.712C61.2529 212.608 61.6162 213.792 61.6162 215.263C61.6162 216.733 61.2529 217.917 60.5264 218.813C59.7939 219.71 58.8301 220.158 57.6348 220.158C56.9023 220.158 56.252 219.985 55.6836 219.64C55.1211 219.288 54.708 218.808 54.4443 218.198H54.3389V223.085H53.1875V210.534H54.2861V212.468H54.3916C54.6846 211.817 55.1182 211.308 55.6924 210.938C56.2666 210.563 56.9141 210.376 57.6348 210.376ZM57.3799 219.112C58.3174 219.112 59.0586 218.767 59.6035 218.075C60.1543 217.384 60.4297 216.449 60.4297 215.271C60.4297 214.088 60.1572 213.15 59.6123 212.459C59.0615 211.762 58.3203 211.413 57.3887 211.413C56.4629 211.413 55.7158 211.765 55.1475 212.468C54.585 213.171 54.3037 214.103 54.3037 215.263C54.3037 216.423 54.585 217.354 55.1475 218.058C55.71 218.761 56.4541 219.112 57.3799 219.112ZM64.2793 220V210.534H65.668L69.3857 218.4H69.4912L73.1914 210.534H74.5273V220H73.376V212.644H73.2441L69.8691 219.815H68.9639L65.5537 212.644H65.4307V220H64.2793ZM81.4092 211.396C80.5479 211.396 79.8418 211.688 79.291 212.274C78.7402 212.866 78.4385 213.648 78.3857 214.621H84.2832C84.2715 213.643 84.0049 212.86 83.4834 212.274C82.9561 211.688 82.2646 211.396 81.4092 211.396ZM85.3379 217.662C85.1035 218.436 84.6406 219.045 83.9492 219.49C83.2578 219.936 82.417 220.158 81.4268 220.158C80.126 220.158 79.0947 219.716 78.333 218.831C77.5713 217.952 77.1904 216.766 77.1904 215.271C77.1904 213.783 77.5742 212.597 78.3418 211.712C79.1035 210.821 80.1289 210.376 81.418 210.376C82.6777 210.376 83.6709 210.795 84.3975 211.633C85.124 212.471 85.4873 213.613 85.4873 215.061V215.57H78.377V215.623C78.4062 216.695 78.6992 217.548 79.2559 218.181C79.8066 218.813 80.5391 219.13 81.4531 219.13C82.8418 219.13 83.7471 218.641 84.1689 217.662H85.3379ZM90.0752 215.931C89.9697 217.29 89.7529 218.286 89.4248 218.919C89.0205 219.692 88.3965 220.079 87.5527 220.079C87.3594 220.079 87.1836 220.05 87.0254 219.991V218.928C87.166 218.975 87.3242 218.998 87.5 218.998C87.9688 218.998 88.3203 218.711 88.5547 218.137C88.7598 217.65 88.9004 216.9 88.9766 215.887C89.1113 214.48 89.2344 212.696 89.3457 210.534H95.4014V220H94.25V211.51H90.3916C90.2979 213.314 90.1924 214.788 90.0752 215.931ZM101.404 219.139C102.254 219.139 102.963 218.884 103.531 218.374C104.105 217.858 104.393 217.226 104.393 216.476V215.368L101.589 215.57C100.001 215.682 99.207 216.279 99.207 217.363C99.207 217.902 99.415 218.333 99.8311 218.655C100.235 218.978 100.76 219.139 101.404 219.139ZM101.211 220.158C100.273 220.158 99.5088 219.906 98.917 219.402C98.3193 218.893 98.0205 218.219 98.0205 217.381C98.0205 216.561 98.3164 215.913 98.9082 215.438C99.4883 214.97 100.329 214.697 101.431 214.621L104.393 214.428V213.514C104.393 212.834 104.193 212.312 103.795 211.949C103.391 211.586 102.805 211.404 102.037 211.404C101.387 211.404 100.842 211.533 100.402 211.791C99.957 212.055 99.6787 212.415 99.5674 212.872H98.3984C98.5098 212.122 98.9023 211.519 99.5762 211.062C100.244 210.604 101.076 210.376 102.072 210.376C103.18 210.376 104.038 210.651 104.647 211.202C105.251 211.747 105.553 212.515 105.553 213.505V220H104.445V218.374H104.34C104.053 218.937 103.634 219.373 103.083 219.684C102.532 220 101.908 220.158 101.211 220.158ZM115.036 211.51H110.932C110.844 213.186 110.735 214.659 110.606 215.931C110.483 217.39 110.199 218.386 109.754 218.919V219.024H115.036V211.51ZM107.609 222.505V219.024H108.374C109.007 218.614 109.391 217.568 109.525 215.887C109.561 215.541 109.687 213.757 109.903 210.534H116.188V219.024H117.717V222.505H116.627V220H108.699V222.505H107.609ZM121.364 214.683L125.574 210.534H126.998L122.331 215.078L127.209 220H125.688L121.364 215.605H120.995V220H119.844V210.534H120.995V214.683H121.364ZM129.441 220V210.534H130.593V218.163H130.707L136.024 210.534H137.176V220H136.024V212.371H135.919L130.593 220H129.441Z" fill="white"/>
<path d="M225.064 99.3252C223.699 99.3252 222.577 98.9531 221.698 98.209C220.837 97.4824 220.386 96.5449 220.345 95.3965H222.797C222.873 95.9238 223.122 96.3486 223.544 96.6709C223.966 96.9932 224.479 97.1543 225.082 97.1543C225.768 97.1543 226.321 96.9434 226.743 96.5215C227.171 96.0996 227.385 95.5459 227.385 94.8604C227.385 94.1631 227.171 93.6006 226.743 93.1729C226.315 92.7451 225.765 92.5312 225.091 92.5312C224.112 92.5312 223.389 92.9121 222.92 93.6738H220.547L221.18 86.3174H229.151V88.5234H223.236L222.955 91.7842H223.113C223.688 90.958 224.584 90.5449 225.803 90.5449C227.004 90.5449 227.991 90.9434 228.765 91.7402C229.532 92.5371 229.916 93.5566 229.916 94.7988C229.916 96.1465 229.471 97.2363 228.58 98.0684C227.689 98.9062 226.518 99.3252 225.064 99.3252ZM237.105 99.3252C235.535 99.3252 234.305 98.7363 233.414 97.5586C232.518 96.375 232.069 94.7344 232.069 92.6367C232.069 90.5449 232.518 88.9131 233.414 87.7412C234.305 86.5752 235.535 85.9922 237.105 85.9922C238.67 85.9922 239.897 86.5752 240.788 87.7412C241.69 88.9189 242.142 90.5537 242.142 92.6455C242.142 94.7373 241.693 96.375 240.797 97.5586C239.906 98.7363 238.676 99.3252 237.105 99.3252ZM237.105 97.1631C237.844 97.1631 238.418 96.7793 238.828 96.0117C239.244 95.2266 239.452 94.1016 239.452 92.6367C239.452 91.1836 239.241 90.0674 238.819 89.2881C238.415 88.5381 237.844 88.1631 237.105 88.1631C236.373 88.1631 235.802 88.541 235.392 89.2969C234.97 90.0762 234.759 91.1895 234.759 92.6367C234.759 94.0957 234.97 95.2207 235.392 96.0117C235.796 96.7793 236.367 97.1631 237.105 97.1631ZM249.252 99V89.3057H252.565L255.105 95.5107H255.264L257.812 89.3057H261.082V99H258.674V92.5752H258.507L256.055 98.4551H254.271L251.818 92.5752H251.66V99H249.252ZM266.936 94.3418C266.848 95.9004 266.572 97.0547 266.109 97.8047C265.576 98.6777 264.747 99.1143 263.622 99.1143C263.306 99.1143 263.033 99.0762 262.805 99V96.75C262.969 96.791 263.153 96.8115 263.358 96.8115C263.792 96.8115 264.114 96.5596 264.325 96.0557C264.501 95.6455 264.612 95.0156 264.659 94.166L264.94 89.3057H272.235V99H269.678V91.3184H267.138L266.936 94.3418Z" fill="white"/>
<path d="M220.125 120.114C220.125 118.89 220.553 117.896 221.408 117.135C222.264 116.373 223.377 115.992 224.748 115.992C226.072 115.992 227.15 116.335 227.982 117.021C228.82 117.712 229.239 118.603 229.239 119.692C229.239 120.384 229.022 121.069 228.589 121.749C228.155 122.435 227.391 123.293 226.295 124.324L223.869 126.636V126.794H229.424V129H220.274V127.146L224.414 123.094C225.305 122.227 225.899 121.573 226.198 121.134C226.497 120.706 226.646 120.284 226.646 119.868C226.646 119.358 226.462 118.939 226.093 118.611C225.718 118.289 225.24 118.128 224.66 118.128C224.045 118.128 223.547 118.312 223.166 118.682C222.779 119.045 222.586 119.52 222.586 120.105V120.158H220.125V120.114ZM236.736 129.325C235.166 129.325 233.936 128.736 233.045 127.559C232.148 126.375 231.7 124.734 231.7 122.637C231.7 120.545 232.148 118.913 233.045 117.741C233.936 116.575 235.166 115.992 236.736 115.992C238.301 115.992 239.528 116.575 240.419 117.741C241.321 118.919 241.772 120.554 241.772 122.646C241.772 124.737 241.324 126.375 240.428 127.559C239.537 128.736 238.307 129.325 236.736 129.325ZM236.736 127.163C237.475 127.163 238.049 126.779 238.459 126.012C238.875 125.227 239.083 124.102 239.083 122.637C239.083 121.184 238.872 120.067 238.45 119.288C238.046 118.538 237.475 118.163 236.736 118.163C236.004 118.163 235.433 118.541 235.022 119.297C234.601 120.076 234.39 121.189 234.39 122.637C234.39 124.096 234.601 125.221 235.022 126.012C235.427 126.779 235.998 127.163 236.736 127.163ZM248.883 129V119.306H252.196L254.736 125.511H254.895L257.443 119.306H260.713V129H258.305V122.575H258.138L255.686 128.455H253.901L251.449 122.575H251.291V129H248.883ZM266.566 124.342C266.479 125.9 266.203 127.055 265.74 127.805C265.207 128.678 264.378 129.114 263.253 129.114C262.937 129.114 262.664 129.076 262.436 129V126.75C262.6 126.791 262.784 126.812 262.989 126.812C263.423 126.812 263.745 126.56 263.956 126.056C264.132 125.646 264.243 125.016 264.29 124.166L264.571 119.306H271.866V129H269.309V121.318H266.769L266.566 124.342Z" fill="white"/>
<path d="M241.342 148.901H241.184L238.072 151.046V148.576L241.351 146.317H243.996V159H241.342V148.901ZM252.398 159.325C250.828 159.325 249.598 158.736 248.707 157.559C247.811 156.375 247.362 154.734 247.362 152.637C247.362 150.545 247.811 148.913 248.707 147.741C249.598 146.575 250.828 145.992 252.398 145.992C253.963 145.992 255.19 146.575 256.081 147.741C256.983 148.919 257.435 150.554 257.435 152.646C257.435 154.737 256.986 156.375 256.09 157.559C255.199 158.736 253.969 159.325 252.398 159.325ZM252.398 157.163C253.137 157.163 253.711 156.779 254.121 156.012C254.537 155.227 254.745 154.102 254.745 152.637C254.745 151.184 254.534 150.067 254.112 149.288C253.708 148.538 253.137 148.163 252.398 148.163C251.666 148.163 251.095 148.541 250.685 149.297C250.263 150.076 250.052 151.189 250.052 152.637C250.052 154.096 250.263 155.221 250.685 156.012C251.089 156.779 251.66 157.163 252.398 157.163ZM267.103 151.318V159H264.545V149.306H271.251V151.318H267.103Z" fill="white"/>
<path d="M224.071 189.325C222.706 189.325 221.584 188.953 220.705 188.209C219.844 187.482 219.393 186.545 219.352 185.396H221.804C221.88 185.924 222.129 186.349 222.551 186.671C222.973 186.993 223.485 187.154 224.089 187.154C224.774 187.154 225.328 186.943 225.75 186.521C226.178 186.1 226.392 185.546 226.392 184.86C226.392 184.163 226.178 183.601 225.75 183.173C225.322 182.745 224.771 182.531 224.098 182.531C223.119 182.531 222.396 182.912 221.927 183.674H219.554L220.187 176.317H228.158V178.523H222.243L221.962 181.784H222.12C222.694 180.958 223.591 180.545 224.81 180.545C226.011 180.545 226.998 180.943 227.771 181.74C228.539 182.537 228.923 183.557 228.923 184.799C228.923 186.146 228.478 187.236 227.587 188.068C226.696 188.906 225.524 189.325 224.071 189.325ZM236.112 189.325C234.542 189.325 233.312 188.736 232.421 187.559C231.524 186.375 231.076 184.734 231.076 182.637C231.076 180.545 231.524 178.913 232.421 177.741C233.312 176.575 234.542 175.992 236.112 175.992C237.677 175.992 238.904 176.575 239.795 177.741C240.697 178.919 241.148 180.554 241.148 182.646C241.148 184.737 240.7 186.375 239.804 187.559C238.913 188.736 237.683 189.325 236.112 189.325ZM236.112 187.163C236.851 187.163 237.425 186.779 237.835 186.012C238.251 185.227 238.459 184.102 238.459 182.637C238.459 181.184 238.248 180.067 237.826 179.288C237.422 178.538 236.851 178.163 236.112 178.163C235.38 178.163 234.809 178.541 234.398 179.297C233.977 180.076 233.766 181.189 233.766 182.637C233.766 184.096 233.977 185.221 234.398 186.012C234.803 186.779 235.374 187.163 236.112 187.163ZM248.259 189V179.306H251.572L254.112 185.511H254.271L256.819 179.306H260.089V189H257.681V182.575H257.514L255.062 188.455H253.277L250.825 182.575H250.667V189H248.259ZM265.942 184.342C265.854 185.9 265.579 187.055 265.116 187.805C264.583 188.678 263.754 189.114 262.629 189.114C262.312 189.114 262.04 189.076 261.812 189V186.75C261.976 186.791 262.16 186.812 262.365 186.812C262.799 186.812 263.121 186.56 263.332 186.056C263.508 185.646 263.619 185.016 263.666 184.166L263.947 179.306H271.242V189H268.685V181.318H266.145L265.942 184.342Z" fill="white"/>
<path d="M236.071 219.325C234.706 219.325 233.584 218.953 232.705 218.209C231.844 217.482 231.393 216.545 231.352 215.396H233.804C233.88 215.924 234.129 216.349 234.551 216.671C234.973 216.993 235.485 217.154 236.089 217.154C236.774 217.154 237.328 216.943 237.75 216.521C238.178 216.1 238.392 215.546 238.392 214.86C238.392 214.163 238.178 213.601 237.75 213.173C237.322 212.745 236.771 212.531 236.098 212.531C235.119 212.531 234.396 212.912 233.927 213.674H231.554L232.187 206.317H240.158V208.523H234.243L233.962 211.784H234.12C234.694 210.958 235.591 210.545 236.81 210.545C238.011 210.545 238.998 210.943 239.771 211.74C240.539 212.537 240.923 213.557 240.923 214.799C240.923 216.146 240.478 217.236 239.587 218.068C238.696 218.906 237.524 219.325 236.071 219.325ZM247.937 219V209.306H251.25L253.79 215.511H253.948L256.497 209.306H259.767V219H257.358V212.575H257.191L254.739 218.455H252.955L250.503 212.575H250.345V219H247.937ZM265.62 214.342C265.532 215.9 265.257 217.055 264.794 217.805C264.261 218.678 263.432 219.114 262.307 219.114C261.99 219.114 261.718 219.076 261.489 219V216.75C261.653 216.791 261.838 216.812 262.043 216.812C262.477 216.812 262.799 216.56 263.01 216.056C263.186 215.646 263.297 215.016 263.344 214.166L263.625 209.306H270.92V219H268.362V211.318H265.822L265.62 214.342Z" fill="white"/>
<line y1="240.5" x2="310" y2="240.5" stroke="white" stroke-opacity="0.5"/>
<defs>
<filter id="filter0_b" x="-20" y="-20" width="350" height="350" filterUnits="userSpaceOnUse" color-interpolation-filters="sRGB">
<feFlood flood-opacity="0" result="BackgroundImageFix"/>
<feGaussianBlur in="BackgroundImage" stdDeviation="10"/>
<feComposite in2="SourceAlpha" operator="in" result="effect1_backgroundBlur"/>
<feBlend mode="normal" in="SourceGraphic" in2="effect1_backgroundBlur" result="shape"/>
</filter>
</defs>
</svg>
