<svg width="310" height="310" viewBox="0 0 310 310" fill="none" xmlns="http://www.w3.org/2000/svg">
<g filter="url(#filter0_b)">
<rect width="310" height="310" rx="8" fill="white" fill-opacity="0.2"/>
</g>
<path d="M60.3379 48.498C57.4668 48.498 55.1963 47.5068 53.5264 45.5244C51.8467 43.542 51.0068 40.8467 51.0068 37.4385C51.0068 34.0303 51.8418 31.3301 53.5117 29.3379C55.1816 27.3555 57.4521 26.3643 60.3232 26.3643C62.5498 26.3643 64.4541 26.999 66.0361 28.2686C67.6182 29.5381 68.5654 31.1934 68.8779 33.2344H66.1973C65.8457 31.8672 65.1426 30.7881 64.0879 29.9971C63.0332 29.1963 61.7783 28.7959 60.3232 28.7959C58.292 28.7959 56.6855 29.5723 55.5039 31.125C54.3125 32.6777 53.7168 34.7822 53.7168 37.4385C53.7168 40.0947 54.3125 42.1943 55.5039 43.7373C56.6953 45.29 58.3066 46.0664 60.3379 46.0664C61.8125 46.0664 63.0723 45.7148 64.1172 45.0117C65.1719 44.2988 65.8652 43.332 66.1973 42.1113H68.8779C68.5264 44.0547 67.5791 45.6025 66.0361 46.7549C64.4834 47.917 62.584 48.498 60.3379 48.498ZM82.7793 26.3643C85.7773 26.3643 88.1406 27.3604 89.8691 29.3525C91.5879 31.335 92.4473 34.0254 92.4473 37.4238C92.4473 40.8223 91.5928 43.5127 89.8838 45.4951C88.1455 47.4971 85.7773 48.498 82.7793 48.498C79.7617 48.498 77.3838 47.4971 75.6455 45.4951C73.9268 43.5127 73.0674 40.8223 73.0674 37.4238C73.0674 34.0254 73.9414 31.3301 75.6895 29.3379C77.4277 27.3555 79.791 26.3643 82.7793 26.3643ZM82.7793 28.7959C80.6309 28.7959 78.9268 29.5723 77.667 31.125C76.4072 32.6777 75.7773 34.7773 75.7773 37.4238C75.7773 40.0703 76.3975 42.165 77.6377 43.708C78.8877 45.2803 80.6016 46.0664 82.7793 46.0664C84.9375 46.0664 86.6416 45.2803 87.8916 43.708C89.1221 42.1553 89.7373 40.0605 89.7373 37.4238C89.7373 34.7676 89.1172 32.668 87.877 31.125C86.6367 29.5723 84.9375 28.7959 82.7793 28.7959ZM109.879 48V29.2354H102.159L101.485 40.0898C101.319 42.7754 100.846 44.7529 100.064 46.0225C99.2051 47.4287 97.8818 48.1318 96.0947 48.1318C95.6846 48.1318 95.3428 48.083 95.0693 47.9854V45.627C95.2842 45.6855 95.5479 45.7148 95.8604 45.7148C96.9639 45.7148 97.7598 45.1729 98.248 44.0889C98.6387 43.2393 98.8877 41.8721 98.9951 39.9873L99.7568 26.8623H112.516V48H109.879ZM122.271 40.2217C122.115 42.7119 121.622 44.4551 120.792 45.4512V45.627H131.046V29.2354H122.96L122.271 40.2217ZM118.404 52.1748H115.958V45.627H117.525C118.873 44.9141 119.63 43.0928 119.796 40.1631L120.602 26.8623H133.683V45.627H136.319V52.1748H133.873V48H118.404V52.1748ZM152.389 41.9502H143.98L141.856 48H139.088L146.881 26.8623H149.488L157.281 48H154.513L152.389 41.9502ZM144.757 39.709H151.612L148.302 30.2754H148.067L144.757 39.709ZM164.576 48V29.2354H157.765V26.8623H174.024V29.2354H167.213V48H164.576ZM186.71 48V26.8623H189.273L200.304 43.3857H200.538V26.8623H203.146V48H200.582L189.552 31.5352H189.317V48H186.71ZM210.704 36.75C209.249 36.75 208.048 36.291 207.101 35.373C206.104 34.4258 205.606 33.1855 205.606 31.6523C205.606 30.1191 206.104 28.8789 207.101 27.9316C208.048 27.0234 209.249 26.5693 210.704 26.5693C212.198 26.5693 213.434 27.0234 214.41 27.9316C215.426 28.8789 215.934 30.1191 215.934 31.6523C215.934 33.1855 215.426 34.4258 214.41 35.373C213.434 36.291 212.198 36.75 210.704 36.75ZM210.704 34.875C211.573 34.875 212.271 34.582 212.799 33.9961C213.326 33.4102 213.59 32.6289 213.59 31.6523C213.59 30.666 213.331 29.8848 212.813 29.3086C212.296 28.7324 211.593 28.4443 210.704 28.4443C209.874 28.4443 209.21 28.7324 208.712 29.3086C208.204 29.8848 207.95 30.666 207.95 31.6523C207.95 32.6289 208.204 33.4102 208.712 33.9961C209.21 34.582 209.874 34.875 210.704 34.875ZM206.046 40.8076V38.4199H215.567V40.8076H206.046ZM226.1 48.498C224.098 48.498 222.442 47.9316 221.134 46.7988C219.825 45.6758 219.112 44.2012 218.995 42.375H221.588C221.705 43.5176 222.179 44.4355 223.009 45.1289C223.849 45.832 224.889 46.1836 226.129 46.1836C227.545 46.1836 228.683 45.7393 229.542 44.8506C230.411 43.9619 230.846 42.7949 230.846 41.3496C230.846 39.9043 230.411 38.7275 229.542 37.8193C228.683 36.9209 227.56 36.4717 226.173 36.4717C224.171 36.4717 222.716 37.2627 221.808 38.8447H219.332L220.489 26.8623H232.281V29.2207H222.555L221.954 36.0029H222.188C223.214 34.8018 224.703 34.2012 226.656 34.2012C228.668 34.2012 230.309 34.8604 231.578 36.1787C232.848 37.4971 233.482 39.1963 233.482 41.2764C233.482 43.4248 232.799 45.1631 231.432 46.4912C230.064 47.8291 228.287 48.498 226.1 48.498Z" fill="white"/>
<path d="M31.7695 269.848C31.7695 268.348 32.2812 267.113 33.3047 266.145C34.3203 265.176 35.6133 264.691 37.1836 264.691C38.6992 264.691 39.9727 265.148 41.0039 266.062C42.0273 266.969 42.5391 268.094 42.5391 269.438C42.5391 270.32 42.2891 271.184 41.7891 272.027C41.2891 272.887 40.3477 274.059 38.9648 275.543L34.8984 279.914V280.102H42.8203V282H31.875V280.547L37.7227 274.16C38.8086 272.98 39.5312 272.082 39.8906 271.465C40.25 270.848 40.4297 270.199 40.4297 269.52C40.4297 268.676 40.1133 267.965 39.4805 267.387C38.8398 266.816 38.0547 266.531 37.125 266.531C36.1328 266.531 35.332 266.836 34.7227 267.445C34.1133 268.055 33.8086 268.855 33.8086 269.848V269.859H31.7695V269.848ZM52.0664 282.398C50.1602 282.398 48.6836 281.625 47.6367 280.078C46.5898 278.531 46.0664 276.352 46.0664 273.539C46.0664 270.75 46.5938 268.578 47.6484 267.023C48.7031 265.469 50.1758 264.691 52.0664 264.691C53.9492 264.691 55.4141 265.473 56.4609 267.035C57.5156 268.598 58.043 270.777 58.043 273.574C58.043 276.379 57.5234 278.551 56.4844 280.09C55.4375 281.629 53.9648 282.398 52.0664 282.398ZM52.0664 280.559C53.3164 280.559 54.2695 279.957 54.9258 278.754C55.5898 277.543 55.9219 275.805 55.9219 273.539C55.9219 271.297 55.5898 269.57 54.9258 268.359C54.2539 267.148 53.3008 266.543 52.0664 266.543C50.832 266.543 49.875 267.152 49.1953 268.371C48.5234 269.582 48.1875 271.305 48.1875 273.539C48.1875 275.797 48.5234 277.531 49.1953 278.742C49.8594 279.953 50.8164 280.559 52.0664 280.559ZM67.1836 282.398C65.2773 282.398 63.8008 281.625 62.7539 280.078C61.707 278.531 61.1836 276.352 61.1836 273.539C61.1836 270.75 61.7109 268.578 62.7656 267.023C63.8203 265.469 65.293 264.691 67.1836 264.691C69.0664 264.691 70.5312 265.473 71.5781 267.035C72.6328 268.598 73.1602 270.777 73.1602 273.574C73.1602 276.379 72.6406 278.551 71.6016 280.09C70.5547 281.629 69.082 282.398 67.1836 282.398ZM67.1836 280.559C68.4336 280.559 69.3867 279.957 70.043 278.754C70.707 277.543 71.0391 275.805 71.0391 273.539C71.0391 271.297 70.707 269.57 70.043 268.359C69.3711 267.148 68.418 266.543 67.1836 266.543C65.9492 266.543 64.9922 267.152 64.3125 268.371C63.6406 269.582 63.3047 271.305 63.3047 273.539C63.3047 275.797 63.6406 277.531 64.3125 278.742C64.9766 279.953 65.9336 280.559 67.1836 280.559ZM80.5078 273.621H83.2031C84.3828 273.621 85.2852 273.32 85.9102 272.719C86.5039 272.141 86.8008 271.328 86.8008 270.281C86.8008 269.242 86.5039 268.438 85.9102 267.867C85.293 267.266 84.3906 266.965 83.2031 266.965H80.5078V273.621ZM80.5078 279.305V282H78.3984V279.305H76.0547V277.711H78.3984V275.449H76.0547V273.621H78.3984V265.09H83.7539C85.3164 265.09 86.582 265.586 87.5508 266.578C88.4961 267.539 88.9688 268.773 88.9688 270.281C88.9688 271.789 88.4922 273.023 87.5391 273.984C86.5703 274.961 85.3008 275.449 83.7305 275.449H80.5078V277.711H85.3711V279.305H80.5078Z" fill="white"/>
<path d="M32.4243 99.1387C33.2739 99.1387 33.9829 98.8838 34.5513 98.374C35.1255 97.8584 35.4126 97.2256 35.4126 96.4756V95.3682L32.6089 95.5703C31.021 95.6816 30.2271 96.2793 30.2271 97.3633C30.2271 97.9023 30.4351 98.333 30.8511 98.6553C31.2554 98.9775 31.7798 99.1387 32.4243 99.1387ZM32.231 100.158C31.2935 100.158 30.5288 99.9062 29.937 99.4023C29.3394 98.8926 29.0405 98.2188 29.0405 97.3809C29.0405 96.5605 29.3364 95.9131 29.9282 95.4385C30.5083 94.9697 31.3491 94.6973 32.4507 94.6211L35.4126 94.4277V93.5137C35.4126 92.834 35.2134 92.3125 34.8149 91.9492C34.4106 91.5859 33.8247 91.4043 33.0571 91.4043C32.4067 91.4043 31.8618 91.5332 31.4224 91.791C30.9771 92.0547 30.6987 92.415 30.5874 92.8721H29.4185C29.5298 92.1221 29.9224 91.5186 30.5962 91.0615C31.2642 90.6045 32.0962 90.376 33.0923 90.376C34.1997 90.376 35.0581 90.6514 35.6675 91.2021C36.271 91.7471 36.5728 92.5146 36.5728 93.5049V100H35.4653V98.374H35.3599C35.0728 98.9365 34.6538 99.373 34.103 99.6836C33.5522 100 32.9282 100.158 32.231 100.158ZM46.0562 91.5098H41.9517C41.8638 93.1855 41.7554 94.6592 41.6265 95.9307C41.5034 97.3896 41.2192 98.3857 40.7739 98.9189V99.0244H46.0562V91.5098ZM38.6294 102.505V99.0244H39.394C40.0269 98.6143 40.4106 97.5684 40.5454 95.8867C40.5806 95.541 40.7065 93.7568 40.9233 90.5342H47.2075V99.0244H48.7368V102.505H47.647V100H39.7192V102.505H38.6294ZM55.311 90.376C56.5122 90.376 57.4761 90.8213 58.2026 91.7119C58.9292 92.6084 59.2925 93.792 59.2925 95.2627C59.2925 96.7334 58.9292 97.917 58.2026 98.8135C57.4702 99.71 56.5063 100.158 55.311 100.158C54.5786 100.158 53.9282 99.9854 53.3599 99.6396C52.7974 99.2881 52.3843 98.8076 52.1206 98.1982H52.0151V103.085H50.8638V90.5342H51.9624V92.4678H52.0679C52.3608 91.8174 52.7944 91.3076 53.3687 90.9385C53.9429 90.5635 54.5903 90.376 55.311 90.376ZM55.0562 99.1123C55.9937 99.1123 56.7349 98.7666 57.2798 98.0752C57.8306 97.3838 58.106 96.4492 58.106 95.2715C58.106 94.0879 57.8335 93.1504 57.2886 92.459C56.7378 91.7617 55.9966 91.4131 55.0649 91.4131C54.1392 91.4131 53.3921 91.7646 52.8237 92.4678C52.2612 93.1709 51.98 94.1025 51.98 95.2627C51.98 96.4229 52.2612 97.3545 52.8237 98.0576C53.3862 98.7607 54.1304 99.1123 55.0562 99.1123ZM65.7085 91.3955C64.8472 91.3955 64.1411 91.6885 63.5903 92.2744C63.0396 92.8662 62.7378 93.6484 62.6851 94.6211H68.5825C68.5708 93.6426 68.3042 92.8604 67.7827 92.2744C67.2554 91.6885 66.564 91.3955 65.7085 91.3955ZM69.6372 97.6621C69.4028 98.4355 68.9399 99.0449 68.2485 99.4902C67.5571 99.9355 66.7163 100.158 65.7261 100.158C64.4253 100.158 63.394 99.7158 62.6323 98.8311C61.8706 97.9521 61.4897 96.7656 61.4897 95.2715C61.4897 93.7832 61.8735 92.5967 62.6411 91.7119C63.4028 90.8213 64.4282 90.376 65.7173 90.376C66.9771 90.376 67.9702 90.7949 68.6968 91.6328C69.4233 92.4707 69.7866 93.6133 69.7866 95.0605V95.5703H62.6763V95.623C62.7056 96.6953 62.9985 97.5479 63.5552 98.1807C64.106 98.8135 64.8384 99.1299 65.7524 99.1299C67.1411 99.1299 68.0464 98.6406 68.4683 97.6621H69.6372ZM72.4497 90.5342H73.6011V94.5947H78.9185V90.5342H80.0698V100H78.9185V95.5703H73.6011V100H72.4497V90.5342ZM86.0728 99.1387C86.9224 99.1387 87.6313 98.8838 88.1997 98.374C88.7739 97.8584 89.061 97.2256 89.061 96.4756V95.3682L86.2573 95.5703C84.6694 95.6816 83.8755 96.2793 83.8755 97.3633C83.8755 97.9023 84.0835 98.333 84.4995 98.6553C84.9038 98.9775 85.4282 99.1387 86.0728 99.1387ZM85.8794 100.158C84.9419 100.158 84.1772 99.9062 83.5854 99.4023C82.9878 98.8926 82.689 98.2188 82.689 97.3809C82.689 96.5605 82.9849 95.9131 83.5767 95.4385C84.1567 94.9697 84.9976 94.6973 86.0991 94.6211L89.061 94.4277V93.5137C89.061 92.834 88.8618 92.3125 88.4634 91.9492C88.0591 91.5859 87.4731 91.4043 86.7056 91.4043C86.0552 91.4043 85.5103 91.5332 85.0708 91.791C84.6255 92.0547 84.3472 92.415 84.2358 92.8721H83.0669C83.1782 92.1221 83.5708 91.5186 84.2446 91.0615C84.9126 90.6045 85.7446 90.376 86.7407 90.376C87.8481 90.376 88.7065 90.6514 89.3159 91.2021C89.9194 91.7471 90.2212 92.5146 90.2212 93.5049V100H89.1138V98.374H89.0083C88.7212 98.9365 88.3022 99.373 87.7515 99.6836C87.2007 100 86.5767 100.158 85.8794 100.158ZM95.3804 95.9307C95.2749 97.29 95.0581 98.2861 94.73 98.9189C94.3257 99.6924 93.7017 100.079 92.8579 100.079C92.6646 100.079 92.4888 100.05 92.3306 99.9912V98.9277C92.4712 98.9746 92.6294 98.998 92.8052 98.998C93.2739 98.998 93.6255 98.7109 93.8599 98.1367C94.0649 97.6504 94.2056 96.9004 94.2817 95.8867C94.4165 94.4805 94.5396 92.6963 94.6509 90.5342H100.707V100H99.5552V91.5098H95.6968C95.603 93.3145 95.4976 94.7881 95.3804 95.9307ZM103.844 100V90.5342H104.996V98.1631H105.11L110.427 90.5342H111.579V100H110.427V92.3711H110.322L104.996 100H103.844ZM114.708 90.5342H115.859V94.5947H121.176V90.5342H122.328V100H121.176V95.5703H115.859V100H114.708V90.5342Z" fill="white"/>
<path d="M30.7104 121.51V124.621H33.0747C33.731 124.621 34.2349 124.48 34.5864 124.199C34.9263 123.924 35.0962 123.531 35.0962 123.021C35.0962 122.553 34.9409 122.187 34.6304 121.923C34.3081 121.647 33.8511 121.51 33.2593 121.51H30.7104ZM30.7104 125.597V129.024H33.3999C34.8296 129.024 35.5444 128.447 35.5444 127.293C35.5444 126.162 34.7534 125.597 33.1714 125.597H30.7104ZM29.5591 120.534H33.3911C34.2759 120.534 34.9731 120.748 35.4829 121.176C35.981 121.604 36.23 122.184 36.23 122.916C36.23 123.426 36.0747 123.877 35.7642 124.27C35.4536 124.656 35.0552 124.896 34.5688 124.99V125.104C35.1899 125.175 35.6938 125.409 36.0806 125.808C36.4849 126.212 36.687 126.713 36.687 127.311C36.687 128.154 36.4028 128.813 35.8345 129.288C35.2603 129.763 34.4575 130 33.4263 130H29.5591V120.534ZM43.147 129.112C44.1196 129.112 44.8813 128.77 45.4321 128.084C45.9829 127.404 46.2583 126.464 46.2583 125.263C46.2583 124.062 45.9829 123.121 45.4321 122.441C44.8813 121.756 44.1196 121.413 43.147 121.413C42.1743 121.413 41.4126 121.756 40.8618 122.441C40.311 123.121 40.0356 124.062 40.0356 125.263C40.0356 126.464 40.311 127.404 40.8618 128.084C41.4126 128.77 42.1743 129.112 43.147 129.112ZM43.147 130.158C41.8228 130.158 40.7769 129.719 40.0093 128.84C39.2358 127.967 38.8491 126.774 38.8491 125.263C38.8491 123.751 39.2358 122.559 40.0093 121.686C40.7769 120.812 41.8228 120.376 43.147 120.376C44.4712 120.376 45.52 120.812 46.2935 121.686C47.0669 122.559 47.4536 123.751 47.4536 125.263C47.4536 126.774 47.0669 127.967 46.2935 128.84C45.52 129.719 44.4712 130.158 43.147 130.158ZM56.2866 121.51H52.1821C52.0942 123.186 51.9858 124.659 51.8569 125.931C51.7339 127.39 51.4497 128.386 51.0044 128.919V129.024H56.2866V121.51ZM48.8599 132.505V129.024H49.6245C50.2573 128.614 50.6411 127.568 50.7759 125.887C50.811 125.541 50.937 123.757 51.1538 120.534H57.438V129.024H58.9673V132.505H57.8774V130H49.9497V132.505H48.8599ZM62.6147 124.683L66.8247 120.534H68.2485L63.5815 125.078L68.4595 130H66.939L62.6147 125.605H62.2456V130H61.0942V120.534H62.2456V124.683H62.6147ZM73.2935 129.139C74.1431 129.139 74.8521 128.884 75.4204 128.374C75.9946 127.858 76.2817 127.226 76.2817 126.476V125.368L73.478 125.57C71.8901 125.682 71.0962 126.279 71.0962 127.363C71.0962 127.902 71.3042 128.333 71.7202 128.655C72.1245 128.978 72.6489 129.139 73.2935 129.139ZM73.1001 130.158C72.1626 130.158 71.3979 129.906 70.8062 129.402C70.2085 128.893 69.9097 128.219 69.9097 127.381C69.9097 126.561 70.2056 125.913 70.7974 125.438C71.3774 124.97 72.2183 124.697 73.3198 124.621L76.2817 124.428V123.514C76.2817 122.834 76.0825 122.312 75.6841 121.949C75.2798 121.586 74.6938 121.404 73.9263 121.404C73.2759 121.404 72.731 121.533 72.2915 121.791C71.8462 122.055 71.5679 122.415 71.4565 122.872H70.2876C70.3989 122.122 70.7915 121.519 71.4653 121.062C72.1333 120.604 72.9653 120.376 73.9614 120.376C75.0688 120.376 75.9272 120.651 76.5366 121.202C77.1401 121.747 77.4419 122.515 77.4419 123.505V130H76.3345V128.374H76.229C75.9419 128.937 75.5229 129.373 74.9722 129.684C74.4214 130 73.7974 130.158 73.1001 130.158Z" fill="white"/>
<path d="M36.0718 153.32C35.9194 152.758 35.6118 152.304 35.1489 151.958C34.6567 151.595 34.0591 151.413 33.356 151.413C32.4126 151.413 31.6655 151.759 31.1147 152.45C30.5581 153.142 30.2798 154.07 30.2798 155.236C30.2798 156.42 30.5581 157.36 31.1147 158.058C31.6714 158.761 32.4185 159.112 33.356 159.112C34.0591 159.112 34.6479 158.951 35.1226 158.629C35.603 158.307 35.9165 157.855 36.063 157.275H37.2319C37.0854 158.143 36.6753 158.834 36.0015 159.35C35.3042 159.889 34.4253 160.158 33.3647 160.158C32.0581 160.158 31.021 159.713 30.2534 158.822C29.48 157.938 29.0933 156.742 29.0933 155.236C29.0933 153.754 29.4771 152.573 30.2446 151.694C31.0181 150.815 32.0552 150.376 33.356 150.376C34.4106 150.376 35.2954 150.66 36.0103 151.229C36.6841 151.768 37.0942 152.465 37.2407 153.32H36.0718ZM39.8071 160V150.534H40.9585V158.163H41.0728L46.3901 150.534H47.5415V160H46.3901V152.371H46.2847L40.9585 160H39.8071ZM55.1177 150.376C56.3188 150.376 57.2827 150.821 58.0093 151.712C58.7358 152.608 59.0991 153.792 59.0991 155.263C59.0991 156.733 58.7358 157.917 58.0093 158.813C57.2769 159.71 56.313 160.158 55.1177 160.158C54.3853 160.158 53.7349 159.985 53.1665 159.64C52.604 159.288 52.1909 158.808 51.9272 158.198H51.8218V163.085H50.6704V150.534H51.769V152.468H51.8745C52.1675 151.817 52.6011 151.308 53.1753 150.938C53.7495 150.563 54.397 150.376 55.1177 150.376ZM54.8628 159.112C55.8003 159.112 56.5415 158.767 57.0864 158.075C57.6372 157.384 57.9126 156.449 57.9126 155.271C57.9126 154.088 57.6401 153.15 57.0952 152.459C56.5444 151.762 55.8032 151.413 54.8716 151.413C53.9458 151.413 53.1987 151.765 52.6304 152.468C52.0679 153.171 51.7866 154.103 51.7866 155.263C51.7866 156.423 52.0679 157.354 52.6304 158.058C53.1929 158.761 53.937 159.112 54.8628 159.112ZM65.5942 159.112C66.5669 159.112 67.3286 158.77 67.8794 158.084C68.4302 157.404 68.7056 156.464 68.7056 155.263C68.7056 154.062 68.4302 153.121 67.8794 152.441C67.3286 151.756 66.5669 151.413 65.5942 151.413C64.6216 151.413 63.8599 151.756 63.3091 152.441C62.7583 153.121 62.4829 154.062 62.4829 155.263C62.4829 156.464 62.7583 157.404 63.3091 158.084C63.8599 158.77 64.6216 159.112 65.5942 159.112ZM65.5942 160.158C64.27 160.158 63.2241 159.719 62.4565 158.84C61.6831 157.967 61.2964 156.774 61.2964 155.263C61.2964 153.751 61.6831 152.559 62.4565 151.686C63.2241 150.812 64.27 150.376 65.5942 150.376C66.9185 150.376 67.9673 150.812 68.7407 151.686C69.5142 152.559 69.9009 153.751 69.9009 155.263C69.9009 156.774 69.5142 157.967 68.7407 158.84C67.9673 159.719 66.9185 160.158 65.5942 160.158ZM78.936 151.51H73.7065V160H72.5552V150.534H80.0874V160H78.936V151.51ZM90.9595 159.139C91.8091 159.139 92.5181 158.884 93.0864 158.374C93.6606 157.858 93.9478 157.226 93.9478 156.476V155.368L91.144 155.57C89.5562 155.682 88.7622 156.279 88.7622 157.363C88.7622 157.902 88.9702 158.333 89.3862 158.655C89.7905 158.978 90.3149 159.139 90.9595 159.139ZM90.7661 160.158C89.8286 160.158 89.064 159.906 88.4722 159.402C87.8745 158.893 87.5757 158.219 87.5757 157.381C87.5757 156.561 87.8716 155.913 88.4634 155.438C89.0435 154.97 89.8843 154.697 90.9858 154.621L93.9478 154.428V153.514C93.9478 152.834 93.7485 152.312 93.3501 151.949C92.9458 151.586 92.3599 151.404 91.5923 151.404C90.9419 151.404 90.397 151.533 89.9575 151.791C89.5122 152.055 89.2339 152.415 89.1226 152.872H87.9536C88.0649 152.122 88.4575 151.519 89.1313 151.062C89.7993 150.604 90.6313 150.376 91.6274 150.376C92.7349 150.376 93.5933 150.651 94.2026 151.202C94.8062 151.747 95.1079 152.515 95.1079 153.505V160H94.0005V158.374H93.895C93.6079 158.937 93.189 159.373 92.6382 159.684C92.0874 160 91.4634 160.158 90.7661 160.158ZM98.3423 150.534H99.4937V154.595H104.811V150.534H105.962V160H104.811V155.57H99.4937V160H98.3423V150.534ZM111.965 159.139C112.815 159.139 113.524 158.884 114.092 158.374C114.667 157.858 114.954 157.226 114.954 156.476V155.368L112.15 155.57C110.562 155.682 109.768 156.279 109.768 157.363C109.768 157.902 109.976 158.333 110.392 158.655C110.796 158.978 111.321 159.139 111.965 159.139ZM111.772 160.158C110.834 160.158 110.07 159.906 109.478 159.402C108.88 158.893 108.582 158.219 108.582 157.381C108.582 156.561 108.877 155.913 109.469 155.438C110.049 154.97 110.89 154.697 111.992 154.621L114.954 154.428V153.514C114.954 152.834 114.754 152.312 114.356 151.949C113.952 151.586 113.366 151.404 112.598 151.404C111.948 151.404 111.403 151.533 110.963 151.791C110.518 152.055 110.24 152.415 110.128 152.872H108.959C109.071 152.122 109.463 151.519 110.137 151.062C110.805 150.604 111.637 150.376 112.633 150.376C113.741 150.376 114.599 150.651 115.208 151.202C115.812 151.747 116.114 152.515 116.114 153.505V160H115.006V158.374H114.901C114.614 158.937 114.195 159.373 113.644 159.684C113.093 160 112.469 160.158 111.772 160.158ZM119.348 150.534H120.5V154.595H125.817V150.534H126.968V160H125.817V155.57H120.5V160H119.348V150.534ZM132.971 159.139C133.821 159.139 134.53 158.884 135.098 158.374C135.672 157.858 135.959 157.226 135.959 156.476V155.368L133.156 155.57C131.568 155.682 130.774 156.279 130.774 157.363C130.774 157.902 130.982 158.333 131.398 158.655C131.802 158.978 132.327 159.139 132.971 159.139ZM132.778 160.158C131.84 160.158 131.076 159.906 130.484 159.402C129.886 158.893 129.587 158.219 129.587 157.381C129.587 156.561 129.883 155.913 130.475 155.438C131.055 154.97 131.896 154.697 132.998 154.621L135.959 154.428V153.514C135.959 152.834 135.76 152.312 135.362 151.949C134.958 151.586 134.372 151.404 133.604 151.404C132.954 151.404 132.409 151.533 131.969 151.791C131.524 152.055 131.246 152.415 131.134 152.872H129.965C130.077 152.122 130.469 151.519 131.143 151.062C131.811 150.604 132.643 150.376 133.639 150.376C134.747 150.376 135.605 150.651 136.214 151.202C136.818 151.747 137.12 152.515 137.12 153.505V160H136.012V158.374H135.907C135.62 158.937 135.201 159.373 134.65 159.684C134.099 160 133.475 160.158 132.778 160.158ZM146.867 153.32C146.714 152.758 146.407 152.304 145.944 151.958C145.452 151.595 144.854 151.413 144.151 151.413C143.208 151.413 142.46 151.759 141.91 152.45C141.353 153.142 141.075 154.07 141.075 155.236C141.075 156.42 141.353 157.36 141.91 158.058C142.466 158.761 143.213 159.112 144.151 159.112C144.854 159.112 145.443 158.951 145.917 158.629C146.398 158.307 146.711 157.855 146.858 157.275H148.027C147.88 158.143 147.47 158.834 146.796 159.35C146.099 159.889 145.22 160.158 144.16 160.158C142.853 160.158 141.816 159.713 141.048 158.822C140.275 157.938 139.888 156.742 139.888 155.236C139.888 153.754 140.272 152.573 141.04 151.694C141.813 150.815 142.85 150.376 144.151 150.376C145.206 150.376 146.09 150.66 146.805 151.229C147.479 151.768 147.889 152.465 148.036 153.32H146.867ZM153.415 159.139C154.264 159.139 154.973 158.884 155.542 158.374C156.116 157.858 156.403 157.226 156.403 156.476V155.368L153.599 155.57C152.011 155.682 151.217 156.279 151.217 157.363C151.217 157.902 151.425 158.333 151.841 158.655C152.246 158.978 152.77 159.139 153.415 159.139ZM153.221 160.158C152.284 160.158 151.519 159.906 150.927 159.402C150.33 158.893 150.031 158.219 150.031 157.381C150.031 156.561 150.327 155.913 150.918 155.438C151.499 154.97 152.339 154.697 153.441 154.621L156.403 154.428V153.514C156.403 152.834 156.204 152.312 155.805 151.949C155.401 151.586 154.815 151.404 154.047 151.404C153.397 151.404 152.852 151.533 152.413 151.791C151.967 152.055 151.689 152.415 151.578 152.872H150.409C150.52 152.122 150.913 151.519 151.586 151.062C152.254 150.604 153.086 150.376 154.083 150.376C155.19 150.376 156.048 150.651 156.658 151.202C157.261 151.747 157.563 152.515 157.563 153.505V160H156.456V158.374H156.35C156.063 158.937 155.644 159.373 155.093 159.684C154.542 160 153.918 160.158 153.221 160.158Z" fill="white"/>
<path d="M220.125 90.1143C220.125 88.8896 220.553 87.8965 221.408 87.1348C222.264 86.373 223.377 85.9922 224.748 85.9922C226.072 85.9922 227.15 86.335 227.982 87.0205C228.82 87.7119 229.239 88.6025 229.239 89.6924C229.239 90.3838 229.022 91.0693 228.589 91.749C228.155 92.4346 227.391 93.293 226.295 94.3242L223.869 96.6357V96.7939H229.424V99H220.274V97.1455L224.414 93.0938C225.305 92.2266 225.899 91.5732 226.198 91.1338C226.497 90.7061 226.646 90.2842 226.646 89.8682C226.646 89.3584 226.462 88.9395 226.093 88.6113C225.718 88.2891 225.24 88.1279 224.66 88.1279C224.045 88.1279 223.547 88.3125 223.166 88.6816C222.779 89.0449 222.586 89.5195 222.586 90.1055V90.1582H220.125V90.1143ZM236.736 99.3252C235.166 99.3252 233.936 98.7363 233.045 97.5586C232.148 96.375 231.7 94.7344 231.7 92.6367C231.7 90.5449 232.148 88.9131 233.045 87.7412C233.936 86.5752 235.166 85.9922 236.736 85.9922C238.301 85.9922 239.528 86.5752 240.419 87.7412C241.321 88.9189 241.772 90.5537 241.772 92.6455C241.772 94.7373 241.324 96.375 240.428 97.5586C239.537 98.7363 238.307 99.3252 236.736 99.3252ZM236.736 97.1631C237.475 97.1631 238.049 96.7793 238.459 96.0117C238.875 95.2266 239.083 94.1016 239.083 92.6367C239.083 91.1836 238.872 90.0674 238.45 89.2881C238.046 88.5381 237.475 88.1631 236.736 88.1631C236.004 88.1631 235.433 88.541 235.022 89.2969C234.601 90.0762 234.39 91.1895 234.39 92.6367C234.39 94.0957 234.601 95.2207 235.022 96.0117C235.427 96.7793 235.998 97.1631 236.736 97.1631ZM248.883 99V89.3057H252.196L254.736 95.5107H254.895L257.443 89.3057H260.713V99H258.305V92.5752H258.138L255.686 98.4551H253.901L251.449 92.5752H251.291V99H248.883ZM266.566 94.3418C266.479 95.9004 266.203 97.0547 265.74 97.8047C265.207 98.6777 264.378 99.1143 263.253 99.1143C262.937 99.1143 262.664 99.0762 262.436 99V96.75C262.6 96.791 262.784 96.8115 262.989 96.8115C263.423 96.8115 263.745 96.5596 263.956 96.0557C264.132 95.6455 264.243 95.0156 264.29 94.166L264.571 89.3057H271.866V99H269.309V91.3184H266.769L266.566 94.3418Z" fill="white"/>
<path d="M225.202 126.785H218.997V124.438C219.987 122.569 221.66 119.862 224.015 116.317H227.733V124.579H229.394V126.785H227.733V129H225.202V126.785ZM221.378 124.658H225.263V118.383H225.123C223.769 120.404 222.521 122.449 221.378 124.518V124.658ZM236.548 129.325C234.978 129.325 233.748 128.736 232.857 127.559C231.96 126.375 231.512 124.734 231.512 122.637C231.512 120.545 231.96 118.913 232.857 117.741C233.748 116.575 234.978 115.992 236.548 115.992C238.113 115.992 239.34 116.575 240.231 117.741C241.133 118.919 241.584 120.554 241.584 122.646C241.584 124.737 241.136 126.375 240.24 127.559C239.349 128.736 238.119 129.325 236.548 129.325ZM236.548 127.163C237.287 127.163 237.861 126.779 238.271 126.012C238.687 125.227 238.895 124.102 238.895 122.637C238.895 121.184 238.684 120.067 238.262 119.288C237.858 118.538 237.287 118.163 236.548 118.163C235.816 118.163 235.245 118.541 234.834 119.297C234.413 120.076 234.202 121.189 234.202 122.637C234.202 124.096 234.413 125.221 234.834 126.012C235.239 126.779 235.81 127.163 236.548 127.163ZM248.695 129V119.306H252.008L254.548 125.511H254.707L257.255 119.306H260.525V129H258.117V122.575H257.95L255.498 128.455H253.713L251.261 122.575H251.103V129H248.695ZM266.378 124.342C266.291 125.9 266.015 127.055 265.552 127.805C265.019 128.678 264.19 129.114 263.065 129.114C262.749 129.114 262.476 129.076 262.248 129V126.75C262.412 126.791 262.596 126.812 262.801 126.812C263.235 126.812 263.557 126.56 263.768 126.056C263.944 125.646 264.055 125.016 264.102 124.166L264.383 119.306H271.678V129H269.121V121.318H266.581L266.378 124.342Z" fill="white"/>
<path d="M236.235 159.325C234.711 159.325 233.478 158.982 232.535 158.297C231.591 157.611 231.12 156.718 231.12 155.616C231.12 154.819 231.375 154.128 231.884 153.542C232.388 152.95 233.065 152.561 233.915 152.373V152.215C233.223 152.057 232.669 151.726 232.253 151.222C231.837 150.718 231.629 150.129 231.629 149.455C231.629 148.441 232.06 147.612 232.921 146.968C233.789 146.317 234.896 145.992 236.244 145.992C237.585 145.992 238.69 146.317 239.557 146.968C240.418 147.612 240.849 148.441 240.849 149.455C240.849 150.129 240.641 150.718 240.225 151.222C239.815 151.72 239.261 152.051 238.564 152.215V152.373C239.408 152.531 240.087 152.903 240.603 153.489C241.113 154.081 241.368 154.781 241.368 155.59C241.368 156.703 240.893 157.603 239.944 158.288C238.995 158.979 237.758 159.325 236.235 159.325ZM236.235 157.321C236.932 157.321 237.5 157.14 237.94 156.776C238.379 156.413 238.599 155.944 238.599 155.37C238.599 154.79 238.379 154.318 237.94 153.955C237.5 153.592 236.932 153.41 236.235 153.41C235.538 153.41 234.972 153.592 234.539 153.955C234.099 154.318 233.879 154.79 233.879 155.37C233.879 155.944 234.099 156.413 234.539 156.776C234.972 157.14 235.538 157.321 236.235 157.321ZM236.235 151.45C236.821 151.45 237.301 151.286 237.676 150.958C238.045 150.636 238.23 150.22 238.23 149.71C238.23 149.194 238.045 148.775 237.676 148.453C237.301 148.125 236.821 147.961 236.235 147.961C235.649 147.961 235.171 148.125 234.802 148.453C234.433 148.775 234.249 149.194 234.249 149.71C234.249 150.22 234.433 150.636 234.802 150.958C235.171 151.286 235.649 151.45 236.235 151.45ZM248.478 159V149.306H251.792L254.332 155.511H254.49L257.039 149.306H260.308V159H257.9V152.575H257.733L255.281 158.455H253.497L251.044 152.575H250.886V159H248.478ZM266.162 154.342C266.074 155.9 265.798 157.055 265.335 157.805C264.802 158.678 263.973 159.114 262.848 159.114C262.532 159.114 262.259 159.076 262.031 159V156.75C262.195 156.791 262.379 156.812 262.584 156.812C263.018 156.812 263.34 156.56 263.551 156.056C263.727 155.646 263.838 155.016 263.885 154.166L264.167 149.306H271.461V159H268.904V151.318H266.364L266.162 154.342Z" fill="white"/>
<line y1="240.5" x2="310" y2="240.5" stroke="white" stroke-opacity="0.5"/>
<defs>
<filter id="filter0_b" x="-20" y="-20" width="350" height="350" filterUnits="userSpaceOnUse" color-interpolation-filters="sRGB">
<feFlood flood-opacity="0" result="BackgroundImageFix"/>
<feGaussianBlur in="BackgroundImage" stdDeviation="10"/>
<feComposite in2="SourceAlpha" operator="in" result="effect1_backgroundBlur"/>
<feBlend mode="normal" in="SourceGraphic" in2="effect1_backgroundBlur" result="shape"/>
</filter>
</defs>
</svg>
