<svg width="166" height="117" viewBox="0 0 166 117" fill="none" xmlns="http://www.w3.org/2000/svg">
<g filter="url(#filter0_b)">
<rect width="166" height="117" rx="5" fill="white" fill-opacity="0.2"/>
</g>
<path d="M43.6836 16.8027H43.3672L37.1445 21.0918V16.1523L43.7012 11.6348H48.9922V37H43.6836V16.8027ZM62.2285 22.041H65.3223C66.5293 22.041 67.502 21.7188 68.2402 21.0742C68.9902 20.4297 69.3652 19.5918 69.3652 18.5605C69.3652 17.541 68.9961 16.7266 68.2578 16.1172C67.5312 15.5195 66.5469 15.2207 65.3047 15.2207C64.0742 15.2207 63.0781 15.543 62.3164 16.1875C61.5547 16.832 61.1387 17.7051 61.0684 18.8066H56.1641C56.2578 16.4043 57.1367 14.5 58.8008 13.0938C60.4648 11.6875 62.6797 10.9844 65.4453 10.9844C68.0469 10.9844 70.1914 11.623 71.8789 12.9004C73.5547 14.1895 74.3926 15.8301 74.3926 17.8223C74.3926 19.2871 73.9648 20.5469 73.1094 21.6016C72.2656 22.6562 71.1348 23.3301 69.7168 23.623V23.9395C71.4629 24.1387 72.8398 24.7773 73.8477 25.8555C74.8672 26.9453 75.377 28.3223 75.377 29.9863C75.377 32.2129 74.4395 34.0469 72.5645 35.4883C70.6895 36.9297 68.3047 37.6504 65.4102 37.6504C62.5859 37.6504 60.2891 36.9297 58.5195 35.4883C56.75 34.0469 55.8066 32.1309 55.6895 29.7402H60.7695C60.8516 30.8184 61.3145 31.668 62.1582 32.2891C63.002 32.9219 64.1035 33.2383 65.4629 33.2383C66.7871 33.2383 67.8711 32.8984 68.7148 32.2188C69.5469 31.5391 69.9629 30.6602 69.9629 29.582C69.9629 28.4688 69.5527 27.5957 68.7324 26.9629C67.9121 26.3184 66.793 25.9961 65.375 25.9961H62.2285V22.041ZM82.4785 37.4746C81.5527 37.4746 80.7969 37.1875 80.2109 36.6133C79.6484 36.0391 79.3672 35.3066 79.3672 34.416C79.3672 33.5254 79.6484 32.7988 80.2109 32.2363C80.7852 31.6621 81.541 31.375 82.4785 31.375C83.416 31.375 84.1719 31.6621 84.7461 32.2363C85.3086 32.7871 85.5898 33.5137 85.5898 34.416C85.5898 35.3184 85.3086 36.0508 84.7461 36.6133C84.1719 37.1875 83.416 37.4746 82.4785 37.4746ZM99.1953 37.6504C96.0547 37.6504 93.5938 36.4727 91.8125 34.1172C90.0195 31.75 89.123 28.4688 89.123 24.2734C89.123 20.0898 90.0195 16.8262 91.8125 14.4824C93.5938 12.1504 96.0547 10.9844 99.1953 10.9844C102.324 10.9844 104.779 12.1504 106.561 14.4824C108.365 16.8379 109.268 20.1074 109.268 24.291C109.268 28.4746 108.371 31.75 106.578 34.1172C104.797 36.4727 102.336 37.6504 99.1953 37.6504ZM99.1953 33.3262C100.672 33.3262 101.82 32.5586 102.641 31.0234C103.473 29.4531 103.889 27.2031 103.889 24.2734C103.889 21.3672 103.467 19.1348 102.623 17.5762C101.814 16.0762 100.672 15.3262 99.1953 15.3262C97.7305 15.3262 96.5879 16.082 95.7676 17.5938C94.9238 19.1523 94.502 21.3789 94.502 24.2734C94.502 27.1914 94.9238 29.4414 95.7676 31.0234C96.5762 32.5586 97.7188 33.3262 99.1953 33.3262ZM126.002 16.3281V15.9941H113.434V11.6172H131.311V16.0469L120.711 37H115.156L126.002 16.3281Z" fill="white"/>
<path d="M36.1621 54V46.6309H37.5908L40.2295 52.3457H40.3389L42.9844 46.6309H44.3584V54H43.1758V48.7568H43.0459L40.7148 53.7949H39.7988L37.4678 48.7568H37.3379V54H36.1621ZM48.9795 53.0977C49.5856 53.0977 50.0869 52.9222 50.4834 52.5713C50.8844 52.2204 51.085 51.7806 51.085 51.252V50.5752L49.1025 50.7051C48.027 50.778 47.4893 51.179 47.4893 51.9082C47.4893 52.2773 47.6305 52.569 47.9131 52.7832C48.1865 52.9928 48.542 53.0977 48.9795 53.0977ZM48.7607 54.1299C48.0361 54.1299 47.4437 53.9316 46.9834 53.5352C46.5094 53.1341 46.2725 52.6009 46.2725 51.9355C46.2725 51.2793 46.5049 50.7643 46.9697 50.3906C47.4346 50.0169 48.0977 49.805 48.959 49.7549L51.085 49.625V48.9551C51.085 48.0163 50.529 47.5469 49.417 47.5469C48.4827 47.5469 47.929 47.8522 47.7559 48.4629H46.5664C46.6439 47.875 46.9492 47.401 47.4824 47.041C48.0111 46.681 48.6696 46.501 49.458 46.501C50.3512 46.501 51.0439 46.7174 51.5361 47.1504C52.0192 47.5833 52.2607 48.1849 52.2607 48.9551V54H51.1396V52.9131H51.0303C50.5381 53.7243 49.7816 54.1299 48.7607 54.1299ZM59.5752 48.8867C59.4749 48.4993 59.2676 48.1872 58.9531 47.9502C58.6068 47.6904 58.1807 47.5605 57.6748 47.5605C57.014 47.5605 56.4876 47.8066 56.0957 48.2988C55.7083 48.791 55.5146 49.4541 55.5146 50.2881C55.5146 51.1357 55.7106 51.8125 56.1025 52.3184C56.4945 52.8197 57.0186 53.0703 57.6748 53.0703C58.7139 53.0703 59.3473 52.6396 59.5752 51.7783H60.7646C60.6553 52.4756 60.3363 53.0361 59.8076 53.46C59.2516 53.9066 58.543 54.1299 57.6816 54.1299C56.6471 54.1299 55.8245 53.7835 55.2139 53.0908C54.6032 52.3936 54.2979 51.4593 54.2979 50.2881C54.2979 49.1396 54.6032 48.2214 55.2139 47.5332C55.8245 46.8451 56.6449 46.501 57.6748 46.501C58.5361 46.501 59.2493 46.7334 59.8145 47.1982C60.3385 47.6357 60.6553 48.1986 60.7646 48.8867H59.5752ZM67.6279 47.6152H65.2354V54H64.0596V47.6152H61.667V46.6309H67.6279V47.6152ZM72.0166 47.54C71.4287 47.54 70.9456 47.7383 70.5674 48.1348C70.1891 48.5312 69.9772 49.0553 69.9316 49.707H73.9922C73.9785 49.0553 73.7917 48.5312 73.4316 48.1348C73.0716 47.7383 72.5999 47.54 72.0166 47.54ZM75.1338 52.0928C74.9561 52.7308 74.596 53.2275 74.0537 53.583C73.5068 53.9476 72.8324 54.1299 72.0303 54.1299C71.0094 54.1299 70.2005 53.7858 69.6035 53.0977C69.0065 52.4141 68.708 51.4889 68.708 50.3223C68.708 49.1602 69.0088 48.2327 69.6104 47.54C70.2119 46.8473 71.0186 46.501 72.0303 46.501C73.0238 46.501 73.8053 46.8314 74.375 47.4922C74.9447 48.153 75.2295 49.0576 75.2295 50.2061V50.6572H69.9316V50.7119C69.9635 51.4411 70.1686 52.0199 70.5469 52.4482C70.9297 52.8766 71.4333 53.0908 72.0576 53.0908C73.0101 53.0908 73.6436 52.7581 73.958 52.0928H75.1338ZM80.7939 46.501C81.7327 46.501 82.4847 46.8473 83.0498 47.54C83.6104 48.2327 83.8906 49.1579 83.8906 50.3154C83.8906 51.4684 83.6081 52.3913 83.043 53.084C82.4779 53.7812 81.7282 54.1299 80.7939 54.1299C79.6865 54.1299 78.9186 53.7174 78.4902 52.8926H78.3809V56.4609H77.2051V46.6309H78.3262V47.8613H78.4355C78.6725 47.4375 78.9984 47.1048 79.4131 46.8633C79.8324 46.6217 80.2926 46.501 80.7939 46.501ZM80.5137 53.0703C81.1882 53.0703 81.7168 52.8265 82.0996 52.3389C82.4824 51.8512 82.6738 51.1768 82.6738 50.3154C82.6738 49.4541 82.4824 48.7796 82.0996 48.292C81.7214 47.8044 81.195 47.5605 80.5205 47.5605C79.8551 47.5605 79.3265 47.8066 78.9346 48.2988C78.5426 48.7956 78.3467 49.4678 78.3467 50.3154C78.3467 51.1585 78.5426 51.8285 78.9346 52.3252C79.3219 52.8219 79.8483 53.0703 80.5137 53.0703ZM85.7637 50.5889V49.4746H90.248V50.5889H85.7637ZM93.9736 49.7139L96.8926 46.6309H98.3213L94.9443 50.1035L98.4512 54H96.9268L93.9736 50.6436H93.6523V54H92.4766V46.6309H93.6523V49.7139H93.9736ZM101.862 50.7666C101.78 51.8604 101.591 52.6624 101.295 53.1729C100.953 53.7653 100.42 54.0615 99.6953 54.0615C99.5267 54.0615 99.3831 54.0365 99.2646 53.9863V52.9062C99.374 52.9427 99.4971 52.9609 99.6338 52.9609C99.9801 52.9609 100.244 52.7604 100.427 52.3594C100.586 52.0085 100.691 51.4684 100.741 50.7393L101.028 46.6309H105.848V54H104.672V47.6152H102.095L101.862 50.7666ZM110.462 53.0977C111.068 53.0977 111.569 52.9222 111.966 52.5713C112.367 52.2204 112.567 51.7806 112.567 51.252V50.5752L110.585 50.7051C109.509 50.778 108.972 51.179 108.972 51.9082C108.972 52.2773 109.113 52.569 109.396 52.7832C109.669 52.9928 110.024 53.0977 110.462 53.0977ZM110.243 54.1299C109.519 54.1299 108.926 53.9316 108.466 53.5352C107.992 53.1341 107.755 52.6009 107.755 51.9355C107.755 51.2793 107.987 50.7643 108.452 50.3906C108.917 50.0169 109.58 49.805 110.441 49.7549L112.567 49.625V48.9551C112.567 48.0163 112.011 47.5469 110.899 47.5469C109.965 47.5469 109.411 47.8522 109.238 48.4629H108.049C108.126 47.875 108.432 47.401 108.965 47.041C109.493 46.681 110.152 46.501 110.94 46.501C111.834 46.501 112.526 46.7174 113.019 47.1504C113.502 47.5833 113.743 48.1849 113.743 48.9551V54H112.622V52.9131H112.513C112.021 53.7243 111.264 54.1299 110.243 54.1299ZM121.058 48.8867C120.957 48.4993 120.75 48.1872 120.436 47.9502C120.089 47.6904 119.663 47.5605 119.157 47.5605C118.496 47.5605 117.97 47.8066 117.578 48.2988C117.191 48.791 116.997 49.4541 116.997 50.2881C116.997 51.1357 117.193 51.8125 117.585 52.3184C117.977 52.8197 118.501 53.0703 119.157 53.0703C120.196 53.0703 120.83 52.6396 121.058 51.7783H122.247C122.138 52.4756 121.819 53.0361 121.29 53.46C120.734 53.9066 120.025 54.1299 119.164 54.1299C118.13 54.1299 117.307 53.7835 116.696 53.0908C116.086 52.3936 115.78 51.4593 115.78 50.2881C115.78 49.1396 116.086 48.2214 116.696 47.5332C117.307 46.8451 118.127 46.501 119.157 46.501C120.019 46.501 120.732 46.7334 121.297 47.1982C121.821 47.6357 122.138 48.1986 122.247 48.8867H121.058ZM129.028 48.8867C128.928 48.4993 128.721 48.1872 128.406 47.9502C128.06 47.6904 127.634 47.5605 127.128 47.5605C126.467 47.5605 125.941 47.8066 125.549 48.2988C125.161 48.791 124.968 49.4541 124.968 50.2881C124.968 51.1357 125.164 51.8125 125.556 52.3184C125.948 52.8197 126.472 53.0703 127.128 53.0703C128.167 53.0703 128.8 52.6396 129.028 51.7783H130.218C130.108 52.4756 129.789 53.0361 129.261 53.46C128.705 53.9066 127.996 54.1299 127.135 54.1299C126.1 54.1299 125.278 53.7835 124.667 53.0908C124.056 52.3936 123.751 51.4593 123.751 50.2881C123.751 49.1396 124.056 48.2214 124.667 47.5332C125.278 46.8451 126.098 46.501 127.128 46.501C127.989 46.501 128.702 46.7334 129.268 47.1982C129.792 47.6357 130.108 48.1986 130.218 48.8867H129.028Z" fill="white"/>
<defs>
<filter id="filter0_b" x="-20" y="-20" width="206" height="157" filterUnits="userSpaceOnUse" color-interpolation-filters="sRGB">
<feFlood flood-opacity="0" result="BackgroundImageFix"/>
<feGaussianBlur in="BackgroundImage" stdDeviation="10"/>
<feComposite in2="SourceAlpha" operator="in" result="effect1_backgroundBlur"/>
<feBlend mode="normal" in="SourceGraphic" in2="effect1_backgroundBlur" result="shape"/>
</filter>
</defs>
</svg>
