<svg width="166" height="117" viewBox="0 0 166 117" fill="none" xmlns="http://www.w3.org/2000/svg">
<g filter="url(#filter0_b)">
<rect width="166" height="117" rx="5" fill="white" fill-opacity="0.2"/>
</g>
<path d="M46.3047 37.6504C43.1641 37.6504 40.7031 36.4727 38.9219 34.1172C37.1289 31.75 36.2324 28.4688 36.2324 24.2734C36.2324 20.0898 37.1289 16.8262 38.9219 14.4824C40.7031 12.1504 43.1641 10.9844 46.3047 10.9844C49.4336 10.9844 51.8887 12.1504 53.6699 14.4824C55.4746 16.8379 56.377 20.1074 56.377 24.291C56.377 28.4746 55.4805 31.75 53.6875 34.1172C51.9062 36.4727 49.4453 37.6504 46.3047 37.6504ZM46.3047 33.3262C47.7812 33.3262 48.9297 32.5586 49.75 31.0234C50.582 29.4531 50.998 27.2031 50.998 24.2734C50.998 21.3672 50.5762 19.1348 49.7324 17.5762C48.9238 16.0762 47.7812 15.3262 46.3047 15.3262C44.8398 15.3262 43.6973 16.082 42.877 17.5938C42.0332 19.1523 41.6113 21.3789 41.6113 24.2734C41.6113 27.1914 42.0332 29.4414 42.877 31.0234C43.6855 32.5586 44.8281 33.3262 46.3047 33.3262ZM67.0996 22.041H70.1934C71.4004 22.041 72.373 21.7188 73.1113 21.0742C73.8613 20.4297 74.2363 19.5918 74.2363 18.5605C74.2363 17.541 73.8672 16.7266 73.1289 16.1172C72.4023 15.5195 71.418 15.2207 70.1758 15.2207C68.9453 15.2207 67.9492 15.543 67.1875 16.1875C66.4258 16.832 66.0098 17.7051 65.9395 18.8066H61.0352C61.1289 16.4043 62.0078 14.5 63.6719 13.0938C65.3359 11.6875 67.5508 10.9844 70.3164 10.9844C72.918 10.9844 75.0625 11.623 76.75 12.9004C78.4258 14.1895 79.2637 15.8301 79.2637 17.8223C79.2637 19.2871 78.8359 20.5469 77.9805 21.6016C77.1367 22.6562 76.0059 23.3301 74.5879 23.623V23.9395C76.334 24.1387 77.7109 24.7773 78.7188 25.8555C79.7383 26.9453 80.248 28.3223 80.248 29.9863C80.248 32.2129 79.3105 34.0469 77.4355 35.4883C75.5605 36.9297 73.1758 37.6504 70.2812 37.6504C67.457 37.6504 65.1602 36.9297 63.3906 35.4883C61.6211 34.0469 60.6777 32.1309 60.5605 29.7402H65.6406C65.7227 30.8184 66.1855 31.668 67.0293 32.2891C67.873 32.9219 68.9746 33.2383 70.334 33.2383C71.6582 33.2383 72.7422 32.8984 73.5859 32.2188C74.418 31.5391 74.834 30.6602 74.834 29.582C74.834 28.4688 74.4238 27.5957 73.6035 26.9629C72.7832 26.3184 71.6641 25.9961 70.2461 25.9961H67.0996V22.041ZM87.3496 37.4746C86.4238 37.4746 85.668 37.1875 85.082 36.6133C84.5195 36.0391 84.2383 35.3066 84.2383 34.416C84.2383 33.5254 84.5195 32.7988 85.082 32.2363C85.6562 31.6621 86.4121 31.375 87.3496 31.375C88.2871 31.375 89.043 31.6621 89.6172 32.2363C90.1797 32.7871 90.4609 33.5137 90.4609 34.416C90.4609 35.3184 90.1797 36.0508 89.6172 36.6133C89.043 37.1875 88.2871 37.4746 87.3496 37.4746ZM104.066 37.6504C100.926 37.6504 98.4648 36.4727 96.6836 34.1172C94.8906 31.75 93.9941 28.4688 93.9941 24.2734C93.9941 20.0898 94.8906 16.8262 96.6836 14.4824C98.4648 12.1504 100.926 10.9844 104.066 10.9844C107.195 10.9844 109.65 12.1504 111.432 14.4824C113.236 16.8379 114.139 20.1074 114.139 24.291C114.139 28.4746 113.242 31.75 111.449 34.1172C109.668 36.4727 107.207 37.6504 104.066 37.6504ZM104.066 33.3262C105.543 33.3262 106.691 32.5586 107.512 31.0234C108.344 29.4531 108.76 27.2031 108.76 24.2734C108.76 21.3672 108.338 19.1348 107.494 17.5762C106.686 16.0762 105.543 15.3262 104.066 15.3262C102.602 15.3262 101.459 16.082 100.639 17.5938C99.7949 19.1523 99.373 21.3789 99.373 24.2734C99.373 27.1914 99.7949 29.4414 100.639 31.0234C101.447 32.5586 102.59 33.3262 104.066 33.3262ZM130.873 16.3281V15.9941H118.305V11.6172H136.182V16.0469L125.582 37H120.027L130.873 16.3281Z" fill="white"/>
<path d="M41.0156 47.6152H37.3379V54H36.1621V46.6309H42.1914V54H41.0156V47.6152ZM46.8057 53.0977C47.4118 53.0977 47.9131 52.9222 48.3096 52.5713C48.7106 52.2204 48.9111 51.7806 48.9111 51.252V50.5752L46.9287 50.7051C45.8532 50.778 45.3154 51.179 45.3154 51.9082C45.3154 52.2773 45.4567 52.569 45.7393 52.7832C46.0127 52.9928 46.3682 53.0977 46.8057 53.0977ZM46.5869 54.1299C45.8623 54.1299 45.2699 53.9316 44.8096 53.5352C44.3356 53.1341 44.0986 52.6009 44.0986 51.9355C44.0986 51.2793 44.3311 50.7643 44.7959 50.3906C45.2607 50.0169 45.9238 49.805 46.7852 49.7549L48.9111 49.625V48.9551C48.9111 48.0163 48.3551 47.5469 47.2432 47.5469C46.3089 47.5469 45.7552 47.8522 45.582 48.4629H44.3926C44.4701 47.875 44.7754 47.401 45.3086 47.041C45.8372 46.681 46.4958 46.501 47.2842 46.501C48.1774 46.501 48.8701 46.7174 49.3623 47.1504C49.8454 47.5833 50.0869 48.1849 50.0869 48.9551V54H48.9658V52.9131H48.8564C48.3643 53.7243 47.6077 54.1299 46.5869 54.1299ZM57.6885 47.6152H55.2959V54H54.1201V47.6152H51.7275V46.6309H57.6885V47.6152ZM59.4043 54V46.6309H60.5801V52.127H60.6895L64.4287 46.6309H65.6045V54H64.4287V48.5039H64.3193L60.5801 54H59.4043ZM76.6172 50.1924L79.0166 53.0088H77.6152L75.2227 50.165V50.1104L77.6221 47.2666H79.0166L76.6172 50.083V50.1924ZM73.3428 50.1924L75.7422 53.0088H74.3477L71.9551 50.165V50.1104L74.3477 47.2666H75.7422L73.3428 50.083V50.1924ZM85.3398 50.377V47.6152H83.9521C83.4645 47.6152 83.0771 47.7406 82.79 47.9912C82.5029 48.2464 82.3594 48.5973 82.3594 49.0439C82.3594 49.4359 82.5052 49.7549 82.7969 50.001C83.0885 50.2516 83.4736 50.377 83.9521 50.377H85.3398ZM85.3398 51.3613H84.0752L82.1953 54H80.7939L82.8516 51.1426C82.332 50.9967 81.9242 50.7415 81.6279 50.377C81.3317 50.0124 81.1836 49.5771 81.1836 49.0713C81.1836 48.3148 81.4342 47.7178 81.9355 47.2803C82.4323 46.8473 83.1045 46.6309 83.9521 46.6309H86.5156V54H85.3398V51.3613ZM92.4424 46.501C93.3812 46.501 94.1331 46.8473 94.6982 47.54C95.2588 48.2327 95.5391 49.1579 95.5391 50.3154C95.5391 51.4684 95.2565 52.3913 94.6914 53.084C94.1263 53.7812 93.3766 54.1299 92.4424 54.1299C91.335 54.1299 90.5671 53.7174 90.1387 52.8926H90.0293V56.4609H88.8535V46.6309H89.9746V47.8613H90.084C90.321 47.4375 90.6468 47.1048 91.0615 46.8633C91.4808 46.6217 91.9411 46.501 92.4424 46.501ZM92.1621 53.0703C92.8366 53.0703 93.3652 52.8265 93.748 52.3389C94.1309 51.8512 94.3223 51.1768 94.3223 50.3154C94.3223 49.4541 94.1309 48.7796 93.748 48.292C93.3698 47.8044 92.8434 47.5605 92.1689 47.5605C91.5036 47.5605 90.9749 47.8066 90.583 48.2988C90.1911 48.7956 89.9951 49.4678 89.9951 50.3154C89.9951 51.1585 90.1911 51.8285 90.583 52.3252C90.9704 52.8219 91.4967 53.0703 92.1621 53.0703ZM101.828 54V50.6777H101.719C101.158 51.1426 100.516 51.375 99.791 51.375C98.9935 51.375 98.3669 51.1312 97.9111 50.6436C97.4691 50.1696 97.248 49.5339 97.248 48.7363V46.6309H98.4238V48.7363C98.4238 49.2285 98.5492 49.6159 98.7998 49.8984C99.0596 50.1855 99.4196 50.3291 99.8799 50.3291C100.741 50.3291 101.391 50.0192 101.828 49.3994V46.6309H103.004V54H101.828ZM108.288 47.54C107.7 47.54 107.217 47.7383 106.839 48.1348C106.461 48.5312 106.249 49.0553 106.203 49.707H110.264C110.25 49.0553 110.063 48.5312 109.703 48.1348C109.343 47.7383 108.871 47.54 108.288 47.54ZM111.405 52.0928C111.228 52.7308 110.868 53.2275 110.325 53.583C109.778 53.9476 109.104 54.1299 108.302 54.1299C107.281 54.1299 106.472 53.7858 105.875 53.0977C105.278 52.4141 104.979 51.4889 104.979 50.3223C104.979 49.1602 105.28 48.2327 105.882 47.54C106.483 46.8473 107.29 46.501 108.302 46.501C109.295 46.501 110.077 46.8314 110.646 47.4922C111.216 48.153 111.501 49.0576 111.501 50.2061V50.6572H106.203V50.7119C106.235 51.4411 106.44 52.0199 106.818 52.4482C107.201 52.8766 107.705 53.0908 108.329 53.0908C109.282 53.0908 109.915 52.7581 110.229 52.0928H111.405ZM113.531 47.2666H114.926L117.325 50.1104V50.165L114.933 53.0088H113.531L115.931 50.1924V50.083L113.531 47.2666ZM116.806 47.2666H118.2L120.593 50.1104V50.165L118.2 53.0088H116.806L119.205 50.1924V50.083L116.806 47.2666Z" fill="white"/>
<defs>
<filter id="filter0_b" x="-20" y="-20" width="206" height="157" filterUnits="userSpaceOnUse" color-interpolation-filters="sRGB">
<feFlood flood-opacity="0" result="BackgroundImageFix"/>
<feGaussianBlur in="BackgroundImage" stdDeviation="10"/>
<feComposite in2="SourceAlpha" operator="in" result="effect1_backgroundBlur"/>
<feBlend mode="normal" in="SourceGraphic" in2="effect1_backgroundBlur" result="shape"/>
</filter>
</defs>
</svg>
