<svg width="166" height="117" viewBox="0 0 166 117" fill="none" xmlns="http://www.w3.org/2000/svg">
<g filter="url(#filter0_b)">
<rect width="166" height="117" rx="5" fill="white" fill-opacity="0.2"/>
</g>
<path d="M42.3047 37.6504C39.1641 37.6504 36.7031 36.4727 34.9219 34.1172C33.1289 31.75 32.2324 28.4688 32.2324 24.2734C32.2324 20.0898 33.1289 16.8262 34.9219 14.4824C36.7031 12.1504 39.1641 10.9844 42.3047 10.9844C45.4336 10.9844 47.8887 12.1504 49.6699 14.4824C51.4746 16.8379 52.377 20.1074 52.377 24.291C52.377 28.4746 51.4805 31.75 49.6875 34.1172C47.9062 36.4727 45.4453 37.6504 42.3047 37.6504ZM42.3047 33.3262C43.7812 33.3262 44.9297 32.5586 45.75 31.0234C46.582 29.4531 46.998 27.2031 46.998 24.2734C46.998 21.3672 46.5762 19.1348 45.7324 17.5762C44.9238 16.0762 43.7812 15.3262 42.3047 15.3262C40.8398 15.3262 39.6973 16.082 38.877 17.5938C38.0332 19.1523 37.6113 21.3789 37.6113 24.2734C37.6113 27.1914 38.0332 29.4414 38.877 31.0234C39.6855 32.5586 40.8281 33.3262 42.3047 33.3262ZM67.3184 37.6504C63.5332 37.6504 60.7441 36.1211 58.9512 33.0625C57.5332 30.8828 56.8242 28.0293 56.8242 24.502C56.8242 20.2949 57.7617 16.9902 59.6367 14.5879C61.5117 12.1855 64.1016 10.9844 67.4062 10.9844C69.8203 10.9844 71.877 11.6348 73.5762 12.9355C75.2871 14.2363 76.3242 15.9473 76.6875 18.0684H71.4316C71.1855 17.2363 70.6934 16.5742 69.9551 16.082C69.2285 15.5898 68.3672 15.3438 67.3711 15.3438C65.6367 15.3438 64.2773 16.123 63.293 17.6816C62.2969 19.2285 61.8281 21.3203 61.8867 23.957H62.2031C63.4102 21.4609 65.5664 20.2129 68.6719 20.2129C71.0742 20.2129 73.0664 21.0098 74.6484 22.6035C76.2305 24.1973 77.0215 26.207 77.0215 28.6328C77.0215 31.2695 76.1133 33.4316 74.2969 35.1191C72.4805 36.8066 70.1543 37.6504 67.3184 37.6504ZM67.2656 33.291C68.5664 33.291 69.6621 32.8574 70.5527 31.9902C71.4316 31.1348 71.8711 30.0684 71.8711 28.791C71.8711 27.502 71.4375 26.4297 70.5703 25.5742C69.7031 24.7305 68.6074 24.3086 67.2832 24.3086C65.959 24.3086 64.8574 24.7305 63.9785 25.5742C63.1113 26.418 62.6777 27.4727 62.6777 28.7383C62.6777 30.0273 63.1172 31.1113 63.9961 31.9902C64.875 32.8574 65.9648 33.291 67.2656 33.291ZM84.2988 37.4746C83.373 37.4746 82.6172 37.1875 82.0312 36.6133C81.4688 36.0391 81.1875 35.3066 81.1875 34.416C81.1875 33.5254 81.4688 32.7988 82.0312 32.2363C82.6055 31.6621 83.3613 31.375 84.2988 31.375C85.2363 31.375 85.9922 31.6621 86.5664 32.2363C87.1289 32.7871 87.4102 33.5137 87.4102 34.416C87.4102 35.3184 87.1289 36.0508 86.5664 36.6133C85.9922 37.1875 85.2363 37.4746 84.2988 37.4746ZM101.016 37.6504C97.875 37.6504 95.4141 36.4727 93.6328 34.1172C91.8398 31.75 90.9434 28.4688 90.9434 24.2734C90.9434 20.0898 91.8398 16.8262 93.6328 14.4824C95.4141 12.1504 97.875 10.9844 101.016 10.9844C104.145 10.9844 106.6 12.1504 108.381 14.4824C110.186 16.8379 111.088 20.1074 111.088 24.291C111.088 28.4746 110.191 31.75 108.398 34.1172C106.617 36.4727 104.156 37.6504 101.016 37.6504ZM101.016 33.3262C102.492 33.3262 103.641 32.5586 104.461 31.0234C105.293 29.4531 105.709 27.2031 105.709 24.2734C105.709 21.3672 105.287 19.1348 104.443 17.5762C103.635 16.0762 102.492 15.3262 101.016 15.3262C99.5508 15.3262 98.4082 16.082 97.5879 17.5938C96.7441 19.1523 96.3223 21.3789 96.3223 24.2734C96.3223 27.1914 96.7441 29.4414 97.5879 31.0234C98.3965 32.5586 99.5391 33.3262 101.016 33.3262ZM127.822 16.3281V15.9941H115.254V11.6172H133.131V16.0469L122.531 37H116.977L127.822 16.3281Z" fill="white"/>
<path d="M35.1621 54V46.6309H36.5908L39.2295 52.3457H39.3389L41.9844 46.6309H43.3584V54H42.1758V48.7568H42.0459L39.7148 53.7949H38.7988L36.4678 48.7568H36.3379V54H35.1621ZM52.0127 46.6309H53.1885V54H52.0127V46.6309ZM46.9473 49.9805V53.0156H48.335C48.818 53.0156 49.2054 52.8766 49.4971 52.5986C49.7842 52.3252 49.9277 51.9583 49.9277 51.498C49.9277 51.0378 49.7819 50.6686 49.4902 50.3906C49.2031 50.1172 48.818 49.9805 48.335 49.9805H46.9473ZM45.7715 46.6309H46.9473V48.9961H48.335C49.1781 48.9961 49.8503 49.2217 50.3516 49.6729C50.8529 50.124 51.1035 50.7324 51.1035 51.498C51.1035 52.2637 50.8529 52.8721 50.3516 53.3232C49.8503 53.7744 49.1781 54 48.335 54H45.7715V46.6309ZM62.5195 53.0703C63.2168 53.0703 63.7546 52.8288 64.1328 52.3457C64.5111 51.8672 64.7002 51.1904 64.7002 50.3154C64.7002 49.4404 64.5111 48.7614 64.1328 48.2783C63.7546 47.7998 63.2168 47.5605 62.5195 47.5605C61.8223 47.5605 61.2845 47.7998 60.9062 48.2783C60.528 48.7614 60.3389 49.4404 60.3389 50.3154C60.3389 51.1904 60.528 51.8672 60.9062 52.3457C61.2845 52.8288 61.8223 53.0703 62.5195 53.0703ZM62.5195 54.1299C61.4714 54.1299 60.6419 53.7904 60.0312 53.1113C59.4251 52.4277 59.1221 51.4958 59.1221 50.3154C59.1221 49.1305 59.4251 48.1986 60.0312 47.5195C60.6374 46.8405 61.4668 46.501 62.5195 46.501C63.5723 46.501 64.4017 46.8405 65.0078 47.5195C65.6139 48.1986 65.917 49.1305 65.917 50.3154C65.917 51.4958 65.6139 52.4277 65.0078 53.1113C64.3971 53.7904 63.5677 54.1299 62.5195 54.1299ZM72.1992 54V50.6777H72.0898C71.5293 51.1426 70.8867 51.375 70.1621 51.375C69.3646 51.375 68.738 51.1312 68.2822 50.6436C67.8402 50.1696 67.6191 49.5339 67.6191 48.7363V46.6309H68.7949V48.7363C68.7949 49.2285 68.9202 49.6159 69.1709 49.8984C69.4307 50.1855 69.7907 50.3291 70.251 50.3291C71.1123 50.3291 71.7617 50.0192 72.1992 49.3994V46.6309H73.375V54H72.1992ZM78.6592 47.54C78.0713 47.54 77.5882 47.7383 77.21 48.1348C76.8317 48.5312 76.6198 49.0553 76.5742 49.707H80.6348C80.6211 49.0553 80.4342 48.5312 80.0742 48.1348C79.7142 47.7383 79.2425 47.54 78.6592 47.54ZM81.7764 52.0928C81.5986 52.7308 81.2386 53.2275 80.6963 53.583C80.1494 53.9476 79.4749 54.1299 78.6729 54.1299C77.652 54.1299 76.8431 53.7858 76.2461 53.0977C75.6491 52.4141 75.3506 51.4889 75.3506 50.3223C75.3506 49.1602 75.6514 48.2327 76.2529 47.54C76.8545 46.8473 77.6611 46.501 78.6729 46.501C79.6663 46.501 80.4479 46.8314 81.0176 47.4922C81.5872 48.153 81.8721 49.0576 81.8721 50.2061V50.6572H76.5742V50.7119C76.6061 51.4411 76.8112 52.0199 77.1895 52.4482C77.5723 52.8766 78.0758 53.0908 78.7002 53.0908C79.6527 53.0908 80.2861 52.7581 80.6006 52.0928H81.7764ZM83.8477 46.6309H85.0234V49.6797H88.7695V46.6309H89.9453V54H88.7695V50.6641H85.0234V54H83.8477V46.6309ZM93.459 49.9805V53.0156H94.8467C95.3298 53.0156 95.7171 52.8766 96.0088 52.5986C96.2959 52.3252 96.4395 51.9583 96.4395 51.498C96.4395 51.0378 96.2936 50.6686 96.002 50.3906C95.7148 50.1172 95.3298 49.9805 94.8467 49.9805H93.459ZM92.2832 46.6309H93.459V48.9961H94.8467C95.6898 48.9961 96.362 49.2217 96.8633 49.6729C97.3646 50.124 97.6152 50.7324 97.6152 51.498C97.6152 52.2637 97.3646 52.8721 96.8633 53.3232C96.362 53.7744 95.6898 54 94.8467 54H92.2832V46.6309ZM39.0859 67.377V64.6152H37.6982C37.2106 64.6152 36.8232 64.7406 36.5361 64.9912C36.249 65.2464 36.1055 65.5973 36.1055 66.0439C36.1055 66.4359 36.2513 66.7549 36.543 67.001C36.8346 67.2516 37.2197 67.377 37.6982 67.377H39.0859ZM39.0859 68.3613H37.8213L35.9414 71H34.54L36.5977 68.1426C36.0781 67.9967 35.6702 67.7415 35.374 67.377C35.0778 67.0124 34.9297 66.5771 34.9297 66.0713C34.9297 65.3148 35.1803 64.7178 35.6816 64.2803C36.1784 63.8473 36.8506 63.6309 37.6982 63.6309H40.2617V71H39.0859V68.3613ZM47.2891 64.6152H44.4932L44.2607 67.7666C44.1833 68.7601 43.9805 69.4733 43.6523 69.9062V70.0156H47.2891V64.6152ZM41.6631 72.9482V70.0156H42.2783C42.7796 69.6875 43.0713 68.9287 43.1533 67.7393L43.4404 63.6309H48.4648V70.0156H49.6406V72.9482H48.5332V71H42.7705V72.9482H41.6631ZM54.2207 70.0703C54.918 70.0703 55.4557 69.8288 55.834 69.3457C56.2122 68.8672 56.4014 68.1904 56.4014 67.3154C56.4014 66.4404 56.2122 65.7614 55.834 65.2783C55.4557 64.7998 54.918 64.5605 54.2207 64.5605C53.5234 64.5605 52.9857 64.7998 52.6074 65.2783C52.2292 65.7614 52.04 66.4404 52.04 67.3154C52.04 68.1904 52.2292 68.8672 52.6074 69.3457C52.9857 69.8288 53.5234 70.0703 54.2207 70.0703ZM54.2207 71.1299C53.1725 71.1299 52.3431 70.7904 51.7324 70.1113C51.1263 69.4277 50.8232 68.4958 50.8232 67.3154C50.8232 66.1305 51.1263 65.1986 51.7324 64.5195C52.3385 63.8405 53.168 63.501 54.2207 63.501C55.2734 63.501 56.1029 63.8405 56.709 64.5195C57.3151 65.1986 57.6182 66.1305 57.6182 67.3154C57.6182 68.4958 57.3151 69.4277 56.709 70.1113C56.0983 70.7904 55.2689 71.1299 54.2207 71.1299ZM60.7695 64.6152V66.6934H62.4102C63.3353 66.6934 63.7979 66.3424 63.7979 65.6406C63.7979 64.957 63.3991 64.6152 62.6016 64.6152H60.7695ZM60.7695 67.6777V70.0156H62.7383C63.6589 70.0156 64.1191 69.6305 64.1191 68.8604C64.1191 68.0719 63.5837 67.6777 62.5127 67.6777H60.7695ZM59.5938 63.6309H62.752C63.4401 63.6309 63.9824 63.8018 64.3789 64.1436C64.7663 64.4808 64.96 64.9388 64.96 65.5176C64.96 65.8822 64.846 66.2126 64.6182 66.5088C64.3857 66.8096 64.0986 66.9964 63.7568 67.0693V67.1787C64.2217 67.2425 64.5931 67.4316 64.8711 67.7461C65.1491 68.056 65.2881 68.4342 65.2881 68.8809C65.2881 69.528 65.0671 70.0407 64.625 70.4189C64.1738 70.8063 63.554 71 62.7656 71H59.5938V63.6309ZM67.3047 71V63.6309H68.4805V69.127H68.5898L72.3291 63.6309H73.5049V71H72.3291V65.5039H72.2197L68.4805 71H67.3047ZM81.1885 64.6152H78.7959V71H77.6201V64.6152H75.2275V63.6309H81.1885V64.6152ZM89.2139 63.6309H90.3896V71H89.2139V63.6309ZM84.1484 66.9805V70.0156H85.5361C86.0192 70.0156 86.4066 69.8766 86.6982 69.5986C86.9854 69.3252 87.1289 68.9583 87.1289 68.498C87.1289 68.0378 86.9831 67.6686 86.6914 67.3906C86.4043 67.1172 86.0192 66.9805 85.5361 66.9805H84.1484ZM82.9727 63.6309H84.1484V65.9961H85.5361C86.3792 65.9961 87.0514 66.2217 87.5527 66.6729C88.054 67.124 88.3047 67.7324 88.3047 68.498C88.3047 69.2637 88.054 69.8721 87.5527 70.3232C87.0514 70.7744 86.3792 71 85.5361 71H82.9727V63.6309Z" fill="white"/>
<defs>
<filter id="filter0_b" x="-20" y="-20" width="206" height="157" filterUnits="userSpaceOnUse" color-interpolation-filters="sRGB">
<feFlood flood-opacity="0" result="BackgroundImageFix"/>
<feGaussianBlur in="BackgroundImage" stdDeviation="10"/>
<feComposite in2="SourceAlpha" operator="in" result="effect1_backgroundBlur"/>
<feBlend mode="normal" in="SourceGraphic" in2="effect1_backgroundBlur" result="shape"/>
</filter>
</defs>
</svg>
