<svg width="166" height="117" viewBox="0 0 166 117" fill="none" xmlns="http://www.w3.org/2000/svg">
<g filter="url(#filter0_b)">
<rect width="166" height="117" rx="5" fill="white" fill-opacity="0.2"/>
</g>
<path d="M44.6836 16.8027H44.3672L38.1445 21.0918V16.1523L44.7012 11.6348H49.9922V37H44.6836V16.8027ZM68.959 16.3281V15.9941H56.3906V11.6172H74.2676V16.0469L63.668 37H58.1133L68.959 16.3281ZM77.6777 37.4746C76.752 37.4746 75.9961 37.1875 75.4102 36.6133C74.8477 36.0391 74.5664 35.3066 74.5664 34.416C74.5664 33.5254 74.8477 32.7988 75.4102 32.2363C75.9844 31.6621 76.7402 31.375 77.6777 31.375C78.6152 31.375 79.3711 31.6621 79.9453 32.2363C80.5078 32.7871 80.7891 33.5137 80.7891 34.416C80.7891 35.3184 80.5078 36.0508 79.9453 36.6133C79.3711 37.1875 78.6152 37.4746 77.6777 37.4746ZM94.3945 37.6504C91.2539 37.6504 88.793 36.4727 87.0117 34.1172C85.2188 31.75 84.3223 28.4688 84.3223 24.2734C84.3223 20.0898 85.2188 16.8262 87.0117 14.4824C88.793 12.1504 91.2539 10.9844 94.3945 10.9844C97.5234 10.9844 99.9785 12.1504 101.76 14.4824C103.564 16.8379 104.467 20.1074 104.467 24.291C104.467 28.4746 103.57 31.75 101.777 34.1172C99.9961 36.4727 97.5352 37.6504 94.3945 37.6504ZM94.3945 33.3262C95.8711 33.3262 97.0195 32.5586 97.8398 31.0234C98.6719 29.4531 99.0879 27.2031 99.0879 24.2734C99.0879 21.3672 98.666 19.1348 97.8223 17.5762C97.0137 16.0762 95.8711 15.3262 94.3945 15.3262C92.9297 15.3262 91.7871 16.082 90.9668 17.5938C90.123 19.1523 89.7012 21.3789 89.7012 24.2734C89.7012 27.1914 90.123 29.4414 90.9668 31.0234C91.7754 32.5586 92.918 33.3262 94.3945 33.3262ZM121.201 16.3281V15.9941H108.633V11.6172H126.51V16.0469L115.91 37H110.355L121.201 16.3281Z" fill="white"/>
<path d="M36.3379 47.6152V49.6934H37.9785C38.9036 49.6934 39.3662 49.3424 39.3662 48.6406C39.3662 47.957 38.9674 47.6152 38.1699 47.6152H36.3379ZM36.3379 50.6777V53.0156H38.3066C39.2272 53.0156 39.6875 52.6305 39.6875 51.8604C39.6875 51.0719 39.152 50.6777 38.0811 50.6777H36.3379ZM35.1621 46.6309H38.3203C39.0085 46.6309 39.5508 46.8018 39.9473 47.1436C40.3346 47.4808 40.5283 47.9388 40.5283 48.5176C40.5283 48.8822 40.4144 49.2126 40.1865 49.5088C39.9541 49.8096 39.667 49.9964 39.3252 50.0693V50.1787C39.79 50.2425 40.1615 50.4316 40.4395 50.7461C40.7174 51.056 40.8564 51.4342 40.8564 51.8809C40.8564 52.528 40.6354 53.0407 40.1934 53.4189C39.7422 53.8063 39.1224 54 38.334 54H35.1621V46.6309ZM49.1826 46.6309H50.3584V54H49.1826V46.6309ZM44.1172 49.9805V53.0156H45.5049C45.988 53.0156 46.3753 52.8766 46.667 52.5986C46.9541 52.3252 47.0977 51.9583 47.0977 51.498C47.0977 51.0378 46.9518 50.6686 46.6602 50.3906C46.373 50.1172 45.988 49.9805 45.5049 49.9805H44.1172ZM42.9414 46.6309H44.1172V48.9961H45.5049C46.348 48.9961 47.0202 49.2217 47.5215 49.6729C48.0228 50.124 48.2734 50.7324 48.2734 51.498C48.2734 52.2637 48.0228 52.8721 47.5215 53.3232C47.0202 53.7744 46.348 54 45.5049 54H42.9414V46.6309ZM57.6182 48.8867C57.5179 48.4993 57.3105 48.1872 56.9961 47.9502C56.6497 47.6904 56.2236 47.5605 55.7178 47.5605C55.057 47.5605 54.5306 47.8066 54.1387 48.2988C53.7513 48.791 53.5576 49.4541 53.5576 50.2881C53.5576 51.1357 53.7536 51.8125 54.1455 52.3184C54.5374 52.8197 55.0615 53.0703 55.7178 53.0703C56.7568 53.0703 57.3903 52.6396 57.6182 51.7783H58.8076C58.6982 52.4756 58.3792 53.0361 57.8506 53.46C57.2946 53.9066 56.5859 54.1299 55.7246 54.1299C54.6901 54.1299 53.8675 53.7835 53.2568 53.0908C52.6462 52.3936 52.3408 51.4593 52.3408 50.2881C52.3408 49.1396 52.6462 48.2214 53.2568 47.5332C53.8675 46.8451 54.6878 46.501 55.7178 46.501C56.5791 46.501 57.2923 46.7334 57.8574 47.1982C58.3815 47.6357 58.6982 48.1986 58.8076 48.8867H57.6182ZM65.6709 47.6152H63.2783V54H62.1025V47.6152H59.71V46.6309H65.6709V47.6152ZM68.0225 56.6729C67.8356 56.6729 67.6602 56.6592 67.4961 56.6318V55.627C67.6146 55.6497 67.7786 55.6611 67.9883 55.6611C68.3255 55.6611 68.5967 55.57 68.8018 55.3877C69.0068 55.2008 69.1868 54.8864 69.3418 54.4443L69.4785 54.0068L66.751 46.6309H68.0225L70.0459 52.6943H70.1553L72.1719 46.6309H73.4229L70.5449 54.4512C70.2305 55.3034 69.8955 55.8867 69.54 56.2012C69.18 56.5156 68.6742 56.6729 68.0225 56.6729ZM79.9785 47.6152H76.3008V54H75.125V46.6309H81.1543V54H79.9785V47.6152ZM85.2627 50.7666C85.1807 51.8604 84.9915 52.6624 84.6953 53.1729C84.3535 53.7653 83.8203 54.0615 83.0957 54.0615C82.9271 54.0615 82.7835 54.0365 82.665 53.9863V52.9062C82.7744 52.9427 82.8975 52.9609 83.0342 52.9609C83.3805 52.9609 83.6449 52.7604 83.8271 52.3594C83.9867 52.0085 84.0915 51.4684 84.1416 50.7393L84.4287 46.6309H89.248V54H88.0723V47.6152H85.4951L85.2627 50.7666ZM94.5322 47.54C93.9443 47.54 93.4613 47.7383 93.083 48.1348C92.7048 48.5312 92.4928 49.0553 92.4473 49.707H96.5078C96.4941 49.0553 96.3073 48.5312 95.9473 48.1348C95.5872 47.7383 95.1156 47.54 94.5322 47.54ZM97.6494 52.0928C97.4717 52.7308 97.1117 53.2275 96.5693 53.583C96.0225 53.9476 95.348 54.1299 94.5459 54.1299C93.5251 54.1299 92.7161 53.7858 92.1191 53.0977C91.5221 52.4141 91.2236 51.4889 91.2236 50.3223C91.2236 49.1602 91.5244 48.2327 92.126 47.54C92.7275 46.8473 93.5342 46.501 94.5459 46.501C95.5394 46.501 96.321 46.8314 96.8906 47.4922C97.4603 48.153 97.7451 49.0576 97.7451 50.2061V50.6572H92.4473V50.7119C92.4792 51.4411 92.6842 52.0199 93.0625 52.4482C93.4453 52.8766 93.9489 53.0908 94.5732 53.0908C95.5257 53.0908 96.1592 52.7581 96.4736 52.0928H97.6494ZM99.7207 46.6309H100.896V49.6797H104.643V46.6309H105.818V54H104.643V50.6641H100.896V54H99.7207V46.6309ZM108.156 54V46.6309H109.332V52.127H109.441L113.181 46.6309H114.356V54H113.181V48.5039H113.071L109.332 54H108.156ZM119.647 47.54C119.06 47.54 118.576 47.7383 118.198 48.1348C117.82 48.5312 117.608 49.0553 117.562 49.707H121.623C121.609 49.0553 121.423 48.5312 121.062 48.1348C120.702 47.7383 120.231 47.54 119.647 47.54ZM122.765 52.0928C122.587 52.7308 122.227 53.2275 121.685 53.583C121.138 53.9476 120.463 54.1299 119.661 54.1299C118.64 54.1299 117.831 53.7858 117.234 53.0977C116.637 52.4141 116.339 51.4889 116.339 50.3223C116.339 49.1602 116.64 48.2327 117.241 47.54C117.843 46.8473 118.649 46.501 119.661 46.501C120.655 46.501 121.436 46.8314 122.006 47.4922C122.576 48.153 122.86 49.0576 122.86 50.2061V50.6572H117.562V50.7119C117.594 51.4411 117.799 52.0199 118.178 52.4482C118.561 52.8766 119.064 53.0908 119.688 53.0908C120.641 53.0908 121.274 52.7581 121.589 52.0928H122.765ZM36.3379 64.6152V71H35.1621V63.6309H39.8789V64.6152H36.3379ZM45.2588 63.501C46.1976 63.501 46.9495 63.8473 47.5146 64.54C48.0752 65.2327 48.3555 66.1579 48.3555 67.3154C48.3555 68.4684 48.0729 69.3913 47.5078 70.084C46.9427 70.7812 46.193 71.1299 45.2588 71.1299C44.1514 71.1299 43.3835 70.7174 42.9551 69.8926H42.8457V73.4609H41.6699V63.6309H42.791V64.8613H42.9004C43.1374 64.4375 43.4632 64.1048 43.8779 63.8633C44.2972 63.6217 44.7575 63.501 45.2588 63.501ZM44.9785 70.0703C45.653 70.0703 46.1816 69.8265 46.5645 69.3389C46.9473 68.8512 47.1387 68.1768 47.1387 67.3154C47.1387 66.4541 46.9473 65.7796 46.5645 65.292C46.1862 64.8044 45.6598 64.5605 44.9854 64.5605C44.32 64.5605 43.7913 64.8066 43.3994 65.2988C43.0075 65.7956 42.8115 66.4678 42.8115 67.3154C42.8115 68.1585 43.0075 68.8285 43.3994 69.3252C43.7868 69.8219 44.3132 70.0703 44.9785 70.0703ZM50.7002 73.6729C50.5133 73.6729 50.3379 73.6592 50.1738 73.6318V72.627C50.2923 72.6497 50.4564 72.6611 50.666 72.6611C51.0033 72.6611 51.2744 72.57 51.4795 72.3877C51.6846 72.2008 51.8646 71.8864 52.0195 71.4443L52.1562 71.0068L49.4287 63.6309H50.7002L52.7236 69.6943H52.833L54.8496 63.6309H56.1006L53.2227 71.4512C52.9082 72.3034 52.5732 72.8867 52.2178 73.2012C51.8577 73.5156 51.3519 73.6729 50.7002 73.6729ZM62.6562 64.6152H58.9785V71H57.8027V63.6309H63.832V71H62.6562V64.6152ZM71.0234 64.6152H67.3457V71H66.1699V63.6309H72.1992V71H71.0234V64.6152ZM80.8467 63.6309H82.0225V71H80.8467V63.6309ZM75.7812 66.9805V70.0156H77.1689C77.652 70.0156 78.0394 69.8766 78.3311 69.5986C78.6182 69.3252 78.7617 68.9583 78.7617 68.498C78.7617 68.0378 78.6159 67.6686 78.3242 67.3906C78.0371 67.1172 77.652 66.9805 77.1689 66.9805H75.7812ZM74.6055 63.6309H75.7812V65.9961H77.1689C78.012 65.9961 78.6842 66.2217 79.1855 66.6729C79.6868 67.124 79.9375 67.7324 79.9375 68.498C79.9375 69.2637 79.6868 69.8721 79.1855 70.3232C78.6842 70.7744 78.012 71 77.1689 71H74.6055V63.6309ZM93.0352 67.1924L95.4346 70.0088H94.0332L91.6406 67.165V67.1104L94.04 64.2666H95.4346L93.0352 67.083V67.1924ZM89.7607 67.1924L92.1602 70.0088H90.7656L88.373 67.165V67.1104L90.7656 64.2666H92.1602L89.7607 67.083V67.1924ZM103.036 64.6152H100.644V71H99.4678V64.6152H97.0752V63.6309H103.036V64.6152ZM106.249 67.7666C106.167 68.8604 105.978 69.6624 105.682 70.1729C105.34 70.7653 104.807 71.0615 104.082 71.0615C103.913 71.0615 103.77 71.0365 103.651 70.9863V69.9062C103.761 69.9427 103.884 69.9609 104.021 69.9609C104.367 69.9609 104.631 69.7604 104.813 69.3594C104.973 69.0085 105.078 68.4684 105.128 67.7393L105.415 63.6309H110.234V71H109.059V64.6152H106.481L106.249 67.7666ZM116.496 67.377V64.6152H115.108C114.621 64.6152 114.233 64.7406 113.946 64.9912C113.659 65.2464 113.516 65.5973 113.516 66.0439C113.516 66.4359 113.661 66.7549 113.953 67.001C114.245 67.2516 114.63 67.377 115.108 67.377H116.496ZM116.496 68.3613H115.231L113.352 71H111.95L114.008 68.1426C113.488 67.9967 113.08 67.7415 112.784 67.377C112.488 67.0124 112.34 66.5771 112.34 66.0713C112.34 65.3148 112.59 64.7178 113.092 64.2803C113.589 63.8473 114.261 63.6309 115.108 63.6309H117.672V71H116.496V68.3613ZM120.064 64.2666H121.459L123.858 67.1104V67.165L121.466 70.0088H120.064L122.464 67.1924V67.083L120.064 64.2666ZM123.339 64.2666H124.733L127.126 67.1104V67.165L124.733 70.0088H123.339L125.738 67.1924V67.083L123.339 64.2666Z" fill="white"/>
<defs>
<filter id="filter0_b" x="-20" y="-20" width="206" height="157" filterUnits="userSpaceOnUse" color-interpolation-filters="sRGB">
<feFlood flood-opacity="0" result="BackgroundImageFix"/>
<feGaussianBlur in="BackgroundImage" stdDeviation="10"/>
<feComposite in2="SourceAlpha" operator="in" result="effect1_backgroundBlur"/>
<feBlend mode="normal" in="SourceGraphic" in2="effect1_backgroundBlur" result="shape"/>
</filter>
</defs>
</svg>
