<svg width="166" height="117" viewBox="0 0 166 117" fill="none" xmlns="http://www.w3.org/2000/svg">
<g filter="url(#filter0_b)">
<rect width="166" height="117" rx="5" fill="white" fill-opacity="0.2"/>
</g>
<path d="M38.7363 22.041H41.8301C43.0371 22.041 44.0098 21.7188 44.748 21.0742C45.498 20.4297 45.873 19.5918 45.873 18.5605C45.873 17.541 45.5039 16.7266 44.7656 16.1172C44.0391 15.5195 43.0547 15.2207 41.8125 15.2207C40.582 15.2207 39.5859 15.543 38.8242 16.1875C38.0625 16.832 37.6465 17.7051 37.5762 18.8066H32.6719C32.7656 16.4043 33.6445 14.5 35.3086 13.0938C36.9727 11.6875 39.1875 10.9844 41.9531 10.9844C44.5547 10.9844 46.6992 11.623 48.3867 12.9004C50.0625 14.1895 50.9004 15.8301 50.9004 17.8223C50.9004 19.2871 50.4727 20.5469 49.6172 21.6016C48.7734 22.6562 47.6426 23.3301 46.2246 23.623V23.9395C47.9707 24.1387 49.3477 24.7773 50.3555 25.8555C51.375 26.9453 51.8848 28.3223 51.8848 29.9863C51.8848 32.2129 50.9473 34.0469 49.0723 35.4883C47.1973 36.9297 44.8125 37.6504 41.918 37.6504C39.0938 37.6504 36.7969 36.9297 35.0273 35.4883C33.2578 34.0469 32.3145 32.1309 32.1973 29.7402H37.2773C37.3594 30.8184 37.8223 31.668 38.666 32.2891C39.5098 32.9219 40.6113 33.2383 41.9707 33.2383C43.2949 33.2383 44.3789 32.8984 45.2227 32.2188C46.0547 31.5391 46.4707 30.6602 46.4707 29.582C46.4707 28.4688 46.0605 27.5957 45.2402 26.9629C44.4199 26.3184 43.3008 25.9961 41.8828 25.9961H38.7363V22.041ZM66.2109 37.6504C63.0703 37.6504 60.6094 36.4727 58.8281 34.1172C57.0352 31.75 56.1387 28.4688 56.1387 24.2734C56.1387 20.0898 57.0352 16.8262 58.8281 14.4824C60.6094 12.1504 63.0703 10.9844 66.2109 10.9844C69.3398 10.9844 71.7949 12.1504 73.5762 14.4824C75.3809 16.8379 76.2832 20.1074 76.2832 24.291C76.2832 28.4746 75.3867 31.75 73.5938 34.1172C71.8125 36.4727 69.3516 37.6504 66.2109 37.6504ZM66.2109 33.3262C67.6875 33.3262 68.8359 32.5586 69.6562 31.0234C70.4883 29.4531 70.9043 27.2031 70.9043 24.2734C70.9043 21.3672 70.4824 19.1348 69.6387 17.5762C68.8301 16.0762 67.6875 15.3262 66.2109 15.3262C64.7461 15.3262 63.6035 16.082 62.7832 17.5938C61.9395 19.1523 61.5176 21.3789 61.5176 24.2734C61.5176 27.1914 61.9395 29.4414 62.7832 31.0234C63.5918 32.5586 64.7344 33.3262 66.2109 33.3262ZM82.752 37.4746C81.8262 37.4746 81.0703 37.1875 80.4844 36.6133C79.9219 36.0391 79.6406 35.3066 79.6406 34.416C79.6406 33.5254 79.9219 32.7988 80.4844 32.2363C81.0586 31.6621 81.8145 31.375 82.752 31.375C83.6895 31.375 84.4453 31.6621 85.0195 32.2363C85.582 32.7871 85.8633 33.5137 85.8633 34.416C85.8633 35.3184 85.582 36.0508 85.0195 36.6133C84.4453 37.1875 83.6895 37.4746 82.752 37.4746ZM99.4688 37.6504C96.3281 37.6504 93.8672 36.4727 92.0859 34.1172C90.293 31.75 89.3965 28.4688 89.3965 24.2734C89.3965 20.0898 90.293 16.8262 92.0859 14.4824C93.8672 12.1504 96.3281 10.9844 99.4688 10.9844C102.598 10.9844 105.053 12.1504 106.834 14.4824C108.639 16.8379 109.541 20.1074 109.541 24.291C109.541 28.4746 108.645 31.75 106.852 34.1172C105.07 36.4727 102.609 37.6504 99.4688 37.6504ZM99.4688 33.3262C100.945 33.3262 102.094 32.5586 102.914 31.0234C103.746 29.4531 104.162 27.2031 104.162 24.2734C104.162 21.3672 103.74 19.1348 102.896 17.5762C102.088 16.0762 100.945 15.3262 99.4688 15.3262C98.0039 15.3262 96.8613 16.082 96.041 17.5938C95.1973 19.1523 94.7754 21.3789 94.7754 24.2734C94.7754 27.1914 95.1973 29.4414 96.041 31.0234C96.8496 32.5586 97.9922 33.3262 99.4688 33.3262ZM124.482 37.6504C120.697 37.6504 117.908 36.1211 116.115 33.0625C114.697 30.8828 113.988 28.0293 113.988 24.502C113.988 20.2949 114.926 16.9902 116.801 14.5879C118.676 12.1855 121.266 10.9844 124.57 10.9844C126.984 10.9844 129.041 11.6348 130.74 12.9355C132.451 14.2363 133.488 15.9473 133.852 18.0684H128.596C128.35 17.2363 127.857 16.5742 127.119 16.082C126.393 15.5898 125.531 15.3438 124.535 15.3438C122.801 15.3438 121.441 16.123 120.457 17.6816C119.461 19.2285 118.992 21.3203 119.051 23.957H119.367C120.574 21.4609 122.73 20.2129 125.836 20.2129C128.238 20.2129 130.23 21.0098 131.812 22.6035C133.395 24.1973 134.186 26.207 134.186 28.6328C134.186 31.2695 133.277 33.4316 131.461 35.1191C129.645 36.8066 127.318 37.6504 124.482 37.6504ZM124.43 33.291C125.73 33.291 126.826 32.8574 127.717 31.9902C128.596 31.1348 129.035 30.0684 129.035 28.791C129.035 27.502 128.602 26.4297 127.734 25.5742C126.867 24.7305 125.771 24.3086 124.447 24.3086C123.123 24.3086 122.021 24.7305 121.143 25.5742C120.275 26.418 119.842 27.4727 119.842 28.7383C119.842 30.0273 120.281 31.1113 121.16 31.9902C122.039 32.8574 123.129 33.291 124.43 33.291Z" fill="white"/>
<path d="M40.0156 47.6152H36.3379V54H35.1621V46.6309H41.1914V54H40.0156V47.6152ZM46.4756 47.54C45.8877 47.54 45.4046 47.7383 45.0264 48.1348C44.6481 48.5312 44.4362 49.0553 44.3906 49.707H48.4512C48.4375 49.0553 48.2507 48.5312 47.8906 48.1348C47.5306 47.7383 47.0589 47.54 46.4756 47.54ZM49.5928 52.0928C49.415 52.7308 49.055 53.2275 48.5127 53.583C47.9658 53.9476 47.2913 54.1299 46.4893 54.1299C45.4684 54.1299 44.6595 53.7858 44.0625 53.0977C43.4655 52.4141 43.167 51.4889 43.167 50.3223C43.167 49.1602 43.4678 48.2327 44.0693 47.54C44.6709 46.8473 45.4775 46.501 46.4893 46.501C47.4827 46.501 48.2643 46.8314 48.834 47.4922C49.4036 48.153 49.6885 49.0576 49.6885 50.2061V50.6572H44.3906V50.7119C44.4225 51.4411 44.6276 52.0199 45.0059 52.4482C45.3887 52.8766 45.8923 53.0908 46.5166 53.0908C47.4691 53.0908 48.1025 52.7581 48.417 52.0928H49.5928ZM51.6641 46.6309H52.8398V49.6797H56.5859V46.6309H57.7617V54H56.5859V50.6641H52.8398V54H51.6641V46.6309ZM60.0996 46.6309H61.2754V49.6797H65.0215V46.6309H66.1973V54H65.0215V50.6641H61.2754V54H60.0996V46.6309ZM71.5703 53.0703C72.2676 53.0703 72.8053 52.8288 73.1836 52.3457C73.5618 51.8672 73.751 51.1904 73.751 50.3154C73.751 49.4404 73.5618 48.7614 73.1836 48.2783C72.8053 47.7998 72.2676 47.5605 71.5703 47.5605C70.873 47.5605 70.3353 47.7998 69.957 48.2783C69.5788 48.7614 69.3896 49.4404 69.3896 50.3154C69.3896 51.1904 69.5788 51.8672 69.957 52.3457C70.3353 52.8288 70.873 53.0703 71.5703 53.0703ZM71.5703 54.1299C70.5221 54.1299 69.6927 53.7904 69.082 53.1113C68.4759 52.4277 68.1729 51.4958 68.1729 50.3154C68.1729 49.1305 68.4759 48.1986 69.082 47.5195C69.6882 46.8405 70.5176 46.501 71.5703 46.501C72.623 46.501 73.4525 46.8405 74.0586 47.5195C74.6647 48.1986 74.9678 49.1305 74.9678 50.3154C74.9678 51.4958 74.6647 52.4277 74.0586 53.1113C73.4479 53.7904 72.6185 54.1299 71.5703 54.1299ZM79.8896 47.54C79.3018 47.54 78.8187 47.7383 78.4404 48.1348C78.0622 48.5312 77.8503 49.0553 77.8047 49.707H81.8652C81.8516 49.0553 81.6647 48.5312 81.3047 48.1348C80.9447 47.7383 80.473 47.54 79.8896 47.54ZM83.0068 52.0928C82.8291 52.7308 82.4691 53.2275 81.9268 53.583C81.3799 53.9476 80.7054 54.1299 79.9033 54.1299C78.8825 54.1299 78.0736 53.7858 77.4766 53.0977C76.8796 52.4141 76.5811 51.4889 76.5811 50.3223C76.5811 49.1602 76.8818 48.2327 77.4834 47.54C78.085 46.8473 78.8916 46.501 79.9033 46.501C80.8968 46.501 81.6784 46.8314 82.248 47.4922C82.8177 48.153 83.1025 49.0576 83.1025 50.2061V50.6572H77.8047V50.7119C77.8366 51.4411 78.0417 52.0199 78.4199 52.4482C78.8027 52.8766 79.3063 53.0908 79.9307 53.0908C80.8831 53.0908 81.5166 52.7581 81.8311 52.0928H83.0068ZM93.8828 47.6152H90.2051V54H89.0293V46.6309H95.0586V54H93.8828V47.6152ZM99.6729 53.0977C100.279 53.0977 100.78 52.9222 101.177 52.5713C101.578 52.2204 101.778 51.7806 101.778 51.252V50.5752L99.7959 50.7051C98.7204 50.778 98.1826 51.179 98.1826 51.9082C98.1826 52.2773 98.3239 52.569 98.6064 52.7832C98.8799 52.9928 99.2354 53.0977 99.6729 53.0977ZM99.4541 54.1299C98.7295 54.1299 98.137 53.9316 97.6768 53.5352C97.2028 53.1341 96.9658 52.6009 96.9658 51.9355C96.9658 51.2793 97.1982 50.7643 97.6631 50.3906C98.1279 50.0169 98.791 49.805 99.6523 49.7549L101.778 49.625V48.9551C101.778 48.0163 101.222 47.5469 100.11 47.5469C99.1761 47.5469 98.6224 47.8522 98.4492 48.4629H97.2598C97.3372 47.875 97.6426 47.401 98.1758 47.041C98.7044 46.681 99.363 46.501 100.151 46.501C101.045 46.501 101.737 46.7174 102.229 47.1504C102.713 47.5833 102.954 48.1849 102.954 48.9551V54H101.833V52.9131H101.724C101.231 53.7243 100.475 54.1299 99.4541 54.1299ZM110.556 47.6152H108.163V54H106.987V47.6152H104.595V46.6309H110.556V47.6152ZM112.271 54V46.6309H113.447V52.127H113.557L117.296 46.6309H118.472V54H117.296V48.5039H117.187L113.447 54H112.271Z" fill="white"/>
<defs>
<filter id="filter0_b" x="-20" y="-20" width="206" height="157" filterUnits="userSpaceOnUse" color-interpolation-filters="sRGB">
<feFlood flood-opacity="0" result="BackgroundImageFix"/>
<feGaussianBlur in="BackgroundImage" stdDeviation="10"/>
<feComposite in2="SourceAlpha" operator="in" result="effect1_backgroundBlur"/>
<feBlend mode="normal" in="SourceGraphic" in2="effect1_backgroundBlur" result="shape"/>
</filter>
</defs>
</svg>
