<svg width="166" height="117" viewBox="0 0 166 117" fill="none" xmlns="http://www.w3.org/2000/svg">
<g filter="url(#filter0_b)">
<rect width="166" height="117" rx="5" fill="white" fill-opacity="0.2"/>
</g>
<path d="M36.25 19.2285C36.25 16.7793 37.1055 14.793 38.8164 13.2695C40.5273 11.7461 42.7539 10.9844 45.4961 10.9844C48.1445 10.9844 50.3008 11.6699 51.9648 13.041C53.6406 14.4238 54.4785 16.2051 54.4785 18.3848C54.4785 19.7676 54.0449 21.1387 53.1777 22.498C52.3105 23.8691 50.7812 25.5859 48.5898 27.6484L43.7383 32.2715V32.5879H54.8477V37H36.5488V33.291L44.8281 25.1875C46.6094 23.4531 47.7988 22.1465 48.3965 21.2676C48.9941 20.4121 49.293 19.5684 49.293 18.7363C49.293 17.7168 48.9238 16.8789 48.1855 16.2227C47.4355 15.5781 46.4805 15.2559 45.3203 15.2559C44.0898 15.2559 43.0938 15.625 42.332 16.3633C41.5586 17.0898 41.1719 18.0391 41.1719 19.2109V19.3164H36.25V19.2285ZM65.8516 16.8027H65.5352L59.3125 21.0918V16.1523L65.8691 11.6348H71.1602V37H65.8516V16.8027ZM80.916 37.4746C79.9902 37.4746 79.2344 37.1875 78.6484 36.6133C78.0859 36.0391 77.8047 35.3066 77.8047 34.416C77.8047 33.5254 78.0859 32.7988 78.6484 32.2363C79.2227 31.6621 79.9785 31.375 80.916 31.375C81.8535 31.375 82.6094 31.6621 83.1836 32.2363C83.7461 32.7871 84.0273 33.5137 84.0273 34.416C84.0273 35.3184 83.7461 36.0508 83.1836 36.6133C82.6094 37.1875 81.8535 37.4746 80.916 37.4746ZM97.6328 37.6504C94.4922 37.6504 92.0312 36.4727 90.25 34.1172C88.457 31.75 87.5605 28.4688 87.5605 24.2734C87.5605 20.0898 88.457 16.8262 90.25 14.4824C92.0312 12.1504 94.4922 10.9844 97.6328 10.9844C100.762 10.9844 103.217 12.1504 104.998 14.4824C106.803 16.8379 107.705 20.1074 107.705 24.291C107.705 28.4746 106.809 31.75 105.016 34.1172C103.234 36.4727 100.773 37.6504 97.6328 37.6504ZM97.6328 33.3262C99.1094 33.3262 100.258 32.5586 101.078 31.0234C101.91 29.4531 102.326 27.2031 102.326 24.2734C102.326 21.3672 101.904 19.1348 101.061 17.5762C100.252 16.0762 99.1094 15.3262 97.6328 15.3262C96.168 15.3262 95.0254 16.082 94.2051 17.5938C93.3613 19.1523 92.9395 21.3789 92.9395 24.2734C92.9395 27.1914 93.3613 29.4414 94.2051 31.0234C95.0137 32.5586 96.1562 33.3262 97.6328 33.3262ZM124.439 16.3281V15.9941H111.871V11.6172H129.748V16.0469L119.148 37H113.594L124.439 16.3281Z" fill="white"/>
<path d="M40.8516 47.6152H38.0557L37.8232 50.7666C37.7458 51.7601 37.543 52.4733 37.2148 52.9062V53.0156H40.8516V47.6152ZM35.2256 55.9482V53.0156H35.8408C36.3421 52.6875 36.6338 51.9287 36.7158 50.7393L37.0029 46.6309H42.0273V53.0156H43.2031V55.9482H42.0957V54H36.333V55.9482H35.2256ZM47.6943 47.54C47.1064 47.54 46.6234 47.7383 46.2451 48.1348C45.8669 48.5312 45.6549 49.0553 45.6094 49.707H49.6699C49.6562 49.0553 49.4694 48.5312 49.1094 48.1348C48.7493 47.7383 48.2777 47.54 47.6943 47.54ZM50.8115 52.0928C50.6338 52.7308 50.2738 53.2275 49.7314 53.583C49.1846 53.9476 48.5101 54.1299 47.708 54.1299C46.6872 54.1299 45.8783 53.7858 45.2812 53.0977C44.6842 52.4141 44.3857 51.4889 44.3857 50.3223C44.3857 49.1602 44.6865 48.2327 45.2881 47.54C45.8896 46.8473 46.6963 46.501 47.708 46.501C48.7015 46.501 49.4831 46.8314 50.0527 47.4922C50.6224 48.153 50.9072 49.0576 50.9072 50.2061V50.6572H45.6094V50.7119C45.6413 51.4411 45.8464 52.0199 46.2246 52.4482C46.6074 52.8766 47.111 53.0908 47.7354 53.0908C48.6878 53.0908 49.3213 52.7581 49.6357 52.0928H50.8115ZM52.8828 46.6309H54.0586V49.6797H57.8047V46.6309H58.9805V54H57.8047V50.6641H54.0586V54H52.8828V46.6309ZM62.4941 49.9805V53.0156H63.8818C64.3649 53.0156 64.7523 52.8766 65.0439 52.5986C65.3311 52.3252 65.4746 51.9583 65.4746 51.498C65.4746 51.0378 65.3288 50.6686 65.0371 50.3906C64.75 50.1172 64.3649 49.9805 63.8818 49.9805H62.4941ZM61.3184 46.6309H62.4941V48.9961H63.8818C64.7249 48.9961 65.3971 49.2217 65.8984 49.6729C66.3997 50.124 66.6504 50.7324 66.6504 51.498C66.6504 52.2637 66.3997 52.8721 65.8984 53.3232C65.3971 53.7744 64.7249 54 63.8818 54H61.3184V46.6309ZM73.9307 49.7139L76.8496 46.6309H78.2783L74.9014 50.1035L78.4082 54H76.8838L73.9307 50.6436H73.6094V54H72.4336V46.6309H73.6094V49.7139H73.9307ZM83.6377 46.501C84.5765 46.501 85.3285 46.8473 85.8936 47.54C86.4541 48.2327 86.7344 49.1579 86.7344 50.3154C86.7344 51.4684 86.4518 52.3913 85.8867 53.084C85.3216 53.7812 84.5719 54.1299 83.6377 54.1299C82.5303 54.1299 81.7624 53.7174 81.334 52.8926H81.2246V56.4609H80.0488V46.6309H81.1699V47.8613H81.2793C81.5163 47.4375 81.8421 47.1048 82.2568 46.8633C82.6761 46.6217 83.1364 46.501 83.6377 46.501ZM83.3574 53.0703C84.0319 53.0703 84.5605 52.8265 84.9434 52.3389C85.3262 51.8512 85.5176 51.1768 85.5176 50.3154C85.5176 49.4541 85.3262 48.7796 84.9434 48.292C84.5651 47.8044 84.0387 47.5605 83.3643 47.5605C82.6989 47.5605 82.1702 47.8066 81.7783 48.2988C81.3864 48.7956 81.1904 49.4678 81.1904 50.3154C81.1904 51.1585 81.3864 51.8285 81.7783 52.3252C82.1657 52.8219 82.6921 53.0703 83.3574 53.0703ZM91.752 53.0703C92.4492 53.0703 92.987 52.8288 93.3652 52.3457C93.7435 51.8672 93.9326 51.1904 93.9326 50.3154C93.9326 49.4404 93.7435 48.7614 93.3652 48.2783C92.987 47.7998 92.4492 47.5605 91.752 47.5605C91.0547 47.5605 90.5169 47.7998 90.1387 48.2783C89.7604 48.7614 89.5713 49.4404 89.5713 50.3154C89.5713 51.1904 89.7604 51.8672 90.1387 52.3457C90.5169 52.8288 91.0547 53.0703 91.752 53.0703ZM91.752 54.1299C90.7038 54.1299 89.8743 53.7904 89.2637 53.1113C88.6576 52.4277 88.3545 51.4958 88.3545 50.3154C88.3545 49.1305 88.6576 48.1986 89.2637 47.5195C89.8698 46.8405 90.6992 46.501 91.752 46.501C92.8047 46.501 93.6341 46.8405 94.2402 47.5195C94.8464 48.1986 95.1494 49.1305 95.1494 50.3154C95.1494 51.4958 94.8464 52.4277 94.2402 53.1113C93.6296 53.7904 92.8001 54.1299 91.752 54.1299ZM98.3008 47.6152V49.6934H99.9414C100.867 49.6934 101.329 49.3424 101.329 48.6406C101.329 47.957 100.93 47.6152 100.133 47.6152H98.3008ZM98.3008 50.6777V53.0156H100.27C101.19 53.0156 101.65 52.6305 101.65 51.8604C101.65 51.0719 101.115 50.6777 100.044 50.6777H98.3008ZM97.125 46.6309H100.283C100.971 46.6309 101.514 46.8018 101.91 47.1436C102.298 47.4808 102.491 47.9388 102.491 48.5176C102.491 48.8822 102.377 49.2126 102.149 49.5088C101.917 49.8096 101.63 49.9964 101.288 50.0693V50.1787C101.753 50.2425 102.124 50.4316 102.402 50.7461C102.68 51.056 102.819 51.4342 102.819 51.8809C102.819 52.528 102.598 53.0407 102.156 53.4189C101.705 53.8063 101.085 54 100.297 54H97.125V46.6309ZM107.112 53.0977C107.718 53.0977 108.22 52.9222 108.616 52.5713C109.017 52.2204 109.218 51.7806 109.218 51.252V50.5752L107.235 50.7051C106.16 50.778 105.622 51.179 105.622 51.9082C105.622 52.2773 105.763 52.569 106.046 52.7832C106.319 52.9928 106.675 53.0977 107.112 53.0977ZM106.894 54.1299C106.169 54.1299 105.576 53.9316 105.116 53.5352C104.642 53.1341 104.405 52.6009 104.405 51.9355C104.405 51.2793 104.638 50.7643 105.103 50.3906C105.567 50.0169 106.23 49.805 107.092 49.7549L109.218 49.625V48.9551C109.218 48.0163 108.662 47.5469 107.55 47.5469C106.616 47.5469 106.062 47.8522 105.889 48.4629H104.699C104.777 47.875 105.082 47.401 105.615 47.041C106.144 46.681 106.802 46.501 107.591 46.501C108.484 46.501 109.177 46.7174 109.669 47.1504C110.152 47.5833 110.394 48.1849 110.394 48.9551V54H109.272V52.9131H109.163C108.671 53.7243 107.914 54.1299 106.894 54.1299ZM113.969 47.6152V49.6934H115.609C116.535 49.6934 116.997 49.3424 116.997 48.6406C116.997 47.957 116.598 47.6152 115.801 47.6152H113.969ZM113.969 50.6777V53.0156H115.938C116.858 53.0156 117.318 52.6305 117.318 51.8604C117.318 51.0719 116.783 50.6777 115.712 50.6777H113.969ZM112.793 46.6309H115.951C116.639 46.6309 117.182 46.8018 117.578 47.1436C117.965 47.4808 118.159 47.9388 118.159 48.5176C118.159 48.8822 118.045 49.2126 117.817 49.5088C117.585 49.8096 117.298 49.9964 116.956 50.0693V50.1787C117.421 50.2425 117.792 50.4316 118.07 50.7461C118.348 51.056 118.487 51.4342 118.487 51.8809C118.487 52.528 118.266 53.0407 117.824 53.4189C117.373 53.8063 116.753 54 115.965 54H112.793V46.6309ZM123.471 53.0703C124.168 53.0703 124.706 52.8288 125.084 52.3457C125.462 51.8672 125.651 51.1904 125.651 50.3154C125.651 49.4404 125.462 48.7614 125.084 48.2783C124.706 47.7998 124.168 47.5605 123.471 47.5605C122.773 47.5605 122.236 47.7998 121.857 48.2783C121.479 48.7614 121.29 49.4404 121.29 50.3154C121.29 51.1904 121.479 51.8672 121.857 52.3457C122.236 52.8288 122.773 53.0703 123.471 53.0703ZM123.471 54.1299C122.423 54.1299 121.593 53.7904 120.982 53.1113C120.376 52.4277 120.073 51.4958 120.073 50.3154C120.073 49.1305 120.376 48.1986 120.982 47.5195C121.589 46.8405 122.418 46.501 123.471 46.501C124.523 46.501 125.353 46.8405 125.959 47.5195C126.565 48.1986 126.868 49.1305 126.868 50.3154C126.868 51.4958 126.565 52.4277 125.959 53.1113C125.348 53.7904 124.519 54.1299 123.471 54.1299ZM128.844 54V46.6309H130.02V52.127H130.129L133.868 46.6309H135.044V54H133.868V48.5039H133.759L130.02 54H128.844ZM130.532 43.3633C130.532 43.7552 130.646 44.0879 130.874 44.3613C131.111 44.653 131.421 44.7988 131.804 44.7988C132.191 44.7988 132.506 44.653 132.747 44.3613C132.975 44.0879 133.089 43.7552 133.089 43.3633H134.155C134.155 44.0059 133.939 44.5391 133.506 44.9629C133.068 45.3913 132.501 45.6055 131.804 45.6055C131.111 45.6055 130.546 45.3913 130.108 44.9629C129.68 44.5436 129.466 44.0104 129.466 43.3633H130.532ZM36.1621 71V63.6309H37.5908L40.2295 69.3457H40.3389L42.9844 63.6309H44.3584V71H43.1758V65.7568H43.0459L40.7148 70.7949H39.7988L37.4678 65.7568H37.3379V71H36.1621ZM49.3896 71.123C48.5238 71.123 47.8105 70.8997 47.25 70.4531C46.7168 70.0293 46.3955 69.4688 46.2861 68.7715H47.4756C47.7035 69.6328 48.3438 70.0635 49.3965 70.0635C50.0117 70.0635 50.5176 69.847 50.9141 69.4141C51.3105 68.9811 51.5339 68.4046 51.584 67.6846H48.1523V66.7002H51.5635C51.4951 66.0485 51.2627 65.5267 50.8662 65.1348C50.4697 64.752 49.9798 64.5605 49.3965 64.5605C48.8815 64.5605 48.4508 64.6904 48.1045 64.9502C47.7855 65.1872 47.5758 65.4993 47.4756 65.8867H46.2861C46.3955 65.1986 46.7145 64.6357 47.2432 64.1982C47.8128 63.7334 48.5306 63.501 49.3965 63.501C50.431 63.501 51.2581 63.8451 51.8779 64.5332C52.4977 65.2214 52.8076 66.1396 52.8076 67.2881C52.8076 68.4593 52.4954 69.3913 51.8711 70.084C51.2513 70.7767 50.4242 71.123 49.3896 71.123ZM58.3721 63.501C59.3109 63.501 60.0628 63.8473 60.6279 64.54C61.1885 65.2327 61.4688 66.1579 61.4688 67.3154C61.4688 68.4684 61.1862 69.3913 60.6211 70.084C60.056 70.7812 59.3063 71.1299 58.3721 71.1299C57.2646 71.1299 56.4967 70.7174 56.0684 69.8926H55.959V73.4609H54.7832V63.6309H55.9043V64.8613H56.0137C56.2507 64.4375 56.5765 64.1048 56.9912 63.8633C57.4105 63.6217 57.8708 63.501 58.3721 63.501ZM58.0918 70.0703C58.7663 70.0703 59.2949 69.8265 59.6777 69.3389C60.0605 68.8512 60.252 68.1768 60.252 67.3154C60.252 66.4541 60.0605 65.7796 59.6777 65.292C59.2995 64.8044 58.7731 64.5605 58.0986 64.5605C57.4333 64.5605 56.9046 64.8066 56.5127 65.2988C56.1208 65.7956 55.9248 66.4678 55.9248 67.3154C55.9248 68.1585 56.1208 68.8285 56.5127 69.3252C56.9001 69.8219 57.4264 70.0703 58.0918 70.0703ZM63.4512 71V63.6309H64.627V69.127H64.7363L68.4756 63.6309H69.6514V71H68.4756V65.5039H68.3662L64.627 71H63.4512Z" fill="white"/>
<defs>
<filter id="filter0_b" x="-20" y="-20" width="206" height="157" filterUnits="userSpaceOnUse" color-interpolation-filters="sRGB">
<feFlood flood-opacity="0" result="BackgroundImageFix"/>
<feGaussianBlur in="BackgroundImage" stdDeviation="10"/>
<feComposite in2="SourceAlpha" operator="in" result="effect1_backgroundBlur"/>
<feBlend mode="normal" in="SourceGraphic" in2="effect1_backgroundBlur" result="shape"/>
</filter>
</defs>
</svg>
